<?xml version="1.0" encoding="utf-8" standalone="no"?>
<!DOCTYPE svg PUBLIC "-//W3C//DTD SVG 1.1//EN"
  "http://www.w3.org/Graphics/SVG/1.1/DTD/svg11.dtd">
<!-- Created with matplotlib (http://matplotlib.org/) -->
<svg height="393pt" version="1.1" viewBox="0 0 500 393" width="500pt" xmlns="http://www.w3.org/2000/svg" xmlns:xlink="http://www.w3.org/1999/xlink">
 <defs>
  <style type="text/css">
*{stroke-linecap:butt;stroke-linejoin:round;stroke-miterlimit:100000;}
  </style>
 </defs>
 <g id="figure_1">
  <g id="patch_1">
   <path d="M 0 393 
L 500 393 
L 500 0 
L 0 0 
z
" style="fill:#ffffff;"/>
  </g>
  <g id="axes_1">
   <g id="patch_2">
    <path d="M 32.23 309.798125 
L 487.04 309.798125 
L 487.04 12.96 
L 32.23 12.96 
z
" style="fill:#ffffff;"/>
   </g>
   <g id="LineCollection_1">
    <path clip-path="url(#p1d22d4b336)" d="M 48.473214 309.798125 
L 48.473214 177.383312 
L 59.302024 177.383312 
L 59.302024 309.798125 
" style="fill:none;stroke:#008000;"/>
   </g>
   <g id="LineCollection_2">
    <path clip-path="url(#p1d22d4b336)" d="M 102.617262 309.798125 
L 102.617262 206.833268 
L 113.446071 206.833268 
L 113.446071 309.798125 
" style="fill:none;stroke:#ff0000;"/>
    <path clip-path="url(#p1d22d4b336)" d="M 124.274881 309.798125 
L 124.274881 160.042312 
L 135.10369 160.042312 
L 135.10369 309.798125 
" style="fill:none;stroke:#ff0000;"/>
    <path clip-path="url(#p1d22d4b336)" d="M 108.031667 206.833268 
L 108.031667 138.454247 
L 129.689286 138.454247 
L 129.689286 160.042312 
" style="fill:none;stroke:#ff0000;"/>
    <path clip-path="url(#p1d22d4b336)" d="M 145.9325 309.798125 
L 145.9325 122.5353 
L 156.76131 122.5353 
L 156.76131 309.798125 
" style="fill:none;stroke:#ff0000;"/>
    <path clip-path="url(#p1d22d4b336)" d="M 118.860476 138.454247 
L 118.860476 116.113004 
L 151.346905 116.113004 
L 151.346905 122.5353 
" style="fill:none;stroke:#ff0000;"/>
   </g>
   <g id="LineCollection_3">
    <path clip-path="url(#p1d22d4b336)" d="M 232.562976 309.798125 
L 232.562976 212.955565 
L 243.391786 212.955565 
L 243.391786 309.798125 
" style="fill:none;stroke:#00bfbf;"/>
    <path clip-path="url(#p1d22d4b336)" d="M 221.734167 309.798125 
L 221.734167 152.085209 
L 237.977381 152.085209 
L 237.977381 212.955565 
" style="fill:none;stroke:#00bfbf;"/>
   </g>
   <g id="LineCollection_4">
    <path clip-path="url(#p1d22d4b336)" d="M 319.193452 309.798125 
L 319.193452 182.085938 
L 330.022262 182.085938 
L 330.022262 309.798125 
" style="fill:none;stroke:#bf00bf;"/>
    <path clip-path="url(#p1d22d4b336)" d="M 308.364643 309.798125 
L 308.364643 149.520603 
L 324.607857 149.520603 
L 324.607857 182.085938 
" style="fill:none;stroke:#bf00bf;"/>
    <path clip-path="url(#p1d22d4b336)" d="M 297.535833 309.798125 
L 297.535833 137.268462 
L 316.48625 137.268462 
L 316.48625 149.520603 
" style="fill:none;stroke:#bf00bf;"/>
    <path clip-path="url(#p1d22d4b336)" d="M 286.707024 309.798125 
L 286.707024 137.268462 
L 307.011042 137.268462 
L 307.011042 137.268462 
" style="fill:none;stroke:#bf00bf;"/>
    <path clip-path="url(#p1d22d4b336)" d="M 373.3375 309.798125 
L 373.3375 195.568873 
L 384.16631 195.568873 
L 384.16631 309.798125 
" style="fill:none;stroke:#bf00bf;"/>
    <path clip-path="url(#p1d22d4b336)" d="M 416.652738 309.798125 
L 416.652738 190.334313 
L 427.481548 190.334313 
L 427.481548 309.798125 
" style="fill:none;stroke:#bf00bf;"/>
    <path clip-path="url(#p1d22d4b336)" d="M 405.823929 309.798125 
L 405.823929 169.896434 
L 422.067143 169.896434 
L 422.067143 190.334313 
" style="fill:none;stroke:#bf00bf;"/>
    <path clip-path="url(#p1d22d4b336)" d="M 394.995119 309.798125 
L 394.995119 168.446637 
L 413.945536 168.446637 
L 413.945536 169.896434 
" style="fill:none;stroke:#bf00bf;"/>
    <path clip-path="url(#p1d22d4b336)" d="M 378.751905 195.568873 
L 378.751905 154.692213 
L 404.470327 154.692213 
L 404.470327 168.446637 
" style="fill:none;stroke:#bf00bf;"/>
    <path clip-path="url(#p1d22d4b336)" d="M 438.310357 309.798125 
L 438.310357 175.852454 
L 449.139167 175.852454 
L 449.139167 309.798125 
" style="fill:none;stroke:#bf00bf;"/>
    <path clip-path="url(#p1d22d4b336)" d="M 470.796786 309.798125 
L 470.796786 158.687028 
L 481.625595 158.687028 
L 481.625595 309.798125 
" style="fill:none;stroke:#bf00bf;"/>
    <path clip-path="url(#p1d22d4b336)" d="M 459.967976 309.798125 
L 459.967976 149.520603 
L 476.21119 149.520603 
L 476.21119 158.687028 
" style="fill:none;stroke:#bf00bf;"/>
    <path clip-path="url(#p1d22d4b336)" d="M 443.724762 175.852454 
L 443.724762 149.520603 
L 468.089583 149.520603 
L 468.089583 149.520603 
" style="fill:none;stroke:#bf00bf;"/>
    <path clip-path="url(#p1d22d4b336)" d="M 391.611116 154.692213 
L 391.611116 148.253567 
L 455.907173 148.253567 
L 455.907173 149.520603 
" style="fill:none;stroke:#bf00bf;"/>
    <path clip-path="url(#p1d22d4b336)" d="M 362.50869 309.798125 
L 362.50869 146.996392 
L 423.759144 146.996392 
L 423.759144 148.253567 
" style="fill:none;stroke:#bf00bf;"/>
    <path clip-path="url(#p1d22d4b336)" d="M 351.679881 309.798125 
L 351.679881 143.281806 
L 393.133917 143.281806 
L 393.133917 146.996392 
" style="fill:none;stroke:#bf00bf;"/>
    <path clip-path="url(#p1d22d4b336)" d="M 340.851071 309.798125 
L 340.851071 118.229845 
L 372.406899 118.229845 
L 372.406899 143.281806 
" style="fill:none;stroke:#bf00bf;"/>
    <path clip-path="url(#p1d22d4b336)" d="M 296.859033 137.268462 
L 296.859033 114.01905 
L 356.628985 114.01905 
L 356.628985 118.229845 
" style="fill:none;stroke:#bf00bf;"/>
   </g>
   <g id="LineCollection_5">
    <path clip-path="url(#p1d22d4b336)" d="M 91.788452 309.798125 
L 91.788452 83.131479 
L 135.10369 83.131479 
L 135.10369 116.113004 
" style="fill:none;stroke:#0000ff;"/>
    <path clip-path="url(#p1d22d4b336)" d="M 178.418929 309.798125 
L 178.418929 98.976288 
L 189.247738 98.976288 
L 189.247738 309.798125 
" style="fill:none;stroke:#0000ff;"/>
    <path clip-path="url(#p1d22d4b336)" d="M 275.878214 309.798125 
L 275.878214 108.879618 
L 326.744009 108.879618 
L 326.744009 114.01905 
" style="fill:none;stroke:#0000ff;"/>
    <path clip-path="url(#p1d22d4b336)" d="M 265.049405 309.798125 
L 265.049405 107.867428 
L 301.311112 107.867428 
L 301.311112 108.879618 
" style="fill:none;stroke:#0000ff;"/>
    <path clip-path="url(#p1d22d4b336)" d="M 254.220595 309.798125 
L 254.220595 107.867428 
L 283.180258 107.867428 
L 283.180258 107.867428 
" style="fill:none;stroke:#0000ff;"/>
    <path clip-path="url(#p1d22d4b336)" d="M 229.855774 152.085209 
L 229.855774 102.880734 
L 268.700427 102.880734 
L 268.700427 107.867428 
" style="fill:none;stroke:#0000ff;"/>
    <path clip-path="url(#p1d22d4b336)" d="M 210.905357 309.798125 
L 210.905357 100.919388 
L 249.2781 100.919388 
L 249.2781 102.880734 
" style="fill:none;stroke:#0000ff;"/>
    <path clip-path="url(#p1d22d4b336)" d="M 200.076548 309.798125 
L 200.076548 82.233786 
L 230.091729 82.233786 
L 230.091729 100.919388 
" style="fill:none;stroke:#0000ff;"/>
    <path clip-path="url(#p1d22d4b336)" d="M 183.833333 98.976288 
L 183.833333 73.444304 
L 215.084138 73.444304 
L 215.084138 82.233786 
" style="fill:none;stroke:#0000ff;"/>
    <path clip-path="url(#p1d22d4b336)" d="M 167.590119 309.798125 
L 167.590119 68.324132 
L 199.458736 68.324132 
L 199.458736 73.444304 
" style="fill:none;stroke:#0000ff;"/>
    <path clip-path="url(#p1d22d4b336)" d="M 113.446071 83.131479 
L 113.446071 64.138829 
L 183.524427 64.138829 
L 183.524427 68.324132 
" style="fill:none;stroke:#0000ff;"/>
    <path clip-path="url(#p1d22d4b336)" d="M 80.959643 309.798125 
L 80.959643 57.586765 
L 148.485249 57.586765 
L 148.485249 64.138829 
" style="fill:none;stroke:#0000ff;"/>
    <path clip-path="url(#p1d22d4b336)" d="M 70.130833 309.798125 
L 70.130833 56.779687 
L 114.722446 56.779687 
L 114.722446 57.586765 
" style="fill:none;stroke:#0000ff;"/>
    <path clip-path="url(#p1d22d4b336)" d="M 53.887619 177.383312 
L 53.887619 47.288219 
L 92.42664 47.288219 
L 92.42664 56.779687 
" style="fill:none;stroke:#0000ff;"/>
    <path clip-path="url(#p1d22d4b336)" d="M 37.644405 309.798125 
L 37.644405 27.095149 
L 73.157129 27.095149 
L 73.157129 47.288219 
" style="fill:none;stroke:#0000ff;"/>
   </g>
   <g id="patch_3">
    <path d="M 32.23 309.798125 
L 487.04 309.798125 
" style="fill:none;stroke:#000000;stroke-linecap:square;stroke-linejoin:miter;"/>
   </g>
   <g id="patch_4">
    <path d="M 32.23 309.798125 
L 32.23 12.96 
" style="fill:none;stroke:#000000;stroke-linecap:square;stroke-linejoin:miter;"/>
   </g>
   <g id="patch_5">
    <path d="M 32.23 12.96 
L 487.04 12.96 
" style="fill:none;stroke:#000000;stroke-linecap:square;stroke-linejoin:miter;"/>
   </g>
   <g id="patch_6">
    <path d="M 487.04 309.798125 
L 487.04 12.96 
" style="fill:none;stroke:#000000;stroke-linecap:square;stroke-linejoin:miter;"/>
   </g>
   <g id="matplotlib.axis_1">
    <g id="xtick_1">
     <g id="text_1">
      <!-- Australia -->
      <defs>
       <path d="M 9.421875 54.6875 
L 18.40625 54.6875 
L 18.40625 0 
L 9.421875 0 
z
M 9.421875 75.984375 
L 18.40625 75.984375 
L 18.40625 64.59375 
L 9.421875 64.59375 
z
" id="BitstreamVeraSans-Roman-69"/>
       <path d="M 44.28125 53.078125 
L 44.28125 44.578125 
Q 40.484375 46.53125 36.375 47.5 
Q 32.28125 48.484375 27.875 48.484375 
Q 21.1875 48.484375 17.84375 46.4375 
Q 14.5 44.390625 14.5 40.28125 
Q 14.5 37.15625 16.890625 35.375 
Q 19.28125 33.59375 26.515625 31.984375 
L 29.59375 31.296875 
Q 39.15625 29.25 43.1875 25.515625 
Q 47.21875 21.78125 47.21875 15.09375 
Q 47.21875 7.46875 41.1875 3.015625 
Q 35.15625 -1.421875 24.609375 -1.421875 
Q 20.21875 -1.421875 15.453125 -0.5625 
Q 10.6875 0.296875 5.421875 2 
L 5.421875 11.28125 
Q 10.40625 8.6875 15.234375 7.390625 
Q 20.0625 6.109375 24.8125 6.109375 
Q 31.15625 6.109375 34.5625 8.28125 
Q 37.984375 10.453125 37.984375 14.40625 
Q 37.984375 18.0625 35.515625 20.015625 
Q 33.0625 21.96875 24.703125 23.78125 
L 21.578125 24.515625 
Q 13.234375 26.265625 9.515625 29.90625 
Q 5.8125 33.546875 5.8125 39.890625 
Q 5.8125 47.609375 11.28125 51.796875 
Q 16.75 56 26.8125 56 
Q 31.78125 56 36.171875 55.265625 
Q 40.578125 54.546875 44.28125 53.078125 
" id="BitstreamVeraSans-Roman-73"/>
       <path d="M 9.421875 75.984375 
L 18.40625 75.984375 
L 18.40625 0 
L 9.421875 0 
z
" id="BitstreamVeraSans-Roman-6c"/>
       <path d="M 34.1875 63.1875 
L 20.796875 26.90625 
L 47.609375 26.90625 
z
M 28.609375 72.90625 
L 39.796875 72.90625 
L 67.578125 0 
L 57.328125 0 
L 50.6875 18.703125 
L 17.828125 18.703125 
L 11.1875 0 
L 0.78125 0 
z
" id="BitstreamVeraSans-Roman-41"/>
       <path d="M 34.28125 27.484375 
Q 23.390625 27.484375 19.1875 25 
Q 14.984375 22.515625 14.984375 16.5 
Q 14.984375 11.71875 18.140625 8.90625 
Q 21.296875 6.109375 26.703125 6.109375 
Q 34.1875 6.109375 38.703125 11.40625 
Q 43.21875 16.703125 43.21875 25.484375 
L 43.21875 27.484375 
z
M 52.203125 31.203125 
L 52.203125 0 
L 43.21875 0 
L 43.21875 8.296875 
Q 40.140625 3.328125 35.546875 0.953125 
Q 30.953125 -1.421875 24.3125 -1.421875 
Q 15.921875 -1.421875 10.953125 3.296875 
Q 6 8.015625 6 15.921875 
Q 6 25.140625 12.171875 29.828125 
Q 18.359375 34.515625 30.609375 34.515625 
L 43.21875 34.515625 
L 43.21875 35.40625 
Q 43.21875 41.609375 39.140625 45 
Q 35.0625 48.390625 27.6875 48.390625 
Q 23 48.390625 18.546875 47.265625 
Q 14.109375 46.140625 10.015625 43.890625 
L 10.015625 52.203125 
Q 14.9375 54.109375 19.578125 55.046875 
Q 24.21875 56 28.609375 56 
Q 40.484375 56 46.34375 49.84375 
Q 52.203125 43.703125 52.203125 31.203125 
" id="BitstreamVeraSans-Roman-61"/>
       <path d="M 18.3125 70.21875 
L 18.3125 54.6875 
L 36.8125 54.6875 
L 36.8125 47.703125 
L 18.3125 47.703125 
L 18.3125 18.015625 
Q 18.3125 11.328125 20.140625 9.421875 
Q 21.96875 7.515625 27.59375 7.515625 
L 36.8125 7.515625 
L 36.8125 0 
L 27.59375 0 
Q 17.1875 0 13.234375 3.875 
Q 9.28125 7.765625 9.28125 18.015625 
L 9.28125 47.703125 
L 2.6875 47.703125 
L 2.6875 54.6875 
L 9.28125 54.6875 
L 9.28125 70.21875 
z
" id="BitstreamVeraSans-Roman-74"/>
       <path d="M 41.109375 46.296875 
Q 39.59375 47.171875 37.8125 47.578125 
Q 36.03125 48 33.890625 48 
Q 26.265625 48 22.1875 43.046875 
Q 18.109375 38.09375 18.109375 28.8125 
L 18.109375 0 
L 9.078125 0 
L 9.078125 54.6875 
L 18.109375 54.6875 
L 18.109375 46.1875 
Q 20.953125 51.171875 25.484375 53.578125 
Q 30.03125 56 36.53125 56 
Q 37.453125 56 38.578125 55.875 
Q 39.703125 55.765625 41.0625 55.515625 
z
" id="BitstreamVeraSans-Roman-72"/>
       <path d="M 8.5 21.578125 
L 8.5 54.6875 
L 17.484375 54.6875 
L 17.484375 21.921875 
Q 17.484375 14.15625 20.5 10.265625 
Q 23.53125 6.390625 29.59375 6.390625 
Q 36.859375 6.390625 41.078125 11.03125 
Q 45.3125 15.671875 45.3125 23.6875 
L 45.3125 54.6875 
L 54.296875 54.6875 
L 54.296875 0 
L 45.3125 0 
L 45.3125 8.40625 
Q 42.046875 3.421875 37.71875 1 
Q 33.40625 -1.421875 27.6875 -1.421875 
Q 18.265625 -1.421875 13.375 4.4375 
Q 8.5 10.296875 8.5 21.578125 
" id="BitstreamVeraSans-Roman-75"/>
      </defs>
      <g transform="translate(39.3000297619 340.336875)rotate(-90.0)scale(0.06 -0.06)">
       <use xlink:href="#BitstreamVeraSans-Roman-41"/>
       <use x="68.408203125" xlink:href="#BitstreamVeraSans-Roman-75"/>
       <use x="131.787109375" xlink:href="#BitstreamVeraSans-Roman-73"/>
       <use x="183.88671875" xlink:href="#BitstreamVeraSans-Roman-74"/>
       <use x="223.095703125" xlink:href="#BitstreamVeraSans-Roman-72"/>
       <use x="264.208984375" xlink:href="#BitstreamVeraSans-Roman-61"/>
       <use x="325.48828125" xlink:href="#BitstreamVeraSans-Roman-6c"/>
       <use x="353.271484375" xlink:href="#BitstreamVeraSans-Roman-69"/>
       <use x="381.0546875" xlink:href="#BitstreamVeraSans-Roman-61"/>
      </g>
     </g>
    </g>
    <g id="xtick_2">
     <g id="text_2">
      <!-- Belgium -->
      <defs>
       <path d="M 52 44.1875 
Q 55.375 50.25 60.0625 53.125 
Q 64.75 56 71.09375 56 
Q 79.640625 56 84.28125 50.015625 
Q 88.921875 44.046875 88.921875 33.015625 
L 88.921875 0 
L 79.890625 0 
L 79.890625 32.71875 
Q 79.890625 40.578125 77.09375 44.375 
Q 74.3125 48.1875 68.609375 48.1875 
Q 61.625 48.1875 57.5625 43.546875 
Q 53.515625 38.921875 53.515625 30.90625 
L 53.515625 0 
L 44.484375 0 
L 44.484375 32.71875 
Q 44.484375 40.625 41.703125 44.40625 
Q 38.921875 48.1875 33.109375 48.1875 
Q 26.21875 48.1875 22.15625 43.53125 
Q 18.109375 38.875 18.109375 30.90625 
L 18.109375 0 
L 9.078125 0 
L 9.078125 54.6875 
L 18.109375 54.6875 
L 18.109375 46.1875 
Q 21.1875 51.21875 25.484375 53.609375 
Q 29.78125 56 35.6875 56 
Q 41.65625 56 45.828125 52.96875 
Q 50 49.953125 52 44.1875 
" id="BitstreamVeraSans-Roman-6d"/>
       <path d="M 56.203125 29.59375 
L 56.203125 25.203125 
L 14.890625 25.203125 
Q 15.484375 15.921875 20.484375 11.0625 
Q 25.484375 6.203125 34.421875 6.203125 
Q 39.59375 6.203125 44.453125 7.46875 
Q 49.3125 8.734375 54.109375 11.28125 
L 54.109375 2.78125 
Q 49.265625 0.734375 44.1875 -0.34375 
Q 39.109375 -1.421875 33.890625 -1.421875 
Q 20.796875 -1.421875 13.15625 6.1875 
Q 5.515625 13.8125 5.515625 26.8125 
Q 5.515625 40.234375 12.765625 48.109375 
Q 20.015625 56 32.328125 56 
Q 43.359375 56 49.78125 48.890625 
Q 56.203125 41.796875 56.203125 29.59375 
M 47.21875 32.234375 
Q 47.125 39.59375 43.09375 43.984375 
Q 39.0625 48.390625 32.421875 48.390625 
Q 24.90625 48.390625 20.390625 44.140625 
Q 15.875 39.890625 15.1875 32.171875 
z
" id="BitstreamVeraSans-Roman-65"/>
       <path d="M 19.671875 34.8125 
L 19.671875 8.109375 
L 35.5 8.109375 
Q 43.453125 8.109375 47.28125 11.40625 
Q 51.125 14.703125 51.125 21.484375 
Q 51.125 28.328125 47.28125 31.5625 
Q 43.453125 34.8125 35.5 34.8125 
z
M 19.671875 64.796875 
L 19.671875 42.828125 
L 34.28125 42.828125 
Q 41.5 42.828125 45.03125 45.53125 
Q 48.578125 48.25 48.578125 53.8125 
Q 48.578125 59.328125 45.03125 62.0625 
Q 41.5 64.796875 34.28125 64.796875 
z
M 9.8125 72.90625 
L 35.015625 72.90625 
Q 46.296875 72.90625 52.390625 68.21875 
Q 58.5 63.53125 58.5 54.890625 
Q 58.5 48.1875 55.375 44.234375 
Q 52.25 40.28125 46.1875 39.3125 
Q 53.46875 37.75 57.5 32.78125 
Q 61.53125 27.828125 61.53125 20.40625 
Q 61.53125 10.640625 54.890625 5.3125 
Q 48.25 0 35.984375 0 
L 9.8125 0 
z
" id="BitstreamVeraSans-Roman-42"/>
       <path d="M 45.40625 27.984375 
Q 45.40625 37.75 41.375 43.109375 
Q 37.359375 48.484375 30.078125 48.484375 
Q 22.859375 48.484375 18.828125 43.109375 
Q 14.796875 37.75 14.796875 27.984375 
Q 14.796875 18.265625 18.828125 12.890625 
Q 22.859375 7.515625 30.078125 7.515625 
Q 37.359375 7.515625 41.375 12.890625 
Q 45.40625 18.265625 45.40625 27.984375 
M 54.390625 6.78125 
Q 54.390625 -7.171875 48.1875 -13.984375 
Q 42 -20.796875 29.203125 -20.796875 
Q 24.46875 -20.796875 20.265625 -20.09375 
Q 16.0625 -19.390625 12.109375 -17.921875 
L 12.109375 -9.1875 
Q 16.0625 -11.328125 19.921875 -12.34375 
Q 23.78125 -13.375 27.78125 -13.375 
Q 36.625 -13.375 41.015625 -8.765625 
Q 45.40625 -4.15625 45.40625 5.171875 
L 45.40625 9.625 
Q 42.625 4.78125 38.28125 2.390625 
Q 33.9375 0 27.875 0 
Q 17.828125 0 11.671875 7.65625 
Q 5.515625 15.328125 5.515625 27.984375 
Q 5.515625 40.671875 11.671875 48.328125 
Q 17.828125 56 27.875 56 
Q 33.9375 56 38.28125 53.609375 
Q 42.625 51.21875 45.40625 46.390625 
L 45.40625 54.6875 
L 54.390625 54.6875 
z
" id="BitstreamVeraSans-Roman-67"/>
      </defs>
      <g transform="translate(50.1288392857 338.39625)rotate(-90.0)scale(0.06 -0.06)">
       <use xlink:href="#BitstreamVeraSans-Roman-42"/>
       <use x="68.603515625" xlink:href="#BitstreamVeraSans-Roman-65"/>
       <use x="130.126953125" xlink:href="#BitstreamVeraSans-Roman-6c"/>
       <use x="157.91015625" xlink:href="#BitstreamVeraSans-Roman-67"/>
       <use x="221.38671875" xlink:href="#BitstreamVeraSans-Roman-69"/>
       <use x="249.169921875" xlink:href="#BitstreamVeraSans-Roman-75"/>
       <use x="312.548828125" xlink:href="#BitstreamVeraSans-Roman-6d"/>
      </g>
     </g>
    </g>
    <g id="xtick_3">
     <g id="text_3">
      <!-- The Netherlands -->
      <defs>
       <path id="BitstreamVeraSans-Roman-20"/>
       <path d="M 45.40625 46.390625 
L 45.40625 75.984375 
L 54.390625 75.984375 
L 54.390625 0 
L 45.40625 0 
L 45.40625 8.203125 
Q 42.578125 3.328125 38.25 0.953125 
Q 33.9375 -1.421875 27.875 -1.421875 
Q 17.96875 -1.421875 11.734375 6.484375 
Q 5.515625 14.40625 5.515625 27.296875 
Q 5.515625 40.1875 11.734375 48.09375 
Q 17.96875 56 27.875 56 
Q 33.9375 56 38.25 53.625 
Q 42.578125 51.265625 45.40625 46.390625 
M 14.796875 27.296875 
Q 14.796875 17.390625 18.875 11.75 
Q 22.953125 6.109375 30.078125 6.109375 
Q 37.203125 6.109375 41.296875 11.75 
Q 45.40625 17.390625 45.40625 27.296875 
Q 45.40625 37.203125 41.296875 42.84375 
Q 37.203125 48.484375 30.078125 48.484375 
Q 22.953125 48.484375 18.875 42.84375 
Q 14.796875 37.203125 14.796875 27.296875 
" id="BitstreamVeraSans-Roman-64"/>
       <path d="M 54.890625 33.015625 
L 54.890625 0 
L 45.90625 0 
L 45.90625 32.71875 
Q 45.90625 40.484375 42.875 44.328125 
Q 39.84375 48.1875 33.796875 48.1875 
Q 26.515625 48.1875 22.3125 43.546875 
Q 18.109375 38.921875 18.109375 30.90625 
L 18.109375 0 
L 9.078125 0 
L 9.078125 75.984375 
L 18.109375 75.984375 
L 18.109375 46.1875 
Q 21.34375 51.125 25.703125 53.5625 
Q 30.078125 56 35.796875 56 
Q 45.21875 56 50.046875 50.171875 
Q 54.890625 44.34375 54.890625 33.015625 
" id="BitstreamVeraSans-Roman-68"/>
       <path d="M 54.890625 33.015625 
L 54.890625 0 
L 45.90625 0 
L 45.90625 32.71875 
Q 45.90625 40.484375 42.875 44.328125 
Q 39.84375 48.1875 33.796875 48.1875 
Q 26.515625 48.1875 22.3125 43.546875 
Q 18.109375 38.921875 18.109375 30.90625 
L 18.109375 0 
L 9.078125 0 
L 9.078125 54.6875 
L 18.109375 54.6875 
L 18.109375 46.1875 
Q 21.34375 51.125 25.703125 53.5625 
Q 30.078125 56 35.796875 56 
Q 45.21875 56 50.046875 50.171875 
Q 54.890625 44.34375 54.890625 33.015625 
" id="BitstreamVeraSans-Roman-6e"/>
       <path d="M 9.8125 72.90625 
L 23.09375 72.90625 
L 55.421875 11.921875 
L 55.421875 72.90625 
L 64.984375 72.90625 
L 64.984375 0 
L 51.703125 0 
L 19.390625 60.984375 
L 19.390625 0 
L 9.8125 0 
z
" id="BitstreamVeraSans-Roman-4e"/>
       <path d="M -0.296875 72.90625 
L 61.375 72.90625 
L 61.375 64.59375 
L 35.5 64.59375 
L 35.5 0 
L 25.59375 0 
L 25.59375 64.59375 
L -0.296875 64.59375 
z
" id="BitstreamVeraSans-Roman-54"/>
      </defs>
      <g transform="translate(60.9576488095 363.43875)rotate(-90.0)scale(0.06 -0.06)">
       <use xlink:href="#BitstreamVeraSans-Roman-54"/>
       <use x="61.083984375" xlink:href="#BitstreamVeraSans-Roman-68"/>
       <use x="124.462890625" xlink:href="#BitstreamVeraSans-Roman-65"/>
       <use x="185.986328125" xlink:href="#BitstreamVeraSans-Roman-20"/>
       <use x="217.7734375" xlink:href="#BitstreamVeraSans-Roman-4e"/>
       <use x="292.578125" xlink:href="#BitstreamVeraSans-Roman-65"/>
       <use x="354.1015625" xlink:href="#BitstreamVeraSans-Roman-74"/>
       <use x="393.310546875" xlink:href="#BitstreamVeraSans-Roman-68"/>
       <use x="456.689453125" xlink:href="#BitstreamVeraSans-Roman-65"/>
       <use x="518.212890625" xlink:href="#BitstreamVeraSans-Roman-72"/>
       <use x="559.326171875" xlink:href="#BitstreamVeraSans-Roman-6c"/>
       <use x="587.109375" xlink:href="#BitstreamVeraSans-Roman-61"/>
       <use x="648.388671875" xlink:href="#BitstreamVeraSans-Roman-6e"/>
       <use x="711.767578125" xlink:href="#BitstreamVeraSans-Roman-64"/>
       <use x="775.244140625" xlink:href="#BitstreamVeraSans-Roman-73"/>
      </g>
     </g>
    </g>
    <g id="xtick_4">
     <g id="text_4">
      <!-- Spain -->
      <defs>
       <path d="M 53.515625 70.515625 
L 53.515625 60.890625 
Q 47.90625 63.578125 42.921875 64.890625 
Q 37.9375 66.21875 33.296875 66.21875 
Q 25.25 66.21875 20.875 63.09375 
Q 16.5 59.96875 16.5 54.203125 
Q 16.5 49.359375 19.40625 46.890625 
Q 22.3125 44.4375 30.421875 42.921875 
L 36.375 41.703125 
Q 47.40625 39.59375 52.65625 34.296875 
Q 57.90625 29 57.90625 20.125 
Q 57.90625 9.515625 50.796875 4.046875 
Q 43.703125 -1.421875 29.984375 -1.421875 
Q 24.8125 -1.421875 18.96875 -0.25 
Q 13.140625 0.921875 6.890625 3.21875 
L 6.890625 13.375 
Q 12.890625 10.015625 18.65625 8.296875 
Q 24.421875 6.59375 29.984375 6.59375 
Q 38.421875 6.59375 43.015625 9.90625 
Q 47.609375 13.234375 47.609375 19.390625 
Q 47.609375 24.75 44.3125 27.78125 
Q 41.015625 30.8125 33.5 32.328125 
L 27.484375 33.5 
Q 16.453125 35.6875 11.515625 40.375 
Q 6.59375 45.0625 6.59375 53.421875 
Q 6.59375 63.09375 13.40625 68.65625 
Q 20.21875 74.21875 32.171875 74.21875 
Q 37.3125 74.21875 42.625 73.28125 
Q 47.953125 72.359375 53.515625 70.515625 
" id="BitstreamVeraSans-Roman-53"/>
       <path d="M 18.109375 8.203125 
L 18.109375 -20.796875 
L 9.078125 -20.796875 
L 9.078125 54.6875 
L 18.109375 54.6875 
L 18.109375 46.390625 
Q 20.953125 51.265625 25.265625 53.625 
Q 29.59375 56 35.59375 56 
Q 45.5625 56 51.78125 48.09375 
Q 58.015625 40.1875 58.015625 27.296875 
Q 58.015625 14.40625 51.78125 6.484375 
Q 45.5625 -1.421875 35.59375 -1.421875 
Q 29.59375 -1.421875 25.265625 0.953125 
Q 20.953125 3.328125 18.109375 8.203125 
M 48.6875 27.296875 
Q 48.6875 37.203125 44.609375 42.84375 
Q 40.53125 48.484375 33.40625 48.484375 
Q 26.265625 48.484375 22.1875 42.84375 
Q 18.109375 37.203125 18.109375 27.296875 
Q 18.109375 17.390625 22.1875 11.75 
Q 26.265625 6.109375 33.40625 6.109375 
Q 40.53125 6.109375 44.609375 11.75 
Q 48.6875 17.390625 48.6875 27.296875 
" id="BitstreamVeraSans-Roman-70"/>
      </defs>
      <g transform="translate(71.7864583333 330.5625)rotate(-90.0)scale(0.06 -0.06)">
       <use xlink:href="#BitstreamVeraSans-Roman-53"/>
       <use x="63.4765625" xlink:href="#BitstreamVeraSans-Roman-70"/>
       <use x="126.953125" xlink:href="#BitstreamVeraSans-Roman-61"/>
       <use x="188.232421875" xlink:href="#BitstreamVeraSans-Roman-69"/>
       <use x="216.015625" xlink:href="#BitstreamVeraSans-Roman-6e"/>
      </g>
     </g>
    </g>
    <g id="xtick_5">
     <g id="text_5">
      <!-- Italy -->
      <defs>
       <path d="M 32.171875 -5.078125 
Q 28.375 -14.84375 24.75 -17.8125 
Q 21.140625 -20.796875 15.09375 -20.796875 
L 7.90625 -20.796875 
L 7.90625 -13.28125 
L 13.1875 -13.28125 
Q 16.890625 -13.28125 18.9375 -11.515625 
Q 21 -9.765625 23.484375 -3.21875 
L 25.09375 0.875 
L 2.984375 54.6875 
L 12.5 54.6875 
L 29.59375 11.921875 
L 46.6875 54.6875 
L 56.203125 54.6875 
z
" id="BitstreamVeraSans-Roman-79"/>
       <path d="M 9.8125 72.90625 
L 19.671875 72.90625 
L 19.671875 0 
L 9.8125 0 
z
" id="BitstreamVeraSans-Roman-49"/>
      </defs>
      <g transform="translate(82.6152678571 326.8153125)rotate(-90.0)scale(0.06 -0.06)">
       <use xlink:href="#BitstreamVeraSans-Roman-49"/>
       <use x="29.4921875" xlink:href="#BitstreamVeraSans-Roman-74"/>
       <use x="68.701171875" xlink:href="#BitstreamVeraSans-Roman-61"/>
       <use x="129.98046875" xlink:href="#BitstreamVeraSans-Roman-6c"/>
       <use x="157.763671875" xlink:href="#BitstreamVeraSans-Roman-79"/>
      </g>
     </g>
    </g>
    <g id="xtick_6">
     <g id="text_6">
      <!-- Switzerland -->
      <defs>
       <path d="M 5.515625 54.6875 
L 48.1875 54.6875 
L 48.1875 46.484375 
L 14.40625 7.171875 
L 48.1875 7.171875 
L 48.1875 0 
L 4.296875 0 
L 4.296875 8.203125 
L 38.09375 47.515625 
L 5.515625 47.515625 
z
" id="BitstreamVeraSans-Roman-7a"/>
       <path d="M 4.203125 54.6875 
L 13.1875 54.6875 
L 24.421875 12.015625 
L 35.59375 54.6875 
L 46.1875 54.6875 
L 57.421875 12.015625 
L 68.609375 54.6875 
L 77.59375 54.6875 
L 63.28125 0 
L 52.6875 0 
L 40.921875 44.828125 
L 29.109375 0 
L 18.5 0 
z
" id="BitstreamVeraSans-Roman-77"/>
      </defs>
      <g transform="translate(93.444077381 348.7959375)rotate(-90.0)scale(0.06 -0.06)">
       <use xlink:href="#BitstreamVeraSans-Roman-53"/>
       <use x="63.4765625" xlink:href="#BitstreamVeraSans-Roman-77"/>
       <use x="145.263671875" xlink:href="#BitstreamVeraSans-Roman-69"/>
       <use x="173.046875" xlink:href="#BitstreamVeraSans-Roman-74"/>
       <use x="212.255859375" xlink:href="#BitstreamVeraSans-Roman-7a"/>
       <use x="264.74609375" xlink:href="#BitstreamVeraSans-Roman-65"/>
       <use x="326.26953125" xlink:href="#BitstreamVeraSans-Roman-72"/>
       <use x="367.3828125" xlink:href="#BitstreamVeraSans-Roman-6c"/>
       <use x="395.166015625" xlink:href="#BitstreamVeraSans-Roman-61"/>
       <use x="456.4453125" xlink:href="#BitstreamVeraSans-Roman-6e"/>
       <use x="519.82421875" xlink:href="#BitstreamVeraSans-Roman-64"/>
      </g>
     </g>
    </g>
    <g id="xtick_7">
     <g id="text_7">
      <!-- Croatia -->
      <defs>
       <path d="M 64.40625 67.28125 
L 64.40625 56.890625 
Q 59.421875 61.53125 53.78125 63.8125 
Q 48.140625 66.109375 41.796875 66.109375 
Q 29.296875 66.109375 22.65625 58.46875 
Q 16.015625 50.828125 16.015625 36.375 
Q 16.015625 21.96875 22.65625 14.328125 
Q 29.296875 6.6875 41.796875 6.6875 
Q 48.140625 6.6875 53.78125 8.984375 
Q 59.421875 11.28125 64.40625 15.921875 
L 64.40625 5.609375 
Q 59.234375 2.09375 53.4375 0.328125 
Q 47.65625 -1.421875 41.21875 -1.421875 
Q 24.65625 -1.421875 15.125 8.703125 
Q 5.609375 18.84375 5.609375 36.375 
Q 5.609375 53.953125 15.125 64.078125 
Q 24.65625 74.21875 41.21875 74.21875 
Q 47.75 74.21875 53.53125 72.484375 
Q 59.328125 70.75 64.40625 67.28125 
" id="BitstreamVeraSans-Roman-43"/>
       <path d="M 30.609375 48.390625 
Q 23.390625 48.390625 19.1875 42.75 
Q 14.984375 37.109375 14.984375 27.296875 
Q 14.984375 17.484375 19.15625 11.84375 
Q 23.34375 6.203125 30.609375 6.203125 
Q 37.796875 6.203125 41.984375 11.859375 
Q 46.1875 17.53125 46.1875 27.296875 
Q 46.1875 37.015625 41.984375 42.703125 
Q 37.796875 48.390625 30.609375 48.390625 
M 30.609375 56 
Q 42.328125 56 49.015625 48.375 
Q 55.71875 40.765625 55.71875 27.296875 
Q 55.71875 13.875 49.015625 6.21875 
Q 42.328125 -1.421875 30.609375 -1.421875 
Q 18.84375 -1.421875 12.171875 6.21875 
Q 5.515625 13.875 5.515625 27.296875 
Q 5.515625 40.765625 12.171875 48.375 
Q 18.84375 56 30.609375 56 
" id="BitstreamVeraSans-Roman-6f"/>
      </defs>
      <g transform="translate(104.272886905 335.4965625)rotate(-90.0)scale(0.06 -0.06)">
       <use xlink:href="#BitstreamVeraSans-Roman-43"/>
       <use x="69.82421875" xlink:href="#BitstreamVeraSans-Roman-72"/>
       <use x="110.90625" xlink:href="#BitstreamVeraSans-Roman-6f"/>
       <use x="172.087890625" xlink:href="#BitstreamVeraSans-Roman-61"/>
       <use x="233.3671875" xlink:href="#BitstreamVeraSans-Roman-74"/>
       <use x="272.576171875" xlink:href="#BitstreamVeraSans-Roman-69"/>
       <use x="300.359375" xlink:href="#BitstreamVeraSans-Roman-61"/>
      </g>
     </g>
    </g>
    <g id="xtick_8">
     <g id="text_8">
      <!-- Slovenia -->
      <defs>
       <path d="M 2.984375 54.6875 
L 12.5 54.6875 
L 29.59375 8.796875 
L 46.6875 54.6875 
L 56.203125 54.6875 
L 35.6875 0 
L 23.484375 0 
z
" id="BitstreamVeraSans-Roman-76"/>
      </defs>
      <g transform="translate(115.101696429 339.3346875)rotate(-90.0)scale(0.06 -0.06)">
       <use xlink:href="#BitstreamVeraSans-Roman-53"/>
       <use x="63.4765625" xlink:href="#BitstreamVeraSans-Roman-6c"/>
       <use x="91.259765625" xlink:href="#BitstreamVeraSans-Roman-6f"/>
       <use x="152.44140625" xlink:href="#BitstreamVeraSans-Roman-76"/>
       <use x="211.62109375" xlink:href="#BitstreamVeraSans-Roman-65"/>
       <use x="273.14453125" xlink:href="#BitstreamVeraSans-Roman-6e"/>
       <use x="336.5234375" xlink:href="#BitstreamVeraSans-Roman-69"/>
       <use x="364.306640625" xlink:href="#BitstreamVeraSans-Roman-61"/>
      </g>
     </g>
    </g>
    <g id="xtick_9">
     <g id="text_9">
      <!-- Bosnia &amp; Herzegovina -->
      <defs>
       <path d="M 24.3125 39.203125 
Q 19.875 35.25 17.796875 31.3125 
Q 15.71875 27.390625 15.71875 23.09375 
Q 15.71875 15.96875 20.890625 11.234375 
Q 26.078125 6.5 33.890625 6.5 
Q 38.53125 6.5 42.578125 8.03125 
Q 46.625 9.578125 50.203125 12.703125 
z
M 31.203125 44.671875 
L 56 19.28125 
Q 58.890625 23.640625 60.5 28.59375 
Q 62.109375 33.546875 62.40625 39.109375 
L 71.484375 39.109375 
Q 70.90625 32.671875 68.359375 26.359375 
Q 65.828125 20.0625 61.28125 13.921875 
L 74.90625 0 
L 62.59375 0 
L 55.609375 7.171875 
Q 50.53125 2.828125 44.96875 0.703125 
Q 39.40625 -1.421875 33.015625 -1.421875 
Q 21.234375 -1.421875 13.765625 5.296875 
Q 6.296875 12.015625 6.296875 22.515625 
Q 6.296875 28.765625 9.5625 34.25 
Q 12.84375 39.75 19.390625 44.578125 
Q 17.046875 47.65625 15.8125 50.703125 
Q 14.59375 53.765625 14.59375 56.6875 
Q 14.59375 64.59375 20.015625 69.40625 
Q 25.4375 74.21875 34.421875 74.21875 
Q 38.484375 74.21875 42.5 73.34375 
Q 46.53125 72.46875 50.6875 70.703125 
L 50.6875 61.8125 
Q 46.4375 64.109375 42.578125 65.296875 
Q 38.71875 66.5 35.40625 66.5 
Q 30.28125 66.5 27.078125 63.78125 
Q 23.875 61.078125 23.875 56.78125 
Q 23.875 54.296875 25.3125 51.78125 
Q 26.765625 49.265625 31.203125 44.671875 
" id="BitstreamVeraSans-Roman-26"/>
       <path d="M 9.8125 72.90625 
L 19.671875 72.90625 
L 19.671875 43.015625 
L 55.515625 43.015625 
L 55.515625 72.90625 
L 65.375 72.90625 
L 65.375 0 
L 55.515625 0 
L 55.515625 34.71875 
L 19.671875 34.71875 
L 19.671875 0 
L 9.8125 0 
z
" id="BitstreamVeraSans-Roman-48"/>
      </defs>
      <g transform="translate(125.930505952 380.04)rotate(-90.0)scale(0.06 -0.06)">
       <use xlink:href="#BitstreamVeraSans-Roman-42"/>
       <use x="68.603515625" xlink:href="#BitstreamVeraSans-Roman-6f"/>
       <use x="129.78515625" xlink:href="#BitstreamVeraSans-Roman-73"/>
       <use x="181.884765625" xlink:href="#BitstreamVeraSans-Roman-6e"/>
       <use x="245.263671875" xlink:href="#BitstreamVeraSans-Roman-69"/>
       <use x="273.046875" xlink:href="#BitstreamVeraSans-Roman-61"/>
       <use x="334.326171875" xlink:href="#BitstreamVeraSans-Roman-20"/>
       <use x="366.11328125" xlink:href="#BitstreamVeraSans-Roman-26"/>
       <use x="444.091796875" xlink:href="#BitstreamVeraSans-Roman-20"/>
       <use x="475.87890625" xlink:href="#BitstreamVeraSans-Roman-48"/>
       <use x="551.07421875" xlink:href="#BitstreamVeraSans-Roman-65"/>
       <use x="612.59765625" xlink:href="#BitstreamVeraSans-Roman-72"/>
       <use x="653.7109375" xlink:href="#BitstreamVeraSans-Roman-7a"/>
       <use x="706.201171875" xlink:href="#BitstreamVeraSans-Roman-65"/>
       <use x="767.724609375" xlink:href="#BitstreamVeraSans-Roman-67"/>
       <use x="831.201171875" xlink:href="#BitstreamVeraSans-Roman-6f"/>
       <use x="892.3828125" xlink:href="#BitstreamVeraSans-Roman-76"/>
       <use x="951.5625" xlink:href="#BitstreamVeraSans-Roman-69"/>
       <use x="979.345703125" xlink:href="#BitstreamVeraSans-Roman-6e"/>
       <use x="1042.724609375" xlink:href="#BitstreamVeraSans-Roman-61"/>
      </g>
     </g>
    </g>
    <g id="xtick_10">
     <g id="text_10">
      <!-- Montenegro -->
      <defs>
       <path d="M 9.8125 72.90625 
L 24.515625 72.90625 
L 43.109375 23.296875 
L 61.8125 72.90625 
L 76.515625 72.90625 
L 76.515625 0 
L 66.890625 0 
L 66.890625 64.015625 
L 48.09375 14.015625 
L 38.1875 14.015625 
L 19.390625 64.015625 
L 19.390625 0 
L 9.8125 0 
z
" id="BitstreamVeraSans-Roman-4d"/>
      </defs>
      <g transform="translate(136.759315476 349.9321875)rotate(-90.0)scale(0.06 -0.06)">
       <use xlink:href="#BitstreamVeraSans-Roman-4d"/>
       <use x="86.279296875" xlink:href="#BitstreamVeraSans-Roman-6f"/>
       <use x="147.4609375" xlink:href="#BitstreamVeraSans-Roman-6e"/>
       <use x="210.83984375" xlink:href="#BitstreamVeraSans-Roman-74"/>
       <use x="250.048828125" xlink:href="#BitstreamVeraSans-Roman-65"/>
       <use x="311.572265625" xlink:href="#BitstreamVeraSans-Roman-6e"/>
       <use x="374.951171875" xlink:href="#BitstreamVeraSans-Roman-65"/>
       <use x="436.474609375" xlink:href="#BitstreamVeraSans-Roman-67"/>
       <use x="499.951171875" xlink:href="#BitstreamVeraSans-Roman-72"/>
       <use x="541.033203125" xlink:href="#BitstreamVeraSans-Roman-6f"/>
      </g>
     </g>
    </g>
    <g id="xtick_11">
     <g id="text_11">
      <!-- F.Y.R. Macedonia -->
      <defs>
       <path d="M 48.78125 52.59375 
L 48.78125 44.1875 
Q 44.96875 46.296875 41.140625 47.34375 
Q 37.3125 48.390625 33.40625 48.390625 
Q 24.65625 48.390625 19.8125 42.84375 
Q 14.984375 37.3125 14.984375 27.296875 
Q 14.984375 17.28125 19.8125 11.734375 
Q 24.65625 6.203125 33.40625 6.203125 
Q 37.3125 6.203125 41.140625 7.25 
Q 44.96875 8.296875 48.78125 10.40625 
L 48.78125 2.09375 
Q 45.015625 0.34375 40.984375 -0.53125 
Q 36.96875 -1.421875 32.421875 -1.421875 
Q 20.0625 -1.421875 12.78125 6.34375 
Q 5.515625 14.109375 5.515625 27.296875 
Q 5.515625 40.671875 12.859375 48.328125 
Q 20.21875 56 33.015625 56 
Q 37.15625 56 41.109375 55.140625 
Q 45.0625 54.296875 48.78125 52.59375 
" id="BitstreamVeraSans-Roman-63"/>
       <path d="M 44.390625 34.1875 
Q 47.5625 33.109375 50.5625 29.59375 
Q 53.5625 26.078125 56.59375 19.921875 
L 66.609375 0 
L 56 0 
L 46.6875 18.703125 
Q 43.0625 26.03125 39.671875 28.421875 
Q 36.28125 30.8125 30.421875 30.8125 
L 19.671875 30.8125 
L 19.671875 0 
L 9.8125 0 
L 9.8125 72.90625 
L 32.078125 72.90625 
Q 44.578125 72.90625 50.734375 67.671875 
Q 56.890625 62.453125 56.890625 51.90625 
Q 56.890625 45.015625 53.6875 40.46875 
Q 50.484375 35.9375 44.390625 34.1875 
M 19.671875 64.796875 
L 19.671875 38.921875 
L 32.078125 38.921875 
Q 39.203125 38.921875 42.84375 42.21875 
Q 46.484375 45.515625 46.484375 51.90625 
Q 46.484375 58.296875 42.84375 61.546875 
Q 39.203125 64.796875 32.078125 64.796875 
z
" id="BitstreamVeraSans-Roman-52"/>
       <path d="M 10.6875 12.40625 
L 21 12.40625 
L 21 0 
L 10.6875 0 
z
" id="BitstreamVeraSans-Roman-2e"/>
       <path d="M 9.8125 72.90625 
L 51.703125 72.90625 
L 51.703125 64.59375 
L 19.671875 64.59375 
L 19.671875 43.109375 
L 48.578125 43.109375 
L 48.578125 34.8125 
L 19.671875 34.8125 
L 19.671875 0 
L 9.8125 0 
z
" id="BitstreamVeraSans-Roman-46"/>
       <path d="M -0.203125 72.90625 
L 10.40625 72.90625 
L 30.609375 42.921875 
L 50.6875 72.90625 
L 61.28125 72.90625 
L 35.5 34.71875 
L 35.5 0 
L 25.59375 0 
L 25.59375 34.71875 
z
" id="BitstreamVeraSans-Roman-59"/>
      </defs>
      <g transform="translate(147.588125 365.145)rotate(-90.0)scale(0.06 -0.06)">
       <use xlink:href="#BitstreamVeraSans-Roman-46"/>
       <use x="57.26953125" xlink:href="#BitstreamVeraSans-Roman-2e"/>
       <use x="89.056640625" xlink:href="#BitstreamVeraSans-Roman-59"/>
       <use x="149.828125" xlink:href="#BitstreamVeraSans-Roman-2e"/>
       <use x="181.615234375" xlink:href="#BitstreamVeraSans-Roman-52"/>
       <use x="251.05078125" xlink:href="#BitstreamVeraSans-Roman-2e"/>
       <use x="282.837890625" xlink:href="#BitstreamVeraSans-Roman-20"/>
       <use x="314.625" xlink:href="#BitstreamVeraSans-Roman-4d"/>
       <use x="400.904296875" xlink:href="#BitstreamVeraSans-Roman-61"/>
       <use x="462.18359375" xlink:href="#BitstreamVeraSans-Roman-63"/>
       <use x="517.1640625" xlink:href="#BitstreamVeraSans-Roman-65"/>
       <use x="578.6875" xlink:href="#BitstreamVeraSans-Roman-64"/>
       <use x="642.1640625" xlink:href="#BitstreamVeraSans-Roman-6f"/>
       <use x="703.345703125" xlink:href="#BitstreamVeraSans-Roman-6e"/>
       <use x="766.724609375" xlink:href="#BitstreamVeraSans-Roman-69"/>
       <use x="794.5078125" xlink:href="#BitstreamVeraSans-Roman-61"/>
      </g>
     </g>
    </g>
    <g id="xtick_12">
     <g id="text_12">
      <!-- Serbia -->
      <defs>
       <path d="M 48.6875 27.296875 
Q 48.6875 37.203125 44.609375 42.84375 
Q 40.53125 48.484375 33.40625 48.484375 
Q 26.265625 48.484375 22.1875 42.84375 
Q 18.109375 37.203125 18.109375 27.296875 
Q 18.109375 17.390625 22.1875 11.75 
Q 26.265625 6.109375 33.40625 6.109375 
Q 40.53125 6.109375 44.609375 11.75 
Q 48.6875 17.390625 48.6875 27.296875 
M 18.109375 46.390625 
Q 20.953125 51.265625 25.265625 53.625 
Q 29.59375 56 35.59375 56 
Q 45.5625 56 51.78125 48.09375 
Q 58.015625 40.1875 58.015625 27.296875 
Q 58.015625 14.40625 51.78125 6.484375 
Q 45.5625 -1.421875 35.59375 -1.421875 
Q 29.59375 -1.421875 25.265625 0.953125 
Q 20.953125 3.328125 18.109375 8.203125 
L 18.109375 0 
L 9.078125 0 
L 9.078125 75.984375 
L 18.109375 75.984375 
z
" id="BitstreamVeraSans-Roman-62"/>
      </defs>
      <g transform="translate(158.416934524 332.9184375)rotate(-90.0)scale(0.06 -0.06)">
       <use xlink:href="#BitstreamVeraSans-Roman-53"/>
       <use x="63.4765625" xlink:href="#BitstreamVeraSans-Roman-65"/>
       <use x="125.0" xlink:href="#BitstreamVeraSans-Roman-72"/>
       <use x="166.11328125" xlink:href="#BitstreamVeraSans-Roman-62"/>
       <use x="229.58984375" xlink:href="#BitstreamVeraSans-Roman-69"/>
       <use x="257.373046875" xlink:href="#BitstreamVeraSans-Roman-61"/>
      </g>
     </g>
    </g>
    <g id="xtick_13">
     <g id="text_13">
      <!-- Malta -->
      <g transform="translate(169.245744048 330.3478125)rotate(-90.0)scale(0.06 -0.06)">
       <use xlink:href="#BitstreamVeraSans-Roman-4d"/>
       <use x="86.279296875" xlink:href="#BitstreamVeraSans-Roman-61"/>
       <use x="147.55859375" xlink:href="#BitstreamVeraSans-Roman-6c"/>
       <use x="175.341796875" xlink:href="#BitstreamVeraSans-Roman-74"/>
       <use x="214.55078125" xlink:href="#BitstreamVeraSans-Roman-61"/>
      </g>
     </g>
    </g>
    <g id="xtick_14">
     <g id="text_14">
      <!-- France -->
      <g transform="translate(180.074553571 334.179375)rotate(-90.0)scale(0.06 -0.06)">
       <use xlink:href="#BitstreamVeraSans-Roman-46"/>
       <use x="57.41015625" xlink:href="#BitstreamVeraSans-Roman-72"/>
       <use x="98.5234375" xlink:href="#BitstreamVeraSans-Roman-61"/>
       <use x="159.802734375" xlink:href="#BitstreamVeraSans-Roman-6e"/>
       <use x="223.181640625" xlink:href="#BitstreamVeraSans-Roman-63"/>
       <use x="278.162109375" xlink:href="#BitstreamVeraSans-Roman-65"/>
      </g>
     </g>
    </g>
    <g id="xtick_15">
     <g id="text_15">
      <!-- Israel -->
      <g transform="translate(190.903363095 330.1959375)rotate(-90.0)scale(0.06 -0.06)">
       <use xlink:href="#BitstreamVeraSans-Roman-49"/>
       <use x="29.4921875" xlink:href="#BitstreamVeraSans-Roman-73"/>
       <use x="81.591796875" xlink:href="#BitstreamVeraSans-Roman-72"/>
       <use x="122.705078125" xlink:href="#BitstreamVeraSans-Roman-61"/>
       <use x="183.984375" xlink:href="#BitstreamVeraSans-Roman-65"/>
       <use x="245.5078125" xlink:href="#BitstreamVeraSans-Roman-6c"/>
      </g>
     </g>
    </g>
    <g id="xtick_16">
     <g id="text_16">
      <!-- Albania -->
      <g transform="translate(201.732172619 336.2015625)rotate(-90.0)scale(0.06 -0.06)">
       <use xlink:href="#BitstreamVeraSans-Roman-41"/>
       <use x="68.408203125" xlink:href="#BitstreamVeraSans-Roman-6c"/>
       <use x="96.19140625" xlink:href="#BitstreamVeraSans-Roman-62"/>
       <use x="159.66796875" xlink:href="#BitstreamVeraSans-Roman-61"/>
       <use x="220.947265625" xlink:href="#BitstreamVeraSans-Roman-6e"/>
       <use x="284.326171875" xlink:href="#BitstreamVeraSans-Roman-69"/>
       <use x="312.109375" xlink:href="#BitstreamVeraSans-Roman-61"/>
      </g>
     </g>
    </g>
    <g id="xtick_17">
     <g id="text_17">
      <!-- Azerbaijan -->
      <defs>
       <path d="M 9.421875 54.6875 
L 18.40625 54.6875 
L 18.40625 -0.984375 
Q 18.40625 -11.421875 14.421875 -16.109375 
Q 10.453125 -20.796875 1.609375 -20.796875 
L -1.8125 -20.796875 
L -1.8125 -13.1875 
L 0.59375 -13.1875 
Q 5.71875 -13.1875 7.5625 -10.8125 
Q 9.421875 -8.453125 9.421875 -0.984375 
z
M 9.421875 75.984375 
L 18.40625 75.984375 
L 18.40625 64.59375 
L 9.421875 64.59375 
z
" id="BitstreamVeraSans-Roman-6a"/>
      </defs>
      <g transform="translate(212.560982143 345.5090625)rotate(-90.0)scale(0.06 -0.06)">
       <use xlink:href="#BitstreamVeraSans-Roman-41"/>
       <use x="68.408203125" xlink:href="#BitstreamVeraSans-Roman-7a"/>
       <use x="120.8984375" xlink:href="#BitstreamVeraSans-Roman-65"/>
       <use x="182.421875" xlink:href="#BitstreamVeraSans-Roman-72"/>
       <use x="223.53515625" xlink:href="#BitstreamVeraSans-Roman-62"/>
       <use x="287.01171875" xlink:href="#BitstreamVeraSans-Roman-61"/>
       <use x="348.291015625" xlink:href="#BitstreamVeraSans-Roman-69"/>
       <use x="376.07421875" xlink:href="#BitstreamVeraSans-Roman-6a"/>
       <use x="403.857421875" xlink:href="#BitstreamVeraSans-Roman-61"/>
       <use x="465.13671875" xlink:href="#BitstreamVeraSans-Roman-6e"/>
      </g>
     </g>
    </g>
    <g id="xtick_18">
     <g id="text_18">
      <!-- Bulgaria -->
      <g transform="translate(223.389791667 338.6803125)rotate(-90.0)scale(0.06 -0.06)">
       <use xlink:href="#BitstreamVeraSans-Roman-42"/>
       <use x="68.603515625" xlink:href="#BitstreamVeraSans-Roman-75"/>
       <use x="131.982421875" xlink:href="#BitstreamVeraSans-Roman-6c"/>
       <use x="159.765625" xlink:href="#BitstreamVeraSans-Roman-67"/>
       <use x="223.2421875" xlink:href="#BitstreamVeraSans-Roman-61"/>
       <use x="284.521484375" xlink:href="#BitstreamVeraSans-Roman-72"/>
       <use x="325.634765625" xlink:href="#BitstreamVeraSans-Roman-69"/>
       <use x="353.41796875" xlink:href="#BitstreamVeraSans-Roman-61"/>
      </g>
     </g>
    </g>
    <g id="xtick_19">
     <g id="text_19">
      <!-- Cyprus -->
      <g transform="translate(234.21860119 334.7428125)rotate(-90.0)scale(0.06 -0.06)">
       <use xlink:href="#BitstreamVeraSans-Roman-43"/>
       <use x="69.82421875" xlink:href="#BitstreamVeraSans-Roman-79"/>
       <use x="129.00390625" xlink:href="#BitstreamVeraSans-Roman-70"/>
       <use x="192.48046875" xlink:href="#BitstreamVeraSans-Roman-72"/>
       <use x="233.59375" xlink:href="#BitstreamVeraSans-Roman-75"/>
       <use x="296.97265625" xlink:href="#BitstreamVeraSans-Roman-73"/>
      </g>
     </g>
    </g>
    <g id="xtick_20">
     <g id="text_20">
      <!-- Greece -->
      <defs>
       <path d="M 59.515625 10.40625 
L 59.515625 29.984375 
L 43.40625 29.984375 
L 43.40625 38.09375 
L 69.28125 38.09375 
L 69.28125 6.78125 
Q 63.578125 2.734375 56.6875 0.65625 
Q 49.8125 -1.421875 42 -1.421875 
Q 24.90625 -1.421875 15.25 8.5625 
Q 5.609375 18.5625 5.609375 36.375 
Q 5.609375 54.25 15.25 64.234375 
Q 24.90625 74.21875 42 74.21875 
Q 49.125 74.21875 55.546875 72.453125 
Q 61.96875 70.703125 67.390625 67.28125 
L 67.390625 56.78125 
Q 61.921875 61.421875 55.765625 63.765625 
Q 49.609375 66.109375 42.828125 66.109375 
Q 29.4375 66.109375 22.71875 58.640625 
Q 16.015625 51.171875 16.015625 36.375 
Q 16.015625 21.625 22.71875 14.15625 
Q 29.4375 6.6875 42.828125 6.6875 
Q 48.046875 6.6875 52.140625 7.59375 
Q 56.25 8.5 59.515625 10.40625 
" id="BitstreamVeraSans-Roman-47"/>
      </defs>
      <g transform="translate(245.047410714 335.2865625)rotate(-90.0)scale(0.06 -0.06)">
       <use xlink:href="#BitstreamVeraSans-Roman-47"/>
       <use x="77.490234375" xlink:href="#BitstreamVeraSans-Roman-72"/>
       <use x="118.572265625" xlink:href="#BitstreamVeraSans-Roman-65"/>
       <use x="180.095703125" xlink:href="#BitstreamVeraSans-Roman-65"/>
       <use x="241.619140625" xlink:href="#BitstreamVeraSans-Roman-63"/>
       <use x="296.599609375" xlink:href="#BitstreamVeraSans-Roman-65"/>
      </g>
     </g>
    </g>
    <g id="xtick_21">
     <g id="text_21">
      <!-- Armenia -->
      <g transform="translate(255.876220238 339.050625)rotate(-90.0)scale(0.06 -0.06)">
       <use xlink:href="#BitstreamVeraSans-Roman-41"/>
       <use x="68.408203125" xlink:href="#BitstreamVeraSans-Roman-72"/>
       <use x="109.505859375" xlink:href="#BitstreamVeraSans-Roman-6d"/>
       <use x="206.91796875" xlink:href="#BitstreamVeraSans-Roman-65"/>
       <use x="268.44140625" xlink:href="#BitstreamVeraSans-Roman-6e"/>
       <use x="331.8203125" xlink:href="#BitstreamVeraSans-Roman-69"/>
       <use x="359.603515625" xlink:href="#BitstreamVeraSans-Roman-61"/>
      </g>
     </g>
    </g>
    <g id="xtick_22">
     <g id="text_22">
      <!-- Czech Republic -->
      <g transform="translate(266.705029762 359.7478125)rotate(-90.0)scale(0.06 -0.06)">
       <use xlink:href="#BitstreamVeraSans-Roman-43"/>
       <use x="69.82421875" xlink:href="#BitstreamVeraSans-Roman-7a"/>
       <use x="122.314453125" xlink:href="#BitstreamVeraSans-Roman-65"/>
       <use x="183.837890625" xlink:href="#BitstreamVeraSans-Roman-63"/>
       <use x="238.818359375" xlink:href="#BitstreamVeraSans-Roman-68"/>
       <use x="302.197265625" xlink:href="#BitstreamVeraSans-Roman-20"/>
       <use x="333.984375" xlink:href="#BitstreamVeraSans-Roman-52"/>
       <use x="403.404296875" xlink:href="#BitstreamVeraSans-Roman-65"/>
       <use x="464.927734375" xlink:href="#BitstreamVeraSans-Roman-70"/>
       <use x="528.404296875" xlink:href="#BitstreamVeraSans-Roman-75"/>
       <use x="591.783203125" xlink:href="#BitstreamVeraSans-Roman-62"/>
       <use x="655.259765625" xlink:href="#BitstreamVeraSans-Roman-6c"/>
       <use x="683.04296875" xlink:href="#BitstreamVeraSans-Roman-69"/>
       <use x="710.826171875" xlink:href="#BitstreamVeraSans-Roman-63"/>
      </g>
     </g>
    </g>
    <g id="xtick_23">
     <g id="text_23">
      <!-- Germany -->
      <g transform="translate(277.533839286 341.4796875)rotate(-90.0)scale(0.06 -0.06)">
       <use xlink:href="#BitstreamVeraSans-Roman-47"/>
       <use x="77.490234375" xlink:href="#BitstreamVeraSans-Roman-65"/>
       <use x="139.013671875" xlink:href="#BitstreamVeraSans-Roman-72"/>
       <use x="180.111328125" xlink:href="#BitstreamVeraSans-Roman-6d"/>
       <use x="277.5234375" xlink:href="#BitstreamVeraSans-Roman-61"/>
       <use x="338.802734375" xlink:href="#BitstreamVeraSans-Roman-6e"/>
       <use x="402.181640625" xlink:href="#BitstreamVeraSans-Roman-79"/>
      </g>
     </g>
    </g>
    <g id="xtick_24">
     <g id="text_24">
      <!-- Russia -->
      <g transform="translate(288.36264881 333.3609375)rotate(-90.0)scale(0.06 -0.06)">
       <use xlink:href="#BitstreamVeraSans-Roman-52"/>
       <use x="69.419921875" xlink:href="#BitstreamVeraSans-Roman-75"/>
       <use x="132.798828125" xlink:href="#BitstreamVeraSans-Roman-73"/>
       <use x="184.8984375" xlink:href="#BitstreamVeraSans-Roman-73"/>
       <use x="236.998046875" xlink:href="#BitstreamVeraSans-Roman-69"/>
       <use x="264.78125" xlink:href="#BitstreamVeraSans-Roman-61"/>
      </g>
     </g>
    </g>
    <g id="xtick_25">
     <g id="text_25">
      <!-- Moldova -->
      <g transform="translate(299.191458333 339.0215625)rotate(-90.0)scale(0.06 -0.06)">
       <use xlink:href="#BitstreamVeraSans-Roman-4d"/>
       <use x="86.279296875" xlink:href="#BitstreamVeraSans-Roman-6f"/>
       <use x="147.4609375" xlink:href="#BitstreamVeraSans-Roman-6c"/>
       <use x="175.244140625" xlink:href="#BitstreamVeraSans-Roman-64"/>
       <use x="238.720703125" xlink:href="#BitstreamVeraSans-Roman-6f"/>
       <use x="299.90234375" xlink:href="#BitstreamVeraSans-Roman-76"/>
       <use x="359.08203125" xlink:href="#BitstreamVeraSans-Roman-61"/>
      </g>
     </g>
    </g>
    <g id="xtick_26">
     <g id="text_26">
      <!-- Georgia -->
      <g transform="translate(310.020267857 337.42875)rotate(-90.0)scale(0.06 -0.06)">
       <use xlink:href="#BitstreamVeraSans-Roman-47"/>
       <use x="77.490234375" xlink:href="#BitstreamVeraSans-Roman-65"/>
       <use x="139.013671875" xlink:href="#BitstreamVeraSans-Roman-6f"/>
       <use x="200.1953125" xlink:href="#BitstreamVeraSans-Roman-72"/>
       <use x="241.29296875" xlink:href="#BitstreamVeraSans-Roman-67"/>
       <use x="304.76953125" xlink:href="#BitstreamVeraSans-Roman-69"/>
       <use x="332.552734375" xlink:href="#BitstreamVeraSans-Roman-61"/>
      </g>
     </g>
    </g>
    <g id="xtick_27">
     <g id="text_27">
      <!-- Belarus -->
      <g transform="translate(320.849077381 336.345)rotate(-90.0)scale(0.06 -0.06)">
       <use xlink:href="#BitstreamVeraSans-Roman-42"/>
       <use x="68.603515625" xlink:href="#BitstreamVeraSans-Roman-65"/>
       <use x="130.126953125" xlink:href="#BitstreamVeraSans-Roman-6c"/>
       <use x="157.91015625" xlink:href="#BitstreamVeraSans-Roman-61"/>
       <use x="219.189453125" xlink:href="#BitstreamVeraSans-Roman-72"/>
       <use x="260.302734375" xlink:href="#BitstreamVeraSans-Roman-75"/>
       <use x="323.681640625" xlink:href="#BitstreamVeraSans-Roman-73"/>
      </g>
     </g>
    </g>
    <g id="xtick_28">
     <g id="text_28">
      <!-- Ukraine -->
      <defs>
       <path d="M 8.6875 72.90625 
L 18.609375 72.90625 
L 18.609375 28.609375 
Q 18.609375 16.890625 22.84375 11.734375 
Q 27.09375 6.59375 36.625 6.59375 
Q 46.09375 6.59375 50.34375 11.734375 
Q 54.59375 16.890625 54.59375 28.609375 
L 54.59375 72.90625 
L 64.5 72.90625 
L 64.5 27.390625 
Q 64.5 13.140625 57.4375 5.859375 
Q 50.390625 -1.421875 36.625 -1.421875 
Q 22.796875 -1.421875 15.734375 5.859375 
Q 8.6875 13.140625 8.6875 27.390625 
z
" id="BitstreamVeraSans-Roman-55"/>
       <path d="M 9.078125 75.984375 
L 18.109375 75.984375 
L 18.109375 31.109375 
L 44.921875 54.6875 
L 56.390625 54.6875 
L 27.390625 29.109375 
L 57.625 0 
L 45.90625 0 
L 18.109375 26.703125 
L 18.109375 0 
L 9.078125 0 
z
" id="BitstreamVeraSans-Roman-6b"/>
      </defs>
      <g transform="translate(331.677886905 336.9684375)rotate(-90.0)scale(0.06 -0.06)">
       <use xlink:href="#BitstreamVeraSans-Roman-55"/>
       <use x="73.193359375" xlink:href="#BitstreamVeraSans-Roman-6b"/>
       <use x="131.103515625" xlink:href="#BitstreamVeraSans-Roman-72"/>
       <use x="172.216796875" xlink:href="#BitstreamVeraSans-Roman-61"/>
       <use x="233.49609375" xlink:href="#BitstreamVeraSans-Roman-69"/>
       <use x="261.279296875" xlink:href="#BitstreamVeraSans-Roman-6e"/>
       <use x="324.658203125" xlink:href="#BitstreamVeraSans-Roman-65"/>
      </g>
     </g>
    </g>
    <g id="xtick_29">
     <g id="text_29">
      <!-- Austria -->
      <g transform="translate(342.506696429 334.993125)rotate(-90.0)scale(0.06 -0.06)">
       <use xlink:href="#BitstreamVeraSans-Roman-41"/>
       <use x="68.408203125" xlink:href="#BitstreamVeraSans-Roman-75"/>
       <use x="131.787109375" xlink:href="#BitstreamVeraSans-Roman-73"/>
       <use x="183.88671875" xlink:href="#BitstreamVeraSans-Roman-74"/>
       <use x="223.095703125" xlink:href="#BitstreamVeraSans-Roman-72"/>
       <use x="264.208984375" xlink:href="#BitstreamVeraSans-Roman-69"/>
       <use x="291.9921875" xlink:href="#BitstreamVeraSans-Roman-61"/>
      </g>
     </g>
    </g>
    <g id="xtick_30">
     <g id="text_30">
      <!-- Hungary -->
      <g transform="translate(353.335505952 339.4190625)rotate(-90.0)scale(0.06 -0.06)">
       <use xlink:href="#BitstreamVeraSans-Roman-48"/>
       <use x="75.1953125" xlink:href="#BitstreamVeraSans-Roman-75"/>
       <use x="138.57421875" xlink:href="#BitstreamVeraSans-Roman-6e"/>
       <use x="201.953125" xlink:href="#BitstreamVeraSans-Roman-67"/>
       <use x="265.4296875" xlink:href="#BitstreamVeraSans-Roman-61"/>
       <use x="326.708984375" xlink:href="#BitstreamVeraSans-Roman-72"/>
       <use x="367.822265625" xlink:href="#BitstreamVeraSans-Roman-79"/>
      </g>
     </g>
    </g>
    <g id="xtick_31">
     <g id="text_31">
      <!-- United Kingdom -->
      <defs>
       <path d="M 9.8125 72.90625 
L 19.671875 72.90625 
L 19.671875 42.09375 
L 52.390625 72.90625 
L 65.09375 72.90625 
L 28.90625 38.921875 
L 67.671875 0 
L 54.6875 0 
L 19.671875 35.109375 
L 19.671875 0 
L 9.8125 0 
z
" id="BitstreamVeraSans-Roman-4b"/>
      </defs>
      <g transform="translate(364.164315476 361.9565625)rotate(-90.0)scale(0.06 -0.06)">
       <use xlink:href="#BitstreamVeraSans-Roman-55"/>
       <use x="73.193359375" xlink:href="#BitstreamVeraSans-Roman-6e"/>
       <use x="136.572265625" xlink:href="#BitstreamVeraSans-Roman-69"/>
       <use x="164.35546875" xlink:href="#BitstreamVeraSans-Roman-74"/>
       <use x="203.564453125" xlink:href="#BitstreamVeraSans-Roman-65"/>
       <use x="265.087890625" xlink:href="#BitstreamVeraSans-Roman-64"/>
       <use x="328.564453125" xlink:href="#BitstreamVeraSans-Roman-20"/>
       <use x="360.3515625" xlink:href="#BitstreamVeraSans-Roman-4b"/>
       <use x="425.927734375" xlink:href="#BitstreamVeraSans-Roman-69"/>
       <use x="453.7109375" xlink:href="#BitstreamVeraSans-Roman-6e"/>
       <use x="517.08984375" xlink:href="#BitstreamVeraSans-Roman-67"/>
       <use x="580.56640625" xlink:href="#BitstreamVeraSans-Roman-64"/>
       <use x="644.04296875" xlink:href="#BitstreamVeraSans-Roman-6f"/>
       <use x="705.224609375" xlink:href="#BitstreamVeraSans-Roman-6d"/>
      </g>
     </g>
    </g>
    <g id="xtick_32">
     <g id="text_32">
      <!-- Ireland -->
      <g transform="translate(374.993125 334.68)rotate(-90.0)scale(0.06 -0.06)">
       <use xlink:href="#BitstreamVeraSans-Roman-49"/>
       <use x="29.4921875" xlink:href="#BitstreamVeraSans-Roman-72"/>
       <use x="70.57421875" xlink:href="#BitstreamVeraSans-Roman-65"/>
       <use x="132.09765625" xlink:href="#BitstreamVeraSans-Roman-6c"/>
       <use x="159.880859375" xlink:href="#BitstreamVeraSans-Roman-61"/>
       <use x="221.16015625" xlink:href="#BitstreamVeraSans-Roman-6e"/>
       <use x="284.5390625" xlink:href="#BitstreamVeraSans-Roman-64"/>
      </g>
     </g>
    </g>
    <g id="xtick_33">
     <g id="text_33">
      <!-- Norway -->
      <g transform="translate(385.821934524 336.5596875)rotate(-90.0)scale(0.06 -0.06)">
       <use xlink:href="#BitstreamVeraSans-Roman-4e"/>
       <use x="74.8046875" xlink:href="#BitstreamVeraSans-Roman-6f"/>
       <use x="135.986328125" xlink:href="#BitstreamVeraSans-Roman-72"/>
       <use x="177.099609375" xlink:href="#BitstreamVeraSans-Roman-77"/>
       <use x="258.88671875" xlink:href="#BitstreamVeraSans-Roman-61"/>
       <use x="320.166015625" xlink:href="#BitstreamVeraSans-Roman-79"/>
      </g>
     </g>
    </g>
    <g id="xtick_34">
     <g id="text_34">
      <!-- Estonia -->
      <defs>
       <path d="M 9.8125 72.90625 
L 55.90625 72.90625 
L 55.90625 64.59375 
L 19.671875 64.59375 
L 19.671875 43.015625 
L 54.390625 43.015625 
L 54.390625 34.71875 
L 19.671875 34.71875 
L 19.671875 8.296875 
L 56.78125 8.296875 
L 56.78125 0 
L 9.8125 0 
z
" id="BitstreamVeraSans-Roman-45"/>
      </defs>
      <g transform="translate(396.650744048 335.8846875)rotate(-90.0)scale(0.06 -0.06)">
       <use xlink:href="#BitstreamVeraSans-Roman-45"/>
       <use x="63.18359375" xlink:href="#BitstreamVeraSans-Roman-73"/>
       <use x="115.283203125" xlink:href="#BitstreamVeraSans-Roman-74"/>
       <use x="154.4921875" xlink:href="#BitstreamVeraSans-Roman-6f"/>
       <use x="215.673828125" xlink:href="#BitstreamVeraSans-Roman-6e"/>
       <use x="279.052734375" xlink:href="#BitstreamVeraSans-Roman-69"/>
       <use x="306.8359375" xlink:href="#BitstreamVeraSans-Roman-61"/>
      </g>
     </g>
    </g>
    <g id="xtick_35">
     <g id="text_35">
      <!-- San Marino -->
      <g transform="translate(407.479553571 347.454375)rotate(-90.0)scale(0.06 -0.06)">
       <use xlink:href="#BitstreamVeraSans-Roman-53"/>
       <use x="63.4765625" xlink:href="#BitstreamVeraSans-Roman-61"/>
       <use x="124.755859375" xlink:href="#BitstreamVeraSans-Roman-6e"/>
       <use x="188.134765625" xlink:href="#BitstreamVeraSans-Roman-20"/>
       <use x="219.921875" xlink:href="#BitstreamVeraSans-Roman-4d"/>
       <use x="306.201171875" xlink:href="#BitstreamVeraSans-Roman-61"/>
       <use x="367.48046875" xlink:href="#BitstreamVeraSans-Roman-72"/>
       <use x="408.59375" xlink:href="#BitstreamVeraSans-Roman-69"/>
       <use x="436.376953125" xlink:href="#BitstreamVeraSans-Roman-6e"/>
       <use x="499.755859375" xlink:href="#BitstreamVeraSans-Roman-6f"/>
      </g>
     </g>
    </g>
    <g id="xtick_36">
     <g id="text_36">
      <!-- Latvia -->
      <defs>
       <path d="M 9.8125 72.90625 
L 19.671875 72.90625 
L 19.671875 8.296875 
L 55.171875 8.296875 
L 55.171875 0 
L 9.8125 0 
z
" id="BitstreamVeraSans-Roman-4c"/>
      </defs>
      <g transform="translate(418.308363095 332.0653125)rotate(-90.0)scale(0.06 -0.06)">
       <use xlink:href="#BitstreamVeraSans-Roman-4c"/>
       <use x="55.712890625" xlink:href="#BitstreamVeraSans-Roman-61"/>
       <use x="116.9921875" xlink:href="#BitstreamVeraSans-Roman-74"/>
       <use x="156.201171875" xlink:href="#BitstreamVeraSans-Roman-76"/>
       <use x="215.380859375" xlink:href="#BitstreamVeraSans-Roman-69"/>
       <use x="243.1640625" xlink:href="#BitstreamVeraSans-Roman-61"/>
      </g>
     </g>
    </g>
    <g id="xtick_37">
     <g id="text_37">
      <!-- Lithuania -->
      <g transform="translate(429.137172619 341.5884375)rotate(-90.0)scale(0.06 -0.06)">
       <use xlink:href="#BitstreamVeraSans-Roman-4c"/>
       <use x="55.712890625" xlink:href="#BitstreamVeraSans-Roman-69"/>
       <use x="83.49609375" xlink:href="#BitstreamVeraSans-Roman-74"/>
       <use x="122.705078125" xlink:href="#BitstreamVeraSans-Roman-68"/>
       <use x="186.083984375" xlink:href="#BitstreamVeraSans-Roman-75"/>
       <use x="249.462890625" xlink:href="#BitstreamVeraSans-Roman-61"/>
       <use x="310.7421875" xlink:href="#BitstreamVeraSans-Roman-6e"/>
       <use x="374.12109375" xlink:href="#BitstreamVeraSans-Roman-69"/>
       <use x="401.904296875" xlink:href="#BitstreamVeraSans-Roman-61"/>
      </g>
     </g>
    </g>
    <g id="xtick_38">
     <g id="text_38">
      <!-- Denmark -->
      <defs>
       <path d="M 19.671875 64.796875 
L 19.671875 8.109375 
L 31.59375 8.109375 
Q 46.6875 8.109375 53.6875 14.9375 
Q 60.6875 21.78125 60.6875 36.53125 
Q 60.6875 51.171875 53.6875 57.984375 
Q 46.6875 64.796875 31.59375 64.796875 
z
M 9.8125 72.90625 
L 30.078125 72.90625 
Q 51.265625 72.90625 61.171875 64.09375 
Q 71.09375 55.28125 71.09375 36.53125 
Q 71.09375 17.671875 61.125 8.828125 
Q 51.171875 0 30.078125 0 
L 9.8125 0 
z
" id="BitstreamVeraSans-Roman-44"/>
      </defs>
      <g transform="translate(439.965982143 341.3746875)rotate(-90.0)scale(0.06 -0.06)">
       <use xlink:href="#BitstreamVeraSans-Roman-44"/>
       <use x="77.001953125" xlink:href="#BitstreamVeraSans-Roman-65"/>
       <use x="138.525390625" xlink:href="#BitstreamVeraSans-Roman-6e"/>
       <use x="201.904296875" xlink:href="#BitstreamVeraSans-Roman-6d"/>
       <use x="299.31640625" xlink:href="#BitstreamVeraSans-Roman-61"/>
       <use x="360.595703125" xlink:href="#BitstreamVeraSans-Roman-72"/>
       <use x="401.708984375" xlink:href="#BitstreamVeraSans-Roman-6b"/>
      </g>
     </g>
    </g>
    <g id="xtick_39">
     <g id="text_39">
      <!-- Iceland -->
      <g transform="translate(450.794791667 335.514375)rotate(-90.0)scale(0.06 -0.06)">
       <use xlink:href="#BitstreamVeraSans-Roman-49"/>
       <use x="29.4921875" xlink:href="#BitstreamVeraSans-Roman-63"/>
       <use x="84.47265625" xlink:href="#BitstreamVeraSans-Roman-65"/>
       <use x="145.99609375" xlink:href="#BitstreamVeraSans-Roman-6c"/>
       <use x="173.779296875" xlink:href="#BitstreamVeraSans-Roman-61"/>
       <use x="235.05859375" xlink:href="#BitstreamVeraSans-Roman-6e"/>
       <use x="298.4375" xlink:href="#BitstreamVeraSans-Roman-64"/>
      </g>
     </g>
    </g>
    <g id="xtick_40">
     <g id="text_40">
      <!-- Sweden -->
      <g transform="translate(461.62360119 337.509375)rotate(-90.0)scale(0.06 -0.06)">
       <use xlink:href="#BitstreamVeraSans-Roman-53"/>
       <use x="63.4765625" xlink:href="#BitstreamVeraSans-Roman-77"/>
       <use x="145.263671875" xlink:href="#BitstreamVeraSans-Roman-65"/>
       <use x="206.787109375" xlink:href="#BitstreamVeraSans-Roman-64"/>
       <use x="270.263671875" xlink:href="#BitstreamVeraSans-Roman-65"/>
       <use x="331.787109375" xlink:href="#BitstreamVeraSans-Roman-6e"/>
      </g>
     </g>
    </g>
    <g id="xtick_41">
     <g id="text_41">
      <!-- Finland -->
      <g transform="translate(472.452410714 335.6671875)rotate(-90.0)scale(0.06 -0.06)">
       <use xlink:href="#BitstreamVeraSans-Roman-46"/>
       <use x="57.41015625" xlink:href="#BitstreamVeraSans-Roman-69"/>
       <use x="85.193359375" xlink:href="#BitstreamVeraSans-Roman-6e"/>
       <use x="148.572265625" xlink:href="#BitstreamVeraSans-Roman-6c"/>
       <use x="176.35546875" xlink:href="#BitstreamVeraSans-Roman-61"/>
       <use x="237.634765625" xlink:href="#BitstreamVeraSans-Roman-6e"/>
       <use x="301.013671875" xlink:href="#BitstreamVeraSans-Roman-64"/>
      </g>
     </g>
    </g>
    <g id="xtick_42">
     <g id="text_42">
      <!-- Poland -->
      <defs>
       <path d="M 19.671875 64.796875 
L 19.671875 37.40625 
L 32.078125 37.40625 
Q 38.96875 37.40625 42.71875 40.96875 
Q 46.484375 44.53125 46.484375 51.125 
Q 46.484375 57.671875 42.71875 61.234375 
Q 38.96875 64.796875 32.078125 64.796875 
z
M 9.8125 72.90625 
L 32.078125 72.90625 
Q 44.34375 72.90625 50.609375 67.359375 
Q 56.890625 61.8125 56.890625 51.125 
Q 56.890625 40.328125 50.609375 34.8125 
Q 44.34375 29.296875 32.078125 29.296875 
L 19.671875 29.296875 
L 19.671875 0 
L 9.8125 0 
z
" id="BitstreamVeraSans-Roman-50"/>
      </defs>
      <g transform="translate(483.281220238 334.0396875)rotate(-90.0)scale(0.06 -0.06)">
       <use xlink:href="#BitstreamVeraSans-Roman-50"/>
       <use x="60.255859375" xlink:href="#BitstreamVeraSans-Roman-6f"/>
       <use x="121.4375" xlink:href="#BitstreamVeraSans-Roman-6c"/>
       <use x="149.220703125" xlink:href="#BitstreamVeraSans-Roman-61"/>
       <use x="210.5" xlink:href="#BitstreamVeraSans-Roman-6e"/>
       <use x="273.87890625" xlink:href="#BitstreamVeraSans-Roman-64"/>
      </g>
     </g>
    </g>
   </g>
   <g id="matplotlib.axis_2">
    <g id="ytick_1">
     <g id="line2d_1">
      <defs>
       <path d="M 0 0 
L 4 0 
" id="m7054dbc572" style="stroke:#000000;stroke-width:0.5;"/>
      </defs>
      <g>
       <use style="stroke:#000000;stroke-width:0.5;" x="32.23" xlink:href="#m7054dbc572" y="309.798125"/>
      </g>
     </g>
     <g id="line2d_2">
      <defs>
       <path d="M 0 0 
L -4 0 
" id="m2d20e993ef" style="stroke:#000000;stroke-width:0.5;"/>
      </defs>
      <g>
       <use style="stroke:#000000;stroke-width:0.5;" x="487.04" xlink:href="#m2d20e993ef" y="309.798125"/>
      </g>
     </g>
     <g id="text_43">
      <!-- 0 -->
      <defs>
       <path d="M 31.78125 66.40625 
Q 24.171875 66.40625 20.328125 58.90625 
Q 16.5 51.421875 16.5 36.375 
Q 16.5 21.390625 20.328125 13.890625 
Q 24.171875 6.390625 31.78125 6.390625 
Q 39.453125 6.390625 43.28125 13.890625 
Q 47.125 21.390625 47.125 36.375 
Q 47.125 51.421875 43.28125 58.90625 
Q 39.453125 66.40625 31.78125 66.40625 
M 31.78125 74.21875 
Q 44.046875 74.21875 50.515625 64.515625 
Q 56.984375 54.828125 56.984375 36.375 
Q 56.984375 17.96875 50.515625 8.265625 
Q 44.046875 -1.421875 31.78125 -1.421875 
Q 19.53125 -1.421875 13.0625 8.265625 
Q 6.59375 17.96875 6.59375 36.375 
Q 6.59375 54.828125 13.0625 64.515625 
Q 19.53125 74.21875 31.78125 74.21875 
" id="BitstreamVeraSans-Roman-30"/>
      </defs>
      <g transform="translate(20.595 313.109375)scale(0.12 -0.12)">
       <use xlink:href="#BitstreamVeraSans-Roman-30"/>
      </g>
     </g>
    </g>
    <g id="ytick_2">
     <g id="line2d_3">
      <g>
       <use style="stroke:#000000;stroke-width:0.5;" x="32.23" xlink:href="#m7054dbc572" y="238.404842312"/>
      </g>
     </g>
     <g id="line2d_4">
      <g>
       <use style="stroke:#000000;stroke-width:0.5;" x="487.04" xlink:href="#m2d20e993ef" y="238.404842312"/>
      </g>
     </g>
     <g id="text_44">
      <!-- 5 -->
      <defs>
       <path d="M 10.796875 72.90625 
L 49.515625 72.90625 
L 49.515625 64.59375 
L 19.828125 64.59375 
L 19.828125 46.734375 
Q 21.96875 47.46875 24.109375 47.828125 
Q 26.265625 48.1875 28.421875 48.1875 
Q 40.625 48.1875 47.75 41.5 
Q 54.890625 34.8125 54.890625 23.390625 
Q 54.890625 11.625 47.5625 5.09375 
Q 40.234375 -1.421875 26.90625 -1.421875 
Q 22.3125 -1.421875 17.546875 -0.640625 
Q 12.796875 0.140625 7.71875 1.703125 
L 7.71875 11.625 
Q 12.109375 9.234375 16.796875 8.0625 
Q 21.484375 6.890625 26.703125 6.890625 
Q 35.15625 6.890625 40.078125 11.328125 
Q 45.015625 15.765625 45.015625 23.390625 
Q 45.015625 31 40.078125 35.4375 
Q 35.15625 39.890625 26.703125 39.890625 
Q 22.75 39.890625 18.8125 39.015625 
Q 14.890625 38.140625 10.796875 36.28125 
z
" id="BitstreamVeraSans-Roman-35"/>
      </defs>
      <g transform="translate(20.595 241.716092312)scale(0.12 -0.12)">
       <use xlink:href="#BitstreamVeraSans-Roman-35"/>
      </g>
     </g>
    </g>
    <g id="ytick_3">
     <g id="line2d_5">
      <g>
       <use style="stroke:#000000;stroke-width:0.5;" x="32.23" xlink:href="#m7054dbc572" y="167.011559624"/>
      </g>
     </g>
     <g id="line2d_6">
      <g>
       <use style="stroke:#000000;stroke-width:0.5;" x="487.04" xlink:href="#m2d20e993ef" y="167.011559624"/>
      </g>
     </g>
     <g id="text_45">
      <!-- 10 -->
      <defs>
       <path d="M 12.40625 8.296875 
L 28.515625 8.296875 
L 28.515625 63.921875 
L 10.984375 60.40625 
L 10.984375 69.390625 
L 28.421875 72.90625 
L 38.28125 72.90625 
L 38.28125 8.296875 
L 54.390625 8.296875 
L 54.390625 0 
L 12.40625 0 
z
" id="BitstreamVeraSans-Roman-31"/>
      </defs>
      <g transform="translate(12.96 170.322809624)scale(0.12 -0.12)">
       <use xlink:href="#BitstreamVeraSans-Roman-31"/>
       <use x="63.623046875" xlink:href="#BitstreamVeraSans-Roman-30"/>
      </g>
     </g>
    </g>
    <g id="ytick_4">
     <g id="line2d_7">
      <g>
       <use style="stroke:#000000;stroke-width:0.5;" x="32.23" xlink:href="#m7054dbc572" y="95.6182769365"/>
      </g>
     </g>
     <g id="line2d_8">
      <g>
       <use style="stroke:#000000;stroke-width:0.5;" x="487.04" xlink:href="#m2d20e993ef" y="95.6182769365"/>
      </g>
     </g>
     <g id="text_46">
      <!-- 15 -->
      <g transform="translate(12.96 98.9295269365)scale(0.12 -0.12)">
       <use xlink:href="#BitstreamVeraSans-Roman-31"/>
       <use x="63.623046875" xlink:href="#BitstreamVeraSans-Roman-35"/>
      </g>
     </g>
    </g>
    <g id="ytick_5">
     <g id="line2d_9">
      <g>
       <use style="stroke:#000000;stroke-width:0.5;" x="32.23" xlink:href="#m7054dbc572" y="24.2249942487"/>
      </g>
     </g>
     <g id="line2d_10">
      <g>
       <use style="stroke:#000000;stroke-width:0.5;" x="487.04" xlink:href="#m2d20e993ef" y="24.2249942487"/>
      </g>
     </g>
     <g id="text_47">
      <!-- 20 -->
      <defs>
       <path d="M 19.1875 8.296875 
L 53.609375 8.296875 
L 53.609375 0 
L 7.328125 0 
L 7.328125 8.296875 
Q 12.9375 14.109375 22.625 23.890625 
Q 32.328125 33.6875 34.8125 36.53125 
Q 39.546875 41.84375 41.421875 45.53125 
Q 43.3125 49.21875 43.3125 52.78125 
Q 43.3125 58.59375 39.234375 62.25 
Q 35.15625 65.921875 28.609375 65.921875 
Q 23.96875 65.921875 18.8125 64.3125 
Q 13.671875 62.703125 7.8125 59.421875 
L 7.8125 69.390625 
Q 13.765625 71.78125 18.9375 73 
Q 24.125 74.21875 28.421875 74.21875 
Q 39.75 74.21875 46.484375 68.546875 
Q 53.21875 62.890625 53.21875 53.421875 
Q 53.21875 48.921875 51.53125 44.890625 
Q 49.859375 40.875 45.40625 35.40625 
Q 44.1875 33.984375 37.640625 27.21875 
Q 31.109375 20.453125 19.1875 8.296875 
" id="BitstreamVeraSans-Roman-32"/>
      </defs>
      <g transform="translate(12.96 27.5362442487)scale(0.12 -0.12)">
       <use xlink:href="#BitstreamVeraSans-Roman-32"/>
       <use x="63.623046875" xlink:href="#BitstreamVeraSans-Roman-30"/>
      </g>
     </g>
    </g>
   </g>
  </g>
 </g>
 <defs>
  <clipPath id="p1d22d4b336">
   <rect height="296.838125" width="454.81" x="32.23" y="12.96"/>
  </clipPath>
 </defs>
</svg>
