<?xml version="1.0" encoding="utf-8" standalone="no"?>
<!DOCTYPE svg PUBLIC "-//W3C//DTD SVG 1.1//EN"
  "http://www.w3.org/Graphics/SVG/1.1/DTD/svg11.dtd">
<!-- Created with matplotlib (http://matplotlib.org/) -->
<svg height="450pt" version="1.1" viewBox="0 0 461 450" width="461pt" xmlns="http://www.w3.org/2000/svg" xmlns:xlink="http://www.w3.org/1999/xlink">
 <defs>
  <style type="text/css">
*{stroke-linecap:butt;stroke-linejoin:round;stroke-miterlimit:100000;}
  </style>
 </defs>
 <g id="figure_1">
  <g id="patch_1">
   <path d="M 0 450 
L 461 450 
L 461 0 
L 0 0 
z
" style="fill:#ffffff;"/>
  </g>
  <g id="axes_1">
   <g id="patch_2">
    <path d="M 47.5 421.42625 
L 432.627033 421.42625 
L 432.627033 18.766875 
L 47.5 18.766875 
z
" style="fill:#ffffff;"/>
   </g>
   <g id="line2d_1">
    <path clip-path="url(#pac44e967e8)" d="M 47.5 363.274147 
L 47.654112 365.057053 
L 47.808225 364.757226 
L 47.962337 365.227443 
L 48.11645 363.054158 
L 48.270562 364.514881 
L 48.7329 361.470778 
L 49.041125 360.938447 
L 49.195237 360.171404 
L 49.349349 360.636047 
L 49.657574 358.796807 
L 49.811687 358.714366 
L 50.119912 360.433175 
L 50.274024 360.085997 
L 50.582249 363.693883 
L 50.736362 363.402019 
L 51.044587 366.911883 
L 51.198699 364.819175 
L 51.661036 366.025862 
L 51.815149 367.227135 
L 52.123374 366.610941 
L 52.277486 364.181788 
L 52.431599 365.820826 
L 52.585711 364.557022 
L 52.739824 367.162785 
L 52.893936 367.603838 
L 53.048048 367.393926 
L 53.202161 367.494958 
L 53.356273 368.752275 
L 53.510386 366.214807 
L 53.664498 366.891616 
L 53.818611 366.826424 
L 54.126836 366.236639 
L 54.280948 365.958639 
L 54.435061 366.558366 
L 54.589173 363.396149 
L 54.743286 362.92646 
L 54.897398 361.039809 
L 55.205623 363.593616 
L 55.359735 363.971794 
L 55.513848 363.648285 
L 55.976185 364.661326 
L 56.130298 365.037163 
L 56.28441 364.733754 
L 56.438523 364.021384 
L 56.592635 363.947026 
L 56.746747 363.271255 
L 56.90086 363.259865 
L 57.054972 364.014093 
L 57.209085 365.587509 
L 57.363197 365.216534 
L 57.51731 366.456005 
L 57.979647 364.105271 
L 58.13376 365.149936 
L 58.287872 364.954239 
L 58.441985 364.97036 
L 58.596097 365.108764 
L 58.750209 365.00039 
L 58.904322 365.123311 
L 59.058434 364.883138 
L 59.212547 365.260306 
L 59.366659 365.128253 
L 59.520772 366.098797 
L 59.828997 364.189985 
L 60.137222 362.139542 
L 60.291334 360.568165 
L 60.445446 361.686174 
L 60.599559 361.584013 
L 60.907784 359.4803 
L 61.061896 360.26461 
L 61.216009 361.776627 
L 61.370121 360.798238 
L 61.524234 361.222035 
L 61.832459 359.145391 
L 61.986571 359.785972 
L 62.140684 359.866852 
L 62.294796 359.629829 
L 62.448908 360.621095 
L 62.603021 357.237738 
L 62.757133 356.887792 
L 62.911246 355.607737 
L 63.065358 355.944272 
L 63.681808 352.466907 
L 63.835921 352.994283 
L 64.144145 353.035721 
L 64.298258 355.974512 
L 64.45237 354.699813 
L 64.606483 354.47285 
L 64.914708 351.158394 
L 65.06882 352.360883 
L 65.222933 352.40782 
L 65.377045 352.789151 
L 65.531158 351.421854 
L 65.839383 351.183684 
L 65.993495 350.555392 
L 66.30172 352.53254 
L 66.764057 350.063168 
L 66.91817 347.9605 
L 67.226395 349.196636 
L 67.380507 347.262315 
L 67.53462 347.637124 
L 67.842844 346.424294 
L 68.151069 350.041078 
L 68.305182 349.595101 
L 68.459294 347.854859 
L 68.613407 347.85652 
L 68.767519 346.924945 
L 68.921632 346.862624 
L 69.075744 343.950151 
L 69.229857 344.897624 
L 69.383969 343.715265 
L 69.538082 345.056211 
L 69.692194 344.427207 
L 69.846306 345.167166 
L 70.000419 343.566647 
L 70.154531 346.179203 
L 70.308644 344.951922 
L 70.462756 344.894152 
L 70.616869 348.193377 
L 70.770981 348.315837 
L 70.925094 352.250431 
L 71.541543 356.095246 
L 71.695656 356.057658 
L 72.003881 359.083642 
L 72.157993 358.992179 
L 72.312106 359.317729 
L 72.466218 360.940626 
L 72.620331 360.868514 
L 72.774443 360.238226 
L 73.082668 363.125595 
L 73.236781 364.403084 
L 73.545005 362.0547 
L 73.699118 361.810884 
L 73.85323 362.881664 
L 74.007343 365.162348 
L 74.161455 364.455864 
L 74.315568 366.027398 
L 74.46968 365.897629 
L 74.623793 367.706195 
L 74.777905 367.448102 
L 74.932018 365.853875 
L 75.08613 365.615897 
L 75.240242 366.831956 
L 75.394355 366.433799 
L 75.548467 365.677871 
L 75.856692 362.475823 
L 76.164917 366.022798 
L 76.31903 365.899434 
L 76.473142 366.748402 
L 76.627255 368.587949 
L 76.781367 368.188012 
L 76.935479 366.770017 
L 77.089592 366.717977 
L 77.243704 365.833317 
L 77.397817 366.467726 
L 77.551929 364.767975 
L 77.706042 365.098949 
L 77.860154 365.004778 
L 78.014267 367.016237 
L 78.168379 367.320142 
L 78.322492 368.438286 
L 78.476604 366.14607 
L 78.630717 367.74762 
L 78.784829 367.337869 
L 78.938941 367.97802 
L 79.093054 368.135762 
L 79.247166 369.34832 
L 79.401279 368.510305 
L 79.555391 368.869688 
L 79.709504 368.847766 
L 79.863616 369.35397 
L 80.017729 371.391195 
L 80.171841 370.514685 
L 80.325954 370.553123 
L 80.480066 369.759556 
L 80.634178 367.63155 
L 80.788291 367.321132 
L 81.096516 369.50078 
L 81.250628 368.917735 
L 81.404741 369.827255 
L 81.558853 369.077976 
L 81.712966 366.945994 
L 81.867078 366.834404 
L 82.021191 367.423507 
L 82.175303 366.998178 
L 82.329416 367.787659 
L 82.483528 366.531612 
L 82.63764 367.584852 
L 82.945865 365.505681 
L 83.099978 366.549053 
L 83.25409 366.139587 
L 83.408203 366.180717 
L 83.562315 365.761223 
L 83.87054 368.715321 
L 84.178765 368.283794 
L 84.48699 365.189098 
L 84.795215 363.580589 
L 84.949327 361.147222 
L 85.257552 363.459049 
L 85.565777 364.301384 
L 85.71989 365.546606 
L 85.874002 365.465443 
L 86.336339 369.016327 
L 86.798677 367.635349 
L 86.952789 369.482165 
L 87.106902 367.884962 
L 87.261014 367.73859 
L 87.415127 366.942885 
L 87.569239 369.480311 
L 87.723352 369.539994 
L 87.877464 369.01898 
L 88.031576 368.9141 
L 88.493914 370.788417 
L 88.648026 370.227615 
L 89.110364 371.93678 
L 89.264476 371.675447 
L 89.418589 370.188618 
L 89.572701 370.00012 
L 89.726814 370.182508 
L 89.880926 372.173093 
L 90.035038 372.364353 
L 90.189151 374.185949 
L 90.497376 372.314052 
L 90.651488 373.280218 
L 90.959713 372.142129 
L 91.267938 372.329133 
L 91.576163 373.588154 
L 91.730275 370.900676 
L 91.884388 370.839666 
L 92.0385 371.48069 
L 92.192613 371.106527 
L 92.65495 375.162947 
L 92.809063 374.806072 
L 92.963175 374.966115 
L 93.425513 373.881793 
L 93.579625 374.197171 
L 93.733737 375.248425 
L 93.88785 374.858219 
L 94.041962 375.346882 
L 94.196075 374.455626 
L 94.350187 374.727473 
L 94.5043 375.244738 
L 94.658412 376.176105 
L 94.812525 375.895058 
L 94.966637 377.077721 
L 95.12075 375.911701 
L 95.274862 375.898971 
L 95.428974 375.767416 
L 95.891312 374.385581 
L 96.045424 372.285278 
L 96.199537 373.771625 
L 96.353649 373.222149 
L 96.507762 373.577308 
L 96.815987 375.424342 
L 97.124212 377.170177 
L 97.278324 375.337468 
L 97.432436 375.501878 
L 97.586549 376.491713 
L 97.740661 375.061765 
L 98.048886 377.448883 
L 98.202999 376.068878 
L 98.357111 377.02437 
L 98.511224 376.765578 
L 98.819449 379.060445 
L 99.127673 379.415812 
L 99.435898 375.717992 
L 99.590011 376.802007 
L 99.744123 375.411888 
L 99.898236 377.294468 
L 100.052348 377.105738 
L 100.360573 377.42732 
L 100.514686 377.236215 
L 100.668798 376.66806 
L 100.822911 377.03903 
L 100.977023 377.998305 
L 101.131135 377.858349 
L 101.285248 376.5214 
L 101.43936 376.792154 
L 101.747585 374.244821 
L 101.901698 375.108041 
L 102.209923 372.904867 
L 102.364035 373.494625 
L 102.518148 373.644675 
L 102.826372 375.585579 
L 102.980485 375.963875 
L 103.28871 374.042028 
L 103.442822 374.870687 
L 103.596935 373.90341 
L 103.751047 376.053185 
L 103.90516 376.2905 
L 104.059272 375.515794 
L 104.213385 373.118575 
L 104.367497 372.946487 
L 104.675722 372.141595 
L 104.829834 372.758817 
L 105.138059 369.005572 
L 105.292172 368.328858 
L 105.446284 366.832209 
L 105.600397 366.498882 
L 105.754509 367.269912 
L 105.908622 367.448915 
L 106.062734 365.744495 
L 106.216847 366.409885 
L 106.370959 364.994198 
L 106.525071 364.773945 
L 106.679184 365.713518 
L 106.833296 364.592257 
L 106.987409 365.130248 
L 107.141521 363.314576 
L 107.295634 363.305301 
L 107.449746 362.467982 
L 107.912084 357.873457 
L 108.066196 358.081903 
L 108.220308 356.631788 
L 108.374421 357.079608 
L 108.682646 360.523795 
L 108.836758 360.64406 
L 108.990871 361.629964 
L 109.144983 361.515702 
L 109.299096 361.117 
L 109.607321 359.141306 
L 109.761433 359.374376 
L 110.069658 357.101845 
L 110.22377 354.646424 
L 110.377883 354.448983 
L 110.531995 352.495217 
L 110.686108 352.318199 
L 110.84022 350.046207 
L 111.302558 348.161355 
L 111.45667 349.674344 
L 111.610783 348.778579 
L 111.764895 346.579584 
L 111.919007 346.037407 
L 112.227232 348.019149 
L 112.381345 348.024835 
L 112.535457 349.112223 
L 112.68957 348.930817 
L 112.843682 349.434454 
L 112.997795 349.192595 
L 113.460132 351.408843 
L 113.768357 354.267452 
L 113.922469 354.118665 
L 114.230694 356.18781 
L 114.384807 356.094132 
L 114.847144 359.429256 
L 115.001257 359.856915 
L 115.309482 362.053697 
L 115.463594 362.81918 
L 115.617706 362.326281 
L 115.771819 361.18902 
L 116.080044 363.179644 
L 116.234156 362.88469 
L 116.542381 363.53494 
L 116.696494 363.333516 
L 116.850606 361.525167 
L 117.158831 363.521085 
L 117.312944 364.935314 
L 117.621168 363.463804 
L 117.775281 363.049767 
L 117.929393 363.249474 
L 118.237618 361.024722 
L 118.391731 361.545573 
L 118.545843 360.190267 
L 118.854068 364.367264 
L 119.008181 363.052382 
L 119.162293 363.939109 
L 119.316405 363.208736 
L 119.470518 363.912972 
L 119.62463 363.533043 
L 119.778743 365.78744 
L 120.086968 363.067924 
L 120.24108 364.523563 
L 120.549305 363.700589 
L 120.703418 362.307832 
L 120.85753 363.427274 
L 121.011643 363.133439 
L 121.165755 364.212072 
L 121.319867 363.708154 
L 121.47398 365.394352 
L 121.628092 365.838716 
L 121.936317 362.992595 
L 122.09043 363.048608 
L 122.244542 363.826345 
L 122.552767 362.751835 
L 122.70688 365.298253 
L 123.015104 365.868138 
L 123.323329 364.358549 
L 123.477442 364.902859 
L 123.785667 361.703414 
L 124.093892 363.34249 
L 124.402117 361.313969 
L 124.556229 362.228661 
L 125.172679 360.379483 
L 125.326791 358.952632 
L 125.480904 358.967772 
L 125.635016 359.820892 
L 125.789129 359.124457 
L 125.943241 359.721407 
L 126.097354 362.161542 
L 126.251466 362.708716 
L 126.559691 361.494961 
L 127.022028 363.449606 
L 127.176141 362.656008 
L 127.638478 364.550653 
L 127.792591 365.46863 
L 127.946703 365.211601 
L 128.100816 365.656286 
L 128.409041 368.026201 
L 128.717265 369.590051 
L 128.871378 369.375976 
L 129.64194 362.895733 
L 129.796053 363.273647 
L 129.950165 361.730729 
L 130.104278 362.441746 
L 130.25839 361.6548 
L 130.566615 365.607181 
L 130.720727 363.924574 
L 131.028952 363.268153 
L 131.183065 362.27104 
L 131.337177 363.633349 
L 131.49129 362.197087 
L 131.645402 364.261288 
L 131.799515 364.279199 
L 131.953627 365.067454 
L 132.415964 363.75659 
L 132.570077 363.904344 
L 132.878302 362.931974 
L 133.340639 365.698176 
L 133.494752 364.903983 
L 133.648864 365.180098 
L 133.802977 365.057626 
L 134.111201 367.259818 
L 134.265314 366.865659 
L 134.419426 367.266277 
L 134.573539 368.872754 
L 134.727651 368.17744 
L 134.881764 372.141161 
L 135.035876 371.701127 
L 135.189989 370.90668 
L 135.498214 368.618012 
L 135.652326 367.392058 
L 135.960551 368.77273 
L 136.114663 367.02913 
L 136.268776 366.876123 
L 136.422888 366.188558 
L 136.731113 366.906255 
L 137.039338 367.787329 
L 137.193451 366.023481 
L 137.347563 365.712944 
L 137.501676 367.367326 
L 137.655788 367.776087 
L 137.8099 367.340354 
L 138.118125 364.515205 
L 138.272238 363.911723 
L 138.580463 365.710392 
L 138.734575 365.688123 
L 138.888688 365.203622 
L 139.196913 365.522919 
L 139.505137 367.391971 
L 139.813362 367.033541 
L 139.967475 364.72277 
L 140.121587 364.657736 
L 140.583925 366.444162 
L 140.738037 366.78298 
L 140.89215 367.56042 
L 141.200375 365.065364 
L 141.354487 365.733071 
L 141.508599 367.83107 
L 141.662712 367.776091 
L 141.816824 368.247735 
L 142.125049 369.637764 
L 142.433274 368.501173 
L 142.587387 368.704282 
L 142.741499 369.13715 
L 142.895612 370.071177 
L 143.049724 369.683222 
L 143.203836 372.045857 
L 143.357949 372.572664 
L 143.512061 372.050819 
L 143.666174 370.907645 
L 143.820286 371.810497 
L 143.974399 371.310239 
L 144.128511 371.930005 
L 144.436736 376.157794 
L 144.590849 376.463206 
L 144.744961 377.480601 
L 145.053186 377.606937 
L 145.207298 378.722951 
L 145.823748 377.118849 
L 145.977861 377.137564 
L 146.286086 374.706983 
L 146.440198 374.402184 
L 146.902535 376.839689 
L 147.21076 374.786773 
L 147.364873 375.585953 
L 147.82721 371.214601 
L 148.135435 372.668426 
L 148.44366 375.189067 
L 148.597773 373.758522 
L 148.751885 374.100907 
L 148.905997 373.676222 
L 149.06011 372.366784 
L 149.214222 373.726919 
L 149.368335 372.902103 
L 149.522447 373.256115 
L 149.67656 370.870734 
L 150.29301 376.284775 
L 150.447122 375.621195 
L 150.601234 376.073607 
L 150.755347 377.523831 
L 150.909459 377.823347 
L 151.217684 376.759229 
L 151.525909 377.808621 
L 151.680022 377.253167 
L 151.834134 378.039288 
L 151.988247 376.563608 
L 152.142359 377.332046 
L 152.296472 379.474792 
L 152.450584 379.514473 
L 152.758809 378.619099 
L 152.912921 376.885188 
L 153.375259 380.45965 
L 153.991709 379.236976 
L 154.145821 380.074073 
L 154.299933 378.903043 
L 154.454046 379.178109 
L 154.608158 381.799378 
L 154.762271 380.849398 
L 154.916383 381.899302 
L 155.224608 380.515166 
L 155.378721 378.585731 
L 155.532833 378.275208 
L 155.686946 377.27799 
L 155.841058 377.469456 
L 156.149283 379.599277 
L 156.457508 378.612119 
L 156.61162 378.984323 
L 156.919845 376.882093 
L 157.073958 374.92901 
L 157.22807 374.678357 
L 157.382183 373.770987 
L 157.690408 375.059573 
L 157.84452 373.922896 
L 157.998632 374.031951 
L 158.152745 373.772623 
L 158.615082 370.373673 
L 158.769195 371.126811 
L 158.923307 369.550157 
L 159.07742 369.322734 
L 159.231532 369.766197 
L 159.539757 366.804671 
L 159.69387 367.505144 
L 160.002094 366.028086 
L 160.156207 365.611498 
L 160.310319 365.782026 
L 160.618544 365.069104 
L 160.772657 364.015856 
L 160.926769 365.477483 
L 161.080882 363.394657 
L 161.234994 363.224574 
L 161.389107 364.245603 
L 161.697331 361.124756 
L 161.851444 362.460899 
L 162.005556 360.608887 
L 162.159669 360.232987 
L 162.313781 360.307788 
L 162.467894 359.006904 
L 162.622006 358.738411 
L 162.776119 360.552726 
L 162.930231 360.067528 
L 163.084344 360.199151 
L 163.392568 362.634394 
L 163.546681 361.250366 
L 163.854906 363.137022 
L 164.163131 358.942816 
L 164.625468 360.521747 
L 164.779581 359.607435 
L 165.087806 359.511276 
L 165.241918 360.991077 
L 165.39603 361.223782 
L 165.704255 362.606492 
L 165.858368 362.385027 
L 166.01248 363.423726 
L 166.166593 363.252124 
L 166.320705 364.192433 
L 166.474818 363.722552 
L 166.62893 364.636381 
L 166.783043 364.587843 
L 166.937155 365.551828 
L 167.091267 363.756196 
L 167.24538 364.010949 
L 167.399492 364.827731 
L 167.553605 364.793155 
L 167.707717 363.39643 
L 167.86183 363.801699 
L 168.015942 362.776737 
L 168.170055 362.676687 
L 168.324167 361.443199 
L 168.47828 361.416188 
L 168.632392 361.799719 
L 168.940617 358.965874 
L 169.094729 362.331377 
L 169.402954 363.465891 
L 169.557067 363.908936 
L 169.711179 362.47563 
L 170.019404 364.370319 
L 170.481742 366.925224 
L 170.635854 365.590919 
L 170.944079 366.639023 
L 171.098191 365.83642 
L 171.252304 364.404034 
L 171.406416 365.532362 
L 171.560529 365.534997 
L 171.714641 364.980951 
L 171.868754 363.925783 
L 172.022866 364.079577 
L 172.331091 361.002835 
L 172.639316 361.881067 
L 172.793428 363.102023 
L 172.947541 362.654702 
L 173.255766 363.138872 
L 173.563991 360.51597 
L 173.872216 360.300695 
L 174.026328 360.554029 
L 174.180441 359.583498 
L 174.334553 359.875911 
L 174.642778 356.509624 
L 174.79689 357.709327 
L 174.951003 357.878149 
L 175.259228 359.695758 
L 175.41334 358.203289 
L 175.567453 358.967709 
L 175.721565 360.506024 
L 175.875678 360.657947 
L 176.02979 360.022292 
L 176.183903 358.546045 
L 176.338015 359.535767 
L 176.492127 359.002016 
L 176.800352 360.778186 
L 176.954465 357.79346 
L 177.108577 358.065045 
L 177.26269 359.51625 
L 177.570915 357.529515 
L 177.87914 358.333041 
L 178.033252 358.548448 
L 178.187364 356.290838 
L 178.495589 357.241021 
L 178.803814 356.648141 
L 178.957927 356.590569 
L 179.112039 359.185316 
L 179.266152 359.254782 
L 179.728489 358.524216 
L 180.036714 355.82518 
L 180.344939 357.805953 
L 180.499051 355.43272 
L 180.807276 355.241437 
L 180.961389 354.48237 
L 181.115501 354.869774 
L 181.269614 355.682634 
L 181.577839 355.923645 
L 182.040176 351.030549 
L 182.194288 351.915873 
L 182.348401 351.738057 
L 182.502513 351.849678 
L 183.427188 346.735083 
L 183.581301 347.829755 
L 183.735413 350.503376 
L 183.889525 349.414052 
L 184.043638 349.865893 
L 184.19775 349.001701 
L 184.505975 351.0447 
L 184.660088 350.696763 
L 184.8142 351.62072 
L 184.968313 351.288811 
L 185.122425 352.538835 
L 185.276538 352.089988 
L 185.738875 357.009391 
L 185.892987 355.239916 
L 186.0471 355.464734 
L 186.355325 351.905619 
L 186.509437 352.222849 
L 186.817662 350.973094 
L 186.971775 351.14934 
L 187.125887 350.21324 
L 187.434112 352.441519 
L 187.588224 352.188595 
L 187.742337 352.591771 
L 188.050562 349.254597 
L 188.204674 350.3036 
L 188.358787 348.602332 
L 188.667012 347.750641 
L 188.821124 347.223161 
L 188.975237 347.710248 
L 189.129349 346.653011 
L 189.283461 348.931597 
L 189.437574 348.975816 
L 189.591686 348.78622 
L 189.745799 350.262382 
L 189.899911 348.672034 
L 190.054024 348.685567 
L 190.362249 346.773882 
L 190.516361 346.228476 
L 190.824586 344.210796 
L 190.978698 345.147934 
L 191.132811 344.097713 
L 191.749261 335.618396 
L 192.211598 341.152048 
L 192.365711 340.880197 
L 192.828048 345.812337 
L 192.98216 343.933407 
L 193.444498 334.686359 
L 193.752723 335.568866 
L 193.906835 335.750176 
L 194.060948 335.543726 
L 194.21506 332.721999 
L 194.369173 332.771483 
L 194.83151 337.380365 
L 194.985622 336.396676 
L 195.139735 336.205955 
L 195.756185 340.132524 
L 195.910297 341.065687 
L 196.06441 340.790135 
L 196.526747 345.218698 
L 196.834972 340.944135 
L 196.989084 341.831652 
L 197.297309 338.224492 
L 197.451422 339.623784 
L 197.605534 337.617762 
L 197.759647 340.985752 
L 198.221984 342.97171 
L 198.376096 340.277151 
L 198.530209 340.297648 
L 198.684321 340.088651 
L 198.838434 340.218715 
L 198.992546 341.911019 
L 199.300771 338.603002 
L 199.454884 339.064903 
L 199.608996 337.454 
L 199.763109 338.090476 
L 200.071334 339.690734 
L 200.225446 340.683463 
L 200.379558 340.159336 
L 200.687783 338.468589 
L 200.841896 339.567028 
L 200.996008 339.377551 
L 201.304233 339.892996 
L 201.612458 337.031747 
L 201.766571 337.449599 
L 201.920683 338.38944 
L 202.074795 337.232565 
L 202.228908 336.974967 
L 202.691245 335.241462 
L 202.845358 335.277954 
L 202.99947 333.554616 
L 203.153583 334.332273 
L 203.461808 332.047181 
L 203.61592 334.555183 
L 203.770033 334.852414 
L 204.078257 334.542044 
L 204.23237 334.820548 
L 204.386482 334.596586 
L 204.540595 334.605523 
L 204.84882 330.459067 
L 205.002932 331.051927 
L 205.311157 333.982382 
L 205.46527 334.212032 
L 205.927607 336.662656 
L 206.081719 335.425046 
L 206.235832 335.406114 
L 206.389944 334.491327 
L 206.852282 339.058081 
L 207.006394 338.50651 
L 207.314619 340.198706 
L 207.468732 340.21512 
L 207.622844 338.870839 
L 207.776956 339.587477 
L 207.931069 339.020354 
L 208.085181 337.834514 
L 208.239294 338.627424 
L 208.547519 341.165667 
L 208.701631 341.639975 
L 208.855744 341.74349 
L 209.009856 337.861793 
L 209.163969 337.010369 
L 209.318081 338.822492 
L 209.472193 336.914674 
L 209.626306 338.155727 
L 209.934531 335.704574 
L 210.088643 336.573702 
L 210.242756 335.196821 
L 210.396868 335.94253 
L 210.550981 335.903096 
L 210.859206 331.24427 
L 211.013318 333.466959 
L 211.167431 333.521438 
L 211.321543 334.816789 
L 211.475655 337.2814 
L 211.629768 336.837939 
L 211.78388 339.823944 
L 211.937993 339.220904 
L 212.092105 337.364889 
L 212.246218 338.592209 
L 212.40033 337.819096 
L 212.554443 338.559253 
L 212.708555 338.058057 
L 213.01678 337.955978 
L 213.325005 336.051034 
L 213.479117 337.31201 
L 213.63323 337.377571 
L 213.787342 339.203221 
L 213.941455 338.823987 
L 214.095567 340.400258 
L 214.24968 338.606897 
L 214.557905 340.818227 
L 214.712017 341.19135 
L 214.86613 340.446958 
L 215.020242 340.616471 
L 215.174354 341.439342 
L 215.328467 341.147317 
L 215.482579 339.4748 
L 215.636692 341.42597 
L 215.790804 341.881929 
L 215.944917 343.03879 
L 216.099029 342.906879 
L 216.253142 341.773876 
L 216.407254 342.818804 
L 216.561367 341.242465 
L 216.715479 341.709348 
L 216.869591 342.908916 
L 217.023704 342.346024 
L 217.177816 344.635354 
L 217.486041 342.751281 
L 217.640154 342.542174 
L 217.794266 339.305864 
L 217.948379 340.362225 
L 218.102491 339.729694 
L 218.256604 340.345096 
L 218.410716 339.745146 
L 218.564829 341.635483 
L 218.718941 340.438589 
L 218.873053 342.737585 
L 219.027166 343.082044 
L 219.181278 341.95719 
L 219.489503 344.289047 
L 219.643616 343.548372 
L 219.797728 341.791981 
L 219.951841 341.317138 
L 220.105953 340.080018 
L 220.414178 343.092061 
L 220.876515 340.599965 
L 221.18474 345.923018 
L 221.338853 345.667502 
L 221.492965 345.643813 
L 221.647078 346.182258 
L 221.955303 348.147627 
L 222.109415 346.657045 
L 222.263527 347.762752 
L 222.41764 346.953535 
L 222.571752 348.361377 
L 222.725865 346.188316 
L 223.03409 350.536972 
L 223.342315 352.932739 
L 223.65054 351.127456 
L 223.804652 351.618954 
L 223.958765 351.637161 
L 224.112877 350.895213 
L 224.266989 352.911205 
L 224.575214 354.109686 
L 224.729327 355.18486 
L 224.883439 354.629287 
L 225.037552 355.635807 
L 225.191664 353.303579 
L 225.345777 354.265965 
L 225.499889 353.933309 
L 225.654002 354.902106 
L 225.962226 352.275716 
L 226.116339 351.333963 
L 226.270451 351.817794 
L 226.424564 350.887528 
L 226.732789 350.755982 
L 226.886901 351.957455 
L 227.041014 350.145706 
L 227.195126 349.670232 
L 227.349239 348.200442 
L 227.503351 349.713431 
L 227.657464 348.854745 
L 227.811576 348.663988 
L 227.965688 349.287449 
L 228.119801 349.284133 
L 228.582138 342.70694 
L 228.736251 343.400144 
L 228.890363 342.885545 
L 229.044476 341.873694 
L 229.198588 339.035348 
L 229.352701 339.797652 
L 229.506813 341.486537 
L 229.660925 341.240569 
L 229.96915 339.42505 
L 230.277375 340.617208 
L 230.431488 340.36113 
L 230.739713 341.045561 
L 231.047938 337.140823 
L 231.20205 336.753861 
L 231.356163 338.025053 
L 231.8185 338.735883 
L 231.972612 338.998061 
L 232.280837 343.131141 
L 232.43495 343.022379 
L 232.589062 342.669719 
L 232.743175 343.083984 
L 232.897287 346.018878 
L 233.0514 346.626717 
L 233.205512 346.166193 
L 233.359624 347.190258 
L 233.513737 345.579864 
L 233.821962 346.494828 
L 233.976074 345.150575 
L 234.130187 345.318357 
L 234.438412 347.104728 
L 234.592524 346.149529 
L 234.746637 348.103285 
L 234.900749 348.166588 
L 235.054862 349.368578 
L 235.208974 348.335922 
L 235.363086 348.501355 
L 235.517199 348.340455 
L 235.671311 350.974861 
L 235.825424 350.37178 
L 235.979536 352.128619 
L 236.133649 350.545781 
L 236.287761 352.283266 
L 236.441874 351.43575 
L 236.595986 354.340787 
L 236.750099 354.619764 
L 236.904211 354.587117 
L 237.058323 354.423397 
L 237.366548 356.757195 
L 237.520661 356.586896 
L 237.828886 355.382898 
L 238.137111 356.59647 
L 238.291223 355.978452 
L 238.445336 356.030729 
L 238.599448 354.801267 
L 238.753561 354.607826 
L 238.907673 352.477517 
L 239.061785 352.218207 
L 239.37001 352.991004 
L 239.524123 350.835991 
L 239.832348 345.346353 
L 239.98646 346.147628 
L 240.60291 352.053379 
L 240.757022 352.170314 
L 241.065247 348.250783 
L 241.21936 348.61834 
L 241.527585 347.385204 
L 241.681697 348.581888 
L 241.83581 346.731292 
L 241.989922 346.969396 
L 242.144035 346.968105 
L 242.298147 346.272234 
L 242.45226 346.753244 
L 242.760484 344.27696 
L 242.914597 345.101393 
L 243.068709 344.540138 
L 243.222822 344.957576 
L 243.376934 344.435634 
L 243.531047 343.400485 
L 243.685159 341.112884 
L 243.839272 342.520279 
L 243.993384 342.583947 
L 244.147497 343.103158 
L 244.301609 344.258495 
L 244.455721 341.745453 
L 244.609834 341.517879 
L 244.763946 341.557524 
L 244.918059 341.293895 
L 245.226284 341.229875 
L 245.380396 340.216053 
L 245.534509 340.89427 
L 245.842734 345.158456 
L 245.996846 343.425216 
L 246.150959 343.24161 
L 246.305071 341.597305 
L 246.459183 341.93405 
L 246.613296 344.584255 
L 246.921521 341.967775 
L 247.075633 342.448087 
L 247.229746 340.589777 
L 247.383858 341.39303 
L 247.692083 338.866424 
L 247.846196 339.389356 
L 248.000308 338.213181 
L 248.308533 338.859852 
L 248.462645 337.768487 
L 248.616758 338.188322 
L 248.77087 335.771884 
L 248.924983 335.38048 
L 249.079095 335.812586 
L 249.38732 331.833471 
L 249.541433 332.007406 
L 249.849657 326.623244 
L 250.00377 326.659959 
L 250.157882 326.591261 
L 250.311995 327.69054 
L 250.62022 322.57635 
L 250.774332 325.325132 
L 250.928445 326.02093 
L 251.23667 328.404646 
L 251.390782 327.240486 
L 251.544895 324.884404 
L 251.699007 324.381895 
L 251.853119 324.726217 
L 252.161344 322.44602 
L 252.315457 321.383949 
L 252.469569 322.514642 
L 252.623682 320.76975 
L 252.777794 323.558644 
L 252.931907 322.93979 
L 253.086019 324.738564 
L 253.394244 321.915647 
L 253.548356 320.543451 
L 253.702469 317.700138 
L 253.856581 317.481646 
L 254.010694 320.548723 
L 254.164806 320.485217 
L 254.318919 321.443833 
L 254.627144 319.298127 
L 254.781256 321.570781 
L 254.935369 320.384506 
L 255.089481 321.333468 
L 255.243594 319.192227 
L 255.397706 319.703317 
L 255.551818 319.334125 
L 255.705931 318.374239 
L 256.014156 314.353318 
L 256.168268 314.05695 
L 256.322381 311.210744 
L 256.476493 314.778379 
L 256.630606 315.35121 
L 256.938831 313.235717 
L 257.092943 314.632007 
L 257.247055 314.902719 
L 257.401168 314.619891 
L 257.55528 314.832395 
L 257.863505 317.370665 
L 258.017618 314.136363 
L 258.17173 313.437757 
L 258.325843 311.181656 
L 258.479955 311.012697 
L 258.78818 313.655753 
L 258.942293 312.449541 
L 259.096405 313.151964 
L 259.40463 316.614886 
L 259.558742 315.244191 
L 260.02108 318.678008 
L 260.175192 319.993616 
L 260.329305 315.236266 
L 260.483417 315.672153 
L 260.791642 312.936966 
L 260.945754 313.359436 
L 261.099867 311.631331 
L 261.253979 312.261653 
L 261.716317 307.914505 
L 261.870429 308.559826 
L 262.024542 307.804834 
L 262.486879 301.761402 
L 262.795104 299.181837 
L 262.949216 302.5375 
L 263.103329 301.526556 
L 263.257441 299.581313 
L 263.411554 299.803403 
L 263.565666 298.935036 
L 264.028004 302.589148 
L 264.182116 303.010764 
L 264.336229 306.626496 
L 264.490341 305.735845 
L 264.798566 301.483591 
L 264.952678 303.262132 
L 265.106791 302.513801 
L 265.260903 303.106614 
L 265.415016 303.156544 
L 265.569128 304.263721 
L 265.877353 298.576262 
L 266.185578 298.996332 
L 266.339691 297.071159 
L 266.802028 300.050864 
L 266.95614 299.185012 
L 267.110253 301.835267 
L 267.418478 298.50102 
L 267.57259 298.810196 
L 267.726703 301.547147 
L 267.880815 300.44224 
L 268.034928 302.176636 
L 268.18904 301.607361 
L 268.651377 296.906811 
L 268.80549 297.753028 
L 268.959602 299.938386 
L 269.113715 297.629986 
L 269.42194 296.873079 
L 269.576052 301.229301 
L 269.730165 299.219064 
L 269.884277 301.988665 
L 270.03839 300.235879 
L 270.192502 300.870335 
L 270.346614 297.776723 
L 270.654839 302.063948 
L 270.808952 302.769282 
L 271.117177 295.642678 
L 271.271289 295.584112 
L 271.425402 296.786451 
L 271.579514 295.40989 
L 271.887739 291.680222 
L 272.195964 287.542221 
L 272.350076 289.918653 
L 272.504189 290.099711 
L 272.658301 291.379957 
L 272.966526 291.645514 
L 273.120639 291.407424 
L 273.274751 291.638173 
L 273.428864 286.568193 
L 273.737089 287.269038 
L 274.045313 285.700102 
L 274.199426 288.124532 
L 274.353538 286.327323 
L 274.507651 285.834135 
L 274.661763 284.42989 
L 274.815876 284.771749 
L 274.969988 286.235316 
L 275.124101 289.568735 
L 275.278213 286.86171 
L 275.432326 287.023539 
L 275.586438 286.119926 
L 275.894663 278.895721 
L 276.048775 279.598069 
L 276.357 283.352942 
L 276.511113 284.604954 
L 277.127563 278.547839 
L 277.281675 281.354929 
L 277.5899 276.211854 
L 277.744012 273.426778 
L 277.898125 273.417635 
L 278.20635 270.828568 
L 278.360462 270.680197 
L 278.514575 271.242912 
L 278.668687 272.515536 
L 278.8228 276.304488 
L 278.976912 275.371236 
L 279.439249 270.448358 
L 279.593362 271.004089 
L 279.901587 268.658751 
L 280.055699 265.620989 
L 280.518037 269.818317 
L 280.672149 269.739553 
L 280.826262 269.495313 
L 280.980374 266.321779 
L 281.134486 268.81106 
L 281.288599 269.482947 
L 281.596824 263.286081 
L 281.750936 262.464733 
L 282.059161 257.000634 
L 282.367386 261.785475 
L 282.521499 261.953858 
L 282.829724 258.812252 
L 282.983836 262.495491 
L 283.292061 261.611097 
L 283.600286 256.919184 
L 283.754398 259.931498 
L 284.062623 255.647733 
L 284.216736 256.593241 
L 284.524961 248.117141 
L 284.679073 249.998323 
L 284.833185 249.2005 
L 284.987298 245.822874 
L 285.14141 246.388158 
L 285.603748 243.029112 
L 285.75786 246.30852 
L 285.911973 245.44095 
L 286.220198 253.669545 
L 286.37431 251.951561 
L 286.528423 255.152831 
L 286.836647 249.8929 
L 286.99076 251.247804 
L 287.144872 250.439013 
L 287.298985 247.84887 
L 287.453097 249.004589 
L 287.60721 247.176141 
L 287.761322 249.20051 
L 287.915435 249.11293 
L 288.069547 247.426291 
L 288.22366 247.837168 
L 288.377772 245.739002 
L 288.685997 239.503931 
L 288.994222 235.771289 
L 289.148334 236.073543 
L 289.456559 244.266027 
L 289.610672 243.192081 
L 289.764784 245.892508 
L 289.918897 242.097902 
L 290.073009 242.040598 
L 290.227122 240.199168 
L 290.381234 240.069074 
L 290.535346 239.302339 
L 290.689459 239.469664 
L 290.997684 236.828128 
L 291.151796 236.427315 
L 291.305909 236.568107 
L 291.460021 239.270879 
L 291.614134 237.78013 
L 291.922359 230.551108 
L 292.230583 229.929558 
L 292.384696 230.203151 
L 292.538808 227.832654 
L 292.692921 229.733994 
L 292.847033 230.034463 
L 293.001146 231.459132 
L 293.309371 226.289506 
L 293.617596 230.559125 
L 293.771708 230.201637 
L 293.925821 234.807995 
L 294.079933 234.900472 
L 294.234045 233.312041 
L 294.54227 226.566154 
L 294.850495 222.352667 
L 295.004608 222.823711 
L 295.312833 226.82697 
L 295.466945 223.887998 
L 295.621058 223.892669 
L 295.77517 223.09013 
L 296.083395 219.100883 
L 296.237507 218.696112 
L 296.39162 216.565761 
L 296.545732 217.185989 
L 296.853957 214.721132 
L 297.00807 215.921222 
L 297.316295 211.579249 
L 297.470407 212.199897 
L 297.932744 203.051744 
L 298.086857 202.061392 
L 298.240969 204.547761 
L 298.395082 200.560635 
L 298.703307 201.616998 
L 299.011532 198.898144 
L 299.165644 200.926257 
L 299.319757 199.52402 
L 299.473869 194.040362 
L 299.627981 196.245518 
L 299.782094 201.679697 
L 299.936206 197.588941 
L 300.090319 196.698139 
L 300.244431 195.119706 
L 300.398544 196.066655 
L 300.552656 190.914147 
L 300.706769 192.444274 
L 300.860881 191.136684 
L 301.014994 191.377924 
L 301.169106 189.718247 
L 301.323219 182.508854 
L 301.477331 188.526865 
L 301.631443 188.406425 
L 301.785556 194.221077 
L 301.939668 190.712396 
L 302.093781 193.428758 
L 302.402006 187.397654 
L 302.556118 190.803939 
L 302.710231 189.973065 
L 302.864343 187.764278 
L 303.018456 188.177027 
L 303.172568 187.333269 
L 303.32668 182.065215 
L 303.480793 185.715979 
L 303.634905 182.599482 
L 303.789018 183.478828 
L 303.94313 179.959349 
L 304.097243 180.051603 
L 304.713693 167.695362 
L 304.867805 170.499773 
L 305.17603 165.391876 
L 305.330142 171.9287 
L 305.638367 167.557298 
L 305.79248 165.76043 
L 305.946592 161.252963 
L 306.100705 163.509095 
L 306.254817 162.622726 
L 306.40893 160.883491 
L 306.563042 164.663455 
L 306.717155 162.927287 
L 306.871267 170.136565 
L 307.025379 170.463488 
L 307.179492 169.974084 
L 307.487717 174.407664 
L 307.641829 172.260835 
L 307.950054 176.015822 
L 308.258279 180.643631 
L 308.412392 182.481143 
L 308.566504 182.805113 
L 308.720616 181.618935 
L 308.874729 179.192285 
L 309.028841 179.90813 
L 309.337066 182.868849 
L 309.491179 183.138302 
L 309.645291 185.030364 
L 309.799404 191.14193 
L 309.953516 192.584851 
L 310.415854 181.605309 
L 310.724078 181.921836 
L 310.878191 180.200884 
L 311.032303 182.415881 
L 311.186416 182.714106 
L 311.340528 178.995568 
L 311.648753 183.251818 
L 311.802866 182.53638 
L 311.956978 181.017369 
L 312.111091 182.070862 
L 312.265203 177.318406 
L 312.419315 177.668087 
L 313.035765 184.001096 
L 313.189878 180.829342 
L 313.34399 174.038308 
L 313.498103 177.131101 
L 313.652215 174.984791 
L 313.806328 178.176878 
L 313.96044 176.384285 
L 314.114553 181.665433 
L 314.268665 179.369314 
L 314.57689 184.058491 
L 314.731002 182.203122 
L 314.885115 183.08786 
L 315.19334 179.99559 
L 315.347452 177.577365 
L 315.655677 185.848681 
L 315.963902 176.332659 
L 316.272127 179.569317 
L 316.734464 167.26221 
L 316.888577 166.035934 
L 317.042689 168.674288 
L 317.196802 168.116381 
L 317.350914 166.908382 
L 317.505027 168.227707 
L 317.659139 162.824258 
L 317.967364 161.091256 
L 318.121476 161.631281 
L 318.429701 168.153924 
L 318.583814 168.268275 
L 318.737926 170.302311 
L 319.046151 177.151388 
L 319.200264 177.737871 
L 319.354376 182.661428 
L 319.662601 172.337304 
L 319.816713 177.227218 
L 320.124938 177.575333 
L 320.279051 178.242328 
L 320.587276 182.587112 
L 320.741388 179.675927 
L 320.895501 179.191051 
L 321.049613 176.013461 
L 321.203726 175.654421 
L 321.511951 171.919713 
L 321.820175 179.166466 
L 321.974288 177.171564 
L 322.1284 177.021905 
L 322.436625 179.913538 
L 322.74485 176.137173 
L 322.898963 179.305837 
L 323.053075 179.863185 
L 323.207188 174.132796 
L 323.515412 182.419997 
L 323.823637 190.425068 
L 323.97775 188.431443 
L 324.131862 182.416112 
L 324.285975 182.146079 
L 325.056537 197.237927 
L 325.21065 195.82864 
L 325.364762 197.144522 
L 325.518874 201.774384 
L 325.672987 197.943406 
L 325.827099 203.195508 
L 325.981212 201.038377 
L 326.135324 196.378637 
L 326.289437 196.861432 
L 326.443549 196.90449 
L 326.597662 195.922221 
L 326.751774 196.874756 
L 327.059999 191.830198 
L 327.214111 193.197427 
L 327.368224 199.174294 
L 327.522336 195.639438 
L 327.676449 196.051142 
L 327.830561 200.041764 
L 327.984674 200.269001 
L 328.138786 200.157065 
L 328.292899 204.577679 
L 328.447011 204.407423 
L 328.601124 205.727893 
L 328.909349 216.350214 
L 329.063461 217.223157 
L 329.217573 220.760925 
L 329.371686 218.382447 
L 329.525798 220.175284 
L 329.988136 216.474778 
L 330.142248 212.389337 
L 330.450473 214.85571 
L 330.604586 211.579015 
L 330.758698 212.579137 
L 330.91281 212.684143 
L 331.066923 211.997936 
L 331.221035 214.797413 
L 331.683373 206.842824 
L 331.837485 205.470051 
L 331.991598 201.726126 
L 332.14571 201.896489 
L 332.299823 198.844834 
L 332.608048 204.925461 
L 332.76216 203.652844 
L 333.070385 193.545911 
L 333.224497 193.903742 
L 333.532722 189.407058 
L 333.686835 193.151475 
L 333.99506 187.79405 
L 334.149172 187.88203 
L 334.457397 182.933912 
L 334.611509 185.715786 
L 334.765622 182.847154 
L 334.919734 184.840225 
L 335.073847 178.977401 
L 335.227959 177.644973 
L 335.382072 178.004117 
L 335.998522 172.450224 
L 336.152634 178.552915 
L 336.306746 179.710949 
L 336.460859 179.93518 
L 336.923196 169.4912 
L 337.077309 169.924742 
L 337.231421 167.015103 
L 337.385534 166.773434 
L 337.539646 168.387032 
L 337.693759 164.110677 
L 338.156096 168.345979 
L 338.464321 171.644381 
L 338.618433 168.673865 
L 338.926658 160.561076 
L 339.080771 162.926426 
L 339.234883 162.507014 
L 339.388996 165.956421 
L 339.543108 165.056752 
L 339.697221 165.910609 
L 339.851333 170.980985 
L 340.005445 168.154186 
L 340.159558 174.900338 
L 340.31367 170.652491 
L 340.467783 169.649231 
L 340.776008 162.551387 
L 340.93012 161.239269 
L 341.238345 152.721943 
L 341.700683 140.845844 
L 341.854795 141.507503 
L 342.008907 142.806134 
L 342.16302 142.439644 
L 342.317132 146.296962 
L 342.77947 141.001001 
L 342.933582 144.874223 
L 343.087695 144.939583 
L 343.241807 140.157125 
L 343.550032 147.113149 
L 343.704144 144.567686 
L 343.858257 144.82752 
L 344.012369 143.455583 
L 344.166482 145.23071 
L 344.320594 149.530743 
L 344.628819 143.493559 
L 344.782932 143.129093 
L 344.937044 143.295639 
L 345.091157 145.183317 
L 345.399382 153.482902 
L 345.553494 149.759916 
L 345.861719 153.755299 
L 346.015831 153.630325 
L 346.169944 157.794756 
L 346.324056 156.83522 
L 346.478169 153.683798 
L 346.632281 156.097729 
L 347.248731 138.775127 
L 347.402843 137.16829 
L 347.556956 146.640738 
L 347.711068 148.631034 
L 347.865181 146.125132 
L 348.019293 139.693308 
L 348.173406 140.037891 
L 348.327518 134.175894 
L 348.481631 136.163075 
L 348.635743 136.14754 
L 348.789856 138.469159 
L 348.943968 134.921959 
L 349.098081 134.503385 
L 349.252193 136.239751 
L 349.406305 141.779858 
L 349.560418 141.898483 
L 349.868643 135.557883 
L 350.022755 133.655404 
L 350.176868 134.689214 
L 350.33098 137.194923 
L 350.485093 131.315818 
L 350.94743 139.534855 
L 351.101542 136.63676 
L 351.255655 139.961874 
L 351.56388 136.510957 
L 351.717992 136.345339 
L 351.872105 137.286694 
L 352.026217 132.564729 
L 352.334442 140.621983 
L 352.488555 139.365982 
L 352.642667 143.247719 
L 352.79678 151.075228 
L 352.950892 151.809519 
L 353.105004 155.1515 
L 353.259117 154.950346 
L 353.721454 145.610366 
L 354.183792 153.029086 
L 354.492017 145.225176 
L 354.646129 150.561495 
L 354.954354 147.389188 
L 355.108466 154.990657 
L 355.262579 154.498252 
L 355.416691 154.612207 
L 355.570804 153.363239 
L 355.724916 148.553066 
L 355.879029 151.010391 
L 356.033141 147.825605 
L 356.187254 147.589438 
L 356.495479 138.601204 
L 356.649591 139.527898 
L 356.803703 138.822424 
L 357.111928 135.76239 
L 357.266041 142.874376 
L 357.420153 135.38567 
L 357.574266 136.017234 
L 357.728378 140.753696 
L 357.882491 139.325431 
L 358.49894 125.746426 
L 358.807165 138.400265 
L 358.961278 136.351184 
L 359.11539 140.070644 
L 359.269503 139.758899 
L 359.423615 134.757894 
L 359.577728 135.595197 
L 359.73184 134.420748 
L 360.040065 123.681834 
L 360.194178 121.14217 
L 360.34829 122.2037 
L 360.656515 132.846299 
L 360.810627 134.760236 
L 360.96474 139.283402 
L 361.118852 136.907511 
L 361.272965 137.640905 
L 361.427077 140.277341 
L 361.735302 149.446913 
L 361.889415 153.583851 
L 362.043527 151.442317 
L 362.197639 153.451401 
L 362.351752 151.71119 
L 362.505864 155.596714 
L 362.659977 154.508088 
L 362.814089 150.641439 
L 362.968202 151.444045 
L 363.122314 151.508206 
L 363.276427 148.824855 
L 363.430539 151.012179 
L 363.584652 141.576263 
L 363.892876 138.649119 
L 364.046989 137.877173 
L 364.201101 136.154502 
L 364.355214 129.844276 
L 364.509326 131.624264 
L 364.663439 135.011819 
L 364.817551 134.910999 
L 364.971664 138.135002 
L 365.279889 133.151616 
L 365.588114 133.484246 
L 365.742226 134.27422 
L 366.204563 145.857246 
L 366.358676 143.713361 
L 366.512788 146.570649 
L 366.821013 141.330345 
L 366.975126 143.045166 
L 367.283351 157.856435 
L 367.437463 158.838495 
L 367.745688 157.736139 
L 367.8998 160.068023 
L 368.053913 155.266901 
L 368.208025 154.855395 
L 368.362138 157.37233 
L 368.670363 158.632672 
L 368.824475 160.39922 
L 369.1327 149.296733 
L 369.595037 143.368375 
L 369.74915 143.896832 
L 369.903262 142.176355 
L 370.057375 143.889771 
L 370.211487 142.79286 
L 370.3656 135.677736 
L 370.519712 136.078458 
L 370.673825 138.85907 
L 370.827937 136.003869 
L 370.98205 143.182809 
L 371.136162 141.623576 
L 371.290274 144.112607 
L 371.444387 136.968975 
L 371.752612 140.396609 
L 371.906724 142.299294 
L 372.060837 137.18087 
L 372.523174 143.798746 
L 372.831399 133.630096 
L 372.985512 135.237803 
L 373.139624 139.258768 
L 373.293736 133.750278 
L 373.447849 135.094809 
L 373.601961 133.995271 
L 373.756074 137.584281 
L 373.910186 134.094677 
L 374.064299 133.66428 
L 374.218411 137.251554 
L 374.526636 133.237942 
L 374.680749 133.298555 
L 374.988973 130.955113 
L 375.143086 129.914674 
L 375.297198 130.228327 
L 375.605423 132.764567 
L 375.759536 132.025811 
L 376.684211 119.891123 
L 377.146548 126.544373 
L 377.30066 126.052241 
L 377.608885 123.644014 
L 377.762998 125.26249 
L 378.225335 143.375155 
L 378.379448 148.12848 
L 378.53356 140.901135 
L 378.841785 145.412869 
L 378.995897 140.172796 
L 379.15001 143.07163 
L 379.458235 135.714958 
L 379.76646 146.756475 
L 379.920572 150.607578 
L 380.074685 148.579477 
L 380.228797 148.152921 
L 380.537022 144.832963 
L 380.845247 140.523771 
L 381.153472 145.943394 
L 381.307584 142.146235 
L 381.461697 144.259719 
L 381.769922 137.832177 
L 381.924034 136.109643 
L 382.078147 136.990303 
L 382.232259 144.606052 
L 382.386371 144.113249 
L 382.540484 147.42612 
L 382.694596 142.77428 
L 382.848709 146.994213 
L 383.002821 145.688053 
L 383.156934 147.05655 
L 383.311046 147.163931 
L 383.465159 145.799581 
L 383.927496 136.747961 
L 384.081609 140.327914 
L 384.235721 136.769616 
L 384.389833 137.84827 
L 384.543946 141.146534 
L 384.698058 140.311949 
L 385.006283 136.21788 
L 385.160396 135.773891 
L 385.314508 128.258135 
L 385.622733 125.613392 
L 385.776846 130.200945 
L 386.08507 121.281723 
L 386.239183 121.914979 
L 386.547408 117.36202 
L 386.70152 120.793413 
L 387.009745 108.184262 
L 387.163858 109.193372 
L 387.31797 111.482238 
L 387.472083 117.269585 
L 387.626195 115.131956 
L 387.780308 117.14451 
L 388.242645 131.29479 
L 388.396757 130.621152 
L 388.55087 134.663357 
L 388.704982 131.593908 
L 388.859095 136.936805 
L 389.013207 137.491777 
L 389.16732 130.957951 
L 389.321432 130.42569 
L 389.475545 128.008136 
L 389.783769 118.903293 
L 389.937882 120.72034 
L 390.091994 120.237322 
L 390.246107 120.848145 
L 390.400219 125.261574 
L 390.554332 121.445838 
L 390.708444 126.084134 
L 390.862557 125.749196 
L 391.016669 118.942355 
L 391.170782 121.149239 
L 391.324894 117.448153 
L 391.479006 120.816092 
L 391.633119 116.713816 
L 391.787231 120.043113 
L 391.941344 119.945783 
L 392.095456 116.189784 
L 392.249569 117.157113 
L 392.403681 122.070612 
L 392.557794 122.513391 
L 392.866019 115.737543 
L 393.020131 116.750376 
L 393.174244 119.062404 
L 393.328356 115.453874 
L 393.482468 117.001082 
L 393.636581 116.357048 
L 393.790693 117.221303 
L 393.944806 115.751956 
L 394.098918 116.441828 
L 394.253031 118.345968 
L 394.407143 118.856258 
L 394.561256 118.27034 
L 394.869481 127.306832 
L 395.023593 127.593073 
L 395.177705 127.166974 
L 395.331818 124.570548 
L 395.48593 128.388681 
L 395.640043 126.521156 
L 395.794155 128.984506 
L 396.256493 119.55842 
L 396.410605 115.814322 
L 396.71883 125.30547 
L 397.027055 119.803501 
L 397.181167 119.530673 
L 397.33528 119.703222 
L 397.643505 115.195444 
L 397.797617 120.916376 
L 397.95173 118.270517 
L 398.105842 122.262011 
L 398.414067 124.560901 
L 398.56818 124.446742 
L 398.722292 124.891793 
L 398.876404 128.052052 
L 399.030517 126.762089 
L 399.184629 121.612638 
L 399.338742 122.941431 
L 399.646967 122.180799 
L 399.801079 123.089676 
L 399.955192 120.698306 
L 400.109304 123.205317 
L 400.263417 123.312917 
L 400.417529 121.458978 
L 400.571642 121.623781 
L 400.725754 131.359111 
L 400.879866 130.926351 
L 401.033979 134.236632 
L 401.188091 126.364795 
L 401.342204 128.211227 
L 401.496316 128.354115 
L 401.804541 132.777223 
L 402.266879 145.799531 
L 402.575103 148.121829 
L 403.191553 152.415927 
L 403.345666 157.237374 
L 403.499778 156.332169 
L 403.653891 156.21228 
L 403.962116 162.540015 
L 404.116228 162.221535 
L 404.270341 165.998196 
L 404.424453 164.52268 
L 404.578565 165.246433 
L 404.88679 168.884118 
L 405.349128 160.867037 
L 405.50324 165.884244 
L 405.657353 166.203382 
L 405.811465 163.73436 
L 405.965578 158.742459 
L 406.427915 168.516421 
L 406.582027 165.577514 
L 406.73614 167.422807 
L 406.890252 163.914219 
L 407.044365 170.819926 
L 407.35259 169.788304 
L 407.506702 171.028553 
L 407.814927 161.355595 
L 407.96904 162.263574 
L 408.123152 159.56866 
L 408.277264 160.403064 
L 408.585489 154.599111 
L 408.739602 158.019399 
L 409.047827 152.546345 
L 409.201939 155.400645 
L 409.356052 155.160613 
L 409.510164 156.794147 
L 409.664277 155.158116 
L 409.818389 159.137616 
L 409.972501 152.11386 
L 410.126614 151.521346 
L 410.280726 152.738752 
L 410.434839 152.894652 
L 410.588951 156.891124 
L 410.897176 146.889201 
L 411.051289 145.74646 
L 411.205401 146.671736 
L 411.359514 151.612428 
L 411.821851 141.600505 
L 411.975963 139.837605 
L 412.284188 132.505109 
L 412.438301 132.932033 
L 412.900638 139.452956 
L 413.054751 138.616109 
L 413.208863 139.400983 
L 413.362976 140.852327 
L 413.517088 135.908333 
L 413.6712 140.742327 
L 413.825313 138.210258 
L 413.979425 133.550225 
L 414.133538 135.830884 
L 414.28765 131.627506 
L 414.749988 140.404024 
L 414.9041 139.053353 
L 415.212325 129.708105 
L 415.366438 127.413986 
L 415.52055 130.116015 
L 415.674662 130.169366 
L 416.137 121.930244 
L 416.291112 120.112088 
L 416.445225 123.956505 
L 416.599337 113.235257 
L 416.75345 114.010466 
L 416.907562 115.562512 
L 417.061675 115.238779 
L 417.369899 106.1482 
L 417.524012 107.753773 
L 417.678124 104.791602 
L 417.832237 98.813326 
L 417.986349 104.46005 
L 418.140462 105.691683 
L 418.294574 109.564675 
L 418.448687 106.24571 
L 418.602799 105.706964 
L 418.756912 110.651054 
L 418.911024 108.894125 
L 419.065136 111.321289 
L 419.373361 103.665948 
L 419.527474 95.849011 
L 419.681586 96.236458 
L 420.143924 86.843353 
L 420.298036 88.985631 
L 420.452149 87.349657 
L 420.606261 87.360449 
L 420.760374 85.383506 
L 420.914486 87.847153 
L 421.222711 88.279511 
L 421.376823 87.174036 
L 421.530936 87.420822 
L 421.839161 74.829087 
L 421.993273 73.717377 
L 422.455611 65.07971 
L 422.609723 54.80592 
L 422.763835 52.599995 
L 422.917948 48.776238 
L 423.226173 55.333187 
L 423.380285 49.511565 
L 423.534398 48.672142 
L 423.68851 43.942151 
L 423.996735 47.594049 
L 424.150848 44.031028 
L 424.30496 47.464961 
L 424.459073 44.3686 
L 424.767297 49.403752 
L 425.075522 35.987569 
L 425.229635 38.937245 
L 425.53786 29.634528 
L 425.691972 34.197159 
L 425.846085 35.260807 
L 426.15431 42.901925 
L 426.308422 38.356916 
L 426.462534 45.75236 
L 426.616647 47.581651 
L 426.770759 46.977378 
L 426.924872 43.175076 
L 427.078984 43.623104 
L 427.233097 42.027677 
L 427.387209 42.384539 
L 427.541322 39.682391 
L 427.695434 40.405015 
L 427.849547 44.087141 
L 428.157772 39.544861 
L 428.311884 39.393421 
L 428.465996 45.686274 
L 428.620109 45.859372 
L 428.774221 51.156608 
L 428.928334 42.895393 
L 429.082446 43.195967 
L 429.390671 29.893413 
L 429.544784 29.023078 
L 429.698896 23.462905 
L 429.853009 27.488478 
L 430.007121 37.445082 
L 430.161233 38.677448 
L 430.315346 34.180258 
L 430.777683 46.816586 
L 430.931796 40.105125 
L 431.085908 40.577409 
L 431.394133 52.540096 
L 431.548246 54.107506 
L 431.702358 51.297533 
L 431.856471 45.612582 
L 432.010583 44.763162 
L 432.47292 30.624943 
L 432.627033 23.805163 
L 432.627033 23.805163 
" style="fill:none;stroke:#0000ff;stroke-linecap:square;"/>
   </g>
   <g id="patch_3">
    <path d="M 432.627033 421.42625 
L 432.627033 18.766875 
" style="fill:none;stroke:#000000;stroke-linecap:square;stroke-linejoin:miter;"/>
   </g>
   <g id="patch_4">
    <path d="M 47.5 421.42625 
L 47.5 18.766875 
" style="fill:none;stroke:#000000;stroke-linecap:square;stroke-linejoin:miter;"/>
   </g>
   <g id="patch_5">
    <path d="M 47.5 18.766875 
L 432.627033 18.766875 
" style="fill:none;stroke:#000000;stroke-linecap:square;stroke-linejoin:miter;"/>
   </g>
   <g id="patch_6">
    <path d="M 47.5 421.42625 
L 432.627033 421.42625 
" style="fill:none;stroke:#000000;stroke-linecap:square;stroke-linejoin:miter;"/>
   </g>
   <g id="matplotlib.axis_1">
    <g id="xtick_1">
     <g id="line2d_2">
      <defs>
       <path d="M 0 0 
L 0 -4 
" id="ma1ca6ee52f" style="stroke:#000000;stroke-width:0.5;"/>
      </defs>
      <g>
       <use style="stroke:#000000;stroke-width:0.5;" x="47.5" xlink:href="#ma1ca6ee52f" y="421.42625"/>
      </g>
     </g>
     <g id="line2d_3">
      <defs>
       <path d="M 0 0 
L 0 4 
" id="m9ba56bd523" style="stroke:#000000;stroke-width:0.5;"/>
      </defs>
      <g>
       <use style="stroke:#000000;stroke-width:0.5;" x="47.5" xlink:href="#m9ba56bd523" y="18.766875"/>
      </g>
     </g>
     <g id="text_1">
      <!-- 0 -->
      <defs>
       <path d="M 31.78125 66.40625 
Q 24.171875 66.40625 20.328125 58.90625 
Q 16.5 51.421875 16.5 36.375 
Q 16.5 21.390625 20.328125 13.890625 
Q 24.171875 6.390625 31.78125 6.390625 
Q 39.453125 6.390625 43.28125 13.890625 
Q 47.125 21.390625 47.125 36.375 
Q 47.125 51.421875 43.28125 58.90625 
Q 39.453125 66.40625 31.78125 66.40625 
M 31.78125 74.21875 
Q 44.046875 74.21875 50.515625 64.515625 
Q 56.984375 54.828125 56.984375 36.375 
Q 56.984375 17.96875 50.515625 8.265625 
Q 44.046875 -1.421875 31.78125 -1.421875 
Q 19.53125 -1.421875 13.0625 8.265625 
Q 6.59375 17.96875 6.59375 36.375 
Q 6.59375 54.828125 13.0625 64.515625 
Q 19.53125 74.21875 31.78125 74.21875 
" id="BitstreamVeraSans-Roman-30"/>
      </defs>
      <g transform="translate(43.6825 434.544375)scale(0.12 -0.12)">
       <use xlink:href="#BitstreamVeraSans-Roman-30"/>
      </g>
     </g>
    </g>
    <g id="xtick_2">
     <g id="line2d_4">
      <g>
       <use style="stroke:#000000;stroke-width:0.5;" x="124.556229054" xlink:href="#ma1ca6ee52f" y="421.42625"/>
      </g>
     </g>
     <g id="line2d_5">
      <g>
       <use style="stroke:#000000;stroke-width:0.5;" x="124.556229054" xlink:href="#m9ba56bd523" y="18.766875"/>
      </g>
     </g>
     <g id="text_2">
      <!-- 500 -->
      <defs>
       <path d="M 10.796875 72.90625 
L 49.515625 72.90625 
L 49.515625 64.59375 
L 19.828125 64.59375 
L 19.828125 46.734375 
Q 21.96875 47.46875 24.109375 47.828125 
Q 26.265625 48.1875 28.421875 48.1875 
Q 40.625 48.1875 47.75 41.5 
Q 54.890625 34.8125 54.890625 23.390625 
Q 54.890625 11.625 47.5625 5.09375 
Q 40.234375 -1.421875 26.90625 -1.421875 
Q 22.3125 -1.421875 17.546875 -0.640625 
Q 12.796875 0.140625 7.71875 1.703125 
L 7.71875 11.625 
Q 12.109375 9.234375 16.796875 8.0625 
Q 21.484375 6.890625 26.703125 6.890625 
Q 35.15625 6.890625 40.078125 11.328125 
Q 45.015625 15.765625 45.015625 23.390625 
Q 45.015625 31 40.078125 35.4375 
Q 35.15625 39.890625 26.703125 39.890625 
Q 22.75 39.890625 18.8125 39.015625 
Q 14.890625 38.140625 10.796875 36.28125 
z
" id="BitstreamVeraSans-Roman-35"/>
      </defs>
      <g transform="translate(113.103729054 434.544375)scale(0.12 -0.12)">
       <use xlink:href="#BitstreamVeraSans-Roman-35"/>
       <use x="63.623046875" xlink:href="#BitstreamVeraSans-Roman-30"/>
       <use x="127.24609375" xlink:href="#BitstreamVeraSans-Roman-30"/>
      </g>
     </g>
    </g>
    <g id="xtick_3">
     <g id="line2d_6">
      <g>
       <use style="stroke:#000000;stroke-width:0.5;" x="201.612458108" xlink:href="#ma1ca6ee52f" y="421.42625"/>
      </g>
     </g>
     <g id="line2d_7">
      <g>
       <use style="stroke:#000000;stroke-width:0.5;" x="201.612458108" xlink:href="#m9ba56bd523" y="18.766875"/>
      </g>
     </g>
     <g id="text_3">
      <!-- 1000 -->
      <defs>
       <path d="M 12.40625 8.296875 
L 28.515625 8.296875 
L 28.515625 63.921875 
L 10.984375 60.40625 
L 10.984375 69.390625 
L 28.421875 72.90625 
L 38.28125 72.90625 
L 38.28125 8.296875 
L 54.390625 8.296875 
L 54.390625 0 
L 12.40625 0 
z
" id="BitstreamVeraSans-Roman-31"/>
      </defs>
      <g transform="translate(186.342458108 434.544375)scale(0.12 -0.12)">
       <use xlink:href="#BitstreamVeraSans-Roman-31"/>
       <use x="63.623046875" xlink:href="#BitstreamVeraSans-Roman-30"/>
       <use x="127.24609375" xlink:href="#BitstreamVeraSans-Roman-30"/>
       <use x="190.869140625" xlink:href="#BitstreamVeraSans-Roman-30"/>
      </g>
     </g>
    </g>
    <g id="xtick_4">
     <g id="line2d_8">
      <g>
       <use style="stroke:#000000;stroke-width:0.5;" x="278.668687163" xlink:href="#ma1ca6ee52f" y="421.42625"/>
      </g>
     </g>
     <g id="line2d_9">
      <g>
       <use style="stroke:#000000;stroke-width:0.5;" x="278.668687163" xlink:href="#m9ba56bd523" y="18.766875"/>
      </g>
     </g>
     <g id="text_4">
      <!-- 1500 -->
      <g transform="translate(263.398687163 434.544375)scale(0.12 -0.12)">
       <use xlink:href="#BitstreamVeraSans-Roman-31"/>
       <use x="63.623046875" xlink:href="#BitstreamVeraSans-Roman-35"/>
       <use x="127.24609375" xlink:href="#BitstreamVeraSans-Roman-30"/>
       <use x="190.869140625" xlink:href="#BitstreamVeraSans-Roman-30"/>
      </g>
     </g>
    </g>
    <g id="xtick_5">
     <g id="line2d_10">
      <g>
       <use style="stroke:#000000;stroke-width:0.5;" x="355.724916217" xlink:href="#ma1ca6ee52f" y="421.42625"/>
      </g>
     </g>
     <g id="line2d_11">
      <g>
       <use style="stroke:#000000;stroke-width:0.5;" x="355.724916217" xlink:href="#m9ba56bd523" y="18.766875"/>
      </g>
     </g>
     <g id="text_5">
      <!-- 2000 -->
      <defs>
       <path d="M 19.1875 8.296875 
L 53.609375 8.296875 
L 53.609375 0 
L 7.328125 0 
L 7.328125 8.296875 
Q 12.9375 14.109375 22.625 23.890625 
Q 32.328125 33.6875 34.8125 36.53125 
Q 39.546875 41.84375 41.421875 45.53125 
Q 43.3125 49.21875 43.3125 52.78125 
Q 43.3125 58.59375 39.234375 62.25 
Q 35.15625 65.921875 28.609375 65.921875 
Q 23.96875 65.921875 18.8125 64.3125 
Q 13.671875 62.703125 7.8125 59.421875 
L 7.8125 69.390625 
Q 13.765625 71.78125 18.9375 73 
Q 24.125 74.21875 28.421875 74.21875 
Q 39.75 74.21875 46.484375 68.546875 
Q 53.21875 62.890625 53.21875 53.421875 
Q 53.21875 48.921875 51.53125 44.890625 
Q 49.859375 40.875 45.40625 35.40625 
Q 44.1875 33.984375 37.640625 27.21875 
Q 31.109375 20.453125 19.1875 8.296875 
" id="BitstreamVeraSans-Roman-32"/>
      </defs>
      <g transform="translate(340.454916217 434.544375)scale(0.12 -0.12)">
       <use xlink:href="#BitstreamVeraSans-Roman-32"/>
       <use x="63.623046875" xlink:href="#BitstreamVeraSans-Roman-30"/>
       <use x="127.24609375" xlink:href="#BitstreamVeraSans-Roman-30"/>
       <use x="190.869140625" xlink:href="#BitstreamVeraSans-Roman-30"/>
      </g>
     </g>
    </g>
    <g id="xtick_6">
     <g id="text_6">
      <!-- 2500 -->
      <g transform="translate(417.511145271 434.544375)scale(0.12 -0.12)">
       <use xlink:href="#BitstreamVeraSans-Roman-32"/>
       <use x="63.623046875" xlink:href="#BitstreamVeraSans-Roman-35"/>
       <use x="127.24609375" xlink:href="#BitstreamVeraSans-Roman-30"/>
       <use x="190.869140625" xlink:href="#BitstreamVeraSans-Roman-30"/>
      </g>
     </g>
    </g>
   </g>
   <g id="matplotlib.axis_2">
    <g id="ytick_1">
     <g id="line2d_12">
      <defs>
       <path d="M 0 0 
L 4 0 
" id="m6f77cdc6bd" style="stroke:#000000;stroke-width:0.5;"/>
      </defs>
      <g>
       <use style="stroke:#000000;stroke-width:0.5;" x="47.5" xlink:href="#m6f77cdc6bd" y="421.42625"/>
      </g>
     </g>
     <g id="line2d_13">
      <defs>
       <path d="M 0 0 
L -4 0 
" id="m3a9ab13bdd" style="stroke:#000000;stroke-width:0.5;"/>
      </defs>
      <g>
       <use style="stroke:#000000;stroke-width:0.5;" x="432.627032813" xlink:href="#m3a9ab13bdd" y="421.42625"/>
      </g>
     </g>
     <g id="text_7">
      <!-- 500 -->
      <g transform="translate(20.595 424.7375)scale(0.12 -0.12)">
       <use xlink:href="#BitstreamVeraSans-Roman-35"/>
       <use x="63.623046875" xlink:href="#BitstreamVeraSans-Roman-30"/>
       <use x="127.24609375" xlink:href="#BitstreamVeraSans-Roman-30"/>
      </g>
     </g>
    </g>
    <g id="ytick_2">
     <g id="line2d_14">
      <g>
       <use style="stroke:#000000;stroke-width:0.5;" x="47.5" xlink:href="#m6f77cdc6bd" y="363.903482143"/>
      </g>
     </g>
     <g id="line2d_15">
      <g>
       <use style="stroke:#000000;stroke-width:0.5;" x="432.627032813" xlink:href="#m3a9ab13bdd" y="363.903482143"/>
      </g>
     </g>
     <g id="text_8">
      <!-- 1000 -->
      <g transform="translate(12.96 367.214732143)scale(0.12 -0.12)">
       <use xlink:href="#BitstreamVeraSans-Roman-31"/>
       <use x="63.623046875" xlink:href="#BitstreamVeraSans-Roman-30"/>
       <use x="127.24609375" xlink:href="#BitstreamVeraSans-Roman-30"/>
       <use x="190.869140625" xlink:href="#BitstreamVeraSans-Roman-30"/>
      </g>
     </g>
    </g>
    <g id="ytick_3">
     <g id="line2d_16">
      <g>
       <use style="stroke:#000000;stroke-width:0.5;" x="47.5" xlink:href="#m6f77cdc6bd" y="306.380714286"/>
      </g>
     </g>
     <g id="line2d_17">
      <g>
       <use style="stroke:#000000;stroke-width:0.5;" x="432.627032813" xlink:href="#m3a9ab13bdd" y="306.380714286"/>
      </g>
     </g>
     <g id="text_9">
      <!-- 1500 -->
      <g transform="translate(12.96 309.691964286)scale(0.12 -0.12)">
       <use xlink:href="#BitstreamVeraSans-Roman-31"/>
       <use x="63.623046875" xlink:href="#BitstreamVeraSans-Roman-35"/>
       <use x="127.24609375" xlink:href="#BitstreamVeraSans-Roman-30"/>
       <use x="190.869140625" xlink:href="#BitstreamVeraSans-Roman-30"/>
      </g>
     </g>
    </g>
    <g id="ytick_4">
     <g id="line2d_18">
      <g>
       <use style="stroke:#000000;stroke-width:0.5;" x="47.5" xlink:href="#m6f77cdc6bd" y="248.857946429"/>
      </g>
     </g>
     <g id="line2d_19">
      <g>
       <use style="stroke:#000000;stroke-width:0.5;" x="432.627032813" xlink:href="#m3a9ab13bdd" y="248.857946429"/>
      </g>
     </g>
     <g id="text_10">
      <!-- 2000 -->
      <g transform="translate(12.96 252.169196429)scale(0.12 -0.12)">
       <use xlink:href="#BitstreamVeraSans-Roman-32"/>
       <use x="63.623046875" xlink:href="#BitstreamVeraSans-Roman-30"/>
       <use x="127.24609375" xlink:href="#BitstreamVeraSans-Roman-30"/>
       <use x="190.869140625" xlink:href="#BitstreamVeraSans-Roman-30"/>
      </g>
     </g>
    </g>
    <g id="ytick_5">
     <g id="line2d_20">
      <g>
       <use style="stroke:#000000;stroke-width:0.5;" x="47.5" xlink:href="#m6f77cdc6bd" y="191.335178571"/>
      </g>
     </g>
     <g id="line2d_21">
      <g>
       <use style="stroke:#000000;stroke-width:0.5;" x="432.627032813" xlink:href="#m3a9ab13bdd" y="191.335178571"/>
      </g>
     </g>
     <g id="text_11">
      <!-- 2500 -->
      <g transform="translate(12.96 194.646428571)scale(0.12 -0.12)">
       <use xlink:href="#BitstreamVeraSans-Roman-32"/>
       <use x="63.623046875" xlink:href="#BitstreamVeraSans-Roman-35"/>
       <use x="127.24609375" xlink:href="#BitstreamVeraSans-Roman-30"/>
       <use x="190.869140625" xlink:href="#BitstreamVeraSans-Roman-30"/>
      </g>
     </g>
    </g>
    <g id="ytick_6">
     <g id="line2d_22">
      <g>
       <use style="stroke:#000000;stroke-width:0.5;" x="47.5" xlink:href="#m6f77cdc6bd" y="133.812410714"/>
      </g>
     </g>
     <g id="line2d_23">
      <g>
       <use style="stroke:#000000;stroke-width:0.5;" x="432.627032813" xlink:href="#m3a9ab13bdd" y="133.812410714"/>
      </g>
     </g>
     <g id="text_12">
      <!-- 3000 -->
      <defs>
       <path d="M 40.578125 39.3125 
Q 47.65625 37.796875 51.625 33 
Q 55.609375 28.21875 55.609375 21.1875 
Q 55.609375 10.40625 48.1875 4.484375 
Q 40.765625 -1.421875 27.09375 -1.421875 
Q 22.515625 -1.421875 17.65625 -0.515625 
Q 12.796875 0.390625 7.625 2.203125 
L 7.625 11.71875 
Q 11.71875 9.328125 16.59375 8.109375 
Q 21.484375 6.890625 26.8125 6.890625 
Q 36.078125 6.890625 40.9375 10.546875 
Q 45.796875 14.203125 45.796875 21.1875 
Q 45.796875 27.640625 41.28125 31.265625 
Q 36.765625 34.90625 28.71875 34.90625 
L 20.21875 34.90625 
L 20.21875 43.015625 
L 29.109375 43.015625 
Q 36.375 43.015625 40.234375 45.921875 
Q 44.09375 48.828125 44.09375 54.296875 
Q 44.09375 59.90625 40.109375 62.90625 
Q 36.140625 65.921875 28.71875 65.921875 
Q 24.65625 65.921875 20.015625 65.03125 
Q 15.375 64.15625 9.8125 62.3125 
L 9.8125 71.09375 
Q 15.4375 72.65625 20.34375 73.4375 
Q 25.25 74.21875 29.59375 74.21875 
Q 40.828125 74.21875 47.359375 69.109375 
Q 53.90625 64.015625 53.90625 55.328125 
Q 53.90625 49.265625 50.4375 45.09375 
Q 46.96875 40.921875 40.578125 39.3125 
" id="BitstreamVeraSans-Roman-33"/>
      </defs>
      <g transform="translate(12.96 137.123660714)scale(0.12 -0.12)">
       <use xlink:href="#BitstreamVeraSans-Roman-33"/>
       <use x="63.623046875" xlink:href="#BitstreamVeraSans-Roman-30"/>
       <use x="127.24609375" xlink:href="#BitstreamVeraSans-Roman-30"/>
       <use x="190.869140625" xlink:href="#BitstreamVeraSans-Roman-30"/>
      </g>
     </g>
    </g>
    <g id="ytick_7">
     <g id="line2d_24">
      <g>
       <use style="stroke:#000000;stroke-width:0.5;" x="47.5" xlink:href="#m6f77cdc6bd" y="76.2896428571"/>
      </g>
     </g>
     <g id="line2d_25">
      <g>
       <use style="stroke:#000000;stroke-width:0.5;" x="432.627032813" xlink:href="#m3a9ab13bdd" y="76.2896428571"/>
      </g>
     </g>
     <g id="text_13">
      <!-- 3500 -->
      <g transform="translate(12.96 79.6008928571)scale(0.12 -0.12)">
       <use xlink:href="#BitstreamVeraSans-Roman-33"/>
       <use x="63.623046875" xlink:href="#BitstreamVeraSans-Roman-35"/>
       <use x="127.24609375" xlink:href="#BitstreamVeraSans-Roman-30"/>
       <use x="190.869140625" xlink:href="#BitstreamVeraSans-Roman-30"/>
      </g>
     </g>
    </g>
    <g id="ytick_8">
     <g id="line2d_26">
      <g>
       <use style="stroke:#000000;stroke-width:0.5;" x="47.5" xlink:href="#m6f77cdc6bd" y="18.766875"/>
      </g>
     </g>
     <g id="line2d_27">
      <g>
       <use style="stroke:#000000;stroke-width:0.5;" x="432.627032813" xlink:href="#m3a9ab13bdd" y="18.766875"/>
      </g>
     </g>
     <g id="text_14">
      <!-- 4000 -->
      <defs>
       <path d="M 37.796875 64.3125 
L 12.890625 25.390625 
L 37.796875 25.390625 
z
M 35.203125 72.90625 
L 47.609375 72.90625 
L 47.609375 25.390625 
L 58.015625 25.390625 
L 58.015625 17.1875 
L 47.609375 17.1875 
L 47.609375 0 
L 37.796875 0 
L 37.796875 17.1875 
L 4.890625 17.1875 
L 4.890625 26.703125 
z
" id="BitstreamVeraSans-Roman-34"/>
      </defs>
      <g transform="translate(12.96 22.078125)scale(0.12 -0.12)">
       <use xlink:href="#BitstreamVeraSans-Roman-34"/>
       <use x="63.623046875" xlink:href="#BitstreamVeraSans-Roman-30"/>
       <use x="127.24609375" xlink:href="#BitstreamVeraSans-Roman-30"/>
       <use x="190.869140625" xlink:href="#BitstreamVeraSans-Roman-30"/>
      </g>
     </g>
    </g>
   </g>
  </g>
 </g>
 <defs>
  <clipPath id="pac44e967e8">
   <rect height="402.659375" width="385.127032813" x="47.5" y="18.766875"/>
  </clipPath>
 </defs>
</svg>
