<?xml version="1.0" encoding="utf-8" standalone="no"?>
<!DOCTYPE svg PUBLIC "-//W3C//DTD SVG 1.1//EN"
  "http://www.w3.org/Graphics/SVG/1.1/DTD/svg11.dtd">
<!-- Created with matplotlib (http://matplotlib.org/) -->
<svg height="420pt" version="1.1" viewBox="0 0 461 420" width="461pt" xmlns="http://www.w3.org/2000/svg" xmlns:xlink="http://www.w3.org/1999/xlink">
 <defs>
  <style type="text/css">
*{stroke-linecap:butt;stroke-linejoin:round;stroke-miterlimit:100000;}
  </style>
 </defs>
 <g id="figure_1">
  <g id="patch_1">
   <path d="M 0 420 
L 461 420 
L 461 0 
L 0 0 
z
" style="fill:#ffffff;"/>
  </g>
  <g id="axes_1">
   <g id="patch_2">
    <path d="M 32.23 391.42625 
L 448.04 391.42625 
L 448.04 18.766875 
L 32.23 18.766875 
z
" style="fill:#ffffff;"/>
   </g>
   <g id="line2d_1">
    <path clip-path="url(#p1fdd5bd237)" d="M 32.23 344.098509 
L 33.829269 346.893455 
L 35.428538 346.148136 
L 37.027808 350.433719 
L 38.627077 348.011433 
L 41.825615 354.253477 
L 43.424885 351.458532 
L 45.024154 350.154224 
L 46.623423 349.315741 
L 48.222692 344.191674 
L 49.821962 343.632685 
L 51.421231 344.657498 
M 54.619769 345.775477 
L 56.219038 343.819015 
L 57.818308 340.744575 
L 61.016846 341.955718 
L 62.616115 347.638773 
L 64.215385 343.72585 
L 65.814654 348.290927 
L 67.413923 347.079784 
L 69.013192 350.992708 
L 70.612462 348.011433 
L 72.211731 346.241301 
L 73.811 341.862553 
L 75.410269 340.185586 
L 77.009538 336.458992 
L 78.608808 333.570882 
L 80.208077 334.129871 
L 81.807346 333.850377 
L 83.406615 335.341014 
M 86.605154 332.825563 
L 88.204423 336.272662 
L 89.803692 337.111146 
L 91.402962 333.477717 
L 93.002231 338.042795 
L 94.6015 337.7633 
L 96.200769 334.036706 
L 97.800038 332.732398 
L 99.399308 326.769848 
L 100.998577 319.68932 
L 102.597846 317.360199 
L 104.197115 318.757672 
L 105.796385 319.68932 
L 107.395654 317.826023 
L 108.994923 320.620969 
L 110.594192 322.484266 
L 112.193462 323.043255 
L 113.792731 322.204771 
L 115.392 325.558705 
L 116.991269 326.117695 
L 118.590538 324.627057 
L 120.189808 325.279211 
L 121.789077 318.198683 
L 123.388346 314.472089 
L 124.987615 313.354111 
L 126.586885 311.397649 
L 128.186154 311.397649 
L 129.785423 311.956638 
M 132.983962 312.236133 
L 134.583231 309.627517 
L 136.1825 313.354111 
L 137.781769 312.049803 
L 139.381038 314.09943 
L 140.980308 312.422462 
L 144.178846 305.714594 
L 145.778115 303.105978 
L 147.377385 301.149516 
L 148.976654 307.76422 
L 150.575923 309.534352 
L 152.175192 310.372836 
L 153.774462 314.472089 
L 155.373731 312.515627 
L 156.973 308.043715 
L 158.572269 304.037627 
L 160.171538 300.590527 
L 161.770808 296.398109 
L 163.370077 301.242681 
L 164.969346 303.571802 
L 166.568615 300.776857 
L 168.167885 304.782945 
L 169.767154 298.540901 
L 172.965692 296.677604 
L 174.564962 288.292768 
L 176.164231 285.125163 
L 177.7635 286.708966 
L 179.362769 281.21224 
L 180.962038 285.311493 
L 182.561308 282.982372 
L 184.160577 276.460833 
L 185.759846 283.541361 
L 187.359115 284.10035 
L 188.958385 283.541361 
L 190.557654 279.628437 
L 192.156923 283.91402 
L 193.756192 288.758592 
L 195.355462 285.870482 
M 198.554 288.292768 
L 200.153269 290.715054 
L 201.752538 285.870482 
L 203.351808 286.149977 
L 204.951077 285.311493 
L 206.550346 286.522636 
L 208.149615 291.274043 
L 209.748885 286.98846 
L 211.348154 279.255778 
L 212.947423 282.050723 
L 214.546692 285.218328 
L 216.145962 289.969735 
L 217.745231 285.497823 
L 219.3445 286.336306 
L 220.943769 283.91402 
L 222.543038 282.796042 
L 224.142308 286.708966 
L 225.741577 295.000637 
L 227.340846 296.491274 
L 228.940115 307.018902 
L 230.539385 298.634066 
L 232.138654 295.652791 
L 233.737923 293.882659 
L 235.337192 297.050263 
L 236.936462 296.02545 
L 238.535731 298.354571 
L 240.135 292.76468 
M 243.333538 291.926197 
L 244.932808 293.416834 
L 246.532077 282.609712 
L 248.131346 283.727691 
L 249.730615 279.255778 
L 251.329885 277.485646 
L 252.929154 276.460833 
L 254.528423 280.746416 
L 256.127692 254.846589 
L 257.726962 254.846589 
L 259.326231 259.970655 
L 260.9255 271.616261 
L 262.524769 276.274503 
L 264.124038 271.802591 
L 265.723308 267.796502 
L 267.322577 269.28714 
L 268.921846 270.964107 
L 270.521115 269.846129 
L 272.120385 269.47347 
L 273.719654 270.684612 
L 275.318923 273.572723 
L 276.918192 273.386393 
L 278.517462 276.647162 
L 280.116731 275.995009 
L 281.716 275.156525 
L 283.315269 273.293228 
L 284.914538 267.051184 
L 286.513808 267.144348 
L 288.113077 269.846129 
L 289.712346 278.32413 
L 291.311615 276.647162 
L 292.910885 280.466921 
L 294.510154 278.510459 
L 296.109423 279.069448 
L 297.708692 271.243602 
L 299.307962 270.405118 
L 300.907231 273.106898 
L 302.5065 279.628437 
L 304.105769 278.603624 
L 305.705038 276.833492 
L 307.304308 278.510459 
M 310.502846 272.36158 
L 312.102115 269.659799 
L 313.701385 268.169162 
L 315.300654 268.728151 
L 316.899923 258.759512 
L 318.499192 256.523556 
L 320.098462 259.225337 
L 321.697731 254.939754 
L 323.297 258.573183 
L 326.495538 251.678984 
L 328.094808 247.579731 
L 329.694077 242.083005 
L 331.293346 243.107819 
L 332.892615 249.256698 
L 334.491885 239.847049 
L 336.091154 239.194895 
L 337.690423 226.058652 
L 339.289692 218.605465 
L 340.888962 222.145729 
L 342.488231 211.524937 
L 344.0875 213.108739 
L 345.686769 215.531025 
L 347.286038 206.121376 
L 348.885308 213.108739 
L 350.484577 224.381685 
L 352.083846 223.636366 
L 353.683115 215.62419 
L 355.282385 213.015574 
L 356.881654 214.413047 
L 358.480923 220.189267 
L 360.080192 222.891048 
L 361.679462 226.151817 
L 363.278731 219.723443 
L 364.878 213.854058 
L 366.477269 214.972036 
L 368.076538 222.797883 
L 369.675808 222.984212 
L 371.275077 230.716895 
L 372.874346 229.785246 
L 374.473615 222.145729 
L 376.072885 227.73562 
L 377.672154 224.28852 
L 379.271423 222.052564 
L 380.870692 221.959399 
L 382.469962 224.009026 
L 384.069231 224.847509 
L 385.6685 232.021202 
L 387.267769 222.611553 
L 388.867038 216.090014 
L 390.466308 213.760893 
L 392.065577 204.164914 
L 393.664846 198.668188 
L 395.264115 200.717815 
L 396.863385 205.282892 
L 398.462654 208.543662 
L 400.061923 199.320342 
L 401.661192 192.985133 
L 403.260462 191.215001 
L 404.859731 193.078298 
L 406.459 189.817528 
L 408.058269 186.836253 
M 411.256808 186.649923 
L 412.856077 186.370429 
L 414.455346 190.562847 
L 416.054615 175.935966 
L 417.653885 169.041768 
L 419.253154 169.134933 
L 420.852423 169.041768 
L 422.451692 156.464514 
L 424.050962 166.339987 
L 425.650231 164.569855 
L 427.2495 161.029591 
L 428.848769 161.029591 
L 430.448038 163.079218 
L 432.047308 158.141481 
L 433.646577 156.650844 
L 435.245846 157.396162 
L 436.845115 151.340448 
L 438.444385 150.595129 
M 441.642923 152.458426 
L 443.242192 153.949063 
L 444.841462 156.650844 
L 446.440731 154.414887 
L 446.440731 154.414887 
" style="fill:none;stroke:#0000ff;stroke-linecap:square;"/>
   </g>
   <g id="line2d_2">
    <path clip-path="url(#p1fdd5bd237)" d="M 33.829269 162.333899 
L 35.428538 157.396162 
L 37.027808 159.166295 
L 38.627077 149.942975 
L 40.226346 149.011327 
L 41.825615 149.942975 
L 43.424885 147.054865 
L 45.024154 158.607305 
L 46.623423 147.893348 
L 48.222692 148.545502 
L 49.821962 155.346536 
L 51.421231 158.420976 
M 54.619769 162.986053 
L 56.219038 156.837173 
L 57.818308 164.197196 
L 59.417577 177.985593 
L 61.016846 189.724363 
L 62.616115 175.097483 
L 64.215385 206.121376 
L 65.814654 202.208452 
L 67.413923 195.686913 
L 69.013192 206.028211 
L 70.612462 198.947683 
L 72.211731 200.531485 
L 73.811 193.544122 
L 75.410269 184.320802 
L 77.009538 179.383066 
L 78.608808 172.488867 
L 80.208077 176.122296 
L 81.807346 172.302537 
L 83.406615 175.004318 
M 86.605154 174.352164 
L 88.204423 178.917241 
L 89.803692 179.103571 
L 91.402962 183.761813 
L 93.002231 182.55067 
L 94.6015 184.041308 
L 96.200769 180.687373 
L 97.800038 172.768362 
L 99.399308 170.905065 
L 100.998577 174.817988 
L 102.597846 161.96124 
L 104.197115 163.172383 
L 105.796385 161.681745 
L 107.395654 170.62557 
L 108.994923 176.681285 
L 110.594192 181.246362 
L 112.193462 181.805352 
L 113.792731 184.320802 
L 115.392 180.873703 
L 116.991269 166.805812 
L 118.590538 163.638207 
L 121.789077 179.289901 
L 123.388346 177.706098 
L 124.987615 189.444869 
L 126.586885 196.432232 
L 128.186154 200.904145 
L 129.785423 199.599837 
L 131.384692 196.711727 
L 132.983962 196.711727 
L 134.583231 191.215001 
L 136.1825 189.817528 
L 137.781769 198.016034 
L 139.381038 211.990761 
L 140.980308 223.077377 
L 142.579577 215.996849 
L 144.178846 206.307705 
L 145.778115 220.002937 
L 147.377385 224.940674 
L 148.976654 219.630278 
L 150.575923 212.456585 
L 152.175192 192.519309 
L 153.774462 192.239814 
M 156.973 192.053484 
L 158.572269 194.47577 
L 160.171538 200.997309 
L 161.770808 202.860606 
L 163.370077 209.941134 
L 164.969346 214.506212 
L 166.568615 197.36388 
L 168.167885 196.245902 
L 169.767154 191.028671 
L 171.366423 187.674737 
L 172.965692 187.302077 
L 174.564962 191.215001 
L 176.164231 213.760893 
L 179.362769 216.649003 
L 180.962038 210.220629 
L 182.561308 210.686453 
L 184.160577 212.829245 
L 187.359115 219.909773 
L 188.958385 215.43786 
L 190.557654 215.62419 
L 192.156923 211.059112 
L 195.355462 204.910233 
M 198.554 203.978584 
L 200.153269 207.146189 
L 201.752538 206.028211 
L 203.351808 208.357332 
L 204.951077 206.307705 
L 206.550346 208.357332 
L 208.149615 207.612013 
L 209.748885 205.655552 
L 211.348154 196.525397 
L 212.947423 195.407419 
L 214.546692 192.891968 
L 216.145962 189.910693 
L 219.3445 187.022583 
L 220.943769 206.866695 
L 222.543038 210.406959 
L 224.142308 205.655552 
L 225.741577 208.077837 
L 227.340846 213.947223 
L 228.940115 217.766981 
L 230.539385 219.257619 
L 232.138654 221.40041 
L 233.737923 217.580652 
L 235.337192 212.083926 
L 236.936462 203.88542 
L 238.535731 201.835793 
L 240.135 196.898056 
L 241.734269 194.47577 
M 244.932808 200.251991 
L 246.532077 209.47531 
L 248.131346 206.494035 
L 249.730615 205.748716 
L 251.329885 201.090474 
L 252.929154 198.575023 
L 254.528423 199.413507 
L 256.127692 216.369509 
L 257.726962 221.77307 
L 259.326231 220.655091 
L 260.9255 221.120916 
L 262.524769 218.139641 
L 264.124038 207.798343 
L 265.723308 194.196276 
L 267.322577 194.6621 
L 270.521115 198.761353 
L 272.120385 190.190187 
L 273.719654 197.55021 
L 275.318923 199.320342 
L 276.918192 190.749177 
L 278.517462 198.575023 
L 280.116731 197.73654 
L 281.716 198.947683 
L 283.315269 196.618562 
L 284.914538 197.73654 
L 286.513808 200.251991 
L 288.113077 194.009946 
L 289.712346 192.426144 
L 291.311615 191.40133 
L 292.910885 182.92333 
L 294.510154 178.730912 
L 296.109423 181.805352 
L 297.708692 180.501044 
L 299.307962 177.053945 
L 300.907231 179.84889 
L 302.5065 179.103571 
L 304.105769 175.470142 
L 305.705038 174.258999 
L 307.304308 172.395702 
M 310.502846 165.315174 
L 312.102115 169.041768 
L 313.701385 166.060493 
L 315.300654 162.333899 
L 316.899923 141.651304 
L 318.499192 151.247283 
L 320.098462 147.893348 
L 321.697731 146.77537 
L 323.297 131.682666 
L 324.896269 134.757105 
L 326.495538 133.266468 
L 328.094808 134.384446 
L 329.694077 139.135853 
L 331.293346 149.84981 
L 332.892615 171.091395 
L 334.491885 167.364801 
L 336.091154 159.632119 
L 337.690423 168.296449 
L 339.289692 152.365261 
L 340.888962 153.669569 
L 342.488231 151.526777 
L 344.0875 155.532866 
L 345.686769 153.855898 
L 347.286038 148.918162 
L 348.885308 144.353084 
L 350.484577 149.84981 
L 352.083846 148.452337 
L 353.683115 148.266008 
L 355.282385 162.240734 
L 356.881654 173.606845 
L 358.480923 177.426604 
L 360.080192 178.824077 
L 361.679462 176.029131 
L 363.278731 172.954691 
L 364.878 165.222009 
L 366.477269 156.837173 
L 368.076538 139.881172 
L 369.675808 134.291281 
L 371.275077 125.906445 
L 374.473615 103.826377 
L 376.072885 107.92563 
L 377.672154 106.062334 
L 379.271423 102.14941 
L 380.870692 99.44763 
L 382.469962 92.553431 
L 384.069231 89.013167 
L 385.6685 84.63442 
L 387.267769 78.858199 
L 388.867038 70.846023 
L 390.466308 74.199957 
L 392.065577 59.759406 
L 393.664846 60.691055 
L 395.264115 49.045449 
L 396.863385 43.269229 
L 398.462654 49.045449 
L 400.061923 59.945736 
L 401.661192 53.703691 
L 403.260462 55.660153 
L 404.859731 48.30013 
L 406.459 49.324944 
L 408.058269 47.368482 
M 411.256808 49.138614 
L 412.856077 64.417648 
L 414.455346 59.107252 
L 416.054615 62.740681 
L 417.653885 61.529538 
L 419.253154 56.125977 
L 420.852423 68.889561 
L 422.451692 60.59789 
L 424.050962 72.802484 
L 425.650231 65.908286 
L 427.2495 63.113341 
L 428.848769 67.026264 
L 430.448038 76.063254 
L 432.047308 64.231319 
L 433.646577 56.871296 
L 435.245846 57.150791 
L 436.845115 54.63534 
L 438.444385 65.162967 
L 440.043654 59.293582 
M 443.242192 57.33712 
L 444.841462 60.41156 
L 446.440731 53.983186 
L 448.04 60.59789 
L 448.04 60.59789 
" style="fill:none;stroke:#008000;stroke-linecap:square;"/>
   </g>
   <g id="line2d_3">
    <path clip-path="url(#p1fdd5bd237)" d="M 33.829269 63.765495 
L 35.428538 73.454638 
L 37.027808 72.70932 
L 38.627077 78.48554 
L 40.226346 63.206505 
L 41.825615 67.957912 
L 43.424885 76.529078 
L 45.024154 81.18732 
L 46.623423 88.547343 
L 48.222692 100.472443 
L 49.821962 98.236487 
M 53.0205 87.429365 
L 54.619769 82.305298 
L 56.219038 75.690595 
L 57.818308 75.131605 
L 59.417577 70.566528 
L 62.616115 98.329652 
L 64.215385 123.763654 
L 65.814654 121.341368 
L 67.413923 114.912994 
L 69.013192 114.726664 
L 70.612462 120.875544 
L 72.211731 125.533786 
L 73.811 131.123677 
L 75.410269 134.570776 
L 77.009538 129.912534 
L 78.608808 130.937347 
L 80.208077 121.993522 
L 81.807346 117.33528 
M 85.005885 125.626951 
L 86.605154 124.508973 
L 88.204423 117.801104 
L 89.803692 120.22339 
L 91.402962 125.626951 
L 93.002231 127.024423 
L 94.6015 117.242115 
L 96.200769 117.055785 
L 99.399308 120.22339 
L 100.998577 134.104952 
L 102.597846 121.341368 
L 104.197115 119.757566 
L 105.796385 126.465434 
L 107.395654 130.751017 
L 108.994923 133.545962 
L 110.594192 135.22293 
L 112.193462 131.030512 
L 113.792731 131.77583 
L 115.392 125.81328 
L 116.991269 123.29783 
L 118.590538 115.006159 
L 120.189808 112.118048 
L 121.789077 111.559059 
L 124.987615 117.33528 
L 126.586885 119.384906 
L 128.186154 116.869455 
L 129.785423 111.00007 
L 131.384692 112.397543 
L 132.983962 117.14895 
L 134.583231 120.03706 
L 136.1825 119.85073 
M 139.381038 124.322643 
L 140.980308 124.881632 
L 142.579577 110.347916 
L 144.178846 106.062334 
L 145.778115 110.254752 
L 147.377385 114.07451 
L 148.976654 107.087147 
L 150.575923 105.130685 
L 152.175192 104.664861 
L 153.774462 117.055785 
L 155.373731 115.099323 
L 156.973 116.683126 
L 158.572269 121.434533 
L 160.171538 124.043148 
L 161.770808 116.403631 
L 163.370077 117.894269 
L 164.969346 118.080598 
L 166.568615 127.956072 
L 168.167885 134.663941 
L 169.767154 135.129765 
L 171.366423 139.508512 
L 172.965692 146.402711 
L 174.564962 143.048777 
L 176.164231 122.459346 
L 177.7635 120.40972 
L 179.362769 124.974797 
L 180.962038 122.738841 
L 184.160577 112.397543 
L 185.759846 114.26084 
L 187.359115 117.894269 
L 188.958385 149.383986 
L 190.557654 132.521149 
L 192.156923 124.229478 
L 193.756192 126.092775 
M 196.954731 131.96216 
L 198.554 127.024423 
L 200.153269 129.912534 
L 201.752538 131.123677 
L 203.351808 127.303918 
L 204.951077 129.167215 
L 206.550346 128.608226 
L 208.149615 131.682666 
L 209.748885 132.33482 
L 211.348154 139.788007 
L 212.947423 143.328271 
L 214.546692 139.322183 
L 216.145962 149.756645 
L 217.745231 153.669569 
L 219.3445 154.135393 
L 220.943769 152.551591 
L 222.543038 149.570316 
L 224.142308 150.03614 
L 225.741577 153.762734 
L 227.340846 151.713107 
L 228.940115 152.458426 
L 230.539385 149.756645 
L 232.138654 148.638667 
L 233.737923 157.955152 
L 235.337192 168.669109 
L 236.936462 165.128845 
L 240.135 164.290361 
M 243.333538 171.464054 
L 244.932808 175.004318 
L 246.532077 184.320802 
L 248.131346 180.780538 
L 249.730615 177.892428 
L 251.329885 170.066581 
L 252.929154 171.277724 
L 254.528423 173.606845 
L 256.127692 168.669109 
L 257.726962 161.495416 
L 259.326231 162.799723 
L 260.9255 161.029591 
L 262.524769 165.594669 
L 264.124038 165.874163 
L 265.723308 169.228098 
L 267.322577 178.637747 
L 268.921846 179.755725 
L 270.521115 180.221549 
L 272.120385 182.55067 
L 273.719654 189.538034 
L 275.318923 189.351704 
L 276.918192 185.345616 
L 278.517462 184.134473 
L 280.116731 191.494495 
L 281.716 189.538034 
L 283.315269 185.066121 
L 284.914538 195.500584 
L 286.513808 209.84797 
L 288.113077 196.432232 
L 289.712346 193.544122 
L 291.311615 194.84843 
L 292.910885 198.668188 
L 294.510154 203.32643 
L 296.109423 213.481398 
L 297.708692 224.381685 
L 299.307962 239.47439 
L 300.907231 235.468302 
L 302.5065 228.201444 
L 304.105769 217.301157 
L 305.705038 222.425223 
L 307.304308 230.810059 
L 308.903577 236.772609 
L 310.502846 235.188807 
L 312.102115 228.015114 
L 313.701385 236.958939 
M 316.899923 243.294148 
L 318.499192 237.517928 
L 320.098462 240.965027 
L 321.697731 238.356412 
L 323.297 248.697709 
L 324.896269 241.989841 
L 326.495538 238.635906 
L 328.094808 243.014654 
L 329.694077 244.784786 
L 331.293346 240.778698 
L 332.892615 247.952391 
L 334.491885 254.10127 
L 336.091154 257.827864 
L 337.690423 259.784326 
L 339.289692 274.038547 
L 342.488231 261.833952 
L 344.0875 261.833952 
L 345.686769 245.06428 
L 347.286038 243.759973 
L 348.885308 242.735159 
L 350.484577 234.257159 
L 352.083846 229.598916 
L 353.683115 228.201444 
L 355.282385 225.033839 
L 356.881654 229.878411 
L 358.480923 232.207532 
L 360.080192 219.257619 
L 361.679462 220.282432 
L 363.278731 219.071289 
L 364.878 225.313334 
L 366.477269 241.244522 
L 368.076538 236.120455 
L 369.675808 222.145729 
L 371.275077 220.002937 
L 374.473615 203.419595 
L 376.072885 204.630738 
L 377.672154 199.320342 
L 379.271423 202.581112 
L 380.870692 207.705178 
L 382.469962 204.444409 
L 384.069231 203.978584 
L 385.6685 212.54975 
L 387.267769 217.394322 
L 388.867038 214.506212 
L 390.466308 220.189267 
L 392.065577 221.58674 
L 393.664846 231.275884 
L 395.264115 224.28852 
L 396.863385 225.033839 
L 398.462654 223.915861 
L 400.061923 227.269795 
L 401.661192 222.704718 
L 403.260462 220.375597 
L 404.859731 224.102191 
L 406.459 222.238894 
M 409.657538 224.28852 
L 411.256808 216.183179 
L 412.856077 217.114827 
L 414.455346 199.040848 
L 416.054615 211.245442 
L 417.653885 205.935046 
L 419.253154 208.077837 
L 420.852423 206.494035 
L 422.451692 210.686453 
L 424.050962 208.543662 
L 425.650231 224.568015 
L 427.2495 227.54929 
L 428.848769 223.450037 
L 430.448038 216.462673 
L 432.047308 221.58674 
L 433.646577 224.195355 
L 435.245846 224.102191 
L 436.845115 212.642915 
L 438.444385 210.220629 
L 440.043654 213.388234 
M 443.242192 218.139641 
L 444.841462 214.040387 
L 446.440731 220.282432 
L 448.04 221.307245 
L 448.04 221.307245 
" style="fill:none;stroke:#ff0000;stroke-linecap:square;"/>
   </g>
   <g id="patch_3">
    <path d="M 32.23 18.766875 
L 448.04 18.766875 
" style="fill:none;stroke:#000000;stroke-linecap:square;stroke-linejoin:miter;"/>
   </g>
   <g id="patch_4">
    <path d="M 448.04 391.42625 
L 448.04 18.766875 
" style="fill:none;stroke:#000000;stroke-linecap:square;stroke-linejoin:miter;"/>
   </g>
   <g id="patch_5">
    <path d="M 32.23 391.42625 
L 32.23 18.766875 
" style="fill:none;stroke:#000000;stroke-linecap:square;stroke-linejoin:miter;"/>
   </g>
   <g id="patch_6">
    <path d="M 32.23 391.42625 
L 448.04 391.42625 
" style="fill:none;stroke:#000000;stroke-linecap:square;stroke-linejoin:miter;"/>
   </g>
   <g id="matplotlib.axis_1">
    <g id="xtick_1">
     <g id="line2d_4">
      <defs>
       <path d="M 0 0 
L 0 -4 
" id="m85dc5f2adb" style="stroke:#000000;stroke-width:0.5;"/>
      </defs>
      <g>
       <use style="stroke:#000000;stroke-width:0.5;" x="32.23" xlink:href="#m85dc5f2adb" y="391.42625"/>
      </g>
     </g>
     <g id="line2d_5">
      <defs>
       <path d="M 0 0 
L 0 4 
" id="mf7ac758f66" style="stroke:#000000;stroke-width:0.5;"/>
      </defs>
      <g>
       <use style="stroke:#000000;stroke-width:0.5;" x="32.23" xlink:href="#mf7ac758f66" y="18.766875"/>
      </g>
     </g>
     <g id="text_1">
      <!-- 0 -->
      <defs>
       <path d="M 31.78125 66.40625 
Q 24.171875 66.40625 20.328125 58.90625 
Q 16.5 51.421875 16.5 36.375 
Q 16.5 21.390625 20.328125 13.890625 
Q 24.171875 6.390625 31.78125 6.390625 
Q 39.453125 6.390625 43.28125 13.890625 
Q 47.125 21.390625 47.125 36.375 
Q 47.125 51.421875 43.28125 58.90625 
Q 39.453125 66.40625 31.78125 66.40625 
M 31.78125 74.21875 
Q 44.046875 74.21875 50.515625 64.515625 
Q 56.984375 54.828125 56.984375 36.375 
Q 56.984375 17.96875 50.515625 8.265625 
Q 44.046875 -1.421875 31.78125 -1.421875 
Q 19.53125 -1.421875 13.0625 8.265625 
Q 6.59375 17.96875 6.59375 36.375 
Q 6.59375 54.828125 13.0625 64.515625 
Q 19.53125 74.21875 31.78125 74.21875 
" id="BitstreamVeraSans-Roman-30"/>
      </defs>
      <g transform="translate(28.4125 404.544375)scale(0.12 -0.12)">
       <use xlink:href="#BitstreamVeraSans-Roman-30"/>
      </g>
     </g>
    </g>
    <g id="xtick_2">
     <g id="line2d_6">
      <g>
       <use style="stroke:#000000;stroke-width:0.5;" x="112.193461538" xlink:href="#m85dc5f2adb" y="391.42625"/>
      </g>
     </g>
     <g id="line2d_7">
      <g>
       <use style="stroke:#000000;stroke-width:0.5;" x="112.193461538" xlink:href="#mf7ac758f66" y="18.766875"/>
      </g>
     </g>
     <g id="text_2">
      <!-- 50 -->
      <defs>
       <path d="M 10.796875 72.90625 
L 49.515625 72.90625 
L 49.515625 64.59375 
L 19.828125 64.59375 
L 19.828125 46.734375 
Q 21.96875 47.46875 24.109375 47.828125 
Q 26.265625 48.1875 28.421875 48.1875 
Q 40.625 48.1875 47.75 41.5 
Q 54.890625 34.8125 54.890625 23.390625 
Q 54.890625 11.625 47.5625 5.09375 
Q 40.234375 -1.421875 26.90625 -1.421875 
Q 22.3125 -1.421875 17.546875 -0.640625 
Q 12.796875 0.140625 7.71875 1.703125 
L 7.71875 11.625 
Q 12.109375 9.234375 16.796875 8.0625 
Q 21.484375 6.890625 26.703125 6.890625 
Q 35.15625 6.890625 40.078125 11.328125 
Q 45.015625 15.765625 45.015625 23.390625 
Q 45.015625 31 40.078125 35.4375 
Q 35.15625 39.890625 26.703125 39.890625 
Q 22.75 39.890625 18.8125 39.015625 
Q 14.890625 38.140625 10.796875 36.28125 
z
" id="BitstreamVeraSans-Roman-35"/>
      </defs>
      <g transform="translate(104.558461538 404.544375)scale(0.12 -0.12)">
       <use xlink:href="#BitstreamVeraSans-Roman-35"/>
       <use x="63.623046875" xlink:href="#BitstreamVeraSans-Roman-30"/>
      </g>
     </g>
    </g>
    <g id="xtick_3">
     <g id="line2d_8">
      <g>
       <use style="stroke:#000000;stroke-width:0.5;" x="192.156923077" xlink:href="#m85dc5f2adb" y="391.42625"/>
      </g>
     </g>
     <g id="line2d_9">
      <g>
       <use style="stroke:#000000;stroke-width:0.5;" x="192.156923077" xlink:href="#mf7ac758f66" y="18.766875"/>
      </g>
     </g>
     <g id="text_3">
      <!-- 100 -->
      <defs>
       <path d="M 12.40625 8.296875 
L 28.515625 8.296875 
L 28.515625 63.921875 
L 10.984375 60.40625 
L 10.984375 69.390625 
L 28.421875 72.90625 
L 38.28125 72.90625 
L 38.28125 8.296875 
L 54.390625 8.296875 
L 54.390625 0 
L 12.40625 0 
z
" id="BitstreamVeraSans-Roman-31"/>
      </defs>
      <g transform="translate(180.704423077 404.544375)scale(0.12 -0.12)">
       <use xlink:href="#BitstreamVeraSans-Roman-31"/>
       <use x="63.623046875" xlink:href="#BitstreamVeraSans-Roman-30"/>
       <use x="127.24609375" xlink:href="#BitstreamVeraSans-Roman-30"/>
      </g>
     </g>
    </g>
    <g id="xtick_4">
     <g id="line2d_10">
      <g>
       <use style="stroke:#000000;stroke-width:0.5;" x="272.120384615" xlink:href="#m85dc5f2adb" y="391.42625"/>
      </g>
     </g>
     <g id="line2d_11">
      <g>
       <use style="stroke:#000000;stroke-width:0.5;" x="272.120384615" xlink:href="#mf7ac758f66" y="18.766875"/>
      </g>
     </g>
     <g id="text_4">
      <!-- 150 -->
      <g transform="translate(260.667884615 404.544375)scale(0.12 -0.12)">
       <use xlink:href="#BitstreamVeraSans-Roman-31"/>
       <use x="63.623046875" xlink:href="#BitstreamVeraSans-Roman-35"/>
       <use x="127.24609375" xlink:href="#BitstreamVeraSans-Roman-30"/>
      </g>
     </g>
    </g>
    <g id="xtick_5">
     <g id="line2d_12">
      <g>
       <use style="stroke:#000000;stroke-width:0.5;" x="352.083846154" xlink:href="#m85dc5f2adb" y="391.42625"/>
      </g>
     </g>
     <g id="line2d_13">
      <g>
       <use style="stroke:#000000;stroke-width:0.5;" x="352.083846154" xlink:href="#mf7ac758f66" y="18.766875"/>
      </g>
     </g>
     <g id="text_5">
      <!-- 200 -->
      <defs>
       <path d="M 19.1875 8.296875 
L 53.609375 8.296875 
L 53.609375 0 
L 7.328125 0 
L 7.328125 8.296875 
Q 12.9375 14.109375 22.625 23.890625 
Q 32.328125 33.6875 34.8125 36.53125 
Q 39.546875 41.84375 41.421875 45.53125 
Q 43.3125 49.21875 43.3125 52.78125 
Q 43.3125 58.59375 39.234375 62.25 
Q 35.15625 65.921875 28.609375 65.921875 
Q 23.96875 65.921875 18.8125 64.3125 
Q 13.671875 62.703125 7.8125 59.421875 
L 7.8125 69.390625 
Q 13.765625 71.78125 18.9375 73 
Q 24.125 74.21875 28.421875 74.21875 
Q 39.75 74.21875 46.484375 68.546875 
Q 53.21875 62.890625 53.21875 53.421875 
Q 53.21875 48.921875 51.53125 44.890625 
Q 49.859375 40.875 45.40625 35.40625 
Q 44.1875 33.984375 37.640625 27.21875 
Q 31.109375 20.453125 19.1875 8.296875 
" id="BitstreamVeraSans-Roman-32"/>
      </defs>
      <g transform="translate(340.631346154 404.544375)scale(0.12 -0.12)">
       <use xlink:href="#BitstreamVeraSans-Roman-32"/>
       <use x="63.623046875" xlink:href="#BitstreamVeraSans-Roman-30"/>
       <use x="127.24609375" xlink:href="#BitstreamVeraSans-Roman-30"/>
      </g>
     </g>
    </g>
    <g id="xtick_6">
     <g id="line2d_14">
      <g>
       <use style="stroke:#000000;stroke-width:0.5;" x="432.047307692" xlink:href="#m85dc5f2adb" y="391.42625"/>
      </g>
     </g>
     <g id="line2d_15">
      <g>
       <use style="stroke:#000000;stroke-width:0.5;" x="432.047307692" xlink:href="#mf7ac758f66" y="18.766875"/>
      </g>
     </g>
     <g id="text_6">
      <!-- 250 -->
      <g transform="translate(420.594807692 404.544375)scale(0.12 -0.12)">
       <use xlink:href="#BitstreamVeraSans-Roman-32"/>
       <use x="63.623046875" xlink:href="#BitstreamVeraSans-Roman-35"/>
       <use x="127.24609375" xlink:href="#BitstreamVeraSans-Roman-30"/>
      </g>
     </g>
    </g>
   </g>
   <g id="matplotlib.axis_2">
    <g id="ytick_1">
     <g id="line2d_16">
      <defs>
       <path d="M 0 0 
L 4 0 
" id="mf543eb0945" style="stroke:#000000;stroke-width:0.5;"/>
      </defs>
      <g>
       <use style="stroke:#000000;stroke-width:0.5;" x="32.23" xlink:href="#mf543eb0945" y="391.42625"/>
      </g>
     </g>
     <g id="line2d_17">
      <defs>
       <path d="M 0 0 
L -4 0 
" id="m3fffd720d8" style="stroke:#000000;stroke-width:0.5;"/>
      </defs>
      <g>
       <use style="stroke:#000000;stroke-width:0.5;" x="448.04" xlink:href="#m3fffd720d8" y="391.42625"/>
      </g>
     </g>
     <g id="text_7">
      <!-- 15 -->
      <g transform="translate(12.96 394.7375)scale(0.12 -0.12)">
       <use xlink:href="#BitstreamVeraSans-Roman-31"/>
       <use x="63.623046875" xlink:href="#BitstreamVeraSans-Roman-35"/>
      </g>
     </g>
    </g>
    <g id="ytick_2">
     <g id="line2d_18">
      <g>
       <use style="stroke:#000000;stroke-width:0.5;" x="32.23" xlink:href="#mf543eb0945" y="344.843828125"/>
      </g>
     </g>
     <g id="line2d_19">
      <g>
       <use style="stroke:#000000;stroke-width:0.5;" x="448.04" xlink:href="#m3fffd720d8" y="344.843828125"/>
      </g>
     </g>
     <g id="text_8">
      <!-- 20 -->
      <g transform="translate(12.96 348.155078125)scale(0.12 -0.12)">
       <use xlink:href="#BitstreamVeraSans-Roman-32"/>
       <use x="63.623046875" xlink:href="#BitstreamVeraSans-Roman-30"/>
      </g>
     </g>
    </g>
    <g id="ytick_3">
     <g id="line2d_20">
      <g>
       <use style="stroke:#000000;stroke-width:0.5;" x="32.23" xlink:href="#mf543eb0945" y="298.26140625"/>
      </g>
     </g>
     <g id="line2d_21">
      <g>
       <use style="stroke:#000000;stroke-width:0.5;" x="448.04" xlink:href="#m3fffd720d8" y="298.26140625"/>
      </g>
     </g>
     <g id="text_9">
      <!-- 25 -->
      <g transform="translate(12.96 301.57265625)scale(0.12 -0.12)">
       <use xlink:href="#BitstreamVeraSans-Roman-32"/>
       <use x="63.623046875" xlink:href="#BitstreamVeraSans-Roman-35"/>
      </g>
     </g>
    </g>
    <g id="ytick_4">
     <g id="line2d_22">
      <g>
       <use style="stroke:#000000;stroke-width:0.5;" x="32.23" xlink:href="#mf543eb0945" y="251.678984375"/>
      </g>
     </g>
     <g id="line2d_23">
      <g>
       <use style="stroke:#000000;stroke-width:0.5;" x="448.04" xlink:href="#m3fffd720d8" y="251.678984375"/>
      </g>
     </g>
     <g id="text_10">
      <!-- 30 -->
      <defs>
       <path d="M 40.578125 39.3125 
Q 47.65625 37.796875 51.625 33 
Q 55.609375 28.21875 55.609375 21.1875 
Q 55.609375 10.40625 48.1875 4.484375 
Q 40.765625 -1.421875 27.09375 -1.421875 
Q 22.515625 -1.421875 17.65625 -0.515625 
Q 12.796875 0.390625 7.625 2.203125 
L 7.625 11.71875 
Q 11.71875 9.328125 16.59375 8.109375 
Q 21.484375 6.890625 26.8125 6.890625 
Q 36.078125 6.890625 40.9375 10.546875 
Q 45.796875 14.203125 45.796875 21.1875 
Q 45.796875 27.640625 41.28125 31.265625 
Q 36.765625 34.90625 28.71875 34.90625 
L 20.21875 34.90625 
L 20.21875 43.015625 
L 29.109375 43.015625 
Q 36.375 43.015625 40.234375 45.921875 
Q 44.09375 48.828125 44.09375 54.296875 
Q 44.09375 59.90625 40.109375 62.90625 
Q 36.140625 65.921875 28.71875 65.921875 
Q 24.65625 65.921875 20.015625 65.03125 
Q 15.375 64.15625 9.8125 62.3125 
L 9.8125 71.09375 
Q 15.4375 72.65625 20.34375 73.4375 
Q 25.25 74.21875 29.59375 74.21875 
Q 40.828125 74.21875 47.359375 69.109375 
Q 53.90625 64.015625 53.90625 55.328125 
Q 53.90625 49.265625 50.4375 45.09375 
Q 46.96875 40.921875 40.578125 39.3125 
" id="BitstreamVeraSans-Roman-33"/>
      </defs>
      <g transform="translate(12.96 254.990234375)scale(0.12 -0.12)">
       <use xlink:href="#BitstreamVeraSans-Roman-33"/>
       <use x="63.623046875" xlink:href="#BitstreamVeraSans-Roman-30"/>
      </g>
     </g>
    </g>
    <g id="ytick_5">
     <g id="line2d_24">
      <g>
       <use style="stroke:#000000;stroke-width:0.5;" x="32.23" xlink:href="#mf543eb0945" y="205.0965625"/>
      </g>
     </g>
     <g id="line2d_25">
      <g>
       <use style="stroke:#000000;stroke-width:0.5;" x="448.04" xlink:href="#m3fffd720d8" y="205.0965625"/>
      </g>
     </g>
     <g id="text_11">
      <!-- 35 -->
      <g transform="translate(12.96 208.4078125)scale(0.12 -0.12)">
       <use xlink:href="#BitstreamVeraSans-Roman-33"/>
       <use x="63.623046875" xlink:href="#BitstreamVeraSans-Roman-35"/>
      </g>
     </g>
    </g>
    <g id="ytick_6">
     <g id="line2d_26">
      <g>
       <use style="stroke:#000000;stroke-width:0.5;" x="32.23" xlink:href="#mf543eb0945" y="158.514140625"/>
      </g>
     </g>
     <g id="line2d_27">
      <g>
       <use style="stroke:#000000;stroke-width:0.5;" x="448.04" xlink:href="#m3fffd720d8" y="158.514140625"/>
      </g>
     </g>
     <g id="text_12">
      <!-- 40 -->
      <defs>
       <path d="M 37.796875 64.3125 
L 12.890625 25.390625 
L 37.796875 25.390625 
z
M 35.203125 72.90625 
L 47.609375 72.90625 
L 47.609375 25.390625 
L 58.015625 25.390625 
L 58.015625 17.1875 
L 47.609375 17.1875 
L 47.609375 0 
L 37.796875 0 
L 37.796875 17.1875 
L 4.890625 17.1875 
L 4.890625 26.703125 
z
" id="BitstreamVeraSans-Roman-34"/>
      </defs>
      <g transform="translate(12.96 161.825390625)scale(0.12 -0.12)">
       <use xlink:href="#BitstreamVeraSans-Roman-34"/>
       <use x="63.623046875" xlink:href="#BitstreamVeraSans-Roman-30"/>
      </g>
     </g>
    </g>
    <g id="ytick_7">
     <g id="line2d_28">
      <g>
       <use style="stroke:#000000;stroke-width:0.5;" x="32.23" xlink:href="#mf543eb0945" y="111.93171875"/>
      </g>
     </g>
     <g id="line2d_29">
      <g>
       <use style="stroke:#000000;stroke-width:0.5;" x="448.04" xlink:href="#m3fffd720d8" y="111.93171875"/>
      </g>
     </g>
     <g id="text_13">
      <!-- 45 -->
      <g transform="translate(12.96 115.24296875)scale(0.12 -0.12)">
       <use xlink:href="#BitstreamVeraSans-Roman-34"/>
       <use x="63.623046875" xlink:href="#BitstreamVeraSans-Roman-35"/>
      </g>
     </g>
    </g>
    <g id="ytick_8">
     <g id="line2d_30">
      <g>
       <use style="stroke:#000000;stroke-width:0.5;" x="32.23" xlink:href="#mf543eb0945" y="65.349296875"/>
      </g>
     </g>
     <g id="line2d_31">
      <g>
       <use style="stroke:#000000;stroke-width:0.5;" x="448.04" xlink:href="#m3fffd720d8" y="65.349296875"/>
      </g>
     </g>
     <g id="text_14">
      <!-- 50 -->
      <g transform="translate(12.96 68.660546875)scale(0.12 -0.12)">
       <use xlink:href="#BitstreamVeraSans-Roman-35"/>
       <use x="63.623046875" xlink:href="#BitstreamVeraSans-Roman-30"/>
      </g>
     </g>
    </g>
    <g id="ytick_9">
     <g id="line2d_32">
      <g>
       <use style="stroke:#000000;stroke-width:0.5;" x="32.23" xlink:href="#mf543eb0945" y="18.766875"/>
      </g>
     </g>
     <g id="line2d_33">
      <g>
       <use style="stroke:#000000;stroke-width:0.5;" x="448.04" xlink:href="#m3fffd720d8" y="18.766875"/>
      </g>
     </g>
     <g id="text_15">
      <!-- 55 -->
      <g transform="translate(12.96 22.078125)scale(0.12 -0.12)">
       <use xlink:href="#BitstreamVeraSans-Roman-35"/>
       <use x="63.623046875" xlink:href="#BitstreamVeraSans-Roman-35"/>
      </g>
     </g>
    </g>
   </g>
   <g id="legend_1">
    <g id="patch_7">
     <path d="M 352.352 384.22625 
L 440.84 384.22625 
L 440.84 316.49675 
L 352.352 316.49675 
z
" style="fill:#ffffff;stroke:#000000;stroke-linejoin:miter;"/>
    </g>
    <g id="line2d_34">
     <path d="M 362.432 328.1585 
L 382.592 328.1585 
" style="fill:none;stroke:#0000ff;stroke-linecap:square;"/>
    </g>
    <g id="line2d_35"/>
    <g id="text_16">
     <!-- 2013 -->
     <g transform="translate(398.432 333.1985)scale(0.144 -0.144)">
      <use xlink:href="#BitstreamVeraSans-Roman-32"/>
      <use x="63.623046875" xlink:href="#BitstreamVeraSans-Roman-30"/>
      <use x="127.24609375" xlink:href="#BitstreamVeraSans-Roman-31"/>
      <use x="190.869140625" xlink:href="#BitstreamVeraSans-Roman-33"/>
     </g>
    </g>
    <g id="line2d_36">
     <path d="M 362.432 349.295 
L 382.592 349.295 
" style="fill:none;stroke:#008000;stroke-linecap:square;"/>
    </g>
    <g id="line2d_37"/>
    <g id="text_17">
     <!-- 2014 -->
     <g transform="translate(398.432 354.335)scale(0.144 -0.144)">
      <use xlink:href="#BitstreamVeraSans-Roman-32"/>
      <use x="63.623046875" xlink:href="#BitstreamVeraSans-Roman-30"/>
      <use x="127.24609375" xlink:href="#BitstreamVeraSans-Roman-31"/>
      <use x="190.869140625" xlink:href="#BitstreamVeraSans-Roman-34"/>
     </g>
    </g>
    <g id="line2d_38">
     <path d="M 362.432 370.4315 
L 382.592 370.4315 
" style="fill:none;stroke:#ff0000;stroke-linecap:square;"/>
    </g>
    <g id="line2d_39"/>
    <g id="text_18">
     <!-- 2015 -->
     <g transform="translate(398.432 375.4715)scale(0.144 -0.144)">
      <use xlink:href="#BitstreamVeraSans-Roman-32"/>
      <use x="63.623046875" xlink:href="#BitstreamVeraSans-Roman-30"/>
      <use x="127.24609375" xlink:href="#BitstreamVeraSans-Roman-31"/>
      <use x="190.869140625" xlink:href="#BitstreamVeraSans-Roman-35"/>
     </g>
    </g>
   </g>
  </g>
 </g>
 <defs>
  <clipPath id="p1fdd5bd237">
   <rect height="372.659375" width="415.81" x="32.23" y="18.766875"/>
  </clipPath>
 </defs>
</svg>
