<?xml version="1.0" encoding="utf-8" standalone="no"?>
<!DOCTYPE svg PUBLIC "-//W3C//DTD SVG 1.1//EN"
  "http://www.w3.org/Graphics/SVG/1.1/DTD/svg11.dtd">
<!-- Created with matplotlib (http://matplotlib.org/) -->
<svg height="420pt" version="1.1" viewBox="0 0 458 420" width="458pt" xmlns="http://www.w3.org/2000/svg" xmlns:xlink="http://www.w3.org/1999/xlink">
 <defs>
  <style type="text/css">
*{stroke-linecap:butt;stroke-linejoin:round;stroke-miterlimit:100000;}
  </style>
 </defs>
 <g id="figure_1">
  <g id="patch_1">
   <path d="M 0 420 
L 458 420 
L 458 0 
L 0 0 
z
" style="fill:#ffffff;"/>
  </g>
  <g id="axes_1">
   <g id="patch_2">
    <path d="M 39.865 361.375125 
L 445.04 361.375125 
L 445.04 18.766875 
L 39.865 18.766875 
z
" style="fill:#ffffff;"/>
   </g>
   <g id="line2d_1">
    <path clip-path="url(#pe0a315c67c)" d="M 39.865 270.583939 
L 40.38379 274.052847 
L 40.90258 268.785245 
L 41.42137 259.569084 
L 41.94016 258.558389 
L 42.45895 263.260687 
L 42.97774 263.286383 
L 43.49653 266.361292 
L 44.01532 255.05522 
L 44.53411 255.389263 
L 45.0529 252.14305 
L 45.57169 254.575568 
M 46.60927 248.939663 
L 47.12806 248.374359 
L 47.64685 250.4814 
L 48.16564 266.001553 
L 48.68443 275.671671 
L 49.20322 266.352727 
L 49.72201 273.230587 
L 50.2408 261.050864 
L 50.75959 241.556455 
L 51.27838 261.890254 
L 52.31596 257.710434 
L 53.35354 243.063931 
L 53.87233 244.991102 
L 54.39112 237.61646 
L 54.90991 239.106806 
L 55.4287 233.45377 
L 55.94749 232.211815 
M 56.98507 228.760037 
L 57.50386 232.408814 
L 58.02265 231.655076 
L 58.54144 231.79212 
L 59.57902 224.854303 
L 60.09781 224.785781 
L 60.616601 225.188346 
L 61.135391 226.712952 
L 61.654181 232.263206 
L 62.172971 227.029865 
L 62.691761 225.599476 
L 63.210551 225.017041 
L 63.729341 227.081256 
L 64.248131 228.460254 
L 64.766921 233.410944 
L 65.285711 230.284643 
L 66.323291 245.051059 
L 67.360871 228.597298 
L 67.879661 233.727856 
L 68.398451 234.627203 
L 68.917241 240.665673 
L 69.436031 251.406442 
L 69.954821 251.072399 
L 70.473611 262.515514 
L 70.992401 270.087157 
L 71.511191 267.577551 
L 72.029981 269.984374 
L 72.548771 261.264994 
L 73.067561 261.179342 
L 73.586351 258.815345 
L 74.105141 281.598794 
L 74.623931 285.872832 
L 75.142721 271.526111 
L 75.661511 263.611861 
L 76.180301 283.474574 
L 76.699091 292.339563 
L 77.217881 290.695043 
L 77.736671 287.337482 
L 78.255461 270.121418 
L 78.774251 287.628699 
M 79.811831 294.035473 
L 80.330621 288.733611 
L 80.849411 295.474428 
L 81.368201 296.999035 
L 81.886991 304.69059 
L 82.405781 303.859765 
L 82.924571 294.823472 
L 83.443361 295.714254 
L 83.962151 291.697172 
L 84.480941 294.626473 
L 84.999731 294.729255 
L 85.518521 305.581371 
L 86.037311 310.018148 
L 86.556101 309.127367 
L 87.074891 302.506462 
L 87.593681 292.921997 
L 88.112471 290.206826 
L 89.150051 301.435812 
L 89.668841 300.879073 
L 90.187631 293.829909 
L 90.706421 293.050475 
L 91.225211 285.196181 
L 91.744001 279.954274 
L 92.262791 273.410457 
M 93.300371 262.061559 
L 93.819161 265.718902 
L 94.337951 267.089335 
L 94.856741 267.252074 
L 95.375531 272.356936 
L 95.894321 280.057057 
L 96.413111 280.296883 
L 96.931901 272.382632 
L 97.450691 270.301287 
L 97.969481 265.342033 
L 99.007061 268.15142 
L 99.525851 274.56676 
L 100.044641 274.215586 
L 100.563431 280.62236 
L 101.082222 281.710142 
L 101.601012 272.836588 
L 102.638592 270.275591 
L 103.157382 262.918079 
L 103.676172 263.200731 
L 104.194962 251.183747 
L 104.713752 253.453526 
L 105.232542 252.391441 
L 105.751332 254.070221 
L 106.270122 247.740534 
L 106.788912 248.023185 
L 107.307702 245.976101 
M 108.345282 248.100272 
L 108.864072 257.659043 
L 109.382862 253.385005 
L 109.901652 257.650477 
L 110.420442 250.729791 
L 110.939232 245.856188 
L 111.458022 245.933275 
L 111.976812 247.749099 
L 112.495602 255.397828 
L 113.014392 237.111113 
L 113.533182 241.916193 
L 114.051972 237.40233 
L 114.570762 236.340244 
L 115.089552 238.592893 
L 115.608342 242.301628 
L 116.127132 240.948325 
L 116.645922 245.222363 
L 117.164712 243.672061 
L 117.683502 257.222217 
L 118.202292 261.958776 
L 118.721082 255.89461 
L 119.239872 262.815297 
L 119.758662 261.70182 
L 120.277452 264.279947 
L 120.796242 259.64617 
L 121.315032 260.408474 
L 121.833822 264.819555 
L 122.352612 254.498481 
L 122.871402 254.609829 
L 123.390192 255.611958 
L 123.908982 248.177359 
L 124.427772 244.151712 
L 124.946562 246.181666 
L 125.465352 247.140969 
L 125.984142 247.834751 
L 127.021722 251.860398 
L 127.540512 257.736129 
L 128.059302 259.277866 
L 128.578092 257.222217 
M 129.615672 252.314354 
L 130.134462 251.791876 
L 131.690832 241.702063 
L 132.209622 249.162358 
L 132.728412 247.37223 
L 133.247202 248.871141 
L 133.765992 253.779004 
L 134.284782 255.937436 
L 134.803572 250.07027 
L 135.841152 242.087498 
L 136.359942 236.254592 
L 136.878732 243.714887 
L 137.397522 249.059575 
L 137.916312 243.183844 
L 138.435102 254.258656 
L 138.953892 252.511354 
L 139.472682 253.145179 
L 139.991472 252.288658 
L 140.510262 260.074431 
L 141.029052 258.524128 
L 141.547843 254.070221 
L 142.066633 252.297223 
L 142.585423 263.954469 
L 143.104213 256.451348 
L 143.623003 266.404118 
L 144.141793 280.442491 
L 144.660583 290.104044 
L 145.179373 286.052701 
L 145.698163 292.827779 
L 146.216953 297.555773 
L 146.735743 308.981758 
L 147.254533 300.699204 
L 148.292113 290.532304 
L 148.810903 280.879317 
L 149.329693 284.476703 
L 149.848483 283.628748 
L 150.367273 276.665235 
L 150.886063 276.296931 
L 151.404853 275.457541 
L 151.923643 267.945855 
L 152.442433 271.252025 
L 152.961223 272.202763 
L 153.480013 279.217667 
L 153.998803 282.540967 
L 154.517593 283.423183 
L 155.036383 277.872929 
L 155.555173 275.474672 
L 156.073963 278.027103 
L 156.592753 279.680188 
L 157.111543 280.519578 
L 157.630333 287.277526 
L 158.149123 288.545176 
L 158.667913 286.866396 
L 159.186703 288.71648 
L 159.705493 286.42957 
L 160.743073 283.363226 
L 161.261863 283.971356 
M 162.299443 282.720836 
L 162.818233 289.598697 
L 163.337023 289.641523 
L 163.855813 291.722868 
L 164.374603 286.592309 
L 164.893393 296.913383 
L 165.412183 295.440167 
L 165.930973 289.967 
L 166.449763 296.228166 
L 166.968553 294.275299 
L 167.487343 302.566419 
L 168.006133 306.729109 
L 168.524923 322.497654 
L 169.043713 314.360708 
L 170.081293 304.544982 
L 170.600083 297.247426 
L 171.118873 292.348128 
L 171.637663 293.906995 
M 172.675243 289.401697 
L 173.194033 292.570823 
L 173.712823 292.493736 
L 174.231613 295.936949 
M 175.269193 297.298817 
L 176.306773 316.870313 
L 176.825563 317.606921 
L 177.344353 316.253618 
L 177.863143 321.829568 
L 178.381933 324.930172 
L 178.900723 321.821003 
L 179.419513 317.803921 
L 179.938303 317.015922 
L 180.457093 311.628407 
M 181.494673 312.639101 
L 182.013464 303.097462 
L 182.532254 289.093349 
L 183.051044 284.331095 
L 183.569834 288.391003 
L 184.088624 302.592115 
L 184.607414 309.983887 
L 185.126204 309.418584 
L 185.644994 288.982002 
L 186.163784 294.155386 
L 186.682574 293.504431 
L 187.201364 299.054684 
L 187.720154 294.926255 
L 188.238944 291.996954 
L 188.757734 294.712125 
L 189.276524 286.909222 
L 189.795314 287.740047 
L 190.832894 276.571018 
M 191.870474 281.85575 
L 192.389264 284.545225 
L 192.908054 281.830055 
L 193.426844 285.187615 
L 193.945634 291.217521 
L 194.464424 287.637264 
L 194.983214 280.973534 
L 195.502004 271.029329 
L 196.020794 268.528289 
L 196.539584 257.444912 
L 197.058374 255.474915 
L 197.577164 255.706175 
L 198.095954 254.027395 
L 198.614744 260.579778 
L 199.133534 259.577649 
L 199.652324 271.431894 
L 200.171114 274.712368 
L 200.689904 271.003634 
L 201.208694 278.018538 
L 201.727484 271.860154 
L 202.246274 275.003585 
L 202.765064 267.586117 
L 203.283854 268.879463 
L 203.802644 266.849509 
L 204.321434 268.177116 
L 204.840224 258.429911 
L 205.359014 268.202811 
L 205.877804 271.294851 
L 206.396594 277.144887 
L 206.915384 273.984326 
L 207.434174 277.436104 
L 207.952964 282.095576 
L 208.471754 288.116916 
M 209.509334 287.063396 
L 210.028124 286.8407 
L 210.546914 282.909271 
L 212.103284 284.999181 
L 212.622074 292.519432 
L 213.140864 290.686478 
L 213.659654 289.598697 
L 214.178444 297.949773 
L 214.697234 288.245394 
L 215.216024 289.453088 
L 215.734814 284.836442 
L 216.253604 278.292624 
L 216.772394 262.823862 
L 217.291184 271.123547 
L 217.809974 272.571067 
L 218.328764 276.511061 
L 218.847554 286.566614 
L 219.366344 286.086962 
L 219.885134 283.620183 
L 220.403924 292.168259 
L 220.922714 297.804164 
L 221.960294 285.812875 
L 222.479085 287.971307 
L 222.997875 293.675735 
L 223.516665 293.178953 
L 224.035455 285.658702 
L 224.554245 289.555871 
L 225.073035 290.883478 
L 225.591825 286.549483 
L 226.110615 284.913529 
L 226.629405 282.138402 
L 227.148195 284.194051 
M 228.185775 290.866347 
L 228.704565 284.468138 
L 229.223355 284.476703 
L 229.742145 291.046216 
L 230.260935 289.435958 
L 230.779725 284.990616 
L 231.298515 284.022747 
L 232.336095 290.001261 
L 232.854885 295.568645 
L 233.373675 295.688558 
L 233.892465 287.123352 
L 234.930045 290.857782 
L 235.448835 295.251733 
L 236.486415 293.4873 
L 237.005205 287.089091 
L 237.523995 287.123352 
L 238.042785 285.838571 
L 238.561575 283.877139 
L 239.599155 288.373872 
L 240.117945 291.405955 
L 240.636735 300.11677 
L 241.155525 300.981856 
L 242.193105 298.506511 
M 243.230685 298.969032 
L 243.749475 297.118948 
L 244.268265 304.133852 
L 244.787055 300.836247 
L 245.305845 292.742127 
L 246.343425 266.215684 
L 246.862215 266.969422 
L 247.381005 250.155922 
L 247.899795 170.430982 
L 248.418585 178.919101 
L 248.937375 179.535796 
L 249.456165 179.7071 
L 250.493745 212.717405 
L 251.012535 209.548279 
L 251.531325 208.914454 
L 252.050115 205.548328 
L 252.568905 204.983024 
L 253.087695 210.961538 
L 253.606485 206.165023 
L 254.125275 207.843803 
L 254.644065 195.398558 
L 255.162855 196.340731 
L 255.681645 202.661853 
L 256.200435 204.006591 
L 256.719225 180.837708 
L 257.238015 181.882663 
L 257.756805 184.546442 
L 258.275595 183.972573 
L 258.794385 180.760621 
L 259.313175 184.820529 
L 259.831965 180.734925 
L 260.350755 192.78617 
L 260.869545 222.207654 
L 261.388335 241.796281 
L 261.907125 248.263011 
L 262.425915 208.383411 
L 262.944706 200.683291 
L 263.463496 206.875935 
L 263.982286 217.26553 
L 264.501076 234.789942 
L 265.019866 220.614525 
L 265.538656 227.543777 
L 266.057446 232.297467 
M 267.095026 220.340439 
L 267.613816 222.002089 
L 268.132606 214.610316 
L 268.651396 210.824495 
L 269.170186 212.991492 
L 269.688976 202.798896 
L 270.207766 202.079419 
L 270.726556 196.152296 
L 271.245346 207.843803 
L 271.764136 202.54194 
L 272.282926 213.462578 
L 272.801716 213.74523 
L 273.320506 210.798799 
L 273.839296 222.644479 
L 274.358086 237.273852 
L 274.876876 237.20533 
L 275.395666 225.685128 
L 275.914456 223.226913 
L 276.952036 197.377121 
L 277.470826 193.976734 
L 278.508406 199.355684 
L 279.027196 195.544167 
L 279.545986 192.923214 
L 280.064776 188.101003 
L 280.583566 189.077436 
L 281.102356 180.015448 
L 281.621146 179.621448 
L 282.139936 176.281018 
L 282.658726 189.831174 
L 283.177516 196.400687 
L 283.696306 188.537828 
L 284.215096 145.531927 
L 284.733886 136.298635 
L 285.252676 139.973109 
L 286.290256 132.75264 
L 286.809046 137.985981 
L 287.327836 129.163818 
L 287.846626 128.264472 
L 288.365416 123.168174 
L 289.402996 118.328832 
L 289.921786 125.92617 
L 290.440576 122.988305 
L 290.959366 116.924139 
L 291.478156 120.49583 
L 291.996946 132.684118 
L 292.515736 122.440131 
L 293.034526 125.574997 
L 293.553316 112.984144 
L 294.072106 114.346012 
L 294.590896 98.765901 
L 295.109686 99.296944 
L 295.628476 105.892153 
L 296.147266 106.003501 
M 297.184846 104.196242 
L 297.703636 110.75719 
L 298.222426 89.823826 
L 298.741216 93.815212 
L 299.260006 102.243375 
L 299.778796 90.020826 
L 300.297586 93.070039 
L 300.816376 93.823777 
L 301.335166 103.039939 
L 301.853956 104.881459 
L 302.372746 113.952012 
L 302.891536 106.328978 
L 303.410327 110.071974 
L 303.929117 97.489686 
L 304.966697 113.575143 
L 305.485487 106.328978 
L 306.004277 104.418937 
L 306.523067 104.153416 
L 307.041857 105.789371 
M 308.079437 93.703864 
L 308.598227 81.635489 
L 309.117017 86.432004 
L 309.635807 96.813034 
M 310.673387 111.408146 
L 311.192177 110.774321 
L 311.710967 109.883539 
L 312.229757 124.641389 
L 312.748547 134.851115 
L 313.267337 133.514943 
L 313.786127 124.915476 
L 314.304917 146.765317 
L 314.823707 134.636985 
L 315.342497 151.998658 
M 316.380077 145.711797 
L 316.898867 148.572576 
L 317.417657 141.600498 
L 317.936447 125.617823 
L 318.455237 137.249373 
L 318.974027 136.07594 
L 319.492817 147.253534 
L 320.011607 120.72709 
L 320.530397 110.457408 
L 321.049187 102.705896 
L 321.567977 91.87091 
L 322.086767 124.161738 
L 322.605557 140.384239 
L 323.124347 161.317603 
L 323.643137 162.028515 
L 324.161927 165.994205 
L 324.680717 160.846516 
L 325.199507 161.711602 
L 325.718297 162.319732 
M 326.755877 154.953654 
L 327.274667 140.050195 
L 327.793457 149.514748 
L 328.312247 146.465535 
L 328.831037 141.711846 
L 329.349827 150.799529 
L 329.868617 147.621838 
L 330.387407 142.319975 
L 330.906197 142.902409 
L 331.424987 149.15501 
L 331.943777 131.133816 
L 332.462567 131.099555 
L 332.981357 136.606983 
L 333.500147 137.917459 
L 334.018937 151.390529 
L 334.537727 152.409788 
L 335.056517 142.756801 
L 335.575307 136.264374 
L 336.094097 124.273086 
L 336.612887 121.129655 
L 337.131677 122.979739 
L 337.650467 116.333139 
L 338.169257 114.88562 
L 338.688047 115.039793 
L 339.206837 111.194016 
L 339.725627 112.341753 
L 340.763207 117.009791 
M 341.800787 118.525832 
L 342.319577 108.89854 
L 342.838367 103.964982 
L 343.357157 108.744367 
L 343.875948 104.496024 
L 344.394738 108.45315 
L 344.913528 114.868489 
L 345.432318 108.110541 
L 345.951108 112.744318 
L 346.469898 113.712186 
L 346.988688 116.324574 
L 347.507478 110.337495 
L 348.026268 102.945722 
L 348.545058 101.678071 
L 349.063848 96.710252 
L 349.582638 90.19213 
L 350.101428 101.052811 
L 350.620218 102.132027 
L 351.139008 96.590339 
L 351.657798 131.168077 
L 352.176588 127.416516 
L 352.695378 140.272891 
L 353.214168 142.242888 
L 353.732958 154.936524 
L 354.251748 153.232048 
L 354.770538 148.778141 
L 355.289328 153.788786 
L 355.808118 150.928007 
L 356.326908 146.020144 
L 356.845698 137.720459 
L 357.364488 136.195853 
L 357.883278 127.390821 
L 358.402068 134.148768 
L 358.920858 135.844679 
L 359.439648 137.96885 
L 359.958438 133.120944 
L 360.477228 141.908845 
L 360.996018 141.566237 
L 361.514808 146.970882 
L 362.033598 138.902458 
L 362.552388 143.613321 
L 363.071178 130.037469 
L 363.589968 125.600693 
L 364.108758 126.585691 
L 364.627548 119.271005 
M 365.665128 116.650052 
L 366.183918 117.994789 
L 366.702708 121.206742 
L 367.221498 128.110298 
L 367.740288 133.069552 
L 368.259078 132.9839 
L 368.777868 123.022565 
L 369.296658 122.765609 
L 369.815448 130.619903 
L 370.334238 131.51925 
L 370.853028 131.596337 
L 371.371818 131.039599 
L 371.890608 138.371415 
L 372.409398 154.33696 
L 373.965768 149.420531 
L 374.484558 145.643275 
L 375.003348 168.46955 
L 375.522138 174.430933 
L 376.040928 164.34112 
L 376.559718 160.855081 
L 377.597298 147.92162 
M 378.634878 151.964397 
L 379.153668 149.15501 
L 379.672458 151.219224 
L 380.710038 134.320073 
L 381.228828 129.566383 
L 381.747618 132.701249 
L 382.266408 129.300862 
L 382.785198 130.243034 
L 383.303988 118.311702 
L 383.822778 115.587966 
L 384.341569 111.964884 
L 384.860359 114.157577 
L 385.379149 110.637277 
L 385.897939 113.181143 
L 386.416729 114.337446 
L 386.935519 111.468102 
L 387.454309 107.922107 
L 387.973099 88.324915 
L 388.491889 84.821746 
L 389.010679 86.372048 
L 389.529469 84.564789 
L 390.048259 85.909527 
L 390.567049 76.821843 
L 391.085839 77.215842 
L 391.604629 75.074541 
L 392.123419 74.714802 
L 392.642209 74.569194 
L 393.160999 75.965322 
L 393.679789 76.633408 
L 394.198579 81.172968 
L 394.717369 78.800406 
L 396.273739 85.447006 
L 396.792529 85.506962 
L 397.311319 87.596872 
L 397.830109 87.793872 
L 398.348899 87.682524 
L 398.867689 85.447006 
L 399.386479 88.067959 
L 399.905269 89.815261 
L 400.424059 88.33348 
L 400.942849 86.038005 
M 401.980429 78.654797 
L 402.499219 78.423537 
L 403.018009 82.731835 
L 403.536799 96.144948 
L 404.055589 88.127915 
L 404.574379 96.119253 
L 405.093169 93.720995 
L 405.611959 85.781049 
L 406.649539 90.971564 
L 407.687119 81.960967 
L 408.205909 72.547805 
L 408.724699 72.813326 
L 409.243489 83.682573 
L 409.762279 76.145192 
L 410.281069 77.387147 
L 410.799859 82.997357 
L 411.318649 81.04449 
L 411.837439 85.095832 
L 412.356229 81.781097 
L 412.875019 81.746837 
L 413.393809 81.412794 
L 413.912599 82.9374 
L 414.431389 73.635586 
L 414.950179 76.0938 
L 415.468969 73.464282 
L 415.987759 80.273621 
L 416.506549 79.982404 
L 417.025339 78.75758 
L 417.544129 65.652814 
L 418.062919 60.256734 
L 418.581709 64.188164 
L 419.100499 62.132514 
L 419.619289 50.363921 
L 420.138079 55.023393 
L 420.656869 62.38947 
L 421.175659 65.575727 
L 421.694449 65.558597 
L 422.213239 74.834715 
L 422.732029 75.631279 
L 423.250819 88.402002 
L 423.769609 94.029342 
L 424.288399 94.12356 
L 424.80719 76.564887 
L 425.32598 69.721287 
L 425.84477 74.175194 
L 426.36356 93.661038 
L 426.88235 100.975725 
L 427.40114 116.341705 
L 427.91993 97.147077 
L 428.95751 86.235005 
L 429.4763 95.39121 
L 429.99509 87.973741 
L 430.51388 88.770306 
L 431.03267 95.005776 
M 432.07025 94.414777 
L 432.58904 88.796001 
L 433.10783 86.569048 
L 434.14541 106.2005 
L 434.6642 103.990677 
L 435.18299 93.695299 
L 435.70178 96.616035 
L 436.22057 86.269265 
L 436.73936 81.789663 
L 437.25815 70.766242 
L 437.77694 70.783373 
L 438.29573 64.933337 
L 439.33331 63.434426 
L 439.8521 69.472896 
L 440.37089 66.560726 
L 440.88968 64.65925 
L 441.40847 66.252378 
L 441.92726 69.078897 
L 442.44605 70.235199 
M 443.48363 68.830506 
L 444.00242 74.39789 
L 444.52121 76.333626 
L 445.04 85.729657 
L 445.04 85.729657 
" style="fill:none;stroke:#0000ff;stroke-linecap:square;"/>
   </g>
   <g id="line2d_2">
    <path clip-path="url(#pe0a315c67c)" d="M 86.556101 270.583939 
L 87.074891 274.052847 
L 87.593681 268.785245 
L 88.112471 259.569084 
L 88.631261 258.558389 
L 89.150051 263.260687 
L 89.668841 263.286383 
L 90.187631 266.361292 
L 90.706421 255.05522 
L 91.225211 255.389263 
L 91.744001 252.14305 
L 92.262791 254.575568 
M 93.300371 248.939663 
L 93.819161 248.374359 
L 94.337951 250.4814 
L 94.856741 266.001553 
L 95.375531 275.671671 
L 95.894321 266.352727 
L 96.413111 273.230587 
L 96.931901 261.050864 
L 97.450691 241.556455 
L 97.969481 261.890254 
L 99.007061 257.710434 
L 100.044641 243.063931 
L 100.563431 244.991102 
L 101.082222 237.61646 
L 101.601012 239.106806 
L 102.119802 233.45377 
L 102.638592 232.211815 
M 103.676172 228.760037 
L 104.194962 232.408814 
L 104.713752 231.655076 
L 105.232542 231.79212 
L 106.270122 224.854303 
L 106.788912 224.785781 
L 107.307702 225.188346 
L 107.826492 226.712952 
L 108.345282 232.263206 
L 108.864072 227.029865 
L 109.382862 225.599476 
L 109.901652 225.017041 
L 110.420442 227.081256 
L 110.939232 228.460254 
L 111.458022 233.410944 
L 111.976812 230.284643 
L 113.014392 245.051059 
L 114.051972 228.597298 
L 114.570762 233.727856 
L 115.089552 234.627203 
L 115.608342 240.665673 
L 116.127132 251.406442 
L 116.645922 251.072399 
L 117.164712 262.515514 
L 117.683502 270.087157 
L 118.202292 267.577551 
L 118.721082 269.984374 
L 119.239872 261.264994 
L 119.758662 261.179342 
L 120.277452 258.815345 
L 120.796242 281.598794 
L 121.315032 285.872832 
L 121.833822 271.526111 
L 122.352612 263.611861 
L 122.871402 283.474574 
L 123.390192 292.339563 
L 123.908982 290.695043 
L 124.427772 287.337482 
L 124.946562 270.121418 
L 125.465352 287.628699 
M 126.502932 294.035473 
L 127.021722 288.733611 
L 127.540512 295.474428 
L 128.059302 296.999035 
L 128.578092 304.69059 
L 129.096882 303.859765 
L 129.615672 294.823472 
L 130.134462 295.714254 
L 130.653252 291.697172 
L 131.172042 294.626473 
L 131.690832 294.729255 
L 132.209622 305.581371 
L 132.728412 310.018148 
L 133.247202 309.127367 
L 133.765992 302.506462 
L 134.284782 292.921997 
L 134.803572 290.206826 
L 135.841152 301.435812 
L 136.359942 300.879073 
L 136.878732 293.829909 
L 137.397522 293.050475 
L 137.916312 285.196181 
L 138.435102 279.954274 
L 138.953892 273.410457 
M 139.991472 262.061559 
L 140.510262 265.718902 
L 141.029052 267.089335 
L 141.547843 267.252074 
L 142.066633 272.356936 
L 142.585423 280.057057 
L 143.104213 280.296883 
L 143.623003 272.382632 
L 144.141793 270.301287 
L 144.660583 265.342033 
L 145.698163 268.15142 
L 146.216953 274.56676 
L 146.735743 274.215586 
L 147.254533 280.62236 
L 147.773323 281.710142 
L 148.292113 272.836588 
L 149.329693 270.275591 
L 149.848483 262.918079 
L 150.367273 263.200731 
L 150.886063 251.183747 
L 151.404853 253.453526 
L 151.923643 252.391441 
L 152.442433 254.070221 
L 152.961223 247.740534 
L 153.480013 248.023185 
L 153.998803 245.976101 
M 155.036383 248.100272 
L 155.555173 257.659043 
L 156.073963 253.385005 
L 156.592753 257.650477 
L 157.111543 250.729791 
L 157.630333 245.856188 
L 158.149123 245.933275 
L 158.667913 247.749099 
L 159.186703 255.397828 
L 159.705493 237.111113 
L 160.224283 241.916193 
L 160.743073 237.40233 
L 161.261863 236.340244 
L 161.780653 238.592893 
L 162.299443 242.301628 
L 162.818233 240.948325 
L 163.337023 245.222363 
L 163.855813 243.672061 
L 164.374603 257.222217 
L 164.893393 261.958776 
L 165.412183 255.89461 
L 165.930973 262.815297 
L 166.449763 261.70182 
L 166.968553 264.279947 
L 167.487343 259.64617 
L 168.006133 260.408474 
L 168.524923 264.819555 
L 169.043713 254.498481 
L 169.562503 254.609829 
L 170.081293 255.611958 
L 170.600083 248.177359 
L 171.118873 244.151712 
L 171.637663 246.181666 
L 172.156453 247.140969 
L 172.675243 247.834751 
L 173.712823 251.860398 
L 174.231613 257.736129 
L 174.750403 259.277866 
L 175.269193 257.222217 
M 176.306773 252.314354 
L 176.825563 251.791876 
L 178.381933 241.702063 
L 178.900723 249.162358 
L 179.419513 247.37223 
L 179.938303 248.871141 
L 180.457093 253.779004 
L 180.975883 255.937436 
L 181.494673 250.07027 
L 182.532254 242.087498 
L 183.051044 236.254592 
L 183.569834 243.714887 
L 184.088624 249.059575 
L 184.607414 243.183844 
L 185.126204 254.258656 
L 185.644994 252.511354 
L 186.163784 253.145179 
L 186.682574 252.288658 
L 187.201364 260.074431 
L 187.720154 258.524128 
L 188.238944 254.070221 
L 188.757734 252.297223 
L 189.276524 263.954469 
L 189.795314 256.451348 
L 190.314104 266.404118 
L 190.832894 280.442491 
L 191.351684 290.104044 
L 191.870474 286.052701 
L 192.389264 292.827779 
L 192.908054 297.555773 
L 193.426844 308.981758 
L 193.945634 300.699204 
L 194.983214 290.532304 
L 195.502004 280.879317 
L 196.020794 284.476703 
L 196.539584 283.628748 
L 197.058374 276.665235 
L 197.577164 276.296931 
L 198.095954 275.457541 
L 198.614744 267.945855 
L 199.133534 271.252025 
L 199.652324 272.202763 
L 200.171114 279.217667 
L 200.689904 282.540967 
L 201.208694 283.423183 
L 201.727484 277.872929 
L 202.246274 275.474672 
L 202.765064 278.027103 
L 203.283854 279.680188 
L 203.802644 280.519578 
L 204.321434 287.277526 
L 204.840224 288.545176 
L 205.359014 286.866396 
L 205.877804 288.71648 
L 206.396594 286.42957 
L 207.434174 283.363226 
L 207.952964 283.971356 
M 208.990544 282.720836 
L 209.509334 289.598697 
L 210.028124 289.641523 
L 210.546914 291.722868 
L 211.065704 286.592309 
L 211.584494 296.913383 
L 212.103284 295.440167 
L 212.622074 289.967 
L 213.140864 296.228166 
L 213.659654 294.275299 
L 214.178444 302.566419 
L 214.697234 306.729109 
L 215.216024 322.497654 
L 215.734814 314.360708 
L 216.772394 304.544982 
L 217.291184 297.247426 
L 217.809974 292.348128 
L 218.328764 293.906995 
M 219.366344 289.401697 
L 219.885134 292.570823 
L 220.403924 292.493736 
L 220.922714 295.936949 
M 221.960294 297.298817 
L 222.997875 316.870313 
L 223.516665 317.606921 
L 224.035455 316.253618 
L 224.554245 321.829568 
L 225.073035 324.930172 
L 225.591825 321.821003 
L 226.110615 317.803921 
L 226.629405 317.015922 
L 227.148195 311.628407 
M 228.185775 312.639101 
L 228.704565 303.097462 
L 229.223355 289.093349 
L 229.742145 284.331095 
L 230.260935 288.391003 
L 230.779725 302.592115 
L 231.298515 309.983887 
L 231.817305 309.418584 
L 232.336095 288.982002 
L 232.854885 294.155386 
L 233.373675 293.504431 
L 233.892465 299.054684 
L 234.411255 294.926255 
L 234.930045 291.996954 
L 235.448835 294.712125 
L 235.967625 286.909222 
L 236.486415 287.740047 
L 237.523995 276.571018 
M 238.561575 281.85575 
L 239.080365 284.545225 
L 239.599155 281.830055 
L 240.117945 285.187615 
L 240.636735 291.217521 
L 241.155525 287.637264 
L 241.674315 280.973534 
L 242.193105 271.029329 
L 242.711895 268.528289 
L 243.230685 257.444912 
L 243.749475 255.474915 
L 244.268265 255.706175 
L 244.787055 254.027395 
L 245.305845 260.579778 
L 245.824635 259.577649 
L 246.343425 271.431894 
L 246.862215 274.712368 
L 247.381005 271.003634 
L 247.899795 278.018538 
L 248.418585 271.860154 
L 248.937375 275.003585 
L 249.456165 267.586117 
L 249.974955 268.879463 
L 250.493745 266.849509 
L 251.012535 268.177116 
L 251.531325 258.429911 
L 252.050115 268.202811 
L 252.568905 271.294851 
L 253.087695 277.144887 
L 253.606485 273.984326 
L 254.125275 277.436104 
L 254.644065 282.095576 
L 255.162855 288.116916 
M 256.200435 287.063396 
L 256.719225 286.8407 
L 257.238015 282.909271 
L 258.794385 284.999181 
L 259.313175 292.519432 
L 259.831965 290.686478 
L 260.350755 289.598697 
L 260.869545 297.949773 
L 261.388335 288.245394 
L 261.907125 289.453088 
L 262.425915 284.836442 
L 262.944706 278.292624 
L 263.463496 262.823862 
L 263.982286 271.123547 
L 264.501076 272.571067 
L 265.019866 276.511061 
L 265.538656 286.566614 
L 266.057446 286.086962 
L 266.576236 283.620183 
L 267.095026 292.168259 
L 267.613816 297.804164 
L 268.651396 285.812875 
L 269.170186 287.971307 
L 269.688976 293.675735 
L 270.207766 293.178953 
L 270.726556 285.658702 
L 271.245346 289.555871 
L 271.764136 290.883478 
L 272.282926 286.549483 
L 272.801716 284.913529 
L 273.320506 282.138402 
L 273.839296 284.194051 
M 274.876876 290.866347 
L 275.395666 284.468138 
L 275.914456 284.476703 
L 276.433246 291.046216 
L 276.952036 289.435958 
L 277.470826 284.990616 
L 277.989616 284.022747 
L 279.027196 290.001261 
L 279.545986 295.568645 
L 280.064776 295.688558 
L 280.583566 287.123352 
L 281.621146 290.857782 
L 282.139936 295.251733 
L 283.177516 293.4873 
L 283.696306 287.089091 
L 284.215096 287.123352 
L 284.733886 285.838571 
L 285.252676 283.877139 
L 286.290256 288.373872 
L 286.809046 291.405955 
L 287.327836 300.11677 
L 287.846626 300.981856 
L 288.884206 298.506511 
M 289.921786 298.969032 
L 290.440576 297.118948 
L 290.959366 304.133852 
L 291.478156 300.836247 
L 291.996946 292.742127 
L 293.034526 266.215684 
L 293.553316 266.969422 
L 294.072106 250.155922 
L 294.590896 170.430982 
L 295.109686 178.919101 
L 295.628476 179.535796 
L 296.147266 179.7071 
L 297.184846 212.717405 
L 297.703636 209.548279 
L 298.222426 208.914454 
L 298.741216 205.548328 
L 299.260006 204.983024 
L 299.778796 210.961538 
L 300.297586 206.165023 
L 300.816376 207.843803 
L 301.335166 195.398558 
L 301.853956 196.340731 
L 302.372746 202.661853 
L 302.891536 204.006591 
L 303.410327 180.837708 
L 303.929117 181.882663 
L 304.447907 184.546442 
L 304.966697 183.972573 
L 305.485487 180.760621 
L 306.004277 184.820529 
L 306.523067 180.734925 
L 307.041857 192.78617 
L 307.560647 222.207654 
L 308.079437 241.796281 
L 308.598227 248.263011 
L 309.117017 208.383411 
L 309.635807 200.683291 
L 310.154597 206.875935 
L 310.673387 217.26553 
L 311.192177 234.789942 
L 311.710967 220.614525 
L 312.229757 227.543777 
L 312.748547 232.297467 
M 313.786127 220.340439 
L 314.304917 222.002089 
L 314.823707 214.610316 
L 315.342497 210.824495 
L 315.861287 212.991492 
L 316.380077 202.798896 
L 316.898867 202.079419 
L 317.417657 196.152296 
L 317.936447 207.843803 
L 318.455237 202.54194 
L 318.974027 213.462578 
L 319.492817 213.74523 
L 320.011607 210.798799 
L 320.530397 222.644479 
L 321.049187 237.273852 
L 321.567977 237.20533 
L 322.086767 225.685128 
L 322.605557 223.226913 
L 323.643137 197.377121 
L 324.161927 193.976734 
L 325.199507 199.355684 
L 325.718297 195.544167 
L 326.237087 192.923214 
L 326.755877 188.101003 
L 327.274667 189.077436 
L 327.793457 180.015448 
L 328.312247 179.621448 
L 328.831037 176.281018 
L 329.349827 189.831174 
L 329.868617 196.400687 
L 330.387407 188.537828 
L 330.906197 145.531927 
L 331.424987 136.298635 
L 331.943777 139.973109 
L 332.981357 132.75264 
L 333.500147 137.985981 
L 334.018937 129.163818 
L 334.537727 128.264472 
L 335.056517 123.168174 
L 336.094097 118.328832 
L 336.612887 125.92617 
L 337.131677 122.988305 
L 337.650467 116.924139 
L 338.169257 120.49583 
L 338.688047 132.684118 
L 339.206837 122.440131 
L 339.725627 125.574997 
L 340.244417 112.984144 
L 340.763207 114.346012 
L 341.281997 98.765901 
L 341.800787 99.296944 
L 342.319577 105.892153 
L 342.838367 106.003501 
M 343.875948 104.196242 
L 344.394738 110.75719 
L 344.913528 89.823826 
L 345.432318 93.815212 
L 345.951108 102.243375 
L 346.469898 90.020826 
L 346.988688 93.070039 
L 347.507478 93.823777 
L 348.026268 103.039939 
L 348.545058 104.881459 
L 349.063848 113.952012 
L 349.582638 106.328978 
L 350.101428 110.071974 
L 350.620218 97.489686 
L 351.657798 113.575143 
L 352.176588 106.328978 
L 352.695378 104.418937 
L 353.214168 104.153416 
L 353.732958 105.789371 
M 354.770538 93.703864 
L 355.289328 81.635489 
L 355.808118 86.432004 
L 356.326908 96.813034 
M 357.364488 111.408146 
L 357.883278 110.774321 
L 358.402068 109.883539 
L 358.920858 124.641389 
L 359.439648 134.851115 
L 359.958438 133.514943 
L 360.477228 124.915476 
L 360.996018 146.765317 
L 361.514808 134.636985 
L 362.033598 151.998658 
M 363.071178 145.711797 
L 363.589968 148.572576 
L 364.108758 141.600498 
L 364.627548 125.617823 
L 365.146338 137.249373 
L 365.665128 136.07594 
L 366.183918 147.253534 
L 366.702708 120.72709 
L 367.221498 110.457408 
L 367.740288 102.705896 
L 368.259078 91.87091 
L 368.777868 124.161738 
L 369.296658 140.384239 
L 369.815448 161.317603 
L 370.334238 162.028515 
L 370.853028 165.994205 
L 371.371818 160.846516 
L 371.890608 161.711602 
L 372.409398 162.319732 
M 373.446978 154.953654 
L 373.965768 140.050195 
L 374.484558 149.514748 
L 375.003348 146.465535 
L 375.522138 141.711846 
L 376.040928 150.799529 
L 376.559718 147.621838 
L 377.078508 142.319975 
L 377.597298 142.902409 
L 378.116088 149.15501 
L 378.634878 131.133816 
L 379.153668 131.099555 
L 379.672458 136.606983 
L 380.191248 137.917459 
L 380.710038 151.390529 
L 381.228828 152.409788 
L 381.747618 142.756801 
L 382.266408 136.264374 
L 382.785198 124.273086 
L 383.303988 121.129655 
L 383.822778 122.979739 
L 384.341569 116.333139 
L 384.860359 114.88562 
L 385.379149 115.039793 
L 385.897939 111.194016 
L 386.416729 112.341753 
L 387.454309 117.009791 
M 388.491889 118.525832 
L 389.010679 108.89854 
L 389.529469 103.964982 
L 390.048259 108.744367 
L 390.567049 104.496024 
L 391.085839 108.45315 
L 391.604629 114.868489 
L 392.123419 108.110541 
L 392.642209 112.744318 
L 393.160999 113.712186 
L 393.679789 116.324574 
L 394.198579 110.337495 
L 394.717369 102.945722 
L 395.236159 101.678071 
L 395.754949 96.710252 
L 396.273739 90.19213 
L 396.792529 101.052811 
L 397.311319 102.132027 
L 397.830109 96.590339 
L 398.348899 131.168077 
L 398.867689 127.416516 
L 399.386479 140.272891 
L 399.905269 142.242888 
L 400.424059 154.936524 
L 400.942849 153.232048 
L 401.461639 148.778141 
L 401.980429 153.788786 
L 402.499219 150.928007 
L 403.018009 146.020144 
L 403.536799 137.720459 
L 404.055589 136.195853 
L 404.574379 127.390821 
L 405.093169 134.148768 
L 405.611959 135.844679 
L 406.130749 137.96885 
L 406.649539 133.120944 
L 407.168329 141.908845 
L 407.687119 141.566237 
L 408.205909 146.970882 
L 408.724699 138.902458 
L 409.243489 143.613321 
L 409.762279 130.037469 
L 410.281069 125.600693 
L 410.799859 126.585691 
L 411.318649 119.271005 
M 412.356229 116.650052 
L 412.875019 117.994789 
L 413.393809 121.206742 
L 413.912599 128.110298 
L 414.431389 133.069552 
L 414.950179 132.9839 
L 415.468969 123.022565 
L 415.987759 122.765609 
L 416.506549 130.619903 
L 417.025339 131.51925 
L 417.544129 131.596337 
L 418.062919 131.039599 
L 418.581709 138.371415 
L 419.100499 154.33696 
L 420.656869 149.420531 
L 421.175659 145.643275 
L 421.694449 168.46955 
L 422.213239 174.430933 
L 422.732029 164.34112 
L 423.250819 160.855081 
L 424.288399 147.92162 
M 425.32598 151.964397 
L 425.84477 149.15501 
L 426.36356 151.219224 
L 427.40114 134.320073 
L 427.91993 129.566383 
L 428.43872 132.701249 
L 428.95751 129.300862 
L 429.4763 130.243034 
L 429.99509 118.311702 
L 430.51388 115.587966 
L 431.03267 111.964884 
L 431.55146 114.157577 
L 432.07025 110.637277 
L 432.58904 113.181143 
L 433.10783 114.337446 
L 433.62662 111.468102 
L 434.14541 107.922107 
L 434.6642 88.324915 
L 435.18299 84.821746 
L 435.70178 86.372048 
L 436.22057 84.564789 
L 436.73936 85.909527 
L 437.25815 76.821843 
L 437.77694 77.215842 
L 438.29573 75.074541 
L 438.81452 74.714802 
L 439.33331 74.569194 
L 439.8521 75.965322 
L 440.37089 76.633408 
L 440.88968 81.172968 
L 441.40847 78.800406 
L 442.96484 85.447006 
L 443.48363 85.506962 
L 444.00242 87.596872 
L 444.52121 87.793872 
L 445.04 87.682524 
L 445.04 87.682524 
" style="fill:none;stroke:#008000;stroke-linecap:square;"/>
   </g>
   <g id="line2d_3">
    <path clip-path="url(#pe0a315c67c)" d="M 39.865 309.127367 
L 40.38379 302.506462 
L 40.90258 292.921997 
L 41.42137 290.206826 
L 42.45895 301.435812 
L 42.97774 300.879073 
L 43.49653 293.829909 
L 44.01532 293.050475 
L 44.53411 285.196181 
L 45.0529 279.954274 
L 45.57169 273.410457 
M 46.60927 262.061559 
L 47.12806 265.718902 
L 47.64685 267.089335 
L 48.16564 267.252074 
L 48.68443 272.356936 
L 49.20322 280.057057 
L 49.72201 280.296883 
L 50.2408 272.382632 
L 50.75959 270.301287 
L 51.27838 265.342033 
L 52.31596 268.15142 
L 52.83475 274.56676 
L 53.35354 274.215586 
L 53.87233 280.62236 
L 54.39112 281.710142 
L 54.90991 272.836588 
L 55.94749 270.275591 
L 56.46628 262.918079 
L 56.98507 263.200731 
L 57.50386 251.183747 
L 58.02265 253.453526 
L 58.54144 252.391441 
L 59.06023 254.070221 
L 59.57902 247.740534 
L 60.09781 248.023185 
L 60.616601 245.976101 
M 61.654181 248.100272 
L 62.172971 257.659043 
L 62.691761 253.385005 
L 63.210551 257.650477 
L 63.729341 250.729791 
L 64.248131 245.856188 
L 64.766921 245.933275 
L 65.285711 247.749099 
L 65.804501 255.397828 
L 66.323291 237.111113 
L 66.842081 241.916193 
L 67.360871 237.40233 
L 67.879661 236.340244 
L 68.398451 238.592893 
L 68.917241 242.301628 
L 69.436031 240.948325 
L 69.954821 245.222363 
L 70.473611 243.672061 
L 70.992401 257.222217 
L 71.511191 261.958776 
L 72.029981 255.89461 
L 72.548771 262.815297 
L 73.067561 261.70182 
L 73.586351 264.279947 
L 74.105141 259.64617 
L 74.623931 260.408474 
L 75.142721 264.819555 
L 75.661511 254.498481 
L 76.180301 254.609829 
L 76.699091 255.611958 
L 77.217881 248.177359 
L 77.736671 244.151712 
L 78.255461 246.181666 
L 78.774251 247.140969 
L 79.293041 247.834751 
L 80.330621 251.860398 
L 80.849411 257.736129 
L 81.368201 259.277866 
L 81.886991 257.222217 
M 82.924571 252.314354 
L 83.443361 251.791876 
L 84.999731 241.702063 
L 85.518521 249.162358 
L 86.037311 247.37223 
L 86.556101 248.871141 
L 87.074891 253.779004 
L 87.593681 255.937436 
L 88.112471 250.07027 
L 89.150051 242.087498 
L 89.668841 236.254592 
L 90.187631 243.714887 
L 90.706421 249.059575 
L 91.225211 243.183844 
L 91.744001 254.258656 
L 92.262791 252.511354 
L 92.781581 253.145179 
L 93.300371 252.288658 
L 93.819161 260.074431 
L 94.337951 258.524128 
L 94.856741 254.070221 
L 95.375531 252.297223 
L 95.894321 263.954469 
L 96.413111 256.451348 
L 96.931901 266.404118 
L 97.450691 280.442491 
L 97.969481 290.104044 
L 98.488271 286.052701 
L 99.007061 292.827779 
L 99.525851 297.555773 
L 100.044641 308.981758 
L 100.563431 300.699204 
L 101.601012 290.532304 
L 102.119802 280.879317 
L 102.638592 284.476703 
L 103.157382 283.628748 
L 103.676172 276.665235 
L 104.194962 276.296931 
L 104.713752 275.457541 
L 105.232542 267.945855 
L 105.751332 271.252025 
L 106.270122 272.202763 
L 106.788912 279.217667 
L 107.307702 282.540967 
L 107.826492 283.423183 
L 108.345282 277.872929 
L 108.864072 275.474672 
L 109.382862 278.027103 
L 109.901652 279.680188 
L 110.420442 280.519578 
L 110.939232 287.277526 
L 111.458022 288.545176 
L 111.976812 286.866396 
L 112.495602 288.71648 
L 113.014392 286.42957 
L 114.051972 283.363226 
L 114.570762 283.971356 
M 115.608342 282.720836 
L 116.127132 289.598697 
L 116.645922 289.641523 
L 117.164712 291.722868 
L 117.683502 286.592309 
L 118.202292 296.913383 
L 118.721082 295.440167 
L 119.239872 289.967 
L 119.758662 296.228166 
L 120.277452 294.275299 
L 120.796242 302.566419 
L 121.315032 306.729109 
L 121.833822 322.497654 
L 122.352612 314.360708 
L 123.390192 304.544982 
L 123.908982 297.247426 
L 124.427772 292.348128 
L 124.946562 293.906995 
M 125.984142 289.401697 
L 126.502932 292.570823 
L 127.021722 292.493736 
L 127.540512 295.936949 
M 128.578092 297.298817 
L 129.615672 316.870313 
L 130.134462 317.606921 
L 130.653252 316.253618 
L 131.172042 321.829568 
L 131.690832 324.930172 
L 132.209622 321.821003 
L 132.728412 317.803921 
L 133.247202 317.015922 
L 133.765992 311.628407 
M 134.803572 312.639101 
L 135.322362 303.097462 
L 135.841152 289.093349 
L 136.359942 284.331095 
L 136.878732 288.391003 
L 137.397522 302.592115 
L 137.916312 309.983887 
L 138.435102 309.418584 
L 138.953892 288.982002 
L 139.472682 294.155386 
L 139.991472 293.504431 
L 140.510262 299.054684 
L 141.029052 294.926255 
L 141.547843 291.996954 
L 142.066633 294.712125 
L 142.585423 286.909222 
L 143.104213 287.740047 
L 144.141793 276.571018 
M 145.179373 281.85575 
L 145.698163 284.545225 
L 146.216953 281.830055 
L 146.735743 285.187615 
L 147.254533 291.217521 
L 147.773323 287.637264 
L 148.292113 280.973534 
L 148.810903 271.029329 
L 149.329693 268.528289 
L 149.848483 257.444912 
L 150.367273 255.474915 
L 150.886063 255.706175 
L 151.404853 254.027395 
L 151.923643 260.579778 
L 152.442433 259.577649 
L 152.961223 271.431894 
L 153.480013 274.712368 
L 153.998803 271.003634 
L 154.517593 278.018538 
L 155.036383 271.860154 
L 155.555173 275.003585 
L 156.073963 267.586117 
L 156.592753 268.879463 
L 157.111543 266.849509 
L 157.630333 268.177116 
L 158.149123 258.429911 
L 158.667913 268.202811 
L 159.186703 271.294851 
L 159.705493 277.144887 
L 160.224283 273.984326 
L 160.743073 277.436104 
L 161.261863 282.095576 
L 161.780653 288.116916 
M 162.818233 287.063396 
L 163.337023 286.8407 
L 163.855813 282.909271 
L 165.412183 284.999181 
L 165.930973 292.519432 
L 166.449763 290.686478 
L 166.968553 289.598697 
L 167.487343 297.949773 
L 168.006133 288.245394 
L 168.524923 289.453088 
L 169.043713 284.836442 
L 169.562503 278.292624 
L 170.081293 262.823862 
L 170.600083 271.123547 
L 171.118873 272.571067 
L 171.637663 276.511061 
L 172.156453 286.566614 
L 172.675243 286.086962 
L 173.194033 283.620183 
L 173.712823 292.168259 
L 174.231613 297.804164 
L 175.269193 285.812875 
L 175.787983 287.971307 
L 176.306773 293.675735 
L 176.825563 293.178953 
L 177.344353 285.658702 
L 177.863143 289.555871 
L 178.381933 290.883478 
L 178.900723 286.549483 
L 179.419513 284.913529 
L 179.938303 282.138402 
L 180.457093 284.194051 
M 181.494673 290.866347 
L 182.013464 284.468138 
L 182.532254 284.476703 
L 183.051044 291.046216 
L 183.569834 289.435958 
L 184.088624 284.990616 
L 184.607414 284.022747 
L 185.644994 290.001261 
L 186.163784 295.568645 
L 186.682574 295.688558 
L 187.201364 287.123352 
L 188.238944 290.857782 
L 188.757734 295.251733 
L 189.795314 293.4873 
L 190.314104 287.089091 
L 190.832894 287.123352 
L 191.351684 285.838571 
L 191.870474 283.877139 
L 192.908054 288.373872 
L 193.426844 291.405955 
L 193.945634 300.11677 
L 194.464424 300.981856 
L 195.502004 298.506511 
M 196.539584 298.969032 
L 197.058374 297.118948 
L 197.577164 304.133852 
L 198.095954 300.836247 
L 198.614744 292.742127 
L 199.652324 266.215684 
L 200.171114 266.969422 
L 200.689904 250.155922 
L 201.208694 170.430982 
L 201.727484 178.919101 
L 202.246274 179.535796 
L 202.765064 179.7071 
L 203.802644 212.717405 
L 204.321434 209.548279 
L 204.840224 208.914454 
L 205.359014 205.548328 
L 205.877804 204.983024 
L 206.396594 210.961538 
L 206.915384 206.165023 
L 207.434174 207.843803 
L 207.952964 195.398558 
L 208.471754 196.340731 
L 208.990544 202.661853 
L 209.509334 204.006591 
L 210.028124 180.837708 
L 210.546914 181.882663 
L 211.065704 184.546442 
L 211.584494 183.972573 
L 212.103284 180.760621 
L 212.622074 184.820529 
L 213.140864 180.734925 
L 213.659654 192.78617 
L 214.178444 222.207654 
L 214.697234 241.796281 
L 215.216024 248.263011 
L 215.734814 208.383411 
L 216.253604 200.683291 
L 216.772394 206.875935 
L 217.291184 217.26553 
L 217.809974 234.789942 
L 218.328764 220.614525 
L 218.847554 227.543777 
L 219.366344 232.297467 
M 220.403924 220.340439 
L 220.922714 222.002089 
L 221.441504 214.610316 
L 221.960294 210.824495 
L 222.479085 212.991492 
L 222.997875 202.798896 
L 223.516665 202.079419 
L 224.035455 196.152296 
L 224.554245 207.843803 
L 225.073035 202.54194 
L 225.591825 213.462578 
L 226.110615 213.74523 
L 226.629405 210.798799 
L 227.148195 222.644479 
L 227.666985 237.273852 
L 228.185775 237.20533 
L 228.704565 225.685128 
L 229.223355 223.226913 
L 230.260935 197.377121 
L 230.779725 193.976734 
L 231.817305 199.355684 
L 232.336095 195.544167 
L 232.854885 192.923214 
L 233.373675 188.101003 
L 233.892465 189.077436 
L 234.411255 180.015448 
L 234.930045 179.621448 
L 235.448835 176.281018 
L 235.967625 189.831174 
L 236.486415 196.400687 
L 237.005205 188.537828 
L 237.523995 145.531927 
L 238.042785 136.298635 
L 238.561575 139.973109 
L 239.599155 132.75264 
L 240.117945 137.985981 
L 240.636735 129.163818 
L 241.155525 128.264472 
L 241.674315 123.168174 
L 242.711895 118.328832 
L 243.230685 125.92617 
L 243.749475 122.988305 
L 244.268265 116.924139 
L 244.787055 120.49583 
L 245.305845 132.684118 
L 245.824635 122.440131 
L 246.343425 125.574997 
L 246.862215 112.984144 
L 247.381005 114.346012 
L 247.899795 98.765901 
L 248.418585 99.296944 
L 248.937375 105.892153 
L 249.456165 106.003501 
M 250.493745 104.196242 
L 251.012535 110.75719 
L 251.531325 89.823826 
L 252.050115 93.815212 
L 252.568905 102.243375 
L 253.087695 90.020826 
L 253.606485 93.070039 
L 254.125275 93.823777 
L 254.644065 103.039939 
L 255.162855 104.881459 
L 255.681645 113.952012 
L 256.200435 106.328978 
L 256.719225 110.071974 
L 257.238015 97.489686 
L 258.275595 113.575143 
L 258.794385 106.328978 
L 259.313175 104.418937 
L 259.831965 104.153416 
L 260.350755 105.789371 
M 261.388335 93.703864 
L 261.907125 81.635489 
L 262.425915 86.432004 
L 262.944706 96.813034 
M 263.982286 111.408146 
L 264.501076 110.774321 
L 265.019866 109.883539 
L 265.538656 124.641389 
L 266.057446 134.851115 
L 266.576236 133.514943 
L 267.095026 124.915476 
L 267.613816 146.765317 
L 268.132606 134.636985 
L 268.651396 151.998658 
M 269.688976 145.711797 
L 270.207766 148.572576 
L 270.726556 141.600498 
L 271.245346 125.617823 
L 271.764136 137.249373 
L 272.282926 136.07594 
L 272.801716 147.253534 
L 273.320506 120.72709 
L 273.839296 110.457408 
L 274.358086 102.705896 
L 274.876876 91.87091 
L 275.395666 124.161738 
L 275.914456 140.384239 
L 276.433246 161.317603 
L 276.952036 162.028515 
L 277.470826 165.994205 
L 277.989616 160.846516 
L 278.508406 161.711602 
L 279.027196 162.319732 
M 280.064776 154.953654 
L 280.583566 140.050195 
L 281.102356 149.514748 
L 281.621146 146.465535 
L 282.139936 141.711846 
L 282.658726 150.799529 
L 283.177516 147.621838 
L 283.696306 142.319975 
L 284.215096 142.902409 
L 284.733886 149.15501 
L 285.252676 131.133816 
L 285.771466 131.099555 
L 286.290256 136.606983 
L 286.809046 137.917459 
L 287.327836 151.390529 
L 287.846626 152.409788 
L 288.365416 142.756801 
L 288.884206 136.264374 
L 289.402996 124.273086 
L 289.921786 121.129655 
L 290.440576 122.979739 
L 290.959366 116.333139 
L 291.478156 114.88562 
L 291.996946 115.039793 
L 292.515736 111.194016 
L 293.034526 112.341753 
L 294.072106 117.009791 
M 295.109686 118.525832 
L 295.628476 108.89854 
L 296.147266 103.964982 
L 296.666056 108.744367 
L 297.184846 104.496024 
L 297.703636 108.45315 
L 298.222426 114.868489 
L 298.741216 108.110541 
L 299.260006 112.744318 
L 299.778796 113.712186 
L 300.297586 116.324574 
L 300.816376 110.337495 
L 301.335166 102.945722 
L 301.853956 101.678071 
L 302.372746 96.710252 
L 302.891536 90.19213 
L 303.410327 101.052811 
L 303.929117 102.132027 
L 304.447907 96.590339 
L 304.966697 131.168077 
L 305.485487 127.416516 
L 306.004277 140.272891 
L 306.523067 142.242888 
L 307.041857 154.936524 
L 307.560647 153.232048 
L 308.079437 148.778141 
L 308.598227 153.788786 
L 309.117017 150.928007 
L 309.635807 146.020144 
L 310.154597 137.720459 
L 310.673387 136.195853 
L 311.192177 127.390821 
L 311.710967 134.148768 
L 312.229757 135.844679 
L 312.748547 137.96885 
L 313.267337 133.120944 
L 313.786127 141.908845 
L 314.304917 141.566237 
L 314.823707 146.970882 
L 315.342497 138.902458 
L 315.861287 143.613321 
L 316.380077 130.037469 
L 316.898867 125.600693 
L 317.417657 126.585691 
L 317.936447 119.271005 
M 318.974027 116.650052 
L 319.492817 117.994789 
L 320.011607 121.206742 
L 320.530397 128.110298 
L 321.049187 133.069552 
L 321.567977 132.9839 
L 322.086767 123.022565 
L 322.605557 122.765609 
L 323.124347 130.619903 
L 323.643137 131.51925 
L 324.161927 131.596337 
L 324.680717 131.039599 
L 325.199507 138.371415 
L 325.718297 154.33696 
L 327.274667 149.420531 
L 327.793457 145.643275 
L 328.312247 168.46955 
L 328.831037 174.430933 
L 329.349827 164.34112 
L 329.868617 160.855081 
L 330.906197 147.92162 
M 331.943777 151.964397 
L 332.462567 149.15501 
L 332.981357 151.219224 
L 334.018937 134.320073 
L 334.537727 129.566383 
L 335.056517 132.701249 
L 335.575307 129.300862 
L 336.094097 130.243034 
L 336.612887 118.311702 
L 337.131677 115.587966 
L 337.650467 111.964884 
L 338.169257 114.157577 
L 338.688047 110.637277 
L 339.206837 113.181143 
L 339.725627 114.337446 
L 340.244417 111.468102 
L 340.763207 107.922107 
L 341.281997 88.324915 
L 341.800787 84.821746 
L 342.319577 86.372048 
L 342.838367 84.564789 
L 343.357157 85.909527 
L 343.875948 76.821843 
L 344.394738 77.215842 
L 344.913528 75.074541 
L 345.432318 74.714802 
L 345.951108 74.569194 
L 346.469898 75.965322 
L 346.988688 76.633408 
L 347.507478 81.172968 
L 348.026268 78.800406 
L 349.582638 85.447006 
L 350.101428 85.506962 
L 350.620218 87.596872 
L 351.139008 87.793872 
L 351.657798 87.682524 
L 352.176588 85.447006 
L 352.695378 88.067959 
L 353.214168 89.815261 
L 353.732958 88.33348 
L 354.251748 86.038005 
M 355.289328 78.654797 
L 355.808118 78.423537 
L 356.326908 82.731835 
L 356.845698 96.144948 
L 357.364488 88.127915 
L 357.883278 96.119253 
L 358.402068 93.720995 
L 358.920858 85.781049 
L 359.958438 90.971564 
L 360.996018 81.960967 
L 361.514808 72.547805 
L 362.033598 72.813326 
L 362.552388 83.682573 
L 363.071178 76.145192 
L 363.589968 77.387147 
L 364.108758 82.997357 
L 364.627548 81.04449 
L 365.146338 85.095832 
L 365.665128 81.781097 
L 366.183918 81.746837 
L 366.702708 81.412794 
L 367.221498 82.9374 
L 367.740288 73.635586 
L 368.259078 76.0938 
L 368.777868 73.464282 
L 369.296658 80.273621 
L 369.815448 79.982404 
L 370.334238 78.75758 
L 370.853028 65.652814 
L 371.371818 60.256734 
L 371.890608 64.188164 
L 372.409398 62.132514 
L 372.928188 50.363921 
L 373.446978 55.023393 
L 373.965768 62.38947 
L 374.484558 65.575727 
L 375.003348 65.558597 
L 375.522138 74.834715 
L 376.040928 75.631279 
L 376.559718 88.402002 
L 377.078508 94.029342 
L 377.597298 94.12356 
L 378.116088 76.564887 
L 378.634878 69.721287 
L 379.153668 74.175194 
L 379.672458 93.661038 
L 380.191248 100.975725 
L 380.710038 116.341705 
L 381.228828 97.147077 
L 382.266408 86.235005 
L 382.785198 95.39121 
L 383.303988 87.973741 
L 383.822778 88.770306 
L 384.341569 95.005776 
M 385.379149 94.414777 
L 385.897939 88.796001 
L 386.416729 86.569048 
L 387.454309 106.2005 
L 387.973099 103.990677 
L 388.491889 93.695299 
L 389.010679 96.616035 
L 389.529469 86.269265 
L 390.048259 81.789663 
L 390.567049 70.766242 
L 391.085839 70.783373 
L 391.604629 64.933337 
L 392.642209 63.434426 
L 393.160999 69.472896 
L 393.679789 66.560726 
L 394.198579 64.65925 
L 394.717369 66.252378 
L 395.236159 69.078897 
L 395.754949 70.235199 
M 396.792529 68.830506 
L 397.311319 74.39789 
L 397.830109 76.333626 
L 398.348899 85.729657 
L 398.348899 85.729657 
" style="fill:none;stroke:#ff0000;stroke-linecap:square;"/>
   </g>
   <g id="patch_3">
    <path d="M 39.865 361.375125 
L 39.865 18.766875 
" style="fill:none;stroke:#000000;stroke-linecap:square;stroke-linejoin:miter;"/>
   </g>
   <g id="patch_4">
    <path d="M 39.865 361.375125 
L 445.04 361.375125 
" style="fill:none;stroke:#000000;stroke-linecap:square;stroke-linejoin:miter;"/>
   </g>
   <g id="patch_5">
    <path d="M 39.865 18.766875 
L 445.04 18.766875 
" style="fill:none;stroke:#000000;stroke-linecap:square;stroke-linejoin:miter;"/>
   </g>
   <g id="patch_6">
    <path d="M 445.04 361.375125 
L 445.04 18.766875 
" style="fill:none;stroke:#000000;stroke-linecap:square;stroke-linejoin:miter;"/>
   </g>
   <g id="matplotlib.axis_1">
    <g id="xtick_1">
     <g id="line2d_4">
      <defs>
       <path d="M 0 0 
L 0 -4 
" id="mae4a9f363b" style="stroke:#000000;stroke-width:0.5;"/>
      </defs>
      <g>
       <use style="stroke:#000000;stroke-width:0.5;" x="39.865" xlink:href="#mae4a9f363b" y="361.375125"/>
      </g>
     </g>
     <g id="line2d_5">
      <defs>
       <path d="M 0 0 
L 0 4 
" id="m0ce38dddae" style="stroke:#000000;stroke-width:0.5;"/>
      </defs>
      <g>
       <use style="stroke:#000000;stroke-width:0.5;" x="39.865" xlink:href="#m0ce38dddae" y="18.766875"/>
      </g>
     </g>
    </g>
    <g id="xtick_2">
     <g id="line2d_6">
      <g>
       <use style="stroke:#000000;stroke-width:0.5;" x="174.750403329" xlink:href="#mae4a9f363b" y="361.375125"/>
      </g>
     </g>
     <g id="line2d_7">
      <g>
       <use style="stroke:#000000;stroke-width:0.5;" x="174.750403329" xlink:href="#m0ce38dddae" y="18.766875"/>
      </g>
     </g>
     <g id="text_1">
      <!-- Jan -->
      <defs>
       <path d="M 9.8125 72.90625 
L 19.671875 72.90625 
L 19.671875 5.078125 
Q 19.671875 -8.109375 14.671875 -14.0625 
Q 9.671875 -20.015625 -1.421875 -20.015625 
L -5.171875 -20.015625 
L -5.171875 -11.71875 
L -2.09375 -11.71875 
Q 4.4375 -11.71875 7.125 -8.046875 
Q 9.8125 -4.390625 9.8125 5.078125 
z
" id="BitstreamVeraSans-Roman-4a"/>
       <path d="M 34.28125 27.484375 
Q 23.390625 27.484375 19.1875 25 
Q 14.984375 22.515625 14.984375 16.5 
Q 14.984375 11.71875 18.140625 8.90625 
Q 21.296875 6.109375 26.703125 6.109375 
Q 34.1875 6.109375 38.703125 11.40625 
Q 43.21875 16.703125 43.21875 25.484375 
L 43.21875 27.484375 
z
M 52.203125 31.203125 
L 52.203125 0 
L 43.21875 0 
L 43.21875 8.296875 
Q 40.140625 3.328125 35.546875 0.953125 
Q 30.953125 -1.421875 24.3125 -1.421875 
Q 15.921875 -1.421875 10.953125 3.296875 
Q 6 8.015625 6 15.921875 
Q 6 25.140625 12.171875 29.828125 
Q 18.359375 34.515625 30.609375 34.515625 
L 43.21875 34.515625 
L 43.21875 35.40625 
Q 43.21875 41.609375 39.140625 45 
Q 35.0625 48.390625 27.6875 48.390625 
Q 23 48.390625 18.546875 47.265625 
Q 14.109375 46.140625 10.015625 43.890625 
L 10.015625 52.203125 
Q 14.9375 54.109375 19.578125 55.046875 
Q 24.21875 56 28.609375 56 
Q 40.484375 56 46.34375 49.84375 
Q 52.203125 43.703125 52.203125 31.203125 
" id="BitstreamVeraSans-Roman-61"/>
       <path d="M 54.890625 33.015625 
L 54.890625 0 
L 45.90625 0 
L 45.90625 32.71875 
Q 45.90625 40.484375 42.875 44.328125 
Q 39.84375 48.1875 33.796875 48.1875 
Q 26.515625 48.1875 22.3125 43.546875 
Q 18.109375 38.921875 18.109375 30.90625 
L 18.109375 0 
L 9.078125 0 
L 9.078125 54.6875 
L 18.109375 54.6875 
L 18.109375 46.1875 
Q 21.34375 51.125 25.703125 53.5625 
Q 30.078125 56 35.796875 56 
Q 45.21875 56 50.046875 50.171875 
Q 54.890625 44.34375 54.890625 33.015625 
" id="BitstreamVeraSans-Roman-6e"/>
      </defs>
      <g transform="translate(165.501028329 374.49325)scale(0.12 -0.12)">
       <use xlink:href="#BitstreamVeraSans-Roman-4a"/>
       <use x="29.4921875" xlink:href="#BitstreamVeraSans-Roman-61"/>
       <use x="90.771484375" xlink:href="#BitstreamVeraSans-Roman-6e"/>
      </g>
      <!-- 2015 -->
      <defs>
       <path d="M 10.796875 72.90625 
L 49.515625 72.90625 
L 49.515625 64.59375 
L 19.828125 64.59375 
L 19.828125 46.734375 
Q 21.96875 47.46875 24.109375 47.828125 
Q 26.265625 48.1875 28.421875 48.1875 
Q 40.625 48.1875 47.75 41.5 
Q 54.890625 34.8125 54.890625 23.390625 
Q 54.890625 11.625 47.5625 5.09375 
Q 40.234375 -1.421875 26.90625 -1.421875 
Q 22.3125 -1.421875 17.546875 -0.640625 
Q 12.796875 0.140625 7.71875 1.703125 
L 7.71875 11.625 
Q 12.109375 9.234375 16.796875 8.0625 
Q 21.484375 6.890625 26.703125 6.890625 
Q 35.15625 6.890625 40.078125 11.328125 
Q 45.015625 15.765625 45.015625 23.390625 
Q 45.015625 31 40.078125 35.4375 
Q 35.15625 39.890625 26.703125 39.890625 
Q 22.75 39.890625 18.8125 39.015625 
Q 14.890625 38.140625 10.796875 36.28125 
z
" id="BitstreamVeraSans-Roman-35"/>
       <path d="M 19.1875 8.296875 
L 53.609375 8.296875 
L 53.609375 0 
L 7.328125 0 
L 7.328125 8.296875 
Q 12.9375 14.109375 22.625 23.890625 
Q 32.328125 33.6875 34.8125 36.53125 
Q 39.546875 41.84375 41.421875 45.53125 
Q 43.3125 49.21875 43.3125 52.78125 
Q 43.3125 58.59375 39.234375 62.25 
Q 35.15625 65.921875 28.609375 65.921875 
Q 23.96875 65.921875 18.8125 64.3125 
Q 13.671875 62.703125 7.8125 59.421875 
L 7.8125 69.390625 
Q 13.765625 71.78125 18.9375 73 
Q 24.125 74.21875 28.421875 74.21875 
Q 39.75 74.21875 46.484375 68.546875 
Q 53.21875 62.890625 53.21875 53.421875 
Q 53.21875 48.921875 51.53125 44.890625 
Q 49.859375 40.875 45.40625 35.40625 
Q 44.1875 33.984375 37.640625 27.21875 
Q 31.109375 20.453125 19.1875 8.296875 
" id="BitstreamVeraSans-Roman-32"/>
       <path d="M 12.40625 8.296875 
L 28.515625 8.296875 
L 28.515625 63.921875 
L 10.984375 60.40625 
L 10.984375 69.390625 
L 28.421875 72.90625 
L 38.28125 72.90625 
L 38.28125 8.296875 
L 54.390625 8.296875 
L 54.390625 0 
L 12.40625 0 
z
" id="BitstreamVeraSans-Roman-31"/>
       <path d="M 31.78125 66.40625 
Q 24.171875 66.40625 20.328125 58.90625 
Q 16.5 51.421875 16.5 36.375 
Q 16.5 21.390625 20.328125 13.890625 
Q 24.171875 6.390625 31.78125 6.390625 
Q 39.453125 6.390625 43.28125 13.890625 
Q 47.125 21.390625 47.125 36.375 
Q 47.125 51.421875 43.28125 58.90625 
Q 39.453125 66.40625 31.78125 66.40625 
M 31.78125 74.21875 
Q 44.046875 74.21875 50.515625 64.515625 
Q 56.984375 54.828125 56.984375 36.375 
Q 56.984375 17.96875 50.515625 8.265625 
Q 44.046875 -1.421875 31.78125 -1.421875 
Q 19.53125 -1.421875 13.0625 8.265625 
Q 6.59375 17.96875 6.59375 36.375 
Q 6.59375 54.828125 13.0625 64.515625 
Q 19.53125 74.21875 31.78125 74.21875 
" id="BitstreamVeraSans-Roman-30"/>
      </defs>
      <g transform="translate(159.480403329 387.930625)scale(0.12 -0.12)">
       <use xlink:href="#BitstreamVeraSans-Roman-32"/>
       <use x="63.623046875" xlink:href="#BitstreamVeraSans-Roman-30"/>
       <use x="127.24609375" xlink:href="#BitstreamVeraSans-Roman-31"/>
       <use x="190.869140625" xlink:href="#BitstreamVeraSans-Roman-35"/>
      </g>
     </g>
    </g>
    <g id="xtick_3">
     <g id="line2d_8">
      <g>
       <use style="stroke:#000000;stroke-width:0.5;" x="310.154596671" xlink:href="#mae4a9f363b" y="361.375125"/>
      </g>
     </g>
     <g id="line2d_9">
      <g>
       <use style="stroke:#000000;stroke-width:0.5;" x="310.154596671" xlink:href="#m0ce38dddae" y="18.766875"/>
      </g>
     </g>
     <g id="text_2">
      <!-- Jan -->
      <g transform="translate(300.905221671 374.49325)scale(0.12 -0.12)">
       <use xlink:href="#BitstreamVeraSans-Roman-4a"/>
       <use x="29.4921875" xlink:href="#BitstreamVeraSans-Roman-61"/>
       <use x="90.771484375" xlink:href="#BitstreamVeraSans-Roman-6e"/>
      </g>
      <!-- 2016 -->
      <defs>
       <path d="M 33.015625 40.375 
Q 26.375 40.375 22.484375 35.828125 
Q 18.609375 31.296875 18.609375 23.390625 
Q 18.609375 15.53125 22.484375 10.953125 
Q 26.375 6.390625 33.015625 6.390625 
Q 39.65625 6.390625 43.53125 10.953125 
Q 47.40625 15.53125 47.40625 23.390625 
Q 47.40625 31.296875 43.53125 35.828125 
Q 39.65625 40.375 33.015625 40.375 
M 52.59375 71.296875 
L 52.59375 62.3125 
Q 48.875 64.0625 45.09375 64.984375 
Q 41.3125 65.921875 37.59375 65.921875 
Q 27.828125 65.921875 22.671875 59.328125 
Q 17.53125 52.734375 16.796875 39.40625 
Q 19.671875 43.65625 24.015625 45.921875 
Q 28.375 48.1875 33.59375 48.1875 
Q 44.578125 48.1875 50.953125 41.515625 
Q 57.328125 34.859375 57.328125 23.390625 
Q 57.328125 12.15625 50.6875 5.359375 
Q 44.046875 -1.421875 33.015625 -1.421875 
Q 20.359375 -1.421875 13.671875 8.265625 
Q 6.984375 17.96875 6.984375 36.375 
Q 6.984375 53.65625 15.1875 63.9375 
Q 23.390625 74.21875 37.203125 74.21875 
Q 40.921875 74.21875 44.703125 73.484375 
Q 48.484375 72.75 52.59375 71.296875 
" id="BitstreamVeraSans-Roman-36"/>
      </defs>
      <g transform="translate(294.884596671 387.930625)scale(0.12 -0.12)">
       <use xlink:href="#BitstreamVeraSans-Roman-32"/>
       <use x="63.623046875" xlink:href="#BitstreamVeraSans-Roman-30"/>
       <use x="127.24609375" xlink:href="#BitstreamVeraSans-Roman-31"/>
       <use x="190.869140625" xlink:href="#BitstreamVeraSans-Roman-36"/>
      </g>
     </g>
    </g>
    <g id="xtick_4">
     <g id="line2d_10">
      <g>
       <use style="stroke:#000000;stroke-width:0.5;" x="445.04" xlink:href="#mae4a9f363b" y="361.375125"/>
      </g>
     </g>
     <g id="line2d_11">
      <g>
       <use style="stroke:#000000;stroke-width:0.5;" x="445.04" xlink:href="#m0ce38dddae" y="18.766875"/>
      </g>
     </g>
    </g>
    <g id="xtick_5">
     <g id="line2d_12">
      <defs>
       <path d="M 0 0 
L 0 -2 
" id="ma5310ea3c8" style="stroke:#000000;stroke-width:0.5;"/>
      </defs>
      <g>
       <use style="stroke:#000000;stroke-width:0.5;" x="51.2783802817" xlink:href="#ma5310ea3c8" y="361.375125"/>
      </g>
     </g>
     <g id="line2d_13">
      <defs>
       <path d="M 0 0 
L 0 2 
" id="m750f6d9f38" style="stroke:#000000;stroke-width:0.5;"/>
      </defs>
      <g>
       <use style="stroke:#000000;stroke-width:0.5;" x="51.2783802817" xlink:href="#m750f6d9f38" y="18.766875"/>
      </g>
     </g>
    </g>
    <g id="xtick_6">
     <g id="line2d_14">
      <g>
       <use style="stroke:#000000;stroke-width:0.5;" x="61.6541805378" xlink:href="#ma5310ea3c8" y="361.375125"/>
      </g>
     </g>
     <g id="line2d_15">
      <g>
       <use style="stroke:#000000;stroke-width:0.5;" x="61.6541805378" xlink:href="#m750f6d9f38" y="18.766875"/>
      </g>
     </g>
    </g>
    <g id="xtick_7">
     <g id="line2d_16">
      <g>
       <use style="stroke:#000000;stroke-width:0.5;" x="72.5487708067" xlink:href="#ma5310ea3c8" y="361.375125"/>
      </g>
     </g>
     <g id="line2d_17">
      <g>
       <use style="stroke:#000000;stroke-width:0.5;" x="72.5487708067" xlink:href="#m750f6d9f38" y="18.766875"/>
      </g>
     </g>
    </g>
    <g id="xtick_8">
     <g id="line2d_18">
      <g>
       <use style="stroke:#000000;stroke-width:0.5;" x="83.9621510883" xlink:href="#ma5310ea3c8" y="361.375125"/>
      </g>
     </g>
     <g id="line2d_19">
      <g>
       <use style="stroke:#000000;stroke-width:0.5;" x="83.9621510883" xlink:href="#m750f6d9f38" y="18.766875"/>
      </g>
     </g>
    </g>
    <g id="xtick_9">
     <g id="line2d_20">
      <g>
       <use style="stroke:#000000;stroke-width:0.5;" x="95.37553137" xlink:href="#ma5310ea3c8" y="361.375125"/>
      </g>
     </g>
     <g id="line2d_21">
      <g>
       <use style="stroke:#000000;stroke-width:0.5;" x="95.37553137" xlink:href="#m750f6d9f38" y="18.766875"/>
      </g>
     </g>
    </g>
    <g id="xtick_10">
     <g id="line2d_22">
      <g>
       <use style="stroke:#000000;stroke-width:0.5;" x="106.270121639" xlink:href="#ma5310ea3c8" y="361.375125"/>
      </g>
     </g>
     <g id="line2d_23">
      <g>
       <use style="stroke:#000000;stroke-width:0.5;" x="106.270121639" xlink:href="#m750f6d9f38" y="18.766875"/>
      </g>
     </g>
     <g id="text_3">
      <!-- Jul -->
      <defs>
       <path d="M 8.5 21.578125 
L 8.5 54.6875 
L 17.484375 54.6875 
L 17.484375 21.921875 
Q 17.484375 14.15625 20.5 10.265625 
Q 23.53125 6.390625 29.59375 6.390625 
Q 36.859375 6.390625 41.078125 11.03125 
Q 45.3125 15.671875 45.3125 23.6875 
L 45.3125 54.6875 
L 54.296875 54.6875 
L 54.296875 0 
L 45.3125 0 
L 45.3125 8.40625 
Q 42.046875 3.421875 37.71875 1 
Q 33.40625 -1.421875 27.6875 -1.421875 
Q 18.265625 -1.421875 13.375 4.4375 
Q 8.5 10.296875 8.5 21.578125 
" id="BitstreamVeraSans-Roman-75"/>
       <path d="M 9.421875 75.984375 
L 18.40625 75.984375 
L 18.40625 0 
L 9.421875 0 
z
" id="BitstreamVeraSans-Roman-6c"/>
      </defs>
      <g transform="translate(99.0307466389 374.49325)scale(0.12 -0.12)">
       <use xlink:href="#BitstreamVeraSans-Roman-4a"/>
       <use x="29.4921875" xlink:href="#BitstreamVeraSans-Roman-75"/>
       <use x="92.87109375" xlink:href="#BitstreamVeraSans-Roman-6c"/>
      </g>
     </g>
    </g>
    <g id="xtick_11">
     <g id="line2d_24">
      <g>
       <use style="stroke:#000000;stroke-width:0.5;" x="118.202291933" xlink:href="#ma5310ea3c8" y="361.375125"/>
      </g>
     </g>
     <g id="line2d_25">
      <g>
       <use style="stroke:#000000;stroke-width:0.5;" x="118.202291933" xlink:href="#m750f6d9f38" y="18.766875"/>
      </g>
     </g>
    </g>
    <g id="xtick_12">
     <g id="line2d_26">
      <g>
       <use style="stroke:#000000;stroke-width:0.5;" x="129.096882202" xlink:href="#ma5310ea3c8" y="361.375125"/>
      </g>
     </g>
     <g id="line2d_27">
      <g>
       <use style="stroke:#000000;stroke-width:0.5;" x="129.096882202" xlink:href="#m750f6d9f38" y="18.766875"/>
      </g>
     </g>
    </g>
    <g id="xtick_13">
     <g id="line2d_28">
      <g>
       <use style="stroke:#000000;stroke-width:0.5;" x="140.510262484" xlink:href="#ma5310ea3c8" y="361.375125"/>
      </g>
     </g>
     <g id="line2d_29">
      <g>
       <use style="stroke:#000000;stroke-width:0.5;" x="140.510262484" xlink:href="#m750f6d9f38" y="18.766875"/>
      </g>
     </g>
    </g>
    <g id="xtick_14">
     <g id="line2d_30">
      <g>
       <use style="stroke:#000000;stroke-width:0.5;" x="152.442432778" xlink:href="#ma5310ea3c8" y="361.375125"/>
      </g>
     </g>
     <g id="line2d_31">
      <g>
       <use style="stroke:#000000;stroke-width:0.5;" x="152.442432778" xlink:href="#m750f6d9f38" y="18.766875"/>
      </g>
     </g>
    </g>
    <g id="xtick_15">
     <g id="line2d_32">
      <g>
       <use style="stroke:#000000;stroke-width:0.5;" x="162.818233035" xlink:href="#ma5310ea3c8" y="361.375125"/>
      </g>
     </g>
     <g id="line2d_33">
      <g>
       <use style="stroke:#000000;stroke-width:0.5;" x="162.818233035" xlink:href="#m750f6d9f38" y="18.766875"/>
      </g>
     </g>
    </g>
    <g id="xtick_16">
     <g id="line2d_34">
      <g>
       <use style="stroke:#000000;stroke-width:0.5;" x="186.163783611" xlink:href="#ma5310ea3c8" y="361.375125"/>
      </g>
     </g>
     <g id="line2d_35">
      <g>
       <use style="stroke:#000000;stroke-width:0.5;" x="186.163783611" xlink:href="#m750f6d9f38" y="18.766875"/>
      </g>
     </g>
    </g>
    <g id="xtick_17">
     <g id="line2d_36">
      <g>
       <use style="stroke:#000000;stroke-width:0.5;" x="196.539583867" xlink:href="#ma5310ea3c8" y="361.375125"/>
      </g>
     </g>
     <g id="line2d_37">
      <g>
       <use style="stroke:#000000;stroke-width:0.5;" x="196.539583867" xlink:href="#m750f6d9f38" y="18.766875"/>
      </g>
     </g>
    </g>
    <g id="xtick_18">
     <g id="line2d_38">
      <g>
       <use style="stroke:#000000;stroke-width:0.5;" x="207.952964149" xlink:href="#ma5310ea3c8" y="361.375125"/>
      </g>
     </g>
     <g id="line2d_39">
      <g>
       <use style="stroke:#000000;stroke-width:0.5;" x="207.952964149" xlink:href="#m750f6d9f38" y="18.766875"/>
      </g>
     </g>
    </g>
    <g id="xtick_19">
     <g id="line2d_40">
      <g>
       <use style="stroke:#000000;stroke-width:0.5;" x="219.36634443" xlink:href="#ma5310ea3c8" y="361.375125"/>
      </g>
     </g>
     <g id="line2d_41">
      <g>
       <use style="stroke:#000000;stroke-width:0.5;" x="219.36634443" xlink:href="#m750f6d9f38" y="18.766875"/>
      </g>
     </g>
    </g>
    <g id="xtick_20">
     <g id="line2d_42">
      <g>
       <use style="stroke:#000000;stroke-width:0.5;" x="230.260934699" xlink:href="#ma5310ea3c8" y="361.375125"/>
      </g>
     </g>
     <g id="line2d_43">
      <g>
       <use style="stroke:#000000;stroke-width:0.5;" x="230.260934699" xlink:href="#m750f6d9f38" y="18.766875"/>
      </g>
     </g>
    </g>
    <g id="xtick_21">
     <g id="line2d_44">
      <g>
       <use style="stroke:#000000;stroke-width:0.5;" x="241.674314981" xlink:href="#ma5310ea3c8" y="361.375125"/>
      </g>
     </g>
     <g id="line2d_45">
      <g>
       <use style="stroke:#000000;stroke-width:0.5;" x="241.674314981" xlink:href="#m750f6d9f38" y="18.766875"/>
      </g>
     </g>
     <g id="text_4">
      <!-- Jul -->
      <g transform="translate(234.434939981 374.49325)scale(0.12 -0.12)">
       <use xlink:href="#BitstreamVeraSans-Roman-4a"/>
       <use x="29.4921875" xlink:href="#BitstreamVeraSans-Roman-75"/>
       <use x="92.87109375" xlink:href="#BitstreamVeraSans-Roman-6c"/>
      </g>
     </g>
    </g>
    <g id="xtick_22">
     <g id="line2d_46">
      <g>
       <use style="stroke:#000000;stroke-width:0.5;" x="253.606485275" xlink:href="#ma5310ea3c8" y="361.375125"/>
      </g>
     </g>
     <g id="line2d_47">
      <g>
       <use style="stroke:#000000;stroke-width:0.5;" x="253.606485275" xlink:href="#m750f6d9f38" y="18.766875"/>
      </g>
     </g>
    </g>
    <g id="xtick_23">
     <g id="line2d_48">
      <g>
       <use style="stroke:#000000;stroke-width:0.5;" x="264.501075544" xlink:href="#ma5310ea3c8" y="361.375125"/>
      </g>
     </g>
     <g id="line2d_49">
      <g>
       <use style="stroke:#000000;stroke-width:0.5;" x="264.501075544" xlink:href="#m750f6d9f38" y="18.766875"/>
      </g>
     </g>
    </g>
    <g id="xtick_24">
     <g id="line2d_50">
      <g>
       <use style="stroke:#000000;stroke-width:0.5;" x="275.914455826" xlink:href="#ma5310ea3c8" y="361.375125"/>
      </g>
     </g>
     <g id="line2d_51">
      <g>
       <use style="stroke:#000000;stroke-width:0.5;" x="275.914455826" xlink:href="#m750f6d9f38" y="18.766875"/>
      </g>
     </g>
    </g>
    <g id="xtick_25">
     <g id="line2d_52">
      <g>
       <use style="stroke:#000000;stroke-width:0.5;" x="287.327836108" xlink:href="#ma5310ea3c8" y="361.375125"/>
      </g>
     </g>
     <g id="line2d_53">
      <g>
       <use style="stroke:#000000;stroke-width:0.5;" x="287.327836108" xlink:href="#m750f6d9f38" y="18.766875"/>
      </g>
     </g>
    </g>
    <g id="xtick_26">
     <g id="line2d_54">
      <g>
       <use style="stroke:#000000;stroke-width:0.5;" x="298.222426376" xlink:href="#ma5310ea3c8" y="361.375125"/>
      </g>
     </g>
     <g id="line2d_55">
      <g>
       <use style="stroke:#000000;stroke-width:0.5;" x="298.222426376" xlink:href="#m750f6d9f38" y="18.766875"/>
      </g>
     </g>
    </g>
    <g id="xtick_27">
     <g id="line2d_56">
      <g>
       <use style="stroke:#000000;stroke-width:0.5;" x="321.04918694" xlink:href="#ma5310ea3c8" y="361.375125"/>
      </g>
     </g>
     <g id="line2d_57">
      <g>
       <use style="stroke:#000000;stroke-width:0.5;" x="321.04918694" xlink:href="#m750f6d9f38" y="18.766875"/>
      </g>
     </g>
    </g>
    <g id="xtick_28">
     <g id="line2d_58">
      <g>
       <use style="stroke:#000000;stroke-width:0.5;" x="331.943777209" xlink:href="#ma5310ea3c8" y="361.375125"/>
      </g>
     </g>
     <g id="line2d_59">
      <g>
       <use style="stroke:#000000;stroke-width:0.5;" x="331.943777209" xlink:href="#m750f6d9f38" y="18.766875"/>
      </g>
     </g>
    </g>
    <g id="xtick_29">
     <g id="line2d_60">
      <g>
       <use style="stroke:#000000;stroke-width:0.5;" x="343.875947503" xlink:href="#ma5310ea3c8" y="361.375125"/>
      </g>
     </g>
     <g id="line2d_61">
      <g>
       <use style="stroke:#000000;stroke-width:0.5;" x="343.875947503" xlink:href="#m750f6d9f38" y="18.766875"/>
      </g>
     </g>
    </g>
    <g id="xtick_30">
     <g id="line2d_62">
      <g>
       <use style="stroke:#000000;stroke-width:0.5;" x="354.770537772" xlink:href="#ma5310ea3c8" y="361.375125"/>
      </g>
     </g>
     <g id="line2d_63">
      <g>
       <use style="stroke:#000000;stroke-width:0.5;" x="354.770537772" xlink:href="#m750f6d9f38" y="18.766875"/>
      </g>
     </g>
    </g>
    <g id="xtick_31">
     <g id="line2d_64">
      <g>
       <use style="stroke:#000000;stroke-width:0.5;" x="366.183918054" xlink:href="#ma5310ea3c8" y="361.375125"/>
      </g>
     </g>
     <g id="line2d_65">
      <g>
       <use style="stroke:#000000;stroke-width:0.5;" x="366.183918054" xlink:href="#m750f6d9f38" y="18.766875"/>
      </g>
     </g>
    </g>
    <g id="xtick_32">
     <g id="line2d_66">
      <g>
       <use style="stroke:#000000;stroke-width:0.5;" x="377.597298335" xlink:href="#ma5310ea3c8" y="361.375125"/>
      </g>
     </g>
     <g id="line2d_67">
      <g>
       <use style="stroke:#000000;stroke-width:0.5;" x="377.597298335" xlink:href="#m750f6d9f38" y="18.766875"/>
      </g>
     </g>
     <g id="text_5">
      <!-- Jul -->
      <g transform="translate(370.357923335 374.49325)scale(0.12 -0.12)">
       <use xlink:href="#BitstreamVeraSans-Roman-4a"/>
       <use x="29.4921875" xlink:href="#BitstreamVeraSans-Roman-75"/>
       <use x="92.87109375" xlink:href="#BitstreamVeraSans-Roman-6c"/>
      </g>
     </g>
    </g>
    <g id="xtick_33">
     <g id="line2d_68">
      <g>
       <use style="stroke:#000000;stroke-width:0.5;" x="388.491888604" xlink:href="#ma5310ea3c8" y="361.375125"/>
      </g>
     </g>
     <g id="line2d_69">
      <g>
       <use style="stroke:#000000;stroke-width:0.5;" x="388.491888604" xlink:href="#m750f6d9f38" y="18.766875"/>
      </g>
     </g>
    </g>
    <g id="xtick_34">
     <g id="line2d_70">
      <g>
       <use style="stroke:#000000;stroke-width:0.5;" x="400.424058899" xlink:href="#ma5310ea3c8" y="361.375125"/>
      </g>
     </g>
     <g id="line2d_71">
      <g>
       <use style="stroke:#000000;stroke-width:0.5;" x="400.424058899" xlink:href="#m750f6d9f38" y="18.766875"/>
      </g>
     </g>
    </g>
    <g id="xtick_35">
     <g id="line2d_72">
      <g>
       <use style="stroke:#000000;stroke-width:0.5;" x="411.837439181" xlink:href="#ma5310ea3c8" y="361.375125"/>
      </g>
     </g>
     <g id="line2d_73">
      <g>
       <use style="stroke:#000000;stroke-width:0.5;" x="411.837439181" xlink:href="#m750f6d9f38" y="18.766875"/>
      </g>
     </g>
    </g>
    <g id="xtick_36">
     <g id="line2d_74">
      <g>
       <use style="stroke:#000000;stroke-width:0.5;" x="422.732029449" xlink:href="#ma5310ea3c8" y="361.375125"/>
      </g>
     </g>
     <g id="line2d_75">
      <g>
       <use style="stroke:#000000;stroke-width:0.5;" x="422.732029449" xlink:href="#m750f6d9f38" y="18.766875"/>
      </g>
     </g>
    </g>
    <g id="xtick_37">
     <g id="line2d_76">
      <g>
       <use style="stroke:#000000;stroke-width:0.5;" x="434.145409731" xlink:href="#ma5310ea3c8" y="361.375125"/>
      </g>
     </g>
     <g id="line2d_77">
      <g>
       <use style="stroke:#000000;stroke-width:0.5;" x="434.145409731" xlink:href="#m750f6d9f38" y="18.766875"/>
      </g>
     </g>
    </g>
    <g id="text_6">
     <!-- Date -->
     <defs>
      <path d="M 19.671875 64.796875 
L 19.671875 8.109375 
L 31.59375 8.109375 
Q 46.6875 8.109375 53.6875 14.9375 
Q 60.6875 21.78125 60.6875 36.53125 
Q 60.6875 51.171875 53.6875 57.984375 
Q 46.6875 64.796875 31.59375 64.796875 
z
M 9.8125 72.90625 
L 30.078125 72.90625 
Q 51.265625 72.90625 61.171875 64.09375 
Q 71.09375 55.28125 71.09375 36.53125 
Q 71.09375 17.671875 61.125 8.828125 
Q 51.171875 0 30.078125 0 
L 9.8125 0 
z
" id="BitstreamVeraSans-Roman-44"/>
      <path d="M 56.203125 29.59375 
L 56.203125 25.203125 
L 14.890625 25.203125 
Q 15.484375 15.921875 20.484375 11.0625 
Q 25.484375 6.203125 34.421875 6.203125 
Q 39.59375 6.203125 44.453125 7.46875 
Q 49.3125 8.734375 54.109375 11.28125 
L 54.109375 2.78125 
Q 49.265625 0.734375 44.1875 -0.34375 
Q 39.109375 -1.421875 33.890625 -1.421875 
Q 20.796875 -1.421875 13.15625 6.1875 
Q 5.515625 13.8125 5.515625 26.8125 
Q 5.515625 40.234375 12.765625 48.109375 
Q 20.015625 56 32.328125 56 
Q 43.359375 56 49.78125 48.890625 
Q 56.203125 41.796875 56.203125 29.59375 
M 47.21875 32.234375 
Q 47.125 39.59375 43.09375 43.984375 
Q 39.0625 48.390625 32.421875 48.390625 
Q 24.90625 48.390625 20.390625 44.140625 
Q 15.875 39.890625 15.1875 32.171875 
z
" id="BitstreamVeraSans-Roman-65"/>
      <path d="M 18.3125 70.21875 
L 18.3125 54.6875 
L 36.8125 54.6875 
L 36.8125 47.703125 
L 18.3125 47.703125 
L 18.3125 18.015625 
Q 18.3125 11.328125 20.140625 9.421875 
Q 21.96875 7.515625 27.59375 7.515625 
L 36.8125 7.515625 
L 36.8125 0 
L 27.59375 0 
Q 17.1875 0 13.234375 3.875 
Q 9.28125 7.765625 9.28125 18.015625 
L 9.28125 47.703125 
L 2.6875 47.703125 
L 2.6875 54.6875 
L 9.28125 54.6875 
L 9.28125 70.21875 
z
" id="BitstreamVeraSans-Roman-74"/>
     </defs>
     <g transform="translate(228.1115625 404.544375)scale(0.12 -0.12)">
      <use xlink:href="#BitstreamVeraSans-Roman-44"/>
      <use x="77.001953125" xlink:href="#BitstreamVeraSans-Roman-61"/>
      <use x="138.28125" xlink:href="#BitstreamVeraSans-Roman-74"/>
      <use x="177.490234375" xlink:href="#BitstreamVeraSans-Roman-65"/>
     </g>
    </g>
   </g>
   <g id="matplotlib.axis_2">
    <g id="ytick_1">
     <g id="line2d_78">
      <defs>
       <path d="M 0 0 
L 4 0 
" id="m29f4303c01" style="stroke:#000000;stroke-width:0.5;"/>
      </defs>
      <g>
       <use style="stroke:#000000;stroke-width:0.5;" x="39.865" xlink:href="#m29f4303c01" y="361.375125"/>
      </g>
     </g>
     <g id="line2d_79">
      <defs>
       <path d="M 0 0 
L -4 0 
" id="m39586d503e" style="stroke:#000000;stroke-width:0.5;"/>
      </defs>
      <g>
       <use style="stroke:#000000;stroke-width:0.5;" x="445.04" xlink:href="#m39586d503e" y="361.375125"/>
      </g>
     </g>
     <g id="text_7">
      <!-- 450 -->
      <defs>
       <path d="M 37.796875 64.3125 
L 12.890625 25.390625 
L 37.796875 25.390625 
z
M 35.203125 72.90625 
L 47.609375 72.90625 
L 47.609375 25.390625 
L 58.015625 25.390625 
L 58.015625 17.1875 
L 47.609375 17.1875 
L 47.609375 0 
L 37.796875 0 
L 37.796875 17.1875 
L 4.890625 17.1875 
L 4.890625 26.703125 
z
" id="BitstreamVeraSans-Roman-34"/>
      </defs>
      <g transform="translate(12.96 364.686375)scale(0.12 -0.12)">
       <use xlink:href="#BitstreamVeraSans-Roman-34"/>
       <use x="63.623046875" xlink:href="#BitstreamVeraSans-Roman-35"/>
       <use x="127.24609375" xlink:href="#BitstreamVeraSans-Roman-30"/>
      </g>
     </g>
    </g>
    <g id="ytick_2">
     <g id="line2d_80">
      <g>
       <use style="stroke:#000000;stroke-width:0.5;" x="39.865" xlink:href="#m29f4303c01" y="318.54909375"/>
      </g>
     </g>
     <g id="line2d_81">
      <g>
       <use style="stroke:#000000;stroke-width:0.5;" x="445.04" xlink:href="#m39586d503e" y="318.54909375"/>
      </g>
     </g>
     <g id="text_8">
      <!-- 500 -->
      <g transform="translate(12.96 321.86034375)scale(0.12 -0.12)">
       <use xlink:href="#BitstreamVeraSans-Roman-35"/>
       <use x="63.623046875" xlink:href="#BitstreamVeraSans-Roman-30"/>
       <use x="127.24609375" xlink:href="#BitstreamVeraSans-Roman-30"/>
      </g>
     </g>
    </g>
    <g id="ytick_3">
     <g id="line2d_82">
      <g>
       <use style="stroke:#000000;stroke-width:0.5;" x="39.865" xlink:href="#m29f4303c01" y="275.7230625"/>
      </g>
     </g>
     <g id="line2d_83">
      <g>
       <use style="stroke:#000000;stroke-width:0.5;" x="445.04" xlink:href="#m39586d503e" y="275.7230625"/>
      </g>
     </g>
     <g id="text_9">
      <!-- 550 -->
      <g transform="translate(12.96 279.0343125)scale(0.12 -0.12)">
       <use xlink:href="#BitstreamVeraSans-Roman-35"/>
       <use x="63.623046875" xlink:href="#BitstreamVeraSans-Roman-35"/>
       <use x="127.24609375" xlink:href="#BitstreamVeraSans-Roman-30"/>
      </g>
     </g>
    </g>
    <g id="ytick_4">
     <g id="line2d_84">
      <g>
       <use style="stroke:#000000;stroke-width:0.5;" x="39.865" xlink:href="#m29f4303c01" y="232.89703125"/>
      </g>
     </g>
     <g id="line2d_85">
      <g>
       <use style="stroke:#000000;stroke-width:0.5;" x="445.04" xlink:href="#m39586d503e" y="232.89703125"/>
      </g>
     </g>
     <g id="text_10">
      <!-- 600 -->
      <g transform="translate(12.96 236.20828125)scale(0.12 -0.12)">
       <use xlink:href="#BitstreamVeraSans-Roman-36"/>
       <use x="63.623046875" xlink:href="#BitstreamVeraSans-Roman-30"/>
       <use x="127.24609375" xlink:href="#BitstreamVeraSans-Roman-30"/>
      </g>
     </g>
    </g>
    <g id="ytick_5">
     <g id="line2d_86">
      <g>
       <use style="stroke:#000000;stroke-width:0.5;" x="39.865" xlink:href="#m29f4303c01" y="190.071"/>
      </g>
     </g>
     <g id="line2d_87">
      <g>
       <use style="stroke:#000000;stroke-width:0.5;" x="445.04" xlink:href="#m39586d503e" y="190.071"/>
      </g>
     </g>
     <g id="text_11">
      <!-- 650 -->
      <g transform="translate(12.96 193.38225)scale(0.12 -0.12)">
       <use xlink:href="#BitstreamVeraSans-Roman-36"/>
       <use x="63.623046875" xlink:href="#BitstreamVeraSans-Roman-35"/>
       <use x="127.24609375" xlink:href="#BitstreamVeraSans-Roman-30"/>
      </g>
     </g>
    </g>
    <g id="ytick_6">
     <g id="line2d_88">
      <g>
       <use style="stroke:#000000;stroke-width:0.5;" x="39.865" xlink:href="#m29f4303c01" y="147.24496875"/>
      </g>
     </g>
     <g id="line2d_89">
      <g>
       <use style="stroke:#000000;stroke-width:0.5;" x="445.04" xlink:href="#m39586d503e" y="147.24496875"/>
      </g>
     </g>
     <g id="text_12">
      <!-- 700 -->
      <defs>
       <path d="M 8.203125 72.90625 
L 55.078125 72.90625 
L 55.078125 68.703125 
L 28.609375 0 
L 18.3125 0 
L 43.21875 64.59375 
L 8.203125 64.59375 
z
" id="BitstreamVeraSans-Roman-37"/>
      </defs>
      <g transform="translate(12.96 150.55621875)scale(0.12 -0.12)">
       <use xlink:href="#BitstreamVeraSans-Roman-37"/>
       <use x="63.623046875" xlink:href="#BitstreamVeraSans-Roman-30"/>
       <use x="127.24609375" xlink:href="#BitstreamVeraSans-Roman-30"/>
      </g>
     </g>
    </g>
    <g id="ytick_7">
     <g id="line2d_90">
      <g>
       <use style="stroke:#000000;stroke-width:0.5;" x="39.865" xlink:href="#m29f4303c01" y="104.4189375"/>
      </g>
     </g>
     <g id="line2d_91">
      <g>
       <use style="stroke:#000000;stroke-width:0.5;" x="445.04" xlink:href="#m39586d503e" y="104.4189375"/>
      </g>
     </g>
     <g id="text_13">
      <!-- 750 -->
      <g transform="translate(12.96 107.7301875)scale(0.12 -0.12)">
       <use xlink:href="#BitstreamVeraSans-Roman-37"/>
       <use x="63.623046875" xlink:href="#BitstreamVeraSans-Roman-35"/>
       <use x="127.24609375" xlink:href="#BitstreamVeraSans-Roman-30"/>
      </g>
     </g>
    </g>
    <g id="ytick_8">
     <g id="line2d_92">
      <g>
       <use style="stroke:#000000;stroke-width:0.5;" x="39.865" xlink:href="#m29f4303c01" y="61.59290625"/>
      </g>
     </g>
     <g id="line2d_93">
      <g>
       <use style="stroke:#000000;stroke-width:0.5;" x="445.04" xlink:href="#m39586d503e" y="61.59290625"/>
      </g>
     </g>
     <g id="text_14">
      <!-- 800 -->
      <defs>
       <path d="M 31.78125 34.625 
Q 24.75 34.625 20.71875 30.859375 
Q 16.703125 27.09375 16.703125 20.515625 
Q 16.703125 13.921875 20.71875 10.15625 
Q 24.75 6.390625 31.78125 6.390625 
Q 38.8125 6.390625 42.859375 10.171875 
Q 46.921875 13.96875 46.921875 20.515625 
Q 46.921875 27.09375 42.890625 30.859375 
Q 38.875 34.625 31.78125 34.625 
M 21.921875 38.8125 
Q 15.578125 40.375 12.03125 44.71875 
Q 8.5 49.078125 8.5 55.328125 
Q 8.5 64.0625 14.71875 69.140625 
Q 20.953125 74.21875 31.78125 74.21875 
Q 42.671875 74.21875 48.875 69.140625 
Q 55.078125 64.0625 55.078125 55.328125 
Q 55.078125 49.078125 51.53125 44.71875 
Q 48 40.375 41.703125 38.8125 
Q 48.828125 37.15625 52.796875 32.3125 
Q 56.78125 27.484375 56.78125 20.515625 
Q 56.78125 9.90625 50.3125 4.234375 
Q 43.84375 -1.421875 31.78125 -1.421875 
Q 19.734375 -1.421875 13.25 4.234375 
Q 6.78125 9.90625 6.78125 20.515625 
Q 6.78125 27.484375 10.78125 32.3125 
Q 14.796875 37.15625 21.921875 38.8125 
M 18.3125 54.390625 
Q 18.3125 48.734375 21.84375 45.5625 
Q 25.390625 42.390625 31.78125 42.390625 
Q 38.140625 42.390625 41.71875 45.5625 
Q 45.3125 48.734375 45.3125 54.390625 
Q 45.3125 60.0625 41.71875 63.234375 
Q 38.140625 66.40625 31.78125 66.40625 
Q 25.390625 66.40625 21.84375 63.234375 
Q 18.3125 60.0625 18.3125 54.390625 
" id="BitstreamVeraSans-Roman-38"/>
      </defs>
      <g transform="translate(12.96 64.90415625)scale(0.12 -0.12)">
       <use xlink:href="#BitstreamVeraSans-Roman-38"/>
       <use x="63.623046875" xlink:href="#BitstreamVeraSans-Roman-30"/>
       <use x="127.24609375" xlink:href="#BitstreamVeraSans-Roman-30"/>
      </g>
     </g>
    </g>
    <g id="ytick_9">
     <g id="line2d_94">
      <g>
       <use style="stroke:#000000;stroke-width:0.5;" x="39.865" xlink:href="#m29f4303c01" y="18.766875"/>
      </g>
     </g>
     <g id="line2d_95">
      <g>
       <use style="stroke:#000000;stroke-width:0.5;" x="445.04" xlink:href="#m39586d503e" y="18.766875"/>
      </g>
     </g>
     <g id="text_15">
      <!-- 850 -->
      <g transform="translate(12.96 22.078125)scale(0.12 -0.12)">
       <use xlink:href="#BitstreamVeraSans-Roman-38"/>
       <use x="63.623046875" xlink:href="#BitstreamVeraSans-Roman-35"/>
       <use x="127.24609375" xlink:href="#BitstreamVeraSans-Roman-30"/>
      </g>
     </g>
    </g>
   </g>
   <g id="legend_1">
    <g id="patch_7">
     <path d="M 47.065 93.696375 
L 148.2475 93.696375 
L 148.2475 25.966875 
L 47.065 25.966875 
z
" style="fill:#ffffff;stroke:#000000;stroke-linejoin:miter;"/>
    </g>
    <g id="line2d_96">
     <path d="M 57.145 37.628625 
L 77.305 37.628625 
" style="fill:none;stroke:#0000ff;stroke-linecap:square;"/>
    </g>
    <g id="line2d_97"/>
    <g id="text_16">
     <!-- Close -->
     <defs>
      <path d="M 64.40625 67.28125 
L 64.40625 56.890625 
Q 59.421875 61.53125 53.78125 63.8125 
Q 48.140625 66.109375 41.796875 66.109375 
Q 29.296875 66.109375 22.65625 58.46875 
Q 16.015625 50.828125 16.015625 36.375 
Q 16.015625 21.96875 22.65625 14.328125 
Q 29.296875 6.6875 41.796875 6.6875 
Q 48.140625 6.6875 53.78125 8.984375 
Q 59.421875 11.28125 64.40625 15.921875 
L 64.40625 5.609375 
Q 59.234375 2.09375 53.4375 0.328125 
Q 47.65625 -1.421875 41.21875 -1.421875 
Q 24.65625 -1.421875 15.125 8.703125 
Q 5.609375 18.84375 5.609375 36.375 
Q 5.609375 53.953125 15.125 64.078125 
Q 24.65625 74.21875 41.21875 74.21875 
Q 47.75 74.21875 53.53125 72.484375 
Q 59.328125 70.75 64.40625 67.28125 
" id="BitstreamVeraSans-Roman-43"/>
      <path d="M 44.28125 53.078125 
L 44.28125 44.578125 
Q 40.484375 46.53125 36.375 47.5 
Q 32.28125 48.484375 27.875 48.484375 
Q 21.1875 48.484375 17.84375 46.4375 
Q 14.5 44.390625 14.5 40.28125 
Q 14.5 37.15625 16.890625 35.375 
Q 19.28125 33.59375 26.515625 31.984375 
L 29.59375 31.296875 
Q 39.15625 29.25 43.1875 25.515625 
Q 47.21875 21.78125 47.21875 15.09375 
Q 47.21875 7.46875 41.1875 3.015625 
Q 35.15625 -1.421875 24.609375 -1.421875 
Q 20.21875 -1.421875 15.453125 -0.5625 
Q 10.6875 0.296875 5.421875 2 
L 5.421875 11.28125 
Q 10.40625 8.6875 15.234375 7.390625 
Q 20.0625 6.109375 24.8125 6.109375 
Q 31.15625 6.109375 34.5625 8.28125 
Q 37.984375 10.453125 37.984375 14.40625 
Q 37.984375 18.0625 35.515625 20.015625 
Q 33.0625 21.96875 24.703125 23.78125 
L 21.578125 24.515625 
Q 13.234375 26.265625 9.515625 29.90625 
Q 5.8125 33.546875 5.8125 39.890625 
Q 5.8125 47.609375 11.28125 51.796875 
Q 16.75 56 26.8125 56 
Q 31.78125 56 36.171875 55.265625 
Q 40.578125 54.546875 44.28125 53.078125 
" id="BitstreamVeraSans-Roman-73"/>
      <path d="M 30.609375 48.390625 
Q 23.390625 48.390625 19.1875 42.75 
Q 14.984375 37.109375 14.984375 27.296875 
Q 14.984375 17.484375 19.15625 11.84375 
Q 23.34375 6.203125 30.609375 6.203125 
Q 37.796875 6.203125 41.984375 11.859375 
Q 46.1875 17.53125 46.1875 27.296875 
Q 46.1875 37.015625 41.984375 42.703125 
Q 37.796875 48.390625 30.609375 48.390625 
M 30.609375 56 
Q 42.328125 56 49.015625 48.375 
Q 55.71875 40.765625 55.71875 27.296875 
Q 55.71875 13.875 49.015625 6.21875 
Q 42.328125 -1.421875 30.609375 -1.421875 
Q 18.84375 -1.421875 12.171875 6.21875 
Q 5.515625 13.875 5.515625 27.296875 
Q 5.515625 40.765625 12.171875 48.375 
Q 18.84375 56 30.609375 56 
" id="BitstreamVeraSans-Roman-6f"/>
     </defs>
     <g transform="translate(93.145 42.668625)scale(0.144 -0.144)">
      <use xlink:href="#BitstreamVeraSans-Roman-43"/>
      <use x="69.82421875" xlink:href="#BitstreamVeraSans-Roman-6c"/>
      <use x="97.607421875" xlink:href="#BitstreamVeraSans-Roman-6f"/>
      <use x="158.7890625" xlink:href="#BitstreamVeraSans-Roman-73"/>
      <use x="210.888671875" xlink:href="#BitstreamVeraSans-Roman-65"/>
     </g>
    </g>
    <g id="line2d_98">
     <path d="M 57.145 58.765125 
L 77.305 58.765125 
" style="fill:none;stroke:#008000;stroke-linecap:square;"/>
    </g>
    <g id="line2d_99"/>
    <g id="text_17">
     <!-- shifted -->
     <defs>
      <path d="M 9.421875 54.6875 
L 18.40625 54.6875 
L 18.40625 0 
L 9.421875 0 
z
M 9.421875 75.984375 
L 18.40625 75.984375 
L 18.40625 64.59375 
L 9.421875 64.59375 
z
" id="BitstreamVeraSans-Roman-69"/>
      <path d="M 54.890625 33.015625 
L 54.890625 0 
L 45.90625 0 
L 45.90625 32.71875 
Q 45.90625 40.484375 42.875 44.328125 
Q 39.84375 48.1875 33.796875 48.1875 
Q 26.515625 48.1875 22.3125 43.546875 
Q 18.109375 38.921875 18.109375 30.90625 
L 18.109375 0 
L 9.078125 0 
L 9.078125 75.984375 
L 18.109375 75.984375 
L 18.109375 46.1875 
Q 21.34375 51.125 25.703125 53.5625 
Q 30.078125 56 35.796875 56 
Q 45.21875 56 50.046875 50.171875 
Q 54.890625 44.34375 54.890625 33.015625 
" id="BitstreamVeraSans-Roman-68"/>
      <path d="M 45.40625 46.390625 
L 45.40625 75.984375 
L 54.390625 75.984375 
L 54.390625 0 
L 45.40625 0 
L 45.40625 8.203125 
Q 42.578125 3.328125 38.25 0.953125 
Q 33.9375 -1.421875 27.875 -1.421875 
Q 17.96875 -1.421875 11.734375 6.484375 
Q 5.515625 14.40625 5.515625 27.296875 
Q 5.515625 40.1875 11.734375 48.09375 
Q 17.96875 56 27.875 56 
Q 33.9375 56 38.25 53.625 
Q 42.578125 51.265625 45.40625 46.390625 
M 14.796875 27.296875 
Q 14.796875 17.390625 18.875 11.75 
Q 22.953125 6.109375 30.078125 6.109375 
Q 37.203125 6.109375 41.296875 11.75 
Q 45.40625 17.390625 45.40625 27.296875 
Q 45.40625 37.203125 41.296875 42.84375 
Q 37.203125 48.484375 30.078125 48.484375 
Q 22.953125 48.484375 18.875 42.84375 
Q 14.796875 37.203125 14.796875 27.296875 
" id="BitstreamVeraSans-Roman-64"/>
      <path d="M 37.109375 75.984375 
L 37.109375 68.5 
L 28.515625 68.5 
Q 23.6875 68.5 21.796875 66.546875 
Q 19.921875 64.59375 19.921875 59.515625 
L 19.921875 54.6875 
L 34.71875 54.6875 
L 34.71875 47.703125 
L 19.921875 47.703125 
L 19.921875 0 
L 10.890625 0 
L 10.890625 47.703125 
L 2.296875 47.703125 
L 2.296875 54.6875 
L 10.890625 54.6875 
L 10.890625 58.5 
Q 10.890625 67.625 15.140625 71.796875 
Q 19.390625 75.984375 28.609375 75.984375 
z
" id="BitstreamVeraSans-Roman-66"/>
     </defs>
     <g transform="translate(93.145 63.805125)scale(0.144 -0.144)">
      <use xlink:href="#BitstreamVeraSans-Roman-73"/>
      <use x="52.099609375" xlink:href="#BitstreamVeraSans-Roman-68"/>
      <use x="115.478515625" xlink:href="#BitstreamVeraSans-Roman-69"/>
      <use x="143.26171875" xlink:href="#BitstreamVeraSans-Roman-66"/>
      <use x="178.451171875" xlink:href="#BitstreamVeraSans-Roman-74"/>
      <use x="217.66015625" xlink:href="#BitstreamVeraSans-Roman-65"/>
      <use x="279.18359375" xlink:href="#BitstreamVeraSans-Roman-64"/>
     </g>
    </g>
    <g id="line2d_100">
     <path d="M 57.145 79.901625 
L 77.305 79.901625 
" style="fill:none;stroke:#ff0000;stroke-linecap:square;"/>
    </g>
    <g id="line2d_101"/>
    <g id="text_18">
     <!-- lagged -->
     <defs>
      <path d="M 45.40625 27.984375 
Q 45.40625 37.75 41.375 43.109375 
Q 37.359375 48.484375 30.078125 48.484375 
Q 22.859375 48.484375 18.828125 43.109375 
Q 14.796875 37.75 14.796875 27.984375 
Q 14.796875 18.265625 18.828125 12.890625 
Q 22.859375 7.515625 30.078125 7.515625 
Q 37.359375 7.515625 41.375 12.890625 
Q 45.40625 18.265625 45.40625 27.984375 
M 54.390625 6.78125 
Q 54.390625 -7.171875 48.1875 -13.984375 
Q 42 -20.796875 29.203125 -20.796875 
Q 24.46875 -20.796875 20.265625 -20.09375 
Q 16.0625 -19.390625 12.109375 -17.921875 
L 12.109375 -9.1875 
Q 16.0625 -11.328125 19.921875 -12.34375 
Q 23.78125 -13.375 27.78125 -13.375 
Q 36.625 -13.375 41.015625 -8.765625 
Q 45.40625 -4.15625 45.40625 5.171875 
L 45.40625 9.625 
Q 42.625 4.78125 38.28125 2.390625 
Q 33.9375 0 27.875 0 
Q 17.828125 0 11.671875 7.65625 
Q 5.515625 15.328125 5.515625 27.984375 
Q 5.515625 40.671875 11.671875 48.328125 
Q 17.828125 56 27.875 56 
Q 33.9375 56 38.28125 53.609375 
Q 42.625 51.21875 45.40625 46.390625 
L 45.40625 54.6875 
L 54.390625 54.6875 
z
" id="BitstreamVeraSans-Roman-67"/>
     </defs>
     <g transform="translate(93.145 84.941625)scale(0.144 -0.144)">
      <use xlink:href="#BitstreamVeraSans-Roman-6c"/>
      <use x="27.783203125" xlink:href="#BitstreamVeraSans-Roman-61"/>
      <use x="89.0625" xlink:href="#BitstreamVeraSans-Roman-67"/>
      <use x="152.5390625" xlink:href="#BitstreamVeraSans-Roman-67"/>
      <use x="216.015625" xlink:href="#BitstreamVeraSans-Roman-65"/>
      <use x="277.5390625" xlink:href="#BitstreamVeraSans-Roman-64"/>
     </g>
    </g>
   </g>
  </g>
 </g>
 <defs>
  <clipPath id="pe0a315c67c">
   <rect height="342.60825" width="405.175" x="39.865" y="18.766875"/>
  </clipPath>
 </defs>
</svg>
