<?xml version="1.0" encoding="utf-8" standalone="no"?>
<!DOCTYPE svg PUBLIC "-//W3C//DTD SVG 1.1//EN"
  "http://www.w3.org/Graphics/SVG/1.1/DTD/svg11.dtd">
<!-- Created with matplotlib (http://matplotlib.org/) -->
<svg height="420pt" version="1.1" viewBox="0 0 461 420" width="461pt" xmlns="http://www.w3.org/2000/svg" xmlns:xlink="http://www.w3.org/1999/xlink">
 <defs>
  <style type="text/css">
*{stroke-linecap:butt;stroke-linejoin:round;stroke-miterlimit:100000;}
  </style>
 </defs>
 <g id="figure_1">
  <g id="patch_1">
   <path d="M 0 420 
L 461 420 
L 461 0 
L 0 0 
z
" style="fill:#ffffff;"/>
  </g>
  <g id="axes_1">
   <g id="patch_2">
    <path d="M 31.081875 390.718125 
L 438.309531 390.718125 
L 438.309531 17.620938 
L 31.081875 17.620938 
z
" style="fill:#eaeaf2;"/>
   </g>
   <g id="matplotlib.axis_1">
    <g id="xtick_1">
     <g id="line2d_1">
      <path clip-path="url(#p6145a1417a)" d="M 31.081875 390.718125 
L 31.081875 17.620938 
" style="fill:none;stroke:#ffffff;stroke-linecap:round;"/>
     </g>
     <g id="line2d_2">
      <defs>
       <path d="M 0 0 
L 0 0 
" id="m40775a2561" style="stroke:#262626;"/>
      </defs>
      <g>
       <use style="fill:#262626;stroke:#262626;" x="31.081875" xlink:href="#m40775a2561" y="390.718125"/>
      </g>
     </g>
     <g id="line2d_3">
      <g>
       <use style="fill:#262626;stroke:#262626;" x="31.081875" xlink:href="#m40775a2561" y="17.6209375"/>
      </g>
     </g>
     <g id="text_1">
      <!-- −0.15 -->
      <defs>
       <path d="M 51.421875 22.40625 
Q 51.421875 17.234375 49.859375 12.9375 
Q 48.296875 8.640625 45.21875 5.53125 
Q 42.140625 2.4375 37.578125 0.71875 
Q 33.015625 -0.984375 27 -0.984375 
Q 21.578125 -0.984375 17.546875 0.28125 
Q 13.53125 1.5625 10.734375 3.78125 
Q 7.953125 6 6.3125 8.984375 
Q 4.6875 11.96875 4 15.375 
L 12.890625 16.40625 
Q 13.421875 14.453125 14.390625 12.625 
Q 15.375 10.796875 17.0625 9.34375 
Q 18.75 7.90625 21.21875 7.046875 
Q 23.6875 6.203125 27.203125 6.203125 
Q 30.609375 6.203125 33.390625 7.25 
Q 36.1875 8.296875 38.15625 10.34375 
Q 40.140625 12.40625 41.203125 15.375 
Q 42.28125 18.359375 42.28125 22.21875 
Q 42.28125 25.390625 41.25 28.046875 
Q 40.234375 30.71875 38.328125 32.640625 
Q 36.421875 34.578125 33.65625 35.640625 
Q 30.90625 36.71875 27.390625 36.71875 
Q 25.203125 36.71875 23.34375 36.328125 
Q 21.484375 35.9375 19.890625 35.25 
Q 18.3125 34.578125 17.015625 33.671875 
Q 15.71875 32.765625 14.59375 31.78125 
L 6 31.78125 
L 8.296875 68.796875 
L 47.40625 68.796875 
L 47.40625 61.328125 
L 16.3125 61.328125 
L 14.984375 39.5 
Q 17.328125 41.3125 20.84375 42.59375 
Q 24.359375 43.890625 29.203125 43.890625 
Q 34.328125 43.890625 38.421875 42.328125 
Q 42.53125 40.765625 45.40625 37.90625 
Q 48.296875 35.0625 49.859375 31.109375 
Q 51.421875 27.15625 51.421875 22.40625 
" id="LiberationSans-35"/>
       <path d="M 51.703125 34.421875 
Q 51.703125 24.515625 49.828125 17.75 
Q 47.953125 10.984375 44.703125 6.8125 
Q 41.453125 2.640625 37.0625 0.828125 
Q 32.671875 -0.984375 27.6875 -0.984375 
Q 22.65625 -0.984375 18.3125 0.828125 
Q 13.96875 2.640625 10.765625 6.78125 
Q 7.5625 10.9375 5.734375 17.703125 
Q 3.90625 24.46875 3.90625 34.421875 
Q 3.90625 44.828125 5.734375 51.640625 
Q 7.5625 58.453125 10.78125 62.5 
Q 14.015625 66.546875 18.40625 68.1875 
Q 22.796875 69.828125 27.984375 69.828125 
Q 32.90625 69.828125 37.21875 68.1875 
Q 41.546875 66.546875 44.765625 62.5 
Q 48 58.453125 49.84375 51.640625 
Q 51.703125 44.828125 51.703125 34.421875 
M 42.78125 34.421875 
Q 42.78125 42.625 41.796875 48.0625 
Q 40.828125 53.515625 38.921875 56.765625 
Q 37.015625 60.015625 34.25 61.359375 
Q 31.5 62.703125 27.984375 62.703125 
Q 24.265625 62.703125 21.4375 61.328125 
Q 18.609375 59.96875 16.671875 56.71875 
Q 14.75 53.46875 13.765625 48.015625 
Q 12.796875 42.578125 12.796875 34.421875 
Q 12.796875 26.515625 13.796875 21.09375 
Q 14.796875 15.671875 16.71875 12.375 
Q 18.65625 9.078125 21.4375 7.640625 
Q 24.21875 6.203125 27.78125 6.203125 
Q 31.25 6.203125 34.03125 7.640625 
Q 36.8125 9.078125 38.734375 12.375 
Q 40.671875 15.671875 41.71875 21.09375 
Q 42.78125 26.515625 42.78125 34.421875 
" id="LiberationSans-30"/>
       <path d="M 4.9375 29.6875 
L 4.9375 36.8125 
L 53.515625 36.8125 
L 53.515625 29.6875 
z
" id="LiberationSans-2212"/>
       <path d="M 7.625 0 
L 7.625 7.46875 
L 25.140625 7.46875 
L 25.140625 60.40625 
L 9.625 49.3125 
L 9.625 57.625 
L 25.875 68.796875 
L 33.984375 68.796875 
L 33.984375 7.46875 
L 50.734375 7.46875 
L 50.734375 0 
z
" id="LiberationSans-31"/>
       <path d="M 9.125 0 
L 9.125 10.6875 
L 18.65625 10.6875 
L 18.65625 0 
z
" id="LiberationSans-2e"/>
      </defs>
      <g style="fill:#262626;" transform="translate(18.43109375 404.965)scale(0.1 -0.1)">
       <use xlink:href="#LiberationSans-2212"/>
       <use x="58.3984375" xlink:href="#LiberationSans-30"/>
       <use x="114.013671875" xlink:href="#LiberationSans-2e"/>
       <use x="141.796875" xlink:href="#LiberationSans-31"/>
       <use x="197.412109375" xlink:href="#LiberationSans-35"/>
      </g>
     </g>
    </g>
    <g id="xtick_2">
     <g id="line2d_4">
      <path clip-path="url(#p6145a1417a)" d="M 89.257254 390.718125 
L 89.257254 17.620938 
" style="fill:none;stroke:#ffffff;stroke-linecap:round;"/>
     </g>
     <g id="line2d_5">
      <g>
       <use style="fill:#262626;stroke:#262626;" x="89.2572544643" xlink:href="#m40775a2561" y="390.718125"/>
      </g>
     </g>
     <g id="line2d_6">
      <g>
       <use style="fill:#262626;stroke:#262626;" x="89.2572544643" xlink:href="#m40775a2561" y="17.6209375"/>
      </g>
     </g>
     <g id="text_2">
      <!-- −0.10 -->
      <g style="fill:#262626;" transform="translate(76.6064732143 404.965)scale(0.1 -0.1)">
       <use xlink:href="#LiberationSans-2212"/>
       <use x="58.3984375" xlink:href="#LiberationSans-30"/>
       <use x="114.013671875" xlink:href="#LiberationSans-2e"/>
       <use x="141.796875" xlink:href="#LiberationSans-31"/>
       <use x="197.412109375" xlink:href="#LiberationSans-30"/>
      </g>
     </g>
    </g>
    <g id="xtick_3">
     <g id="line2d_7">
      <path clip-path="url(#p6145a1417a)" d="M 147.432634 390.718125 
L 147.432634 17.620938 
" style="fill:none;stroke:#ffffff;stroke-linecap:round;"/>
     </g>
     <g id="line2d_8">
      <g>
       <use style="fill:#262626;stroke:#262626;" x="147.432633929" xlink:href="#m40775a2561" y="390.718125"/>
      </g>
     </g>
     <g id="line2d_9">
      <g>
       <use style="fill:#262626;stroke:#262626;" x="147.432633929" xlink:href="#m40775a2561" y="17.6209375"/>
      </g>
     </g>
     <g id="text_3">
      <!-- −0.05 -->
      <g style="fill:#262626;" transform="translate(134.781852679 404.965)scale(0.1 -0.1)">
       <use xlink:href="#LiberationSans-2212"/>
       <use x="58.3984375" xlink:href="#LiberationSans-30"/>
       <use x="114.013671875" xlink:href="#LiberationSans-2e"/>
       <use x="141.796875" xlink:href="#LiberationSans-30"/>
       <use x="197.412109375" xlink:href="#LiberationSans-35"/>
      </g>
     </g>
    </g>
    <g id="xtick_4">
     <g id="line2d_10">
      <path clip-path="url(#p6145a1417a)" d="M 205.608013 390.718125 
L 205.608013 17.620938 
" style="fill:none;stroke:#ffffff;stroke-linecap:round;"/>
     </g>
     <g id="line2d_11">
      <g>
       <use style="fill:#262626;stroke:#262626;" x="205.608013393" xlink:href="#m40775a2561" y="390.718125"/>
      </g>
     </g>
     <g id="line2d_12">
      <g>
       <use style="fill:#262626;stroke:#262626;" x="205.608013393" xlink:href="#m40775a2561" y="17.6209375"/>
      </g>
     </g>
     <g id="text_4">
      <!-- 0.00 -->
      <g style="fill:#262626;" transform="translate(195.877544643 404.965)scale(0.1 -0.1)">
       <use xlink:href="#LiberationSans-30"/>
       <use x="55.615234375" xlink:href="#LiberationSans-2e"/>
       <use x="83.3984375" xlink:href="#LiberationSans-30"/>
       <use x="139.013671875" xlink:href="#LiberationSans-30"/>
      </g>
     </g>
    </g>
    <g id="xtick_5">
     <g id="line2d_13">
      <path clip-path="url(#p6145a1417a)" d="M 263.783393 390.718125 
L 263.783393 17.620938 
" style="fill:none;stroke:#ffffff;stroke-linecap:round;"/>
     </g>
     <g id="line2d_14">
      <g>
       <use style="fill:#262626;stroke:#262626;" x="263.783392857" xlink:href="#m40775a2561" y="390.718125"/>
      </g>
     </g>
     <g id="line2d_15">
      <g>
       <use style="fill:#262626;stroke:#262626;" x="263.783392857" xlink:href="#m40775a2561" y="17.6209375"/>
      </g>
     </g>
     <g id="text_5">
      <!-- 0.05 -->
      <g style="fill:#262626;" transform="translate(254.052924107 404.965)scale(0.1 -0.1)">
       <use xlink:href="#LiberationSans-30"/>
       <use x="55.615234375" xlink:href="#LiberationSans-2e"/>
       <use x="83.3984375" xlink:href="#LiberationSans-30"/>
       <use x="139.013671875" xlink:href="#LiberationSans-35"/>
      </g>
     </g>
    </g>
    <g id="xtick_6">
     <g id="line2d_16">
      <path clip-path="url(#p6145a1417a)" d="M 321.958772 390.718125 
L 321.958772 17.620938 
" style="fill:none;stroke:#ffffff;stroke-linecap:round;"/>
     </g>
     <g id="line2d_17">
      <g>
       <use style="fill:#262626;stroke:#262626;" x="321.958772321" xlink:href="#m40775a2561" y="390.718125"/>
      </g>
     </g>
     <g id="line2d_18">
      <g>
       <use style="fill:#262626;stroke:#262626;" x="321.958772321" xlink:href="#m40775a2561" y="17.6209375"/>
      </g>
     </g>
     <g id="text_6">
      <!-- 0.10 -->
      <g style="fill:#262626;" transform="translate(312.228303571 404.965)scale(0.1 -0.1)">
       <use xlink:href="#LiberationSans-30"/>
       <use x="55.615234375" xlink:href="#LiberationSans-2e"/>
       <use x="83.3984375" xlink:href="#LiberationSans-31"/>
       <use x="139.013671875" xlink:href="#LiberationSans-30"/>
      </g>
     </g>
    </g>
    <g id="xtick_7">
     <g id="line2d_19">
      <path clip-path="url(#p6145a1417a)" d="M 380.134152 390.718125 
L 380.134152 17.620938 
" style="fill:none;stroke:#ffffff;stroke-linecap:round;"/>
     </g>
     <g id="line2d_20">
      <g>
       <use style="fill:#262626;stroke:#262626;" x="380.134151786" xlink:href="#m40775a2561" y="390.718125"/>
      </g>
     </g>
     <g id="line2d_21">
      <g>
       <use style="fill:#262626;stroke:#262626;" x="380.134151786" xlink:href="#m40775a2561" y="17.6209375"/>
      </g>
     </g>
     <g id="text_7">
      <!-- 0.15 -->
      <g style="fill:#262626;" transform="translate(370.403683036 404.965)scale(0.1 -0.1)">
       <use xlink:href="#LiberationSans-30"/>
       <use x="55.615234375" xlink:href="#LiberationSans-2e"/>
       <use x="83.3984375" xlink:href="#LiberationSans-31"/>
       <use x="139.013671875" xlink:href="#LiberationSans-35"/>
      </g>
     </g>
    </g>
    <g id="xtick_8">
     <g id="line2d_22">
      <path clip-path="url(#p6145a1417a)" d="M 438.309531 390.718125 
L 438.309531 17.620938 
" style="fill:none;stroke:#ffffff;stroke-linecap:round;"/>
     </g>
     <g id="line2d_23">
      <g>
       <use style="fill:#262626;stroke:#262626;" x="438.30953125" xlink:href="#m40775a2561" y="390.718125"/>
      </g>
     </g>
     <g id="line2d_24">
      <g>
       <use style="fill:#262626;stroke:#262626;" x="438.30953125" xlink:href="#m40775a2561" y="17.6209375"/>
      </g>
     </g>
     <g id="text_8">
      <!-- 0.20 -->
      <defs>
       <path d="M 5.03125 0 
L 5.03125 6.203125 
Q 7.515625 11.921875 11.109375 16.28125 
Q 14.703125 20.65625 18.65625 24.1875 
Q 22.609375 27.734375 26.484375 30.765625 
Q 30.375 33.796875 33.5 36.8125 
Q 36.625 39.84375 38.546875 43.15625 
Q 40.484375 46.484375 40.484375 50.6875 
Q 40.484375 53.609375 39.59375 55.828125 
Q 38.71875 58.0625 37.0625 59.5625 
Q 35.40625 61.078125 33.078125 61.828125 
Q 30.765625 62.59375 27.9375 62.59375 
Q 25.296875 62.59375 22.96875 61.859375 
Q 20.65625 61.140625 18.84375 59.671875 
Q 17.046875 58.203125 15.890625 56.03125 
Q 14.75 53.859375 14.40625 50.984375 
L 5.421875 51.8125 
Q 5.859375 55.515625 7.46875 58.78125 
Q 9.078125 62.0625 11.90625 64.53125 
Q 14.75 67 18.71875 68.40625 
Q 22.703125 69.828125 27.9375 69.828125 
Q 33.0625 69.828125 37.0625 68.609375 
Q 41.0625 67.390625 43.8125 64.984375 
Q 46.578125 62.59375 48.046875 59.078125 
Q 49.515625 55.5625 49.515625 50.984375 
Q 49.515625 47.515625 48.265625 44.390625 
Q 47.015625 41.265625 44.9375 38.421875 
Q 42.875 35.59375 40.140625 32.953125 
Q 37.40625 30.328125 34.421875 27.8125 
Q 31.453125 25.296875 28.421875 22.828125 
Q 25.390625 20.359375 22.71875 17.859375 
Q 20.0625 15.375 17.96875 12.8125 
Q 15.875 10.25 14.703125 7.46875 
L 50.59375 7.46875 
L 50.59375 0 
z
" id="LiberationSans-32"/>
      </defs>
      <g style="fill:#262626;" transform="translate(428.5790625 404.965)scale(0.1 -0.1)">
       <use xlink:href="#LiberationSans-30"/>
       <use x="55.615234375" xlink:href="#LiberationSans-2e"/>
       <use x="83.3984375" xlink:href="#LiberationSans-32"/>
       <use x="139.013671875" xlink:href="#LiberationSans-30"/>
      </g>
     </g>
    </g>
   </g>
   <g id="matplotlib.axis_2">
    <g id="ytick_1">
     <g id="line2d_25">
      <path clip-path="url(#p6145a1417a)" d="M 31.081875 390.718125 
L 438.309531 390.718125 
" style="fill:none;stroke:#ffffff;stroke-linecap:round;"/>
     </g>
     <g id="line2d_26">
      <g>
       <use style="fill:#262626;stroke:#262626;" x="31.081875" xlink:href="#m40775a2561" y="390.718125"/>
      </g>
     </g>
     <g id="line2d_27">
      <g>
       <use style="fill:#262626;stroke:#262626;" x="438.30953125" xlink:href="#m40775a2561" y="390.718125"/>
      </g>
     </g>
     <g id="text_9">
      <!-- 0 -->
      <g style="fill:#262626;" transform="translate(18.5209375 393.3040625)scale(0.1 -0.1)">
       <use xlink:href="#LiberationSans-30"/>
      </g>
     </g>
    </g>
    <g id="ytick_2">
     <g id="line2d_28">
      <path clip-path="url(#p6145a1417a)" d="M 31.081875 328.53526 
L 438.309531 328.53526 
" style="fill:none;stroke:#ffffff;stroke-linecap:round;"/>
     </g>
     <g id="line2d_29">
      <g>
       <use style="fill:#262626;stroke:#262626;" x="31.081875" xlink:href="#m40775a2561" y="328.535260417"/>
      </g>
     </g>
     <g id="line2d_30">
      <g>
       <use style="fill:#262626;stroke:#262626;" x="438.30953125" xlink:href="#m40775a2561" y="328.535260417"/>
      </g>
     </g>
     <g id="text_10">
      <!-- 5 -->
      <g style="fill:#262626;" transform="translate(18.5209375 331.121197917)scale(0.1 -0.1)">
       <use xlink:href="#LiberationSans-35"/>
      </g>
     </g>
    </g>
    <g id="ytick_3">
     <g id="line2d_31">
      <path clip-path="url(#p6145a1417a)" d="M 31.081875 266.352396 
L 438.309531 266.352396 
" style="fill:none;stroke:#ffffff;stroke-linecap:round;"/>
     </g>
     <g id="line2d_32">
      <g>
       <use style="fill:#262626;stroke:#262626;" x="31.081875" xlink:href="#m40775a2561" y="266.352395833"/>
      </g>
     </g>
     <g id="line2d_33">
      <g>
       <use style="fill:#262626;stroke:#262626;" x="438.30953125" xlink:href="#m40775a2561" y="266.352395833"/>
      </g>
     </g>
     <g id="text_11">
      <!-- 10 -->
      <g style="fill:#262626;" transform="translate(12.96 268.938333333)scale(0.1 -0.1)">
       <use xlink:href="#LiberationSans-31"/>
       <use x="55.615234375" xlink:href="#LiberationSans-30"/>
      </g>
     </g>
    </g>
    <g id="ytick_4">
     <g id="line2d_34">
      <path clip-path="url(#p6145a1417a)" d="M 31.081875 204.169531 
L 438.309531 204.169531 
" style="fill:none;stroke:#ffffff;stroke-linecap:round;"/>
     </g>
     <g id="line2d_35">
      <g>
       <use style="fill:#262626;stroke:#262626;" x="31.081875" xlink:href="#m40775a2561" y="204.16953125"/>
      </g>
     </g>
     <g id="line2d_36">
      <g>
       <use style="fill:#262626;stroke:#262626;" x="438.30953125" xlink:href="#m40775a2561" y="204.16953125"/>
      </g>
     </g>
     <g id="text_12">
      <!-- 15 -->
      <g style="fill:#262626;" transform="translate(12.96 206.75546875)scale(0.1 -0.1)">
       <use xlink:href="#LiberationSans-31"/>
       <use x="55.615234375" xlink:href="#LiberationSans-35"/>
      </g>
     </g>
    </g>
    <g id="ytick_5">
     <g id="line2d_37">
      <path clip-path="url(#p6145a1417a)" d="M 31.081875 141.986667 
L 438.309531 141.986667 
" style="fill:none;stroke:#ffffff;stroke-linecap:round;"/>
     </g>
     <g id="line2d_38">
      <g>
       <use style="fill:#262626;stroke:#262626;" x="31.081875" xlink:href="#m40775a2561" y="141.986666667"/>
      </g>
     </g>
     <g id="line2d_39">
      <g>
       <use style="fill:#262626;stroke:#262626;" x="438.30953125" xlink:href="#m40775a2561" y="141.986666667"/>
      </g>
     </g>
     <g id="text_13">
      <!-- 20 -->
      <g style="fill:#262626;" transform="translate(12.96 144.572604167)scale(0.1 -0.1)">
       <use xlink:href="#LiberationSans-32"/>
       <use x="55.615234375" xlink:href="#LiberationSans-30"/>
      </g>
     </g>
    </g>
    <g id="ytick_6">
     <g id="line2d_40">
      <path clip-path="url(#p6145a1417a)" d="M 31.081875 79.803802 
L 438.309531 79.803802 
" style="fill:none;stroke:#ffffff;stroke-linecap:round;"/>
     </g>
     <g id="line2d_41">
      <g>
       <use style="fill:#262626;stroke:#262626;" x="31.081875" xlink:href="#m40775a2561" y="79.8038020833"/>
      </g>
     </g>
     <g id="line2d_42">
      <g>
       <use style="fill:#262626;stroke:#262626;" x="438.30953125" xlink:href="#m40775a2561" y="79.8038020833"/>
      </g>
     </g>
     <g id="text_14">
      <!-- 25 -->
      <g style="fill:#262626;" transform="translate(12.96 82.3897395833)scale(0.1 -0.1)">
       <use xlink:href="#LiberationSans-32"/>
       <use x="55.615234375" xlink:href="#LiberationSans-35"/>
      </g>
     </g>
    </g>
    <g id="ytick_7">
     <g id="line2d_43">
      <path clip-path="url(#p6145a1417a)" d="M 31.081875 17.620938 
L 438.309531 17.620938 
" style="fill:none;stroke:#ffffff;stroke-linecap:round;"/>
     </g>
     <g id="line2d_44">
      <g>
       <use style="fill:#262626;stroke:#262626;" x="31.081875" xlink:href="#m40775a2561" y="17.6209375"/>
      </g>
     </g>
     <g id="line2d_45">
      <g>
       <use style="fill:#262626;stroke:#262626;" x="438.30953125" xlink:href="#m40775a2561" y="17.6209375"/>
      </g>
     </g>
     <g id="text_15">
      <!-- 30 -->
      <defs>
       <path d="M 51.21875 19 
Q 51.21875 14.265625 49.671875 10.546875 
Q 48.140625 6.84375 45.1875 4.265625 
Q 42.234375 1.703125 37.859375 0.359375 
Q 33.5 -0.984375 27.875 -0.984375 
Q 21.484375 -0.984375 17.109375 0.609375 
Q 12.75 2.203125 9.90625 4.8125 
Q 7.078125 7.421875 5.65625 10.765625 
Q 4.25 14.109375 3.8125 17.671875 
L 12.890625 18.5 
Q 13.28125 15.765625 14.328125 13.515625 
Q 15.375 11.28125 17.1875 9.671875 
Q 19 8.0625 21.625 7.171875 
Q 24.265625 6.296875 27.875 6.296875 
Q 34.515625 6.296875 38.296875 9.5625 
Q 42.09375 12.84375 42.09375 19.28125 
Q 42.09375 23.09375 40.40625 25.40625 
Q 38.71875 27.734375 36.203125 29.03125 
Q 33.6875 30.328125 30.734375 30.765625 
Q 27.78125 31.203125 25.296875 31.203125 
L 20.3125 31.203125 
L 20.3125 38.8125 
L 25.09375 38.8125 
Q 27.59375 38.8125 30.265625 39.328125 
Q 32.953125 39.84375 35.171875 41.1875 
Q 37.40625 42.53125 38.84375 44.828125 
Q 40.28125 47.125 40.28125 50.6875 
Q 40.28125 56.203125 37.03125 59.390625 
Q 33.796875 62.59375 27.390625 62.59375 
Q 21.578125 62.59375 17.984375 59.609375 
Q 14.40625 56.640625 13.8125 51.21875 
L 4.984375 51.90625 
Q 5.515625 56.453125 7.46875 59.8125 
Q 9.421875 63.1875 12.421875 65.40625 
Q 15.4375 67.625 19.28125 68.71875 
Q 23.140625 69.828125 27.484375 69.828125 
Q 33.25 69.828125 37.390625 68.375 
Q 41.546875 66.9375 44.1875 64.46875 
Q 46.828125 62.015625 48.0625 58.6875 
Q 49.3125 55.375 49.3125 51.609375 
Q 49.3125 48.578125 48.484375 45.9375 
Q 47.65625 43.3125 45.890625 41.203125 
Q 44.140625 39.109375 41.421875 37.59375 
Q 38.71875 36.078125 34.90625 35.296875 
L 34.90625 35.109375 
Q 39.0625 34.671875 42.140625 33.21875 
Q 45.21875 31.78125 47.21875 29.625 
Q 49.21875 27.484375 50.21875 24.75 
Q 51.21875 22.015625 51.21875 19 
" id="LiberationSans-33"/>
      </defs>
      <g style="fill:#262626;" transform="translate(12.96 20.206875)scale(0.1 -0.1)">
       <use xlink:href="#LiberationSans-33"/>
       <use x="55.615234375" xlink:href="#LiberationSans-30"/>
      </g>
     </g>
    </g>
   </g>
   <g id="patch_3">
    <path clip-path="url(#p6145a1417a)" d="M 69.489763 390.718125 
L 75.823991 390.718125 
L 75.823991 387.109244 
L 69.489763 387.109244 
z
" style="fill:#4c72b0;opacity:0.4;stroke:#000000;stroke-linejoin:miter;stroke-width:0.3;"/>
   </g>
   <g id="patch_4">
    <path clip-path="url(#p6145a1417a)" d="M 75.823991 390.718125 
L 82.158219 390.718125 
L 82.158219 388.913684 
L 75.823991 388.913684 
z
" style="fill:#4c72b0;opacity:0.4;stroke:#000000;stroke-linejoin:miter;stroke-width:0.3;"/>
   </g>
   <g id="patch_5">
    <path clip-path="url(#p6145a1417a)" d="M 82.158219 390.718125 
L 88.492446 390.718125 
L 88.492446 390.718125 
L 82.158219 390.718125 
z
" style="fill:#4c72b0;opacity:0.4;stroke:#000000;stroke-linejoin:miter;stroke-width:0.3;"/>
   </g>
   <g id="patch_6">
    <path clip-path="url(#p6145a1417a)" d="M 88.492446 390.718125 
L 94.826674 390.718125 
L 94.826674 390.718125 
L 88.492446 390.718125 
z
" style="fill:#4c72b0;opacity:0.4;stroke:#000000;stroke-linejoin:miter;stroke-width:0.3;"/>
   </g>
   <g id="patch_7">
    <path clip-path="url(#p6145a1417a)" d="M 94.826674 390.718125 
L 101.160902 390.718125 
L 101.160902 387.109244 
L 94.826674 387.109244 
z
" style="fill:#4c72b0;opacity:0.4;stroke:#000000;stroke-linejoin:miter;stroke-width:0.3;"/>
   </g>
   <g id="patch_8">
    <path clip-path="url(#p6145a1417a)" d="M 101.160902 390.718125 
L 107.495129 390.718125 
L 107.495129 385.304803 
L 101.160902 385.304803 
z
" style="fill:#4c72b0;opacity:0.4;stroke:#000000;stroke-linejoin:miter;stroke-width:0.3;"/>
   </g>
   <g id="patch_9">
    <path clip-path="url(#p6145a1417a)" d="M 107.495129 390.718125 
L 113.829357 390.718125 
L 113.829357 388.913684 
L 107.495129 388.913684 
z
" style="fill:#4c72b0;opacity:0.4;stroke:#000000;stroke-linejoin:miter;stroke-width:0.3;"/>
   </g>
   <g id="patch_10">
    <path clip-path="url(#p6145a1417a)" d="M 113.829357 390.718125 
L 120.163584 390.718125 
L 120.163584 390.718125 
L 113.829357 390.718125 
z
" style="fill:#4c72b0;opacity:0.4;stroke:#000000;stroke-linejoin:miter;stroke-width:0.3;"/>
   </g>
   <g id="patch_11">
    <path clip-path="url(#p6145a1417a)" d="M 120.163584 390.718125 
L 126.497812 390.718125 
L 126.497812 388.913684 
L 120.163584 388.913684 
z
" style="fill:#4c72b0;opacity:0.4;stroke:#000000;stroke-linejoin:miter;stroke-width:0.3;"/>
   </g>
   <g id="patch_12">
    <path clip-path="url(#p6145a1417a)" d="M 126.497812 390.718125 
L 132.83204 390.718125 
L 132.83204 383.500363 
L 126.497812 383.500363 
z
" style="fill:#4c72b0;opacity:0.4;stroke:#000000;stroke-linejoin:miter;stroke-width:0.3;"/>
   </g>
   <g id="patch_13">
    <path clip-path="url(#p6145a1417a)" d="M 132.83204 390.718125 
L 139.166267 390.718125 
L 139.166267 385.304803 
L 132.83204 385.304803 
z
" style="fill:#4c72b0;opacity:0.4;stroke:#000000;stroke-linejoin:miter;stroke-width:0.3;"/>
   </g>
   <g id="patch_14">
    <path clip-path="url(#p6145a1417a)" d="M 139.166267 390.718125 
L 145.500495 390.718125 
L 145.500495 365.455958 
L 139.166267 365.455958 
z
" style="fill:#4c72b0;opacity:0.4;stroke:#000000;stroke-linejoin:miter;stroke-width:0.3;"/>
   </g>
   <g id="patch_15">
    <path clip-path="url(#p6145a1417a)" d="M 145.500495 390.718125 
L 151.834723 390.718125 
L 151.834723 379.891482 
L 145.500495 379.891482 
z
" style="fill:#4c72b0;opacity:0.4;stroke:#000000;stroke-linejoin:miter;stroke-width:0.3;"/>
   </g>
   <g id="patch_16">
    <path clip-path="url(#p6145a1417a)" d="M 151.834723 390.718125 
L 158.16895 390.718125 
L 158.16895 372.67372 
L 151.834723 372.67372 
z
" style="fill:#4c72b0;opacity:0.4;stroke:#000000;stroke-linejoin:miter;stroke-width:0.3;"/>
   </g>
   <g id="patch_17">
    <path clip-path="url(#p6145a1417a)" d="M 158.16895 390.718125 
L 164.503178 390.718125 
L 164.503178 369.064839 
L 158.16895 369.064839 
z
" style="fill:#4c72b0;opacity:0.4;stroke:#000000;stroke-linejoin:miter;stroke-width:0.3;"/>
   </g>
   <g id="patch_18">
    <path clip-path="url(#p6145a1417a)" d="M 164.503178 390.718125 
L 170.837405 390.718125 
L 170.837405 356.433755 
L 164.503178 356.433755 
z
" style="fill:#4c72b0;opacity:0.4;stroke:#000000;stroke-linejoin:miter;stroke-width:0.3;"/>
   </g>
   <g id="patch_19">
    <path clip-path="url(#p6145a1417a)" d="M 170.837405 390.718125 
L 177.171633 390.718125 
L 177.171633 300.496099 
L 170.837405 300.496099 
z
" style="fill:#4c72b0;opacity:0.4;stroke:#000000;stroke-linejoin:miter;stroke-width:0.3;"/>
   </g>
   <g id="patch_20">
    <path clip-path="url(#p6145a1417a)" d="M 177.171633 390.718125 
L 183.505861 390.718125 
L 183.505861 322.149386 
L 177.171633 322.149386 
z
" style="fill:#4c72b0;opacity:0.4;stroke:#000000;stroke-linejoin:miter;stroke-width:0.3;"/>
   </g>
   <g id="patch_21">
    <path clip-path="url(#p6145a1417a)" d="M 183.505861 390.718125 
L 189.840088 390.718125 
L 189.840088 233.7318 
L 183.505861 233.7318 
z
" style="fill:#4c72b0;opacity:0.4;stroke:#000000;stroke-linejoin:miter;stroke-width:0.3;"/>
   </g>
   <g id="patch_22">
    <path clip-path="url(#p6145a1417a)" d="M 189.840088 390.718125 
L 196.174316 390.718125 
L 196.174316 195.83855 
L 189.840088 195.83855 
z
" style="fill:#4c72b0;opacity:0.4;stroke:#000000;stroke-linejoin:miter;stroke-width:0.3;"/>
   </g>
   <g id="patch_23">
    <path clip-path="url(#p6145a1417a)" d="M 196.174316 390.718125 
L 202.508544 390.718125 
L 202.508544 123.660929 
L 196.174316 123.660929 
z
" style="fill:#4c72b0;opacity:0.4;stroke:#000000;stroke-linejoin:miter;stroke-width:0.3;"/>
   </g>
   <g id="patch_24">
    <path clip-path="url(#p6145a1417a)" d="M 202.508544 390.718125 
L 208.842771 390.718125 
L 208.842771 42.461106 
L 202.508544 42.461106 
z
" style="fill:#4c72b0;opacity:0.4;stroke:#000000;stroke-linejoin:miter;stroke-width:0.3;"/>
   </g>
   <g id="patch_25">
    <path clip-path="url(#p6145a1417a)" d="M 208.842771 390.718125 
L 215.176999 390.718125 
L 215.176999 94.789881 
L 208.842771 94.789881 
z
" style="fill:#4c72b0;opacity:0.4;stroke:#000000;stroke-linejoin:miter;stroke-width:0.3;"/>
   </g>
   <g id="patch_26">
    <path clip-path="url(#p6145a1417a)" d="M 215.176999 390.718125 
L 221.511226 390.718125 
L 221.511226 152.531977 
L 215.176999 152.531977 
z
" style="fill:#4c72b0;opacity:0.4;stroke:#000000;stroke-linejoin:miter;stroke-width:0.3;"/>
   </g>
   <g id="patch_27">
    <path clip-path="url(#p6145a1417a)" d="M 221.511226 390.718125 
L 227.845454 390.718125 
L 227.845454 228.318479 
L 221.511226 228.318479 
z
" style="fill:#4c72b0;opacity:0.4;stroke:#000000;stroke-linejoin:miter;stroke-width:0.3;"/>
   </g>
   <g id="patch_28">
    <path clip-path="url(#p6145a1417a)" d="M 227.845454 390.718125 
L 234.179682 390.718125 
L 234.179682 304.10498 
L 227.845454 304.10498 
z
" style="fill:#4c72b0;opacity:0.4;stroke:#000000;stroke-linejoin:miter;stroke-width:0.3;"/>
   </g>
   <g id="patch_29">
    <path clip-path="url(#p6145a1417a)" d="M 234.179682 390.718125 
L 240.513909 390.718125 
L 240.513909 322.149386 
L 234.179682 322.149386 
z
" style="fill:#4c72b0;opacity:0.4;stroke:#000000;stroke-linejoin:miter;stroke-width:0.3;"/>
   </g>
   <g id="patch_30">
    <path clip-path="url(#p6145a1417a)" d="M 240.513909 390.718125 
L 246.848137 390.718125 
L 246.848137 340.193791 
L 240.513909 340.193791 
z
" style="fill:#4c72b0;opacity:0.4;stroke:#000000;stroke-linejoin:miter;stroke-width:0.3;"/>
   </g>
   <g id="patch_31">
    <path clip-path="url(#p6145a1417a)" d="M 246.848137 390.718125 
L 253.182365 390.718125 
L 253.182365 347.411553 
L 246.848137 347.411553 
z
" style="fill:#4c72b0;opacity:0.4;stroke:#000000;stroke-linejoin:miter;stroke-width:0.3;"/>
   </g>
   <g id="patch_32">
    <path clip-path="url(#p6145a1417a)" d="M 253.182365 390.718125 
L 259.516592 390.718125 
L 259.516592 378.087041 
L 253.182365 378.087041 
z
" style="fill:#4c72b0;opacity:0.4;stroke:#000000;stroke-linejoin:miter;stroke-width:0.3;"/>
   </g>
   <g id="patch_33">
    <path clip-path="url(#p6145a1417a)" d="M 259.516592 390.718125 
L 265.85082 390.718125 
L 265.85082 369.064839 
L 259.516592 369.064839 
z
" style="fill:#4c72b0;opacity:0.4;stroke:#000000;stroke-linejoin:miter;stroke-width:0.3;"/>
   </g>
   <g id="patch_34">
    <path clip-path="url(#p6145a1417a)" d="M 265.85082 390.718125 
L 272.185047 390.718125 
L 272.185047 376.282601 
L 265.85082 376.282601 
z
" style="fill:#4c72b0;opacity:0.4;stroke:#000000;stroke-linejoin:miter;stroke-width:0.3;"/>
   </g>
   <g id="patch_35">
    <path clip-path="url(#p6145a1417a)" d="M 272.185047 390.718125 
L 278.519275 390.718125 
L 278.519275 388.913684 
L 272.185047 388.913684 
z
" style="fill:#4c72b0;opacity:0.4;stroke:#000000;stroke-linejoin:miter;stroke-width:0.3;"/>
   </g>
   <g id="patch_36">
    <path clip-path="url(#p6145a1417a)" d="M 278.519275 390.718125 
L 284.853503 390.718125 
L 284.853503 387.109244 
L 278.519275 387.109244 
z
" style="fill:#4c72b0;opacity:0.4;stroke:#000000;stroke-linejoin:miter;stroke-width:0.3;"/>
   </g>
   <g id="patch_37">
    <path clip-path="url(#p6145a1417a)" d="M 284.853503 390.718125 
L 291.18773 390.718125 
L 291.18773 387.109244 
L 284.853503 387.109244 
z
" style="fill:#4c72b0;opacity:0.4;stroke:#000000;stroke-linejoin:miter;stroke-width:0.3;"/>
   </g>
   <g id="patch_38">
    <path clip-path="url(#p6145a1417a)" d="M 291.18773 390.718125 
L 297.521958 390.718125 
L 297.521958 387.109244 
L 291.18773 387.109244 
z
" style="fill:#4c72b0;opacity:0.4;stroke:#000000;stroke-linejoin:miter;stroke-width:0.3;"/>
   </g>
   <g id="patch_39">
    <path clip-path="url(#p6145a1417a)" d="M 297.521958 390.718125 
L 303.856186 390.718125 
L 303.856186 388.913684 
L 297.521958 388.913684 
z
" style="fill:#4c72b0;opacity:0.4;stroke:#000000;stroke-linejoin:miter;stroke-width:0.3;"/>
   </g>
   <g id="patch_40">
    <path clip-path="url(#p6145a1417a)" d="M 303.856186 390.718125 
L 310.190413 390.718125 
L 310.190413 390.718125 
L 303.856186 390.718125 
z
" style="fill:#4c72b0;opacity:0.4;stroke:#000000;stroke-linejoin:miter;stroke-width:0.3;"/>
   </g>
   <g id="patch_41">
    <path clip-path="url(#p6145a1417a)" d="M 310.190413 390.718125 
L 316.524641 390.718125 
L 316.524641 390.718125 
L 310.190413 390.718125 
z
" style="fill:#4c72b0;opacity:0.4;stroke:#000000;stroke-linejoin:miter;stroke-width:0.3;"/>
   </g>
   <g id="patch_42">
    <path clip-path="url(#p6145a1417a)" d="M 316.524641 390.718125 
L 322.858868 390.718125 
L 322.858868 390.718125 
L 316.524641 390.718125 
z
" style="fill:#4c72b0;opacity:0.4;stroke:#000000;stroke-linejoin:miter;stroke-width:0.3;"/>
   </g>
   <g id="patch_43">
    <path clip-path="url(#p6145a1417a)" d="M 322.858868 390.718125 
L 329.193096 390.718125 
L 329.193096 390.718125 
L 322.858868 390.718125 
z
" style="fill:#4c72b0;opacity:0.4;stroke:#000000;stroke-linejoin:miter;stroke-width:0.3;"/>
   </g>
   <g id="patch_44">
    <path clip-path="url(#p6145a1417a)" d="M 329.193096 390.718125 
L 335.527324 390.718125 
L 335.527324 390.718125 
L 329.193096 390.718125 
z
" style="fill:#4c72b0;opacity:0.4;stroke:#000000;stroke-linejoin:miter;stroke-width:0.3;"/>
   </g>
   <g id="patch_45">
    <path clip-path="url(#p6145a1417a)" d="M 335.527324 390.718125 
L 341.861551 390.718125 
L 341.861551 390.718125 
L 335.527324 390.718125 
z
" style="fill:#4c72b0;opacity:0.4;stroke:#000000;stroke-linejoin:miter;stroke-width:0.3;"/>
   </g>
   <g id="patch_46">
    <path clip-path="url(#p6145a1417a)" d="M 341.861551 390.718125 
L 348.195779 390.718125 
L 348.195779 390.718125 
L 341.861551 390.718125 
z
" style="fill:#4c72b0;opacity:0.4;stroke:#000000;stroke-linejoin:miter;stroke-width:0.3;"/>
   </g>
   <g id="patch_47">
    <path clip-path="url(#p6145a1417a)" d="M 348.195779 390.718125 
L 354.530007 390.718125 
L 354.530007 388.913684 
L 348.195779 388.913684 
z
" style="fill:#4c72b0;opacity:0.4;stroke:#000000;stroke-linejoin:miter;stroke-width:0.3;"/>
   </g>
   <g id="patch_48">
    <path clip-path="url(#p6145a1417a)" d="M 354.530007 390.718125 
L 360.864234 390.718125 
L 360.864234 390.718125 
L 354.530007 390.718125 
z
" style="fill:#4c72b0;opacity:0.4;stroke:#000000;stroke-linejoin:miter;stroke-width:0.3;"/>
   </g>
   <g id="patch_49">
    <path clip-path="url(#p6145a1417a)" d="M 360.864234 390.718125 
L 367.198462 390.718125 
L 367.198462 390.718125 
L 360.864234 390.718125 
z
" style="fill:#4c72b0;opacity:0.4;stroke:#000000;stroke-linejoin:miter;stroke-width:0.3;"/>
   </g>
   <g id="patch_50">
    <path clip-path="url(#p6145a1417a)" d="M 367.198462 390.718125 
L 373.53269 390.718125 
L 373.53269 388.913684 
L 367.198462 388.913684 
z
" style="fill:#4c72b0;opacity:0.4;stroke:#000000;stroke-linejoin:miter;stroke-width:0.3;"/>
   </g>
   <g id="patch_51">
    <path clip-path="url(#p6145a1417a)" d="M 373.53269 390.718125 
L 379.866917 390.718125 
L 379.866917 390.718125 
L 373.53269 390.718125 
z
" style="fill:#4c72b0;opacity:0.4;stroke:#000000;stroke-linejoin:miter;stroke-width:0.3;"/>
   </g>
   <g id="patch_52">
    <path clip-path="url(#p6145a1417a)" d="M 379.866917 390.718125 
L 386.201145 390.718125 
L 386.201145 385.304803 
L 379.866917 385.304803 
z
" style="fill:#4c72b0;opacity:0.4;stroke:#000000;stroke-linejoin:miter;stroke-width:0.3;"/>
   </g>
   <g id="line2d_46">
    <path clip-path="url(#p6145a1417a)" d="M 49.886607 390.702494 
L 53.481735 390.647863 
L 57.076863 390.483558 
L 60.671992 390.133764 
L 64.26712 389.621966 
L 67.862248 389.145123 
L 71.457376 388.948008 
L 75.052505 389.106592 
L 78.647633 389.496479 
L 82.242761 389.917282 
L 85.837889 390.165146 
L 89.433017 390.049086 
L 93.028146 389.460473 
L 96.623274 388.516132 
L 100.218402 387.615189 
L 103.81353 387.215466 
L 107.408659 387.481667 
L 111.003787 388.167925 
L 114.598915 388.781722 
L 118.194043 388.823409 
L 121.789171 387.999863 
L 125.3843 386.363598 
L 128.979428 384.23612 
L 132.574556 381.897354 
L 136.169684 379.439145 
L 139.764813 377.082487 
L 143.359941 375.333712 
L 146.955069 374.387985 
L 150.550197 373.648202 
L 154.145325 372.254049 
L 157.740454 369.606575 
L 161.335582 364.793246 
L 164.93071 356.371275 
L 168.525838 343.956136 
L 172.120967 329.180146 
L 175.716095 313.505048 
L 179.311223 295.939391 
L 182.906351 274.475768 
L 186.501479 248.460713 
L 190.096608 217.917435 
L 193.691736 182.510535 
L 197.286864 143.814182 
L 200.881992 108.388579 
L 204.477121 86.455298 
L 208.072249 85.185347 
L 211.667377 102.910585 
L 215.262505 131.558978 
L 218.857634 164.707235 
L 222.452762 200.649576 
L 226.04789 237.842666 
L 229.643018 271.971122 
L 233.238146 298.997342 
L 236.833275 318.04268 
L 240.428403 330.71544 
L 244.023531 339.623575 
L 247.618659 347.35218 
L 251.213788 355.146391 
L 254.808916 362.282861 
L 258.404044 367.546017 
L 261.999172 371.174414 
L 265.5943 374.599385 
L 269.189429 378.595571 
L 272.784557 382.544436 
L 276.379685 385.459035 
L 279.974813 387.039158 
L 283.569942 387.612275 
L 287.16507 387.629226 
L 290.760198 387.496962 
L 294.355326 387.579798 
L 297.950454 388.070237 
L 301.545583 388.867735 
L 305.140711 389.677065 
L 308.735839 390.256008 
L 312.330967 390.558736 
L 315.926096 390.675908 
L 319.521224 390.709613 
L 323.116352 390.716791 
L 326.71148 390.717601 
L 330.306608 390.715381 
L 333.901737 390.703472 
L 337.496865 390.660031 
L 341.091993 390.547877 
L 344.687121 390.349148 
L 348.28225 390.125234 
L 351.877378 390.004014 
L 355.472506 390.043792 
L 359.067634 390.139046 
L 362.662763 390.137185 
L 366.257891 390.025326 
L 369.853019 389.911749 
L 373.448147 389.810327 
L 377.043275 389.561384 
L 380.638404 389.088584 
L 384.233532 388.659025 
L 387.82866 388.674377 
L 391.423788 389.194474 
L 395.018917 389.875217 
L 398.614045 390.373167 
L 402.209173 390.613772 
L 405.804301 390.694795 
" style="fill:none;stroke:#4c72b0;stroke-linecap:round;stroke-width:1.75;"/>
   </g>
   <g id="patch_53">
    <path d="M 438.309531 390.718125 
L 438.309531 17.620938 
" style="fill:none;"/>
   </g>
   <g id="patch_54">
    <path d="M 31.081875 390.718125 
L 31.081875 17.620938 
" style="fill:none;"/>
   </g>
   <g id="patch_55">
    <path d="M 31.081875 17.620938 
L 438.309531 17.620938 
" style="fill:none;"/>
   </g>
   <g id="patch_56">
    <path d="M 31.081875 390.718125 
L 438.309531 390.718125 
" style="fill:none;"/>
   </g>
  </g>
 </g>
 <defs>
  <clipPath id="p6145a1417a">
   <rect height="373.0971875" width="407.22765625" x="31.081875" y="17.6209375"/>
  </clipPath>
 </defs>
</svg>
