<?xml version="1.0" encoding="utf-8" standalone="no"?>
<!DOCTYPE svg PUBLIC "-//W3C//DTD SVG 1.1//EN"
  "http://www.w3.org/Graphics/SVG/1.1/DTD/svg11.dtd">
<!-- Created with matplotlib (http://matplotlib.org/) -->
<svg height="420pt" version="1.1" viewBox="0 0 458 420" width="458pt" xmlns="http://www.w3.org/2000/svg" xmlns:xlink="http://www.w3.org/1999/xlink">
 <defs>
  <style type="text/css">
*{stroke-linecap:butt;stroke-linejoin:round;stroke-miterlimit:100000;}
  </style>
 </defs>
 <g id="figure_1">
  <g id="patch_1">
   <path d="M 0 420 
L 458 420 
L 458 0 
L 0 0 
z
" style="fill:#ffffff;"/>
  </g>
  <g id="axes_1">
   <g id="patch_2">
    <path d="M 43.67875 374.8125 
L 445.04 374.8125 
L 445.04 18.766875 
L 43.67875 18.766875 
z
" style="fill:#ffffff;"/>
   </g>
   <g id="line2d_1">
    <path clip-path="url(#pc08c378d7a)" d="M 43.67875 315.174858 
L 44.124707 337.872766 
L 44.570664 348.362379 
L 45.016621 351.584083 
L 45.462578 329.20509 
L 45.908535 321.009259 
L 46.354492 298.855507 
L 46.800449 301.526442 
L 47.246406 307.400246 
L 47.692363 282.876433 
L 48.138319 288.853931 
L 48.584276 232.146205 
L 49.030233 239.049251 
L 49.47619 217.016639 
L 49.922147 245.999262 
L 50.368104 255.153704 
L 50.814061 228.190538 
L 51.260018 220.213421 
L 51.705975 174.11365 
L 52.151932 233.030046 
L 52.597889 194.316357 
L 53.043846 185.388089 
L 53.489803 116.185705 
L 53.93576 216.768594 
L 54.381717 214.294925 
L 54.827674 199.708075 
L 55.273631 167.236476 
L 55.719588 219.424017 
L 56.165544 207.55549 
L 56.611501 219.50845 
L 57.057458 217.812656 
L 57.503415 223.027198 
L 57.949372 199.503772 
L 58.395329 216.868287 
L 58.841286 211.179865 
L 59.287243 264.834754 
L 59.7332 247.737782 
L 60.179157 255.883767 
L 60.625114 256.893241 
L 61.071071 213.287418 
L 61.962985 261.046767 
L 62.408942 262.489261 
L 62.854899 295.294457 
L 63.300856 315.946765 
L 63.746813 311.572693 
L 64.192769 329.713727 
L 64.638726 335.646464 
L 65.084683 350.483394 
L 65.53064 352.432489 
L 65.976597 335.943508 
L 66.422554 347.57501 
L 66.868511 344.051175 
L 67.314468 341.87828 
L 67.760425 335.647481 
L 68.206382 335.986233 
L 68.652339 331.197928 
L 69.098296 335.605773 
L 69.544253 282.783014 
L 69.99021 297.838488 
L 70.436167 299.91576 
L 70.882124 311.550313 
L 71.328081 258.68911 
L 71.774038 255.34546 
L 72.219994 257.485802 
L 72.665951 216.754183 
L 73.111908 215.036517 
L 73.557865 245.177475 
L 74.003822 243.923516 
L 74.449779 214.846287 
L 74.895736 202.341965 
L 75.341693 201.303329 
L 75.78765 194.522186 
L 76.233607 201.368434 
L 76.679564 174.192998 
L 77.125521 140.140794 
L 77.571478 164.830015 
L 78.017435 218.428106 
L 78.463392 201.062235 
L 78.909349 237.396691 
L 79.355306 189.796951 
L 79.801263 214.864344 
L 80.247219 176.190414 
L 80.693176 176.86122 
L 81.139133 203.044816 
L 81.58509 203.359238 
L 82.031047 177.759049 
L 82.477004 222.433619 
L 82.922961 246.881746 
L 83.368918 195.974343 
L 83.814875 214.000933 
L 84.260832 240.344749 
L 84.706789 221.687958 
L 85.152746 197.641527 
L 85.598703 259.493476 
L 86.04466 248.395958 
L 86.490617 288.301043 
L 86.936574 271.220008 
L 87.382531 311.571676 
L 87.828488 305.706418 
L 88.274444 314.962655 
L 88.720401 302.985042 
L 89.166358 308.817409 
L 89.612315 321.504756 
L 90.058272 325.199577 
L 90.504229 325.254509 
L 90.950186 328.590657 
L 91.396143 290.060925 
L 91.8421 297.52059 
L 92.288057 298.80744 
L 92.734014 304.344967 
L 93.179971 270.164282 
L 93.625928 265.799976 
L 94.071885 236.116961 
L 94.517842 233.160257 
L 94.963799 166.759274 
L 95.409756 201.303837 
L 95.855713 169.407236 
L 96.301669 158.426483 
L 96.747626 167.203822 
L 97.193583 156.459382 
L 97.63954 167.097517 
L 98.085497 161.135872 
L 98.531454 148.724037 
L 98.977411 106.315442 
L 99.423368 126.534256 
L 99.869325 140.014059 
L 100.315282 171.274441 
L 100.761239 160.575778 
L 101.207196 180.301723 
L 101.653153 178.775813 
L 102.09911 166.992738 
L 102.545067 215.990719 
L 102.991024 212.854466 
L 103.436981 211.794467 
L 103.882938 199.216732 
L 104.328894 193.180572 
L 104.774851 144.61171 
L 105.220808 162.032514 
L 106.112722 241.492403 
L 106.558679 213.870722 
L 107.004636 234.641407 
L 107.450593 230.444137 
L 107.89655 234.981176 
L 108.342507 232.139932 
L 108.788464 210.560108 
L 109.234421 256.485721 
L 109.680378 273.041436 
L 110.126335 303.942127 
L 110.572292 324.925422 
L 111.018249 325.473732 
L 111.464206 295.549623 
L 111.910163 330.306797 
L 112.356119 319.924506 
L 112.802076 330.901393 
L 113.248033 260.8779 
L 113.69399 322.617398 
L 114.139947 321.702361 
L 114.585904 343.319756 
L 115.031861 318.43827 
L 115.477818 316.997811 
L 115.923775 302.00117 
L 116.369732 312.898539 
L 116.815689 248.119598 
L 117.261646 240.744029 
L 117.707603 277.116632 
L 118.599517 228.290231 
L 119.045474 243.175312 
L 119.491431 176.140465 
L 119.937388 196.438728 
L 120.383344 206.664359 
L 120.829301 184.627169 
L 121.275258 205.43651 
L 121.721215 184.752294 
L 122.167172 186.192752 
L 122.613129 182.310024 
L 123.059086 141.996639 
L 123.505043 142.49273 
L 123.951 189.456165 
L 124.396957 153.725461 
L 124.842914 158.861334 
L 125.288871 165.633322 
L 125.734828 143.848755 
L 126.180785 210.904353 
L 126.626742 214.087401 
L 127.072699 256.230318 
L 127.964613 176.825701 
L 128.410569 244.608989 
L 128.856526 214.380376 
L 129.302483 214.506518 
L 129.74844 213.948713 
L 130.194397 199.035827 
L 130.640354 191.139752 
L 131.086311 201.027648 
L 131.532268 206.879003 
L 132.424182 294.108825 
L 132.870139 254.095739 
L 133.316096 310.427583 
L 133.762053 312.377356 
L 134.20801 324.073625 
L 134.653967 314.384437 
L 135.099924 348.446813 
L 135.545881 326.659872 
L 135.991838 343.213451 
L 136.437794 321.850713 
L 136.883751 312.701528 
L 137.329708 335.233044 
L 137.775665 325.857413 
L 138.221622 296.681848 
L 138.667579 279.495526 
L 139.113536 280.944631 
L 139.559493 301.823147 
L 140.00545 288.965153 
L 140.451407 253.826162 
L 140.897364 263.359538 
L 141.343321 210.066629 
L 141.789278 222.051633 
L 142.235235 213.787306 
L 142.681192 258.652615 
M 143.573106 103.18631 
L 144.019063 156.912577 
L 144.465019 124.758987 
L 144.910976 146.56284 
L 145.356933 123.405124 
L 145.80289 136.088656 
L 146.248847 134.125657 
L 146.694804 99.141505 
L 147.140761 105.17864 
L 148.032675 25.231138 
L 148.478632 97.987535 
L 148.924589 133.740111 
L 149.370546 137.406364 
L 149.816503 138.072067 
L 150.26246 81.718115 
L 150.708417 105.370904 
L 151.154374 116.443838 
L 151.600331 143.160315 
L 152.046288 114.033409 
L 152.492244 95.211397 
L 152.938201 105.03495 
L 153.384158 83.511737 
L 153.830115 139.773135 
L 154.276072 126.047491 
L 154.722029 161.877634 
L 155.167986 164.532971 
L 155.613943 202.300257 
L 156.0599 209.314355 
L 156.505857 236.992834 
L 156.951814 234.237549 
L 157.397771 247.872147 
L 157.843728 207.359792 
L 158.289685 269.758187 
L 158.735642 290.908823 
L 159.181599 290.824898 
L 159.627556 281.40037 
L 160.073513 240.175373 
L 160.519469 274.622278 
L 160.965426 279.226966 
L 161.411383 295.719508 
L 161.85734 247.366986 
L 162.303297 292.560874 
L 162.749254 249.856762 
L 163.195211 261.768523 
L 163.641168 234.3642 
L 164.087125 238.774079 
L 164.533082 165.528373 
L 164.979039 211.836176 
L 165.870953 174.385262 
L 166.762867 165.549736 
L 167.208824 146.204251 
L 167.654781 180.85868 
L 168.100738 169.090864 
L 168.546694 166.929158 
L 168.992651 181.233546 
L 169.438608 82.942675 
L 169.884565 110.227367 
L 170.330522 172.650811 
L 170.776479 100.212312 
L 171.222436 189.549856 
L 171.668393 148.545505 
L 172.11435 152.580011 
L 172.560307 136.368236 
L 173.006264 197.35224 
L 173.452221 177.736669 
L 173.898178 152.6029 
L 174.344135 141.666195 
L 174.790092 121.962122 
L 175.236049 143.605627 
L 175.682006 123.821697 
L 176.127963 193.717014 
L 177.019876 148.649649 
L 177.465833 202.055602 
L 177.91179 226.253175 
L 178.357747 203.020486 
L 178.803704 214.062478 
L 179.249661 258.207558 
L 179.695618 267.363017 
L 180.141575 266.51512 
L 180.587532 311.063548 
L 181.033489 276.899444 
L 181.479446 300.933541 
L 181.925403 339.483619 
L 182.37136 293.539745 
L 182.817317 324.711794 
L 183.709231 302.472676 
L 184.155188 292.395567 
L 184.601144 276.654282 
L 185.047101 282.325071 
L 185.493058 296.779506 
L 185.939015 281.223364 
L 186.384972 221.84004 
L 186.830929 252.294149 
L 187.276886 243.669198 
L 187.722843 200.520537 
L 188.1688 218.045611 
L 188.614757 216.541573 
L 189.060714 200.965085 
L 189.506671 224.552599 
L 189.952628 204.058952 
L 190.398585 161.283801 
L 190.844542 147.74898 
L 191.290499 85.497963 
L 191.736456 80.905483 
L 193.074326 175.428476 
L 193.520283 107.778281 
L 193.96624 167.712865 
L 194.412197 125.303864 
L 194.858154 200.84386 
L 195.304111 173.837969 
L 195.750068 189.604687 
L 196.641982 227.116637 
L 197.533896 152.507106 
L 197.979853 124.711303 
L 198.42581 185.811614 
L 198.871767 168.801534 
L 199.317724 168.40573 
L 199.763681 210.035602 
L 200.209638 217.015453 
L 200.655594 214.442938 
L 201.101551 238.748774 
L 201.547508 202.279911 
L 201.993465 260.517277 
L 202.439422 247.441247 
L 202.885379 245.536911 
L 203.331336 285.059502 
L 203.777293 308.689232 
L 204.22325 258.771534 
L 204.669207 288.879108 
L 205.115164 293.791266 
L 205.561121 318.587555 
M 206.453035 290.748941 
L 206.898992 282.944718 
L 207.344949 289.855267 
L 207.790906 317.250604 
L 208.682819 265.772341 
L 209.128776 289.255754 
L 209.574733 246.176776 
L 210.02069 218.82942 
L 210.466647 182.103992 
L 210.912604 240.468856 
L 211.358561 148.448356 
L 211.804518 182.646962 
L 212.250475 173.562288 
L 212.696432 123.478706 
L 213.142389 160.443533 
L 213.588346 135.481174 
L 214.034303 177.192936 
L 214.48026 137.490797 
L 214.926217 148.193529 
L 215.372174 43.542055 
L 215.818131 72.151847 
L 216.264088 112.560991 
L 216.710044 172.056724 
L 217.156001 139.758808 
L 217.601958 178.393522 
L 218.047915 159.40371 
L 218.493872 160.103764 
L 218.939829 223.323733 
L 219.831743 168.919962 
L 220.2777 154.170518 
L 221.169614 184.540192 
L 221.615571 178.140018 
L 222.061528 191.27861 
L 222.507485 187.019287 
L 222.953442 249.553869 
L 223.399399 199.523609 
L 223.845356 186.915949 
L 224.291313 218.216513 
L 224.737269 237.511134 
L 225.183226 248.628405 
L 225.629183 285.025508 
L 226.07514 223.725048 
L 226.967054 270.098973 
L 227.413011 210.904353 
L 227.858968 315.499368 
L 228.304925 275.903534 
L 228.750882 318.349361 
L 229.196839 272.425884 
L 229.642796 276.217058 
L 230.088753 258.798594 
L 230.53471 302.284582 
L 230.980667 312.177666 
L 231.426624 261.891443 
L 231.872581 236.237763 
L 232.318538 288.449565 
L 232.764494 250.492643 
L 233.210451 187.071422 
L 233.656408 195.396125 
L 234.102365 237.459253 
L 234.548322 197.259668 
L 234.994279 218.852309 
L 235.440236 209.473813 
L 235.886193 162.223761 
L 236.33215 206.093668 
L 236.778107 147.426505 
L 237.224064 140.394604 
L 238.115978 85.080881 
L 238.561935 128.072882 
L 239.007892 142.048266 
L 239.453849 182.5265 
L 240.345763 76.035288 
L 240.791719 153.885172 
L 241.237676 121.744425 
L 241.683633 166.645678 
L 242.12959 183.482737 
L 242.575547 153.322112 
L 243.021504 150.271733 
L 243.467461 161.493359 
L 243.913418 196.760695 
L 244.359375 157.264045 
L 244.805332 192.694654 
L 245.697246 157.200974 
L 246.143203 111.805157 
L 246.58916 210.606801 
L 247.035117 198.357306 
L 247.481074 240.427148 
L 247.927031 202.850093 
L 248.372988 234.964899 
L 248.818944 235.07646 
L 249.264901 252.701058 
L 249.710858 248.755055 
L 250.156815 290.208939 
L 250.602772 288.387511 
L 251.048729 294.765814 
L 251.494686 313.69086 
L 251.940643 252.272277 
L 252.3866 322.890367 
L 252.832557 272.954256 
L 253.278514 304.585044 
L 253.724471 320.070485 
L 254.170428 321.362931 
L 254.616385 311.620505 
L 255.062342 295.295813 
L 255.508299 253.249877 
L 256.400213 282.347451 
L 256.846169 254.858694 
L 257.292126 247.363934 
L 257.738083 153.064742 
L 258.18404 164.110294 
L 258.629997 183.785375 
L 259.075954 152.058658 
L 259.521911 153.866861 
L 259.967868 159.041222 
L 260.413825 129.968062 
L 260.859782 175.365405 
L 261.305739 200.093791 
L 261.751696 119.062384 
L 262.197653 126.174141 
L 262.64361 55.142022 
L 263.089567 186.983682 
L 263.535524 208.854039 
L 263.981481 193.670728 
L 264.427438 157.539726 
L 264.873394 202.693433 
L 265.319351 181.527029 
L 265.765308 186.934853 
L 266.211265 177.376554 
L 266.657222 164.004498 
L 267.103179 241.139748 
L 267.549136 131.589595 
L 267.995093 106.263561 
L 268.887007 204.222394 
L 269.332964 168.695145 
L 269.778921 169.78973 
L 270.224878 177.006267 
L 270.670835 180.894285 
L 271.116792 180.25798 
L 271.562749 242.203816 
L 272.008706 227.749889 
L 272.454663 239.4938 
L 272.900619 231.915623 
L 273.346576 234.870802 
L 274.23849 270.59998 
L 274.684447 255.751352 
L 275.130404 277.726996 
L 275.576361 313.663698 
L 276.022318 290.35746 
L 276.468275 298.550579 
L 276.914232 327.509804 
L 277.360189 288.598086 
L 277.806146 267.46983 
L 278.252103 317.711937 
L 278.69806 258.997979 
L 279.144017 284.664121 
L 279.589974 238.078162 
L 280.035931 262.014872 
L 280.481888 204.456367 
L 280.927844 201.11259 
L 281.373801 213.134725 
L 281.819758 195.263778 
L 282.265715 160.591546 
L 282.711672 149.80082 
L 283.157629 165.555331 
L 283.603586 164.896646 
L 284.049543 143.260262 
L 284.4955 163.164739 
L 284.941457 148.822627 
L 285.387414 192.098193 
L 285.833371 172.127424 
L 286.279328 124.43613 
L 287.171242 169.344979 
L 287.617199 163.262397 
L 288.063156 177.610527 
L 288.509113 141.058459 
L 288.955069 213.313172 
L 289.401026 203.108785 
L 289.846983 178.254461 
L 290.29294 188.820878 
L 290.738897 204.206627 
L 291.184854 200.435086 
L 291.630811 188.287827 
L 292.076768 209.866226 
L 292.522725 195.969765 
L 292.968682 249.157768 
L 293.414639 188.827321 
L 293.860596 224.999182 
L 294.306553 242.179274 
L 294.75251 170.8755 
L 295.198467 224.807935 
L 295.644424 245.894483 
L 296.090381 272.83849 
L 296.536338 282.347451 
L 296.982294 220.496392 
L 297.428251 266.515628 
L 297.874208 343.234305 
L 298.320165 350.978806 
L 298.766122 266.990491 
L 299.212079 253.732064 
L 299.658036 246.268839 
L 300.103993 282.23962 
L 300.54995 288.561159 
L 300.995907 301.022756 
L 301.441864 200.795201 
L 301.887821 278.398312 
L 302.333778 292.335124 
L 302.779735 253.079484 
L 303.225692 244.77277 
L 303.671649 257.066177 
L 304.117606 213.044188 
L 304.563563 208.533259 
L 305.009519 170.002595 
L 305.455476 218.999814 
L 305.901433 158.04938 
L 306.34739 204.366338 
L 306.793347 231.477687 
L 307.239304 194.755141 
L 307.685261 139.211515 
L 308.131218 121.989079 
L 309.023132 133.931867 
L 309.469089 164.040611 
L 309.915046 106.971838 
L 310.361003 128.862286 
L 310.80696 124.18995 
L 311.252917 171.195093 
L 311.698874 163.203904 
L 312.144831 181.382576 
L 312.590788 176.506786 
L 313.036744 196.310552 
L 313.482701 199.462573 
L 313.928658 121.26529 
L 314.374615 157.062625 
L 314.820572 224.699087 
L 315.266529 171.475352 
L 315.712486 157.112472 
L 316.158443 154.404829 
L 316.6044 138.161435 
L 317.050357 196.015034 
L 317.496314 222.919876 
L 317.942271 207.743431 
L 318.388228 172.251735 
L 318.834185 210.836705 
L 319.280142 216.070745 
L 319.726099 265.767 
L 320.172056 236.095599 
L 321.063969 283.523928 
L 321.509926 310.069757 
L 321.955883 305.388944 
L 322.40184 317.695661 
L 322.847797 321.817143 
L 323.293754 310.852973 
L 323.739711 305.237116 
L 324.185668 246.390997 
L 324.631625 295.405679 
L 325.077582 256.921216 
L 325.523539 246.307496 
L 325.969496 227.998104 
L 326.415453 190.87933 
L 326.86141 199.859818 
L 327.307367 172.913268 
L 327.753324 165.446991 
L 328.199281 175.995606 
L 328.645238 150.403555 
L 329.091194 156.269152 
L 329.537151 139.053329 
L 329.983108 135.547297 
L 330.429065 164.29281 
L 330.875022 123.420891 
L 331.320979 105.414647 
L 331.766936 138.986189 
L 332.212893 149.994102 
L 332.65885 125.729593 
L 333.104807 111.443771 
L 333.550764 86.483786 
L 333.996721 141.466301 
L 334.442678 166.606988 
L 334.888635 119.817201 
L 335.334592 131.063072 
L 335.780549 170.96875 
L 336.226506 141.688067 
L 337.118419 158.043785 
L 337.564376 148.917319 
L 338.010333 149.300322 
L 338.45629 188.459644 
L 338.902247 145.900798 
L 339.348204 118.390815 
L 339.794161 123.171914 
L 340.240118 120.455286 
L 340.686075 172.075671 
L 341.132032 205.822056 
L 341.577989 181.944619 
L 342.023946 171.87158 
L 342.469903 165.460724 
L 342.91586 160.851459 
L 343.361817 246.295797 
L 343.807774 224.644324 
L 344.253731 233.407454 
L 344.699688 290.096021 
L 345.145644 208.876928 
L 345.591601 200.020547 
L 346.037558 216.022679 
L 346.483515 248.863395 
L 346.929472 208.090067 
L 347.375429 256.449201 
L 347.821386 256.27067 
L 348.267343 247.144712 
L 348.7133 194.336025 
L 349.159257 221.382776 
L 349.605214 180.941503 
L 350.051171 230.125053 
L 350.497128 177.54593 
L 350.943085 162.587945 
L 351.389042 107.149861 
L 351.834999 155.089624 
L 352.280956 159.847411 
L 352.726913 117.471369 
L 353.172869 119.738362 
L 353.618826 124.087205 
L 354.064783 94.49371 
L 354.51074 184.989318 
L 354.956697 172.135054 
L 355.402654 116.927637 
L 355.848611 135.023401 
L 356.294568 128.108486 
L 356.740525 138.080816 
L 357.186482 158.611932 
L 357.632439 208.015297 
L 358.078396 195.983838 
L 358.524353 174.96053 
L 358.97031 182.700453 
L 359.416267 177.836362 
L 359.862224 106.299505 
L 360.308181 143.452866 
L 360.754138 129.720356 
L 361.200094 195.696627 
L 361.646051 194.258712 
L 362.092008 193.68853 
L 362.983922 119.24295 
L 363.429879 139.307308 
L 363.875836 148.685787 
L 364.321793 125.961531 
L 364.76775 162.497916 
L 365.213707 109.918624 
L 365.659664 175.280971 
L 366.105621 216.202821 
L 366.551578 214.936316 
L 366.997535 211.407395 
L 367.443492 261.244627 
L 367.889449 222.54908 
L 368.335406 263.841726 
L 369.227319 268.113764 
L 369.673276 272.275429 
L 370.119233 265.981221 
L 370.56519 288.66014 
L 371.457104 184.612927 
L 372.349018 253.773264 
L 372.794975 173.294237 
L 373.240932 169.991151 
L 373.686889 225.833753 
L 374.132846 156.525378 
L 374.578803 114.731852 
L 375.02476 131.570674 
L 375.470717 140.86967 
L 375.916674 135.451571 
M 389.295382 170.134332 
L 389.741339 120.921705 
M 390.633253 201.559275 
L 391.07921 283.451193 
L 391.525167 238.367509 
L 391.971124 270.901296 
L 392.417081 227.247356 
L 392.863038 219.340091 
L 393.308994 280.862232 
L 393.754951 253.48741 
L 394.200908 238.707956 
L 394.646865 255.066727 
L 395.092822 199.15383 
L 395.538779 191.943907 
L 395.984736 94.270504 
L 396.430693 162.981121 
L 396.87665 175.59124 
L 397.322607 127.19612 
L 397.768564 103.171051 
L 398.214521 133.329539 
L 398.660478 72.404131 
L 399.106435 80.509459 
L 399.552392 59.528504 
L 399.998349 81.582987 
L 400.444306 94.625447 
L 400.890263 93.491696 
L 401.336219 95.578124 
L 401.782176 95.331943 
L 402.228133 71.456287 
L 402.67409 128.302786 
L 403.120047 127.400973 
L 403.566004 96.723573 
L 404.011961 162.949585 
L 404.457918 172.315111 
L 404.903875 195.472827 
L 405.349832 167.772478 
L 405.795789 218.056801 
L 406.241746 149.75606 
L 406.687703 182.235967 
L 407.13366 172.564343 
L 407.579617 105.535194 
L 408.025574 160.059512 
L 408.471531 124.952905 
L 408.917487 155.099797 
L 409.363444 163.606744 
L 409.809401 139.136237 
L 410.255358 156.099268 
L 410.701315 140.263291 
L 411.147272 151.970071 
L 411.593229 191.883887 
L 412.039186 154.24427 
L 412.485143 187.484181 
L 412.9311 182.278285 
L 413.377057 242.850801 
L 413.823014 208.397792 
L 414.268971 250.616156 
L 414.714928 210.403855 
L 415.160885 241.070065 
L 415.606842 223.507351 
L 416.052799 230.568753 
L 416.498756 212.752739 
L 416.944713 255.938021 
L 417.390669 238.217631 
L 417.836626 232.69282 
L 418.282583 208.971195 
L 418.72854 211.660696 
L 419.174497 200.020547 
L 419.620454 170.102033 
L 420.066411 164.484142 
L 420.512368 161.71309 
L 420.958325 121.043354 
L 421.404282 142.020969 
L 421.850239 136.981143 
L 422.296196 162.750708 
L 422.742153 112.165357 
L 423.18811 91.821334 
L 423.634067 87.982653 
L 424.080024 127.735147 
L 424.525981 93.004931 
L 424.971938 103.835839 
L 425.417894 125.081081 
L 425.863851 59.068697 
L 426.309808 126.366915 
L 426.755765 121.122871 
L 427.201722 112.911442 
L 427.647679 89.970405 
L 428.093636 114.760336 
L 428.539593 101.405573 
L 428.98555 152.000165 
L 429.431507 149.10348 
L 429.877464 135.035608 
L 430.323421 108.915084 
L 430.769378 142.118882 
L 431.215335 146.968732 
L 431.661292 143.375214 
L 432.107249 110.441503 
L 432.553206 160.984722 
L 432.999163 163.285286 
L 433.445119 135.334687 
L 433.891076 161.125106 
L 434.337033 165.821856 
L 435.228947 238.677438 
L 435.674904 232.435958 
L 436.120861 196.968728 
L 436.566818 227.750398 
L 437.012775 215.909338 
L 437.458732 265.672309 
L 437.904689 260.38554 
L 438.350646 239.485153 
L 438.796603 235.615954 
L 439.24256 227.072792 
L 439.24256 227.072792 
" style="fill:none;stroke:#0000ff;stroke-linecap:square;"/>
   </g>
   <g id="line2d_2">
    <path clip-path="url(#pc08c378d7a)" d="M 43.67875 326.681066 
L 44.124707 316.154831 
L 44.570664 287.869323 
L 45.016621 289.347011 
L 45.462578 289.399867 
L 45.908535 294.42531 
L 46.354492 313.131393 
L 46.800449 286.125773 
L 47.246406 294.252261 
L 47.692363 245.295648 
L 48.138319 270.470617 
L 48.584276 260.232101 
L 49.030233 259.103097 
L 49.47619 232.610895 
L 49.922147 217.89887 
L 50.368104 260.244666 
L 50.814061 238.088945 
L 51.260018 232.441045 
L 51.705975 156.287627 
L 52.151932 177.834981 
L 52.597889 187.278038 
L 53.043846 201.542824 
L 53.489803 186.27239 
L 53.93576 90.288594 
L 54.381717 235.14859 
L 54.827674 160.381189 
L 55.273631 155.793262 
L 55.719588 162.196149 
L 56.165544 147.91872 
L 56.611501 179.218109 
L 57.057458 264.194162 
L 57.949372 165.885799 
L 58.395329 259.16859 
L 58.841286 191.218809 
L 59.287243 270.035248 
L 59.7332 227.362526 
L 60.179157 201.628566 
L 61.071071 301.995647 
L 61.517028 273.171211 
L 61.962985 263.235503 
L 62.408942 290.891674 
L 62.854899 281.88619 
L 63.300856 279.675074 
L 63.746813 339.650669 
L 64.192769 333.255024 
L 64.638726 308.88048 
L 65.53064 329.924133 
L 65.976597 316.893812 
L 66.422554 340.575492 
L 66.868511 287.303267 
L 67.314468 319.208685 
L 67.760425 332.545137 
L 68.206382 333.58479 
L 68.652339 317.192789 
L 69.098296 314.568054 
L 69.544253 282.990707 
L 69.99021 304.388778 
L 70.882124 260.504222 
L 71.328081 228.087793 
L 71.774038 265.183678 
L 72.219994 194.63256 
L 72.665951 260.360244 
L 73.111908 224.692678 
L 74.003822 195.186174 
L 74.449779 162.226667 
L 74.895736 115.465815 
L 75.341693 162.261109 
L 75.78765 181.730556 
L 76.233607 225.818305 
L 76.679564 183.508168 
L 77.125521 179.466978 
L 77.571478 177.565646 
L 78.017435 142.404464 
L 78.463392 55.418415 
L 78.909349 159.009788 
L 79.801263 132.07614 
L 80.247219 161.804822 
L 80.693176 138.225404 
L 81.58509 129.858451 
L 82.031047 168.923353 
L 82.477004 182.385268 
L 82.922961 180.594359 
L 83.368918 231.595555 
L 83.814875 211.445136 
L 84.260832 264.531945 
L 84.706789 238.975533 
L 85.152746 287.121175 
L 85.598703 260.591877 
L 86.04466 273.647731 
L 86.490617 298.174866 
L 86.936574 295.415852 
L 87.382531 330.119822 
L 87.828488 323.452817 
L 88.274444 344.559608 
L 88.720401 337.414078 
L 89.166358 339.845768 
L 89.612315 327.857 
L 90.058272 327.275709 
L 90.504229 332.403906 
L 90.950186 328.876511 
L 91.396143 327.787774 
L 91.8421 348.831596 
L 92.288057 316.456029 
L 93.179971 299.268774 
L 93.625928 306.63273 
L 94.071885 273.619756 
L 94.517842 267.628016 
L 94.963799 301.053325 
L 95.409756 265.974947 
L 95.855713 240.166472 
L 96.301669 197.430095 
L 96.747626 235.369774 
L 97.193583 218.423172 
L 97.63954 214.619598 
L 98.085497 202.451169 
L 98.977411 167.620395 
L 99.423368 182.718357 
L 99.869325 224.033078 
L 100.315282 172.42986 
L 100.761239 181.947468 
L 101.207196 134.473972 
L 101.653153 131.098252 
L 102.09911 86.1303 
L 102.545067 106.710551 
L 102.991024 106.793357 
L 103.436981 194.143963 
L 103.882938 81.196118 
L 104.328894 154.684546 
L 104.774851 108.481827 
L 105.220808 174.320564 
L 105.666765 257.512353 
L 106.112722 217.537789 
L 107.004636 244.387291 
L 107.450593 279.183325 
L 107.89655 236.584602 
L 108.342507 253.994216 
L 108.788464 289.531842 
L 109.234421 305.273534 
L 109.680378 310.081269 
L 110.126335 318.03365 
L 110.572292 333.951687 
L 111.018249 337.367182 
L 111.464206 315.075674 
L 111.910163 323.402818 
L 112.356119 322.969205 
L 112.802076 334.114959 
L 113.248033 301.608757 
L 113.69399 320.294031 
L 114.139947 318.567973 
L 114.585904 301.403183 
L 115.031861 279.753404 
L 115.477818 331.868311 
L 115.923775 312.840724 
L 116.369732 278.182735 
L 116.815689 315.375006 
L 117.261646 289.800376 
L 117.707603 281.026522 
L 118.15356 303.675601 
L 118.599517 261.710029 
L 119.045474 257.016585 
L 119.937388 206.6668 
L 120.383344 160.843321 
L 120.829301 187.064556 
L 121.275258 201.63496 
L 121.721215 276.610641 
L 122.167172 229.127379 
L 122.613129 284.19604 
L 123.505043 176.101199 
L 123.951 203.982419 
L 124.396957 250.621955 
L 124.842914 51.979421 
L 125.288871 91.827946 
L 125.734828 184.691461 
L 126.180785 150.542209 
L 126.626742 139.970197 
L 127.072699 178.690998 
L 127.518656 242.140134 
L 127.964613 212.478482 
L 128.410569 157.086328 
L 128.856526 158.616307 
L 129.302483 257.069433 
L 130.194397 210.275272 
L 130.640354 229.804883 
L 131.086311 293.318539 
L 131.532268 270.712491 
L 131.978225 280.690517 
L 132.424182 281.710231 
L 132.870139 323.564208 
L 133.316096 314.519378 
L 133.762053 302.896624 
L 134.20801 321.516539 
L 134.653967 315.711469 
L 135.099924 287.643121 
L 135.545881 283.084974 
L 135.991838 327.996315 
L 136.883751 347.487779 
L 137.329708 310.681562 
L 137.775665 309.03536 
L 138.221622 277.603398 
L 139.113536 313.546712 
L 139.559493 300.106753 
L 140.00545 263.94269 
L 140.451407 265.256498 
L 140.897364 283.988059 
L 141.343321 258.075058 
L 141.789278 253.029891 
L 142.235235 260.978525 
L 143.127149 209.972735 
L 143.573106 216.532519 
L 144.019063 180.842913 
L 144.465019 225.756339 
L 144.910976 203.670473 
L 145.356933 200.283207 
L 145.80289 208.026487 
L 146.248847 188.327195 
L 146.694804 204.504484 
L 147.140761 146.069869 
L 147.586718 173.330553 
L 148.032675 178.340624 
L 148.478632 155.917888 
L 148.924589 163.340117 
L 149.370546 190.479135 
L 149.816503 162.184901 
L 150.26246 262.447553 
L 150.708417 214.508959 
L 151.154374 211.65856 
L 151.600331 197.479399 
L 152.938201 248.22709 
L 153.384158 252.736052 
L 153.830115 243.120989 
L 154.276072 265.235695 
L 154.722029 281.162735 
L 155.167986 311.792628 
L 155.613943 305.645042 
L 156.0599 320.750939 
L 156.505857 300.716099 
L 156.951814 305.549164 
L 157.397771 351.855187 
L 157.843728 300.452117 
L 158.289685 323.313806 
L 158.735642 325.445248 
L 159.181599 329.22925 
L 159.627556 310.628664 
L 160.073513 338.673869 
L 160.519469 338.159129 
L 160.965426 309.131492 
L 161.411383 288.358773 
L 161.85734 320.718743 
L 162.303297 320.73095 
L 162.749254 305.682936 
L 163.195211 271.00282 
L 163.641168 263.905814 
L 164.087125 235.833142 
L 164.533082 251.987356 
L 164.979039 234.510602 
L 165.424996 260.871288 
L 165.870953 224.841302 
L 166.31691 222.423548 
L 166.762867 195.773635 
L 167.208824 155.427359 
L 167.654781 205.497139 
L 168.100738 214.068276 
L 168.546694 219.861037 
L 168.992651 202.743788 
L 169.438608 229.494614 
L 169.884565 164.697566 
L 170.330522 184.725336 
L 170.776479 198.127147 
L 171.222436 152.789111 
L 171.668393 244.993382 
L 172.11435 218.025673 
L 172.560307 209.641103 
L 173.006264 115.763876 
L 173.452221 131.458418 
L 173.898178 117.881025 
L 174.790092 202.501473 
L 175.236049 203.260562 
L 175.682006 210.760714 
L 176.127963 200.038553 
L 176.573919 230.798555 
L 177.019876 176.215133 
L 177.91179 295.662947 
L 178.357747 280.57943 
L 178.803704 290.808926 
L 179.249661 295.035493 
L 179.695618 306.498941 
L 180.141575 297.175734 
L 180.587532 308.990091 
L 181.033489 310.627647 
L 181.479446 305.747278 
L 181.925403 327.940365 
L 182.37136 316.906003 
L 182.817317 341.725434 
L 184.155188 318.532538 
L 184.601144 308.19026 
L 185.047101 332.908304 
L 185.493058 311.809718 
L 185.939015 276.279077 
L 186.384972 295.401779 
L 186.830929 273.55855 
L 187.276886 244.031856 
L 187.722843 268.926905 
L 188.1688 208.165515 
L 188.614757 215.563719 
L 189.060714 199.840999 
L 189.506671 220.043536 
L 189.952628 217.655996 
L 190.398585 154.3226 
L 190.844542 182.460886 
L 191.290499 160.308744 
L 191.736456 176.789842 
L 192.182413 202.854416 
L 192.628369 177.717086 
L 193.074326 193.667422 
L 193.520283 216.923813 
L 193.96624 159.686682 
L 194.412197 155.735847 
L 194.858154 171.566398 
L 195.304111 162.372029 
L 195.750068 167.363534 
L 196.196025 144.431652 
L 196.641982 160.471762 
L 197.087939 100.25402 
L 197.533896 152.694963 
L 197.979853 171.436272 
L 198.42581 196.408464 
L 198.871767 259.099706 
L 199.317724 236.7347 
L 199.763681 250.452121 
L 200.209638 222.599689 
L 200.655594 219.883824 
L 201.101551 258.631761 
L 201.547508 253.768432 
L 201.993465 273.98928 
L 202.439422 255.759744 
L 202.885379 307.031416 
L 203.331336 290.180455 
L 203.777293 286.304983 
L 204.22325 296.797478 
L 204.669207 322.772193 
L 205.115164 308.357771 
L 205.561121 351.036112 
L 206.007078 329.949056 
L 206.453035 334.092749 
L 206.898992 318.480233 
L 207.344949 322.094605 
L 207.790906 293.272203 
L 208.236863 304.252395 
L 208.682819 300.366666 
L 209.574733 262.255627 
L 210.02069 271.276467 
L 210.466647 277.651379 
L 210.912604 256.03551 
L 211.358561 265.779801 
L 211.804518 257.301619 
L 212.250475 214.978617 
L 212.696432 240.34068 
L 213.142389 188.859026 
L 213.588346 216.980272 
L 214.034303 203.284977 
L 214.48026 195.912798 
L 214.926217 257.177696 
L 215.372174 158.254107 
L 215.818131 112.77767 
L 216.264088 112.076261 
L 216.710044 188.949054 
L 217.156001 205.16149 
L 218.047915 149.370514 
L 218.493872 160.893778 
L 218.939829 111.726522 
L 219.831743 220.540983 
L 220.2777 108.272676 
L 221.169614 187.60371 
L 221.615571 245.0003 
L 222.061528 203.904649 
L 222.507485 178.782527 
L 222.953442 249.34548 
L 223.399399 241.34951 
L 223.845356 225.527045 
L 224.291313 261.051854 
L 224.737269 259.094824 
L 225.183226 268.820108 
L 225.629183 253.730131 
L 226.521097 300.887256 
L 226.967054 306.350216 
L 227.858968 313.16676 
L 228.304925 318.601034 
L 228.750882 313.565328 
L 229.196839 297.197199 
L 229.642796 326.874314 
L 230.088753 308.238682 
L 230.53471 314.182813 
L 230.980667 286.673914 
L 231.872581 321.927924 
L 232.318538 330.28991 
L 232.764494 276.167313 
L 233.210451 266.493045 
L 233.656408 249.309266 
L 234.102365 257.421816 
L 234.548322 224.11975 
L 234.994279 201.45063 
L 235.440236 229.690134 
L 235.886193 205.883907 
L 236.33215 206.897721 
L 236.778107 182.423959 
L 237.224064 144.370616 
L 237.670021 165.563265 
L 238.115978 172.758846 
L 238.561935 177.49588 
L 239.007892 225.615752 
L 239.453849 133.510207 
L 239.899806 162.168421 
L 240.345763 105.131387 
L 240.791719 166.462738 
L 241.237676 162.704423 
L 241.683633 115.051022 
L 242.12959 144.553725 
L 242.575547 91.479784 
L 243.913418 171.059593 
L 244.359375 185.485951 
L 244.805332 177.844195 
L 245.251289 220.162353 
L 245.697246 202.345017 
L 246.143203 215.349634 
L 246.58916 237.778474 
L 247.035117 278.720872 
L 247.481074 291.646753 
L 247.927031 275.097548 
L 248.372988 277.730658 
L 248.818944 288.327187 
L 249.264901 284.478232 
L 249.710858 306.450926 
L 250.156815 302.817837 
L 250.602772 268.793099 
L 251.048729 312.168205 
L 251.494686 317.710106 
L 251.940643 301.840441 
L 252.3866 319.580261 
L 252.832557 302.418455 
L 253.278514 271.426413 
L 253.724471 294.540183 
L 254.170428 300.539552 
L 254.616385 296.706059 
L 255.062342 278.369913 
L 256.400213 239.903354 
L 256.846169 241.195087 
L 257.292126 235.245667 
L 257.738083 255.556747 
L 258.18404 230.243531 
L 258.629997 220.5361 
L 259.075954 194.603567 
L 259.521911 192.600963 
L 259.967868 156.695288 
L 260.859782 182.94053 
L 261.305739 206.694266 
L 261.751696 191.839229 
L 262.197653 160.962139 
L 262.64361 190.83396 
L 263.089567 194.031046 
L 263.535524 245.3419 
L 263.981481 243.588324 
L 264.427438 213.692394 
L 264.873394 167.319639 
L 265.319351 159.570509 
L 265.765308 147.923951 
L 266.211265 174.154901 
L 266.657222 181.607088 
L 267.103179 152.406769 
L 267.549136 143.323588 
L 267.995093 173.302273 
L 268.44105 214.505246 
L 268.887007 207.85762 
L 269.332964 243.179381 
L 269.778921 256.451541 
L 270.224878 256.986627 
L 271.116792 272.242673 
L 271.562749 292.729945 
L 272.008706 289.05474 
L 272.454663 274.767342 
L 272.900619 305.565695 
L 273.346576 274.731534 
L 273.792533 292.305742 
L 274.23849 289.234798 
L 274.684447 298.875903 
L 275.130404 293.990347 
L 275.576361 260.165198 
L 276.022318 242.8154 
L 276.468275 275.987866 
L 276.914232 254.920952 
L 277.360189 294.076408 
L 277.806146 315.731917 
L 278.252103 245.572618 
L 278.69806 250.741993 
L 279.144017 216.694672 
L 279.589974 208.219973 
L 280.035931 290.374754 
L 280.481888 188.024048 
L 280.927844 180.581016 
L 281.373801 202.852382 
L 281.819758 197.749383 
L 282.265715 247.510727 
L 282.711672 163.063469 
L 283.157629 175.732539 
L 283.603586 155.77669 
L 284.049543 152.83494 
L 284.4955 158.133102 
L 284.941457 173.512645 
L 285.387414 193.919909 
L 285.833371 205.935991 
L 286.279328 92.892319 
L 286.725285 173.429229 
L 287.171242 176.803524 
L 287.617199 99.824425 
L 288.063156 129.254953 
L 288.509113 101.459658 
L 288.955069 104.60973 
L 289.401026 106.769248 
L 289.846983 132.023208 
L 290.29294 122.687437 
L 290.738897 159.458558 
L 291.184854 129.596757 
L 291.630811 216.920253 
L 292.076768 111.398502 
L 292.522725 186.108573 
L 292.968682 224.520301 
L 293.414639 163.792142 
L 293.860596 254.940076 
L 294.306553 253.268951 
L 294.75251 221.890141 
L 295.198467 271.613947 
L 295.644424 251.18761 
L 296.090381 284.066389 
L 296.536338 282.470287 
L 297.428251 255.525347 
L 297.874208 259.011119 
L 298.320165 251.446506 
L 298.766122 285.584415 
L 299.212079 244.901624 
L 299.658036 284.966675 
L 300.103993 289.520499 
L 300.54995 260.019321 
L 300.995907 268.634608 
L 301.441864 307.131533 
L 301.887821 276.857736 
L 302.333778 236.407139 
L 302.779735 208.391434 
L 303.225692 232.534888 
L 303.671649 183.686446 
L 304.117606 179.70789 
L 304.563563 182.699945 
L 305.009519 195.578539 
L 305.455476 116.728675 
L 305.901433 178.475591 
L 306.34739 136.80045 
L 307.239304 224.008307 
L 307.685261 162.527671 
L 308.131218 164.950307 
L 308.577175 202.60493 
L 309.469089 122.094876 
L 309.915046 140.28406 
L 310.361003 173.08239 
L 310.80696 180.233566 
L 311.252917 93.907189 
L 311.698874 79.751853 
L 312.144831 89.813745 
L 312.590788 70.912427 
L 313.036744 114.119899 
L 313.482701 120.053844 
L 313.928658 159.331399 
L 314.374615 164.949417 
L 314.820572 181.169033 
L 315.266529 184.51719 
L 315.712486 214.022296 
L 316.158443 201.182867 
L 316.6044 293.470811 
L 317.050357 242.068264 
L 317.496314 271.356916 
L 317.942271 210.252959 
L 318.388228 259.781025 
L 318.834185 278.700272 
L 319.280142 290.085086 
L 319.726099 260.782531 
L 320.172056 275.442964 
L 320.618013 284.515769 
L 321.063969 271.90209 
L 321.509926 297.28738 
L 321.955883 290.876524 
L 322.40184 296.083691 
L 322.847797 273.571944 
L 323.293754 266.568781 
L 323.739711 264.154028 
L 324.185668 254.160591 
L 324.631625 266.03166 
L 325.077582 242.777049 
L 325.523539 258.610144 
L 325.969496 251.683022 
L 326.415453 200.444242 
L 326.86141 195.667889 
L 327.307367 176.211268 
L 327.753324 226.08207 
L 328.199281 214.391312 
L 329.091194 94.945973 
L 329.537151 109.087342 
L 329.983108 128.225091 
L 330.429065 111.145781 
L 330.875022 181.760239 
L 331.320979 119.37189 
L 331.766936 149.1724 
L 332.212893 225.900232 
L 332.65885 106.000189 
L 333.104807 139.962135 
L 333.550764 150.156612 
L 333.996721 89.512844 
L 334.442678 67.218157 
L 334.888635 73.457263 
L 335.780549 129.262964 
L 336.226506 113.168049 
L 336.672463 139.735156 
L 337.118419 122.230427 
L 337.564376 134.083339 
L 338.010333 52.611351 
L 338.45629 97.031604 
L 338.902247 192.004231 
L 339.348204 174.113447 
L 339.794161 185.347195 
L 340.240118 200.341599 
L 340.686075 258.364218 
L 341.132032 235.12395 
L 341.577989 227.274924 
L 342.023946 246.936781 
L 342.469903 258.356215 
L 342.91586 250.357871 
L 343.361817 277.239926 
L 343.807774 276.528241 
L 344.253731 309.39288 
L 344.699688 316.893236 
L 345.145644 298.612226 
L 345.591601 265.1653 
L 346.037558 252.279932 
L 346.483515 245.610257 
L 346.929472 308.393918 
L 347.375429 258.665331 
L 347.821386 245.423892 
L 348.267343 276.940542 
L 348.7133 239.513128 
L 349.159257 275.454883 
L 349.605214 207.329587 
L 350.051171 212.3598 
L 350.497128 178.853737 
L 350.943085 175.970174 
L 351.389042 170.471982 
L 351.834999 152.310094 
L 352.280956 120.694803 
L 352.726913 171.87626 
L 353.172869 172.700403 
L 353.618826 117.053372 
L 354.064783 145.432242 
L 354.51074 195.067444 
L 354.956697 151.093978 
L 355.402654 212.964332 
L 355.848611 106.800817 
L 356.294568 153.547387 
L 356.740525 133.939547 
L 357.186482 123.028631 
L 357.632439 93.596882 
L 358.078396 202.473885 
L 358.524353 151.611201 
L 358.97031 66.148613 
L 359.416267 144.54986 
L 359.862224 131.149353 
L 360.308181 140.237842 
L 360.754138 124.854229 
L 361.200094 146.910951 
L 361.646051 131.061834 
L 362.092008 163.078474 
L 362.537965 171.487865 
L 362.983922 177.57299 
L 363.429879 248.341059 
L 363.875836 159.650806 
L 364.321793 206.79579 
L 365.213707 231.5786 
L 365.659664 228.082395 
L 366.105621 229.50438 
L 366.551578 284.001334 
L 366.997535 234.008408 
L 367.889449 317.492969 
L 368.335406 288.940145 
L 368.781363 318.713697 
L 369.227319 287.380919 
L 369.673276 281.021181 
L 370.119233 306.882555 
L 370.56519 321.648276 
L 371.011147 252.304576 
L 371.457104 297.011699 
L 371.903061 281.002616 
L 372.349018 214.896049 
L 372.794975 265.913402 
L 373.240932 208.607893 
L 373.686889 214.3877 
L 374.132846 185.644239 
L 374.578803 174.983012 
L 375.02476 191.646964 
L 375.470717 201.237613 
L 375.916674 123.454461 
L 376.362631 146.883688 
L 376.808588 144.638362 
L 377.254544 150.821349 
L 377.700501 153.537672 
L 378.146458 179.989827 
L 378.592415 135.977705 
L 379.038372 120.608131 
L 379.484329 132.806865 
L 379.930286 214.328698 
L 380.376243 114.553728 
L 380.8222 134.166959 
L 381.268157 147.724973 
L 381.714114 73.08662 
L 382.160071 142.501275 
L 382.606028 90.942816 
L 383.051985 127.638506 
L 383.497942 142.35967 
L 383.943899 144.700772 
L 384.389856 166.570061 
L 384.835813 150.072636 
L 385.281769 126.896507 
L 385.727726 196.856624 
L 386.173683 187.656405 
L 386.61964 217.427313 
L 387.065597 255.153907 
L 387.511554 193.854244 
L 387.957511 204.298181 
L 388.403468 223.326073 
L 388.849425 257.87613 
L 389.295382 272.284178 
L 389.741339 274.330931 
L 390.187296 264.430981 
L 390.633253 275.231371 
L 391.07921 271.367089 
L 391.525167 253.604312 
L 391.971124 309.19736 
L 392.417081 299.054892 
L 392.863038 260.655626 
L 393.308994 255.562647 
L 393.754951 295.002076 
L 394.200908 268.299925 
L 394.646865 230.993719 
L 395.092822 279.024528 
L 395.538779 235.366722 
L 395.984736 255.881054 
L 396.430693 244.661293 
L 396.87665 246.777222 
L 397.322607 207.278537 
L 397.768564 206.559681 
L 398.214521 220.612599 
L 398.660478 182.996277 
L 399.106435 187.040141 
L 399.552392 138.663764 
L 399.998349 160.075687 
L 400.890263 149.540399 
L 401.782176 132.557429 
L 402.228133 158.552218 
L 402.67409 207.554676 
L 403.120047 61.255122 
L 403.566004 171.527538 
L 404.011961 123.366366 
L 404.457918 106.97077 
L 404.903875 130.759704 
L 405.349832 112.207285 
L 405.795789 87.831588 
L 406.687703 125.555944 
L 407.13366 122.571672 
L 407.579617 143.185086 
L 408.025574 85.353917 
L 408.471531 112.092944 
L 408.917487 178.917011 
L 409.363444 103.260571 
L 409.809401 185.105084 
L 410.255358 246.061926 
L 410.701315 236.965265 
L 411.147272 218.325565 
L 411.593229 217.201478 
L 412.039186 241.357444 
L 412.485143 278.58883 
L 412.9311 237.204325 
L 413.377057 227.879998 
L 413.823014 280.163722 
L 414.268971 303.005218 
L 414.714928 319.086782 
L 415.160885 271.576562 
L 415.606842 312.466877 
L 416.052799 260.900534 
L 416.498756 274.031751 
L 416.944713 259.741352 
L 417.390669 207.744194 
L 417.836626 301.349861 
L 418.282583 242.721608 
L 418.72854 223.956477 
L 419.174497 231.266348 
L 419.620454 201.772461 
L 420.066411 197.331385 
L 420.512368 214.064767 
L 420.958325 185.290278 
L 421.404282 140.845154 
L 421.850239 134.879864 
L 422.296196 153.681718 
L 422.742153 150.078536 
L 423.18811 84.129527 
L 424.080024 231.241273 
L 424.525981 151.973106 
L 424.971938 143.924643 
L 425.417894 79.038278 
L 425.863851 159.96989 
L 426.309808 101.541379 
L 426.755765 136.954898 
L 427.201722 76.208631 
L 427.647679 120.386365 
L 428.093636 138.577652 
L 428.539593 85.66093 
L 428.98555 73.792607 
L 429.431507 80.988188 
L 429.877464 184.627169 
L 430.323421 129.199207 
L 430.769378 127.841961 
L 431.215335 125.057684 
L 431.661292 158.903992 
L 432.107249 147.928224 
L 433.891076 243.50796 
L 434.337033 224.358605 
L 434.78299 214.999895 
L 435.228947 234.997249 
L 436.120861 257.218209 
L 436.566818 257.07045 
L 437.012775 253.4809 
L 437.458732 247.972569 
L 437.904689 279.428131 
L 438.350646 284.656916 
L 438.796603 277.019991 
L 439.688517 235.191751 
L 440.134474 268.705817 
L 440.580431 318.618836 
L 441.026388 245.771562 
L 441.472344 217.177114 
L 441.918301 260.158434 
L 442.364258 203.442993 
L 442.810215 216.965521 
L 443.702129 146.733742 
L 444.148086 134.365327 
L 444.594043 145.644039 
L 445.04 209.758863 
L 445.04 209.758863 
" style="fill:none;stroke:#008000;stroke-linecap:square;"/>
   </g>
   <g id="patch_3">
    <path d="M 43.67875 18.766875 
L 445.04 18.766875 
" style="fill:none;stroke:#000000;stroke-linecap:square;stroke-linejoin:miter;"/>
   </g>
   <g id="patch_4">
    <path d="M 43.67875 374.8125 
L 445.04 374.8125 
" style="fill:none;stroke:#000000;stroke-linecap:square;stroke-linejoin:miter;"/>
   </g>
   <g id="patch_5">
    <path d="M 43.67875 374.8125 
L 43.67875 18.766875 
" style="fill:none;stroke:#000000;stroke-linecap:square;stroke-linejoin:miter;"/>
   </g>
   <g id="patch_6">
    <path d="M 445.04 374.8125 
L 445.04 18.766875 
" style="fill:none;stroke:#000000;stroke-linecap:square;stroke-linejoin:miter;"/>
   </g>
   <g id="matplotlib.axis_1">
    <g id="xtick_1">
     <g id="line2d_3">
      <defs>
       <path d="M 0 0 
L 0 -4 
" id="m7a25dfb551" style="stroke:#000000;stroke-width:0.5;"/>
      </defs>
      <g>
       <use style="stroke:#000000;stroke-width:0.5;" x="43.67875" xlink:href="#m7a25dfb551" y="374.8125"/>
      </g>
     </g>
     <g id="line2d_4">
      <defs>
       <path d="M 0 0 
L 0 4 
" id="m760bdc2a49" style="stroke:#000000;stroke-width:0.5;"/>
      </defs>
      <g>
       <use style="stroke:#000000;stroke-width:0.5;" x="43.67875" xlink:href="#m760bdc2a49" y="18.766875"/>
      </g>
     </g>
     <g id="text_1">
      <!-- 2000 -->
      <defs>
       <path d="M 31.78125 66.40625 
Q 24.171875 66.40625 20.328125 58.90625 
Q 16.5 51.421875 16.5 36.375 
Q 16.5 21.390625 20.328125 13.890625 
Q 24.171875 6.390625 31.78125 6.390625 
Q 39.453125 6.390625 43.28125 13.890625 
Q 47.125 21.390625 47.125 36.375 
Q 47.125 51.421875 43.28125 58.90625 
Q 39.453125 66.40625 31.78125 66.40625 
M 31.78125 74.21875 
Q 44.046875 74.21875 50.515625 64.515625 
Q 56.984375 54.828125 56.984375 36.375 
Q 56.984375 17.96875 50.515625 8.265625 
Q 44.046875 -1.421875 31.78125 -1.421875 
Q 19.53125 -1.421875 13.0625 8.265625 
Q 6.59375 17.96875 6.59375 36.375 
Q 6.59375 54.828125 13.0625 64.515625 
Q 19.53125 74.21875 31.78125 74.21875 
" id="BitstreamVeraSans-Roman-30"/>
       <path d="M 19.1875 8.296875 
L 53.609375 8.296875 
L 53.609375 0 
L 7.328125 0 
L 7.328125 8.296875 
Q 12.9375 14.109375 22.625 23.890625 
Q 32.328125 33.6875 34.8125 36.53125 
Q 39.546875 41.84375 41.421875 45.53125 
Q 43.3125 49.21875 43.3125 52.78125 
Q 43.3125 58.59375 39.234375 62.25 
Q 35.15625 65.921875 28.609375 65.921875 
Q 23.96875 65.921875 18.8125 64.3125 
Q 13.671875 62.703125 7.8125 59.421875 
L 7.8125 69.390625 
Q 13.765625 71.78125 18.9375 73 
Q 24.125 74.21875 28.421875 74.21875 
Q 39.75 74.21875 46.484375 68.546875 
Q 53.21875 62.890625 53.21875 53.421875 
Q 53.21875 48.921875 51.53125 44.890625 
Q 49.859375 40.875 45.40625 35.40625 
Q 44.1875 33.984375 37.640625 27.21875 
Q 31.109375 20.453125 19.1875 8.296875 
" id="BitstreamVeraSans-Roman-32"/>
      </defs>
      <g transform="translate(28.40875 387.930625)scale(0.12 -0.12)">
       <use xlink:href="#BitstreamVeraSans-Roman-32"/>
       <use x="63.623046875" xlink:href="#BitstreamVeraSans-Roman-30"/>
       <use x="127.24609375" xlink:href="#BitstreamVeraSans-Roman-30"/>
       <use x="190.869140625" xlink:href="#BitstreamVeraSans-Roman-30"/>
      </g>
     </g>
    </g>
    <g id="xtick_2">
     <g id="line2d_5">
      <g>
       <use style="stroke:#000000;stroke-width:0.5;" x="90.5042291667" xlink:href="#m7a25dfb551" y="374.8125"/>
      </g>
     </g>
     <g id="line2d_6">
      <g>
       <use style="stroke:#000000;stroke-width:0.5;" x="90.5042291667" xlink:href="#m760bdc2a49" y="18.766875"/>
      </g>
     </g>
     <g id="text_2">
      <!-- 2002 -->
      <g transform="translate(75.2342291667 387.930625)scale(0.12 -0.12)">
       <use xlink:href="#BitstreamVeraSans-Roman-32"/>
       <use x="63.623046875" xlink:href="#BitstreamVeraSans-Roman-30"/>
       <use x="127.24609375" xlink:href="#BitstreamVeraSans-Roman-30"/>
       <use x="190.869140625" xlink:href="#BitstreamVeraSans-Roman-32"/>
      </g>
     </g>
    </g>
    <g id="xtick_3">
     <g id="line2d_7">
      <g>
       <use style="stroke:#000000;stroke-width:0.5;" x="136.883751389" xlink:href="#m7a25dfb551" y="374.8125"/>
      </g>
     </g>
     <g id="line2d_8">
      <g>
       <use style="stroke:#000000;stroke-width:0.5;" x="136.883751389" xlink:href="#m760bdc2a49" y="18.766875"/>
      </g>
     </g>
     <g id="text_3">
      <!-- 2004 -->
      <defs>
       <path d="M 37.796875 64.3125 
L 12.890625 25.390625 
L 37.796875 25.390625 
z
M 35.203125 72.90625 
L 47.609375 72.90625 
L 47.609375 25.390625 
L 58.015625 25.390625 
L 58.015625 17.1875 
L 47.609375 17.1875 
L 47.609375 0 
L 37.796875 0 
L 37.796875 17.1875 
L 4.890625 17.1875 
L 4.890625 26.703125 
z
" id="BitstreamVeraSans-Roman-34"/>
      </defs>
      <g transform="translate(121.613751389 387.930625)scale(0.12 -0.12)">
       <use xlink:href="#BitstreamVeraSans-Roman-32"/>
       <use x="63.623046875" xlink:href="#BitstreamVeraSans-Roman-30"/>
       <use x="127.24609375" xlink:href="#BitstreamVeraSans-Roman-30"/>
       <use x="190.869140625" xlink:href="#BitstreamVeraSans-Roman-34"/>
      </g>
     </g>
    </g>
    <g id="xtick_4">
     <g id="line2d_9">
      <g>
       <use style="stroke:#000000;stroke-width:0.5;" x="183.263273611" xlink:href="#m7a25dfb551" y="374.8125"/>
      </g>
     </g>
     <g id="line2d_10">
      <g>
       <use style="stroke:#000000;stroke-width:0.5;" x="183.263273611" xlink:href="#m760bdc2a49" y="18.766875"/>
      </g>
     </g>
     <g id="text_4">
      <!-- 2006 -->
      <defs>
       <path d="M 33.015625 40.375 
Q 26.375 40.375 22.484375 35.828125 
Q 18.609375 31.296875 18.609375 23.390625 
Q 18.609375 15.53125 22.484375 10.953125 
Q 26.375 6.390625 33.015625 6.390625 
Q 39.65625 6.390625 43.53125 10.953125 
Q 47.40625 15.53125 47.40625 23.390625 
Q 47.40625 31.296875 43.53125 35.828125 
Q 39.65625 40.375 33.015625 40.375 
M 52.59375 71.296875 
L 52.59375 62.3125 
Q 48.875 64.0625 45.09375 64.984375 
Q 41.3125 65.921875 37.59375 65.921875 
Q 27.828125 65.921875 22.671875 59.328125 
Q 17.53125 52.734375 16.796875 39.40625 
Q 19.671875 43.65625 24.015625 45.921875 
Q 28.375 48.1875 33.59375 48.1875 
Q 44.578125 48.1875 50.953125 41.515625 
Q 57.328125 34.859375 57.328125 23.390625 
Q 57.328125 12.15625 50.6875 5.359375 
Q 44.046875 -1.421875 33.015625 -1.421875 
Q 20.359375 -1.421875 13.671875 8.265625 
Q 6.984375 17.96875 6.984375 36.375 
Q 6.984375 53.65625 15.1875 63.9375 
Q 23.390625 74.21875 37.203125 74.21875 
Q 40.921875 74.21875 44.703125 73.484375 
Q 48.484375 72.75 52.59375 71.296875 
" id="BitstreamVeraSans-Roman-36"/>
      </defs>
      <g transform="translate(167.993273611 387.930625)scale(0.12 -0.12)">
       <use xlink:href="#BitstreamVeraSans-Roman-32"/>
       <use x="63.623046875" xlink:href="#BitstreamVeraSans-Roman-30"/>
       <use x="127.24609375" xlink:href="#BitstreamVeraSans-Roman-30"/>
       <use x="190.869140625" xlink:href="#BitstreamVeraSans-Roman-36"/>
      </g>
     </g>
    </g>
    <g id="xtick_5">
     <g id="line2d_11">
      <g>
       <use style="stroke:#000000;stroke-width:0.5;" x="230.088752778" xlink:href="#m7a25dfb551" y="374.8125"/>
      </g>
     </g>
     <g id="line2d_12">
      <g>
       <use style="stroke:#000000;stroke-width:0.5;" x="230.088752778" xlink:href="#m760bdc2a49" y="18.766875"/>
      </g>
     </g>
     <g id="text_5">
      <!-- 2008 -->
      <defs>
       <path d="M 31.78125 34.625 
Q 24.75 34.625 20.71875 30.859375 
Q 16.703125 27.09375 16.703125 20.515625 
Q 16.703125 13.921875 20.71875 10.15625 
Q 24.75 6.390625 31.78125 6.390625 
Q 38.8125 6.390625 42.859375 10.171875 
Q 46.921875 13.96875 46.921875 20.515625 
Q 46.921875 27.09375 42.890625 30.859375 
Q 38.875 34.625 31.78125 34.625 
M 21.921875 38.8125 
Q 15.578125 40.375 12.03125 44.71875 
Q 8.5 49.078125 8.5 55.328125 
Q 8.5 64.0625 14.71875 69.140625 
Q 20.953125 74.21875 31.78125 74.21875 
Q 42.671875 74.21875 48.875 69.140625 
Q 55.078125 64.0625 55.078125 55.328125 
Q 55.078125 49.078125 51.53125 44.71875 
Q 48 40.375 41.703125 38.8125 
Q 48.828125 37.15625 52.796875 32.3125 
Q 56.78125 27.484375 56.78125 20.515625 
Q 56.78125 9.90625 50.3125 4.234375 
Q 43.84375 -1.421875 31.78125 -1.421875 
Q 19.734375 -1.421875 13.25 4.234375 
Q 6.78125 9.90625 6.78125 20.515625 
Q 6.78125 27.484375 10.78125 32.3125 
Q 14.796875 37.15625 21.921875 38.8125 
M 18.3125 54.390625 
Q 18.3125 48.734375 21.84375 45.5625 
Q 25.390625 42.390625 31.78125 42.390625 
Q 38.140625 42.390625 41.71875 45.5625 
Q 45.3125 48.734375 45.3125 54.390625 
Q 45.3125 60.0625 41.71875 63.234375 
Q 38.140625 66.40625 31.78125 66.40625 
Q 25.390625 66.40625 21.84375 63.234375 
Q 18.3125 60.0625 18.3125 54.390625 
" id="BitstreamVeraSans-Roman-38"/>
      </defs>
      <g transform="translate(214.818752778 387.930625)scale(0.12 -0.12)">
       <use xlink:href="#BitstreamVeraSans-Roman-32"/>
       <use x="63.623046875" xlink:href="#BitstreamVeraSans-Roman-30"/>
       <use x="127.24609375" xlink:href="#BitstreamVeraSans-Roman-30"/>
       <use x="190.869140625" xlink:href="#BitstreamVeraSans-Roman-38"/>
      </g>
     </g>
    </g>
    <g id="xtick_6">
     <g id="line2d_13">
      <g>
       <use style="stroke:#000000;stroke-width:0.5;" x="276.468275" xlink:href="#m7a25dfb551" y="374.8125"/>
      </g>
     </g>
     <g id="line2d_14">
      <g>
       <use style="stroke:#000000;stroke-width:0.5;" x="276.468275" xlink:href="#m760bdc2a49" y="18.766875"/>
      </g>
     </g>
     <g id="text_6">
      <!-- 2010 -->
      <defs>
       <path d="M 12.40625 8.296875 
L 28.515625 8.296875 
L 28.515625 63.921875 
L 10.984375 60.40625 
L 10.984375 69.390625 
L 28.421875 72.90625 
L 38.28125 72.90625 
L 38.28125 8.296875 
L 54.390625 8.296875 
L 54.390625 0 
L 12.40625 0 
z
" id="BitstreamVeraSans-Roman-31"/>
      </defs>
      <g transform="translate(261.198275 387.930625)scale(0.12 -0.12)">
       <use xlink:href="#BitstreamVeraSans-Roman-32"/>
       <use x="63.623046875" xlink:href="#BitstreamVeraSans-Roman-30"/>
       <use x="127.24609375" xlink:href="#BitstreamVeraSans-Roman-31"/>
       <use x="190.869140625" xlink:href="#BitstreamVeraSans-Roman-30"/>
      </g>
     </g>
    </g>
    <g id="xtick_7">
     <g id="line2d_15">
      <g>
       <use style="stroke:#000000;stroke-width:0.5;" x="322.847797222" xlink:href="#m7a25dfb551" y="374.8125"/>
      </g>
     </g>
     <g id="line2d_16">
      <g>
       <use style="stroke:#000000;stroke-width:0.5;" x="322.847797222" xlink:href="#m760bdc2a49" y="18.766875"/>
      </g>
     </g>
     <g id="text_7">
      <!-- 2012 -->
      <g transform="translate(307.577797222 387.930625)scale(0.12 -0.12)">
       <use xlink:href="#BitstreamVeraSans-Roman-32"/>
       <use x="63.623046875" xlink:href="#BitstreamVeraSans-Roman-30"/>
       <use x="127.24609375" xlink:href="#BitstreamVeraSans-Roman-31"/>
       <use x="190.869140625" xlink:href="#BitstreamVeraSans-Roman-32"/>
      </g>
     </g>
    </g>
    <g id="xtick_8">
     <g id="line2d_17">
      <g>
       <use style="stroke:#000000;stroke-width:0.5;" x="369.673276389" xlink:href="#m7a25dfb551" y="374.8125"/>
      </g>
     </g>
     <g id="line2d_18">
      <g>
       <use style="stroke:#000000;stroke-width:0.5;" x="369.673276389" xlink:href="#m760bdc2a49" y="18.766875"/>
      </g>
     </g>
     <g id="text_8">
      <!-- 2014 -->
      <g transform="translate(354.403276389 387.930625)scale(0.12 -0.12)">
       <use xlink:href="#BitstreamVeraSans-Roman-32"/>
       <use x="63.623046875" xlink:href="#BitstreamVeraSans-Roman-30"/>
       <use x="127.24609375" xlink:href="#BitstreamVeraSans-Roman-31"/>
       <use x="190.869140625" xlink:href="#BitstreamVeraSans-Roman-34"/>
      </g>
     </g>
    </g>
    <g id="xtick_9">
     <g id="line2d_19">
      <g>
       <use style="stroke:#000000;stroke-width:0.5;" x="416.052798611" xlink:href="#m7a25dfb551" y="374.8125"/>
      </g>
     </g>
     <g id="line2d_20">
      <g>
       <use style="stroke:#000000;stroke-width:0.5;" x="416.052798611" xlink:href="#m760bdc2a49" y="18.766875"/>
      </g>
     </g>
     <g id="text_9">
      <!-- 2016 -->
      <g transform="translate(400.782798611 387.930625)scale(0.12 -0.12)">
       <use xlink:href="#BitstreamVeraSans-Roman-32"/>
       <use x="63.623046875" xlink:href="#BitstreamVeraSans-Roman-30"/>
       <use x="127.24609375" xlink:href="#BitstreamVeraSans-Roman-31"/>
       <use x="190.869140625" xlink:href="#BitstreamVeraSans-Roman-36"/>
      </g>
     </g>
    </g>
    <g id="xtick_10">
     <g id="line2d_21">
      <g>
       <use style="stroke:#000000;stroke-width:0.5;" x="445.04" xlink:href="#m7a25dfb551" y="374.8125"/>
      </g>
     </g>
     <g id="line2d_22">
      <g>
       <use style="stroke:#000000;stroke-width:0.5;" x="445.04" xlink:href="#m760bdc2a49" y="18.766875"/>
      </g>
     </g>
    </g>
    <g id="xtick_11">
     <g id="line2d_23">
      <defs>
       <path d="M 0 0 
L 0 -2 
" id="me813841afe" style="stroke:#000000;stroke-width:0.5;"/>
      </defs>
      <g>
       <use style="stroke:#000000;stroke-width:0.5;" x="43.67875" xlink:href="#me813841afe" y="374.8125"/>
      </g>
     </g>
     <g id="line2d_24">
      <defs>
       <path d="M 0 0 
L 0 2 
" id="mb2263557e4" style="stroke:#000000;stroke-width:0.5;"/>
      </defs>
      <g>
       <use style="stroke:#000000;stroke-width:0.5;" x="43.67875" xlink:href="#mb2263557e4" y="18.766875"/>
      </g>
     </g>
    </g>
    <g id="xtick_12">
     <g id="line2d_25">
      <g>
       <use style="stroke:#000000;stroke-width:0.5;" x="67.3144680556" xlink:href="#me813841afe" y="374.8125"/>
      </g>
     </g>
     <g id="line2d_26">
      <g>
       <use style="stroke:#000000;stroke-width:0.5;" x="67.3144680556" xlink:href="#mb2263557e4" y="18.766875"/>
      </g>
     </g>
    </g>
    <g id="xtick_13">
     <g id="line2d_27">
      <g>
       <use style="stroke:#000000;stroke-width:0.5;" x="90.5042291667" xlink:href="#me813841afe" y="374.8125"/>
      </g>
     </g>
     <g id="line2d_28">
      <g>
       <use style="stroke:#000000;stroke-width:0.5;" x="90.5042291667" xlink:href="#mb2263557e4" y="18.766875"/>
      </g>
     </g>
    </g>
    <g id="xtick_14">
     <g id="line2d_29">
      <g>
       <use style="stroke:#000000;stroke-width:0.5;" x="113.693990278" xlink:href="#me813841afe" y="374.8125"/>
      </g>
     </g>
     <g id="line2d_30">
      <g>
       <use style="stroke:#000000;stroke-width:0.5;" x="113.693990278" xlink:href="#mb2263557e4" y="18.766875"/>
      </g>
     </g>
    </g>
    <g id="xtick_15">
     <g id="line2d_31">
      <g>
       <use style="stroke:#000000;stroke-width:0.5;" x="136.883751389" xlink:href="#me813841afe" y="374.8125"/>
      </g>
     </g>
     <g id="line2d_32">
      <g>
       <use style="stroke:#000000;stroke-width:0.5;" x="136.883751389" xlink:href="#mb2263557e4" y="18.766875"/>
      </g>
     </g>
    </g>
    <g id="xtick_16">
     <g id="line2d_33">
      <g>
       <use style="stroke:#000000;stroke-width:0.5;" x="160.0735125" xlink:href="#me813841afe" y="374.8125"/>
      </g>
     </g>
     <g id="line2d_34">
      <g>
       <use style="stroke:#000000;stroke-width:0.5;" x="160.0735125" xlink:href="#mb2263557e4" y="18.766875"/>
      </g>
     </g>
    </g>
    <g id="xtick_17">
     <g id="line2d_35">
      <g>
       <use style="stroke:#000000;stroke-width:0.5;" x="183.263273611" xlink:href="#me813841afe" y="374.8125"/>
      </g>
     </g>
     <g id="line2d_36">
      <g>
       <use style="stroke:#000000;stroke-width:0.5;" x="183.263273611" xlink:href="#mb2263557e4" y="18.766875"/>
      </g>
     </g>
    </g>
    <g id="xtick_18">
     <g id="line2d_37">
      <g>
       <use style="stroke:#000000;stroke-width:0.5;" x="206.898991667" xlink:href="#me813841afe" y="374.8125"/>
      </g>
     </g>
     <g id="line2d_38">
      <g>
       <use style="stroke:#000000;stroke-width:0.5;" x="206.898991667" xlink:href="#mb2263557e4" y="18.766875"/>
      </g>
     </g>
    </g>
    <g id="xtick_19">
     <g id="line2d_39">
      <g>
       <use style="stroke:#000000;stroke-width:0.5;" x="230.088752778" xlink:href="#me813841afe" y="374.8125"/>
      </g>
     </g>
     <g id="line2d_40">
      <g>
       <use style="stroke:#000000;stroke-width:0.5;" x="230.088752778" xlink:href="#mb2263557e4" y="18.766875"/>
      </g>
     </g>
    </g>
    <g id="xtick_20">
     <g id="line2d_41">
      <g>
       <use style="stroke:#000000;stroke-width:0.5;" x="253.278513889" xlink:href="#me813841afe" y="374.8125"/>
      </g>
     </g>
     <g id="line2d_42">
      <g>
       <use style="stroke:#000000;stroke-width:0.5;" x="253.278513889" xlink:href="#mb2263557e4" y="18.766875"/>
      </g>
     </g>
    </g>
    <g id="xtick_21">
     <g id="line2d_43">
      <g>
       <use style="stroke:#000000;stroke-width:0.5;" x="276.468275" xlink:href="#me813841afe" y="374.8125"/>
      </g>
     </g>
     <g id="line2d_44">
      <g>
       <use style="stroke:#000000;stroke-width:0.5;" x="276.468275" xlink:href="#mb2263557e4" y="18.766875"/>
      </g>
     </g>
    </g>
    <g id="xtick_22">
     <g id="line2d_45">
      <g>
       <use style="stroke:#000000;stroke-width:0.5;" x="299.658036111" xlink:href="#me813841afe" y="374.8125"/>
      </g>
     </g>
     <g id="line2d_46">
      <g>
       <use style="stroke:#000000;stroke-width:0.5;" x="299.658036111" xlink:href="#mb2263557e4" y="18.766875"/>
      </g>
     </g>
    </g>
    <g id="xtick_23">
     <g id="line2d_47">
      <g>
       <use style="stroke:#000000;stroke-width:0.5;" x="322.847797222" xlink:href="#me813841afe" y="374.8125"/>
      </g>
     </g>
     <g id="line2d_48">
      <g>
       <use style="stroke:#000000;stroke-width:0.5;" x="322.847797222" xlink:href="#mb2263557e4" y="18.766875"/>
      </g>
     </g>
    </g>
    <g id="xtick_24">
     <g id="line2d_49">
      <g>
       <use style="stroke:#000000;stroke-width:0.5;" x="346.483515278" xlink:href="#me813841afe" y="374.8125"/>
      </g>
     </g>
     <g id="line2d_50">
      <g>
       <use style="stroke:#000000;stroke-width:0.5;" x="346.483515278" xlink:href="#mb2263557e4" y="18.766875"/>
      </g>
     </g>
    </g>
    <g id="xtick_25">
     <g id="line2d_51">
      <g>
       <use style="stroke:#000000;stroke-width:0.5;" x="369.673276389" xlink:href="#me813841afe" y="374.8125"/>
      </g>
     </g>
     <g id="line2d_52">
      <g>
       <use style="stroke:#000000;stroke-width:0.5;" x="369.673276389" xlink:href="#mb2263557e4" y="18.766875"/>
      </g>
     </g>
    </g>
    <g id="xtick_26">
     <g id="line2d_53">
      <g>
       <use style="stroke:#000000;stroke-width:0.5;" x="392.8630375" xlink:href="#me813841afe" y="374.8125"/>
      </g>
     </g>
     <g id="line2d_54">
      <g>
       <use style="stroke:#000000;stroke-width:0.5;" x="392.8630375" xlink:href="#mb2263557e4" y="18.766875"/>
      </g>
     </g>
    </g>
    <g id="xtick_27">
     <g id="line2d_55">
      <g>
       <use style="stroke:#000000;stroke-width:0.5;" x="416.052798611" xlink:href="#me813841afe" y="374.8125"/>
      </g>
     </g>
     <g id="line2d_56">
      <g>
       <use style="stroke:#000000;stroke-width:0.5;" x="416.052798611" xlink:href="#mb2263557e4" y="18.766875"/>
      </g>
     </g>
    </g>
    <g id="xtick_28">
     <g id="line2d_57">
      <g>
       <use style="stroke:#000000;stroke-width:0.5;" x="439.242559722" xlink:href="#me813841afe" y="374.8125"/>
      </g>
     </g>
     <g id="line2d_58">
      <g>
       <use style="stroke:#000000;stroke-width:0.5;" x="439.242559722" xlink:href="#mb2263557e4" y="18.766875"/>
      </g>
     </g>
    </g>
    <g id="text_10">
     <!-- date -->
     <defs>
      <path d="M 18.3125 70.21875 
L 18.3125 54.6875 
L 36.8125 54.6875 
L 36.8125 47.703125 
L 18.3125 47.703125 
L 18.3125 18.015625 
Q 18.3125 11.328125 20.140625 9.421875 
Q 21.96875 7.515625 27.59375 7.515625 
L 36.8125 7.515625 
L 36.8125 0 
L 27.59375 0 
Q 17.1875 0 13.234375 3.875 
Q 9.28125 7.765625 9.28125 18.015625 
L 9.28125 47.703125 
L 2.6875 47.703125 
L 2.6875 54.6875 
L 9.28125 54.6875 
L 9.28125 70.21875 
z
" id="BitstreamVeraSans-Roman-74"/>
      <path d="M 56.203125 29.59375 
L 56.203125 25.203125 
L 14.890625 25.203125 
Q 15.484375 15.921875 20.484375 11.0625 
Q 25.484375 6.203125 34.421875 6.203125 
Q 39.59375 6.203125 44.453125 7.46875 
Q 49.3125 8.734375 54.109375 11.28125 
L 54.109375 2.78125 
Q 49.265625 0.734375 44.1875 -0.34375 
Q 39.109375 -1.421875 33.890625 -1.421875 
Q 20.796875 -1.421875 13.15625 6.1875 
Q 5.515625 13.8125 5.515625 26.8125 
Q 5.515625 40.234375 12.765625 48.109375 
Q 20.015625 56 32.328125 56 
Q 43.359375 56 49.78125 48.890625 
Q 56.203125 41.796875 56.203125 29.59375 
M 47.21875 32.234375 
Q 47.125 39.59375 43.09375 43.984375 
Q 39.0625 48.390625 32.421875 48.390625 
Q 24.90625 48.390625 20.390625 44.140625 
Q 15.875 39.890625 15.1875 32.171875 
z
" id="BitstreamVeraSans-Roman-65"/>
      <path d="M 34.28125 27.484375 
Q 23.390625 27.484375 19.1875 25 
Q 14.984375 22.515625 14.984375 16.5 
Q 14.984375 11.71875 18.140625 8.90625 
Q 21.296875 6.109375 26.703125 6.109375 
Q 34.1875 6.109375 38.703125 11.40625 
Q 43.21875 16.703125 43.21875 25.484375 
L 43.21875 27.484375 
z
M 52.203125 31.203125 
L 52.203125 0 
L 43.21875 0 
L 43.21875 8.296875 
Q 40.140625 3.328125 35.546875 0.953125 
Q 30.953125 -1.421875 24.3125 -1.421875 
Q 15.921875 -1.421875 10.953125 3.296875 
Q 6 8.015625 6 15.921875 
Q 6 25.140625 12.171875 29.828125 
Q 18.359375 34.515625 30.609375 34.515625 
L 43.21875 34.515625 
L 43.21875 35.40625 
Q 43.21875 41.609375 39.140625 45 
Q 35.0625 48.390625 27.6875 48.390625 
Q 23 48.390625 18.546875 47.265625 
Q 14.109375 46.140625 10.015625 43.890625 
L 10.015625 52.203125 
Q 14.9375 54.109375 19.578125 55.046875 
Q 24.21875 56 28.609375 56 
Q 40.484375 56 46.34375 49.84375 
Q 52.203125 43.703125 52.203125 31.203125 
" id="BitstreamVeraSans-Roman-61"/>
      <path d="M 45.40625 46.390625 
L 45.40625 75.984375 
L 54.390625 75.984375 
L 54.390625 0 
L 45.40625 0 
L 45.40625 8.203125 
Q 42.578125 3.328125 38.25 0.953125 
Q 33.9375 -1.421875 27.875 -1.421875 
Q 17.96875 -1.421875 11.734375 6.484375 
Q 5.515625 14.40625 5.515625 27.296875 
Q 5.515625 40.1875 11.734375 48.09375 
Q 17.96875 56 27.875 56 
Q 33.9375 56 38.25 53.625 
Q 42.578125 51.265625 45.40625 46.390625 
M 14.796875 27.296875 
Q 14.796875 17.390625 18.875 11.75 
Q 22.953125 6.109375 30.078125 6.109375 
Q 37.203125 6.109375 41.296875 11.75 
Q 45.40625 17.390625 45.40625 27.296875 
Q 45.40625 37.203125 41.296875 42.84375 
Q 37.203125 48.484375 30.078125 48.484375 
Q 22.953125 48.484375 18.875 42.84375 
Q 14.796875 37.203125 14.796875 27.296875 
" id="BitstreamVeraSans-Roman-64"/>
     </defs>
     <g transform="translate(230.829375 404.544375)scale(0.12 -0.12)">
      <use xlink:href="#BitstreamVeraSans-Roman-64"/>
      <use x="63.4765625" xlink:href="#BitstreamVeraSans-Roman-61"/>
      <use x="124.755859375" xlink:href="#BitstreamVeraSans-Roman-74"/>
      <use x="163.96484375" xlink:href="#BitstreamVeraSans-Roman-65"/>
     </g>
    </g>
   </g>
   <g id="matplotlib.axis_2">
    <g id="ytick_1">
     <g id="line2d_59">
      <defs>
       <path d="M 0 0 
L 4 0 
" id="m25cd01c713" style="stroke:#000000;stroke-width:0.5;"/>
      </defs>
      <g>
       <use style="stroke:#000000;stroke-width:0.5;" x="43.67875" xlink:href="#m25cd01c713" y="374.8125"/>
      </g>
     </g>
     <g id="line2d_60">
      <defs>
       <path d="M 0 0 
L -4 0 
" id="m30def427d2" style="stroke:#000000;stroke-width:0.5;"/>
      </defs>
      <g>
       <use style="stroke:#000000;stroke-width:0.5;" x="445.04" xlink:href="#m30def427d2" y="374.8125"/>
      </g>
     </g>
     <g id="text_11">
      <!-- 0.00 -->
      <defs>
       <path d="M 10.6875 12.40625 
L 21 12.40625 
L 21 0 
L 10.6875 0 
z
" id="BitstreamVeraSans-Roman-2e"/>
      </defs>
      <g transform="translate(12.96 378.12375)scale(0.12 -0.12)">
       <use xlink:href="#BitstreamVeraSans-Roman-30"/>
       <use x="63.623046875" xlink:href="#BitstreamVeraSans-Roman-2e"/>
       <use x="95.41015625" xlink:href="#BitstreamVeraSans-Roman-30"/>
       <use x="159.033203125" xlink:href="#BitstreamVeraSans-Roman-30"/>
      </g>
     </g>
    </g>
    <g id="ytick_2">
     <g id="line2d_61">
      <g>
       <use style="stroke:#000000;stroke-width:0.5;" x="43.67875" xlink:href="#m25cd01c713" y="303.603375"/>
      </g>
     </g>
     <g id="line2d_62">
      <g>
       <use style="stroke:#000000;stroke-width:0.5;" x="445.04" xlink:href="#m30def427d2" y="303.603375"/>
      </g>
     </g>
     <g id="text_12">
      <!-- 0.01 -->
      <g transform="translate(12.96 306.914625)scale(0.12 -0.12)">
       <use xlink:href="#BitstreamVeraSans-Roman-30"/>
       <use x="63.623046875" xlink:href="#BitstreamVeraSans-Roman-2e"/>
       <use x="95.41015625" xlink:href="#BitstreamVeraSans-Roman-30"/>
       <use x="159.033203125" xlink:href="#BitstreamVeraSans-Roman-31"/>
      </g>
     </g>
    </g>
    <g id="ytick_3">
     <g id="line2d_63">
      <g>
       <use style="stroke:#000000;stroke-width:0.5;" x="43.67875" xlink:href="#m25cd01c713" y="232.39425"/>
      </g>
     </g>
     <g id="line2d_64">
      <g>
       <use style="stroke:#000000;stroke-width:0.5;" x="445.04" xlink:href="#m30def427d2" y="232.39425"/>
      </g>
     </g>
     <g id="text_13">
      <!-- 0.02 -->
      <g transform="translate(12.96 235.7055)scale(0.12 -0.12)">
       <use xlink:href="#BitstreamVeraSans-Roman-30"/>
       <use x="63.623046875" xlink:href="#BitstreamVeraSans-Roman-2e"/>
       <use x="95.41015625" xlink:href="#BitstreamVeraSans-Roman-30"/>
       <use x="159.033203125" xlink:href="#BitstreamVeraSans-Roman-32"/>
      </g>
     </g>
    </g>
    <g id="ytick_4">
     <g id="line2d_65">
      <g>
       <use style="stroke:#000000;stroke-width:0.5;" x="43.67875" xlink:href="#m25cd01c713" y="161.185125"/>
      </g>
     </g>
     <g id="line2d_66">
      <g>
       <use style="stroke:#000000;stroke-width:0.5;" x="445.04" xlink:href="#m30def427d2" y="161.185125"/>
      </g>
     </g>
     <g id="text_14">
      <!-- 0.03 -->
      <defs>
       <path d="M 40.578125 39.3125 
Q 47.65625 37.796875 51.625 33 
Q 55.609375 28.21875 55.609375 21.1875 
Q 55.609375 10.40625 48.1875 4.484375 
Q 40.765625 -1.421875 27.09375 -1.421875 
Q 22.515625 -1.421875 17.65625 -0.515625 
Q 12.796875 0.390625 7.625 2.203125 
L 7.625 11.71875 
Q 11.71875 9.328125 16.59375 8.109375 
Q 21.484375 6.890625 26.8125 6.890625 
Q 36.078125 6.890625 40.9375 10.546875 
Q 45.796875 14.203125 45.796875 21.1875 
Q 45.796875 27.640625 41.28125 31.265625 
Q 36.765625 34.90625 28.71875 34.90625 
L 20.21875 34.90625 
L 20.21875 43.015625 
L 29.109375 43.015625 
Q 36.375 43.015625 40.234375 45.921875 
Q 44.09375 48.828125 44.09375 54.296875 
Q 44.09375 59.90625 40.109375 62.90625 
Q 36.140625 65.921875 28.71875 65.921875 
Q 24.65625 65.921875 20.015625 65.03125 
Q 15.375 64.15625 9.8125 62.3125 
L 9.8125 71.09375 
Q 15.4375 72.65625 20.34375 73.4375 
Q 25.25 74.21875 29.59375 74.21875 
Q 40.828125 74.21875 47.359375 69.109375 
Q 53.90625 64.015625 53.90625 55.328125 
Q 53.90625 49.265625 50.4375 45.09375 
Q 46.96875 40.921875 40.578125 39.3125 
" id="BitstreamVeraSans-Roman-33"/>
      </defs>
      <g transform="translate(12.96 164.496375)scale(0.12 -0.12)">
       <use xlink:href="#BitstreamVeraSans-Roman-30"/>
       <use x="63.623046875" xlink:href="#BitstreamVeraSans-Roman-2e"/>
       <use x="95.41015625" xlink:href="#BitstreamVeraSans-Roman-30"/>
       <use x="159.033203125" xlink:href="#BitstreamVeraSans-Roman-33"/>
      </g>
     </g>
    </g>
    <g id="ytick_5">
     <g id="line2d_67">
      <g>
       <use style="stroke:#000000;stroke-width:0.5;" x="43.67875" xlink:href="#m25cd01c713" y="89.976"/>
      </g>
     </g>
     <g id="line2d_68">
      <g>
       <use style="stroke:#000000;stroke-width:0.5;" x="445.04" xlink:href="#m30def427d2" y="89.976"/>
      </g>
     </g>
     <g id="text_15">
      <!-- 0.04 -->
      <g transform="translate(12.96 93.28725)scale(0.12 -0.12)">
       <use xlink:href="#BitstreamVeraSans-Roman-30"/>
       <use x="63.623046875" xlink:href="#BitstreamVeraSans-Roman-2e"/>
       <use x="95.41015625" xlink:href="#BitstreamVeraSans-Roman-30"/>
       <use x="159.033203125" xlink:href="#BitstreamVeraSans-Roman-34"/>
      </g>
     </g>
    </g>
    <g id="ytick_6">
     <g id="line2d_69">
      <g>
       <use style="stroke:#000000;stroke-width:0.5;" x="43.67875" xlink:href="#m25cd01c713" y="18.766875"/>
      </g>
     </g>
     <g id="line2d_70">
      <g>
       <use style="stroke:#000000;stroke-width:0.5;" x="445.04" xlink:href="#m30def427d2" y="18.766875"/>
      </g>
     </g>
     <g id="text_16">
      <!-- 0.05 -->
      <defs>
       <path d="M 10.796875 72.90625 
L 49.515625 72.90625 
L 49.515625 64.59375 
L 19.828125 64.59375 
L 19.828125 46.734375 
Q 21.96875 47.46875 24.109375 47.828125 
Q 26.265625 48.1875 28.421875 48.1875 
Q 40.625 48.1875 47.75 41.5 
Q 54.890625 34.8125 54.890625 23.390625 
Q 54.890625 11.625 47.5625 5.09375 
Q 40.234375 -1.421875 26.90625 -1.421875 
Q 22.3125 -1.421875 17.546875 -0.640625 
Q 12.796875 0.140625 7.71875 1.703125 
L 7.71875 11.625 
Q 12.109375 9.234375 16.796875 8.0625 
Q 21.484375 6.890625 26.703125 6.890625 
Q 35.15625 6.890625 40.078125 11.328125 
Q 45.015625 15.765625 45.015625 23.390625 
Q 45.015625 31 40.078125 35.4375 
Q 35.15625 39.890625 26.703125 39.890625 
Q 22.75 39.890625 18.8125 39.015625 
Q 14.890625 38.140625 10.796875 36.28125 
z
" id="BitstreamVeraSans-Roman-35"/>
      </defs>
      <g transform="translate(12.96 22.078125)scale(0.12 -0.12)">
       <use xlink:href="#BitstreamVeraSans-Roman-30"/>
       <use x="63.623046875" xlink:href="#BitstreamVeraSans-Roman-2e"/>
       <use x="95.41015625" xlink:href="#BitstreamVeraSans-Roman-30"/>
       <use x="159.033203125" xlink:href="#BitstreamVeraSans-Roman-35"/>
      </g>
     </g>
    </g>
   </g>
   <g id="legend_1">
    <g id="patch_7">
     <path d="M 299.7485 367.6125 
L 437.84 367.6125 
L 437.84 321.0195 
L 299.7485 321.0195 
z
" style="fill:#ffffff;stroke:#000000;stroke-linejoin:miter;"/>
    </g>
    <g id="line2d_71">
     <path d="M 309.8285 332.68125 
L 329.9885 332.68125 
" style="fill:none;stroke:#0000ff;stroke-linecap:square;"/>
    </g>
    <g id="line2d_72"/>
    <g id="text_17">
     <!-- Los Angeles -->
     <defs>
      <path d="M 54.890625 33.015625 
L 54.890625 0 
L 45.90625 0 
L 45.90625 32.71875 
Q 45.90625 40.484375 42.875 44.328125 
Q 39.84375 48.1875 33.796875 48.1875 
Q 26.515625 48.1875 22.3125 43.546875 
Q 18.109375 38.921875 18.109375 30.90625 
L 18.109375 0 
L 9.078125 0 
L 9.078125 54.6875 
L 18.109375 54.6875 
L 18.109375 46.1875 
Q 21.34375 51.125 25.703125 53.5625 
Q 30.078125 56 35.796875 56 
Q 45.21875 56 50.046875 50.171875 
Q 54.890625 44.34375 54.890625 33.015625 
" id="BitstreamVeraSans-Roman-6e"/>
      <path d="M 44.28125 53.078125 
L 44.28125 44.578125 
Q 40.484375 46.53125 36.375 47.5 
Q 32.28125 48.484375 27.875 48.484375 
Q 21.1875 48.484375 17.84375 46.4375 
Q 14.5 44.390625 14.5 40.28125 
Q 14.5 37.15625 16.890625 35.375 
Q 19.28125 33.59375 26.515625 31.984375 
L 29.59375 31.296875 
Q 39.15625 29.25 43.1875 25.515625 
Q 47.21875 21.78125 47.21875 15.09375 
Q 47.21875 7.46875 41.1875 3.015625 
Q 35.15625 -1.421875 24.609375 -1.421875 
Q 20.21875 -1.421875 15.453125 -0.5625 
Q 10.6875 0.296875 5.421875 2 
L 5.421875 11.28125 
Q 10.40625 8.6875 15.234375 7.390625 
Q 20.0625 6.109375 24.8125 6.109375 
Q 31.15625 6.109375 34.5625 8.28125 
Q 37.984375 10.453125 37.984375 14.40625 
Q 37.984375 18.0625 35.515625 20.015625 
Q 33.0625 21.96875 24.703125 23.78125 
L 21.578125 24.515625 
Q 13.234375 26.265625 9.515625 29.90625 
Q 5.8125 33.546875 5.8125 39.890625 
Q 5.8125 47.609375 11.28125 51.796875 
Q 16.75 56 26.8125 56 
Q 31.78125 56 36.171875 55.265625 
Q 40.578125 54.546875 44.28125 53.078125 
" id="BitstreamVeraSans-Roman-73"/>
      <path d="M 30.609375 48.390625 
Q 23.390625 48.390625 19.1875 42.75 
Q 14.984375 37.109375 14.984375 27.296875 
Q 14.984375 17.484375 19.15625 11.84375 
Q 23.34375 6.203125 30.609375 6.203125 
Q 37.796875 6.203125 41.984375 11.859375 
Q 46.1875 17.53125 46.1875 27.296875 
Q 46.1875 37.015625 41.984375 42.703125 
Q 37.796875 48.390625 30.609375 48.390625 
M 30.609375 56 
Q 42.328125 56 49.015625 48.375 
Q 55.71875 40.765625 55.71875 27.296875 
Q 55.71875 13.875 49.015625 6.21875 
Q 42.328125 -1.421875 30.609375 -1.421875 
Q 18.84375 -1.421875 12.171875 6.21875 
Q 5.515625 13.875 5.515625 27.296875 
Q 5.515625 40.765625 12.171875 48.375 
Q 18.84375 56 30.609375 56 
" id="BitstreamVeraSans-Roman-6f"/>
      <path d="M 9.421875 75.984375 
L 18.40625 75.984375 
L 18.40625 0 
L 9.421875 0 
z
" id="BitstreamVeraSans-Roman-6c"/>
      <path d="M 45.40625 27.984375 
Q 45.40625 37.75 41.375 43.109375 
Q 37.359375 48.484375 30.078125 48.484375 
Q 22.859375 48.484375 18.828125 43.109375 
Q 14.796875 37.75 14.796875 27.984375 
Q 14.796875 18.265625 18.828125 12.890625 
Q 22.859375 7.515625 30.078125 7.515625 
Q 37.359375 7.515625 41.375 12.890625 
Q 45.40625 18.265625 45.40625 27.984375 
M 54.390625 6.78125 
Q 54.390625 -7.171875 48.1875 -13.984375 
Q 42 -20.796875 29.203125 -20.796875 
Q 24.46875 -20.796875 20.265625 -20.09375 
Q 16.0625 -19.390625 12.109375 -17.921875 
L 12.109375 -9.1875 
Q 16.0625 -11.328125 19.921875 -12.34375 
Q 23.78125 -13.375 27.78125 -13.375 
Q 36.625 -13.375 41.015625 -8.765625 
Q 45.40625 -4.15625 45.40625 5.171875 
L 45.40625 9.625 
Q 42.625 4.78125 38.28125 2.390625 
Q 33.9375 0 27.875 0 
Q 17.828125 0 11.671875 7.65625 
Q 5.515625 15.328125 5.515625 27.984375 
Q 5.515625 40.671875 11.671875 48.328125 
Q 17.828125 56 27.875 56 
Q 33.9375 56 38.28125 53.609375 
Q 42.625 51.21875 45.40625 46.390625 
L 45.40625 54.6875 
L 54.390625 54.6875 
z
" id="BitstreamVeraSans-Roman-67"/>
      <path d="M 9.8125 72.90625 
L 19.671875 72.90625 
L 19.671875 8.296875 
L 55.171875 8.296875 
L 55.171875 0 
L 9.8125 0 
z
" id="BitstreamVeraSans-Roman-4c"/>
      <path d="M 34.1875 63.1875 
L 20.796875 26.90625 
L 47.609375 26.90625 
z
M 28.609375 72.90625 
L 39.796875 72.90625 
L 67.578125 0 
L 57.328125 0 
L 50.6875 18.703125 
L 17.828125 18.703125 
L 11.1875 0 
L 0.78125 0 
z
" id="BitstreamVeraSans-Roman-41"/>
      <path id="BitstreamVeraSans-Roman-20"/>
     </defs>
     <g transform="translate(345.8285 337.72125)scale(0.144 -0.144)">
      <use xlink:href="#BitstreamVeraSans-Roman-4c"/>
      <use x="55.697265625" xlink:href="#BitstreamVeraSans-Roman-6f"/>
      <use x="116.87890625" xlink:href="#BitstreamVeraSans-Roman-73"/>
      <use x="168.978515625" xlink:href="#BitstreamVeraSans-Roman-20"/>
      <use x="200.765625" xlink:href="#BitstreamVeraSans-Roman-41"/>
      <use x="269.173828125" xlink:href="#BitstreamVeraSans-Roman-6e"/>
      <use x="332.552734375" xlink:href="#BitstreamVeraSans-Roman-67"/>
      <use x="396.029296875" xlink:href="#BitstreamVeraSans-Roman-65"/>
      <use x="457.552734375" xlink:href="#BitstreamVeraSans-Roman-6c"/>
      <use x="485.3359375" xlink:href="#BitstreamVeraSans-Roman-65"/>
      <use x="546.859375" xlink:href="#BitstreamVeraSans-Roman-73"/>
     </g>
    </g>
    <g id="line2d_73">
     <path d="M 309.8285 353.81775 
L 329.9885 353.81775 
" style="fill:none;stroke:#008000;stroke-linecap:square;"/>
    </g>
    <g id="line2d_74"/>
    <g id="text_18">
     <!-- New York -->
     <defs>
      <path d="M 9.078125 75.984375 
L 18.109375 75.984375 
L 18.109375 31.109375 
L 44.921875 54.6875 
L 56.390625 54.6875 
L 27.390625 29.109375 
L 57.625 0 
L 45.90625 0 
L 18.109375 26.703125 
L 18.109375 0 
L 9.078125 0 
z
" id="BitstreamVeraSans-Roman-6b"/>
      <path d="M -0.203125 72.90625 
L 10.40625 72.90625 
L 30.609375 42.921875 
L 50.6875 72.90625 
L 61.28125 72.90625 
L 35.5 34.71875 
L 35.5 0 
L 25.59375 0 
L 25.59375 34.71875 
z
" id="BitstreamVeraSans-Roman-59"/>
      <path d="M 4.203125 54.6875 
L 13.1875 54.6875 
L 24.421875 12.015625 
L 35.59375 54.6875 
L 46.1875 54.6875 
L 57.421875 12.015625 
L 68.609375 54.6875 
L 77.59375 54.6875 
L 63.28125 0 
L 52.6875 0 
L 40.921875 44.828125 
L 29.109375 0 
L 18.5 0 
z
" id="BitstreamVeraSans-Roman-77"/>
      <path d="M 9.8125 72.90625 
L 23.09375 72.90625 
L 55.421875 11.921875 
L 55.421875 72.90625 
L 64.984375 72.90625 
L 64.984375 0 
L 51.703125 0 
L 19.390625 60.984375 
L 19.390625 0 
L 9.8125 0 
z
" id="BitstreamVeraSans-Roman-4e"/>
      <path d="M 41.109375 46.296875 
Q 39.59375 47.171875 37.8125 47.578125 
Q 36.03125 48 33.890625 48 
Q 26.265625 48 22.1875 43.046875 
Q 18.109375 38.09375 18.109375 28.8125 
L 18.109375 0 
L 9.078125 0 
L 9.078125 54.6875 
L 18.109375 54.6875 
L 18.109375 46.1875 
Q 20.953125 51.171875 25.484375 53.578125 
Q 30.03125 56 36.53125 56 
Q 37.453125 56 38.578125 55.875 
Q 39.703125 55.765625 41.0625 55.515625 
z
" id="BitstreamVeraSans-Roman-72"/>
     </defs>
     <g transform="translate(345.8285 358.85775)scale(0.144 -0.144)">
      <use xlink:href="#BitstreamVeraSans-Roman-4e"/>
      <use x="74.8046875" xlink:href="#BitstreamVeraSans-Roman-65"/>
      <use x="136.328125" xlink:href="#BitstreamVeraSans-Roman-77"/>
      <use x="218.115234375" xlink:href="#BitstreamVeraSans-Roman-20"/>
      <use x="249.90234375" xlink:href="#BitstreamVeraSans-Roman-59"/>
      <use x="310.783203125" xlink:href="#BitstreamVeraSans-Roman-6f"/>
      <use x="371.96484375" xlink:href="#BitstreamVeraSans-Roman-72"/>
      <use x="413.078125" xlink:href="#BitstreamVeraSans-Roman-6b"/>
     </g>
    </g>
   </g>
  </g>
 </g>
 <defs>
  <clipPath id="pc08c378d7a">
   <rect height="356.045625" width="401.36125" x="43.67875" y="18.766875"/>
  </clipPath>
 </defs>
</svg>
