<?xml version="1.0" encoding="utf-8" standalone="no"?>
<!DOCTYPE svg PUBLIC "-//W3C//DTD SVG 1.1//EN"
  "http://www.w3.org/Graphics/SVG/1.1/DTD/svg11.dtd">
<!-- Created with matplotlib (http://matplotlib.org/) -->
<svg height="424pt" version="1.1" viewBox="0 0 556 424" width="556pt" xmlns="http://www.w3.org/2000/svg" xmlns:xlink="http://www.w3.org/1999/xlink">
 <defs>
  <style type="text/css">
*{stroke-linecap:butt;stroke-linejoin:round;stroke-miterlimit:100000;}
  </style>
 </defs>
 <g id="figure_1">
  <g id="patch_1">
   <path d="M 0 424 
L 556 424 
L 556 0 
L 0 0 
z
" style="fill:#ffffff;"/>
  </g>
  <g id="axes_1">
   <g id="patch_2">
    <path d="M 42.285625 365.098447 
L 543.04 365.098447 
L 543.04 28.90175 
L 42.285625 28.90175 
z
" style="fill:#ffffff;"/>
   </g>
   <g id="line2d_1">
    <path clip-path="url(#pf9a960d21c)" d="M 112.924957 184.547496 
L 113.121177 187.618943 
L 113.906059 177.660425 
L 114.102279 177.64724 
L 114.298499 177.012103 
L 114.49472 169.383101 
L 115.279601 165.562553 
L 115.475822 156.162787 
L 115.672042 153.538967 
L 115.868262 161.572078 
L 116.653144 115.832687 
L 117.241805 137.460269 
L 117.830466 105.680314 
L 118.026686 108.251391 
L 118.222907 104.088418 
L 118.419127 109.098661 
L 118.615348 133.902707 
L 119.400229 90.804642 
L 119.596449 88.039603 
L 119.79267 81.98733 
L 119.98889 93.082875 
L 120.577551 90.518508 
L 120.773772 81.149516 
L 120.969992 81.551192 
L 121.166212 86.43082 
L 121.362433 95.11343 
L 121.951094 92.931212 
L 122.147314 96.498226 
L 122.343534 93.788139 
L 122.539755 96.230366 
L 122.735975 92.932361 
L 123.520857 121.200549 
L 123.717077 123.705805 
L 123.913297 132.21447 
L 124.109518 128.421335 
L 124.894399 154.300469 
L 125.09062 151.096427 
L 125.28684 143.742562 
L 125.48306 147.977537 
L 126.071721 165.376915 
L 126.267942 165.07448 
L 126.464162 167.118279 
L 126.660383 173.18491 
L 126.856603 170.885186 
L 127.445264 168.142099 
L 127.641484 177.850291 
L 127.837705 194.201521 
L 128.033925 187.500372 
L 128.230145 191.538425 
L 128.818807 181.227458 
L 129.015027 182.701919 
L 129.211247 182.034903 
L 129.407468 177.440536 
L 129.603688 178.32626 
L 130.192349 176.647232 
L 130.58479 167.221274 
L 130.78101 175.555831 
L 130.977231 175.724004 
L 131.762112 181.789239 
L 131.958332 180.423719 
L 132.154553 181.724575 
L 132.350773 181.537467 
L 132.939434 179.121384 
L 133.135655 182.262594 
L 133.331875 180.374117 
L 133.724316 186.09766 
L 134.312977 203.251549 
L 134.509197 198.963711 
L 134.901638 181.143693 
L 135.686519 153.399871 
L 135.88274 152.873407 
L 136.07896 145.489483 
L 136.27518 149.01581 
L 137.060062 83.183441 
L 137.256282 90.011189 
L 137.452503 91.758292 
L 137.648723 142.22699 
L 138.629825 110.744018 
L 138.826045 116.758764 
L 139.022266 115.921545 
L 139.218486 116.989852 
L 139.807147 113.62552 
L 140.199588 103.715749 
L 140.395808 97.498102 
L 140.592029 110.049531 
L 141.18069 133.262654 
L 141.37691 134.317679 
L 141.769351 127.37131 
L 141.965571 118.154118 
L 142.750453 100.132278 
L 142.946673 110.33753 
L 143.142893 98.584453 
L 143.927775 133.053459 
L 144.123995 132.63691 
L 144.320216 136.117325 
L 144.516436 133.23921 
L 144.712656 160.597773 
L 145.301317 167.716261 
L 145.497538 158.335768 
L 145.693758 171.716318 
L 145.889978 172.972443 
L 146.086199 167.05628 
L 146.67486 162.30582 
L 146.87108 147.818809 
L 147.067301 151.288265 
L 147.263521 144.236766 
L 147.459741 122.153677 
L 148.833284 79.473135 
L 149.618165 111.193795 
L 149.814386 110.514485 
L 150.010606 98.286366 
L 150.206827 106.148852 
L 150.795488 111.985463 
L 150.991708 115.5782 
L 151.187928 108.831623 
L 151.384149 113.960335 
L 151.580369 122.094413 
L 152.16903 135.112485 
L 152.561471 119.166755 
L 152.953912 115.518609 
L 153.542573 116.4396 
L 153.738793 113.598685 
L 154.131234 140.19142 
L 154.327454 141.603783 
L 154.916115 148.221054 
L 155.112336 165.088829 
L 155.308556 156.812318 
L 155.504776 188.604976 
L 155.700997 185.025768 
L 156.289658 197.314604 
L 156.485878 164.254503 
L 156.682099 193.215704 
L 156.878319 172.533285 
L 157.074539 173.070666 
L 157.6632 152.678947 
L 157.859421 159.549189 
L 158.055641 158.374192 
L 158.251862 181.583271 
L 158.448082 180.587878 
L 159.036743 189.979326 
L 159.232963 164.683409 
L 159.429184 160.638675 
L 159.625404 160.900354 
L 159.821624 150.526592 
L 160.410286 174.98162 
L 160.802726 171.726541 
L 161.195167 181.27211 
L 161.980048 195.022982 
L 162.176269 183.679609 
L 162.56871 213.112288 
L 163.157371 216.644885 
L 163.549811 202.332235 
L 163.746032 201.986043 
L 163.942252 195.68848 
L 164.530913 208.223358 
L 164.727134 209.795728 
L 165.119574 238.840555 
L 165.904456 226.27334 
L 166.100676 224.747584 
L 166.296897 231.035239 
L 166.493117 227.964553 
L 166.689337 257.774859 
L 167.277998 275.678238 
L 167.474219 269.777228 
L 167.866659 251.740325 
L 168.06288 259.867046 
L 168.651541 259.386869 
L 169.043982 248.449427 
L 169.240202 248.054669 
L 169.436422 223.351518 
L 170.025084 239.14467 
L 170.221304 234.573029 
L 170.417524 254.622232 
L 170.613745 257.924241 
L 171.398626 232.294517 
L 171.594846 246.818869 
L 171.791067 249.788527 
L 171.987287 231.686892 
L 172.183508 236.282744 
L 172.772169 257.245863 
L 172.968389 269.727255 
L 173.164609 267.151354 
L 173.36083 254.415845 
L 173.55705 254.264477 
L 174.145711 241.806663 
L 174.341932 235.290974 
L 174.538152 255.339369 
L 174.734372 254.940552 
L 174.930593 238.709146 
L 175.519254 257.690064 
L 175.715474 252.900112 
L 176.107915 271.181051 
L 176.304135 262.517818 
L 176.892796 278.334144 
L 177.089017 275.222298 
L 177.285237 287.273909 
L 177.677678 284.787363 
L 178.266339 285.039956 
L 178.462559 288.765039 
L 178.65878 270.087273 
L 178.855 268.547131 
L 179.05122 266.070768 
L 179.639881 266.733585 
L 179.836102 268.875582 
L 180.032322 266.771583 
L 180.228543 277.373567 
L 180.424763 271.08164 
L 181.013424 274.567183 
L 181.405865 290.414436 
L 181.798305 295.17913 
L 182.386967 295.917272 
L 182.583187 281.064707 
L 182.779407 282.09771 
L 183.171848 274.127225 
L 183.95673 273.879262 
L 184.15295 280.250118 
L 184.545391 283.225118 
L 185.330272 268.520889 
L 185.722713 272.662651 
L 185.918933 272.637667 
L 186.507594 286.59221 
L 186.703815 280.665547 
L 186.900035 280.185112 
L 187.096255 278.562349 
L 187.292476 280.517017 
L 188.077357 260.523752 
L 188.273578 252.30736 
L 188.666018 261.37114 
L 189.254679 251.316417 
L 189.4509 254.368198 
L 189.64712 238.178846 
L 189.843341 241.253434 
L 190.039561 247.994815 
L 190.628222 251.208655 
L 190.824442 248.157946 
L 191.020663 248.116221 
L 191.413103 252.132039 
L 192.001765 250.984725 
L 192.197985 249.175956 
L 192.590426 242.507288 
L 192.786646 242.670823 
L 193.375307 229.752565 
L 193.571527 229.915491 
L 193.767748 238.385464 
L 193.963968 236.038102 
L 194.160189 220.710492 
L 194.94507 220.357451 
L 195.337511 224.180427 
L 195.533731 212.626713 
L 196.122392 218.346477 
L 196.318613 211.206808 
L 196.514833 213.017538 
L 196.711053 202.587888 
L 196.907274 205.396983 
L 197.495935 206.950436 
L 197.692155 214.628879 
L 197.888376 211.988914 
L 198.280816 191.203065 
L 198.869477 183.233967 
L 199.065698 169.586551 
L 199.261918 164.285987 
L 199.458138 173.998011 
L 199.654359 171.141741 
L 200.24302 172.269765 
L 200.43924 170.790973 
L 200.831681 178.035385 
L 201.027901 182.634201 
L 201.812783 174.585947 
L 202.009003 176.678496 
L 202.205224 180.219835 
L 202.401444 181.590726 
L 203.186325 171.427906 
L 203.382546 179.79233 
L 203.578766 173.022071 
L 204.363648 164.379758 
L 204.559868 175.22895 
L 204.756088 172.799914 
L 204.952309 164.422786 
L 205.148529 181.33408 
L 205.73719 208.22323 
L 205.933411 191.93655 
L 206.129631 192.897972 
L 206.325851 204.477303 
L 207.306953 224.095046 
L 207.503173 197.981265 
L 207.699394 197.74722 
L 207.895614 183.804099 
L 208.484275 182.688943 
L 208.680496 182.578244 
L 208.876716 184.231192 
L 209.072936 193.689757 
L 209.269157 210.05897 
L 209.857818 193.803168 
L 210.250259 199.464753 
L 210.446479 188.697165 
L 210.642699 197.37579 
L 211.23136 204.622321 
L 211.820022 224.757454 
L 212.016242 227.861752 
L 212.604903 217.833707 
L 212.801123 220.057846 
L 212.997344 215.352357 
L 213.193564 218.571092 
L 213.389784 231.449961 
L 214.174666 211.991284 
L 214.370886 215.457105 
L 214.567107 209.640809 
L 214.763327 223.034645 
L 215.351988 208.942227 
L 215.548209 208.812732 
L 215.744429 196.430359 
L 215.940649 196.942891 
L 216.13687 202.165131 
L 216.725531 198.153371 
L 216.921751 192.409346 
L 217.117971 196.40571 
L 217.314192 191.832348 
L 217.510412 199.815673 
L 218.295294 181.942676 
L 218.491514 182.37976 
L 218.687734 201.211249 
L 218.883955 201.05126 
L 219.472616 232.331056 
L 219.865057 227.119395 
L 220.061277 230.939191 
L 220.257497 215.155418 
L 220.846158 213.087319 
L 221.43482 194.093746 
L 222.219701 200.989812 
L 222.415921 207.242963 
L 222.612142 207.055805 
L 222.808362 213.565954 
L 223.004582 212.798498 
L 223.593244 228.061987 
L 223.789464 226.759603 
L 223.985684 226.55309 
L 224.181905 219.451039 
L 224.378125 231.438823 
L 224.966786 223.574879 
L 225.163006 230.639914 
L 225.359227 242.937228 
L 225.555447 235.874018 
L 225.751668 203.818527 
L 226.536549 174.450258 
L 226.732769 177.864181 
L 226.92899 144.839014 
L 227.12521 167.318841 
L 227.910092 159.650515 
L 228.106312 159.335469 
L 228.302532 168.093477 
L 228.498753 160.716053 
L 229.087414 116.710984 
L 229.283634 114.054335 
L 229.479855 114.901881 
L 229.676075 108.951401 
L 229.872295 131.449346 
L 230.460956 133.89012 
L 230.657177 138.272165 
L 230.853397 132.619107 
L 231.049617 152.050293 
L 231.245838 152.204804 
L 231.834499 129.850028 
L 232.030719 130.271895 
L 232.22694 132.488575 
L 232.42316 139.719815 
L 232.61938 133.758973 
L 233.404262 119.270685 
L 233.600482 122.114836 
L 233.796703 112.662422 
L 233.992923 111.389495 
L 234.581584 148.294061 
L 234.777804 146.676744 
L 234.974025 141.306125 
L 235.955127 88.424165 
L 236.347567 87.447683 
L 236.543788 99.532511 
L 236.740008 102.773077 
L 237.328669 80.212103 
L 237.72111 99.513824 
L 237.91733 69.97953 
L 238.113551 88.842356 
L 238.702212 106.456973 
L 238.898432 104.27947 
L 239.094652 96.200308 
L 239.487093 133.707915 
L 240.271975 169.795879 
L 240.468195 170.74905 
L 240.664415 164.835511 
L 240.860636 171.06837 
L 241.841738 134.655097 
L 242.037958 157.707273 
L 242.234178 157.143844 
L 242.822839 170.65361 
L 243.01906 182.065819 
L 243.21528 182.642893 
L 243.411501 173.880886 
L 243.607721 158.394712 
L 244.588823 173.727663 
L 244.785043 172.907182 
L 244.981263 189.927773 
L 245.766145 165.802148 
L 245.962365 183.943351 
L 246.158586 189.795136 
L 246.354806 191.41858 
L 246.943467 169.526328 
L 247.139687 169.868695 
L 247.335908 177.494349 
L 247.532128 170.053349 
L 247.728349 170.283374 
L 248.31701 124.255343 
L 248.51323 125.019981 
L 248.70945 122.827313 
L 249.886773 158.259392 
L 250.082993 157.012136 
L 250.279213 153.36079 
L 250.475434 152.089774 
L 251.064095 152.404012 
L 251.260315 156.369544 
L 251.456536 170.537963 
L 251.652756 157.481269 
L 251.848976 153.967153 
L 252.437637 147.808817 
L 252.633858 139.677176 
L 252.830078 140.159365 
L 253.026298 141.274316 
L 253.222519 168.39917 
L 253.81118 167.792702 
L 254.0074 154.333562 
L 254.203621 159.919613 
L 254.399841 159.479565 
L 254.596061 164.550647 
L 255.184723 161.646913 
L 255.577163 168.601587 
L 255.773384 167.466934 
L 255.969604 186.956688 
L 256.558265 169.727038 
L 256.950706 152.049241 
L 257.146926 155.888605 
L 257.343147 168.393377 
L 257.931808 167.803629 
L 258.128028 168.842966 
L 258.324248 168.53041 
L 258.520469 163.743819 
L 258.716689 173.633275 
L 259.30535 187.226293 
L 259.501571 195.191638 
L 259.697791 188.359339 
L 259.894011 190.759425 
L 260.090232 187.267991 
L 260.875113 206.375774 
L 261.071334 205.055802 
L 261.267554 228.670572 
L 261.463774 232.499017 
L 262.052435 237.742934 
L 262.248656 235.468944 
L 262.444876 234.915429 
L 262.641096 237.392652 
L 262.837317 237.616589 
L 263.425978 254.282492 
L 263.622198 243.097077 
L 263.818419 243.929555 
L 264.014639 249.242871 
L 264.210859 244.319784 
L 264.79952 238.941412 
L 264.995741 242.866734 
L 265.191961 238.687598 
L 265.388182 239.290021 
L 265.584402 250.683695 
L 266.369283 251.114392 
L 266.761724 267.26545 
L 267.546606 276.149246 
L 267.939046 269.976929 
L 268.135267 263.981875 
L 268.331487 261.613998 
L 268.920148 274.745046 
L 269.116369 266.825656 
L 269.312589 269.59756 
L 269.508809 267.750508 
L 269.70503 278.72183 
L 270.293691 284.23144 
L 270.489911 288.020401 
L 270.686131 288.640595 
L 270.882352 295.434853 
L 271.078572 294.128101 
L 271.667233 288.632236 
L 271.863454 291.650805 
L 272.059674 289.876358 
L 272.255894 299.765029 
L 272.452115 294.382534 
L 273.236996 289.592456 
L 273.433217 290.991839 
L 273.629437 300.775339 
L 274.414318 307.459138 
L 274.610539 304.959384 
L 274.806759 308.827237 
L 275.00298 308.02924 
L 275.1992 303.319725 
L 275.984081 291.648032 
L 276.376522 273.530667 
L 276.572742 288.05467 
L 277.161404 286.744007 
L 277.357624 280.248658 
L 277.553844 295.15447 
L 277.750065 296.627952 
L 277.946285 291.5572 
L 278.534946 314.194332 
L 278.731166 308.348505 
L 278.927387 309.123907 
L 279.123607 296.987035 
L 279.319828 299.638087 
L 280.104709 272.643176 
L 280.300929 278.735091 
L 280.49715 276.438429 
L 280.69337 267.021855 
L 281.870692 251.65416 
L 282.066913 243.237467 
L 282.655574 222.827556 
L 282.851794 224.477217 
L 283.048015 231.446195 
L 283.244235 250.932192 
L 283.440455 244.755894 
L 284.225337 240.095725 
L 284.813998 250.04461 
L 285.598879 232.603778 
L 285.99132 233.131937 
L 286.18754 239.573329 
L 287.168642 261.866111 
L 287.364863 254.569259 
L 287.561083 253.118293 
L 288.149744 258.133833 
L 288.542185 267.085188 
L 288.738405 264.886038 
L 288.934626 274.696285 
L 289.719507 261.733415 
L 289.915727 269.802237 
L 290.111948 270.600001 
L 290.308168 274.252684 
L 290.896829 295.795972 
L 291.28927 291.258118 
L 291.681711 301.642013 
L 292.270372 290.747929 
L 292.466592 289.76982 
L 292.662812 289.410676 
L 293.055253 284.010058 
L 293.643914 285.174184 
L 293.840135 280.263368 
L 294.036355 279.310654 
L 294.232575 269.162115 
L 294.428796 272.277437 
L 295.409898 265.946235 
L 295.802338 255.433668 
L 296.58722 266.546215 
L 296.78344 260.580965 
L 297.175881 261.452226 
L 297.764542 264.345516 
L 297.960762 262.779841 
L 298.156983 263.494807 
L 298.353203 260.822638 
L 298.549423 260.41797 
L 299.138085 260.356082 
L 299.334305 263.422766 
L 299.530525 262.013111 
L 299.922966 267.774603 
L 300.511627 272.874204 
L 300.707848 265.243691 
L 300.904068 264.51355 
L 301.100288 273.867819 
L 301.296509 269.79346 
L 302.08139 272.551088 
L 302.27761 275.250247 
L 302.473831 273.956419 
L 302.670051 273.859032 
L 303.258712 267.959022 
L 303.454933 280.196012 
L 303.651153 279.245474 
L 303.847373 279.312604 
L 304.043594 286.880624 
L 304.828475 293.260824 
L 305.220916 280.165024 
L 305.417136 279.599646 
L 306.005797 289.96383 
L 306.202018 290.212196 
L 306.398238 297.629067 
L 306.594459 296.829243 
L 306.790679 299.429025 
L 307.37934 298.571411 
L 307.57556 295.054879 
L 308.164221 273.421355 
L 308.752883 264.211332 
L 308.949103 264.938119 
L 309.145323 268.824566 
L 309.341544 263.29671 
L 309.537764 267.484664 
L 310.126425 274.527348 
L 310.322645 266.684534 
L 310.518866 266.115688 
L 310.715086 267.452133 
L 310.911307 259.63092 
L 311.499968 258.754898 
L 311.696188 266.058243 
L 311.892408 264.777613 
L 312.088629 259.7434 
L 312.284849 263.995698 
L 312.87351 246.067848 
L 313.069731 246.091208 
L 313.265951 240.912881 
L 313.462171 245.35275 
L 313.658392 228.011712 
L 314.443273 215.680207 
L 314.639494 217.854705 
L 315.031934 205.9923 
L 315.620595 194.974864 
L 315.816816 197.856341 
L 316.013036 197.960493 
L 316.405477 205.711694 
L 316.994138 174.695626 
L 317.190358 175.526575 
L 317.386579 177.902987 
L 317.582799 188.125192 
L 317.779019 178.749033 
L 318.36768 168.226232 
L 318.563901 170.507057 
L 318.760121 166.848517 
L 318.956342 183.637268 
L 319.152562 181.942608 
L 319.741223 193.592829 
L 319.937443 195.236199 
L 320.329884 202.462613 
L 320.526105 195.83825 
L 321.114766 201.365938 
L 321.310986 197.260855 
L 321.899647 178.950813 
L 322.684529 163.665151 
L 322.880749 163.835384 
L 323.076969 163.113398 
L 323.27319 170.457919 
L 323.861851 155.612009 
L 324.058071 155.283485 
L 324.254291 159.858779 
L 324.646732 184.373009 
L 325.235393 170.567595 
L 325.431614 172.240459 
L 325.627834 167.665224 
L 325.824054 169.66503 
L 326.020275 164.426189 
L 326.608936 142.979413 
L 326.805156 144.089287 
L 327.197597 159.237139 
L 327.393817 160.301693 
L 327.982478 169.995095 
L 328.178699 166.105744 
L 328.76736 176.986002 
L 329.356021 181.59621 
L 329.748462 178.618673 
L 329.944682 174.270326 
L 330.140902 166.838336 
L 330.729564 178.285973 
L 331.122004 164.681134 
L 331.318225 164.817786 
L 331.514445 171.950672 
L 332.495547 140.871051 
L 332.691767 145.446097 
L 332.887988 164.613491 
L 333.476649 165.004993 
L 333.869089 181.942264 
L 334.06531 162.217445 
L 334.26153 189.703662 
L 334.850191 204.788988 
L 335.046412 200.433216 
L 335.242632 200.662879 
L 335.438852 193.498926 
L 335.635073 180.312873 
L 336.223734 175.731559 
L 336.419954 169.174527 
L 336.616175 171.975103 
L 336.812395 164.276177 
L 337.008615 166.553726 
L 337.793497 153.750042 
L 337.989717 160.536707 
L 338.185938 152.508714 
L 338.382158 158.831716 
L 338.970819 153.450463 
L 339.36326 159.059637 
L 339.55948 151.153478 
L 339.7557 161.35976 
L 340.344362 165.384401 
L 340.540582 157.832895 
L 340.736802 156.44647 
L 340.933023 158.546424 
L 341.129243 156.213399 
L 341.717904 160.332271 
L 341.914124 160.741351 
L 342.110345 158.368527 
L 342.306565 166.577206 
L 342.502786 165.174055 
L 343.091447 168.950815 
L 343.287667 163.258947 
L 343.483887 167.610394 
L 343.680108 165.568064 
L 343.876328 171.931607 
L 344.66121 164.61916 
L 344.85743 172.344223 
L 345.05365 162.198564 
L 345.249871 165.255875 
L 346.230973 144.403364 
L 346.623413 169.76275 
L 347.212074 185.253903 
L 347.408295 181.57452 
L 347.604515 174.401124 
L 347.800735 173.377455 
L 347.996956 188.022654 
L 348.585617 158.972192 
L 348.781837 160.558583 
L 348.978058 154.241801 
L 349.174278 157.895596 
L 349.959159 162.689662 
L 350.15538 160.316581 
L 350.3516 166.734365 
L 350.547821 152.870255 
L 350.744041 171.91945 
L 351.332702 173.741972 
L 351.725143 170.3002 
L 352.117584 172.860143 
L 352.706245 168.783926 
L 352.902465 175.599482 
L 353.098685 175.381178 
L 353.294906 179.439466 
L 353.491126 177.92516 
L 354.079787 163.839293 
L 354.276008 163.066095 
L 354.472228 164.422109 
L 354.668448 171.869754 
L 354.864669 168.737006 
L 355.45333 161.92773 
L 355.64955 163.151868 
L 355.84577 157.921317 
L 356.041991 155.947099 
L 356.238211 152.045591 
L 357.023093 143.833369 
L 357.219313 146.273947 
L 357.415533 142.110214 
L 357.611754 141.79846 
L 358.200415 143.584684 
L 358.592856 137.680859 
L 358.985296 120.195283 
L 359.573957 115.41758 
L 359.770178 112.678037 
L 359.966398 114.136595 
L 360.162619 130.912946 
L 360.358839 137.055076 
L 360.9475 108.22291 
L 361.14372 108.175108 
L 361.536161 92.522555 
L 361.732381 98.664412 
L 362.321043 100.071802 
L 362.517263 105.716657 
L 362.713483 103.306542 
L 362.909704 112.019629 
L 363.105924 110.928027 
L 363.694585 109.568116 
L 363.890805 103.308711 
L 364.087026 102.315696 
L 364.283246 97.565759 
L 365.264348 122.322202 
L 365.460568 119.232205 
L 365.656789 125.616683 
L 365.853009 121.018567 
L 366.44167 116.239517 
L 366.637891 118.919278 
L 366.834111 117.878039 
L 367.030331 130.115337 
L 367.226552 117.342817 
L 367.815213 134.140227 
L 368.207654 121.913284 
L 368.403874 122.354656 
L 368.600094 132.325229 
L 369.384976 143.63958 
L 369.581196 141.558306 
L 369.777416 158.185682 
L 369.973637 156.171575 
L 370.562298 153.110518 
L 370.758518 158.170981 
L 370.954739 157.975057 
L 371.347179 169.558735 
L 371.935841 161.434958 
L 372.132061 161.454308 
L 372.524502 153.532185 
L 372.720722 150.344175 
L 373.309383 146.871412 
L 373.505603 144.049093 
L 373.701824 143.109081 
L 373.898044 145.393052 
L 374.094265 129.547123 
L 375.075366 117.758091 
L 375.271587 120.331497 
L 375.467807 128.67782 
L 376.252689 137.197498 
L 376.645129 156.954488 
L 376.84135 153.609824 
L 377.430011 146.768083 
L 377.626231 152.49552 
L 377.822452 143.442088 
L 378.018672 139.540996 
L 378.803553 158.050524 
L 379.195994 154.297647 
L 379.392214 157.094749 
L 380.177096 160.712708 
L 380.569537 156.456081 
L 380.765757 166.27117 
L 380.961977 167.070616 
L 381.550638 167.790258 
L 381.746859 166.014137 
L 381.943079 174.144424 
L 382.1393 168.073732 
L 382.33552 157.72042 
L 382.924181 172.059268 
L 383.120401 180.746863 
L 383.316622 170.015543 
L 383.709062 184.879659 
L 384.297724 206.672299 
L 384.493944 207.501776 
L 384.690164 210.753241 
L 384.886385 221.483724 
L 385.082605 217.970756 
L 385.671266 219.922402 
L 385.867487 205.563343 
L 386.063707 208.000749 
L 386.259927 202.104247 
L 386.456148 202.843617 
L 387.044809 199.429141 
L 387.241029 188.661324 
L 387.437249 188.746641 
L 387.63347 188.318561 
L 387.82969 181.215019 
L 388.418351 172.142451 
L 388.614572 176.298401 
L 388.810792 176.648735 
L 389.007012 177.314152 
L 389.203233 172.942706 
L 389.791894 182.211127 
L 390.380555 170.544681 
L 390.576775 164.685199 
L 391.165436 169.728859 
L 391.361657 164.370839 
L 391.557877 166.436171 
L 391.754098 164.23708 
L 391.950318 165.246847 
L 392.735199 175.695138 
L 392.93142 171.594224 
L 393.32386 168.787842 
L 393.912522 179.37375 
L 394.108742 178.760945 
L 394.304962 176.076954 
L 394.501183 180.165329 
L 394.697403 180.618009 
L 395.286064 181.320916 
L 395.482284 177.281786 
L 395.678505 188.282408 
L 395.874725 191.82107 
L 396.070946 199.924491 
L 396.855827 220.415925 
L 397.052047 208.770258 
L 397.248268 204.845589 
L 397.444488 204.352816 
L 398.033149 202.379883 
L 398.22937 204.535917 
L 398.42559 205.018546 
L 398.818031 200.372419 
L 399.406692 189.258679 
L 399.799133 200.797854 
L 400.191573 202.877591 
L 400.976455 219.894833 
L 401.172675 212.470621 
L 401.368895 195.903001 
L 401.565116 207.103186 
L 402.153777 217.557468 
L 402.349997 215.884046 
L 402.546218 218.678438 
L 402.742438 227.999971 
L 402.938658 226.528357 
L 403.91976 201.533173 
L 404.115981 188.350153 
L 404.900862 167.931794 
L 405.097082 179.600233 
L 405.293303 171.570457 
L 405.489523 149.378912 
L 406.274405 161.439339 
L 406.470625 157.180512 
L 406.666845 156.975549 
L 406.863066 152.435536 
L 407.059286 163.898004 
L 407.647947 169.472765 
L 408.432829 145.674594 
L 409.41393 131.712422 
L 409.610151 133.373603 
L 409.806371 123.992187 
L 410.395032 121.966639 
L 410.591253 122.692999 
L 410.787473 127.469704 
L 410.983693 122.305376 
L 411.179914 136.816128 
L 411.768575 131.806816 
L 411.964795 132.94198 
L 412.553456 146.341062 
L 413.142117 137.472694 
L 413.534558 157.797294 
L 413.730779 152.681054 
L 413.926999 163.164957 
L 414.908101 134.193992 
L 415.104321 138.256548 
L 415.300541 139.472594 
L 415.889203 130.069708 
L 416.085423 132.757387 
L 416.281643 145.128186 
L 416.477864 148.137291 
L 416.674084 156.30152 
L 417.262745 130.730003 
L 417.458966 139.38562 
L 417.655186 140.518375 
L 417.851406 131.519327 
L 418.636288 114.706039 
L 418.832508 117.648223 
L 419.028728 115.500508 
L 419.224949 119.243862 
L 419.421169 116.322717 
L 420.00983 127.709626 
L 420.402271 122.72863 
L 420.598491 129.237092 
L 420.794712 140.414075 
L 421.383373 130.876163 
L 421.579593 131.233338 
L 421.775814 124.904085 
L 421.972034 126.985205 
L 422.168254 117.67641 
L 422.756915 121.118444 
L 423.149356 130.099564 
L 423.345577 144.923704 
L 423.541797 125.903796 
L 424.130458 121.080656 
L 424.326678 129.39517 
L 424.522899 132.45751 
L 424.719119 140.561823 
L 424.915339 131.12656 
L 425.504001 132.20686 
L 425.700221 135.071545 
L 425.896441 135.410543 
L 426.092662 128.107374 
L 426.288882 128.356764 
L 426.877543 138.072256 
L 427.073763 139.377557 
L 427.269984 139.18644 
L 427.466204 134.968648 
L 427.662425 139.327224 
L 428.447306 150.234897 
L 428.643526 142.117574 
L 428.839747 144.397674 
L 429.035967 151.306654 
L 429.624628 162.63641 
L 429.820849 162.237124 
L 430.017069 159.927585 
L 430.40951 171.048086 
L 430.998171 162.640068 
L 431.194391 163.763538 
L 431.390612 156.004931 
L 431.586832 156.7613 
L 431.783052 161.711609 
L 432.371713 165.502649 
L 432.567934 163.008466 
L 432.764154 163.598756 
L 432.960374 157.120794 
L 433.156595 156.810864 
L 433.745256 157.75195 
L 433.941476 157.150656 
L 434.137697 157.747955 
L 435.118798 190.523168 
L 435.511239 183.998011 
L 435.70746 185.013146 
L 436.492341 185.771834 
L 436.688561 185.729641 
L 437.081002 207.864511 
L 437.277223 192.906521 
L 438.258324 177.536604 
L 438.454545 169.538712 
L 438.650765 171.015419 
L 439.239426 163.090789 
L 439.435647 166.251431 
L 439.631867 178.762099 
L 439.828087 183.763879 
L 440.024308 176.764775 
L 441.005409 158.635805 
L 441.20163 160.893199 
L 441.39785 156.618386 
L 441.986511 164.736344 
L 442.182732 173.265463 
L 442.378952 169.683476 
L 442.575172 179.662612 
L 442.771393 179.787982 
L 443.360054 178.042527 
L 443.556274 192.908164 
L 443.752495 189.899237 
L 443.948715 196.401718 
L 444.144935 196.763578 
L 444.733596 194.845389 
L 444.929817 197.613704 
L 445.126037 203.07936 
L 445.322258 217.95778 
L 445.518478 242.470254 
L 446.107139 263.142904 
L 446.303359 262.858713 
L 446.6958 223.366697 
L 446.89202 224.697102 
L 447.480682 221.667758 
L 447.676902 241.875225 
L 447.873122 227.08284 
L 448.265563 231.151423 
L 449.050445 222.18633 
L 449.246665 229.574051 
L 449.639106 218.457424 
L 450.227767 222.0634 
L 450.423987 217.751096 
L 450.620207 215.965142 
L 450.816428 212.863447 
L 451.012648 220.59242 
L 451.601309 211.786018 
L 451.79753 221.118815 
L 451.99375 221.17883 
L 452.18997 217.66909 
L 452.386191 222.571087 
L 452.974852 233.658167 
L 453.171072 240.439276 
L 453.367293 230.478454 
L 453.563513 232.743328 
L 453.759733 217.740146 
L 454.348394 209.222741 
L 454.544615 211.106985 
L 455.133276 195.144152 
L 455.721937 191.510944 
L 456.114378 199.114975 
L 456.310598 196.356974 
L 456.506818 210.822018 
L 457.2917 210.575241 
L 457.48792 213.527214 
L 457.880361 200.538735 
L 458.665242 219.081522 
L 458.861463 207.674776 
L 459.057683 207.929741 
L 459.253904 207.537973 
L 459.842565 202.079807 
L 460.038785 198.571573 
L 460.235005 197.922079 
L 460.627446 202.090129 
L 461.412328 220.926306 
L 461.608548 220.19239 
L 461.804768 225.632216 
L 462.000989 240.941334 
L 462.58965 239.397442 
L 462.78587 240.698169 
L 462.982091 228.562806 
L 463.178311 231.664539 
L 463.374531 228.336771 
L 463.963192 234.80208 
L 464.159413 234.062157 
L 464.355633 234.838201 
L 464.748074 225.551748 
L 465.336735 227.678135 
L 465.532955 225.530598 
L 465.729176 230.820655 
L 465.925396 231.232166 
L 466.121616 223.16319 
L 466.710277 209.352516 
L 466.906498 209.824917 
L 467.102718 217.042838 
L 467.298939 208.12537 
L 467.495159 218.176129 
L 468.08382 238.18612 
L 468.28004 237.141172 
L 468.476261 229.305063 
L 468.868702 249.173434 
L 469.457363 251.278154 
L 469.653583 249.355759 
L 469.849803 243.955653 
L 470.046024 244.921188 
L 470.830905 233.399165 
L 471.027126 224.519064 
L 471.223346 229.677688 
L 471.419566 224.374825 
L 472.596888 260.644893 
L 472.793109 269.320623 
L 472.989329 272.637078 
L 473.774211 256.408092 
L 473.970431 273.095551 
L 474.166651 261.394128 
L 474.362872 281.627622 
L 475.343974 295.229963 
L 475.540194 294.876275 
L 475.736414 267.746498 
L 476.325075 293.556897 
L 476.521296 289.170619 
L 476.717516 307.166026 
L 476.913737 303.448357 
L 477.109957 303.093034 
L 477.698618 309.072977 
L 477.894838 320.566142 
L 478.091059 318.742174 
L 478.287279 315.740465 
L 478.483499 333.450022 
L 479.072161 349.441343 
L 479.268381 351.572558 
L 479.464601 351.007879 
L 479.660822 353.593688 
L 479.857042 348.090393 
L 480.641923 344.28381 
L 480.838144 336.568837 
L 481.034364 346.377022 
L 481.230585 344.528622 
L 481.819246 331.252558 
L 482.015466 339.111356 
L 482.407907 337.206967 
L 482.604127 336.546026 
L 483.192788 329.695283 
L 483.389009 313.415285 
L 483.781449 310.720828 
L 483.97767 298.11859 
L 484.566331 298.365786 
L 484.762551 304.89042 
L 484.958772 305.882054 
L 485.154992 312.136854 
L 485.351212 307.279035 
L 485.939873 310.094154 
L 486.332314 304.64832 
L 486.528534 305.986147 
L 486.724755 303.464444 
L 487.509636 290.845359 
L 487.705857 291.914256 
L 487.902077 298.087242 
L 488.686959 295.283738 
L 489.079399 281.369328 
L 489.27562 287.945393 
L 489.47184 281.923721 
L 490.060501 286.291094 
L 490.256721 292.201052 
L 490.452942 284.596254 
L 490.649162 292.192332 
L 490.845383 291.856346 
L 491.434044 285.068452 
L 491.826484 271.114862 
L 492.022705 278.822477 
L 492.218925 281.643218 
L 492.807586 298.805318 
L 493.003807 300.357125 
L 493.200027 297.347677 
L 493.396247 301.15072 
L 493.592468 300.995912 
L 494.181129 299.454165 
L 494.377349 301.224524 
L 494.76979 320.433194 
L 494.96601 308.559601 
L 495.554671 311.011633 
L 495.947112 318.220341 
L 496.143332 319.054065 
L 496.339553 315.194719 
L 496.928214 320.931075 
L 497.124434 313.62889 
L 497.320655 315.739032 
L 497.516875 321.581 
L 497.713095 323.140405 
L 498.301756 320.430046 
L 498.497977 324.337666 
L 498.694197 322.29201 
L 498.890418 324.172647 
L 499.086638 313.999022 
L 499.675299 314.08877 
L 500.06774 302.618737 
L 500.26396 301.568101 
L 500.46018 301.793675 
L 501.245062 298.555366 
L 501.441282 301.236279 
L 501.637503 297.451296 
L 501.833723 297.257648 
L 502.422384 297.120549 
L 502.618605 297.337377 
L 502.814825 296.278743 
L 503.011045 294.5683 
L 503.207266 302.470504 
L 503.795927 308.04016 
L 503.992147 308.300062 
L 504.188367 309.521171 
L 504.384588 311.461412 
L 504.580808 317.320674 
L 505.36569 307.654349 
L 505.56191 309.314866 
L 505.75813 292.994763 
L 505.954351 314.281904 
L 506.543012 323.499706 
L 506.935453 308.678717 
L 507.327893 299.70247 
L 508.112775 300.705204 
L 508.308995 298.271327 
L 508.505216 305.105042 
L 508.701436 301.623194 
L 509.290097 309.227737 
L 509.486317 305.731207 
L 509.682538 307.958668 
L 509.878758 307.502998 
L 510.074978 306.601423 
L 510.66364 295.702325 
L 510.85986 296.517063 
L 511.05608 294.837897 
L 511.252301 294.29679 
L 511.448521 298.66905 
L 512.037182 303.145355 
L 512.233402 303.592186 
L 512.822064 273.953652 
L 513.410725 268.1463 
L 513.606945 272.868653 
L 513.803165 270.970009 
L 513.999386 279.072398 
L 514.195606 261.155942 
L 514.784267 262.582687 
L 514.980488 261.445615 
L 515.176708 263.645519 
L 515.372928 264.127377 
L 515.569149 262.177806 
L 516.15781 219.668524 
L 516.35403 221.443316 
L 516.550251 221.108654 
L 516.746471 199.323086 
L 516.942691 201.866691 
L 517.531352 244.686642 
L 517.727573 243.286998 
L 517.923793 247.519824 
L 518.120013 243.866543 
L 518.316234 222.724897 
L 518.904895 225.143975 
L 519.101115 227.771945 
L 519.297336 227.999553 
L 519.493556 225.814272 
L 519.689776 239.12142 
L 520.474658 238.887132 
L 520.670878 238.317981 
L 520.867099 241.581969 
L 521.063319 257.476584 
L 521.65198 243.174342 
L 521.8482 244.329394 
L 522.436862 223.77568 
L 523.025523 222.558831 
L 523.221743 220.446776 
L 523.417963 216.130204 
L 523.614184 193.811368 
L 523.810404 190.985344 
L 524.399065 211.856153 
L 524.791506 204.030995 
L 524.987726 217.547838 
L 525.183947 211.29899 
L 525.772608 221.841714 
L 525.968828 222.382404 
L 526.165048 218.631402 
L 526.361269 219.541214 
L 526.557489 216.767991 
L 527.14615 217.923265 
L 527.342371 224.036091 
L 527.538591 221.819734 
L 527.734811 225.788407 
L 527.931032 225.731449 
L 528.519693 247.533057 
L 528.715913 245.286744 
L 528.912134 245.459009 
L 529.304574 239.387489 
L 529.893235 244.234505 
L 530.089456 243.801353 
L 530.481897 257.680974 
L 530.678117 270.423147 
L 531.266778 270.467611 
L 531.659219 280.467951 
L 531.855439 281.529165 
L 532.051659 281.036019 
L 532.640321 253.118236 
L 533.032761 248.690125 
L 533.228982 262.519045 
L 533.425202 261.31429 
L 534.013863 284.782328 
L 534.406304 274.766448 
L 534.602524 270.801014 
L 534.798745 271.889023 
L 535.387406 263.395405 
L 535.583626 262.226585 
L 535.779846 263.754438 
L 536.172287 262.604808 
L 536.957169 266.009685 
L 537.153389 269.350331 
L 537.54583 266.975815 
L 538.134491 242.984152 
L 538.330711 240.836307 
L 538.526932 235.161835 
L 538.723152 234.793756 
L 539.508033 222.5731 
L 539.704254 215.917643 
L 540.096695 221.078312 
L 540.292915 225.117181 
L 540.881576 227.861583 
L 541.077796 224.627973 
L 541.470237 226.604319 
L 541.666457 235.169541 
L 542.451339 218.624342 
L 542.647559 220.497563 
L 542.84378 210.79618 
L 543.04 209.620285 
L 543.04 209.620285 
" style="fill:none;stroke:#0000ff;stroke-linecap:square;"/>
   </g>
   <g id="line2d_2">
    <path clip-path="url(#pf9a960d21c)" d="M 112.924957 224.310693 
L 113.121177 223.363396 
L 113.906059 220.508863 
L 114.102279 219.074559 
L 114.298499 222.503949 
L 114.49472 221.702262 
L 115.083381 222.515472 
L 115.279601 220.956884 
L 115.475822 217.174264 
L 115.672042 218.23988 
L 115.868262 221.488499 
L 116.653144 190.437567 
L 116.849364 191.03432 
L 117.045585 192.459057 
L 117.241805 190.008261 
L 117.830466 177.769905 
L 118.026686 177.928769 
L 118.222907 177.535187 
L 118.419127 183.963612 
L 118.615348 197.824639 
L 119.400229 171.763596 
L 119.596449 171.676771 
L 119.79267 164.639532 
L 119.98889 171.946 
L 120.577551 170.957188 
L 120.773772 167.555939 
L 120.969992 167.235407 
L 121.166212 167.739507 
L 121.362433 175.292413 
L 122.147314 184.81399 
L 122.539755 179.550343 
L 122.735975 170.54046 
L 123.520857 181.243511 
L 123.913297 192.192506 
L 124.109518 189.450497 
L 124.698179 193.581468 
L 124.894399 201.232364 
L 125.09062 200.833274 
L 125.28684 191.410963 
L 125.48306 196.052528 
L 126.071721 202.802673 
L 126.267942 197.181526 
L 126.464162 197.239839 
L 126.660383 208.456932 
L 126.856603 207.988109 
L 127.445264 213.101167 
L 127.641484 219.259613 
L 127.837705 230.084957 
L 128.033925 225.016783 
L 128.230145 226.271475 
L 128.818807 216.537547 
L 129.015027 217.329874 
L 129.407468 212.854468 
L 129.603688 211.220087 
L 130.192349 209.707364 
L 130.58479 202.950818 
L 130.78101 210.123788 
L 130.977231 207.453707 
L 131.565892 207.783804 
L 131.762112 208.051516 
L 131.958332 206.616877 
L 132.154553 207.795126 
L 132.350773 209.739242 
L 132.939434 209.655822 
L 133.135655 214.778715 
L 133.331875 214.455729 
L 133.528095 217.381531 
L 133.724316 216.12954 
L 134.312977 226.291706 
L 134.509197 223.498568 
L 134.705418 215.491655 
L 135.686519 204.854034 
L 136.07896 195.645086 
L 136.27518 199.639897 
L 136.471401 186.242031 
L 137.060062 156.753224 
L 137.256282 156.746284 
L 137.452503 160.629551 
L 137.648723 188.928321 
L 137.844943 184.567029 
L 138.629825 172.254875 
L 138.826045 178.148856 
L 139.218486 173.780657 
L 139.807147 158.082877 
L 140.003367 161.324049 
L 140.199588 157.526427 
L 140.395808 147.917239 
L 140.592029 151.011355 
L 141.18069 162.690025 
L 141.37691 163.876913 
L 141.57313 162.055123 
L 141.769351 161.671339 
L 141.965571 153.209665 
L 142.750453 141.484994 
L 142.946673 155.00805 
L 143.142893 150.051428 
L 143.339114 162.197389 
L 143.927775 180.668046 
L 144.320216 182.597435 
L 144.516436 177.920776 
L 144.712656 197.62674 
L 145.301317 199.999534 
L 145.497538 194.340378 
L 145.693758 202.559344 
L 145.889978 199.173352 
L 146.086199 189.216888 
L 146.87108 172.160408 
L 147.263521 178.491801 
L 147.459741 168.596015 
L 148.833284 129.095309 
L 149.618165 157.339333 
L 150.010606 151.36241 
L 150.206827 162.716963 
L 150.795488 154.518496 
L 150.991708 157.318974 
L 151.187928 155.191505 
L 151.384149 161.076304 
L 151.580369 163.418983 
L 152.16903 178.716644 
L 152.365251 169.398162 
L 152.561471 170.112735 
L 152.757691 168.701616 
L 152.953912 171.34836 
L 153.542573 171.440844 
L 153.738793 175.63977 
L 154.327454 201.000657 
L 154.916115 202.369514 
L 155.112336 214.355396 
L 155.308556 213.011058 
L 155.504776 238.294837 
L 155.700997 232.92907 
L 156.289658 245.422444 
L 156.485878 225.381738 
L 156.682099 249.613596 
L 156.878319 229.820737 
L 157.074539 229.202721 
L 157.6632 209.356156 
L 157.859421 212.975561 
L 158.055641 212.7743 
L 158.251862 230.515106 
L 159.036743 235.732281 
L 159.429184 213.680514 
L 159.625404 214.339118 
L 159.821624 208.144848 
L 160.410286 218.875348 
L 160.606506 217.92379 
L 160.802726 215.46077 
L 161.195167 227.261054 
L 161.980048 237.986944 
L 162.176269 225.337691 
L 162.56871 247.796986 
L 163.157371 248.519997 
L 163.353591 246.494801 
L 163.549811 240.116319 
L 163.746032 238.691561 
L 163.942252 235.655202 
L 164.530913 245.128277 
L 164.727134 244.789965 
L 165.119574 272.51641 
L 165.315795 272.875423 
L 166.100676 253.031965 
L 166.296897 261.005397 
L 166.493117 251.052377 
L 166.689337 270.417524 
L 167.277998 284.36641 
L 167.866659 264.113522 
L 168.06288 265.437221 
L 168.651541 252.961654 
L 168.847761 253.694484 
L 169.043982 249.242365 
L 169.240202 254.628246 
L 169.436422 239.912475 
L 170.025084 257.633776 
L 170.221304 249.866057 
L 170.417524 252.990833 
L 170.613745 252.792183 
L 170.809965 241.551389 
L 171.398626 234.695333 
L 171.594846 243.63703 
L 171.791067 236.621038 
L 171.987287 222.245955 
L 172.183508 224.297174 
L 172.772169 247.599723 
L 172.968389 260.06621 
L 173.36083 242.195061 
L 173.55705 242.101137 
L 174.341932 227.092787 
L 174.538152 243.795332 
L 174.734372 239.38068 
L 174.930593 219.801628 
L 175.519254 231.513751 
L 175.715474 230.777268 
L 176.107915 243.600878 
L 176.304135 235.97769 
L 177.089017 251.647866 
L 177.285237 261.873972 
L 177.677678 259.190527 
L 178.266339 263.095959 
L 178.462559 261.719519 
L 178.65878 241.041269 
L 178.855 241.23528 
L 179.05122 241.125542 
L 179.639881 240.103709 
L 180.032322 235.955983 
L 180.228543 245.124351 
L 180.424763 239.424919 
L 181.209644 249.690851 
L 181.405865 255.184955 
L 181.602085 252.69497 
L 181.798305 255.165389 
L 182.386967 261.042607 
L 182.583187 247.044376 
L 182.779407 246.871743 
L 183.171848 239.232608 
L 183.95673 239.429336 
L 184.15295 245.234602 
L 184.34917 243.68035 
L 184.545391 247.418228 
L 185.330272 239.314815 
L 185.526492 238.449262 
L 185.722713 236.923641 
L 185.918933 240.730396 
L 186.507594 244.378677 
L 186.703815 241.535466 
L 186.900035 242.06597 
L 187.096255 241.187093 
L 187.292476 245.343296 
L 188.077357 244.3551 
L 188.273578 240.435773 
L 188.469798 243.246906 
L 188.666018 239.236587 
L 189.254679 233.088501 
L 189.4509 234.431811 
L 189.64712 231.133045 
L 189.843341 235.008009 
L 190.039561 244.298532 
L 190.824442 247.56412 
L 191.020663 244.245646 
L 191.216883 247.567561 
L 191.413103 244.34418 
L 192.001765 246.663655 
L 192.197985 245.369549 
L 192.394205 245.144539 
L 192.590426 244.681323 
L 192.786646 246.47148 
L 193.375307 250.329458 
L 193.571527 250.165117 
L 193.767748 253.937597 
L 193.963968 249.165117 
L 194.160189 240.055791 
L 194.94507 235.972585 
L 195.14129 237.042388 
L 195.337511 239.252377 
L 195.533731 232.201515 
L 196.122392 237.011492 
L 196.318613 236.079729 
L 196.514833 238.173333 
L 196.711053 233.675937 
L 196.907274 239.032894 
L 197.495935 232.419845 
L 197.692155 240.540966 
L 197.888376 237.42347 
L 198.280816 225.832669 
L 198.869477 224.443038 
L 199.065698 215.615052 
L 199.261918 214.950026 
L 199.458138 220.512302 
L 199.654359 220.529537 
L 200.635461 233.512996 
L 201.027901 237.683785 
L 201.616562 235.47925 
L 201.812783 237.182797 
L 202.009003 239.958145 
L 202.205224 240.156127 
L 202.401444 237.338176 
L 202.990105 234.730616 
L 203.186325 237.249947 
L 203.382546 242.091532 
L 203.578766 242.701702 
L 204.363648 246.169631 
L 204.559868 254.484187 
L 204.756088 251.00286 
L 204.952309 238.143342 
L 205.148529 246.222269 
L 205.73719 253.088427 
L 205.933411 245.633043 
L 206.325851 250.40732 
L 206.522072 252.497349 
L 207.110733 264.669663 
L 207.503173 258.537997 
L 207.699394 254.144843 
L 207.895614 253.262269 
L 208.680496 244.699758 
L 208.876716 245.108266 
L 209.072936 249.28113 
L 209.269157 258.582129 
L 209.857818 253.302781 
L 210.250259 259.917262 
L 210.642699 255.917974 
L 211.623801 265.721518 
L 211.820022 266.667078 
L 212.016242 268.530335 
L 212.604903 266.614126 
L 212.801123 266.678593 
L 212.997344 266.935688 
L 213.193564 265.638631 
L 213.389784 273.434772 
L 214.174666 252.068941 
L 214.370886 258.425779 
L 214.567107 256.985924 
L 214.763327 267.141943 
L 215.548209 261.968177 
L 215.744429 250.441667 
L 215.940649 248.630757 
L 216.13687 250.028051 
L 216.725531 252.763835 
L 216.921751 246.259592 
L 217.117971 249.357079 
L 217.314192 246.319867 
L 217.510412 246.3024 
L 218.295294 232.713054 
L 218.491514 233.233796 
L 218.687734 247.906161 
L 218.883955 251.228173 
L 219.472616 272.100026 
L 219.668836 270.878212 
L 219.865057 267.353619 
L 220.061277 268.29832 
L 220.257497 257.189081 
L 220.846158 260.914749 
L 221.43482 254.029435 
L 221.63104 256.478884 
L 222.219701 259.168566 
L 222.612142 264.239334 
L 222.808362 261.747578 
L 223.004582 261.805269 
L 223.593244 267.29817 
L 223.985684 260.424493 
L 224.181905 255.672124 
L 224.378125 256.699542 
L 224.966786 246.172892 
L 225.163006 250.291765 
L 225.359227 247.968917 
L 225.555447 239.137136 
L 225.751668 220.108438 
L 226.340329 200.705313 
L 226.732769 204.983715 
L 226.92899 177.115368 
L 227.12521 189.717347 
L 227.713871 190.260365 
L 227.910092 188.08293 
L 228.106312 187.782888 
L 228.302532 198.679194 
L 228.498753 193.162775 
L 229.087414 164.628143 
L 229.283634 164.507825 
L 229.479855 164.834594 
L 229.676075 163.051367 
L 229.872295 178.869349 
L 230.853397 188.677769 
L 231.049617 205.852057 
L 231.245838 202.649345 
L 231.834499 188.523976 
L 232.030719 189.450333 
L 232.22694 189.258481 
L 232.42316 193.820618 
L 232.61938 184.899836 
L 233.404262 179.741712 
L 233.600482 179.237493 
L 233.796703 172.175993 
L 233.992923 173.867398 
L 234.581584 196.214041 
L 234.777804 193.33171 
L 234.974025 192.914821 
L 235.170245 178.940669 
L 235.366466 177.070475 
L 235.955127 145.014796 
L 236.347567 143.906333 
L 236.740008 166.52081 
L 237.328669 152.616119 
L 237.72111 159.015389 
L 237.91733 141.451565 
L 238.113551 152.249386 
L 238.702212 164.708245 
L 238.898432 166.124892 
L 239.094652 165.595001 
L 239.290873 179.054306 
L 239.487093 176.747506 
L 240.468195 198.905366 
L 240.664415 187.735821 
L 240.860636 196.367754 
L 241.449297 203.339908 
L 241.645517 198.152261 
L 241.841738 197.939956 
L 242.037958 203.1166 
L 242.234178 201.886471 
L 243.01906 234.824057 
L 243.21528 235.813196 
L 243.607721 209.336499 
L 244.588823 224.425065 
L 244.785043 222.709842 
L 244.981263 232.617992 
L 245.569925 231.154612 
L 245.766145 225.889323 
L 245.962365 238.256271 
L 246.158586 239.923152 
L 246.354806 240.485045 
L 246.943467 227.556891 
L 247.139687 229.955006 
L 247.335908 237.496651 
L 247.728349 223.30329 
L 248.31701 202.156507 
L 248.51323 202.475076 
L 248.70945 200.406304 
L 249.101891 208.608279 
L 249.886773 234.72927 
L 250.082993 230.454483 
L 250.475434 234.436693 
L 251.260315 238.788029 
L 251.456536 235.527754 
L 251.848976 220.82549 
L 252.437637 216.284714 
L 252.633858 213.105072 
L 252.830078 213.226089 
L 253.026298 211.714308 
L 253.222519 228.114173 
L 253.81118 232.265631 
L 254.0074 227.75074 
L 254.203621 231.617912 
L 254.399841 229.283701 
L 254.596061 233.894933 
L 255.184723 232.81664 
L 255.773384 234.497959 
L 255.969604 248.094085 
L 256.558265 240.123394 
L 256.950706 228.139218 
L 257.343147 231.554612 
L 257.931808 231.839016 
L 258.128028 233.982523 
L 258.520469 228.477993 
L 258.716689 230.319858 
L 259.30535 239.333912 
L 259.501571 238.292965 
L 259.697791 239.186284 
L 260.090232 232.139526 
L 260.875113 229.143576 
L 261.463774 221.022551 
L 262.052435 230.966228 
L 262.248656 228.259421 
L 262.641096 231.074447 
L 262.837317 226.840607 
L 263.425978 228.565579 
L 263.622198 224.843008 
L 263.818419 224.572126 
L 264.014639 229.124284 
L 264.210859 227.471136 
L 264.79952 231.161976 
L 264.995741 229.401793 
L 265.191961 230.729162 
L 265.584402 231.40452 
L 266.369283 230.098756 
L 266.565504 234.098832 
L 266.761724 235.777594 
L 266.957945 232.280133 
L 267.546606 239.191155 
L 267.939046 228.414266 
L 268.135267 228.594756 
L 268.331487 218.959079 
L 268.920148 224.225507 
L 269.116369 219.544243 
L 269.312589 217.965733 
L 269.508809 218.27882 
L 269.70503 224.599687 
L 270.293691 224.95552 
L 270.686131 224.665521 
L 271.078572 220.033142 
L 271.667233 218.691561 
L 271.863454 218.553507 
L 272.059674 216.500677 
L 272.255894 226.248095 
L 272.452115 221.213317 
L 273.040776 224.122006 
L 273.236996 220.054244 
L 273.433217 221.271664 
L 273.629437 221.463092 
L 274.414318 213.412993 
L 274.610539 210.134172 
L 274.806759 214.24042 
L 275.1992 199.193385 
L 275.787861 203.113075 
L 275.984081 200.871194 
L 276.180302 196.057765 
L 276.376522 196.794979 
L 276.572742 204.97617 
L 277.161404 211.171552 
L 277.357624 205.362881 
L 277.553844 210.456803 
L 277.750065 209.227301 
L 278.534946 220.432183 
L 278.731166 214.902981 
L 278.927387 216.469994 
L 279.123607 214.987496 
L 279.319828 217.205774 
L 279.908489 203.456039 
L 280.104709 202.680636 
L 280.300929 207.795349 
L 280.69337 193.209853 
L 281.282031 188.563732 
L 282.066913 174.503466 
L 283.048015 156.195407 
L 283.244235 164.234854 
L 283.440455 159.501714 
L 284.029116 157.966834 
L 284.225337 155.950051 
L 284.421557 159.050807 
L 284.617777 159.539386 
L 284.813998 165.1114 
L 285.598879 138.621059 
L 285.7951 142.845415 
L 285.99132 141.125512 
L 286.18754 150.729004 
L 287.168642 176.981951 
L 287.364863 167.291975 
L 287.561083 166.891341 
L 288.345964 180.456469 
L 288.542185 185.226111 
L 288.738405 177.287003 
L 288.934626 185.504984 
L 289.719507 167.313688 
L 290.111948 182.392637 
L 290.308168 182.266387 
L 290.896829 202.688238 
L 291.28927 193.344451 
L 291.48549 188.701818 
L 291.681711 196.101897 
L 292.270372 186.222395 
L 292.466592 187.822395 
L 292.662812 185.711372 
L 293.055253 174.804366 
L 293.643914 177.038845 
L 293.840135 174.195219 
L 294.036355 174.521494 
L 294.232575 165.881464 
L 294.428796 169.32354 
L 295.017457 169.346234 
L 295.213677 170.56018 
L 295.409898 169.860878 
L 295.802338 157.647442 
L 296.390999 178.320921 
L 296.58722 177.505862 
L 296.78344 178.4425 
L 296.979661 177.835586 
L 297.175881 174.890606 
L 297.764542 180.07993 
L 297.960762 180.130539 
L 298.156983 180.902514 
L 298.353203 177.123108 
L 299.138085 181.618994 
L 299.530525 186.762908 
L 299.726746 184.109065 
L 299.922966 186.88014 
L 300.511627 191.457504 
L 300.707848 190.324022 
L 300.904068 194.424891 
L 301.100288 202.43547 
L 301.296509 200.733889 
L 302.08139 201.696902 
L 302.27761 205.545583 
L 302.670051 199.123428 
L 303.258712 200.962658 
L 303.454933 207.21178 
L 303.651153 205.436799 
L 303.847373 204.833643 
L 304.043594 203.669426 
L 304.828475 213.916178 
L 305.220916 208.05036 
L 305.417136 211.396388 
L 306.005797 217.113036 
L 306.398238 207.80376 
L 306.594459 207.1147 
L 306.790679 204.905596 
L 307.57556 200.065122 
L 307.771781 194.858574 
L 307.968001 195.448908 
L 308.164221 197.895615 
L 308.752883 198.834403 
L 309.145323 203.413774 
L 309.537764 205.780222 
L 310.126425 215.420754 
L 310.322645 213.231812 
L 310.518866 215.298303 
L 310.715086 219.088414 
L 310.911307 212.042091 
L 311.499968 211.122857 
L 311.696188 216.877718 
L 311.892408 215.924641 
L 312.088629 208.155224 
L 312.284849 209.313418 
L 312.87351 198.575773 
L 313.069731 203.37192 
L 313.265951 195.963717 
L 313.462171 196.140851 
L 313.658392 184.839954 
L 314.247053 185.314493 
L 314.443273 182.549449 
L 314.639494 184.540237 
L 315.031934 178.789196 
L 315.620595 178.226488 
L 315.816816 174.139399 
L 316.209256 179.91524 
L 316.405477 183.112079 
L 316.994138 163.217622 
L 317.190358 164.000889 
L 317.386579 159.179112 
L 317.582799 164.895192 
L 317.779019 155.878859 
L 318.36768 147.151627 
L 318.563901 148.388927 
L 318.760121 145.681594 
L 318.956342 153.428387 
L 319.152562 149.870988 
L 319.741223 159.533273 
L 319.937443 159.865158 
L 320.133664 162.309446 
L 320.526105 150.198702 
L 321.114766 156.694316 
L 321.310986 156.684729 
L 321.507206 155.780255 
L 321.899647 152.803151 
L 322.684529 168.295953 
L 322.880749 169.203203 
L 323.076969 172.34224 
L 323.27319 168.560708 
L 323.861851 163.350526 
L 324.058071 165.26653 
L 324.254291 170.005347 
L 324.646732 182.547522 
L 325.235393 170.963026 
L 325.431614 171.302005 
L 325.627834 160.644378 
L 326.020275 156.381784 
L 326.805156 142.107785 
L 327.197597 145.317702 
L 327.393817 145.371579 
L 327.982478 159.32898 
L 328.178699 156.741902 
L 328.57114 159.342905 
L 328.76736 155.856951 
L 329.356021 164.476573 
L 329.552241 160.70794 
L 329.944682 164.595429 
L 330.140902 166.060082 
L 330.729564 177.268209 
L 331.122004 169.386501 
L 332.299327 181.997759 
L 332.495547 183.418281 
L 332.691767 188.934351 
L 332.887988 202.798576 
L 333.476649 206.372009 
L 333.672869 203.263334 
L 333.869089 209.768994 
L 334.06531 200.926823 
L 334.26153 209.964384 
L 334.850191 221.682315 
L 335.046412 219.195955 
L 335.242632 219.367914 
L 335.635073 208.217687 
L 336.223734 206.523236 
L 336.419954 199.894269 
L 336.616175 200.953296 
L 337.008615 196.542613 
L 337.793497 195.979732 
L 337.989717 199.061638 
L 338.185938 187.194094 
L 338.382158 192.917731 
L 339.167039 197.799416 
L 339.36326 197.160276 
L 339.55948 196.127879 
L 340.344362 209.963669 
L 340.540582 202.362677 
L 340.736802 203.553616 
L 340.933023 203.39929 
L 341.129243 202.479235 
L 341.717904 206.018833 
L 341.914124 208.250134 
L 342.110345 208.619756 
L 342.306565 213.981311 
L 342.502786 215.556499 
L 343.091447 211.615494 
L 343.287667 208.670999 
L 343.483887 212.444533 
L 343.680108 206.436431 
L 343.876328 211.541731 
L 344.464989 213.097745 
L 344.66121 210.093547 
L 344.85743 213.351417 
L 345.05365 213.299022 
L 345.249871 214.631513 
L 346.034752 204.169649 
L 346.230973 202.837812 
L 346.427193 204.656209 
L 346.623413 212.114385 
L 347.212074 224.429122 
L 347.408295 224.097304 
L 347.604515 218.248013 
L 347.800735 217.359207 
L 347.996956 227.709216 
L 348.978058 207.062519 
L 349.174278 208.332102 
L 349.959159 212.348881 
L 350.15538 210.223083 
L 350.3516 210.638319 
L 350.744041 219.794659 
L 351.332702 221.739544 
L 351.725143 217.502513 
L 351.921363 218.027298 
L 352.117584 222.574977 
L 352.706245 224.184224 
L 352.902465 228.299106 
L 353.294906 222.601477 
L 353.491126 225.857442 
L 354.079787 227.093983 
L 354.276008 226.469328 
L 354.864669 234.592351 
L 355.45333 231.105852 
L 355.64955 235.422798 
L 355.84577 230.4405 
L 356.041991 230.126027 
L 356.238211 231.737805 
L 357.023093 219.477148 
L 357.219313 220.821821 
L 357.415533 223.554809 
L 357.611754 220.3219 
L 358.396635 222.607681 
L 358.592856 222.129231 
L 358.789076 218.692544 
L 358.985296 211.801798 
L 359.573957 209.352989 
L 359.770178 209.263116 
L 359.966398 212.515093 
L 360.358839 223.344125 
L 360.9475 204.733585 
L 361.14372 203.841784 
L 361.339941 200.657197 
L 361.536161 194.937187 
L 361.732381 197.88764 
L 362.321043 203.725502 
L 362.517263 207.563021 
L 362.713483 205.972349 
L 362.909704 209.029574 
L 363.105924 207.306349 
L 363.694585 215.392111 
L 363.890805 211.28385 
L 364.087026 210.643828 
L 364.283246 210.884635 
L 365.264348 224.247535 
L 365.460568 221.794311 
L 365.656789 224.662287 
L 365.853009 222.668511 
L 366.637891 222.17081 
L 366.834111 219.775544 
L 367.030331 224.823357 
L 367.226552 221.764878 
L 367.815213 222.958352 
L 368.011433 221.050358 
L 368.207654 221.881035 
L 368.403874 220.716084 
L 368.600094 224.482407 
L 369.188755 228.424808 
L 369.581196 231.560457 
L 369.777416 239.781098 
L 369.973637 238.878957 
L 370.562298 233.430395 
L 370.758518 237.78345 
L 370.954739 237.3516 
L 371.150959 239.496256 
L 371.935841 221.639504 
L 372.132061 221.940128 
L 372.524502 214.558479 
L 372.720722 215.904305 
L 373.701824 206.053664 
L 374.094265 196.718274 
L 374.682926 195.540364 
L 375.075366 194.076526 
L 375.271587 195.452806 
L 375.467807 195.724569 
L 376.252689 200.003444 
L 376.448909 199.658421 
L 376.84135 207.507971 
L 377.626231 217.884213 
L 377.822452 216.171251 
L 378.214892 223.95814 
L 378.803553 219.928044 
L 378.999774 216.793849 
L 379.195994 216.02048 
L 379.588435 208.119942 
L 380.177096 208.78175 
L 380.373316 212.458558 
L 380.569537 207.605146 
L 380.765757 211.390447 
L 380.961977 208.296188 
L 381.550638 205.356482 
L 381.746859 206.258886 
L 381.943079 213.848703 
L 382.1393 209.078509 
L 382.33552 196.457933 
L 383.120401 222.320073 
L 383.316622 213.6573 
L 383.512842 226.41721 
L 383.709062 225.469632 
L 384.297724 240.305198 
L 384.493944 240.488582 
L 384.690164 245.898104 
L 384.886385 246.418911 
L 385.082605 240.700762 
L 385.671266 243.458877 
L 385.867487 236.822666 
L 386.063707 241.55722 
L 386.259927 234.831983 
L 386.456148 234.582243 
L 387.044809 232.060838 
L 387.241029 226.284443 
L 387.437249 227.25143 
L 387.82969 214.541671 
L 388.418351 220.152361 
L 388.614572 219.616067 
L 389.007012 215.139317 
L 389.203233 213.446065 
L 389.791894 219.333043 
L 389.988114 219.298139 
L 390.184335 219.379381 
L 390.380555 218.634151 
L 390.576775 218.87829 
L 391.165436 221.716627 
L 391.361657 220.518673 
L 391.557877 220.581157 
L 391.754098 219.842592 
L 391.950318 217.130138 
L 392.735199 217.434704 
L 392.93142 217.052245 
L 393.32386 211.29187 
L 393.912522 216.379885 
L 394.108742 213.299469 
L 394.304962 212.30804 
L 394.501183 212.861869 
L 394.697403 209.337309 
L 395.286064 205.114361 
L 395.482284 206.677563 
L 395.678505 214.848707 
L 395.874725 217.285694 
L 396.070946 226.518941 
L 396.855827 243.942372 
L 397.248268 225.315146 
L 397.444488 226.548924 
L 398.033149 225.876035 
L 398.22937 223.989409 
L 398.42559 223.813367 
L 398.818031 226.247195 
L 399.406692 223.310838 
L 399.602912 224.919357 
L 399.799133 229.585114 
L 400.191573 231.213191 
L 400.780234 237.935258 
L 400.976455 241.734074 
L 401.172675 235.513845 
L 401.368895 220.301139 
L 401.565116 229.047528 
L 402.349997 235.334428 
L 402.742438 243.883652 
L 402.938658 236.940593 
L 403.72354 219.556015 
L 403.91976 218.374905 
L 404.115981 209.117354 
L 404.312201 216.45562 
L 404.900862 208.471931 
L 405.293303 223.381006 
L 405.489523 205.181509 
L 405.685744 215.566612 
L 406.274405 221.392679 
L 406.470625 212.107009 
L 406.666845 211.905702 
L 406.863066 205.728627 
L 407.059286 214.106561 
L 407.647947 222.221779 
L 407.844168 218.072863 
L 408.040388 218.26968 
L 408.432829 212.798957 
L 409.21771 211.054088 
L 409.41393 211.582886 
L 409.610151 216.334479 
L 409.806371 210.837974 
L 410.395032 216.218933 
L 410.591253 213.501452 
L 410.787473 213.048881 
L 410.983693 208.25301 
L 411.179914 218.165952 
L 411.768575 215.449123 
L 412.161016 221.046026 
L 412.357236 218.815209 
L 412.553456 224.820709 
L 413.142117 211.343669 
L 413.338338 221.292081 
L 413.534558 222.115685 
L 413.730779 220.326032 
L 413.926999 227.496779 
L 414.51566 219.706916 
L 414.71188 223.487824 
L 414.908101 216.797144 
L 415.104321 219.400956 
L 415.300541 217.405501 
L 415.889203 216.286563 
L 416.085423 219.373084 
L 416.477864 233.422569 
L 416.674084 234.761176 
L 417.262745 223.287015 
L 417.458966 229.145125 
L 417.655186 231.425864 
L 417.851406 224.183833 
L 418.636288 213.47958 
L 418.832508 213.642303 
L 419.028728 212.830485 
L 419.224949 216.020286 
L 419.421169 216.027986 
L 420.00983 223.131963 
L 420.402271 219.163805 
L 420.598491 220.675601 
L 420.794712 230.887899 
L 421.383373 219.918525 
L 421.579593 222.42363 
L 421.775814 219.820481 
L 422.168254 224.17336 
L 422.756915 224.684965 
L 422.953136 222.585885 
L 423.149356 224.755933 
L 423.345577 230.98219 
L 423.541797 221.513785 
L 424.130458 225.974527 
L 424.522899 232.589949 
L 424.719119 233.699222 
L 424.915339 226.642152 
L 425.504001 222.041356 
L 425.700221 223.11717 
L 425.896441 223.342584 
L 426.288882 213.363969 
L 426.877543 220.089147 
L 427.073763 219.698415 
L 427.269984 220.479011 
L 427.466204 220.469178 
L 427.662425 224.21199 
L 428.447306 230.993359 
L 428.643526 227.504125 
L 429.820849 238.17639 
L 430.017069 236.350819 
L 430.213289 241.759115 
L 430.40951 243.434132 
L 430.998171 240.675856 
L 431.194391 240.747716 
L 431.390612 233.980849 
L 431.586832 233.027348 
L 431.783052 237.886898 
L 432.371713 245.1207 
L 432.567934 241.90949 
L 432.764154 241.02358 
L 432.960374 235.621873 
L 433.745256 232.905691 
L 433.941476 232.21342 
L 434.137697 237.286458 
L 434.333917 238.679387 
L 434.530137 240.983202 
L 435.118798 254.182409 
L 435.315019 253.530714 
L 435.511239 249.636299 
L 435.70746 249.127647 
L 436.492341 248.073088 
L 436.688561 245.427601 
L 436.884782 252.839669 
L 437.081002 255.153726 
L 437.277223 249.343911 
L 438.062104 242.264758 
L 438.258324 242.360532 
L 438.454545 238.94619 
L 438.650765 241.738126 
L 439.239426 236.764825 
L 439.435647 241.893691 
L 439.631867 243.826361 
L 440.024308 250.40081 
L 440.612969 241.459543 
L 441.005409 232.409159 
L 441.20163 234.934149 
L 441.39785 232.197398 
L 442.182732 240.12314 
L 442.378952 240.419654 
L 442.575172 244.411658 
L 442.771393 245.468645 
L 443.360054 241.594919 
L 443.556274 247.714982 
L 443.752495 247.724494 
L 443.948715 252.798466 
L 444.144935 253.208204 
L 444.733596 253.675489 
L 444.929817 254.631462 
L 445.126037 259.225162 
L 445.518478 287.205763 
L 446.303359 309.266198 
L 446.6958 281.504844 
L 446.89202 280.989082 
L 447.480682 286.118952 
L 447.676902 299.281912 
L 447.873122 291.069635 
L 448.069343 289.71872 
L 448.265563 294.77251 
L 449.050445 283.032377 
L 449.246665 289.792637 
L 449.442885 288.803233 
L 449.639106 288.634787 
L 450.227767 294.301295 
L 450.620207 284.045418 
L 450.816428 282.968503 
L 451.012648 287.94529 
L 451.601309 285.964336 
L 451.79753 291.008183 
L 452.18997 293.515979 
L 452.386191 289.564286 
L 452.974852 297.498216 
L 453.171072 296.16436 
L 453.367293 289.512869 
L 453.563513 289.390419 
L 453.759733 276.138142 
L 454.348394 262.297627 
L 454.544615 261.89817 
L 454.740835 258.353564 
L 454.937055 247.569916 
L 455.133276 246.395857 
L 455.721937 247.009396 
L 455.918157 248.474539 
L 456.114378 253.081954 
L 456.310598 247.309682 
L 456.506818 251.664636 
L 457.09548 256.892479 
L 457.2917 257.276294 
L 457.48792 258.662373 
L 457.684141 249.873776 
L 457.880361 250.940365 
L 458.469022 262.620374 
L 458.665242 263.76981 
L 458.861463 258.299078 
L 459.057683 258.268571 
L 459.253904 261.314692 
L 459.842565 262.077955 
L 460.038785 259.635 
L 460.431226 262.23385 
L 460.627446 260.987169 
L 461.216107 266.434776 
L 461.412328 265.679551 
L 461.608548 267.204435 
L 462.000989 281.059714 
L 462.58965 277.861752 
L 462.78587 277.686738 
L 462.982091 271.008131 
L 463.178311 271.337464 
L 463.374531 268.803118 
L 463.963192 270.000211 
L 464.159413 269.474625 
L 464.355633 269.442297 
L 464.748074 271.219684 
L 465.336735 275.430469 
L 465.532955 270.926061 
L 465.925396 279.125672 
L 466.121616 267.789555 
L 466.710277 256.544425 
L 467.102718 263.164925 
L 467.298939 258.030709 
L 468.08382 280.811355 
L 468.476261 270.545015 
L 468.868702 292.907384 
L 469.457363 290.380166 
L 469.849803 281.042815 
L 470.046024 281.983949 
L 470.830905 277.249017 
L 471.027126 272.05892 
L 471.223346 275.212945 
L 471.419566 271.144857 
L 472.204448 284.975374 
L 472.400668 284.712182 
L 472.989329 303.596441 
L 473.57799 299.567938 
L 473.774211 296.341211 
L 473.970431 306.34667 
L 474.166651 300.103303 
L 474.362872 310.917869 
L 475.147753 314.062443 
L 475.343974 320.837023 
L 475.540194 317.835105 
L 475.736414 304.777684 
L 476.325075 304.849518 
L 476.521296 296.958785 
L 476.717516 303.191963 
L 476.913737 304.767924 
L 477.109957 301.668319 
L 477.698618 306.095012 
L 477.894838 314.061123 
L 478.287279 304.60115 
L 478.483499 313.762012 
L 479.072161 322.144265 
L 479.268381 322.481967 
L 479.464601 325.137734 
L 479.660822 331.922681 
L 479.857042 324.228479 
L 480.641923 320.511819 
L 480.838144 313.696442 
L 481.034364 314.199983 
L 481.230585 316.972256 
L 481.819246 309.091666 
L 482.015466 314.094532 
L 483.192788 305.090797 
L 483.389009 295.715291 
L 483.585229 294.794363 
L 483.781449 297.113876 
L 483.97767 286.884464 
L 484.566331 287.316906 
L 484.762551 290.289353 
L 484.958772 289.308188 
L 485.154992 295.284903 
L 485.351212 286.149474 
L 485.939873 292.847986 
L 486.136094 292.254512 
L 486.332314 290.287833 
L 486.724755 279.944283 
L 487.313416 271.4498 
L 487.509636 272.569655 
L 487.705857 274.738323 
L 487.902077 281.347767 
L 488.686959 275.202837 
L 489.079399 270.301674 
L 489.27562 274.300377 
L 489.47184 271.263445 
L 490.060501 277.570606 
L 490.256721 281.126105 
L 490.452942 278.127815 
L 490.649162 280.666 
L 490.845383 281.284199 
L 491.434044 276.313698 
L 491.826484 266.833521 
L 492.022705 271.931668 
L 492.218925 270.437102 
L 492.807586 271.060582 
L 493.200027 268.613771 
L 493.592468 271.863711 
L 494.377349 269.941306 
L 494.57357 268.576198 
L 494.76979 275.411478 
L 494.96601 273.182777 
L 495.554671 276.961517 
L 495.947112 283.295347 
L 496.339553 277.750354 
L 496.928214 283.936233 
L 497.124434 278.089559 
L 497.320655 283.799292 
L 497.516875 284.222681 
L 497.713095 289.422546 
L 498.301756 282.774972 
L 498.497977 287.535891 
L 498.694197 287.624403 
L 498.890418 290.027386 
L 499.086638 283.433476 
L 499.675299 282.848806 
L 500.06774 273.286748 
L 500.26396 274.688363 
L 500.46018 272.74116 
L 501.245062 270.717497 
L 501.441282 270.651036 
L 501.637503 267.095611 
L 501.833723 267.879129 
L 502.422384 268.465605 
L 502.618605 267.983952 
L 503.011045 263.804587 
L 503.207266 270.092164 
L 503.992147 278.136315 
L 504.188367 279.060038 
L 504.384588 279.291548 
L 504.580808 281.454489 
L 505.169469 272.837304 
L 505.36569 272.172012 
L 505.56191 273.480651 
L 505.75813 257.722734 
L 505.954351 275.005312 
L 506.543012 285.020905 
L 507.131673 262.349823 
L 507.327893 264.382875 
L 508.112775 266.873191 
L 508.308995 264.763898 
L 508.505216 271.227568 
L 508.701436 266.563904 
L 509.290097 265.311838 
L 509.486317 262.105619 
L 509.682538 261.456355 
L 509.878758 258.269338 
L 510.074978 253.034213 
L 510.66364 242.674611 
L 511.05608 240.980228 
L 511.252301 239.393611 
L 511.448521 243.419118 
L 512.037182 247.235309 
L 512.233402 247.759577 
L 512.429623 247.802474 
L 512.625843 245.622061 
L 512.822064 244.918313 
L 513.410725 240.537021 
L 513.606945 243.045496 
L 513.803165 241.905708 
L 513.999386 248.951073 
L 514.195606 237.561655 
L 514.784267 240.136188 
L 514.980488 240.032863 
L 515.176708 241.060344 
L 515.372928 239.797555 
L 515.569149 239.829081 
L 516.15781 205.539733 
L 516.35403 207.991654 
L 516.550251 207.352048 
L 516.746471 186.540502 
L 516.942691 180.563092 
L 517.531352 214.604567 
L 517.727573 214.088589 
L 517.923793 215.988011 
L 518.120013 213.238742 
L 518.316234 199.144612 
L 518.904895 197.439953 
L 519.297336 200.485558 
L 519.493556 199.93615 
L 519.689776 210.821499 
L 520.474658 207.51968 
L 520.670878 207.869813 
L 520.867099 207.171191 
L 521.063319 226.059604 
L 521.65198 212.160688 
L 521.8482 219.732819 
L 522.044421 220.670249 
L 522.240641 219.522677 
L 522.436862 216.300207 
L 523.025523 215.890861 
L 523.221743 215.602657 
L 523.417963 210.782381 
L 523.614184 197.29164 
L 524.399065 221.736566 
L 524.791506 214.610361 
L 524.987726 229.906763 
L 525.183947 225.621218 
L 525.968828 238.56985 
L 526.165048 235.404989 
L 526.361269 237.177256 
L 526.557489 236.466604 
L 527.14615 237.990477 
L 527.342371 243.58056 
L 527.538591 243.147034 
L 527.734811 244.836622 
L 527.931032 243.342902 
L 528.519693 257.075163 
L 528.912134 253.912065 
L 529.108354 254.344705 
L 529.304574 253.62752 
L 529.893235 253.829419 
L 530.089456 255.291182 
L 530.285676 254.473835 
L 530.678117 262.527765 
L 531.266778 262.818554 
L 531.659219 267.719958 
L 531.855439 263.619527 
L 532.051659 265.52443 
L 532.640321 240.79226 
L 532.836541 238.755306 
L 533.032761 231.599233 
L 533.228982 232.646348 
L 533.425202 231.745674 
L 534.013863 240.886876 
L 534.210084 239.42182 
L 534.406304 240.901696 
L 534.602524 239.049047 
L 534.798745 240.575683 
L 535.387406 237.788954 
L 535.779846 234.375701 
L 536.172287 235.110985 
L 536.760948 235.397393 
L 536.957169 234.759625 
L 537.153389 234.706343 
L 537.54583 225.234651 
L 538.134491 214.768791 
L 538.330711 213.780145 
L 538.526932 205.494877 
L 538.919372 207.874552 
L 539.704254 191.017038 
L 540.292915 202.141469 
L 540.881576 205.261976 
L 541.077796 202.756615 
L 541.274017 203.650293 
L 541.470237 203.538662 
L 541.666457 209.069256 
L 542.451339 199.583951 
L 542.647559 202.653334 
L 542.84378 194.241491 
L 543.04 196.156434 
L 543.04 196.156434 
" style="fill:none;stroke:#008000;stroke-linecap:square;"/>
   </g>
   <g id="patch_3">
    <path d="M 42.285625 365.098447 
L 543.04 365.098447 
" style="fill:none;stroke:#000000;stroke-linecap:square;stroke-linejoin:miter;"/>
   </g>
   <g id="patch_4">
    <path d="M 42.285625 365.098447 
L 42.285625 28.90175 
" style="fill:none;stroke:#000000;stroke-linecap:square;stroke-linejoin:miter;"/>
   </g>
   <g id="patch_5">
    <path d="M 42.285625 28.90175 
L 543.04 28.90175 
" style="fill:none;stroke:#000000;stroke-linecap:square;stroke-linejoin:miter;"/>
   </g>
   <g id="patch_6">
    <path d="M 543.04 365.098447 
L 543.04 28.90175 
" style="fill:none;stroke:#000000;stroke-linecap:square;stroke-linejoin:miter;"/>
   </g>
   <g id="matplotlib.axis_1">
    <g id="xtick_1">
     <g id="line2d_3">
      <defs>
       <path d="M 0 0 
L 0 -4 
" id="m1b09021353" style="stroke:#000000;stroke-width:0.5;"/>
      </defs>
      <g>
       <use style="stroke:#000000;stroke-width:0.5;" x="113.317397629" xlink:href="#m1b09021353" y="365.098447467"/>
      </g>
     </g>
     <g id="line2d_4">
      <defs>
       <path d="M 0 0 
L 0 4 
" id="mec1ecbb746" style="stroke:#000000;stroke-width:0.5;"/>
      </defs>
      <g>
       <use style="stroke:#000000;stroke-width:0.5;" x="113.317397629" xlink:href="#mec1ecbb746" y="28.90175"/>
      </g>
     </g>
     <g id="text_1">
      <!-- 2011 -->
      <defs>
       <path d="M 31.78125 66.40625 
Q 24.171875 66.40625 20.328125 58.90625 
Q 16.5 51.421875 16.5 36.375 
Q 16.5 21.390625 20.328125 13.890625 
Q 24.171875 6.390625 31.78125 6.390625 
Q 39.453125 6.390625 43.28125 13.890625 
Q 47.125 21.390625 47.125 36.375 
Q 47.125 51.421875 43.28125 58.90625 
Q 39.453125 66.40625 31.78125 66.40625 
M 31.78125 74.21875 
Q 44.046875 74.21875 50.515625 64.515625 
Q 56.984375 54.828125 56.984375 36.375 
Q 56.984375 17.96875 50.515625 8.265625 
Q 44.046875 -1.421875 31.78125 -1.421875 
Q 19.53125 -1.421875 13.0625 8.265625 
Q 6.59375 17.96875 6.59375 36.375 
Q 6.59375 54.828125 13.0625 64.515625 
Q 19.53125 74.21875 31.78125 74.21875 
" id="BitstreamVeraSans-Roman-30"/>
       <path d="M 12.40625 8.296875 
L 28.515625 8.296875 
L 28.515625 63.921875 
L 10.984375 60.40625 
L 10.984375 69.390625 
L 28.421875 72.90625 
L 38.28125 72.90625 
L 38.28125 8.296875 
L 54.390625 8.296875 
L 54.390625 0 
L 12.40625 0 
z
" id="BitstreamVeraSans-Roman-31"/>
       <path d="M 19.1875 8.296875 
L 53.609375 8.296875 
L 53.609375 0 
L 7.328125 0 
L 7.328125 8.296875 
Q 12.9375 14.109375 22.625 23.890625 
Q 32.328125 33.6875 34.8125 36.53125 
Q 39.546875 41.84375 41.421875 45.53125 
Q 43.3125 49.21875 43.3125 52.78125 
Q 43.3125 58.59375 39.234375 62.25 
Q 35.15625 65.921875 28.609375 65.921875 
Q 23.96875 65.921875 18.8125 64.3125 
Q 13.671875 62.703125 7.8125 59.421875 
L 7.8125 69.390625 
Q 13.765625 71.78125 18.9375 73 
Q 24.125 74.21875 28.421875 74.21875 
Q 39.75 74.21875 46.484375 68.546875 
Q 53.21875 62.890625 53.21875 53.421875 
Q 53.21875 48.921875 51.53125 44.890625 
Q 49.859375 40.875 45.40625 35.40625 
Q 44.1875 33.984375 37.640625 27.21875 
Q 31.109375 20.453125 19.1875 8.296875 
" id="BitstreamVeraSans-Roman-32"/>
      </defs>
      <g transform="translate(85.6211692977 392.264975352)rotate(-30.0)scale(0.12 -0.12)">
       <use xlink:href="#BitstreamVeraSans-Roman-32"/>
       <use x="63.623046875" xlink:href="#BitstreamVeraSans-Roman-30"/>
       <use x="127.24609375" xlink:href="#BitstreamVeraSans-Roman-31"/>
       <use x="190.869140625" xlink:href="#BitstreamVeraSans-Roman-31"/>
      </g>
     </g>
    </g>
    <g id="xtick_2">
     <g id="line2d_5">
      <g>
       <use style="stroke:#000000;stroke-width:0.5;" x="184.937831358" xlink:href="#m1b09021353" y="365.098447467"/>
      </g>
     </g>
     <g id="line2d_6">
      <g>
       <use style="stroke:#000000;stroke-width:0.5;" x="184.937831358" xlink:href="#mec1ecbb746" y="28.90175"/>
      </g>
     </g>
     <g id="text_2">
      <!-- 2012 -->
      <g transform="translate(157.241603026 392.264975352)rotate(-30.0)scale(0.12 -0.12)">
       <use xlink:href="#BitstreamVeraSans-Roman-32"/>
       <use x="63.623046875" xlink:href="#BitstreamVeraSans-Roman-30"/>
       <use x="127.24609375" xlink:href="#BitstreamVeraSans-Roman-31"/>
       <use x="190.869140625" xlink:href="#BitstreamVeraSans-Roman-32"/>
      </g>
     </g>
    </g>
    <g id="xtick_3">
     <g id="line2d_7">
      <g>
       <use style="stroke:#000000;stroke-width:0.5;" x="256.754485453" xlink:href="#m1b09021353" y="365.098447467"/>
      </g>
     </g>
     <g id="line2d_8">
      <g>
       <use style="stroke:#000000;stroke-width:0.5;" x="256.754485453" xlink:href="#mec1ecbb746" y="28.90175"/>
      </g>
     </g>
     <g id="text_3">
      <!-- 2013 -->
      <defs>
       <path d="M 40.578125 39.3125 
Q 47.65625 37.796875 51.625 33 
Q 55.609375 28.21875 55.609375 21.1875 
Q 55.609375 10.40625 48.1875 4.484375 
Q 40.765625 -1.421875 27.09375 -1.421875 
Q 22.515625 -1.421875 17.65625 -0.515625 
Q 12.796875 0.390625 7.625 2.203125 
L 7.625 11.71875 
Q 11.71875 9.328125 16.59375 8.109375 
Q 21.484375 6.890625 26.8125 6.890625 
Q 36.078125 6.890625 40.9375 10.546875 
Q 45.796875 14.203125 45.796875 21.1875 
Q 45.796875 27.640625 41.28125 31.265625 
Q 36.765625 34.90625 28.71875 34.90625 
L 20.21875 34.90625 
L 20.21875 43.015625 
L 29.109375 43.015625 
Q 36.375 43.015625 40.234375 45.921875 
Q 44.09375 48.828125 44.09375 54.296875 
Q 44.09375 59.90625 40.109375 62.90625 
Q 36.140625 65.921875 28.71875 65.921875 
Q 24.65625 65.921875 20.015625 65.03125 
Q 15.375 64.15625 9.8125 62.3125 
L 9.8125 71.09375 
Q 15.4375 72.65625 20.34375 73.4375 
Q 25.25 74.21875 29.59375 74.21875 
Q 40.828125 74.21875 47.359375 69.109375 
Q 53.90625 64.015625 53.90625 55.328125 
Q 53.90625 49.265625 50.4375 45.09375 
Q 46.96875 40.921875 40.578125 39.3125 
" id="BitstreamVeraSans-Roman-33"/>
      </defs>
      <g transform="translate(229.058257121 392.264975352)rotate(-30.0)scale(0.12 -0.12)">
       <use xlink:href="#BitstreamVeraSans-Roman-32"/>
       <use x="63.623046875" xlink:href="#BitstreamVeraSans-Roman-30"/>
       <use x="127.24609375" xlink:href="#BitstreamVeraSans-Roman-31"/>
       <use x="190.869140625" xlink:href="#BitstreamVeraSans-Roman-33"/>
      </g>
     </g>
    </g>
    <g id="xtick_4">
     <g id="line2d_9">
      <g>
       <use style="stroke:#000000;stroke-width:0.5;" x="328.374919181" xlink:href="#m1b09021353" y="365.098447467"/>
      </g>
     </g>
     <g id="line2d_10">
      <g>
       <use style="stroke:#000000;stroke-width:0.5;" x="328.374919181" xlink:href="#mec1ecbb746" y="28.90175"/>
      </g>
     </g>
     <g id="text_4">
      <!-- 2014 -->
      <defs>
       <path d="M 37.796875 64.3125 
L 12.890625 25.390625 
L 37.796875 25.390625 
z
M 35.203125 72.90625 
L 47.609375 72.90625 
L 47.609375 25.390625 
L 58.015625 25.390625 
L 58.015625 17.1875 
L 47.609375 17.1875 
L 47.609375 0 
L 37.796875 0 
L 37.796875 17.1875 
L 4.890625 17.1875 
L 4.890625 26.703125 
z
" id="BitstreamVeraSans-Roman-34"/>
      </defs>
      <g transform="translate(300.678690849 392.264975352)rotate(-30.0)scale(0.12 -0.12)">
       <use xlink:href="#BitstreamVeraSans-Roman-32"/>
       <use x="63.623046875" xlink:href="#BitstreamVeraSans-Roman-30"/>
       <use x="127.24609375" xlink:href="#BitstreamVeraSans-Roman-31"/>
       <use x="190.869140625" xlink:href="#BitstreamVeraSans-Roman-34"/>
      </g>
     </g>
    </g>
    <g id="xtick_5">
     <g id="line2d_11">
      <g>
       <use style="stroke:#000000;stroke-width:0.5;" x="399.995352909" xlink:href="#m1b09021353" y="365.098447467"/>
      </g>
     </g>
     <g id="line2d_12">
      <g>
       <use style="stroke:#000000;stroke-width:0.5;" x="399.995352909" xlink:href="#mec1ecbb746" y="28.90175"/>
      </g>
     </g>
     <g id="text_5">
      <!-- 2015 -->
      <defs>
       <path d="M 10.796875 72.90625 
L 49.515625 72.90625 
L 49.515625 64.59375 
L 19.828125 64.59375 
L 19.828125 46.734375 
Q 21.96875 47.46875 24.109375 47.828125 
Q 26.265625 48.1875 28.421875 48.1875 
Q 40.625 48.1875 47.75 41.5 
Q 54.890625 34.8125 54.890625 23.390625 
Q 54.890625 11.625 47.5625 5.09375 
Q 40.234375 -1.421875 26.90625 -1.421875 
Q 22.3125 -1.421875 17.546875 -0.640625 
Q 12.796875 0.140625 7.71875 1.703125 
L 7.71875 11.625 
Q 12.109375 9.234375 16.796875 8.0625 
Q 21.484375 6.890625 26.703125 6.890625 
Q 35.15625 6.890625 40.078125 11.328125 
Q 45.015625 15.765625 45.015625 23.390625 
Q 45.015625 31 40.078125 35.4375 
Q 35.15625 39.890625 26.703125 39.890625 
Q 22.75 39.890625 18.8125 39.015625 
Q 14.890625 38.140625 10.796875 36.28125 
z
" id="BitstreamVeraSans-Roman-35"/>
      </defs>
      <g transform="translate(372.299124578 392.264975352)rotate(-30.0)scale(0.12 -0.12)">
       <use xlink:href="#BitstreamVeraSans-Roman-32"/>
       <use x="63.623046875" xlink:href="#BitstreamVeraSans-Roman-30"/>
       <use x="127.24609375" xlink:href="#BitstreamVeraSans-Roman-31"/>
       <use x="190.869140625" xlink:href="#BitstreamVeraSans-Roman-35"/>
      </g>
     </g>
    </g>
    <g id="xtick_6">
     <g id="line2d_13">
      <g>
       <use style="stroke:#000000;stroke-width:0.5;" x="471.615786638" xlink:href="#m1b09021353" y="365.098447467"/>
      </g>
     </g>
     <g id="line2d_14">
      <g>
       <use style="stroke:#000000;stroke-width:0.5;" x="471.615786638" xlink:href="#mec1ecbb746" y="28.90175"/>
      </g>
     </g>
     <g id="text_6">
      <!-- 2016 -->
      <defs>
       <path d="M 33.015625 40.375 
Q 26.375 40.375 22.484375 35.828125 
Q 18.609375 31.296875 18.609375 23.390625 
Q 18.609375 15.53125 22.484375 10.953125 
Q 26.375 6.390625 33.015625 6.390625 
Q 39.65625 6.390625 43.53125 10.953125 
Q 47.40625 15.53125 47.40625 23.390625 
Q 47.40625 31.296875 43.53125 35.828125 
Q 39.65625 40.375 33.015625 40.375 
M 52.59375 71.296875 
L 52.59375 62.3125 
Q 48.875 64.0625 45.09375 64.984375 
Q 41.3125 65.921875 37.59375 65.921875 
Q 27.828125 65.921875 22.671875 59.328125 
Q 17.53125 52.734375 16.796875 39.40625 
Q 19.671875 43.65625 24.015625 45.921875 
Q 28.375 48.1875 33.59375 48.1875 
Q 44.578125 48.1875 50.953125 41.515625 
Q 57.328125 34.859375 57.328125 23.390625 
Q 57.328125 12.15625 50.6875 5.359375 
Q 44.046875 -1.421875 33.015625 -1.421875 
Q 20.359375 -1.421875 13.671875 8.265625 
Q 6.984375 17.96875 6.984375 36.375 
Q 6.984375 53.65625 15.1875 63.9375 
Q 23.390625 74.21875 37.203125 74.21875 
Q 40.921875 74.21875 44.703125 73.484375 
Q 48.484375 72.75 52.59375 71.296875 
" id="BitstreamVeraSans-Roman-36"/>
      </defs>
      <g transform="translate(443.919558306 392.264975352)rotate(-30.0)scale(0.12 -0.12)">
       <use xlink:href="#BitstreamVeraSans-Roman-32"/>
       <use x="63.623046875" xlink:href="#BitstreamVeraSans-Roman-30"/>
       <use x="127.24609375" xlink:href="#BitstreamVeraSans-Roman-31"/>
       <use x="190.869140625" xlink:href="#BitstreamVeraSans-Roman-36"/>
      </g>
     </g>
    </g>
    <g id="text_7">
     <!-- Date -->
     <defs>
      <path d="M 56.203125 29.59375 
L 56.203125 25.203125 
L 14.890625 25.203125 
Q 15.484375 15.921875 20.484375 11.0625 
Q 25.484375 6.203125 34.421875 6.203125 
Q 39.59375 6.203125 44.453125 7.46875 
Q 49.3125 8.734375 54.109375 11.28125 
L 54.109375 2.78125 
Q 49.265625 0.734375 44.1875 -0.34375 
Q 39.109375 -1.421875 33.890625 -1.421875 
Q 20.796875 -1.421875 13.15625 6.1875 
Q 5.515625 13.8125 5.515625 26.8125 
Q 5.515625 40.234375 12.765625 48.109375 
Q 20.015625 56 32.328125 56 
Q 43.359375 56 49.78125 48.890625 
Q 56.203125 41.796875 56.203125 29.59375 
M 47.21875 32.234375 
Q 47.125 39.59375 43.09375 43.984375 
Q 39.0625 48.390625 32.421875 48.390625 
Q 24.90625 48.390625 20.390625 44.140625 
Q 15.875 39.890625 15.1875 32.171875 
z
" id="BitstreamVeraSans-Roman-65"/>
      <path d="M 19.671875 64.796875 
L 19.671875 8.109375 
L 31.59375 8.109375 
Q 46.6875 8.109375 53.6875 14.9375 
Q 60.6875 21.78125 60.6875 36.53125 
Q 60.6875 51.171875 53.6875 57.984375 
Q 46.6875 64.796875 31.59375 64.796875 
z
M 9.8125 72.90625 
L 30.078125 72.90625 
Q 51.265625 72.90625 61.171875 64.09375 
Q 71.09375 55.28125 71.09375 36.53125 
Q 71.09375 17.671875 61.125 8.828125 
Q 51.171875 0 30.078125 0 
L 9.8125 0 
z
" id="BitstreamVeraSans-Roman-44"/>
      <path d="M 34.28125 27.484375 
Q 23.390625 27.484375 19.1875 25 
Q 14.984375 22.515625 14.984375 16.5 
Q 14.984375 11.71875 18.140625 8.90625 
Q 21.296875 6.109375 26.703125 6.109375 
Q 34.1875 6.109375 38.703125 11.40625 
Q 43.21875 16.703125 43.21875 25.484375 
L 43.21875 27.484375 
z
M 52.203125 31.203125 
L 52.203125 0 
L 43.21875 0 
L 43.21875 8.296875 
Q 40.140625 3.328125 35.546875 0.953125 
Q 30.953125 -1.421875 24.3125 -1.421875 
Q 15.921875 -1.421875 10.953125 3.296875 
Q 6 8.015625 6 15.921875 
Q 6 25.140625 12.171875 29.828125 
Q 18.359375 34.515625 30.609375 34.515625 
L 43.21875 34.515625 
L 43.21875 35.40625 
Q 43.21875 41.609375 39.140625 45 
Q 35.0625 48.390625 27.6875 48.390625 
Q 23 48.390625 18.546875 47.265625 
Q 14.109375 46.140625 10.015625 43.890625 
L 10.015625 52.203125 
Q 14.9375 54.109375 19.578125 55.046875 
Q 24.21875 56 28.609375 56 
Q 40.484375 56 46.34375 49.84375 
Q 52.203125 43.703125 52.203125 31.203125 
" id="BitstreamVeraSans-Roman-61"/>
      <path d="M 18.3125 70.21875 
L 18.3125 54.6875 
L 36.8125 54.6875 
L 36.8125 47.703125 
L 18.3125 47.703125 
L 18.3125 18.015625 
Q 18.3125 11.328125 20.140625 9.421875 
Q 21.96875 7.515625 27.59375 7.515625 
L 36.8125 7.515625 
L 36.8125 0 
L 27.59375 0 
Q 17.1875 0 13.234375 3.875 
Q 9.28125 7.765625 9.28125 18.015625 
L 9.28125 47.703125 
L 2.6875 47.703125 
L 2.6875 54.6875 
L 9.28125 54.6875 
L 9.28125 70.21875 
z
" id="BitstreamVeraSans-Roman-74"/>
     </defs>
     <g transform="translate(278.321875 408.544375)scale(0.12 -0.12)">
      <use xlink:href="#BitstreamVeraSans-Roman-44"/>
      <use x="77.001953125" xlink:href="#BitstreamVeraSans-Roman-61"/>
      <use x="138.28125" xlink:href="#BitstreamVeraSans-Roman-74"/>
      <use x="177.490234375" xlink:href="#BitstreamVeraSans-Roman-65"/>
     </g>
    </g>
   </g>
   <g id="matplotlib.axis_2">
    <g id="ytick_1">
     <g id="line2d_15">
      <defs>
       <path d="M 0 0 
L 4 0 
" id="m1b2e85a14f" style="stroke:#000000;stroke-width:0.5;"/>
      </defs>
      <g>
       <use style="stroke:#000000;stroke-width:0.5;" x="42.285625" xlink:href="#m1b2e85a14f" y="365.098447467"/>
      </g>
     </g>
     <g id="line2d_16">
      <defs>
       <path d="M 0 0 
L -4 0 
" id="m7f5c2d6107" style="stroke:#000000;stroke-width:0.5;"/>
      </defs>
      <g>
       <use style="stroke:#000000;stroke-width:0.5;" x="543.04" xlink:href="#m7f5c2d6107" y="365.098447467"/>
      </g>
     </g>
     <g id="text_8">
      <!-- 20 -->
      <defs>
       <path d="M 10.59375 35.5 
L 73.1875 35.5 
L 73.1875 27.203125 
L 10.59375 27.203125 
z
" id="BitstreamVeraSans-Roman-2212"/>
      </defs>
      <g transform="translate(12.96 368.409697467)scale(0.12 -0.12)">
       <use xlink:href="#BitstreamVeraSans-Roman-2212"/>
       <use x="83.7890625" xlink:href="#BitstreamVeraSans-Roman-32"/>
       <use x="147.412109375" xlink:href="#BitstreamVeraSans-Roman-30"/>
      </g>
     </g>
    </g>
    <g id="ytick_2">
     <g id="line2d_17">
      <g>
       <use style="stroke:#000000;stroke-width:0.5;" x="42.285625" xlink:href="#m1b2e85a14f" y="317.070347829"/>
      </g>
     </g>
     <g id="line2d_18">
      <g>
       <use style="stroke:#000000;stroke-width:0.5;" x="543.04" xlink:href="#m7f5c2d6107" y="317.070347829"/>
      </g>
     </g>
     <g id="text_9">
      <!-- 10 -->
      <g transform="translate(12.96 320.381597829)scale(0.12 -0.12)">
       <use xlink:href="#BitstreamVeraSans-Roman-2212"/>
       <use x="83.7890625" xlink:href="#BitstreamVeraSans-Roman-31"/>
       <use x="147.412109375" xlink:href="#BitstreamVeraSans-Roman-30"/>
      </g>
     </g>
    </g>
    <g id="ytick_3">
     <g id="line2d_19">
      <g>
       <use style="stroke:#000000;stroke-width:0.5;" x="42.285625" xlink:href="#m1b2e85a14f" y="269.042248191"/>
      </g>
     </g>
     <g id="line2d_20">
      <g>
       <use style="stroke:#000000;stroke-width:0.5;" x="543.04" xlink:href="#m7f5c2d6107" y="269.042248191"/>
      </g>
     </g>
     <g id="text_10">
      <!-- 0 -->
      <g transform="translate(30.650625 272.353498191)scale(0.12 -0.12)">
       <use xlink:href="#BitstreamVeraSans-Roman-30"/>
      </g>
     </g>
    </g>
    <g id="ytick_4">
     <g id="line2d_21">
      <g>
       <use style="stroke:#000000;stroke-width:0.5;" x="42.285625" xlink:href="#m1b2e85a14f" y="221.014148552"/>
      </g>
     </g>
     <g id="line2d_22">
      <g>
       <use style="stroke:#000000;stroke-width:0.5;" x="543.04" xlink:href="#m7f5c2d6107" y="221.014148552"/>
      </g>
     </g>
     <g id="text_11">
      <!-- 10 -->
      <g transform="translate(23.015625 224.325398552)scale(0.12 -0.12)">
       <use xlink:href="#BitstreamVeraSans-Roman-31"/>
       <use x="63.623046875" xlink:href="#BitstreamVeraSans-Roman-30"/>
      </g>
     </g>
    </g>
    <g id="ytick_5">
     <g id="line2d_23">
      <g>
       <use style="stroke:#000000;stroke-width:0.5;" x="42.285625" xlink:href="#m1b2e85a14f" y="172.986048914"/>
      </g>
     </g>
     <g id="line2d_24">
      <g>
       <use style="stroke:#000000;stroke-width:0.5;" x="543.04" xlink:href="#m7f5c2d6107" y="172.986048914"/>
      </g>
     </g>
     <g id="text_12">
      <!-- 20 -->
      <g transform="translate(23.015625 176.297298914)scale(0.12 -0.12)">
       <use xlink:href="#BitstreamVeraSans-Roman-32"/>
       <use x="63.623046875" xlink:href="#BitstreamVeraSans-Roman-30"/>
      </g>
     </g>
    </g>
    <g id="ytick_6">
     <g id="line2d_25">
      <g>
       <use style="stroke:#000000;stroke-width:0.5;" x="42.285625" xlink:href="#m1b2e85a14f" y="124.957949276"/>
      </g>
     </g>
     <g id="line2d_26">
      <g>
       <use style="stroke:#000000;stroke-width:0.5;" x="543.04" xlink:href="#m7f5c2d6107" y="124.957949276"/>
      </g>
     </g>
     <g id="text_13">
      <!-- 30 -->
      <g transform="translate(23.015625 128.269199276)scale(0.12 -0.12)">
       <use xlink:href="#BitstreamVeraSans-Roman-33"/>
       <use x="63.623046875" xlink:href="#BitstreamVeraSans-Roman-30"/>
      </g>
     </g>
    </g>
    <g id="ytick_7">
     <g id="line2d_27">
      <g>
       <use style="stroke:#000000;stroke-width:0.5;" x="42.285625" xlink:href="#m1b2e85a14f" y="76.9298496381"/>
      </g>
     </g>
     <g id="line2d_28">
      <g>
       <use style="stroke:#000000;stroke-width:0.5;" x="543.04" xlink:href="#m7f5c2d6107" y="76.9298496381"/>
      </g>
     </g>
     <g id="text_14">
      <!-- 40 -->
      <g transform="translate(23.015625 80.2410996381)scale(0.12 -0.12)">
       <use xlink:href="#BitstreamVeraSans-Roman-34"/>
       <use x="63.623046875" xlink:href="#BitstreamVeraSans-Roman-30"/>
      </g>
     </g>
    </g>
    <g id="ytick_8">
     <g id="line2d_29">
      <g>
       <use style="stroke:#000000;stroke-width:0.5;" x="42.285625" xlink:href="#m1b2e85a14f" y="28.90175"/>
      </g>
     </g>
     <g id="line2d_30">
      <g>
       <use style="stroke:#000000;stroke-width:0.5;" x="543.04" xlink:href="#m7f5c2d6107" y="28.90175"/>
      </g>
     </g>
     <g id="text_15">
      <!-- 50 -->
      <g transform="translate(23.015625 32.213)scale(0.12 -0.12)">
       <use xlink:href="#BitstreamVeraSans-Roman-35"/>
       <use x="63.623046875" xlink:href="#BitstreamVeraSans-Roman-30"/>
      </g>
     </g>
    </g>
   </g>
   <g id="text_16">
    <!-- Rolling 360D Return -->
    <defs>
     <path d="M 9.421875 54.6875 
L 18.40625 54.6875 
L 18.40625 0 
L 9.421875 0 
z
M 9.421875 75.984375 
L 18.40625 75.984375 
L 18.40625 64.59375 
L 9.421875 64.59375 
z
" id="BitstreamVeraSans-Roman-69"/>
     <path d="M 41.109375 46.296875 
Q 39.59375 47.171875 37.8125 47.578125 
Q 36.03125 48 33.890625 48 
Q 26.265625 48 22.1875 43.046875 
Q 18.109375 38.09375 18.109375 28.8125 
L 18.109375 0 
L 9.078125 0 
L 9.078125 54.6875 
L 18.109375 54.6875 
L 18.109375 46.1875 
Q 20.953125 51.171875 25.484375 53.578125 
Q 30.03125 56 36.53125 56 
Q 37.453125 56 38.578125 55.875 
Q 39.703125 55.765625 41.0625 55.515625 
z
" id="BitstreamVeraSans-Roman-72"/>
     <path d="M 30.609375 48.390625 
Q 23.390625 48.390625 19.1875 42.75 
Q 14.984375 37.109375 14.984375 27.296875 
Q 14.984375 17.484375 19.15625 11.84375 
Q 23.34375 6.203125 30.609375 6.203125 
Q 37.796875 6.203125 41.984375 11.859375 
Q 46.1875 17.53125 46.1875 27.296875 
Q 46.1875 37.015625 41.984375 42.703125 
Q 37.796875 48.390625 30.609375 48.390625 
M 30.609375 56 
Q 42.328125 56 49.015625 48.375 
Q 55.71875 40.765625 55.71875 27.296875 
Q 55.71875 13.875 49.015625 6.21875 
Q 42.328125 -1.421875 30.609375 -1.421875 
Q 18.84375 -1.421875 12.171875 6.21875 
Q 5.515625 13.875 5.515625 27.296875 
Q 5.515625 40.765625 12.171875 48.375 
Q 18.84375 56 30.609375 56 
" id="BitstreamVeraSans-Roman-6f"/>
     <path d="M 45.40625 27.984375 
Q 45.40625 37.75 41.375 43.109375 
Q 37.359375 48.484375 30.078125 48.484375 
Q 22.859375 48.484375 18.828125 43.109375 
Q 14.796875 37.75 14.796875 27.984375 
Q 14.796875 18.265625 18.828125 12.890625 
Q 22.859375 7.515625 30.078125 7.515625 
Q 37.359375 7.515625 41.375 12.890625 
Q 45.40625 18.265625 45.40625 27.984375 
M 54.390625 6.78125 
Q 54.390625 -7.171875 48.1875 -13.984375 
Q 42 -20.796875 29.203125 -20.796875 
Q 24.46875 -20.796875 20.265625 -20.09375 
Q 16.0625 -19.390625 12.109375 -17.921875 
L 12.109375 -9.1875 
Q 16.0625 -11.328125 19.921875 -12.34375 
Q 23.78125 -13.375 27.78125 -13.375 
Q 36.625 -13.375 41.015625 -8.765625 
Q 45.40625 -4.15625 45.40625 5.171875 
L 45.40625 9.625 
Q 42.625 4.78125 38.28125 2.390625 
Q 33.9375 0 27.875 0 
Q 17.828125 0 11.671875 7.65625 
Q 5.515625 15.328125 5.515625 27.984375 
Q 5.515625 40.671875 11.671875 48.328125 
Q 17.828125 56 27.875 56 
Q 33.9375 56 38.28125 53.609375 
Q 42.625 51.21875 45.40625 46.390625 
L 45.40625 54.6875 
L 54.390625 54.6875 
z
" id="BitstreamVeraSans-Roman-67"/>
     <path d="M 54.890625 33.015625 
L 54.890625 0 
L 45.90625 0 
L 45.90625 32.71875 
Q 45.90625 40.484375 42.875 44.328125 
Q 39.84375 48.1875 33.796875 48.1875 
Q 26.515625 48.1875 22.3125 43.546875 
Q 18.109375 38.921875 18.109375 30.90625 
L 18.109375 0 
L 9.078125 0 
L 9.078125 54.6875 
L 18.109375 54.6875 
L 18.109375 46.1875 
Q 21.34375 51.125 25.703125 53.5625 
Q 30.078125 56 35.796875 56 
Q 45.21875 56 50.046875 50.171875 
Q 54.890625 44.34375 54.890625 33.015625 
" id="BitstreamVeraSans-Roman-6e"/>
     <path id="BitstreamVeraSans-Roman-20"/>
     <path d="M 44.390625 34.1875 
Q 47.5625 33.109375 50.5625 29.59375 
Q 53.5625 26.078125 56.59375 19.921875 
L 66.609375 0 
L 56 0 
L 46.6875 18.703125 
Q 43.0625 26.03125 39.671875 28.421875 
Q 36.28125 30.8125 30.421875 30.8125 
L 19.671875 30.8125 
L 19.671875 0 
L 9.8125 0 
L 9.8125 72.90625 
L 32.078125 72.90625 
Q 44.578125 72.90625 50.734375 67.671875 
Q 56.890625 62.453125 56.890625 51.90625 
Q 56.890625 45.015625 53.6875 40.46875 
Q 50.484375 35.9375 44.390625 34.1875 
M 19.671875 64.796875 
L 19.671875 38.921875 
L 32.078125 38.921875 
Q 39.203125 38.921875 42.84375 42.21875 
Q 46.484375 45.515625 46.484375 51.90625 
Q 46.484375 58.296875 42.84375 61.546875 
Q 39.203125 64.796875 32.078125 64.796875 
z
" id="BitstreamVeraSans-Roman-52"/>
     <path d="M 9.421875 75.984375 
L 18.40625 75.984375 
L 18.40625 0 
L 9.421875 0 
z
" id="BitstreamVeraSans-Roman-6c"/>
     <path d="M 8.5 21.578125 
L 8.5 54.6875 
L 17.484375 54.6875 
L 17.484375 21.921875 
Q 17.484375 14.15625 20.5 10.265625 
Q 23.53125 6.390625 29.59375 6.390625 
Q 36.859375 6.390625 41.078125 11.03125 
Q 45.3125 15.671875 45.3125 23.6875 
L 45.3125 54.6875 
L 54.296875 54.6875 
L 54.296875 0 
L 45.3125 0 
L 45.3125 8.40625 
Q 42.046875 3.421875 37.71875 1 
Q 33.40625 -1.421875 27.6875 -1.421875 
Q 18.265625 -1.421875 13.375 4.4375 
Q 8.5 10.296875 8.5 21.578125 
" id="BitstreamVeraSans-Roman-75"/>
    </defs>
    <g transform="translate(219.9248125 23.90175)scale(0.144 -0.144)">
     <use xlink:href="#BitstreamVeraSans-Roman-52"/>
     <use x="69.419921875" xlink:href="#BitstreamVeraSans-Roman-6f"/>
     <use x="130.6015625" xlink:href="#BitstreamVeraSans-Roman-6c"/>
     <use x="158.384765625" xlink:href="#BitstreamVeraSans-Roman-6c"/>
     <use x="186.16796875" xlink:href="#BitstreamVeraSans-Roman-69"/>
     <use x="213.951171875" xlink:href="#BitstreamVeraSans-Roman-6e"/>
     <use x="277.330078125" xlink:href="#BitstreamVeraSans-Roman-67"/>
     <use x="340.806640625" xlink:href="#BitstreamVeraSans-Roman-20"/>
     <use x="372.59375" xlink:href="#BitstreamVeraSans-Roman-33"/>
     <use x="436.216796875" xlink:href="#BitstreamVeraSans-Roman-36"/>
     <use x="499.83984375" xlink:href="#BitstreamVeraSans-Roman-30"/>
     <use x="563.462890625" xlink:href="#BitstreamVeraSans-Roman-44"/>
     <use x="640.46484375" xlink:href="#BitstreamVeraSans-Roman-20"/>
     <use x="672.251953125" xlink:href="#BitstreamVeraSans-Roman-52"/>
     <use x="741.671875" xlink:href="#BitstreamVeraSans-Roman-65"/>
     <use x="803.1953125" xlink:href="#BitstreamVeraSans-Roman-74"/>
     <use x="842.404296875" xlink:href="#BitstreamVeraSans-Roman-75"/>
     <use x="905.783203125" xlink:href="#BitstreamVeraSans-Roman-72"/>
     <use x="946.880859375" xlink:href="#BitstreamVeraSans-Roman-6e"/>
    </g>
   </g>
   <g id="legend_1">
    <g id="patch_7">
     <path d="M 444.103 82.69475 
L 535.84 82.69475 
L 535.84 36.10175 
L 444.103 36.10175 
z
" style="fill:#ffffff;stroke:#000000;stroke-linejoin:miter;"/>
    </g>
    <g id="line2d_31">
     <path d="M 454.183 47.7635 
L 474.343 47.7635 
" style="fill:none;stroke:#0000ff;stroke-linecap:square;"/>
    </g>
    <g id="line2d_32"/>
    <g id="text_17">
     <!-- Index -->
     <defs>
      <path d="M 54.890625 54.6875 
L 35.109375 28.078125 
L 55.90625 0 
L 45.3125 0 
L 29.390625 21.484375 
L 13.484375 0 
L 2.875 0 
L 24.125 28.609375 
L 4.6875 54.6875 
L 15.28125 54.6875 
L 29.78125 35.203125 
L 44.28125 54.6875 
z
" id="BitstreamVeraSans-Roman-78"/>
      <path d="M 9.8125 72.90625 
L 19.671875 72.90625 
L 19.671875 0 
L 9.8125 0 
z
" id="BitstreamVeraSans-Roman-49"/>
      <path d="M 45.40625 46.390625 
L 45.40625 75.984375 
L 54.390625 75.984375 
L 54.390625 0 
L 45.40625 0 
L 45.40625 8.203125 
Q 42.578125 3.328125 38.25 0.953125 
Q 33.9375 -1.421875 27.875 -1.421875 
Q 17.96875 -1.421875 11.734375 6.484375 
Q 5.515625 14.40625 5.515625 27.296875 
Q 5.515625 40.1875 11.734375 48.09375 
Q 17.96875 56 27.875 56 
Q 33.9375 56 38.25 53.625 
Q 42.578125 51.265625 45.40625 46.390625 
M 14.796875 27.296875 
Q 14.796875 17.390625 18.875 11.75 
Q 22.953125 6.109375 30.078125 6.109375 
Q 37.203125 6.109375 41.296875 11.75 
Q 45.40625 17.390625 45.40625 27.296875 
Q 45.40625 37.203125 41.296875 42.84375 
Q 37.203125 48.484375 30.078125 48.484375 
Q 22.953125 48.484375 18.875 42.84375 
Q 14.796875 37.203125 14.796875 27.296875 
" id="BitstreamVeraSans-Roman-64"/>
     </defs>
     <g transform="translate(490.183 52.8035)scale(0.144 -0.144)">
      <use xlink:href="#BitstreamVeraSans-Roman-49"/>
      <use x="29.4921875" xlink:href="#BitstreamVeraSans-Roman-6e"/>
      <use x="92.87109375" xlink:href="#BitstreamVeraSans-Roman-64"/>
      <use x="156.34765625" xlink:href="#BitstreamVeraSans-Roman-65"/>
      <use x="217.85546875" xlink:href="#BitstreamVeraSans-Roman-78"/>
     </g>
    </g>
    <g id="line2d_33">
     <path d="M 454.183 68.9 
L 474.343 68.9 
" style="fill:none;stroke:#008000;stroke-linecap:square;"/>
    </g>
    <g id="line2d_34"/>
    <g id="text_18">
     <!-- DJIA -->
     <defs>
      <path d="M 9.8125 72.90625 
L 19.671875 72.90625 
L 19.671875 5.078125 
Q 19.671875 -8.109375 14.671875 -14.0625 
Q 9.671875 -20.015625 -1.421875 -20.015625 
L -5.171875 -20.015625 
L -5.171875 -11.71875 
L -2.09375 -11.71875 
Q 4.4375 -11.71875 7.125 -8.046875 
Q 9.8125 -4.390625 9.8125 5.078125 
z
" id="BitstreamVeraSans-Roman-4a"/>
      <path d="M 34.1875 63.1875 
L 20.796875 26.90625 
L 47.609375 26.90625 
z
M 28.609375 72.90625 
L 39.796875 72.90625 
L 67.578125 0 
L 57.328125 0 
L 50.6875 18.703125 
L 17.828125 18.703125 
L 11.1875 0 
L 0.78125 0 
z
" id="BitstreamVeraSans-Roman-41"/>
     </defs>
     <g transform="translate(490.183 73.94)scale(0.144 -0.144)">
      <use xlink:href="#BitstreamVeraSans-Roman-44"/>
      <use x="77.001953125" xlink:href="#BitstreamVeraSans-Roman-4a"/>
      <use x="106.494140625" xlink:href="#BitstreamVeraSans-Roman-49"/>
      <use x="135.986328125" xlink:href="#BitstreamVeraSans-Roman-41"/>
     </g>
    </g>
   </g>
  </g>
 </g>
 <defs>
  <clipPath id="pf9a960d21c">
   <rect height="336.196697467" width="500.754375" x="42.285625" y="28.90175"/>
  </clipPath>
 </defs>
</svg>
