<?xml version="1.0" encoding="utf-8" standalone="no"?>
<!DOCTYPE svg PUBLIC "-//W3C//DTD SVG 1.1//EN"
  "http://www.w3.org/Graphics/SVG/1.1/DTD/svg11.dtd">
<!-- Created with matplotlib (http://matplotlib.org/) -->
<svg height="420pt" version="1.1" viewBox="0 0 461 420" width="461pt" xmlns="http://www.w3.org/2000/svg" xmlns:xlink="http://www.w3.org/1999/xlink">
 <defs>
  <style type="text/css">
*{stroke-linecap:butt;stroke-linejoin:round;stroke-miterlimit:100000;}
  </style>
 </defs>
 <g id="figure_1">
  <g id="patch_1">
   <path d="M 0 420 
L 461 420 
L 461 0 
L 0 0 
z
" style="fill:#ffffff;"/>
  </g>
  <g id="axes_1">
   <g id="patch_2">
    <path d="M 42.285625 361.098447 
L 448.04 361.098447 
L 448.04 18.766875 
L 42.285625 18.766875 
z
" style="fill:#ffffff;"/>
   </g>
   <g id="line2d_1">
    <path clip-path="url(#pa77d1cb53d)" d="M 148.375989 208.939218 
L 148.526046 211.288343 
L 148.82616 220.260257 
L 148.976217 220.476864 
L 149.426388 219.018309 
L 149.576445 208.651357 
L 149.876559 207.615469 
L 150.026617 204.814356 
L 150.626845 199.611679 
L 151.077016 208.887938 
L 151.677245 208.651214 
L 151.827302 207.072664 
L 151.977359 209.306525 
L 152.127416 205.5278 
L 152.577587 211.860115 
L 152.727644 210.828582 
L 153.027758 212.105719 
L 153.177816 206.45527 
L 153.928101 186.637082 
L 154.228215 206.78401 
L 154.678386 196.823705 
L 154.828444 201.916864 
L 154.978501 182.817518 
L 155.278615 190.81074 
L 155.728786 188.104917 
L 155.878843 185.684391 
L 156.0289 185.881985 
L 156.178957 191.542706 
L 156.329014 191.339847 
L 156.779186 189.903883 
L 157.0793 181.17436 
L 157.229357 172.075986 
L 157.379414 172.538789 
L 157.979642 152.453526 
L 158.1297 160.656359 
L 158.279757 157.53147 
L 158.429814 145.198734 
L 159.030042 146.239126 
L 159.180099 147.51729 
L 159.330156 150.332219 
L 159.480213 142.106206 
L 159.930385 150.703504 
L 160.380556 133.201695 
L 160.530613 133.089107 
L 161.130841 139.423289 
L 161.280898 139.131496 
L 161.430956 132.967766 
L 161.581013 121.927149 
L 162.181241 87.713539 
L 162.331298 71.822678 
L 162.481355 85.812567 
L 162.631412 88.150274 
L 163.081584 89.708603 
L 163.231641 86.300284 
L 163.681812 92.552799 
L 164.432097 69.489655 
L 164.582154 70.741714 
L 164.732212 75.187385 
L 165.33244 48.597911 
L 165.482497 52.22463 
L 165.632554 39.411077 
L 166.232782 32.723164 
L 166.682954 48.938926 
L 166.833011 69.829384 
L 167.283182 103.30042 
L 167.433239 82.703909 
L 167.583296 83.631241 
L 167.88341 108.008326 
L 168.333582 108.56854 
L 168.483639 116.536788 
L 168.633696 81.828469 
L 168.783753 78.723587 
L 168.93381 84.346506 
L 169.534038 97.180003 
L 169.684096 94.464184 
L 169.834153 98.534602 
L 169.98421 112.275199 
L 170.434381 98.850022 
L 170.584438 99.754916 
L 170.734495 99.051109 
L 170.884552 89.232101 
L 171.034609 95.555715 
L 171.484781 100.614787 
L 171.784895 109.499089 
L 171.934952 120.169256 
L 172.085009 117.431158 
L 172.53518 101.052265 
L 172.685237 104.146845 
L 172.835294 94.305066 
L 172.985352 98.109877 
L 173.135409 112.511182 
L 173.885694 95.42315 
L 174.035751 89.910835 
L 174.185808 94.654962 
L 174.63598 84.466555 
L 174.786037 85.569428 
L 174.936094 79.057229 
L 175.236208 80.965915 
L 175.836436 67.885176 
L 175.986493 70.931686 
L 176.13655 64.631815 
L 176.286608 76.227307 
L 176.886836 67.650405 
L 177.036893 68.909209 
L 177.18695 82.385013 
L 177.337007 83.203597 
L 177.787178 101.238388 
L 177.937236 100.340875 
L 178.087293 98.59571 
L 178.23735 102.484935 
L 178.387407 99.147786 
L 178.837578 105.032566 
L 178.987635 100.369556 
L 179.287749 86.509824 
L 180.188092 102.776062 
L 180.338149 116.026407 
L 180.488206 115.3224 
L 180.938377 130.518773 
L 181.088434 130.475256 
L 181.238492 130.910427 
L 181.388549 130.870135 
L 181.538606 141.516093 
L 181.988777 129.674379 
L 182.138834 131.471694 
L 182.438948 153.495867 
L 182.589005 139.264555 
L 183.189234 108.063194 
L 183.339291 110.628917 
L 183.489348 87.04517 
L 183.639405 105.26278 
L 184.089576 104.027431 
L 184.389691 105.798017 
L 184.539748 111.897064 
L 184.689805 108.252681 
L 185.139976 75.113794 
L 185.290033 73.959932 
L 185.44009 74.536863 
L 185.590147 71.253746 
L 185.740204 83.597194 
L 186.190376 83.824152 
L 186.340433 89.62487 
L 186.49049 81.459245 
L 186.640547 92.329933 
L 186.790604 91.934905 
L 187.240775 66.124817 
L 187.540889 67.589024 
L 187.841004 79.480585 
L 188.441232 70.636669 
L 188.591289 73.674498 
L 188.741346 72.599677 
L 188.891403 75.236232 
L 189.341575 103.138054 
L 189.491632 104.463032 
L 189.641689 98.863932 
L 189.791746 102.062567 
L 189.941803 98.963316 
L 190.542031 83.326586 
L 190.692088 83.199583 
L 190.842145 84.100244 
L 191.442374 64.825281 
L 191.742488 81.210582 
L 191.892545 63.046889 
L 192.042602 69.867998 
L 192.492773 71.809246 
L 192.642831 70.559556 
L 192.792888 63.848262 
L 193.093002 109.126468 
L 193.543173 138.047158 
L 193.69323 139.385563 
L 193.843287 136.465406 
L 193.993344 142.250764 
L 194.143401 143.136104 
L 194.74363 103.338912 
L 194.893687 106.563194 
L 195.193801 132.894613 
L 195.643972 124.945034 
L 195.794029 137.456473 
L 195.944087 135.343054 
L 196.094144 139.611671 
L 196.244201 135.286361 
L 196.994486 144.107134 
L 197.144543 142.869564 
L 197.2946 160.600911 
L 197.744772 136.155499 
L 197.894829 137.312476 
L 198.194943 161.111675 
L 198.345 163.807705 
L 198.795171 153.765603 
L 198.945228 153.719949 
L 199.3954 165.144011 
L 199.845571 127.328485 
L 199.995628 130.57686 
L 200.145685 130.059003 
L 201.196085 142.016431 
L 201.346142 141.115263 
L 201.94637 143.659062 
L 202.096427 150.095011 
L 202.246484 173.099177 
L 202.396541 166.319069 
L 202.546599 172.418965 
L 202.99677 167.780526 
L 203.146827 160.368029 
L 203.296884 161.895453 
L 203.446941 168.928801 
L 203.596998 192.950284 
L 204.047169 193.268217 
L 204.197227 184.144241 
L 204.647398 195.464731 
L 205.097569 193.769966 
L 205.397683 198.080596 
L 205.54774 196.855025 
L 205.697797 204.812119 
L 206.147969 199.747604 
L 206.448083 189.98129 
L 206.59814 193.524403 
L 206.748197 203.311434 
L 207.198368 202.821369 
L 207.348425 201.842789 
L 207.498483 206.613364 
L 207.64854 202.862143 
L 207.798597 208.234572 
L 208.248768 215.883656 
L 208.398825 225.087869 
L 208.548882 213.358606 
L 208.698939 220.239682 
L 208.848996 216.998694 
L 209.449225 231.87268 
L 209.599282 226.821509 
L 209.749339 264.649565 
L 209.899396 272.176383 
L 210.349567 268.539568 
L 210.499624 264.034128 
L 210.649681 264.816064 
L 210.949796 271.247909 
L 211.399967 288.612375 
L 211.550024 280.911424 
L 211.700081 281.154246 
L 211.850138 280.010955 
L 212.000195 279.852991 
L 212.450367 274.095735 
L 212.600424 279.959095 
L 212.900538 280.572702 
L 213.050595 289.254364 
L 213.650823 292.515491 
L 213.950937 300.369867 
L 214.100995 301.938631 
L 214.551166 309.192351 
L 214.701223 306.429384 
L 214.85128 308.407417 
L 215.001337 305.375427 
L 215.601566 319.396489 
L 215.751623 314.435708 
L 215.90168 316.884701 
L 216.051737 317.086869 
L 216.201794 322.009788 
L 216.651965 324.968158 
L 216.802022 328.914427 
L 216.952079 328.943659 
L 217.102136 331.859394 
L 217.702365 320.866375 
L 217.852422 321.354559 
L 218.002479 322.359643 
L 218.152536 325.414116 
L 218.752764 318.731668 
L 218.902822 319.730884 
L 219.052879 323.44226 
L 219.202936 332.844722 
L 219.803164 342.321017 
L 219.953221 341.969886 
L 220.103278 341.132572 
L 220.253335 343.433852 
L 220.403392 343.144642 
L 220.853564 335.60543 
L 221.003621 335.294333 
L 221.153678 331.787417 
L 221.303735 324.7446 
L 221.453792 335.43902 
L 222.05402 325.90632 
L 222.354135 340.116275 
L 222.504192 337.373283 
L 222.954363 346.150041 
L 223.10442 343.11267 
L 223.254477 343.396536 
L 223.554591 332.564936 
L 224.15482 316.28193 
L 224.304877 317.76572 
L 224.454934 316.492244 
L 224.604991 314.17012 
L 225.055162 309.016594 
L 225.205219 309.92268 
L 225.355276 307.687667 
L 225.505334 307.748073 
L 225.655391 307.570846 
L 226.105562 298.175117 
L 226.405676 310.115641 
L 226.555733 318.488456 
L 227.155962 315.189209 
L 227.306019 316.619877 
L 227.606133 315.554486 
L 227.75619 317.607831 
L 228.356418 315.403791 
L 228.656532 312.127202 
L 228.80659 312.40683 
L 229.556875 320.246369 
L 229.706932 320.104961 
L 230.30716 320.887277 
L 230.457218 321.453716 
L 230.907389 328.790701 
L 231.35756 326.36072 
L 231.507617 326.448931 
L 231.657674 330.124415 
L 231.807731 329.233147 
L 231.957788 331.062748 
L 232.40796 339.257598 
L 232.558017 339.228289 
L 232.708074 341.133356 
L 232.858131 345.326526 
L 233.008188 346.043877 
L 233.458359 342.649779 
L 233.608416 338.920492 
L 233.758474 337.98817 
L 234.058588 340.003488 
L 234.508759 340.052871 
L 234.658816 337.08193 
L 234.808873 337.761002 
L 234.95893 335.659077 
L 235.108987 335.989131 
L 235.559159 334.864602 
L 235.709216 333.731635 
L 235.859273 333.703311 
L 236.00933 332.966732 
L 236.159387 334.894516 
L 236.609558 329.663595 
L 236.759615 332.705866 
L 236.909672 323.725315 
L 237.209787 331.251282 
L 237.659958 329.979923 
L 237.810015 327.783779 
L 238.110129 328.447786 
L 238.260186 325.646813 
L 238.710358 323.174186 
L 238.860415 324.82618 
L 239.010472 324.908779 
L 239.310586 331.898813 
L 239.760757 331.477917 
L 240.060871 319.752243 
L 240.210928 324.767471 
L 240.360986 320.584724 
L 240.811157 320.632868 
L 240.961214 323.084546 
L 241.111271 322.59421 
L 241.261328 325.806951 
L 241.411385 326.27174 
L 241.861556 322.934094 
L 242.011614 328.208968 
L 242.311728 327.0768 
L 242.461785 331.305345 
L 243.062013 332.236687 
L 243.512184 323.403056 
L 243.962356 328.759566 
L 244.112413 332.845259 
L 244.26247 342.353782 
L 244.412527 342.636347 
L 244.562584 345.861817 
L 245.012755 350.599699 
L 245.162812 348.765963 
L 246.063155 327.973724 
L 246.213212 328.538204 
L 246.363269 331.309289 
L 246.513326 327.509044 
L 246.663383 329.31854 
L 247.113555 329.173868 
L 247.263612 324.977407 
L 247.413669 324.374166 
L 247.713783 322.078204 
L 248.163954 318.413008 
L 248.314011 321.049589 
L 248.464069 318.875089 
L 248.614126 319.188771 
L 248.764183 322.37206 
L 249.214354 308.9269 
L 249.514468 306.877985 
L 249.664525 313.257548 
L 249.814582 304.926912 
L 250.264754 296.755777 
L 250.414811 297.35086 
L 250.714925 292.476845 
L 250.864982 294.885515 
L 251.315153 283.171722 
L 251.46521 288.780309 
L 251.615267 285.308326 
L 251.765325 289.199683 
L 251.915382 289.633017 
L 252.365553 272.3632 
L 252.51561 272.957689 
L 252.815724 276.973861 
L 252.965781 273.346504 
L 253.415953 267.279381 
L 253.716067 266.533292 
L 253.866124 279.536471 
L 254.016181 278.943997 
L 254.466352 285.902671 
L 254.616409 285.513304 
L 254.766466 287.46014 
L 254.916523 291.655436 
L 255.066581 290.452095 
L 255.516752 288.996319 
L 256.11698 271.672038 
L 256.717209 248.139172 
L 256.867266 248.749033 
L 257.017323 245.715075 
L 257.16738 254.879419 
L 257.617551 236.127715 
L 257.767608 236.564183 
L 257.917665 238.578648 
L 258.067722 243.627333 
L 258.217779 253.895811 
L 258.667951 245.326792 
L 258.968065 248.490852 
L 259.118122 251.871135 
L 259.268179 249.732262 
L 259.71835 234.269168 
L 259.868407 235.411169 
L 260.318579 250.45537 
L 260.76875 250.525798 
L 260.918807 247.505397 
L 261.218921 249.49417 
L 261.368978 255.990246 
L 261.81915 252.203176 
L 261.969207 254.012505 
L 262.119264 252.400558 
L 262.419378 239.65436 
L 262.869549 245.830866 
L 263.169663 235.253032 
L 263.319721 236.75926 
L 263.469778 245.893772 
L 264.070006 202.58682 
L 264.220063 201.224903 
L 264.37012 205.488344 
L 264.520177 216.45404 
L 264.970349 211.06424 
L 265.120406 234.761796 
L 265.270463 237.856063 
L 265.42052 231.519682 
L 265.570577 240.485764 
L 266.020748 249.594722 
L 266.320862 243.900608 
L 266.470919 246.669312 
L 266.620977 236.21781 
L 267.221205 223.00681 
L 267.371262 223.044005 
L 267.521319 218.506167 
L 267.671376 218.63457 
L 268.271605 211.651124 
L 268.421662 216.321353 
L 268.571719 214.508608 
L 268.721776 221.73508 
L 269.171947 208.182393 
L 269.472061 213.947559 
L 269.622118 200.661338 
L 269.772175 209.334865 
L 270.222347 208.889404 
L 270.522461 206.272493 
L 270.672518 211.413899 
L 270.822575 205.035525 
L 271.272746 215.179673 
L 271.422803 212.363304 
L 271.572861 212.05466 
L 271.722918 223.061523 
L 271.872975 225.517038 
L 272.323146 228.976973 
L 272.473203 226.531377 
L 272.62326 226.605486 
L 272.773317 228.953631 
L 272.923374 225.282278 
L 273.523603 206.76002 
L 273.67366 209.659955 
L 273.823717 201.39054 
L 273.973774 202.397736 
L 274.423945 197.689761 
L 274.574002 194.858703 
L 274.724059 194.332935 
L 275.024174 203.281187 
L 275.474345 210.004219 
L 275.624402 210.004219 
L 275.924516 202.953752 
L 276.074573 209.718547 
L 276.524745 181.153692 
L 276.674802 183.520464 
L 276.824859 182.863027 
L 277.575144 196.497025 
L 277.725201 196.168807 
L 277.875258 200.271534 
L 278.025316 185.058127 
L 278.175373 191.923635 
L 278.625544 184.964608 
L 278.925658 187.132901 
L 279.075715 193.892872 
L 279.225772 191.895709 
L 279.675944 183.40677 
L 280.126115 191.619024 
L 280.276172 185.239648 
L 280.726343 173.208409 
L 280.8764 172.694789 
L 281.026457 172.615771 
L 281.176514 182.760824 
L 281.326572 175.50112 
L 281.776743 175.69352 
L 281.9268 175.616614 
L 282.226914 174.232306 
L 282.376971 167.628606 
L 282.9772 167.649711 
L 283.127257 168.563103 
L 283.277314 163.110751 
L 283.427371 163.331929 
L 283.877542 159.894197 
L 284.327713 147.150964 
L 284.47777 147.071781 
L 285.077999 132.710245 
L 285.228056 134.26239 
L 285.52817 145.943974 
L 285.978341 126.146509 
L 286.128398 126.643254 
L 286.278456 126.2293 
L 286.428513 117.239181 
L 286.57857 121.345616 
L 287.028741 115.755785 
L 287.178798 118.12979 
L 287.328855 117.78448 
L 287.628969 131.579387 
L 288.229198 124.317948 
L 288.379255 124.481975 
L 288.529312 120.015461 
L 289.12954 122.66789 
L 289.279597 125.156057 
L 289.429654 124.99553 
L 289.729769 128.973102 
L 290.17994 119.338908 
L 290.630111 134.041792 
L 290.780168 122.074181 
L 291.23034 143.201685 
L 291.380397 140.174263 
L 291.530454 130.587426 
L 291.830568 139.026963 
L 292.280739 141.398191 
L 292.580853 144.617541 
L 292.73091 159.223312 
L 292.880968 154.126259 
L 293.331139 147.770224 
L 293.631253 150.143132 
L 293.931367 176.584261 
L 294.381538 180.725583 
L 294.531596 180.793733 
L 294.681653 176.466202 
L 294.83171 179.107321 
L 294.981767 173.105082 
L 295.431938 169.026786 
L 295.581995 164.346111 
L 295.732052 164.209449 
L 295.882109 165.514438 
L 296.032166 152.868928 
L 296.482338 151.07606 
L 296.632395 153.359676 
L 296.782452 149.00324 
L 296.932509 148.581649 
L 297.082566 148.735165 
L 297.682794 152.898678 
L 297.982909 176.010668 
L 298.132966 165.321221 
L 298.583137 145.649078 
L 298.733194 147.011424 
L 299.033308 122.090012 
L 299.783594 138.446327 
L 299.933651 135.80957 
L 300.083708 152.697832 
L 300.233765 154.484416 
L 300.683936 149.467299 
L 300.833993 143.864839 
L 300.98405 147.020655 
L 301.134108 156.447683 
L 301.284165 154.410069 
L 301.734336 153.04165 
L 301.884393 150.773615 
L 302.03445 156.337389 
L 302.184507 157.240754 
L 302.334564 153.288087 
L 302.934793 164.820473 
L 303.08485 157.700143 
L 303.234907 159.213782 
L 303.835135 172.106395 
L 304.135249 179.741419 
L 304.285306 191.784309 
L 304.435364 186.248526 
L 304.885535 183.170379 
L 305.035592 174.351427 
L 305.185649 172.659229 
L 305.335706 169.195082 
L 305.485763 159.232343 
L 305.935934 161.846634 
L 306.236049 154.506679 
L 306.386106 160.183771 
L 306.536163 155.980969 
L 306.986334 148.113617 
L 307.136391 150.743952 
L 307.436505 149.354779 
L 307.586562 149.009941 
L 308.036734 152.993454 
L 308.186791 150.156993 
L 308.336848 145.103527 
L 308.636962 131.638643 
L 309.087133 132.466898 
L 309.237191 127.59357 
L 309.387248 130.227801 
L 309.537305 127.694122 
L 309.687362 134.064713 
L 310.28759 145.829953 
L 310.437647 141.520643 
L 311.187933 156.096853 
L 311.33799 157.441727 
L 311.488047 153.468236 
L 311.638104 158.826443 
L 311.788161 159.747943 
L 312.238332 160.787549 
L 312.388389 155.477211 
L 312.688504 165.099683 
L 312.838561 169.372781 
L 313.288732 170.412635 
L 313.438789 175.026856 
L 313.588846 166.702551 
L 313.88896 170.786937 
L 314.339132 162.650411 
L 314.639246 165.492631 
L 314.93936 160.049961 
L 315.389531 147.388015 
L 315.689645 158.55733 
L 315.98976 161.296741 
L 316.439931 166.546759 
L 316.589988 166.51464 
L 316.740045 161.728898 
L 316.890102 150.309975 
L 317.040159 156.941225 
L 317.490331 161.95376 
L 317.640388 158.882982 
L 317.790445 160.212598 
L 318.090559 177.407271 
L 318.840844 164.427213 
L 318.990901 158.316368 
L 319.140959 126.02428 
L 319.59113 121.075849 
L 319.741187 134.616743 
L 320.041301 102.037639 
L 320.191358 113.642163 
L 320.641529 117.083122 
L 320.791587 117.017248 
L 320.941644 114.020003 
L 321.241758 128.014838 
L 321.691929 131.100617 
L 322.1421 109.89251 
L 322.292157 109.428313 
L 323.042443 88.369776 
L 323.1925 91.026923 
L 323.342557 83.225354 
L 323.792728 75.230183 
L 323.942785 77.929754 
L 324.092843 88.923186 
L 324.2429 84.803208 
L 324.392957 93.905443 
L 324.993185 90.40056 
L 325.143242 93.046489 
L 325.443356 103.573861 
L 325.893528 93.076156 
L 326.193642 109.060155 
L 326.343699 103.415546 
L 326.493756 109.701819 
L 326.943927 106.431358 
L 327.244041 95.123957 
L 327.544156 112.417819 
L 327.994327 102.208721 
L 328.144384 103.866717 
L 328.294441 114.420501 
L 328.444498 111.626769 
L 328.594555 118.339188 
L 329.044727 101.068331 
L 329.194784 107.312556 
L 329.344841 107.891917 
L 329.494898 98.029066 
L 330.095126 88.305755 
L 330.39524 94.070466 
L 330.545297 92.586242 
L 330.695355 87.771212 
L 331.295583 95.981091 
L 331.44564 94.415938 
L 332.195925 125.960582 
L 332.345983 128.025452 
L 332.49604 122.908165 
L 332.646097 134.214249 
L 333.246325 124.635174 
L 333.546439 136.218581 
L 333.696496 151.353069 
L 333.846553 136.507421 
L 334.296725 131.600951 
L 334.596839 142.387421 
L 334.746896 146.153048 
L 334.896953 139.903843 
L 335.497181 147.272986 
L 335.647239 146.843296 
L 335.797296 142.740969 
L 336.547581 145.278657 
L 336.697638 145.306529 
L 336.847695 141.59953 
L 337.597981 157.31974 
L 337.898095 149.019173 
L 338.048152 158.049154 
L 338.64838 163.221317 
L 338.798437 162.797075 
L 339.098552 174.041938 
L 339.548723 165.458976 
L 339.69878 166.476927 
L 339.848837 162.565852 
L 340.148951 170.106365 
L 340.74918 164.603557 
L 340.899237 165.410473 
L 341.049294 163.547485 
L 341.799579 170.111394 
L 341.949636 167.240288 
L 342.249751 176.404435 
L 342.699922 183.974976 
L 343.000036 178.591995 
L 343.150093 185.654727 
L 343.750322 184.247165 
L 343.900379 185.043237 
L 344.200493 203.407388 
L 344.35055 191.56418 
L 344.800721 182.420643 
L 344.950778 182.550115 
L 345.100835 179.416871 
L 345.250892 173.304919 
L 345.40095 173.194019 
L 345.851121 177.167017 
L 346.001178 180.471714 
L 346.301292 198.738634 
L 346.451349 198.368416 
L 347.051578 193.974546 
L 347.201635 194.966575 
L 347.351692 194.785253 
L 347.501749 195.98917 
L 347.95192 202.120074 
L 348.101977 211.927818 
L 348.252034 209.966269 
L 348.402091 214.532664 
L 348.552148 213.477862 
L 349.00232 209.03427 
L 349.152377 224.582091 
L 349.302434 220.214725 
L 349.602548 225.758511 
L 350.052719 225.061661 
L 350.202776 226.654485 
L 350.352834 230.250405 
L 350.502891 236.53499 
L 350.652948 251.486227 
L 351.103119 261.810364 
L 351.253176 260.3313 
L 351.55329 238.431622 
L 351.703347 239.641989 
L 352.153519 229.21884 
L 352.303576 241.671034 
L 352.453633 230.256523 
L 352.753747 235.14151 
L 353.353975 237.673008 
L 353.504032 242.86845 
L 353.804147 230.924009 
L 354.254318 228.534092 
L 354.404375 226.184776 
L 354.554432 225.86992 
L 354.854546 237.536418 
L 355.304718 228.194676 
L 355.454775 232.587588 
L 355.754889 226.920025 
L 355.904946 229.408188 
L 356.355117 231.82206 
L 356.505174 240.118448 
L 356.655231 237.074803 
L 356.805288 238.842081 
L 356.955346 234.49148 
L 357.405517 238.893004 
L 357.555574 237.606427 
L 357.855688 239.550087 
L 358.005745 230.18293 
L 358.605974 227.939182 
L 358.906088 233.631018 
L 359.056145 242.83897 
L 359.506316 248.160727 
L 359.656373 243.419936 
L 359.80643 243.443175 
L 360.106544 235.020659 
L 360.706773 248.459587 
L 360.85683 237.773046 
L 361.156944 238.747108 
L 361.607115 235.990652 
L 361.757172 232.872715 
L 362.057287 236.125247 
L 362.207344 237.967857 
L 362.657515 249.604901 
L 362.807572 257.742804 
L 363.107686 259.578364 
L 363.257743 269.917604 
L 363.707915 268.09716 
L 363.857972 269.125888 
L 364.008029 261.567881 
L 364.158086 262.959604 
L 364.308143 259.754662 
L 364.758314 265.715531 
L 364.908371 263.392228 
L 365.058428 265.139845 
L 365.358543 256.506022 
L 365.808714 256.272693 
L 366.108828 260.567784 
L 366.859114 244.23659 
L 367.009171 244.34801 
L 367.159228 250.164139 
L 367.309285 245.326441 
L 367.459342 248.53652 
L 368.05957 266.111346 
L 368.209627 264.251942 
L 368.509742 277.434103 
L 368.959913 277.575945 
L 369.10997 277.790457 
L 369.260027 274.830188 
L 369.410084 275.911607 
L 370.010312 268.90318 
L 370.16037 264.608994 
L 370.310427 267.784902 
L 370.460484 265.567802 
L 371.060712 277.828488 
L 371.510883 291.938293 
L 371.660941 292.706674 
L 372.261169 277.200843 
L 372.411226 283.129921 
L 372.561283 278.215938 
L 372.71134 289.356538 
L 373.311569 298.610794 
L 373.461626 298.329435 
L 373.611683 299.611079 
L 373.76174 280.585689 
L 374.211911 300.272524 
L 374.361968 299.124628 
L 374.512025 312.836758 
L 374.662082 313.87177 
L 374.812139 307.206625 
L 375.262311 309.549894 
L 375.412368 313.559135 
L 375.562425 309.714376 
L 375.712482 310.510955 
L 375.862539 319.400158 
L 376.31271 324.997313 
L 376.462767 325.035797 
L 376.762882 327.517966 
L 376.912939 328.021048 
L 377.513167 325.335844 
L 377.663224 322.541301 
L 377.813281 330.836484 
L 377.963338 330.132128 
L 378.41351 323.401697 
L 378.563567 327.570344 
L 378.713624 324.88642 
L 378.863681 324.528981 
L 379.013738 324.627992 
L 379.463909 321.059328 
L 379.613966 313.64253 
L 379.914081 312.601667 
L 380.064138 305.512821 
L 380.514309 306.2624 
L 380.664366 307.924339 
L 380.814423 307.746274 
L 381.114537 310.985183 
L 381.564709 308.697983 
L 381.864823 301.997405 
L 382.01488 304.443643 
L 382.164937 303.377306 
L 382.765165 296.084216 
L 382.915222 297.25475 
L 383.065279 303.34337 
L 383.665508 302.566788 
L 383.965622 294.040108 
L 384.115679 298.542148 
L 384.265736 294.376255 
L 384.715907 294.032703 
L 384.865965 296.552959 
L 385.016022 294.34052 
L 385.166079 298.58472 
L 385.766307 294.121809 
L 386.066421 288.202306 
L 386.366535 296.159608 
L 386.966764 307.152583 
L 387.116821 306.739665 
L 387.266878 312.470442 
L 387.416935 309.886555 
L 387.867106 308.553121 
L 388.017163 309.937389 
L 388.317278 327.640467 
L 388.467335 325.605746 
L 388.917506 328.395807 
L 389.067563 325.445136 
L 389.21762 327.341996 
L 389.367677 327.323673 
L 389.517734 327.674278 
L 389.967906 331.612184 
L 390.117963 330.415871 
L 390.26802 332.143878 
L 390.418077 338.135603 
L 390.568134 337.640675 
L 391.018305 334.613117 
L 391.168362 335.332626 
L 391.318419 333.358587 
L 391.468477 334.02275 
L 391.618534 328.183546 
L 392.068705 326.822497 
L 392.518876 319.727794 
L 392.668933 319.001282 
L 393.269162 318.01002 
L 393.419219 320.670972 
L 393.569276 320.842153 
L 393.719333 319.900754 
L 394.319561 317.397036 
L 394.469618 317.570088 
L 394.619675 315.827482 
L 394.769733 318.42198 
L 395.219904 319.803881 
L 395.369961 319.572106 
L 395.670075 320.88952 
L 395.820132 324.309382 
L 396.270303 324.347721 
L 396.420361 322.785091 
L 396.570418 323.479593 
L 396.720475 319.113535 
L 396.870532 325.716568 
L 397.320703 329.815651 
L 397.770874 322.285344 
L 397.920931 321.263586 
L 398.52116 319.401878 
L 398.671217 318.330803 
L 398.821274 321.121754 
L 398.971331 319.606897 
L 399.421502 324.863382 
L 399.571559 324.033341 
L 399.721617 325.070892 
L 399.871674 324.906073 
L 400.021731 323.07823 
L 400.471902 311.742209 
L 400.772016 311.486884 
L 400.922073 309.775998 
L 401.07213 312.281139 
L 401.522302 311.589182 
L 401.672359 312.939801 
L 401.972473 292.399254 
L 402.12253 285.536201 
L 402.572701 283.334688 
L 402.722758 286.657925 
L 402.872816 283.885033 
L 403.022873 291.57741 
L 403.17293 276.238414 
L 403.623101 279.294309 
L 403.773158 278.36649 
L 404.073272 282.553196 
L 404.223329 280.752325 
L 404.673501 254.688596 
L 404.973615 255.289729 
L 405.123672 249.15682 
L 405.273729 250.042687 
L 405.7239 273.60647 
L 405.873957 272.872621 
L 406.024014 274.642491 
L 406.174072 274.544056 
L 406.324129 265.060013 
L 406.924357 270.606977 
L 407.074414 270.383199 
L 407.224471 268.973396 
L 407.374528 273.261053 
L 407.974757 277.227276 
L 408.124814 275.814223 
L 408.424928 290.942261 
L 409.025156 275.143759 
L 409.32527 262.52536 
L 409.475328 260.011876 
L 409.925499 265.698201 
L 410.225613 265.762151 
L 410.525727 255.105791 
L 410.975898 257.751228 
L 411.125956 257.286019 
L 411.276013 255.380879 
L 411.42607 260.199234 
L 411.576127 259.467046 
L 412.026298 262.417067 
L 412.176355 261.370234 
L 412.326412 261.261189 
L 412.476469 258.271894 
L 412.626526 258.324169 
L 413.376812 249.416119 
L 413.676926 254.993241 
L 414.127097 266.431176 
L 414.277154 266.595451 
L 414.427212 267.314151 
L 414.577269 259.513836 
L 414.727326 258.913423 
L 415.177497 267.074922 
L 415.327554 265.847194 
L 415.777725 280.944845 
L 416.227897 278.478668 
L 416.377954 282.619353 
L 416.528011 282.417368 
L 416.678068 285.070734 
L 417.278296 267.490322 
L 417.428353 266.075512 
L 417.57841 266.467306 
L 417.728468 276.973952 
L 417.878525 274.602547 
L 418.328696 291.144091 
L 418.478753 288.274589 
L 418.778867 279.487099 
L 418.928924 281.431157 
L 419.379096 275.908874 
L 419.529153 275.763585 
L 419.67921 276.946658 
L 419.979324 274.854964 
L 420.429495 278.614456 
L 420.579552 278.840428 
L 420.879666 281.461165 
L 421.029724 280.517481 
L 421.930066 264.072038 
L 422.080123 255.632191 
L 422.830409 242.164966 
L 422.980466 243.947244 
L 423.130523 243.359117 
L 423.580694 243.800959 
L 424.030865 241.611571 
L 424.180922 245.794618 
L 424.781151 235.41302 
L 425.081265 236.875885 
L 425.83155 214.894338 
L 425.981608 215.222184 
L 426.281722 219.380065 
L 426.731893 208.257377 
L 426.88195 207.95528 
L 427.032007 206.344095 
L 427.182064 207.602833 
L 427.332121 206.674336 
L 427.93235 218.493242 
L 428.082407 218.517352 
L 428.232464 213.27345 
L 428.382521 214.355571 
L 428.832692 206.165502 
L 428.982749 206.441827 
L 429.432921 192.19465 
L 429.883092 191.482708 
L 430.033149 192.210919 
L 430.183206 172.965366 
L 430.333263 177.020656 
L 430.48332 175.535202 
L 431.383663 163.310688 
L 431.53372 173.516453 
L 431.983891 168.449099 
L 432.284005 162.79687 
L 432.434062 166.217406 
L 432.58412 157.33568 
L 433.184348 162.891611 
L 433.334405 161.857102 
L 433.484462 162.536728 
L 433.634519 175.409194 
L 434.084691 182.770982 
L 434.234748 182.628556 
L 434.384805 175.981986 
L 434.534862 174.260847 
L 434.684919 169.502939 
L 435.13509 174.624297 
L 435.285147 174.193883 
L 435.585261 177.04347 
L 435.735319 182.483351 
L 436.335547 186.945386 
L 436.485604 183.551805 
L 436.635661 182.990169 
L 436.785718 187.05943 
L 437.235889 180.470631 
L 437.385947 184.219344 
L 437.536004 180.563192 
L 437.686061 180.23219 
L 437.836118 188.442999 
L 438.286289 194.616805 
L 438.436346 188.125253 
L 438.586403 187.41385 
L 438.73646 191.090138 
L 438.886517 187.912973 
L 439.336689 184.437317 
L 439.486746 182.029448 
L 439.78686 185.594864 
L 439.936917 190.446327 
L 440.387088 189.120183 
L 440.537145 192.548173 
L 440.687203 192.169759 
L 440.83726 186.915943 
L 441.437488 179.645499 
L 441.737602 182.306371 
L 442.037716 174.431783 
L 442.487888 133.124339 
L 442.637945 130.802757 
L 442.788002 133.019998 
L 442.938059 132.332507 
L 443.088116 138.767383 
L 443.688344 118.796431 
L 443.988459 121.672421 
L 444.138516 117.916032 
L 444.738744 91.837302 
L 444.888801 93.809258 
L 445.038858 106.829375 
L 445.188915 99.533336 
L 445.639087 107.978316 
L 445.789144 108.568951 
L 445.939201 121.973779 
L 446.089258 121.00839 
L 446.239315 125.517578 
L 446.689486 132.584996 
L 446.839543 133.047968 
L 446.9896 134.168849 
L 447.289715 131.674294 
L 447.889943 124.07239 
L 448.04 126.344811 
L 448.04 126.344811 
" style="fill:none;stroke:#0000ff;stroke-linecap:square;"/>
   </g>
   <g id="line2d_2">
    <path clip-path="url(#pa77d1cb53d)" d="M 96.306178 274.169766 
L 96.456235 275.049543 
L 96.906406 262.346172 
L 97.056463 263.248769 
L 97.356578 258.248312 
L 97.506635 252.536536 
L 98.106863 248.105413 
L 98.25692 247.742482 
L 98.406977 247.818444 
L 98.557034 248.077578 
L 99.157263 223.442032 
L 99.30732 226.948817 
L 99.457377 223.999739 
L 99.607434 231.999854 
L 100.057605 225.859584 
L 100.207662 221.776664 
L 100.507776 224.853171 
L 100.657834 231.121471 
L 101.108005 231.500942 
L 101.258062 226.589852 
L 101.408119 226.147577 
L 101.708233 229.314526 
L 102.308462 224.180878 
L 102.458519 225.044039 
L 102.608576 225.071587 
L 102.758633 225.703965 
L 103.208804 223.77438 
L 103.358861 225.58492 
L 103.508918 225.548709 
L 103.658975 226.141623 
L 103.809032 219.877914 
L 104.409261 224.576918 
L 104.559318 224.065831 
L 104.859432 232.120175 
L 105.45966 247.446045 
L 105.609718 247.437369 
L 105.759775 242.819714 
L 105.909832 245.636893 
L 106.360003 258.179017 
L 106.51006 257.900267 
L 106.660117 258.128335 
L 106.810174 255.857527 
L 106.960231 258.309246 
L 107.56046 259.110899 
L 107.710517 264.556972 
L 108.010631 257.921576 
L 108.610859 256.929718 
L 108.910974 252.662174 
L 109.061031 257.665935 
L 109.511202 259.741744 
L 109.661259 256.996821 
L 109.811316 256.94503 
L 109.961373 256.542381 
L 110.11143 253.149447 
L 110.561602 254.02138 
L 110.711659 262.053111 
L 110.861716 259.857137 
L 111.011773 260.186739 
L 111.16183 266.876881 
L 111.612001 251.187874 
L 111.762058 254.195466 
L 112.062172 250.652602 
L 112.21223 274.01441 
L 112.662401 271.427603 
L 112.812458 273.816957 
L 112.962515 271.930625 
L 113.112572 266.291285 
L 113.7128 263.587421 
L 114.012915 257.674106 
L 114.162972 259.884951 
L 114.313029 245.066005 
L 114.7632 240.765 
L 114.913257 243.077998 
L 115.063314 242.13493 
L 115.213371 257.367807 
L 115.363428 250.681999 
L 115.8136 248.763335 
L 115.963657 246.36161 
L 116.113714 249.833983 
L 116.263771 250.250408 
L 116.413828 247.995717 
L 116.863999 239.271689 
L 117.014056 233.039107 
L 117.164114 233.370959 
L 117.464228 239.227094 
L 117.914399 246.787657 
L 118.064456 246.858221 
L 118.214513 246.142506 
L 118.36457 246.918704 
L 118.514627 243.753197 
L 119.264913 250.106745 
L 119.41497 241.86396 
L 119.565027 243.971994 
L 120.165255 248.007394 
L 120.315312 247.937247 
L 120.46537 246.309116 
L 120.615427 257.637147 
L 121.065598 260.988706 
L 121.215655 259.206871 
L 121.365712 261.860043 
L 121.515769 257.38778 
L 121.665826 263.903552 
L 122.115998 257.127168 
L 122.266055 252.777339 
L 122.566169 259.068872 
L 122.716226 252.189461 
L 123.766626 215.657933 
L 124.366854 229.319526 
L 124.666968 226.921738 
L 124.817025 241.905211 
L 125.417254 223.698438 
L 125.567311 221.440357 
L 125.717368 230.369295 
L 125.867425 204.372249 
L 126.317596 210.954528 
L 126.467653 207.158525 
L 126.61771 210.744749 
L 126.917825 200.943977 
L 127.518053 193.85423 
L 127.66811 201.56813 
L 127.818167 203.196932 
L 127.968224 206.453699 
L 128.418395 211.206299 
L 128.568453 217.381507 
L 128.71851 213.946486 
L 128.868567 228.367321 
L 129.018624 226.71795 
L 129.468795 233.284004 
L 129.618852 219.514324 
L 129.768909 231.784237 
L 129.918966 224.748519 
L 130.069023 226.772223 
L 130.519195 212.897311 
L 130.969366 241.780303 
L 131.119423 241.881367 
L 131.569594 242.324864 
L 131.719651 231.325137 
L 132.019766 226.911669 
L 132.169823 221.527612 
L 132.619994 227.523411 
L 132.770051 226.680265 
L 132.920108 226.544946 
L 133.070165 230.948038 
L 133.220222 231.465761 
L 133.820451 239.642205 
L 133.970508 233.555616 
L 134.270622 240.678453 
L 134.87085 243.644128 
L 135.020907 242.375722 
L 135.170965 246.801081 
L 135.321022 247.462724 
L 135.771193 254.302494 
L 135.92125 254.321062 
L 136.071307 257.765434 
L 136.221364 267.784123 
L 136.371421 264.060176 
L 136.821593 260.374342 
L 136.97165 256.909768 
L 137.121707 261.789974 
L 137.271764 260.871474 
L 137.421821 273.830682 
L 137.871992 281.90859 
L 138.322163 274.236842 
L 138.472221 275.152957 
L 138.922392 289.416762 
L 139.222506 284.809886 
L 139.372563 286.533136 
L 139.52262 269.788873 
L 139.972791 275.317353 
L 140.122849 272.080602 
L 140.272906 275.996671 
L 140.422963 276.311996 
L 140.57302 274.400131 
L 141.023191 270.173454 
L 141.173248 275.454133 
L 141.323305 274.201766 
L 141.473362 269.776809 
L 141.623419 269.428534 
L 142.073591 275.984269 
L 142.223648 281.450648 
L 142.373705 279.038549 
L 142.523762 274.708342 
L 142.673819 274.516624 
L 143.274047 259.62167 
L 143.424105 264.238824 
L 143.574162 263.453845 
L 143.724219 252.974143 
L 144.17439 254.117345 
L 144.324447 252.642521 
L 144.474504 254.747046 
L 144.624561 259.298371 
L 144.774618 258.310138 
L 145.22479 267.039824 
L 145.374847 267.429798 
L 145.524904 271.528683 
L 145.825018 260.08292 
L 146.275189 256.804936 
L 146.425246 259.051867 
L 146.725361 248.31624 
L 146.875418 249.457494 
L 147.325589 249.484868 
L 147.475646 250.261891 
L 147.625703 250.418949 
L 147.77576 254.472092 
L 147.925817 249.9261 
L 148.526046 248.871628 
L 148.82616 253.228158 
L 149.426388 256.167883 
L 149.576445 252.708384 
L 149.726502 254.547509 
L 150.026617 249.32068 
L 150.626845 244.242893 
L 150.776902 244.465418 
L 150.926959 247.890832 
L 151.077016 245.508777 
L 151.677245 243.864849 
L 151.827302 242.721293 
L 152.127416 249.795787 
L 152.577587 263.963907 
L 152.727644 263.697252 
L 153.027758 261.148345 
L 153.177816 268.891634 
L 154.078158 251.881632 
L 154.228215 276.674401 
L 154.678386 269.577824 
L 154.828444 271.451311 
L 154.978501 276.102444 
L 155.128558 276.425542 
L 155.278615 275.715444 
L 155.728786 276.606043 
L 156.0289 275.356108 
L 156.178957 274.908312 
L 156.329014 272.005411 
L 156.779186 269.325279 
L 156.929243 270.234576 
L 157.0793 269.027405 
L 157.379414 270.434668 
L 157.829585 270.227614 
L 158.1297 272.799328 
L 158.279757 272.42639 
L 158.429814 265.519652 
L 159.030042 261.700524 
L 159.330156 266.194424 
L 159.480213 259.565526 
L 159.930385 259.752118 
L 160.080442 256.0518 
L 160.230499 256.108854 
L 160.380556 250.580509 
L 160.530613 251.346782 
L 160.980784 247.373858 
L 161.130841 251.312431 
L 161.280898 250.531507 
L 161.430956 247.349212 
L 161.581013 250.122167 
L 162.031184 244.076629 
L 162.181241 238.571054 
L 162.331298 239.347593 
L 162.481355 244.361771 
L 162.631412 243.074364 
L 163.081584 240.414519 
L 163.231641 240.617176 
L 163.531755 233.24631 
L 163.681812 237.707001 
L 164.28204 240.46677 
L 164.432097 236.860146 
L 164.582154 238.025012 
L 164.732212 232.287553 
L 165.182383 234.204799 
L 165.632554 240.024174 
L 166.232782 217.148571 
L 166.38284 218.975018 
L 166.532897 214.787104 
L 166.682954 205.661791 
L 166.833011 214.957503 
L 167.283182 225.588821 
L 167.433239 223.957365 
L 167.583296 224.945561 
L 167.88341 234.265351 
L 168.333582 239.249238 
L 168.483639 237.602773 
L 168.93381 226.154421 
L 169.383981 231.519237 
L 169.534038 231.711284 
L 169.834153 229.939235 
L 169.98421 238.815521 
L 170.584438 224.85138 
L 170.734495 226.533854 
L 170.884552 218.369798 
L 171.034609 228.820385 
L 171.484781 225.968793 
L 171.634838 222.652441 
L 171.784895 214.338207 
L 171.934952 213.929754 
L 172.085009 224.533448 
L 172.53518 219.533056 
L 172.685237 225.782624 
L 172.835294 221.713357 
L 172.985352 224.438732 
L 173.135409 234.40014 
L 173.735637 229.982026 
L 174.185808 238.823967 
L 174.63598 230.132361 
L 174.786037 234.062016 
L 175.086151 227.674544 
L 175.236208 228.623133 
L 175.686379 221.201713 
L 176.286608 227.820003 
L 176.886836 208.37494 
L 177.036893 210.436681 
L 177.337007 224.743756 
L 177.787178 244.667191 
L 178.087293 240.636444 
L 178.23735 242.975968 
L 178.387407 241.416174 
L 178.837578 241.011585 
L 179.287749 231.463802 
L 180.188092 274.102122 
L 180.338149 273.344498 
L 180.488206 273.851254 
L 180.938377 280.424455 
L 181.088434 279.703897 
L 181.238492 278.112335 
L 181.988777 258.496934 
L 182.138834 261.716257 
L 182.288891 261.545965 
L 182.438948 260.635081 
L 182.589005 246.489161 
L 183.039177 240.801096 
L 183.189234 240.513651 
L 183.339291 240.640465 
L 183.489348 226.244359 
L 183.639405 234.331236 
L 184.089576 228.99896 
L 184.239633 229.988859 
L 184.389691 229.259459 
L 184.539748 225.94426 
L 184.689805 216.561034 
L 185.290033 174.74835 
L 185.44009 175.30678 
L 185.590147 177.543414 
L 185.740204 188.673014 
L 186.340433 197.087991 
L 186.49049 193.529374 
L 186.640547 200.82162 
L 186.790604 200.909377 
L 187.240775 196.021474 
L 187.540889 187.272536 
L 187.690947 190.21994 
L 187.841004 187.00679 
L 188.441232 190.518411 
L 188.591289 190.667647 
L 188.891403 181.732604 
L 189.491632 198.207583 
L 189.641689 198.78963 
L 189.791746 191.999453 
L 189.941803 190.346408 
L 190.692088 169.296035 
L 190.992203 175.038025 
L 191.442374 152.025297 
L 191.592431 152.129851 
L 191.742488 150.095807 
L 191.892545 134.502873 
L 192.042602 140.228356 
L 192.642831 148.469315 
L 192.792888 145.855879 
L 193.093002 162.243177 
L 193.69323 200.301331 
L 193.843287 200.102761 
L 193.993344 192.305516 
L 194.143401 199.423081 
L 194.593573 200.971203 
L 194.74363 199.429206 
L 194.893687 194.960731 
L 195.043744 222.873561 
L 195.193801 221.938262 
L 195.643972 231.289494 
L 195.794029 230.612463 
L 195.944087 231.852328 
L 196.244201 222.513109 
L 196.994486 228.76705 
L 197.2946 233.101852 
L 197.744772 233.298459 
L 197.894829 233.797369 
L 198.194943 247.612959 
L 198.345 244.861111 
L 198.795171 234.092213 
L 199.095285 239.581092 
L 199.245343 235.372161 
L 199.3954 234.96394 
L 199.845571 217.596873 
L 199.995628 216.831707 
L 200.145685 218.614195 
L 200.445799 227.615017 
L 200.895971 247.215188 
L 201.496199 234.039642 
L 201.94637 236.8554 
L 202.246484 239.750035 
L 202.396541 237.58317 
L 202.546599 240.394291 
L 202.99677 240.062639 
L 203.146827 235.589332 
L 203.296884 235.323436 
L 203.446941 231.484175 
L 203.596998 235.518834 
L 204.047169 229.439 
L 204.197227 229.330753 
L 204.347284 229.701886 
L 204.497341 228.828177 
L 204.647398 234.494182 
L 205.097569 239.210818 
L 205.397683 239.453347 
L 205.54774 240.431044 
L 205.697797 250.576638 
L 206.448083 235.740348 
L 206.748197 218.22802 
L 207.348425 220.91429 
L 207.64854 217.710699 
L 207.798597 219.957894 
L 208.248768 206.014175 
L 208.398825 205.312436 
L 208.698939 210.759759 
L 208.848996 211.270344 
L 209.449225 211.481369 
L 209.749339 188.736148 
L 209.899396 190.125066 
L 210.349567 199.981342 
L 210.499624 198.774614 
L 210.649681 198.708941 
L 210.799739 204.433305 
L 210.949796 195.260716 
L 211.399967 201.498299 
L 211.700081 196.998082 
L 211.850138 198.678347 
L 212.000195 192.874189 
L 212.450367 191.394842 
L 212.600424 192.091118 
L 212.750481 191.216724 
L 212.900538 189.208858 
L 213.050595 192.043102 
L 213.650823 184.334287 
L 213.80088 190.105228 
L 213.950937 188.554786 
L 214.100995 191.592682 
L 214.551166 196.562058 
L 214.701223 196.814217 
L 215.001337 188.86952 
L 215.151394 181.957235 
L 215.601566 173.153237 
L 215.751623 166.188316 
L 216.051737 171.384153 
L 216.201794 178.691502 
L 216.651965 181.225838 
L 217.702365 200.423735 
L 218.002479 197.787825 
L 218.152536 202.31334 
L 218.752764 199.070766 
L 218.902822 198.01725 
L 219.202936 207.626003 
L 219.803164 197.985864 
L 219.953221 193.402615 
L 220.403392 202.369638 
L 220.853564 204.468896 
L 221.003621 203.371644 
L 221.153678 198.473199 
L 221.303735 188.922197 
L 221.453792 190.891542 
L 221.903963 187.040901 
L 222.05402 182.343124 
L 222.354135 194.421718 
L 222.504192 182.514671 
L 222.954363 189.673158 
L 223.404534 180.710862 
L 223.554591 183.593428 
L 224.15482 170.069253 
L 224.454934 173.915052 
L 225.055162 159.732739 
L 225.205219 161.47176 
L 225.355276 154.847303 
L 225.505334 155.008973 
L 225.655391 155.611388 
L 226.105562 150.420948 
L 226.255619 146.523589 
L 226.405676 134.7989 
L 226.555733 147.919422 
L 226.70579 137.777085 
L 227.155962 132.251755 
L 227.306019 132.897261 
L 227.606133 142.894325 
L 227.75619 148.511182 
L 228.356418 130.405309 
L 228.656532 139.822502 
L 228.80659 134.342658 
L 229.406818 145.898698 
L 229.556875 145.645683 
L 229.856989 127.146145 
L 230.30716 122.205716 
L 230.607275 130.105849 
L 230.757332 132.152481 
L 230.907389 139.870653 
L 231.657674 122.426619 
L 231.807731 121.973255 
L 232.558017 142.66539 
L 232.858131 138.337846 
L 233.008188 141.602773 
L 233.458359 137.310606 
L 233.608416 139.641381 
L 233.758474 137.920451 
L 234.508759 123.931017 
L 234.658816 123.863087 
L 234.808873 123.548911 
L 234.95893 116.415815 
L 235.108987 116.48083 
L 235.709216 139.6737 
L 235.859273 140.090454 
L 236.00933 146.034719 
L 236.159387 146.966372 
L 236.759615 159.755143 
L 236.909672 160.102082 
L 237.209787 165.795949 
L 237.659958 171.423631 
L 237.810015 168.12608 
L 237.960072 169.332129 
L 238.260186 161.735569 
L 238.710358 163.118142 
L 239.010472 168.585358 
L 239.310586 182.201649 
L 239.910814 189.584923 
L 240.210928 196.642303 
L 240.360986 194.843293 
L 240.961214 195.987657 
L 241.111271 194.581028 
L 241.261328 188.575015 
L 241.411385 193.6241 
L 241.861556 198.578841 
L 242.011614 204.373926 
L 242.161671 204.945574 
L 242.311728 202.487487 
L 242.461785 203.736562 
L 243.062013 209.881575 
L 243.512184 197.0933 
L 243.962356 201.836313 
L 244.112413 201.62248 
L 244.26247 199.028881 
L 244.412527 200.241992 
L 244.562584 205.147337 
L 245.012755 212.061275 
L 245.162812 212.614841 
L 245.31287 206.879102 
L 245.462927 214.668425 
L 245.612984 213.046678 
L 246.063155 220.505928 
L 246.213212 220.395628 
L 246.513326 225.92762 
L 246.663383 224.721446 
L 247.113555 228.802207 
L 247.263612 225.269307 
L 247.413669 224.956831 
L 247.563726 225.132436 
L 247.713783 221.137626 
L 248.163954 223.561085 
L 248.314011 227.524717 
L 248.464069 226.80824 
L 248.614126 221.29143 
L 248.764183 221.494858 
L 249.214354 193.590986 
L 249.364411 191.48 
L 249.514468 185.73582 
L 249.664525 187.588418 
L 249.814582 144.298477 
L 250.264754 144.44323 
L 250.414811 143.101851 
L 250.564868 134.263249 
L 250.714925 136.387704 
L 250.864982 140.136315 
L 251.315153 147.034118 
L 251.46521 139.483963 
L 251.615267 141.55474 
L 251.765325 138.834802 
L 251.915382 139.42682 
L 252.365553 129.384571 
L 252.51561 131.075364 
L 252.665667 130.624978 
L 252.815724 137.690611 
L 252.965781 130.844663 
L 253.56601 125.54079 
L 253.716067 117.719578 
L 253.866124 128.980413 
L 254.016181 130.590366 
L 254.466352 130.192647 
L 254.766466 133.578513 
L 254.916523 125.360463 
L 255.066581 131.61277 
L 255.516752 141.602937 
L 255.816866 135.588709 
L 256.11698 132.870787 
L 256.567151 130.961343 
L 256.717209 131.397786 
L 256.867266 129.637704 
L 257.017323 130.611463 
L 257.16738 132.412364 
L 257.617551 132.251616 
L 257.767608 129.978156 
L 257.917665 132.544516 
L 258.217779 148.085407 
L 258.667951 141.192324 
L 258.818008 142.252611 
L 259.268179 128.49844 
L 259.71835 118.289267 
L 260.168522 121.540533 
L 260.318579 121.215278 
L 260.76875 140.198969 
L 260.918807 136.477598 
L 261.218921 137.373738 
L 261.368978 139.339164 
L 261.81915 138.600258 
L 261.969207 131.481967 
L 262.119264 130.701337 
L 262.269321 125.690496 
L 262.419378 126.597201 
L 262.869549 118.042058 
L 263.019606 108.869857 
L 263.169663 109.140854 
L 263.319721 106.50732 
L 263.469778 107.548035 
L 264.070006 130.258922 
L 264.220063 129.830231 
L 264.37012 129.952614 
L 264.520177 143.197585 
L 264.970349 160.620252 
L 265.120406 153.752918 
L 265.270463 158.821364 
L 265.570577 130.700399 
L 266.020748 154.918857 
L 266.320862 151.877051 
L 266.620977 139.027877 
L 267.071148 146.08777 
L 267.221205 140.771929 
L 267.371262 141.84621 
L 267.521319 137.771349 
L 267.671376 143.291237 
L 268.271605 137.575722 
L 268.421662 140.183408 
L 268.571719 135.478277 
L 268.721776 135.275517 
L 269.171947 140.047486 
L 269.322004 137.776473 
L 269.472061 137.727895 
L 269.772175 153.345344 
L 270.222347 154.139138 
L 270.522461 149.558829 
L 270.672518 150.57766 
L 271.272746 143.991951 
L 271.422803 147.466752 
L 271.572861 145.272457 
L 271.722918 147.873134 
L 271.872975 154.341883 
L 272.323146 148.081396 
L 272.473203 142.299849 
L 272.62326 145.918602 
L 272.773317 146.258159 
L 272.923374 151.735804 
L 273.523603 151.056842 
L 273.973774 170.925881 
L 274.874117 147.863966 
L 275.024174 165.905947 
L 275.474345 174.360869 
L 275.774459 158.25682 
L 276.074573 180.416218 
L 276.524745 181.904312 
L 276.674802 179.505232 
L 276.824859 167.203827 
L 276.974916 179.811828 
L 277.575144 184.913447 
L 277.725201 181.13239 
L 278.025316 193.934722 
L 278.175373 201.361762 
L 278.625544 208.468077 
L 278.775601 202.361381 
L 278.925658 202.963368 
L 279.075715 205.894755 
L 279.225772 206.331816 
L 279.675944 214.270349 
L 279.976058 224.19763 
L 280.276172 221.559844 
L 280.726343 222.487209 
L 280.8764 220.780387 
L 281.176514 227.635613 
L 281.326572 226.802385 
L 281.776743 211.360196 
L 281.9268 210.850096 
L 282.226914 202.279307 
L 282.376971 200.790887 
L 282.9772 189.803986 
L 283.127257 192.203304 
L 283.277314 191.802493 
L 283.427371 188.773641 
L 284.177656 204.733779 
L 284.327713 203.217364 
L 284.47777 198.268139 
L 284.927942 193.336329 
L 285.228056 195.171311 
L 285.52817 207.901422 
L 285.978341 205.35133 
L 286.128398 206.057079 
L 286.428513 195.503448 
L 286.57857 193.38628 
L 287.178798 193.848447 
L 287.328855 186.046902 
L 287.478912 190.235902 
L 287.628969 187.537427 
L 288.079141 192.622793 
L 288.229198 188.573898 
L 288.379255 188.754701 
L 288.529312 191.548244 
L 289.12954 199.003077 
L 289.279597 204.922025 
L 289.429654 202.275471 
L 289.579712 205.467583 
L 289.729769 199.494454 
L 290.17994 188.477592 
L 290.329997 188.526732 
L 290.480054 189.684235 
L 290.630111 199.407917 
L 290.780168 185.493936 
L 291.23034 181.875908 
L 291.380397 178.961963 
L 291.530454 178.276329 
L 291.680511 178.584049 
L 291.830568 184.159311 
L 292.430796 191.589883 
L 292.580853 190.612506 
L 292.73091 198.622529 
L 292.880968 198.735342 
L 293.331139 192.70248 
L 293.481196 197.144746 
L 293.631253 196.430025 
L 293.78131 196.369269 
L 293.931367 191.856933 
L 294.381538 183.396712 
L 294.531596 186.338774 
L 294.681653 179.454919 
L 294.83171 182.83942 
L 294.981767 183.418546 
L 295.431938 180.319286 
L 295.581995 177.675312 
L 295.732052 179.00855 
L 295.882109 178.1902 
L 296.032166 172.361472 
L 296.482338 172.441001 
L 296.632395 173.793583 
L 296.932509 178.799293 
L 297.082566 182.58606 
L 297.682794 186.495933 
L 297.832852 186.156434 
L 297.982909 186.996715 
L 298.132966 184.962225 
L 298.583137 183.103385 
L 298.733194 187.899241 
L 298.883251 186.748456 
L 299.033308 187.242825 
L 299.633537 197.1583 
L 299.933651 190.832478 
L 300.233765 178.779059 
L 300.683936 179.720761 
L 300.833993 183.20628 
L 300.98405 179.374444 
L 301.284165 189.313435 
L 301.884393 183.817072 
L 302.03445 188.918073 
L 302.184507 185.461094 
L 302.334564 177.920715 
L 302.784736 183.688792 
L 302.934793 191.32942 
L 303.08485 186.411572 
L 303.384964 205.605504 
L 303.835135 249.732268 
L 303.985192 247.442894 
L 304.135249 251.271424 
L 304.285306 251.891548 
L 304.435364 259.317758 
L 304.885535 256.659075 
L 305.185649 250.935273 
L 305.335706 245.449057 
L 305.485763 252.811239 
L 305.935934 250.057821 
L 306.085992 246.182715 
L 306.236049 245.977758 
L 306.386106 245.270117 
L 306.536163 239.889062 
L 306.986334 240.302351 
L 307.136391 240.837158 
L 307.286448 244.783168 
L 307.586562 246.050243 
L 308.036734 248.497579 
L 308.186791 247.171381 
L 308.486905 248.995635 
L 308.636962 247.861428 
L 309.237191 253.991089 
L 309.387248 253.061256 
L 309.687362 259.210042 
L 310.137533 258.66943 
L 310.28759 257.833211 
L 310.437647 258.161231 
L 310.737761 255.978384 
L 311.187933 263.563966 
L 311.33799 263.586844 
L 311.488047 264.698726 
L 311.638104 263.843375 
L 311.788161 270.749804 
L 312.388389 261.669614 
L 312.838561 270.491494 
L 313.288732 279.283735 
L 313.438789 287.472145 
L 313.588846 283.24673 
L 313.738903 283.435462 
L 313.88896 280.465357 
L 314.339132 278.070908 
L 314.489189 275.567204 
L 314.639246 276.363837 
L 314.93936 274.541684 
L 315.389531 272.867428 
L 315.539588 272.827556 
L 315.689645 274.60848 
L 315.98976 282.224171 
L 316.439931 285.228538 
L 316.589988 290.38737 
L 316.740045 290.75988 
L 316.890102 288.681969 
L 317.040159 296.49267 
L 317.490331 298.238847 
L 317.940502 294.307356 
L 318.090559 294.078226 
L 318.690787 287.0077 
L 318.840844 282.155146 
L 318.990901 270.255337 
L 319.140959 272.439297 
L 319.891244 296.405612 
L 320.191358 277.908908 
L 320.641529 288.089675 
L 320.791587 287.773696 
L 320.941644 290.467838 
L 321.091701 287.621482 
L 321.241758 289.403805 
L 321.691929 292.987847 
L 321.841986 289.280123 
L 321.992043 289.674908 
L 322.292157 285.85651 
L 322.892386 287.058894 
L 323.042443 288.335817 
L 323.1925 288.635957 
L 323.342557 291.554033 
L 323.792728 293.616151 
L 323.942785 291.932899 
L 324.092843 288.799956 
L 324.2429 281.711857 
L 324.392957 282.811743 
L 324.993185 276.648122 
L 325.143242 276.756926 
L 325.293299 275.350298 
L 325.443356 276.229459 
L 325.893528 270.368689 
L 326.193642 277.744311 
L 326.343699 279.690855 
L 326.493756 286.609236 
L 326.943927 278.359759 
L 327.093984 279.878378 
L 327.544156 271.071495 
L 327.994327 263.595348 
L 328.144384 258.621948 
L 328.294441 263.608459 
L 328.444498 263.961457 
L 328.594555 271.286619 
L 329.044727 259.287134 
L 329.494898 264.479892 
L 330.095126 260.450643 
L 330.245183 260.330824 
L 330.39524 258.215561 
L 330.695355 261.662133 
L 331.145526 261.889158 
L 331.295583 265.893836 
L 331.44564 264.917753 
L 331.595697 260.893326 
L 331.745754 268.209048 
L 332.195925 254.194086 
L 332.345983 254.862025 
L 332.796154 245.977768 
L 333.546439 253.493333 
L 333.696496 258.874391 
L 333.846553 252.485891 
L 334.296725 252.895345 
L 334.596839 260.701512 
L 334.746896 262.929509 
L 335.347124 256.21155 
L 335.497181 259.33953 
L 335.797296 258.878533 
L 335.947353 261.406247 
L 336.397524 272.314685 
L 336.697638 269.231055 
L 336.847695 267.797632 
L 336.997752 274.453775 
L 337.597981 275.330161 
L 337.898095 269.535693 
L 338.048152 269.046435 
L 338.498323 273.10848 
L 338.64838 270.82733 
L 338.798437 270.330664 
L 338.948495 274.347143 
L 339.098552 275.163308 
L 339.548723 274.337613 
L 339.69878 274.399657 
L 339.998894 267.633759 
L 340.148951 268.098732 
L 340.599123 276.105369 
L 340.899237 275.19999 
L 341.049294 275.503652 
L 341.199351 275.385199 
L 341.649522 279.831256 
L 341.799579 278.861198 
L 342.099694 280.312664 
L 342.249751 284.683629 
L 342.699922 289.722602 
L 342.849979 290.144964 
L 343.000036 289.588784 
L 343.150093 288.004158 
L 343.750322 287.067026 
L 343.900379 286.155101 
L 344.050436 289.612817 
L 344.200493 290.125993 
L 344.35055 286.141025 
L 344.800721 283.230745 
L 344.950778 277.252047 
L 345.100835 277.613646 
L 345.250892 267.279972 
L 345.40095 231.142239 
L 346.001178 232.868367 
L 346.151235 232.951394 
L 346.451349 247.443333 
L 346.90152 236.857475 
L 347.051578 236.537821 
L 347.201635 234.840197 
L 347.351692 237.930584 
L 347.501749 237.091973 
L 347.95192 236.445556 
L 348.101977 237.288189 
L 348.252034 231.041529 
L 348.402091 231.081413 
L 348.552148 231.755651 
L 349.00232 237.599806 
L 349.152377 226.066126 
L 349.302434 226.586314 
L 349.602548 234.01472 
L 350.052719 230.419746 
L 350.202776 232.409304 
L 350.352834 230.407154 
L 350.502891 235.208528 
L 350.652948 248.639908 
L 351.253176 258.814784 
L 351.403233 238.897062 
L 351.55329 235.051264 
L 351.703347 240.820611 
L 352.153519 249.867555 
L 352.303576 258.403815 
L 352.453633 251.498874 
L 352.60369 256.435398 
L 352.753747 255.002738 
L 353.353975 246.705291 
L 353.504032 247.5294 
L 353.65409 242.70277 
L 353.804147 243.97048 
L 354.254318 252.147915 
L 354.404375 247.266324 
L 354.554432 246.921742 
L 354.704489 240.172248 
L 354.854546 243.041934 
L 355.304718 238.570235 
L 355.454775 243.972527 
L 355.604832 244.112351 
L 355.754889 242.31435 
L 355.904946 248.631457 
L 356.355117 254.954203 
L 356.505174 254.9202 
L 356.655231 249.203282 
L 356.805288 248.914965 
L 356.955346 235.889403 
L 357.555574 217.954248 
L 357.705631 219.337431 
L 357.855688 214.702258 
L 358.005745 215.25675 
L 358.605974 195.778681 
L 358.906088 197.140077 
L 359.056145 200.289599 
L 359.506316 206.065949 
L 359.80643 216.707015 
L 359.956487 213.088984 
L 360.106544 195.086835 
L 360.556716 196.066281 
L 360.706773 197.942581 
L 360.85683 195.991929 
L 361.006887 192.07568 
L 361.156944 194.139468 
L 361.607115 181.888877 
L 361.757172 181.414304 
L 361.90723 178.725057 
L 362.057287 181.217674 
L 362.207344 181.764135 
L 362.657515 182.220589 
L 362.807572 180.679971 
L 363.107686 174.54284 
L 363.257743 180.124429 
L 363.707915 176.189357 
L 363.857972 177.854384 
L 364.008029 171.166977 
L 364.158086 172.992876 
L 364.308143 165.892553 
L 364.758314 166.645637 
L 364.908371 170.120572 
L 365.058428 170.179239 
L 365.358543 164.101459 
L 365.808714 162.111855 
L 365.958771 150.734382 
L 366.108828 152.903737 
L 366.258885 158.627947 
L 366.859114 147.977332 
L 367.009171 148.392209 
L 367.159228 153.465017 
L 367.309285 151.136479 
L 367.459342 143.108658 
L 368.05957 155.767697 
L 368.209627 148.811105 
L 368.509742 167.100756 
L 368.959913 165.421797 
L 369.10997 164.400721 
L 369.260027 164.258778 
L 369.410084 162.742535 
L 370.010312 152.538849 
L 370.16037 145.973954 
L 370.310427 148.583139 
L 370.460484 146.702604 
L 371.210769 141.853625 
L 371.360826 141.341092 
L 371.660941 155.713894 
L 372.111112 163.209785 
L 372.261169 158.377856 
L 372.411226 170.654998 
L 372.561283 163.840245 
L 372.71134 172.81753 
L 373.461626 191.510883 
L 373.611683 184.990675 
L 373.76174 165.872676 
L 374.211911 182.250046 
L 374.361968 181.623323 
L 374.512025 187.593201 
L 374.812139 164.549886 
L 375.262311 161.520154 
L 375.412368 155.694899 
L 375.862539 196.514104 
L 376.462767 205.789816 
L 376.612825 203.113033 
L 376.762882 203.562875 
L 376.912939 200.424554 
L 377.513167 194.304077 
L 377.663224 186.409667 
L 377.963338 188.111365 
L 378.563567 203.100271 
L 378.713624 201.475667 
L 379.013738 207.265441 
L 379.463909 207.254444 
L 379.613966 198.191672 
L 379.764023 198.174443 
L 379.914081 201.575262 
L 380.064138 194.612871 
L 380.664366 197.771572 
L 380.814423 192.736548 
L 380.96448 193.479387 
L 381.114537 185.170411 
L 381.714766 189.99288 
L 382.01488 184.976224 
L 382.164937 191.496655 
L 382.615108 176.890031 
L 382.765165 177.487581 
L 382.915222 178.687139 
L 383.065279 182.109694 
L 383.665508 172.882792 
L 383.965622 165.120606 
L 384.115679 168.447877 
L 384.265736 166.353733 
L 384.715907 170.336353 
L 384.865965 173.727908 
L 385.016022 170.155228 
L 385.166079 172.082701 
L 385.316136 167.046044 
L 385.766307 164.346564 
L 386.066421 157.058248 
L 386.216478 163.805131 
L 386.366535 160.240735 
L 386.966764 181.558329 
L 387.116821 182.103578 
L 387.266878 173.572012 
L 387.416935 190.380476 
L 387.867106 179.077115 
L 388.017163 185.900471 
L 388.167221 186.946022 
L 388.317278 195.355945 
L 388.467335 188.564477 
L 388.917506 190.603233 
L 389.067563 193.260988 
L 389.21762 191.743569 
L 389.367677 187.641261 
L 389.517734 179.13196 
L 389.967906 181.27807 
L 390.117963 176.569459 
L 390.26802 180.183364 
L 390.418077 180.138897 
L 390.568134 184.352909 
L 391.018305 183.437382 
L 391.168362 188.082365 
L 391.318419 187.901274 
L 391.468477 190.757983 
L 391.618534 181.791097 
L 392.068705 184.189867 
L 392.368819 174.52587 
L 392.518876 176.225862 
L 392.668933 175.54466 
L 393.269162 170.497123 
L 393.419219 171.216941 
L 393.569276 168.804572 
L 393.719333 172.456418 
L 394.169504 178.669089 
L 394.319561 178.623154 
L 394.619675 169.886636 
L 394.769733 174.739993 
L 395.219904 180.518345 
L 395.369961 180.55935 
L 395.520018 180.263202 
L 395.670075 185.065291 
L 395.820132 194.86582 
L 396.420361 187.751371 
L 396.570418 187.052327 
L 396.720475 178.729597 
L 396.870532 190.610546 
L 397.320703 195.613583 
L 397.620817 188.208763 
L 397.920931 182.162263 
L 398.52116 187.478349 
L 398.671217 185.965449 
L 398.971331 200.304496 
L 399.421502 247.969749 
L 399.571559 245.953046 
L 399.721617 247.28298 
L 399.871674 241.924775 
L 400.021731 242.041846 
L 400.471902 220.067803 
L 400.772016 217.162049 
L 400.922073 219.874453 
L 401.07213 218.613443 
L 401.522302 218.669465 
L 401.672359 219.197118 
L 401.822416 217.887755 
L 401.972473 218.856137 
L 402.12253 209.065069 
L 402.722758 211.032498 
L 402.872816 210.220374 
L 403.022873 210.088901 
L 403.17293 218.350387 
L 403.623101 216.909327 
L 403.773158 215.979046 
L 403.923215 215.822759 
L 404.073272 217.416704 
L 404.223329 215.926296 
L 404.673501 195.435696 
L 404.823558 197.551634 
L 404.973615 196.445757 
L 405.273729 182.059175 
L 405.7239 208.29726 
L 405.873957 208.324413 
L 406.024014 209.270882 
L 406.174072 203.504503 
L 406.324129 193.03608 
L 406.7743 193.49853 
L 407.074414 195.57455 
L 407.224471 194.870332 
L 407.374528 200.911631 
L 407.974757 202.992073 
L 408.124814 202.886569 
L 408.274871 203.62222 
L 408.424928 215.350471 
L 408.875099 208.975693 
L 409.025156 212.601272 
L 409.32527 210.832367 
L 409.475328 205.882448 
L 410.075556 199.582585 
L 410.225613 197.660672 
L 410.37567 184.238548 
L 410.525727 184.409461 
L 410.975898 205.83593 
L 411.125956 202.403541 
L 411.276013 202.969105 
L 411.42607 212.385189 
L 411.576127 213.338543 
L 412.026298 214.298294 
L 412.176355 212.82799 
L 412.326412 212.812793 
L 412.476469 214.061241 
L 412.626526 217.263857 
L 413.076698 217.59746 
L 413.226755 218.65723 
L 413.376812 217.523608 
L 413.526869 222.141652 
L 413.676926 215.06402 
L 414.127097 236.134187 
L 414.427212 228.610416 
L 414.577269 234.407649 
L 414.727326 231.923833 
L 415.177497 228.097664 
L 415.477611 232.927501 
L 415.627668 238.115245 
L 415.777725 238.500604 
L 416.227897 246.367197 
L 416.377954 246.677116 
L 416.528011 251.645813 
L 416.678068 250.727493 
L 416.828125 251.975156 
L 417.428353 238.219897 
L 417.57841 239.993282 
L 417.728468 252.018633 
L 417.878525 253.606968 
L 418.328696 269.921204 
L 418.62881 260.742721 
L 418.778867 258.356798 
L 418.928924 259.28311 
L 419.379096 257.116557 
L 419.529153 257.41966 
L 419.979324 264.998126 
L 420.579552 262.004329 
L 420.879666 268.200702 
L 421.029724 267.096611 
L 421.479895 255.462667 
L 421.629952 256.591176 
L 421.780009 252.593406 
L 421.930066 253.920809 
L 422.080123 248.195077 
L 422.530294 246.765443 
L 422.680352 244.506459 
L 422.830409 244.185637 
L 423.130523 249.9874 
L 423.730751 247.599992 
L 423.880808 248.207704 
L 424.180922 259.098601 
L 424.781151 252.762661 
L 424.931208 254.857059 
L 425.081265 249.79164 
L 425.231322 253.661051 
L 425.83155 238.760851 
L 425.981608 238.500746 
L 426.131665 236.656026 
L 426.281722 236.320449 
L 426.731893 223.782723 
L 426.88195 224.437647 
L 427.032007 223.339065 
L 427.182064 223.884835 
L 427.93235 236.532709 
L 428.082407 236.040461 
L 428.232464 232.191114 
L 428.382521 231.746758 
L 428.832692 238.157531 
L 428.982749 236.656726 
L 429.132806 232.773065 
L 429.432921 244.530919 
L 429.883092 220.810891 
L 430.033149 222.789049 
L 430.183206 223.178957 
L 430.333263 221.81937 
L 430.48332 218.799311 
L 430.933492 220.669977 
L 431.083549 218.652595 
L 431.383663 217.724527 
L 431.53372 219.880481 
L 431.983891 222.008301 
L 432.133948 221.586176 
L 432.434062 222.550667 
L 432.58412 216.827155 
L 433.334405 219.699373 
L 433.484462 216.48542 
L 433.634519 225.927799 
L 434.084691 222.567198 
L 434.234748 224.655077 
L 434.534862 215.63785 
L 434.684919 215.682986 
L 435.13509 229.323662 
L 435.435204 226.770174 
L 435.585261 227.074154 
L 435.735319 224.707285 
L 436.18549 227.506124 
L 436.335547 227.479603 
L 436.485604 226.955815 
L 436.635661 228.134512 
L 436.785718 226.526043 
L 437.235889 225.678247 
L 437.385947 231.644158 
L 437.536004 231.933475 
L 437.836118 240.418687 
L 438.286289 240.595011 
L 438.436346 240.135253 
L 438.73646 235.004747 
L 438.886517 232.878219 
L 439.336689 230.406329 
L 439.636803 232.768354 
L 439.78686 232.801341 
L 439.936917 236.444563 
L 440.387088 242.11358 
L 440.537145 242.558167 
L 440.687203 242.245668 
L 440.83726 245.124311 
L 441.437488 223.010241 
L 441.587545 223.12931 
L 441.737602 222.656438 
L 441.887659 223.220392 
L 442.037716 216.656317 
L 442.637945 200.028509 
L 442.788002 200.229629 
L 442.938059 201.637846 
L 443.088116 187.851769 
L 443.538287 194.019728 
L 443.688344 192.689007 
L 443.838401 189.044139 
L 443.988459 188.255406 
L 444.138516 194.32959 
L 444.588687 186.41668 
L 444.888801 188.315537 
L 445.038858 190.218311 
L 445.188915 185.043457 
L 445.639087 184.965312 
L 445.789144 182.92573 
L 445.939201 190.980704 
L 446.089258 184.818882 
L 446.239315 190.64814 
L 446.689486 193.469704 
L 446.9896 189.097628 
L 447.139657 184.231607 
L 447.289715 184.935989 
L 447.889943 177.462465 
L 448.04 181.192894 
L 448.04 181.192894 
" style="fill:none;stroke:#008000;stroke-linecap:square;"/>
   </g>
   <g id="patch_3">
    <path d="M 42.285625 361.098447 
L 42.285625 18.766875 
" style="fill:none;stroke:#000000;stroke-linecap:square;stroke-linejoin:miter;"/>
   </g>
   <g id="patch_4">
    <path d="M 42.285625 361.098447 
L 448.04 361.098447 
" style="fill:none;stroke:#000000;stroke-linecap:square;stroke-linejoin:miter;"/>
   </g>
   <g id="patch_5">
    <path d="M 42.285625 18.766875 
L 448.04 18.766875 
" style="fill:none;stroke:#000000;stroke-linecap:square;stroke-linejoin:miter;"/>
   </g>
   <g id="patch_6">
    <path d="M 448.04 361.098447 
L 448.04 18.766875 
" style="fill:none;stroke:#000000;stroke-linecap:square;stroke-linejoin:miter;"/>
   </g>
   <g id="matplotlib.axis_1">
    <g id="xtick_1">
     <g id="line2d_3">
      <defs>
       <path d="M 0 0 
L 0 -4 
" id="m5d333379e4" style="stroke:#000000;stroke-width:0.5;"/>
      </defs>
      <g>
       <use style="stroke:#000000;stroke-width:0.5;" x="96.6062920673" xlink:href="#m5d333379e4" y="361.098447467"/>
      </g>
     </g>
     <g id="line2d_4">
      <defs>
       <path d="M 0 0 
L 0 4 
" id="m3ef8998933" style="stroke:#000000;stroke-width:0.5;"/>
      </defs>
      <g>
       <use style="stroke:#000000;stroke-width:0.5;" x="96.6062920673" xlink:href="#m3ef8998933" y="18.766875"/>
      </g>
     </g>
     <g id="text_1">
      <!-- 2011 -->
      <defs>
       <path d="M 19.1875 8.296875 
L 53.609375 8.296875 
L 53.609375 0 
L 7.328125 0 
L 7.328125 8.296875 
Q 12.9375 14.109375 22.625 23.890625 
Q 32.328125 33.6875 34.8125 36.53125 
Q 39.546875 41.84375 41.421875 45.53125 
Q 43.3125 49.21875 43.3125 52.78125 
Q 43.3125 58.59375 39.234375 62.25 
Q 35.15625 65.921875 28.609375 65.921875 
Q 23.96875 65.921875 18.8125 64.3125 
Q 13.671875 62.703125 7.8125 59.421875 
L 7.8125 69.390625 
Q 13.765625 71.78125 18.9375 73 
Q 24.125 74.21875 28.421875 74.21875 
Q 39.75 74.21875 46.484375 68.546875 
Q 53.21875 62.890625 53.21875 53.421875 
Q 53.21875 48.921875 51.53125 44.890625 
Q 49.859375 40.875 45.40625 35.40625 
Q 44.1875 33.984375 37.640625 27.21875 
Q 31.109375 20.453125 19.1875 8.296875 
" id="BitstreamVeraSans-Roman-32"/>
       <path d="M 12.40625 8.296875 
L 28.515625 8.296875 
L 28.515625 63.921875 
L 10.984375 60.40625 
L 10.984375 69.390625 
L 28.421875 72.90625 
L 38.28125 72.90625 
L 38.28125 8.296875 
L 54.390625 8.296875 
L 54.390625 0 
L 12.40625 0 
z
" id="BitstreamVeraSans-Roman-31"/>
       <path d="M 31.78125 66.40625 
Q 24.171875 66.40625 20.328125 58.90625 
Q 16.5 51.421875 16.5 36.375 
Q 16.5 21.390625 20.328125 13.890625 
Q 24.171875 6.390625 31.78125 6.390625 
Q 39.453125 6.390625 43.28125 13.890625 
Q 47.125 21.390625 47.125 36.375 
Q 47.125 51.421875 43.28125 58.90625 
Q 39.453125 66.40625 31.78125 66.40625 
M 31.78125 74.21875 
Q 44.046875 74.21875 50.515625 64.515625 
Q 56.984375 54.828125 56.984375 36.375 
Q 56.984375 17.96875 50.515625 8.265625 
Q 44.046875 -1.421875 31.78125 -1.421875 
Q 19.53125 -1.421875 13.0625 8.265625 
Q 6.59375 17.96875 6.59375 36.375 
Q 6.59375 54.828125 13.0625 64.515625 
Q 19.53125 74.21875 31.78125 74.21875 
" id="BitstreamVeraSans-Roman-30"/>
      </defs>
      <g transform="translate(68.9100637357 388.264975352)rotate(-30.0)scale(0.12 -0.12)">
       <use xlink:href="#BitstreamVeraSans-Roman-32"/>
       <use x="63.623046875" xlink:href="#BitstreamVeraSans-Roman-30"/>
       <use x="127.24609375" xlink:href="#BitstreamVeraSans-Roman-31"/>
       <use x="190.869140625" xlink:href="#BitstreamVeraSans-Roman-31"/>
      </g>
     </g>
    </g>
    <g id="xtick_2">
     <g id="line2d_5">
      <g>
       <use style="stroke:#000000;stroke-width:0.5;" x="151.377130409" xlink:href="#m5d333379e4" y="361.098447467"/>
      </g>
     </g>
     <g id="line2d_6">
      <g>
       <use style="stroke:#000000;stroke-width:0.5;" x="151.377130409" xlink:href="#m3ef8998933" y="18.766875"/>
      </g>
     </g>
     <g id="text_2">
      <!-- 2012 -->
      <g transform="translate(123.680902077 388.264975352)rotate(-30.0)scale(0.12 -0.12)">
       <use xlink:href="#BitstreamVeraSans-Roman-32"/>
       <use x="63.623046875" xlink:href="#BitstreamVeraSans-Roman-30"/>
       <use x="127.24609375" xlink:href="#BitstreamVeraSans-Roman-31"/>
       <use x="190.869140625" xlink:href="#BitstreamVeraSans-Roman-32"/>
      </g>
     </g>
    </g>
    <g id="xtick_3">
     <g id="line2d_7">
      <g>
       <use style="stroke:#000000;stroke-width:0.5;" x="206.298025841" xlink:href="#m5d333379e4" y="361.098447467"/>
      </g>
     </g>
     <g id="line2d_8">
      <g>
       <use style="stroke:#000000;stroke-width:0.5;" x="206.298025841" xlink:href="#m3ef8998933" y="18.766875"/>
      </g>
     </g>
     <g id="text_3">
      <!-- 2013 -->
      <defs>
       <path d="M 40.578125 39.3125 
Q 47.65625 37.796875 51.625 33 
Q 55.609375 28.21875 55.609375 21.1875 
Q 55.609375 10.40625 48.1875 4.484375 
Q 40.765625 -1.421875 27.09375 -1.421875 
Q 22.515625 -1.421875 17.65625 -0.515625 
Q 12.796875 0.390625 7.625 2.203125 
L 7.625 11.71875 
Q 11.71875 9.328125 16.59375 8.109375 
Q 21.484375 6.890625 26.8125 6.890625 
Q 36.078125 6.890625 40.9375 10.546875 
Q 45.796875 14.203125 45.796875 21.1875 
Q 45.796875 27.640625 41.28125 31.265625 
Q 36.765625 34.90625 28.71875 34.90625 
L 20.21875 34.90625 
L 20.21875 43.015625 
L 29.109375 43.015625 
Q 36.375 43.015625 40.234375 45.921875 
Q 44.09375 48.828125 44.09375 54.296875 
Q 44.09375 59.90625 40.109375 62.90625 
Q 36.140625 65.921875 28.71875 65.921875 
Q 24.65625 65.921875 20.015625 65.03125 
Q 15.375 64.15625 9.8125 62.3125 
L 9.8125 71.09375 
Q 15.4375 72.65625 20.34375 73.4375 
Q 25.25 74.21875 29.59375 74.21875 
Q 40.828125 74.21875 47.359375 69.109375 
Q 53.90625 64.015625 53.90625 55.328125 
Q 53.90625 49.265625 50.4375 45.09375 
Q 46.96875 40.921875 40.578125 39.3125 
" id="BitstreamVeraSans-Roman-33"/>
      </defs>
      <g transform="translate(178.60179751 388.264975352)rotate(-30.0)scale(0.12 -0.12)">
       <use xlink:href="#BitstreamVeraSans-Roman-32"/>
       <use x="63.623046875" xlink:href="#BitstreamVeraSans-Roman-30"/>
       <use x="127.24609375" xlink:href="#BitstreamVeraSans-Roman-31"/>
       <use x="190.869140625" xlink:href="#BitstreamVeraSans-Roman-33"/>
      </g>
     </g>
    </g>
    <g id="xtick_4">
     <g id="line2d_9">
      <g>
       <use style="stroke:#000000;stroke-width:0.5;" x="261.068864183" xlink:href="#m5d333379e4" y="361.098447467"/>
      </g>
     </g>
     <g id="line2d_10">
      <g>
       <use style="stroke:#000000;stroke-width:0.5;" x="261.068864183" xlink:href="#m3ef8998933" y="18.766875"/>
      </g>
     </g>
     <g id="text_4">
      <!-- 2014 -->
      <defs>
       <path d="M 37.796875 64.3125 
L 12.890625 25.390625 
L 37.796875 25.390625 
z
M 35.203125 72.90625 
L 47.609375 72.90625 
L 47.609375 25.390625 
L 58.015625 25.390625 
L 58.015625 17.1875 
L 47.609375 17.1875 
L 47.609375 0 
L 37.796875 0 
L 37.796875 17.1875 
L 4.890625 17.1875 
L 4.890625 26.703125 
z
" id="BitstreamVeraSans-Roman-34"/>
      </defs>
      <g transform="translate(233.372635851 388.264975352)rotate(-30.0)scale(0.12 -0.12)">
       <use xlink:href="#BitstreamVeraSans-Roman-32"/>
       <use x="63.623046875" xlink:href="#BitstreamVeraSans-Roman-30"/>
       <use x="127.24609375" xlink:href="#BitstreamVeraSans-Roman-31"/>
       <use x="190.869140625" xlink:href="#BitstreamVeraSans-Roman-34"/>
      </g>
     </g>
    </g>
    <g id="xtick_5">
     <g id="line2d_11">
      <g>
       <use style="stroke:#000000;stroke-width:0.5;" x="315.839702524" xlink:href="#m5d333379e4" y="361.098447467"/>
      </g>
     </g>
     <g id="line2d_12">
      <g>
       <use style="stroke:#000000;stroke-width:0.5;" x="315.839702524" xlink:href="#m3ef8998933" y="18.766875"/>
      </g>
     </g>
     <g id="text_5">
      <!-- 2015 -->
      <defs>
       <path d="M 10.796875 72.90625 
L 49.515625 72.90625 
L 49.515625 64.59375 
L 19.828125 64.59375 
L 19.828125 46.734375 
Q 21.96875 47.46875 24.109375 47.828125 
Q 26.265625 48.1875 28.421875 48.1875 
Q 40.625 48.1875 47.75 41.5 
Q 54.890625 34.8125 54.890625 23.390625 
Q 54.890625 11.625 47.5625 5.09375 
Q 40.234375 -1.421875 26.90625 -1.421875 
Q 22.3125 -1.421875 17.546875 -0.640625 
Q 12.796875 0.140625 7.71875 1.703125 
L 7.71875 11.625 
Q 12.109375 9.234375 16.796875 8.0625 
Q 21.484375 6.890625 26.703125 6.890625 
Q 35.15625 6.890625 40.078125 11.328125 
Q 45.015625 15.765625 45.015625 23.390625 
Q 45.015625 31 40.078125 35.4375 
Q 35.15625 39.890625 26.703125 39.890625 
Q 22.75 39.890625 18.8125 39.015625 
Q 14.890625 38.140625 10.796875 36.28125 
z
" id="BitstreamVeraSans-Roman-35"/>
      </defs>
      <g transform="translate(288.143474192 388.264975352)rotate(-30.0)scale(0.12 -0.12)">
       <use xlink:href="#BitstreamVeraSans-Roman-32"/>
       <use x="63.623046875" xlink:href="#BitstreamVeraSans-Roman-30"/>
       <use x="127.24609375" xlink:href="#BitstreamVeraSans-Roman-31"/>
       <use x="190.869140625" xlink:href="#BitstreamVeraSans-Roman-35"/>
      </g>
     </g>
    </g>
    <g id="xtick_6">
     <g id="line2d_13">
      <g>
       <use style="stroke:#000000;stroke-width:0.5;" x="370.610540865" xlink:href="#m5d333379e4" y="361.098447467"/>
      </g>
     </g>
     <g id="line2d_14">
      <g>
       <use style="stroke:#000000;stroke-width:0.5;" x="370.610540865" xlink:href="#m3ef8998933" y="18.766875"/>
      </g>
     </g>
     <g id="text_6">
      <!-- 2016 -->
      <defs>
       <path d="M 33.015625 40.375 
Q 26.375 40.375 22.484375 35.828125 
Q 18.609375 31.296875 18.609375 23.390625 
Q 18.609375 15.53125 22.484375 10.953125 
Q 26.375 6.390625 33.015625 6.390625 
Q 39.65625 6.390625 43.53125 10.953125 
Q 47.40625 15.53125 47.40625 23.390625 
Q 47.40625 31.296875 43.53125 35.828125 
Q 39.65625 40.375 33.015625 40.375 
M 52.59375 71.296875 
L 52.59375 62.3125 
Q 48.875 64.0625 45.09375 64.984375 
Q 41.3125 65.921875 37.59375 65.921875 
Q 27.828125 65.921875 22.671875 59.328125 
Q 17.53125 52.734375 16.796875 39.40625 
Q 19.671875 43.65625 24.015625 45.921875 
Q 28.375 48.1875 33.59375 48.1875 
Q 44.578125 48.1875 50.953125 41.515625 
Q 57.328125 34.859375 57.328125 23.390625 
Q 57.328125 12.15625 50.6875 5.359375 
Q 44.046875 -1.421875 33.015625 -1.421875 
Q 20.359375 -1.421875 13.671875 8.265625 
Q 6.984375 17.96875 6.984375 36.375 
Q 6.984375 53.65625 15.1875 63.9375 
Q 23.390625 74.21875 37.203125 74.21875 
Q 40.921875 74.21875 44.703125 73.484375 
Q 48.484375 72.75 52.59375 71.296875 
" id="BitstreamVeraSans-Roman-36"/>
      </defs>
      <g transform="translate(342.914312534 388.264975352)rotate(-30.0)scale(0.12 -0.12)">
       <use xlink:href="#BitstreamVeraSans-Roman-32"/>
       <use x="63.623046875" xlink:href="#BitstreamVeraSans-Roman-30"/>
       <use x="127.24609375" xlink:href="#BitstreamVeraSans-Roman-31"/>
       <use x="190.869140625" xlink:href="#BitstreamVeraSans-Roman-36"/>
      </g>
     </g>
    </g>
    <g id="xtick_7">
     <g id="line2d_15">
      <g>
       <use style="stroke:#000000;stroke-width:0.5;" x="425.531436298" xlink:href="#m5d333379e4" y="361.098447467"/>
      </g>
     </g>
     <g id="line2d_16">
      <g>
       <use style="stroke:#000000;stroke-width:0.5;" x="425.531436298" xlink:href="#m3ef8998933" y="18.766875"/>
      </g>
     </g>
     <g id="text_7">
      <!-- 2017 -->
      <defs>
       <path d="M 8.203125 72.90625 
L 55.078125 72.90625 
L 55.078125 68.703125 
L 28.609375 0 
L 18.3125 0 
L 43.21875 64.59375 
L 8.203125 64.59375 
z
" id="BitstreamVeraSans-Roman-37"/>
      </defs>
      <g transform="translate(397.835207966 388.264975352)rotate(-30.0)scale(0.12 -0.12)">
       <use xlink:href="#BitstreamVeraSans-Roman-32"/>
       <use x="63.623046875" xlink:href="#BitstreamVeraSans-Roman-30"/>
       <use x="127.24609375" xlink:href="#BitstreamVeraSans-Roman-31"/>
       <use x="190.869140625" xlink:href="#BitstreamVeraSans-Roman-37"/>
      </g>
     </g>
    </g>
    <g id="text_8">
     <!-- Date -->
     <defs>
      <path d="M 56.203125 29.59375 
L 56.203125 25.203125 
L 14.890625 25.203125 
Q 15.484375 15.921875 20.484375 11.0625 
Q 25.484375 6.203125 34.421875 6.203125 
Q 39.59375 6.203125 44.453125 7.46875 
Q 49.3125 8.734375 54.109375 11.28125 
L 54.109375 2.78125 
Q 49.265625 0.734375 44.1875 -0.34375 
Q 39.109375 -1.421875 33.890625 -1.421875 
Q 20.796875 -1.421875 13.15625 6.1875 
Q 5.515625 13.8125 5.515625 26.8125 
Q 5.515625 40.234375 12.765625 48.109375 
Q 20.015625 56 32.328125 56 
Q 43.359375 56 49.78125 48.890625 
Q 56.203125 41.796875 56.203125 29.59375 
M 47.21875 32.234375 
Q 47.125 39.59375 43.09375 43.984375 
Q 39.0625 48.390625 32.421875 48.390625 
Q 24.90625 48.390625 20.390625 44.140625 
Q 15.875 39.890625 15.1875 32.171875 
z
" id="BitstreamVeraSans-Roman-65"/>
      <path d="M 18.3125 70.21875 
L 18.3125 54.6875 
L 36.8125 54.6875 
L 36.8125 47.703125 
L 18.3125 47.703125 
L 18.3125 18.015625 
Q 18.3125 11.328125 20.140625 9.421875 
Q 21.96875 7.515625 27.59375 7.515625 
L 36.8125 7.515625 
L 36.8125 0 
L 27.59375 0 
Q 17.1875 0 13.234375 3.875 
Q 9.28125 7.765625 9.28125 18.015625 
L 9.28125 47.703125 
L 2.6875 47.703125 
L 2.6875 54.6875 
L 9.28125 54.6875 
L 9.28125 70.21875 
z
" id="BitstreamVeraSans-Roman-74"/>
      <path d="M 19.671875 64.796875 
L 19.671875 8.109375 
L 31.59375 8.109375 
Q 46.6875 8.109375 53.6875 14.9375 
Q 60.6875 21.78125 60.6875 36.53125 
Q 60.6875 51.171875 53.6875 57.984375 
Q 46.6875 64.796875 31.59375 64.796875 
z
M 9.8125 72.90625 
L 30.078125 72.90625 
Q 51.265625 72.90625 61.171875 64.09375 
Q 71.09375 55.28125 71.09375 36.53125 
Q 71.09375 17.671875 61.125 8.828125 
Q 51.171875 0 30.078125 0 
L 9.8125 0 
z
" id="BitstreamVeraSans-Roman-44"/>
      <path d="M 34.28125 27.484375 
Q 23.390625 27.484375 19.1875 25 
Q 14.984375 22.515625 14.984375 16.5 
Q 14.984375 11.71875 18.140625 8.90625 
Q 21.296875 6.109375 26.703125 6.109375 
Q 34.1875 6.109375 38.703125 11.40625 
Q 43.21875 16.703125 43.21875 25.484375 
L 43.21875 27.484375 
z
M 52.203125 31.203125 
L 52.203125 0 
L 43.21875 0 
L 43.21875 8.296875 
Q 40.140625 3.328125 35.546875 0.953125 
Q 30.953125 -1.421875 24.3125 -1.421875 
Q 15.921875 -1.421875 10.953125 3.296875 
Q 6 8.015625 6 15.921875 
Q 6 25.140625 12.171875 29.828125 
Q 18.359375 34.515625 30.609375 34.515625 
L 43.21875 34.515625 
L 43.21875 35.40625 
Q 43.21875 41.609375 39.140625 45 
Q 35.0625 48.390625 27.6875 48.390625 
Q 23 48.390625 18.546875 47.265625 
Q 14.109375 46.140625 10.015625 43.890625 
L 10.015625 52.203125 
Q 14.9375 54.109375 19.578125 55.046875 
Q 24.21875 56 28.609375 56 
Q 40.484375 56 46.34375 49.84375 
Q 52.203125 43.703125 52.203125 31.203125 
" id="BitstreamVeraSans-Roman-61"/>
     </defs>
     <g transform="translate(230.821875 404.544375)scale(0.12 -0.12)">
      <use xlink:href="#BitstreamVeraSans-Roman-44"/>
      <use x="77.001953125" xlink:href="#BitstreamVeraSans-Roman-61"/>
      <use x="138.28125" xlink:href="#BitstreamVeraSans-Roman-74"/>
      <use x="177.490234375" xlink:href="#BitstreamVeraSans-Roman-65"/>
     </g>
    </g>
   </g>
   <g id="matplotlib.axis_2">
    <g id="ytick_1">
     <g id="line2d_17">
      <defs>
       <path d="M 0 0 
L 4 0 
" id="md3bb62c01a" style="stroke:#000000;stroke-width:0.5;"/>
      </defs>
      <g>
       <use style="stroke:#000000;stroke-width:0.5;" x="42.285625" xlink:href="#md3bb62c01a" y="361.098447467"/>
      </g>
     </g>
     <g id="line2d_18">
      <defs>
       <path d="M 0 0 
L -4 0 
" id="m742594cb1b" style="stroke:#000000;stroke-width:0.5;"/>
      </defs>
      <g>
       <use style="stroke:#000000;stroke-width:0.5;" x="448.04" xlink:href="#m742594cb1b" y="361.098447467"/>
      </g>
     </g>
     <g id="text_9">
      <!-- 40 -->
      <defs>
       <path d="M 10.59375 35.5 
L 73.1875 35.5 
L 73.1875 27.203125 
L 10.59375 27.203125 
z
" id="BitstreamVeraSans-Roman-2212"/>
      </defs>
      <g transform="translate(12.96 364.409697467)scale(0.12 -0.12)">
       <use xlink:href="#BitstreamVeraSans-Roman-2212"/>
       <use x="83.7890625" xlink:href="#BitstreamVeraSans-Roman-34"/>
       <use x="147.412109375" xlink:href="#BitstreamVeraSans-Roman-30"/>
      </g>
     </g>
    </g>
    <g id="ytick_2">
     <g id="line2d_19">
      <g>
       <use style="stroke:#000000;stroke-width:0.5;" x="42.285625" xlink:href="#md3bb62c01a" y="312.193937114"/>
      </g>
     </g>
     <g id="line2d_20">
      <g>
       <use style="stroke:#000000;stroke-width:0.5;" x="448.04" xlink:href="#m742594cb1b" y="312.193937114"/>
      </g>
     </g>
     <g id="text_10">
      <!-- 20 -->
      <g transform="translate(12.96 315.505187114)scale(0.12 -0.12)">
       <use xlink:href="#BitstreamVeraSans-Roman-2212"/>
       <use x="83.7890625" xlink:href="#BitstreamVeraSans-Roman-32"/>
       <use x="147.412109375" xlink:href="#BitstreamVeraSans-Roman-30"/>
      </g>
     </g>
    </g>
    <g id="ytick_3">
     <g id="line2d_21">
      <g>
       <use style="stroke:#000000;stroke-width:0.5;" x="42.285625" xlink:href="#md3bb62c01a" y="263.289426762"/>
      </g>
     </g>
     <g id="line2d_22">
      <g>
       <use style="stroke:#000000;stroke-width:0.5;" x="448.04" xlink:href="#m742594cb1b" y="263.289426762"/>
      </g>
     </g>
     <g id="text_11">
      <!-- 0 -->
      <g transform="translate(30.650625 266.600676762)scale(0.12 -0.12)">
       <use xlink:href="#BitstreamVeraSans-Roman-30"/>
      </g>
     </g>
    </g>
    <g id="ytick_4">
     <g id="line2d_23">
      <g>
       <use style="stroke:#000000;stroke-width:0.5;" x="42.285625" xlink:href="#md3bb62c01a" y="214.38491641"/>
      </g>
     </g>
     <g id="line2d_24">
      <g>
       <use style="stroke:#000000;stroke-width:0.5;" x="448.04" xlink:href="#m742594cb1b" y="214.38491641"/>
      </g>
     </g>
     <g id="text_12">
      <!-- 20 -->
      <g transform="translate(23.015625 217.69616641)scale(0.12 -0.12)">
       <use xlink:href="#BitstreamVeraSans-Roman-32"/>
       <use x="63.623046875" xlink:href="#BitstreamVeraSans-Roman-30"/>
      </g>
     </g>
    </g>
    <g id="ytick_5">
     <g id="line2d_25">
      <g>
       <use style="stroke:#000000;stroke-width:0.5;" x="42.285625" xlink:href="#md3bb62c01a" y="165.480406057"/>
      </g>
     </g>
     <g id="line2d_26">
      <g>
       <use style="stroke:#000000;stroke-width:0.5;" x="448.04" xlink:href="#m742594cb1b" y="165.480406057"/>
      </g>
     </g>
     <g id="text_13">
      <!-- 40 -->
      <g transform="translate(23.015625 168.791656057)scale(0.12 -0.12)">
       <use xlink:href="#BitstreamVeraSans-Roman-34"/>
       <use x="63.623046875" xlink:href="#BitstreamVeraSans-Roman-30"/>
      </g>
     </g>
    </g>
    <g id="ytick_6">
     <g id="line2d_27">
      <g>
       <use style="stroke:#000000;stroke-width:0.5;" x="42.285625" xlink:href="#md3bb62c01a" y="116.575895705"/>
      </g>
     </g>
     <g id="line2d_28">
      <g>
       <use style="stroke:#000000;stroke-width:0.5;" x="448.04" xlink:href="#m742594cb1b" y="116.575895705"/>
      </g>
     </g>
     <g id="text_14">
      <!-- 60 -->
      <g transform="translate(23.015625 119.887145705)scale(0.12 -0.12)">
       <use xlink:href="#BitstreamVeraSans-Roman-36"/>
       <use x="63.623046875" xlink:href="#BitstreamVeraSans-Roman-30"/>
      </g>
     </g>
    </g>
    <g id="ytick_7">
     <g id="line2d_29">
      <g>
       <use style="stroke:#000000;stroke-width:0.5;" x="42.285625" xlink:href="#md3bb62c01a" y="67.6713853524"/>
      </g>
     </g>
     <g id="line2d_30">
      <g>
       <use style="stroke:#000000;stroke-width:0.5;" x="448.04" xlink:href="#m742594cb1b" y="67.6713853524"/>
      </g>
     </g>
     <g id="text_15">
      <!-- 80 -->
      <defs>
       <path d="M 31.78125 34.625 
Q 24.75 34.625 20.71875 30.859375 
Q 16.703125 27.09375 16.703125 20.515625 
Q 16.703125 13.921875 20.71875 10.15625 
Q 24.75 6.390625 31.78125 6.390625 
Q 38.8125 6.390625 42.859375 10.171875 
Q 46.921875 13.96875 46.921875 20.515625 
Q 46.921875 27.09375 42.890625 30.859375 
Q 38.875 34.625 31.78125 34.625 
M 21.921875 38.8125 
Q 15.578125 40.375 12.03125 44.71875 
Q 8.5 49.078125 8.5 55.328125 
Q 8.5 64.0625 14.71875 69.140625 
Q 20.953125 74.21875 31.78125 74.21875 
Q 42.671875 74.21875 48.875 69.140625 
Q 55.078125 64.0625 55.078125 55.328125 
Q 55.078125 49.078125 51.53125 44.71875 
Q 48 40.375 41.703125 38.8125 
Q 48.828125 37.15625 52.796875 32.3125 
Q 56.78125 27.484375 56.78125 20.515625 
Q 56.78125 9.90625 50.3125 4.234375 
Q 43.84375 -1.421875 31.78125 -1.421875 
Q 19.734375 -1.421875 13.25 4.234375 
Q 6.78125 9.90625 6.78125 20.515625 
Q 6.78125 27.484375 10.78125 32.3125 
Q 14.796875 37.15625 21.921875 38.8125 
M 18.3125 54.390625 
Q 18.3125 48.734375 21.84375 45.5625 
Q 25.390625 42.390625 31.78125 42.390625 
Q 38.140625 42.390625 41.71875 45.5625 
Q 45.3125 48.734375 45.3125 54.390625 
Q 45.3125 60.0625 41.71875 63.234375 
Q 38.140625 66.40625 31.78125 66.40625 
Q 25.390625 66.40625 21.84375 63.234375 
Q 18.3125 60.0625 18.3125 54.390625 
" id="BitstreamVeraSans-Roman-38"/>
      </defs>
      <g transform="translate(23.015625 70.9826353524)scale(0.12 -0.12)">
       <use xlink:href="#BitstreamVeraSans-Roman-38"/>
       <use x="63.623046875" xlink:href="#BitstreamVeraSans-Roman-30"/>
      </g>
     </g>
    </g>
    <g id="ytick_8">
     <g id="line2d_31">
      <g>
       <use style="stroke:#000000;stroke-width:0.5;" x="42.285625" xlink:href="#md3bb62c01a" y="18.766875"/>
      </g>
     </g>
     <g id="line2d_32">
      <g>
       <use style="stroke:#000000;stroke-width:0.5;" x="448.04" xlink:href="#m742594cb1b" y="18.766875"/>
      </g>
     </g>
     <g id="text_16">
      <!-- 100 -->
      <g transform="translate(15.380625 22.078125)scale(0.12 -0.12)">
       <use xlink:href="#BitstreamVeraSans-Roman-31"/>
       <use x="63.623046875" xlink:href="#BitstreamVeraSans-Roman-30"/>
       <use x="127.24609375" xlink:href="#BitstreamVeraSans-Roman-30"/>
      </g>
     </g>
    </g>
   </g>
   <g id="legend_1">
    <g id="patch_7">
     <path d="M 344.0135 72.559875 
L 440.84 72.559875 
L 440.84 25.966875 
L 344.0135 25.966875 
z
" style="fill:#ffffff;stroke:#000000;stroke-linejoin:miter;"/>
    </g>
    <g id="line2d_33">
     <path d="M 354.0935 37.628625 
L 374.2535 37.628625 
" style="fill:none;stroke:#0000ff;stroke-linecap:square;"/>
    </g>
    <g id="line2d_34"/>
    <g id="text_17">
     <!-- AAPL -->
     <defs>
      <path d="M 19.671875 64.796875 
L 19.671875 37.40625 
L 32.078125 37.40625 
Q 38.96875 37.40625 42.71875 40.96875 
Q 46.484375 44.53125 46.484375 51.125 
Q 46.484375 57.671875 42.71875 61.234375 
Q 38.96875 64.796875 32.078125 64.796875 
z
M 9.8125 72.90625 
L 32.078125 72.90625 
Q 44.34375 72.90625 50.609375 67.359375 
Q 56.890625 61.8125 56.890625 51.125 
Q 56.890625 40.328125 50.609375 34.8125 
Q 44.34375 29.296875 32.078125 29.296875 
L 19.671875 29.296875 
L 19.671875 0 
L 9.8125 0 
z
" id="BitstreamVeraSans-Roman-50"/>
      <path d="M 9.8125 72.90625 
L 19.671875 72.90625 
L 19.671875 8.296875 
L 55.171875 8.296875 
L 55.171875 0 
L 9.8125 0 
z
" id="BitstreamVeraSans-Roman-4c"/>
      <path d="M 34.1875 63.1875 
L 20.796875 26.90625 
L 47.609375 26.90625 
z
M 28.609375 72.90625 
L 39.796875 72.90625 
L 67.578125 0 
L 57.328125 0 
L 50.6875 18.703125 
L 17.828125 18.703125 
L 11.1875 0 
L 0.78125 0 
z
" id="BitstreamVeraSans-Roman-41"/>
     </defs>
     <g transform="translate(390.0935 42.668625)scale(0.144 -0.144)">
      <use xlink:href="#BitstreamVeraSans-Roman-41"/>
      <use x="68.439453125" xlink:href="#BitstreamVeraSans-Roman-41"/>
      <use x="136.84765625" xlink:href="#BitstreamVeraSans-Roman-50"/>
      <use x="197.150390625" xlink:href="#BitstreamVeraSans-Roman-4c"/>
     </g>
    </g>
    <g id="line2d_35">
     <path d="M 354.0935 58.765125 
L 374.2535 58.765125 
" style="fill:none;stroke:#008000;stroke-linecap:square;"/>
    </g>
    <g id="line2d_36"/>
    <g id="text_18">
     <!-- GOOG -->
     <defs>
      <path d="M 39.40625 66.21875 
Q 28.65625 66.21875 22.328125 58.203125 
Q 16.015625 50.203125 16.015625 36.375 
Q 16.015625 22.609375 22.328125 14.59375 
Q 28.65625 6.59375 39.40625 6.59375 
Q 50.140625 6.59375 56.421875 14.59375 
Q 62.703125 22.609375 62.703125 36.375 
Q 62.703125 50.203125 56.421875 58.203125 
Q 50.140625 66.21875 39.40625 66.21875 
M 39.40625 74.21875 
Q 54.734375 74.21875 63.90625 63.9375 
Q 73.09375 53.65625 73.09375 36.375 
Q 73.09375 19.140625 63.90625 8.859375 
Q 54.734375 -1.421875 39.40625 -1.421875 
Q 24.03125 -1.421875 14.8125 8.828125 
Q 5.609375 19.09375 5.609375 36.375 
Q 5.609375 53.65625 14.8125 63.9375 
Q 24.03125 74.21875 39.40625 74.21875 
" id="BitstreamVeraSans-Roman-4f"/>
      <path d="M 59.515625 10.40625 
L 59.515625 29.984375 
L 43.40625 29.984375 
L 43.40625 38.09375 
L 69.28125 38.09375 
L 69.28125 6.78125 
Q 63.578125 2.734375 56.6875 0.65625 
Q 49.8125 -1.421875 42 -1.421875 
Q 24.90625 -1.421875 15.25 8.5625 
Q 5.609375 18.5625 5.609375 36.375 
Q 5.609375 54.25 15.25 64.234375 
Q 24.90625 74.21875 42 74.21875 
Q 49.125 74.21875 55.546875 72.453125 
Q 61.96875 70.703125 67.390625 67.28125 
L 67.390625 56.78125 
Q 61.921875 61.421875 55.765625 63.765625 
Q 49.609375 66.109375 42.828125 66.109375 
Q 29.4375 66.109375 22.71875 58.640625 
Q 16.015625 51.171875 16.015625 36.375 
Q 16.015625 21.625 22.71875 14.15625 
Q 29.4375 6.6875 42.828125 6.6875 
Q 48.046875 6.6875 52.140625 7.59375 
Q 56.25 8.5 59.515625 10.40625 
" id="BitstreamVeraSans-Roman-47"/>
     </defs>
     <g transform="translate(390.0935 63.805125)scale(0.144 -0.144)">
      <use xlink:href="#BitstreamVeraSans-Roman-47"/>
      <use x="77.490234375" xlink:href="#BitstreamVeraSans-Roman-4f"/>
      <use x="156.201171875" xlink:href="#BitstreamVeraSans-Roman-4f"/>
      <use x="234.912109375" xlink:href="#BitstreamVeraSans-Roman-47"/>
     </g>
    </g>
   </g>
  </g>
 </g>
 <defs>
  <clipPath id="pa77d1cb53d">
   <rect height="342.331572467" width="405.754375" x="42.285625" y="18.766875"/>
  </clipPath>
 </defs>
</svg>
