<?xml version="1.0" encoding="utf-8" standalone="no"?>
<!DOCTYPE svg PUBLIC "-//W3C//DTD SVG 1.1//EN"
  "http://www.w3.org/Graphics/SVG/1.1/DTD/svg11.dtd">
<!-- Created with matplotlib (http://matplotlib.org/) -->
<svg height="424pt" version="1.1" viewBox="0 0 553 424" width="553pt" xmlns="http://www.w3.org/2000/svg" xmlns:xlink="http://www.w3.org/1999/xlink">
 <defs>
  <style type="text/css">
*{stroke-linecap:butt;stroke-linejoin:round;stroke-miterlimit:100000;}
  </style>
 </defs>
 <g id="figure_1">
  <g id="patch_1">
   <path d="M 0 424 
L 553 424 
L 553 0 
L 0 0 
z
" style="fill:#ffffff;"/>
  </g>
  <g id="axes_1">
   <g id="patch_2">
    <path d="M 39.865 365.098447 
L 540.04 365.098447 
L 540.04 28.90175 
L 39.865 28.90175 
z
" style="fill:#ffffff;"/>
   </g>
   <g id="line2d_1">
    <path clip-path="url(#p39babbfd25)" d="M 39.865 323.07386 
L 40.060993 322.11277 
L 40.45298 324.155303 
L 40.648973 322.762392 
L 41.236953 324.514648 
L 41.432947 327.415686 
L 41.62894 324.779512 
L 41.824933 324.938575 
L 42.020927 327.438794 
L 42.8049 323.00621 
L 43.196887 332.395117 
L 43.39288 338.304597 
L 43.98086 336.598304 
L 44.176853 337.086134 
L 44.372847 335.667241 
L 44.764833 343.268937 
L 45.352813 340.540743 
L 45.548807 338.652198 
L 45.7448 339.097267 
L 45.940793 347.276737 
L 46.136787 346.240584 
L 46.724767 347.735035 
L 46.92076 344.153194 
L 47.116754 344.696849 
L 47.312747 342.737009 
L 47.50874 343.378892 
L 48.292714 339.950401 
L 48.488707 339.676124 
L 48.6847 338.953196 
L 48.880694 339.614589 
L 49.468674 339.695057 
L 49.664667 342.615496 
L 49.86066 341.076134 
L 50.056654 341.359057 
L 50.252647 339.691167 
L 51.428607 333.029244 
L 51.6246 328.164032 
L 52.408574 327.1852 
L 52.80056 324.292523 
L 52.996554 323.838172 
L 53.584534 325.773962 
L 53.780527 324.138653 
L 53.97652 323.498009 
L 54.172514 323.262376 
L 54.368507 325.462527 
L 54.956487 324.425763 
L 55.15248 322.674877 
L 55.348474 324.326086 
L 55.544467 324.281413 
L 55.74046 322.279199 
L 56.32844 320.643487 
L 56.524434 319.71793 
L 56.720427 320.411148 
L 57.896387 317.464355 
L 58.09238 318.191425 
L 58.484367 315.123465 
L 59.268341 314.416293 
L 59.464334 310.931455 
L 59.660327 310.274692 
L 59.856321 316.222729 
L 60.444301 316.205306 
L 60.640294 317.244836 
L 61.228274 312.041882 
L 61.816254 312.771448 
L 62.012247 320.243968 
L 62.208241 320.238829 
L 62.404234 316.835502 
L 62.600227 322.814274 
L 63.188207 322.096964 
L 63.972181 342.504274 
L 64.560161 329.941803 
L 64.756154 332.18753 
L 64.952147 328.379674 
L 65.148141 331.664888 
L 65.344134 337.085982 
L 65.932114 337.494052 
L 66.324101 340.745973 
L 66.520094 347.817443 
L 66.716087 343.329118 
L 67.304067 344.805683 
L 67.500061 343.703838 
L 67.696054 345.623293 
L 67.892047 337.413247 
L 68.088041 338.364357 
L 68.872014 340.181842 
L 69.068007 334.501991 
L 69.264001 334.839731 
L 69.459994 341.965572 
L 70.047974 345.176788 
L 70.243967 344.782015 
L 70.439961 347.198413 
L 70.635954 340.06628 
L 70.831947 339.051674 
L 71.419928 338.752907 
L 71.615921 333.333123 
L 72.203901 330.472797 
L 72.791881 330.712992 
L 72.987874 331.850582 
L 73.183868 331.787565 
L 73.379861 334.935816 
L 73.575854 334.163835 
L 74.163834 335.513539 
L 74.359828 344.494611 
L 74.555821 347.17374 
L 74.751814 346.077652 
L 74.947808 347.106208 
L 75.731781 345.093087 
L 75.927774 338.517994 
L 76.319761 335.756283 
L 76.907741 337.208616 
L 77.103734 335.813961 
L 77.495721 334.806191 
L 77.691714 338.516986 
L 78.279694 337.921235 
L 78.475688 334.07882 
L 78.671681 336.165295 
L 78.867674 330.963481 
L 79.063668 329.622772 
L 79.651648 328.619914 
L 79.847641 327.551987 
L 80.043634 328.502414 
L 80.239628 327.252657 
L 80.435621 327.530207 
L 81.023601 322.85272 
L 81.219594 322.700784 
L 81.415588 320.671572 
L 81.611581 320.903761 
L 81.807574 320.899188 
L 82.395554 320.017348 
L 82.591548 321.443687 
L 82.787541 329.611943 
L 82.983534 329.183529 
L 83.179528 330.295642 
L 83.767508 330.085597 
L 83.963501 327.31008 
L 84.159495 326.655481 
L 84.355488 329.986716 
L 84.551481 330.958989 
L 85.139461 332.535778 
L 85.335455 337.118415 
L 85.531448 335.571067 
L 85.727441 337.027676 
L 85.923435 333.85065 
L 86.511415 336.311426 
L 86.707408 335.477267 
L 86.903401 327.800863 
L 87.099395 326.577309 
L 87.295388 322.250113 
L 88.079361 325.551882 
L 88.471348 322.255446 
L 89.647308 316.031787 
L 89.843301 314.216305 
L 90.039295 315.213175 
L 90.627275 311.304161 
L 90.823268 310.930283 
L 91.019261 309.62652 
L 91.215255 310.61942 
L 91.411248 305.471443 
L 91.999228 306.71345 
L 92.195221 306.463528 
L 92.391215 307.254296 
L 92.587208 308.588037 
L 92.783201 307.749351 
L 93.371181 309.89439 
L 93.567175 303.082742 
L 93.959161 302.680003 
L 94.155155 300.387129 
L 94.743135 300.60993 
L 94.939128 299.330117 
L 95.527108 290.155781 
L 96.115088 289.161956 
L 96.311082 294.760277 
L 96.507075 291.671934 
L 96.899062 291.227153 
L 97.487042 290.19008 
L 97.683035 290.419107 
L 97.879028 291.851189 
L 98.075022 291.387003 
L 98.271015 292.596406 
L 98.858995 292.699792 
L 99.054988 288.507753 
L 99.250982 288.03599 
L 99.446975 283.707175 
L 99.642968 283.817427 
L 100.230948 284.597061 
L 100.426942 286.745748 
L 100.622935 286.243346 
L 100.818928 287.399763 
L 101.014922 291.656224 
L 101.602902 292.889669 
L 101.798895 297.849863 
L 101.994888 298.224977 
L 102.190882 291.872611 
L 102.386875 291.883918 
L 102.974855 291.472123 
L 103.170848 297.197967 
L 103.366842 292.850312 
L 103.758828 295.027442 
L 104.346808 295.215967 
L 104.542802 298.736933 
L 104.934788 289.902672 
L 105.130782 289.20683 
L 105.718762 288.728174 
L 105.914755 289.529704 
L 106.110748 288.656584 
L 106.306742 288.356167 
L 106.502735 287.421321 
L 107.090715 286.143399 
L 107.286708 286.511199 
L 107.482702 288.690757 
L 107.678695 287.802767 
L 107.874688 288.755124 
L 108.462668 287.429598 
L 108.658662 285.134153 
L 108.854655 284.868597 
L 109.050649 286.221184 
L 110.030615 286.493074 
L 110.226609 285.635869 
L 110.618595 286.327138 
L 111.402569 282.723582 
L 111.598562 282.717805 
L 111.794555 284.527539 
L 111.990549 284.715745 
L 112.774522 283.106881 
L 112.970515 279.079911 
L 113.166509 277.955835 
L 113.362502 275.972874 
L 114.146475 276.134016 
L 114.538462 282.050023 
L 114.734455 283.357943 
L 115.322435 278.667208 
L 115.518429 279.683945 
L 115.910415 276.38226 
L 116.106409 283.912019 
L 116.694389 281.454148 
L 116.890382 276.859059 
L 117.086375 275.782728 
L 117.282369 275.503289 
L 118.066342 272.822275 
L 118.262335 269.119437 
L 118.458329 269.278188 
L 118.654322 271.206728 
L 118.850315 269.968208 
L 119.438295 268.63122 
L 119.634289 270.068942 
L 119.830282 268.976613 
L 120.026275 270.0704 
L 120.222269 272.732966 
L 121.202236 281.134988 
L 121.398229 280.276782 
L 121.594222 277.238724 
L 122.182202 275.504867 
L 122.378196 279.180574 
L 122.574189 277.812763 
L 122.770182 273.729732 
L 122.966176 275.255736 
L 123.554156 278.64956 
L 123.750149 278.517726 
L 123.946142 279.408636 
L 124.142136 284.375279 
L 124.338129 281.412554 
L 124.926109 281.820536 
L 125.122102 286.019587 
L 125.318096 293.091928 
L 125.514089 288.980718 
L 125.710082 288.702569 
L 126.298062 283.714933 
L 126.494056 284.362449 
L 126.690049 284.069526 
L 126.886042 280.104204 
L 127.082036 279.395813 
L 127.670016 279.476084 
L 128.062002 275.299969 
L 128.257996 275.765346 
L 129.041969 274.835501 
L 129.237962 275.505919 
L 129.433956 274.885899 
L 129.825942 274.555585 
L 130.413922 275.599644 
L 130.609916 277.018733 
L 130.805909 276.165585 
L 131.197896 279.949905 
L 131.785876 281.747249 
L 131.981869 279.772829 
L 132.373856 272.430336 
L 133.157829 272.15823 
L 133.353822 271.927618 
L 133.549816 268.69316 
L 133.745809 269.341262 
L 133.941803 268.350387 
L 134.529783 268.710214 
L 134.725776 271.421128 
L 134.921769 272.114804 
L 135.117763 276.273566 
L 135.313756 276.14285 
L 135.901736 274.365836 
L 136.097729 272.448832 
L 136.293723 274.904805 
L 136.489716 275.101115 
L 136.685709 278.485141 
L 137.273689 281.888809 
L 137.861669 277.517172 
L 138.057663 280.973893 
L 138.841636 283.711526 
L 139.233623 280.893638 
L 140.213589 274.711484 
L 140.409583 278.774861 
L 140.605576 278.44611 
L 140.801569 281.009241 
L 141.389549 284.080605 
L 141.585543 283.912222 
L 141.781536 285.319119 
L 141.977529 283.772446 
L 142.173523 288.205142 
L 142.761503 287.703648 
L 142.957496 283.744193 
L 143.153489 289.39205 
L 143.349483 290.210494 
L 143.545476 289.095427 
L 144.133456 289.931255 
L 144.329449 283.927702 
L 144.525443 285.365477 
L 144.721436 284.143707 
L 144.917429 286.782158 
L 145.505409 283.059922 
L 146.093389 275.505228 
L 146.289383 270.84769 
L 147.073356 270.865771 
L 147.26935 270.586511 
L 147.465343 267.528293 
L 147.661336 268.869066 
L 148.44531 276.311003 
L 148.641303 273.576307 
L 148.837296 274.86709 
L 149.03329 273.156244 
L 149.62127 272.854711 
L 150.20925 263.98823 
L 150.405243 261.816845 
L 150.993223 262.18249 
L 151.189216 260.96595 
L 151.38521 265.98618 
L 151.777196 266.847463 
L 152.365176 267.492847 
L 152.56117 274.948874 
L 152.757163 271.290425 
L 152.953156 284.314138 
L 153.14915 284.401307 
L 153.73713 299.993336 
L 153.933123 286.026653 
L 154.129116 298.261701 
L 154.32511 289.271883 
L 154.521103 286.16901 
L 155.109083 281.960467 
L 155.305076 284.853404 
L 155.50107 284.358634 
L 155.697063 295.995487 
L 155.893056 301.006243 
L 156.481036 301.034676 
L 156.67703 290.535315 
L 156.873023 288.856502 
L 157.069016 291.979968 
L 157.26501 286.687372 
L 158.048983 280.111097 
L 158.244976 279.507582 
L 158.44097 282.223381 
L 158.636963 287.605299 
L 159.420937 288.525113 
L 159.61693 283.518076 
L 159.812923 285.5957 
L 160.008917 292.104291 
L 160.596897 291.431749 
L 161.38087 276.983309 
L 161.96885 276.634151 
L 162.164843 277.37969 
L 162.360837 282.808006 
L 162.55683 292.471412 
L 162.752823 290.483937 
L 163.536797 286.957108 
L 163.73279 289.90858 
L 163.928783 290.795678 
L 164.124777 297.684268 
L 164.712757 303.603835 
L 164.90875 300.7434 
L 165.300737 292.231084 
L 165.49673 294.862369 
L 166.476697 279.735006 
L 166.67269 278.497989 
L 166.868683 272.077017 
L 167.456663 276.164499 
L 167.652657 273.861268 
L 167.84865 283.962226 
L 168.044643 284.564727 
L 168.240637 281.330569 
L 168.828617 274.187352 
L 169.02461 281.463437 
L 169.220603 282.951109 
L 169.416597 273.994385 
L 169.61259 271.81775 
L 170.20057 277.692315 
L 170.396563 284.173108 
L 170.592557 282.835607 
L 170.78855 277.026243 
L 170.984543 279.162693 
L 171.572524 277.959036 
L 171.768517 274.682198 
L 171.96451 284.764839 
L 172.160504 285.833928 
L 172.356497 282.986058 
L 172.944477 286.180116 
L 173.14047 283.773447 
L 173.532457 292.548579 
L 173.72845 293.992015 
L 174.31643 299.635254 
L 174.512424 298.092103 
L 174.708417 304.068447 
L 175.100404 306.423262 
L 175.688384 297.333906 
L 175.884377 299.226304 
L 176.08037 289.737718 
L 176.276364 288.476154 
L 176.472357 288.022145 
L 177.060337 286.239903 
L 177.25633 287.336033 
L 177.452324 286.259348 
L 177.648317 290.428974 
L 177.84431 287.558687 
L 178.43229 291.56707 
L 178.824277 299.632618 
L 179.02027 299.551421 
L 179.216264 298.633716 
L 179.804244 300.041167 
L 180.000237 292.403511 
L 180.19623 292.934714 
L 180.588217 289.10505 
L 181.37219 288.813416 
L 181.568184 292.088105 
L 181.764177 290.051121 
L 181.96017 290.120146 
L 182.744144 284.446012 
L 182.940137 285.389565 
L 183.13613 285.528215 
L 183.332124 284.979072 
L 183.920104 285.3721 
L 184.116097 282.19796 
L 184.312091 281.940653 
L 184.508084 281.071551 
L 184.704077 282.275704 
L 185.488051 278.92668 
L 185.684044 274.65257 
L 185.880037 273.057597 
L 186.076031 275.634806 
L 186.664011 274.711613 
L 186.860004 276.295608 
L 187.055997 267.892696 
L 187.447984 265.625528 
L 188.035964 265.302551 
L 188.231957 263.66183 
L 188.427951 263.639389 
L 188.623944 262.438189 
L 188.819937 259.82154 
L 189.407917 260.071384 
L 189.603911 259.080048 
L 189.995897 254.014283 
L 190.191891 255.621032 
L 190.779871 251.425562 
L 190.975864 251.513919 
L 191.171857 256.107317 
L 191.367851 254.834306 
L 191.563844 254.658497 
L 192.347817 251.292941 
L 192.543811 252.637986 
L 192.739804 251.434522 
L 192.935797 249.342914 
L 193.523777 248.028923 
L 193.719771 244.194472 
L 193.915764 245.166949 
L 194.111757 243.428983 
L 194.895731 248.861319 
L 195.091724 252.886693 
L 195.287717 251.502709 
L 195.483711 246.075351 
L 195.679704 245.959555 
L 196.267684 245.02058 
L 196.463678 238.073159 
L 196.659671 235.374827 
L 197.051658 233.64004 
L 197.835631 227.475644 
L 198.227618 231.399382 
L 198.423611 230.947301 
L 199.207584 224.876155 
L 199.795564 228.584513 
L 200.579538 221.988251 
L 200.775531 226.492666 
L 200.971524 224.099535 
L 201.755498 224.762525 
L 201.951491 230.483185 
L 202.147484 229.202381 
L 202.343478 226.974071 
L 202.539471 233.492938 
L 203.127451 239.408917 
L 203.323444 230.566135 
L 203.519438 231.088135 
L 203.715431 237.066397 
L 203.911424 238.960801 
L 204.695398 243.564677 
L 204.891391 229.16448 
L 205.087384 229.44866 
L 205.283378 224.962339 
L 205.871358 229.925203 
L 206.067351 229.865955 
L 206.263344 230.750639 
L 206.459338 233.757197 
L 206.655331 240.426392 
L 207.243311 238.582936 
L 207.635298 241.585494 
L 207.831291 239.848084 
L 208.027284 242.405901 
L 208.615264 247.14332 
L 209.399238 262.320034 
L 209.987218 252.497956 
L 210.183211 253.672604 
L 210.379205 251.187465 
L 210.771191 254.479465 
L 211.555165 251.05273 
L 211.751158 252.872574 
L 211.947151 253.269766 
L 212.143145 260.032482 
L 212.731125 257.548082 
L 212.927118 257.482026 
L 213.123111 251.16577 
L 213.319105 250.850434 
L 213.515098 249.008963 
L 214.103078 253.066369 
L 214.299071 250.146985 
L 214.495065 252.178126 
L 214.691058 250.823924 
L 214.887051 247.99864 
L 215.475031 245.179076 
L 215.671025 242.094548 
L 215.867018 242.3188 
L 216.063011 247.732615 
L 216.259005 244.669179 
L 216.846985 250.794536 
L 217.238971 247.947714 
L 217.434965 250.034243 
L 217.630958 241.432611 
L 218.218938 238.073679 
L 218.414931 234.984378 
L 218.806918 234.540068 
L 219.002911 237.274431 
L 219.590891 236.310328 
L 219.786885 239.695997 
L 219.982878 239.594664 
L 220.178871 242.783119 
L 220.374865 238.547897 
L 220.962845 238.66119 
L 221.158838 237.925285 
L 221.354832 237.808597 
L 221.550825 234.199024 
L 221.746818 239.651735 
L 222.334798 241.632633 
L 222.530792 245.550689 
L 222.726785 252.370407 
L 222.922778 249.143319 
L 223.118772 239.877967 
L 223.706752 237.944558 
L 223.902745 235.4007 
L 224.294732 239.685674 
L 224.490725 233.676072 
L 225.274698 229.904453 
L 225.470692 229.742412 
L 225.862678 228.840164 
L 226.450658 227.362104 
L 226.646652 226.077755 
L 226.842645 226.487498 
L 227.234632 221.016642 
L 227.822612 217.319078 
L 228.018605 219.56821 
L 228.214598 216.666716 
L 228.410592 219.4892 
L 228.606585 218.54321 
L 229.194565 216.429413 
L 229.390558 216.645134 
L 229.586552 217.778633 
L 229.782545 221.476325 
L 229.978538 219.607153 
L 230.762512 216.921634 
L 230.958505 218.349348 
L 231.350492 207.689303 
L 231.938472 212.568281 
L 232.134465 211.705498 
L 232.330458 208.840456 
L 232.722445 199.837032 
L 233.702412 198.714043 
L 233.898405 201.018576 
L 234.094399 201.711035 
L 234.682379 205.088756 
L 235.074365 214.553626 
L 235.270359 208.444127 
L 235.466352 213.52763 
L 236.054332 214.181125 
L 236.250325 213.100562 
L 236.446319 209.091362 
L 236.642312 208.665956 
L 236.838305 211.620151 
L 237.426285 214.876902 
L 237.622279 218.118626 
L 237.818272 218.636847 
L 238.014265 220.396111 
L 238.210259 220.95868 
L 238.798239 218.506082 
L 238.994232 212.89653 
L 239.190225 210.856024 
L 239.386219 214.145814 
L 239.582212 222.813268 
L 240.170192 218.272578 
L 240.366185 224.483343 
L 240.562179 224.797398 
L 240.758172 227.067463 
L 240.954165 226.802823 
L 241.934132 228.748133 
L 242.130125 226.869572 
L 242.326119 232.098279 
L 242.914099 230.950478 
L 243.110092 229.201333 
L 243.502079 245.421979 
L 243.698072 243.461306 
L 244.482045 244.598455 
L 244.874032 251.496769 
L 245.070025 249.748164 
L 245.658005 238.059453 
L 245.853999 238.420491 
L 246.049992 237.385183 
L 246.441979 233.378647 
L 247.029959 228.918331 
L 247.225952 231.469526 
L 247.421946 230.832825 
L 247.617939 226.757363 
L 247.813932 227.466863 
L 248.401912 227.904452 
L 248.597906 229.93261 
L 248.793899 237.179001 
L 248.989892 235.440659 
L 249.185886 238.591799 
L 249.773866 239.424864 
L 249.969859 235.453474 
L 250.165852 235.688969 
L 250.361846 238.015368 
L 250.557839 241.94518 
L 251.145819 237.647302 
L 251.341812 230.807004 
L 251.537806 233.645986 
L 251.733799 233.422341 
L 251.929792 235.644519 
L 252.517772 235.765927 
L 252.909759 239.28578 
L 253.105752 238.711518 
L 253.301746 241.931634 
L 253.889726 233.651212 
L 254.281712 224.515014 
L 254.673699 229.598024 
L 255.261679 229.383949 
L 255.457672 229.926946 
L 255.653666 229.763653 
L 255.849659 227.262915 
L 256.633632 231.759074 
L 256.829626 236.030678 
L 257.025619 232.366696 
L 257.221612 232.580132 
L 257.417606 232.554748 
L 258.397572 229.977783 
L 258.593566 242.783776 
L 258.789559 243.153671 
L 259.377539 242.006015 
L 259.573533 240.711663 
L 259.769526 240.396604 
L 259.965519 242.072944 
L 260.161513 241.144091 
L 260.749493 247.090712 
L 260.945486 240.626163 
L 261.141479 241.107289 
L 261.337473 239.809664 
L 261.533466 237.014293 
L 262.121446 237.201558 
L 262.317439 239.478044 
L 262.513433 237.054359 
L 262.709426 237.403734 
L 262.905419 240.517276 
L 263.689393 238.747259 
L 263.885386 244.553125 
L 264.081379 246.973946 
L 264.277373 244.480072 
L 264.865353 249.036531 
L 265.257339 245.329804 
L 265.453333 245.865482 
L 265.649326 248.551286 
L 266.237306 249.370175 
L 266.433299 244.633898 
L 266.629293 246.291665 
L 266.825286 244.245516 
L 267.021279 244.02108 
L 267.609259 243.113713 
L 267.805253 245.476931 
L 268.001246 245.863754 
L 268.197239 245.014276 
L 268.393233 243.443954 
L 268.981213 243.275634 
L 269.177206 245.175274 
L 269.373199 244.058582 
L 269.569193 245.634684 
L 269.765186 241.143576 
L 270.353166 242.656012 
L 270.549159 241.618229 
L 270.941146 243.795189 
L 271.72512 248.823718 
L 271.921113 247.214937 
L 272.117106 249.704194 
L 272.3131 249.799793 
L 272.509093 252.087743 
L 273.097073 249.929378 
L 273.293066 247.599348 
L 273.48906 242.917009 
L 273.685053 242.154482 
L 273.881046 242.546084 
L 274.469026 249.805483 
L 274.66502 245.826218 
L 275.057006 259.089813 
L 275.253 257.142257 
L 275.84098 253.940017 
L 276.036973 250.188286 
L 276.232966 250.685922 
L 276.42896 247.570831 
L 276.624953 249.189354 
L 277.212933 246.080651 
L 277.408926 242.62145 
L 277.60492 246.334969 
L 277.996906 238.711888 
L 278.78088 236.056841 
L 278.976873 233.547637 
L 279.172866 236.787043 
L 279.36886 236.156668 
L 279.95684 236.255113 
L 280.152833 237.185516 
L 280.348826 241.115994 
L 280.54482 241.913586 
L 280.740813 239.537913 
L 281.524786 237.681179 
L 281.916773 240.147183 
L 282.112766 239.892448 
L 282.89674 239.30776 
L 283.092733 239.435447 
L 283.288726 236.937999 
L 283.48472 240.564813 
L 284.0727 239.524927 
L 284.268693 241.29415 
L 284.464687 244.762759 
L 284.66068 244.624801 
L 284.856673 240.762328 
L 285.444653 241.521057 
L 285.83664 246.836508 
L 286.032633 242.686655 
L 286.228627 245.521506 
L 286.816607 242.177 
L 287.0126 240.278416 
L 287.60058 252.473656 
L 288.18856 257.685135 
L 288.580547 254.92845 
L 288.972533 255.225975 
L 289.560513 250.648261 
L 289.756507 250.045605 
L 289.9525 249.82432 
L 290.344487 248.84286 
L 290.932467 248.444722 
L 291.12846 245.431972 
L 291.324453 244.847489 
L 291.520447 238.734699 
L 291.71644 239.914244 
L 292.30442 239.321255 
L 292.8924 237.029672 
L 293.088393 237.400345 
L 293.676373 236.428938 
L 293.872367 238.353581 
L 294.264353 232.968886 
L 294.460347 230.694541 
L 295.048327 230.747019 
L 295.24432 229.770607 
L 295.440313 230.216486 
L 295.636307 225.46985 
L 295.8323 224.458313 
L 296.42028 223.335694 
L 296.616274 225.279068 
L 296.812267 224.385763 
L 297.204254 225.26715 
L 297.792234 223.507394 
L 297.988227 218.5476 
L 298.18422 218.073012 
L 298.380214 220.492824 
L 298.576207 220.058759 
L 299.164187 220.226436 
L 299.36018 220.842008 
L 299.556174 222.610348 
L 299.752167 219.670535 
L 299.94816 219.819861 
L 300.53614 218.899882 
L 300.732134 226.889775 
L 300.928127 226.26914 
L 301.12412 226.312972 
L 301.320114 228.668581 
L 302.104087 224.103293 
L 302.30008 219.80919 
L 302.496074 219.993682 
L 302.692067 218.772427 
L 303.280047 214.35856 
L 303.47604 214.530949 
L 303.672034 219.678948 
L 303.868027 218.530699 
L 304.06402 220.018947 
L 304.652 222.091806 
L 304.847994 219.664726 
L 305.043987 213.591687 
L 305.23998 212.277508 
L 305.435974 213.636619 
L 306.023954 210.312231 
L 306.219947 210.795972 
L 306.41594 213.382743 
L 306.611934 210.364782 
L 306.807927 212.062468 
L 307.395907 215.292752 
L 307.5919 210.041522 
L 307.787894 209.660645 
L 307.983887 213.823009 
L 308.17988 211.944524 
L 308.767861 214.270714 
L 308.963854 219.018732 
L 309.159847 218.186175 
L 309.551834 209.530977 
L 310.139814 207.96597 
L 310.335807 207.981066 
L 310.923787 198.109868 
L 311.511767 194.753569 
L 311.707761 192.760652 
L 311.903754 194.147868 
L 312.295741 186.580278 
L 312.883721 185.663838 
L 313.079714 187.470299 
L 313.275707 187.535594 
L 313.667694 189.116047 
L 314.255674 186.545532 
L 314.451667 187.046812 
L 314.647661 188.480412 
L 314.843654 195.776573 
L 315.039647 190.341733 
L 315.627627 190.249325 
L 315.823621 191.595406 
L 316.019614 189.436236 
L 316.215607 185.577262 
L 316.411601 184.96239 
L 316.999581 186.278917 
L 317.195574 187.3048 
L 317.391567 189.39081 
L 317.783554 185.480527 
L 318.371534 184.386512 
L 318.567527 181.773361 
L 318.763521 177.620883 
L 319.155507 173.046108 
L 319.743487 175.274493 
L 319.939481 173.953348 
L 320.135474 174.05777 
L 320.331467 174.631704 
L 320.527461 174.337532 
L 321.311434 172.959682 
L 321.507428 175.734228 
L 321.899414 177.498392 
L 322.487394 174.635739 
L 322.683388 175.672142 
L 322.879381 172.837611 
L 323.075374 174.223096 
L 323.271368 170.97876 
L 323.859348 165.481156 
L 324.055341 166.154236 
L 324.447328 165.167062 
L 324.643321 165.831013 
L 325.231301 166.987605 
L 325.427294 164.52904 
L 325.819281 168.243255 
L 326.015274 171.798717 
L 326.603254 172.922935 
L 326.995241 171.03342 
L 327.191234 172.277577 
L 327.387228 172.793656 
L 327.975208 175.743938 
L 328.367194 167.227701 
L 328.563188 167.313241 
L 328.759181 169.564344 
L 329.543154 167.979369 
L 329.739148 165.750704 
L 329.935141 167.070592 
L 330.131134 177.115853 
L 330.719114 177.880372 
L 331.111101 188.179709 
L 331.307094 183.454577 
L 331.503088 192.29583 
L 332.091068 197.390216 
L 332.287061 194.704073 
L 332.483054 194.845703 
L 332.875041 185.215057 
L 333.463021 183.654465 
L 333.659014 179.658661 
L 333.855008 181.36531 
L 334.051001 176.673644 
L 334.246995 175.913838 
L 335.030968 175.17317 
L 335.226961 179.252914 
L 335.422955 180.088977 
L 335.618948 181.818759 
L 336.206928 180.044136 
L 336.598915 183.368494 
L 336.794908 179.702685 
L 336.990901 179.936 
L 337.578881 181.609008 
L 337.774875 177.062269 
L 337.970868 176.227507 
L 338.166861 176.375763 
L 338.362855 177.885039 
L 338.950835 177.85938 
L 339.146828 178.106177 
L 339.342821 176.674656 
L 339.538815 181.422709 
L 339.734808 182.886165 
L 340.322788 180.279154 
L 340.518781 176.817996 
L 340.714775 179.464059 
L 340.910768 180.060425 
L 341.106761 182.662364 
L 341.694741 182.281649 
L 341.890735 180.873254 
L 342.086728 185.528124 
L 342.282721 185.561862 
L 342.478715 185.415656 
L 343.066695 183.280512 
L 343.262688 179.368971 
L 343.458681 179.136451 
L 343.654675 182.380868 
L 343.850668 188.563135 
L 344.438648 191.840055 
L 344.634641 189.613409 
L 344.830635 185.272299 
L 345.222621 197.349081 
L 345.810601 193.876504 
L 346.006595 194.788326 
L 346.398582 189.314399 
L 347.182555 186.299242 
L 347.378548 184.895953 
L 347.574542 188.69102 
L 347.770535 176.632026 
L 347.966528 183.861077 
L 349.142488 176.68098 
L 349.338482 176.550955 
L 349.926462 174.149749 
L 350.122455 178.364977 
L 350.318448 178.229962 
L 350.514442 180.856708 
L 350.710435 181.027379 
L 351.298415 175.213522 
L 351.494408 174.740765 
L 351.690402 175.569875 
L 351.886395 178.658619 
L 352.082388 175.96363 
L 352.670368 174.478339 
L 352.866362 175.225912 
L 353.062355 172.03165 
L 353.258348 170.826008 
L 353.454342 167.716265 
L 354.238315 164.275884 
L 354.434308 165.762912 
L 354.630302 161.911264 
L 354.826295 163.958592 
L 355.414275 164.373472 
L 355.806262 160.778739 
L 356.198248 155.129124 
L 356.786228 153.504497 
L 356.982222 151.863584 
L 357.178215 152.737222 
L 357.374208 158.479411 
L 357.570202 159.780813 
L 358.158182 158.475122 
L 358.354175 158.447182 
L 358.550168 154.878777 
L 358.942155 157.773297 
L 359.530135 157.431447 
L 359.726129 160.698503 
L 360.314109 156.828862 
L 360.902089 154.425014 
L 361.098082 150.719086 
L 361.294075 150.131164 
L 361.490069 146.778642 
L 362.274042 146.399549 
L 362.470035 150.319965 
L 362.666029 148.433065 
L 362.862022 151.56166 
L 363.058015 147.851459 
L 363.645995 143.291883 
L 363.841989 144.9423 
L 364.037982 144.301019 
L 364.233975 150.585354 
L 364.429969 145.225707 
L 365.017949 145.72727 
L 365.409935 138.026199 
L 365.605929 138.3727 
L 365.801922 143.397162 
L 366.389902 141.921259 
L 366.585895 143.845859 
L 366.781889 142.507956 
L 366.977882 151.814776 
L 367.173875 152.915428 
L 367.761855 150.938129 
L 367.957849 154.182618 
L 368.153842 154.057002 
L 368.349835 156.84251 
L 368.545829 153.372405 
L 369.133809 149.899965 
L 369.329802 149.912581 
L 369.721789 144.955446 
L 370.897749 137.650151 
L 371.093742 137.983583 
L 371.289736 137.924489 
L 372.073709 134.935156 
L 372.269702 132.744955 
L 372.465696 134.376656 
L 372.661689 133.769233 
L 373.445662 132.45795 
L 373.641656 139.4106 
L 373.837649 139.948237 
L 374.033642 137.941678 
L 374.621622 140.287372 
L 374.817616 144.022074 
L 375.013609 138.118583 
L 375.209602 138.206568 
L 375.993576 139.78707 
L 376.581556 135.051873 
L 377.365529 139.629175 
L 377.757516 136.78303 
L 377.953509 147.26728 
L 378.149502 141.430291 
L 378.737482 144.218688 
L 378.933476 143.030669 
L 379.129469 148.468888 
L 379.521456 146.197036 
L 380.109436 144.173247 
L 380.305429 150.027897 
L 380.501422 142.795961 
L 380.893409 150.991516 
L 381.873376 157.442249 
L 382.069369 161.240145 
L 382.265362 156.559799 
L 382.853342 151.130718 
L 383.049336 140.767853 
L 383.245329 142.526918 
L 383.441322 137.227274 
L 383.637316 139.817735 
L 384.225296 139.244138 
L 384.421289 131.529907 
L 384.617283 131.59103 
L 385.009269 123.747631 
L 385.597249 121.168507 
L 385.793243 124.135288 
L 386.185229 124.750338 
L 386.381223 123.2443 
L 386.969203 122.00428 
L 387.753176 112.148238 
L 388.341156 113.579116 
L 388.537149 109.69999 
L 388.733143 111.195259 
L 389.125129 105.825871 
L 389.713109 101.534229 
L 389.909103 103.047449 
L 390.105096 99.972276 
L 390.497083 98.964459 
L 391.085063 107.33848 
L 391.281056 106.880601 
L 391.477049 104.875161 
L 391.673043 106.533204 
L 391.869036 106.636648 
L 392.457016 112.531553 
L 392.653009 109.540154 
L 392.849003 117.687268 
L 393.044996 116.985098 
L 393.240989 124.220382 
L 393.828969 129.885104 
L 394.024963 134.305788 
L 394.416949 116.330522 
L 394.612943 116.71698 
L 395.200923 114.841129 
L 395.396916 116.490274 
L 395.592909 116.859436 
L 395.984896 111.817499 
L 396.572876 111.763802 
L 396.964863 120.44671 
L 397.35685 122.432486 
L 398.140823 135.913407 
L 398.336816 130.342274 
L 398.53281 121.309485 
L 399.316783 130.583961 
L 399.512776 129.316972 
L 399.70877 131.432675 
L 399.904763 138.490235 
L 400.100756 135.650765 
L 400.88473 130.143974 
L 401.080723 127.064539 
L 401.276716 118.183597 
L 401.47271 120.752515 
L 402.06069 120.528153 
L 402.256683 128.81035 
L 402.452676 123.110857 
L 402.64867 113.723079 
L 402.844663 112.597574 
L 403.432643 107.252681 
L 403.628636 104.167 
L 403.82463 104.018497 
L 404.020623 98.7896 
L 404.216616 102.261261 
L 404.804596 101.8437 
L 405.58857 83.209225 
L 406.372543 82.387963 
L 406.76453 80.286404 
L 406.960523 75.627084 
L 407.548503 71.757565 
L 407.744496 72.291824 
L 407.94049 75.805231 
L 408.136483 74.190866 
L 408.332476 79.014903 
L 408.920457 76.358302 
L 409.11645 77.198096 
L 409.70443 87.388368 
L 410.29241 86.921066 
L 410.684397 101.745561 
L 410.88039 94.775212 
L 411.076383 98.254775 
L 411.860357 89.308122 
L 412.05635 84.242986 
L 412.252343 86.723666 
L 412.448337 85.823815 
L 413.036317 84.782842 
L 413.23231 86.729044 
L 413.428303 95.686989 
L 413.624297 95.193301 
L 413.82029 96.311746 
L 414.40827 89.31487 
L 414.604263 95.525853 
L 414.800257 96.33868 
L 414.99625 94.096491 
L 415.780223 89.425878 
L 415.976217 91.483269 
L 416.564197 87.181355 
L 417.152177 88.119887 
L 417.544163 84.553481 
L 417.740157 85.320716 
L 417.93615 91.614517 
L 418.52413 83.365015 
L 418.720123 83.624809 
L 419.308103 67.393114 
L 419.896083 66.706072 
L 420.28807 73.375249 
L 420.484063 81.361575 
L 420.680057 72.614223 
L 421.268037 72.533502 
L 421.46403 78.630177 
L 421.660024 80.87566 
L 421.856017 79.449077 
L 422.05201 71.807876 
L 422.63999 74.185423 
L 422.835984 76.316177 
L 423.031977 76.568324 
L 423.22797 69.215085 
L 423.423964 70.367906 
L 424.011944 68.05173 
L 424.207937 69.045027 
L 424.40393 68.899592 
L 424.599924 65.68997 
L 424.795917 64.637162 
L 425.57989 72.619952 
L 425.775884 66.379385 
L 426.16787 72.155741 
L 426.951844 71.054249 
L 427.147837 69.236226 
L 427.539824 74.058239 
L 428.323797 77.927162 
L 428.51979 71.894885 
L 428.715784 70.872021 
L 428.911777 74.700134 
L 429.499757 76.839012 
L 429.69575 74.889373 
L 429.891744 75.350788 
L 430.087737 69.865616 
L 430.28373 73.653629 
L 430.87171 69.617209 
L 431.067704 69.14601 
L 431.263697 69.614078 
L 432.243664 83.604795 
L 432.63565 78.354871 
L 432.831644 78.726196 
L 433.615617 81.04085 
L 433.811611 81.006997 
L 434.007604 91.240282 
L 434.203597 93.626166 
L 434.399591 83.394917 
L 435.379557 71.307428 
L 435.771544 62.40687 
L 436.359524 57.406169 
L 436.555517 59.971369 
L 436.751511 70.12512 
L 436.947504 72.44664 
L 437.143497 69.038984 
L 437.731477 71.029251 
L 437.927471 66.66386 
L 438.319457 64.86162 
L 438.515451 65.463227 
L 439.103431 70.883348 
L 439.299424 77.628498 
L 439.495417 74.795727 
L 439.691411 78.568949 
L 439.887404 78.683963 
L 440.475384 69.83676 
L 440.671377 81.894128 
L 440.867371 79.453618 
L 441.063364 80.651504 
L 441.259357 78.829012 
L 441.847337 76.860311 
L 442.043331 79.138641 
L 442.239324 83.636887 
L 442.435317 93.466557 
L 442.631311 112.900959 
L 443.219291 128.86302 
L 443.415284 128.626671 
L 443.807271 95.782982 
L 444.003264 95.457064 
L 444.591244 98.954065 
L 444.787237 115.584131 
L 444.983231 103.410496 
L 445.375217 113.3189 
L 446.159191 100.078602 
L 446.355184 106.148669 
L 446.747171 96.849146 
L 447.335151 97.410607 
L 447.531144 93.846439 
L 447.727138 92.370328 
L 447.923131 93.593297 
L 448.119124 98.30285 
L 448.707104 94.726229 
L 448.903098 102.339017 
L 449.099091 102.387971 
L 449.295084 102.611725 
L 449.491078 105.278866 
L 450.275051 123.149396 
L 450.471044 115.123188 
L 450.667038 114.771429 
L 450.863031 109.099003 
L 451.451011 103.387444 
L 451.647004 104.886916 
L 451.842998 100.957862 
L 452.038991 103.131665 
L 452.234984 97.009486 
L 452.822964 95.759647 
L 453.214951 101.722739 
L 453.410944 93.309197 
L 453.606938 93.197153 
L 454.194918 92.007102 
L 454.390911 91.929735 
L 454.586904 94.347579 
L 454.782898 87.331651 
L 454.978891 74.239293 
L 455.762864 81.155111 
L 455.958858 71.430632 
L 456.154851 68.740695 
L 456.350844 71.751305 
L 456.938824 66.087302 
L 457.134818 63.092786 
L 457.330811 62.538398 
L 457.526804 63.124589 
L 457.722798 61.950832 
L 458.310778 64.897579 
L 458.506771 69.966374 
L 458.702764 69.32297 
L 459.094751 84.921479 
L 459.682731 79.44688 
L 459.878725 80.604313 
L 460.074718 69.80584 
L 460.466705 66.590803 
L 461.054685 68.007189 
L 461.250678 67.338209 
L 461.446671 68.039847 
L 461.838658 68.276732 
L 462.426638 69.899233 
L 462.622631 67.991904 
L 463.014618 79.414716 
L 463.210611 69.070163 
L 463.798591 73.392444 
L 463.994585 73.794711 
L 464.190578 79.941028 
L 464.386571 78.730697 
L 464.582565 92.059607 
L 465.366538 89.053686 
L 465.562531 82.258536 
L 465.954518 99.251482 
L 466.542498 96.231994 
L 466.738491 94.545362 
L 466.934485 89.807526 
L 467.130478 90.598254 
L 467.914451 91.948443 
L 468.110445 84.353663 
L 468.502431 95.498932 
L 469.286405 104.520286 
L 469.678391 116.35196 
L 469.874385 130.817319 
L 470.070378 132.339951 
L 470.658358 129.048498 
L 470.854351 125.193015 
L 471.050345 139.005832 
L 471.246338 129.320138 
L 471.442332 140.705646 
L 472.226305 141.791954 
L 472.422298 143.241377 
L 472.618292 142.725352 
L 472.814285 127.719356 
L 473.402265 134.065928 
L 473.598258 130.224708 
L 473.794252 145.983928 
L 473.990245 137.766234 
L 474.186238 134.584197 
L 474.774218 138.179117 
L 474.970212 148.49144 
L 475.166205 146.854873 
L 475.362198 143.784607 
L 475.558192 155.633305 
L 476.146172 158.537197 
L 476.342165 160.533987 
L 476.538158 160.004924 
L 476.734152 162.427636 
L 476.930145 156.585364 
L 477.714118 147.310661 
L 477.910112 139.96051 
L 478.106105 146.058441 
L 478.302098 144.732843 
L 478.890078 137.844622 
L 479.086072 145.276363 
L 479.282065 144.042559 
L 479.478058 141.195902 
L 479.674052 141.288983 
L 480.262032 143.68798 
L 480.458025 128.576493 
L 480.850012 125.648683 
L 481.046005 122.479246 
L 481.633985 124.810143 
L 481.829978 130.718846 
L 482.025972 131.616868 
L 482.221965 131.454633 
L 482.417958 124.647594 
L 483.005938 124.062916 
L 483.397925 118.990221 
L 483.593918 119.275483 
L 483.789912 118.727813 
L 484.377892 118.280805 
L 484.573885 116.14483 
L 484.769879 117.117147 
L 484.965872 116.15863 
L 485.749845 118.087959 
L 486.141832 105.366611 
L 486.337825 106.892041 
L 486.533819 103.330335 
L 487.121799 103.199586 
L 487.317792 108.687899 
L 487.513785 101.625663 
L 487.709779 109.573094 
L 487.905772 107.726628 
L 488.493752 106.349407 
L 489.081732 92.52519 
L 489.277725 95.420077 
L 489.865705 96.259023 
L 490.061699 97.764053 
L 490.257692 94.84532 
L 490.649679 100.395164 
L 491.237659 101.778815 
L 491.433652 103.476564 
L 491.825639 121.825317 
L 492.021632 116.03176 
L 492.609612 112.126376 
L 493.197592 121.982428 
L 493.393585 120.219995 
L 493.981565 120.371233 
L 494.177559 113.334391 
L 494.373552 115.367855 
L 494.765539 121.326411 
L 495.353519 114.770829 
L 495.549512 118.583083 
L 495.745505 116.587352 
L 495.941499 118.422092 
L 496.137492 115.732316 
L 496.725472 115.39771 
L 497.117459 104.387163 
L 497.313452 102.644745 
L 498.293419 102.272161 
L 498.489412 104.835058 
L 498.685406 104.034941 
L 498.881399 104.673202 
L 499.469379 101.504874 
L 499.665372 101.711868 
L 499.861366 100.701251 
L 500.057359 101.093589 
L 500.253352 106.788236 
L 500.841332 110.967668 
L 501.037326 111.216348 
L 501.233319 112.384732 
L 501.429312 110.561279 
L 501.625306 115.792955 
L 502.213286 112.712962 
L 502.409279 110.609848 
L 502.605272 112.198624 
L 502.801266 106.026793 
L 502.997259 123.821463 
L 503.585239 130.257099 
L 503.977226 116.232593 
L 504.369212 109.873931 
L 505.153186 113.048509 
L 505.349179 110.769089 
L 505.545172 109.926433 
L 505.741166 103.928069 
L 506.329146 101.798234 
L 506.525139 98.3708 
L 506.721132 100.554243 
L 506.917126 95.507331 
L 507.113119 96.978781 
L 507.701099 94.804073 
L 507.897092 95.59146 
L 508.093086 93.968665 
L 508.289079 95.331336 
L 508.485072 95.442593 
L 509.073053 98.675384 
L 509.269046 99.110541 
L 509.661033 82.810035 
L 509.857026 82.287187 
L 510.445006 77.836085 
L 510.640999 82.305073 
L 511.032986 79.513534 
L 511.228979 74.483652 
L 511.816959 72.717971 
L 512.012953 71.64225 
L 512.208946 73.723459 
L 512.404939 72.190472 
L 512.600933 72.64899 
L 513.188913 69.693814 
L 513.384906 71.246941 
L 513.580899 70.954077 
L 513.776893 70.168606 
L 513.972886 72.040582 
L 514.560866 73.258774 
L 514.756859 71.983104 
L 514.952853 75.841005 
L 515.148846 76.191626 
L 515.344839 75.31039 
L 515.932819 74.941544 
L 516.128813 77.239004 
L 516.324806 77.437987 
L 516.716793 73.09595 
L 517.696759 68.935358 
L 517.892753 72.494338 
L 518.088746 83.266427 
L 518.676726 74.879488 
L 518.872719 75.925386 
L 519.264706 61.203278 
L 519.460699 61.730596 
L 520.048679 63.863345 
L 520.244673 61.98156 
L 520.636659 52.599903 
L 520.832653 56.507095 
L 521.420633 58.60253 
L 521.81262 51.692757 
L 522.008613 57.304465 
L 522.204606 53.392044 
L 522.792586 54.142344 
L 522.98858 54.633394 
L 523.184573 51.226764 
L 523.380566 50.674392 
L 523.57656 51.107838 
L 524.16454 46.365539 
L 524.360533 51.965679 
L 524.556526 49.935209 
L 524.75252 52.273802 
L 524.948513 52.137137 
L 525.536493 53.685065 
L 525.732486 51.538485 
L 525.92848 51.703101 
L 526.124473 53.198924 
L 526.320466 53.243977 
L 526.908446 47.916464 
L 527.10444 47.5003 
L 527.300433 52.829438 
L 527.496426 55.037605 
L 527.69242 64.444424 
L 528.2804 63.349381 
L 529.064373 81.534351 
L 529.848346 67.919496 
L 530.04434 65.925612 
L 530.240333 73.284024 
L 530.436326 73.321876 
L 531.024306 81.882716 
L 531.416293 72.152017 
L 531.612286 69.710691 
L 531.80828 70.099498 
L 532.592253 61.679056 
L 532.788246 63.158043 
L 533.180233 61.756536 
L 533.964207 66.139601 
L 534.356193 72.462932 
L 534.552187 71.81811 
L 535.140167 68.125295 
L 535.33616 66.152504 
L 535.728147 58.352912 
L 535.92414 54.907679 
L 536.51212 57.2655 
L 536.708113 51.252136 
L 536.904107 53.546969 
L 537.1001 52.59389 
L 537.296093 54.42761 
L 537.884073 52.64859 
L 538.080067 49.668686 
L 538.27606 50.556282 
L 538.472053 52.959463 
L 538.668047 52.698169 
L 539.45202 49.551226 
L 539.844007 52.532551 
L 540.04 56.935792 
L 540.04 56.935792 
" style="fill:none;stroke:#0000ff;stroke-linecap:square;"/>
   </g>
   <g id="patch_3">
    <path d="M 39.865 365.098447 
L 540.04 365.098447 
" style="fill:none;stroke:#000000;stroke-linecap:square;stroke-linejoin:miter;"/>
   </g>
   <g id="patch_4">
    <path d="M 39.865 365.098447 
L 39.865 28.90175 
" style="fill:none;stroke:#000000;stroke-linecap:square;stroke-linejoin:miter;"/>
   </g>
   <g id="patch_5">
    <path d="M 39.865 28.90175 
L 540.04 28.90175 
" style="fill:none;stroke:#000000;stroke-linecap:square;stroke-linejoin:miter;"/>
   </g>
   <g id="patch_6">
    <path d="M 540.04 365.098447 
L 540.04 28.90175 
" style="fill:none;stroke:#000000;stroke-linecap:square;stroke-linejoin:miter;"/>
   </g>
   <g id="matplotlib.axis_1">
    <g id="xtick_1">
     <g id="line2d_2">
      <defs>
       <path d="M 0 0 
L 0 -4 
" id="m314131dc78" style="stroke:#000000;stroke-width:0.5;"/>
      </defs>
      <g>
       <use style="stroke:#000000;stroke-width:0.5;" x="110.814588558" xlink:href="#m314131dc78" y="365.098447467"/>
      </g>
     </g>
     <g id="line2d_3">
      <defs>
       <path d="M 0 0 
L 0 4 
" id="m79d9d457f8" style="stroke:#000000;stroke-width:0.5;"/>
      </defs>
      <g>
       <use style="stroke:#000000;stroke-width:0.5;" x="110.814588558" xlink:href="#m79d9d457f8" y="28.90175"/>
      </g>
     </g>
     <g id="text_1">
      <!-- 2011 -->
      <defs>
       <path d="M 31.78125 66.40625 
Q 24.171875 66.40625 20.328125 58.90625 
Q 16.5 51.421875 16.5 36.375 
Q 16.5 21.390625 20.328125 13.890625 
Q 24.171875 6.390625 31.78125 6.390625 
Q 39.453125 6.390625 43.28125 13.890625 
Q 47.125 21.390625 47.125 36.375 
Q 47.125 51.421875 43.28125 58.90625 
Q 39.453125 66.40625 31.78125 66.40625 
M 31.78125 74.21875 
Q 44.046875 74.21875 50.515625 64.515625 
Q 56.984375 54.828125 56.984375 36.375 
Q 56.984375 17.96875 50.515625 8.265625 
Q 44.046875 -1.421875 31.78125 -1.421875 
Q 19.53125 -1.421875 13.0625 8.265625 
Q 6.59375 17.96875 6.59375 36.375 
Q 6.59375 54.828125 13.0625 64.515625 
Q 19.53125 74.21875 31.78125 74.21875 
" id="BitstreamVeraSans-Roman-30"/>
       <path d="M 12.40625 8.296875 
L 28.515625 8.296875 
L 28.515625 63.921875 
L 10.984375 60.40625 
L 10.984375 69.390625 
L 28.421875 72.90625 
L 38.28125 72.90625 
L 38.28125 8.296875 
L 54.390625 8.296875 
L 54.390625 0 
L 12.40625 0 
z
" id="BitstreamVeraSans-Roman-31"/>
       <path d="M 19.1875 8.296875 
L 53.609375 8.296875 
L 53.609375 0 
L 7.328125 0 
L 7.328125 8.296875 
Q 12.9375 14.109375 22.625 23.890625 
Q 32.328125 33.6875 34.8125 36.53125 
Q 39.546875 41.84375 41.421875 45.53125 
Q 43.3125 49.21875 43.3125 52.78125 
Q 43.3125 58.59375 39.234375 62.25 
Q 35.15625 65.921875 28.609375 65.921875 
Q 23.96875 65.921875 18.8125 64.3125 
Q 13.671875 62.703125 7.8125 59.421875 
L 7.8125 69.390625 
Q 13.765625 71.78125 18.9375 73 
Q 24.125 74.21875 28.421875 74.21875 
Q 39.75 74.21875 46.484375 68.546875 
Q 53.21875 62.890625 53.21875 53.421875 
Q 53.21875 48.921875 51.53125 44.890625 
Q 49.859375 40.875 45.40625 35.40625 
Q 44.1875 33.984375 37.640625 27.21875 
Q 31.109375 20.453125 19.1875 8.296875 
" id="BitstreamVeraSans-Roman-32"/>
      </defs>
      <g transform="translate(83.1183602264 392.264975352)rotate(-30.0)scale(0.12 -0.12)">
       <use xlink:href="#BitstreamVeraSans-Roman-32"/>
       <use x="63.623046875" xlink:href="#BitstreamVeraSans-Roman-30"/>
       <use x="127.24609375" xlink:href="#BitstreamVeraSans-Roman-31"/>
       <use x="190.869140625" xlink:href="#BitstreamVeraSans-Roman-31"/>
      </g>
     </g>
    </g>
    <g id="xtick_2">
     <g id="line2d_4">
      <g>
       <use style="stroke:#000000;stroke-width:0.5;" x="182.352157132" xlink:href="#m314131dc78" y="365.098447467"/>
      </g>
     </g>
     <g id="line2d_5">
      <g>
       <use style="stroke:#000000;stroke-width:0.5;" x="182.352157132" xlink:href="#m79d9d457f8" y="28.90175"/>
      </g>
     </g>
     <g id="text_2">
      <!-- 2012 -->
      <g transform="translate(154.6559288 392.264975352)rotate(-30.0)scale(0.12 -0.12)">
       <use xlink:href="#BitstreamVeraSans-Roman-32"/>
       <use x="63.623046875" xlink:href="#BitstreamVeraSans-Roman-30"/>
       <use x="127.24609375" xlink:href="#BitstreamVeraSans-Roman-31"/>
       <use x="190.869140625" xlink:href="#BitstreamVeraSans-Roman-32"/>
      </g>
     </g>
    </g>
    <g id="xtick_3">
     <g id="line2d_6">
      <g>
       <use style="stroke:#000000;stroke-width:0.5;" x="254.085719044" xlink:href="#m314131dc78" y="365.098447467"/>
      </g>
     </g>
     <g id="line2d_7">
      <g>
       <use style="stroke:#000000;stroke-width:0.5;" x="254.085719044" xlink:href="#m79d9d457f8" y="28.90175"/>
      </g>
     </g>
     <g id="text_3">
      <!-- 2013 -->
      <defs>
       <path d="M 40.578125 39.3125 
Q 47.65625 37.796875 51.625 33 
Q 55.609375 28.21875 55.609375 21.1875 
Q 55.609375 10.40625 48.1875 4.484375 
Q 40.765625 -1.421875 27.09375 -1.421875 
Q 22.515625 -1.421875 17.65625 -0.515625 
Q 12.796875 0.390625 7.625 2.203125 
L 7.625 11.71875 
Q 11.71875 9.328125 16.59375 8.109375 
Q 21.484375 6.890625 26.8125 6.890625 
Q 36.078125 6.890625 40.9375 10.546875 
Q 45.796875 14.203125 45.796875 21.1875 
Q 45.796875 27.640625 41.28125 31.265625 
Q 36.765625 34.90625 28.71875 34.90625 
L 20.21875 34.90625 
L 20.21875 43.015625 
L 29.109375 43.015625 
Q 36.375 43.015625 40.234375 45.921875 
Q 44.09375 48.828125 44.09375 54.296875 
Q 44.09375 59.90625 40.109375 62.90625 
Q 36.140625 65.921875 28.71875 65.921875 
Q 24.65625 65.921875 20.015625 65.03125 
Q 15.375 64.15625 9.8125 62.3125 
L 9.8125 71.09375 
Q 15.4375 72.65625 20.34375 73.4375 
Q 25.25 74.21875 29.59375 74.21875 
Q 40.828125 74.21875 47.359375 69.109375 
Q 53.90625 64.015625 53.90625 55.328125 
Q 53.90625 49.265625 50.4375 45.09375 
Q 46.96875 40.921875 40.578125 39.3125 
" id="BitstreamVeraSans-Roman-33"/>
      </defs>
      <g transform="translate(226.389490712 392.264975352)rotate(-30.0)scale(0.12 -0.12)">
       <use xlink:href="#BitstreamVeraSans-Roman-32"/>
       <use x="63.623046875" xlink:href="#BitstreamVeraSans-Roman-30"/>
       <use x="127.24609375" xlink:href="#BitstreamVeraSans-Roman-31"/>
       <use x="190.869140625" xlink:href="#BitstreamVeraSans-Roman-33"/>
      </g>
     </g>
    </g>
    <g id="xtick_4">
     <g id="line2d_8">
      <g>
       <use style="stroke:#000000;stroke-width:0.5;" x="325.623287618" xlink:href="#m314131dc78" y="365.098447467"/>
      </g>
     </g>
     <g id="line2d_9">
      <g>
       <use style="stroke:#000000;stroke-width:0.5;" x="325.623287618" xlink:href="#m79d9d457f8" y="28.90175"/>
      </g>
     </g>
     <g id="text_4">
      <!-- 2014 -->
      <defs>
       <path d="M 37.796875 64.3125 
L 12.890625 25.390625 
L 37.796875 25.390625 
z
M 35.203125 72.90625 
L 47.609375 72.90625 
L 47.609375 25.390625 
L 58.015625 25.390625 
L 58.015625 17.1875 
L 47.609375 17.1875 
L 47.609375 0 
L 37.796875 0 
L 37.796875 17.1875 
L 4.890625 17.1875 
L 4.890625 26.703125 
z
" id="BitstreamVeraSans-Roman-34"/>
      </defs>
      <g transform="translate(297.927059286 392.264975352)rotate(-30.0)scale(0.12 -0.12)">
       <use xlink:href="#BitstreamVeraSans-Roman-32"/>
       <use x="63.623046875" xlink:href="#BitstreamVeraSans-Roman-30"/>
       <use x="127.24609375" xlink:href="#BitstreamVeraSans-Roman-31"/>
       <use x="190.869140625" xlink:href="#BitstreamVeraSans-Roman-34"/>
      </g>
     </g>
    </g>
    <g id="xtick_5">
     <g id="line2d_10">
      <g>
       <use style="stroke:#000000;stroke-width:0.5;" x="397.160856191" xlink:href="#m314131dc78" y="365.098447467"/>
      </g>
     </g>
     <g id="line2d_11">
      <g>
       <use style="stroke:#000000;stroke-width:0.5;" x="397.160856191" xlink:href="#m79d9d457f8" y="28.90175"/>
      </g>
     </g>
     <g id="text_5">
      <!-- 2015 -->
      <defs>
       <path d="M 10.796875 72.90625 
L 49.515625 72.90625 
L 49.515625 64.59375 
L 19.828125 64.59375 
L 19.828125 46.734375 
Q 21.96875 47.46875 24.109375 47.828125 
Q 26.265625 48.1875 28.421875 48.1875 
Q 40.625 48.1875 47.75 41.5 
Q 54.890625 34.8125 54.890625 23.390625 
Q 54.890625 11.625 47.5625 5.09375 
Q 40.234375 -1.421875 26.90625 -1.421875 
Q 22.3125 -1.421875 17.546875 -0.640625 
Q 12.796875 0.140625 7.71875 1.703125 
L 7.71875 11.625 
Q 12.109375 9.234375 16.796875 8.0625 
Q 21.484375 6.890625 26.703125 6.890625 
Q 35.15625 6.890625 40.078125 11.328125 
Q 45.015625 15.765625 45.015625 23.390625 
Q 45.015625 31 40.078125 35.4375 
Q 35.15625 39.890625 26.703125 39.890625 
Q 22.75 39.890625 18.8125 39.015625 
Q 14.890625 38.140625 10.796875 36.28125 
z
" id="BitstreamVeraSans-Roman-35"/>
      </defs>
      <g transform="translate(369.46462786 392.264975352)rotate(-30.0)scale(0.12 -0.12)">
       <use xlink:href="#BitstreamVeraSans-Roman-32"/>
       <use x="63.623046875" xlink:href="#BitstreamVeraSans-Roman-30"/>
       <use x="127.24609375" xlink:href="#BitstreamVeraSans-Roman-31"/>
       <use x="190.869140625" xlink:href="#BitstreamVeraSans-Roman-35"/>
      </g>
     </g>
    </g>
    <g id="xtick_6">
     <g id="line2d_12">
      <g>
       <use style="stroke:#000000;stroke-width:0.5;" x="468.698424765" xlink:href="#m314131dc78" y="365.098447467"/>
      </g>
     </g>
     <g id="line2d_13">
      <g>
       <use style="stroke:#000000;stroke-width:0.5;" x="468.698424765" xlink:href="#m79d9d457f8" y="28.90175"/>
      </g>
     </g>
     <g id="text_6">
      <!-- 2016 -->
      <defs>
       <path d="M 33.015625 40.375 
Q 26.375 40.375 22.484375 35.828125 
Q 18.609375 31.296875 18.609375 23.390625 
Q 18.609375 15.53125 22.484375 10.953125 
Q 26.375 6.390625 33.015625 6.390625 
Q 39.65625 6.390625 43.53125 10.953125 
Q 47.40625 15.53125 47.40625 23.390625 
Q 47.40625 31.296875 43.53125 35.828125 
Q 39.65625 40.375 33.015625 40.375 
M 52.59375 71.296875 
L 52.59375 62.3125 
Q 48.875 64.0625 45.09375 64.984375 
Q 41.3125 65.921875 37.59375 65.921875 
Q 27.828125 65.921875 22.671875 59.328125 
Q 17.53125 52.734375 16.796875 39.40625 
Q 19.671875 43.65625 24.015625 45.921875 
Q 28.375 48.1875 33.59375 48.1875 
Q 44.578125 48.1875 50.953125 41.515625 
Q 57.328125 34.859375 57.328125 23.390625 
Q 57.328125 12.15625 50.6875 5.359375 
Q 44.046875 -1.421875 33.015625 -1.421875 
Q 20.359375 -1.421875 13.671875 8.265625 
Q 6.984375 17.96875 6.984375 36.375 
Q 6.984375 53.65625 15.1875 63.9375 
Q 23.390625 74.21875 37.203125 74.21875 
Q 40.921875 74.21875 44.703125 73.484375 
Q 48.484375 72.75 52.59375 71.296875 
" id="BitstreamVeraSans-Roman-36"/>
      </defs>
      <g transform="translate(441.002196433 392.264975352)rotate(-30.0)scale(0.12 -0.12)">
       <use xlink:href="#BitstreamVeraSans-Roman-32"/>
       <use x="63.623046875" xlink:href="#BitstreamVeraSans-Roman-30"/>
       <use x="127.24609375" xlink:href="#BitstreamVeraSans-Roman-31"/>
       <use x="190.869140625" xlink:href="#BitstreamVeraSans-Roman-36"/>
      </g>
     </g>
    </g>
    <g id="text_7">
     <!-- Date -->
     <defs>
      <path d="M 56.203125 29.59375 
L 56.203125 25.203125 
L 14.890625 25.203125 
Q 15.484375 15.921875 20.484375 11.0625 
Q 25.484375 6.203125 34.421875 6.203125 
Q 39.59375 6.203125 44.453125 7.46875 
Q 49.3125 8.734375 54.109375 11.28125 
L 54.109375 2.78125 
Q 49.265625 0.734375 44.1875 -0.34375 
Q 39.109375 -1.421875 33.890625 -1.421875 
Q 20.796875 -1.421875 13.15625 6.1875 
Q 5.515625 13.8125 5.515625 26.8125 
Q 5.515625 40.234375 12.765625 48.109375 
Q 20.015625 56 32.328125 56 
Q 43.359375 56 49.78125 48.890625 
Q 56.203125 41.796875 56.203125 29.59375 
M 47.21875 32.234375 
Q 47.125 39.59375 43.09375 43.984375 
Q 39.0625 48.390625 32.421875 48.390625 
Q 24.90625 48.390625 20.390625 44.140625 
Q 15.875 39.890625 15.1875 32.171875 
z
" id="BitstreamVeraSans-Roman-65"/>
      <path d="M 19.671875 64.796875 
L 19.671875 8.109375 
L 31.59375 8.109375 
Q 46.6875 8.109375 53.6875 14.9375 
Q 60.6875 21.78125 60.6875 36.53125 
Q 60.6875 51.171875 53.6875 57.984375 
Q 46.6875 64.796875 31.59375 64.796875 
z
M 9.8125 72.90625 
L 30.078125 72.90625 
Q 51.265625 72.90625 61.171875 64.09375 
Q 71.09375 55.28125 71.09375 36.53125 
Q 71.09375 17.671875 61.125 8.828125 
Q 51.171875 0 30.078125 0 
L 9.8125 0 
z
" id="BitstreamVeraSans-Roman-44"/>
      <path d="M 34.28125 27.484375 
Q 23.390625 27.484375 19.1875 25 
Q 14.984375 22.515625 14.984375 16.5 
Q 14.984375 11.71875 18.140625 8.90625 
Q 21.296875 6.109375 26.703125 6.109375 
Q 34.1875 6.109375 38.703125 11.40625 
Q 43.21875 16.703125 43.21875 25.484375 
L 43.21875 27.484375 
z
M 52.203125 31.203125 
L 52.203125 0 
L 43.21875 0 
L 43.21875 8.296875 
Q 40.140625 3.328125 35.546875 0.953125 
Q 30.953125 -1.421875 24.3125 -1.421875 
Q 15.921875 -1.421875 10.953125 3.296875 
Q 6 8.015625 6 15.921875 
Q 6 25.140625 12.171875 29.828125 
Q 18.359375 34.515625 30.609375 34.515625 
L 43.21875 34.515625 
L 43.21875 35.40625 
Q 43.21875 41.609375 39.140625 45 
Q 35.0625 48.390625 27.6875 48.390625 
Q 23 48.390625 18.546875 47.265625 
Q 14.109375 46.140625 10.015625 43.890625 
L 10.015625 52.203125 
Q 14.9375 54.109375 19.578125 55.046875 
Q 24.21875 56 28.609375 56 
Q 40.484375 56 46.34375 49.84375 
Q 52.203125 43.703125 52.203125 31.203125 
" id="BitstreamVeraSans-Roman-61"/>
      <path d="M 18.3125 70.21875 
L 18.3125 54.6875 
L 36.8125 54.6875 
L 36.8125 47.703125 
L 18.3125 47.703125 
L 18.3125 18.015625 
Q 18.3125 11.328125 20.140625 9.421875 
Q 21.96875 7.515625 27.59375 7.515625 
L 36.8125 7.515625 
L 36.8125 0 
L 27.59375 0 
Q 17.1875 0 13.234375 3.875 
Q 9.28125 7.765625 9.28125 18.015625 
L 9.28125 47.703125 
L 2.6875 47.703125 
L 2.6875 54.6875 
L 9.28125 54.6875 
L 9.28125 70.21875 
z
" id="BitstreamVeraSans-Roman-74"/>
     </defs>
     <g transform="translate(275.6115625 408.544375)scale(0.12 -0.12)">
      <use xlink:href="#BitstreamVeraSans-Roman-44"/>
      <use x="77.001953125" xlink:href="#BitstreamVeraSans-Roman-61"/>
      <use x="138.28125" xlink:href="#BitstreamVeraSans-Roman-74"/>
      <use x="177.490234375" xlink:href="#BitstreamVeraSans-Roman-65"/>
     </g>
    </g>
   </g>
   <g id="matplotlib.axis_2">
    <g id="ytick_1">
     <g id="line2d_14">
      <defs>
       <path d="M 0 0 
L 4 0 
" id="mdf21fbcc18" style="stroke:#000000;stroke-width:0.5;"/>
      </defs>
      <g>
       <use style="stroke:#000000;stroke-width:0.5;" x="39.865" xlink:href="#mdf21fbcc18" y="365.098447467"/>
      </g>
     </g>
     <g id="line2d_15">
      <defs>
       <path d="M 0 0 
L -4 0 
" id="m92ce1062db" style="stroke:#000000;stroke-width:0.5;"/>
      </defs>
      <g>
       <use style="stroke:#000000;stroke-width:0.5;" x="540.04" xlink:href="#m92ce1062db" y="365.098447467"/>
      </g>
     </g>
     <g id="text_8">
      <!-- 80 -->
      <defs>
       <path d="M 31.78125 34.625 
Q 24.75 34.625 20.71875 30.859375 
Q 16.703125 27.09375 16.703125 20.515625 
Q 16.703125 13.921875 20.71875 10.15625 
Q 24.75 6.390625 31.78125 6.390625 
Q 38.8125 6.390625 42.859375 10.171875 
Q 46.921875 13.96875 46.921875 20.515625 
Q 46.921875 27.09375 42.890625 30.859375 
Q 38.875 34.625 31.78125 34.625 
M 21.921875 38.8125 
Q 15.578125 40.375 12.03125 44.71875 
Q 8.5 49.078125 8.5 55.328125 
Q 8.5 64.0625 14.71875 69.140625 
Q 20.953125 74.21875 31.78125 74.21875 
Q 42.671875 74.21875 48.875 69.140625 
Q 55.078125 64.0625 55.078125 55.328125 
Q 55.078125 49.078125 51.53125 44.71875 
Q 48 40.375 41.703125 38.8125 
Q 48.828125 37.15625 52.796875 32.3125 
Q 56.78125 27.484375 56.78125 20.515625 
Q 56.78125 9.90625 50.3125 4.234375 
Q 43.84375 -1.421875 31.78125 -1.421875 
Q 19.734375 -1.421875 13.25 4.234375 
Q 6.78125 9.90625 6.78125 20.515625 
Q 6.78125 27.484375 10.78125 32.3125 
Q 14.796875 37.15625 21.921875 38.8125 
M 18.3125 54.390625 
Q 18.3125 48.734375 21.84375 45.5625 
Q 25.390625 42.390625 31.78125 42.390625 
Q 38.140625 42.390625 41.71875 45.5625 
Q 45.3125 48.734375 45.3125 54.390625 
Q 45.3125 60.0625 41.71875 63.234375 
Q 38.140625 66.40625 31.78125 66.40625 
Q 25.390625 66.40625 21.84375 63.234375 
Q 18.3125 60.0625 18.3125 54.390625 
" id="BitstreamVeraSans-Roman-38"/>
      </defs>
      <g transform="translate(20.595 368.409697467)scale(0.12 -0.12)">
       <use xlink:href="#BitstreamVeraSans-Roman-38"/>
       <use x="63.623046875" xlink:href="#BitstreamVeraSans-Roman-30"/>
      </g>
     </g>
    </g>
    <g id="ytick_2">
     <g id="line2d_16">
      <g>
       <use style="stroke:#000000;stroke-width:0.5;" x="39.865" xlink:href="#mdf21fbcc18" y="323.073860283"/>
      </g>
     </g>
     <g id="line2d_17">
      <g>
       <use style="stroke:#000000;stroke-width:0.5;" x="540.04" xlink:href="#m92ce1062db" y="323.073860283"/>
      </g>
     </g>
     <g id="text_9">
      <!-- 100 -->
      <g transform="translate(12.96 326.385110283)scale(0.12 -0.12)">
       <use xlink:href="#BitstreamVeraSans-Roman-31"/>
       <use x="63.623046875" xlink:href="#BitstreamVeraSans-Roman-30"/>
       <use x="127.24609375" xlink:href="#BitstreamVeraSans-Roman-30"/>
      </g>
     </g>
    </g>
    <g id="ytick_3">
     <g id="line2d_18">
      <g>
       <use style="stroke:#000000;stroke-width:0.5;" x="39.865" xlink:href="#mdf21fbcc18" y="281.0492731"/>
      </g>
     </g>
     <g id="line2d_19">
      <g>
       <use style="stroke:#000000;stroke-width:0.5;" x="540.04" xlink:href="#m92ce1062db" y="281.0492731"/>
      </g>
     </g>
     <g id="text_10">
      <!-- 120 -->
      <g transform="translate(12.96 284.3605231)scale(0.12 -0.12)">
       <use xlink:href="#BitstreamVeraSans-Roman-31"/>
       <use x="63.623046875" xlink:href="#BitstreamVeraSans-Roman-32"/>
       <use x="127.24609375" xlink:href="#BitstreamVeraSans-Roman-30"/>
      </g>
     </g>
    </g>
    <g id="ytick_4">
     <g id="line2d_20">
      <g>
       <use style="stroke:#000000;stroke-width:0.5;" x="39.865" xlink:href="#mdf21fbcc18" y="239.024685917"/>
      </g>
     </g>
     <g id="line2d_21">
      <g>
       <use style="stroke:#000000;stroke-width:0.5;" x="540.04" xlink:href="#m92ce1062db" y="239.024685917"/>
      </g>
     </g>
     <g id="text_11">
      <!-- 140 -->
      <g transform="translate(12.96 242.335935917)scale(0.12 -0.12)">
       <use xlink:href="#BitstreamVeraSans-Roman-31"/>
       <use x="63.623046875" xlink:href="#BitstreamVeraSans-Roman-34"/>
       <use x="127.24609375" xlink:href="#BitstreamVeraSans-Roman-30"/>
      </g>
     </g>
    </g>
    <g id="ytick_5">
     <g id="line2d_22">
      <g>
       <use style="stroke:#000000;stroke-width:0.5;" x="39.865" xlink:href="#mdf21fbcc18" y="197.000098733"/>
      </g>
     </g>
     <g id="line2d_23">
      <g>
       <use style="stroke:#000000;stroke-width:0.5;" x="540.04" xlink:href="#m92ce1062db" y="197.000098733"/>
      </g>
     </g>
     <g id="text_12">
      <!-- 160 -->
      <g transform="translate(12.96 200.311348733)scale(0.12 -0.12)">
       <use xlink:href="#BitstreamVeraSans-Roman-31"/>
       <use x="63.623046875" xlink:href="#BitstreamVeraSans-Roman-36"/>
       <use x="127.24609375" xlink:href="#BitstreamVeraSans-Roman-30"/>
      </g>
     </g>
    </g>
    <g id="ytick_6">
     <g id="line2d_24">
      <g>
       <use style="stroke:#000000;stroke-width:0.5;" x="39.865" xlink:href="#mdf21fbcc18" y="154.97551155"/>
      </g>
     </g>
     <g id="line2d_25">
      <g>
       <use style="stroke:#000000;stroke-width:0.5;" x="540.04" xlink:href="#m92ce1062db" y="154.97551155"/>
      </g>
     </g>
     <g id="text_13">
      <!-- 180 -->
      <g transform="translate(12.96 158.28676155)scale(0.12 -0.12)">
       <use xlink:href="#BitstreamVeraSans-Roman-31"/>
       <use x="63.623046875" xlink:href="#BitstreamVeraSans-Roman-38"/>
       <use x="127.24609375" xlink:href="#BitstreamVeraSans-Roman-30"/>
      </g>
     </g>
    </g>
    <g id="ytick_7">
     <g id="line2d_26">
      <g>
       <use style="stroke:#000000;stroke-width:0.5;" x="39.865" xlink:href="#mdf21fbcc18" y="112.950924367"/>
      </g>
     </g>
     <g id="line2d_27">
      <g>
       <use style="stroke:#000000;stroke-width:0.5;" x="540.04" xlink:href="#m92ce1062db" y="112.950924367"/>
      </g>
     </g>
     <g id="text_14">
      <!-- 200 -->
      <g transform="translate(12.96 116.262174367)scale(0.12 -0.12)">
       <use xlink:href="#BitstreamVeraSans-Roman-32"/>
       <use x="63.623046875" xlink:href="#BitstreamVeraSans-Roman-30"/>
       <use x="127.24609375" xlink:href="#BitstreamVeraSans-Roman-30"/>
      </g>
     </g>
    </g>
    <g id="ytick_8">
     <g id="line2d_28">
      <g>
       <use style="stroke:#000000;stroke-width:0.5;" x="39.865" xlink:href="#mdf21fbcc18" y="70.9263371833"/>
      </g>
     </g>
     <g id="line2d_29">
      <g>
       <use style="stroke:#000000;stroke-width:0.5;" x="540.04" xlink:href="#m92ce1062db" y="70.9263371833"/>
      </g>
     </g>
     <g id="text_15">
      <!-- 220 -->
      <g transform="translate(12.96 74.2375871833)scale(0.12 -0.12)">
       <use xlink:href="#BitstreamVeraSans-Roman-32"/>
       <use x="63.623046875" xlink:href="#BitstreamVeraSans-Roman-32"/>
       <use x="127.24609375" xlink:href="#BitstreamVeraSans-Roman-30"/>
      </g>
     </g>
    </g>
    <g id="ytick_9">
     <g id="line2d_30">
      <g>
       <use style="stroke:#000000;stroke-width:0.5;" x="39.865" xlink:href="#mdf21fbcc18" y="28.90175"/>
      </g>
     </g>
     <g id="line2d_31">
      <g>
       <use style="stroke:#000000;stroke-width:0.5;" x="540.04" xlink:href="#m92ce1062db" y="28.90175"/>
      </g>
     </g>
     <g id="text_16">
      <!-- 240 -->
      <g transform="translate(12.96 32.213)scale(0.12 -0.12)">
       <use xlink:href="#BitstreamVeraSans-Roman-32"/>
       <use x="63.623046875" xlink:href="#BitstreamVeraSans-Roman-34"/>
       <use x="127.24609375" xlink:href="#BitstreamVeraSans-Roman-30"/>
      </g>
     </g>
    </g>
   </g>
   <g id="text_17">
    <!-- Market-Cap Weighted Index -->
    <defs>
     <path d="M 4.890625 31.390625 
L 31.203125 31.390625 
L 31.203125 23.390625 
L 4.890625 23.390625 
z
" id="BitstreamVeraSans-Roman-2d"/>
     <path d="M 9.8125 72.90625 
L 24.515625 72.90625 
L 43.109375 23.296875 
L 61.8125 72.90625 
L 76.515625 72.90625 
L 76.515625 0 
L 66.890625 0 
L 66.890625 64.015625 
L 48.09375 14.015625 
L 38.1875 14.015625 
L 19.390625 64.015625 
L 19.390625 0 
L 9.8125 0 
z
" id="BitstreamVeraSans-Roman-4d"/>
     <path d="M 45.40625 46.390625 
L 45.40625 75.984375 
L 54.390625 75.984375 
L 54.390625 0 
L 45.40625 0 
L 45.40625 8.203125 
Q 42.578125 3.328125 38.25 0.953125 
Q 33.9375 -1.421875 27.875 -1.421875 
Q 17.96875 -1.421875 11.734375 6.484375 
Q 5.515625 14.40625 5.515625 27.296875 
Q 5.515625 40.1875 11.734375 48.09375 
Q 17.96875 56 27.875 56 
Q 33.9375 56 38.25 53.625 
Q 42.578125 51.265625 45.40625 46.390625 
M 14.796875 27.296875 
Q 14.796875 17.390625 18.875 11.75 
Q 22.953125 6.109375 30.078125 6.109375 
Q 37.203125 6.109375 41.296875 11.75 
Q 45.40625 17.390625 45.40625 27.296875 
Q 45.40625 37.203125 41.296875 42.84375 
Q 37.203125 48.484375 30.078125 48.484375 
Q 22.953125 48.484375 18.875 42.84375 
Q 14.796875 37.203125 14.796875 27.296875 
" id="BitstreamVeraSans-Roman-64"/>
     <path d="M 45.40625 27.984375 
Q 45.40625 37.75 41.375 43.109375 
Q 37.359375 48.484375 30.078125 48.484375 
Q 22.859375 48.484375 18.828125 43.109375 
Q 14.796875 37.75 14.796875 27.984375 
Q 14.796875 18.265625 18.828125 12.890625 
Q 22.859375 7.515625 30.078125 7.515625 
Q 37.359375 7.515625 41.375 12.890625 
Q 45.40625 18.265625 45.40625 27.984375 
M 54.390625 6.78125 
Q 54.390625 -7.171875 48.1875 -13.984375 
Q 42 -20.796875 29.203125 -20.796875 
Q 24.46875 -20.796875 20.265625 -20.09375 
Q 16.0625 -19.390625 12.109375 -17.921875 
L 12.109375 -9.1875 
Q 16.0625 -11.328125 19.921875 -12.34375 
Q 23.78125 -13.375 27.78125 -13.375 
Q 36.625 -13.375 41.015625 -8.765625 
Q 45.40625 -4.15625 45.40625 5.171875 
L 45.40625 9.625 
Q 42.625 4.78125 38.28125 2.390625 
Q 33.9375 0 27.875 0 
Q 17.828125 0 11.671875 7.65625 
Q 5.515625 15.328125 5.515625 27.984375 
Q 5.515625 40.671875 11.671875 48.328125 
Q 17.828125 56 27.875 56 
Q 33.9375 56 38.28125 53.609375 
Q 42.625 51.21875 45.40625 46.390625 
L 45.40625 54.6875 
L 54.390625 54.6875 
z
" id="BitstreamVeraSans-Roman-67"/>
     <path d="M 9.421875 54.6875 
L 18.40625 54.6875 
L 18.40625 0 
L 9.421875 0 
z
M 9.421875 75.984375 
L 18.40625 75.984375 
L 18.40625 64.59375 
L 9.421875 64.59375 
z
" id="BitstreamVeraSans-Roman-69"/>
     <path d="M 64.40625 67.28125 
L 64.40625 56.890625 
Q 59.421875 61.53125 53.78125 63.8125 
Q 48.140625 66.109375 41.796875 66.109375 
Q 29.296875 66.109375 22.65625 58.46875 
Q 16.015625 50.828125 16.015625 36.375 
Q 16.015625 21.96875 22.65625 14.328125 
Q 29.296875 6.6875 41.796875 6.6875 
Q 48.140625 6.6875 53.78125 8.984375 
Q 59.421875 11.28125 64.40625 15.921875 
L 64.40625 5.609375 
Q 59.234375 2.09375 53.4375 0.328125 
Q 47.65625 -1.421875 41.21875 -1.421875 
Q 24.65625 -1.421875 15.125 8.703125 
Q 5.609375 18.84375 5.609375 36.375 
Q 5.609375 53.953125 15.125 64.078125 
Q 24.65625 74.21875 41.21875 74.21875 
Q 47.75 74.21875 53.53125 72.484375 
Q 59.328125 70.75 64.40625 67.28125 
" id="BitstreamVeraSans-Roman-43"/>
     <path d="M 9.8125 72.90625 
L 19.671875 72.90625 
L 19.671875 0 
L 9.8125 0 
z
" id="BitstreamVeraSans-Roman-49"/>
     <path d="M 3.328125 72.90625 
L 13.28125 72.90625 
L 28.609375 11.28125 
L 43.890625 72.90625 
L 54.984375 72.90625 
L 70.3125 11.28125 
L 85.59375 72.90625 
L 95.609375 72.90625 
L 77.296875 0 
L 64.890625 0 
L 49.515625 63.28125 
L 33.984375 0 
L 21.578125 0 
z
" id="BitstreamVeraSans-Roman-57"/>
     <path d="M 9.078125 75.984375 
L 18.109375 75.984375 
L 18.109375 31.109375 
L 44.921875 54.6875 
L 56.390625 54.6875 
L 27.390625 29.109375 
L 57.625 0 
L 45.90625 0 
L 18.109375 26.703125 
L 18.109375 0 
L 9.078125 0 
z
" id="BitstreamVeraSans-Roman-6b"/>
     <path d="M 54.890625 54.6875 
L 35.109375 28.078125 
L 55.90625 0 
L 45.3125 0 
L 29.390625 21.484375 
L 13.484375 0 
L 2.875 0 
L 24.125 28.609375 
L 4.6875 54.6875 
L 15.28125 54.6875 
L 29.78125 35.203125 
L 44.28125 54.6875 
z
" id="BitstreamVeraSans-Roman-78"/>
     <path d="M 41.109375 46.296875 
Q 39.59375 47.171875 37.8125 47.578125 
Q 36.03125 48 33.890625 48 
Q 26.265625 48 22.1875 43.046875 
Q 18.109375 38.09375 18.109375 28.8125 
L 18.109375 0 
L 9.078125 0 
L 9.078125 54.6875 
L 18.109375 54.6875 
L 18.109375 46.1875 
Q 20.953125 51.171875 25.484375 53.578125 
Q 30.03125 56 36.53125 56 
Q 37.453125 56 38.578125 55.875 
Q 39.703125 55.765625 41.0625 55.515625 
z
" id="BitstreamVeraSans-Roman-72"/>
     <path d="M 54.890625 33.015625 
L 54.890625 0 
L 45.90625 0 
L 45.90625 32.71875 
Q 45.90625 40.484375 42.875 44.328125 
Q 39.84375 48.1875 33.796875 48.1875 
Q 26.515625 48.1875 22.3125 43.546875 
Q 18.109375 38.921875 18.109375 30.90625 
L 18.109375 0 
L 9.078125 0 
L 9.078125 75.984375 
L 18.109375 75.984375 
L 18.109375 46.1875 
Q 21.34375 51.125 25.703125 53.5625 
Q 30.078125 56 35.796875 56 
Q 45.21875 56 50.046875 50.171875 
Q 54.890625 44.34375 54.890625 33.015625 
" id="BitstreamVeraSans-Roman-68"/>
     <path d="M 54.890625 33.015625 
L 54.890625 0 
L 45.90625 0 
L 45.90625 32.71875 
Q 45.90625 40.484375 42.875 44.328125 
Q 39.84375 48.1875 33.796875 48.1875 
Q 26.515625 48.1875 22.3125 43.546875 
Q 18.109375 38.921875 18.109375 30.90625 
L 18.109375 0 
L 9.078125 0 
L 9.078125 54.6875 
L 18.109375 54.6875 
L 18.109375 46.1875 
Q 21.34375 51.125 25.703125 53.5625 
Q 30.078125 56 35.796875 56 
Q 45.21875 56 50.046875 50.171875 
Q 54.890625 44.34375 54.890625 33.015625 
" id="BitstreamVeraSans-Roman-6e"/>
     <path id="BitstreamVeraSans-Roman-20"/>
     <path d="M 18.109375 8.203125 
L 18.109375 -20.796875 
L 9.078125 -20.796875 
L 9.078125 54.6875 
L 18.109375 54.6875 
L 18.109375 46.390625 
Q 20.953125 51.265625 25.265625 53.625 
Q 29.59375 56 35.59375 56 
Q 45.5625 56 51.78125 48.09375 
Q 58.015625 40.1875 58.015625 27.296875 
Q 58.015625 14.40625 51.78125 6.484375 
Q 45.5625 -1.421875 35.59375 -1.421875 
Q 29.59375 -1.421875 25.265625 0.953125 
Q 20.953125 3.328125 18.109375 8.203125 
M 48.6875 27.296875 
Q 48.6875 37.203125 44.609375 42.84375 
Q 40.53125 48.484375 33.40625 48.484375 
Q 26.265625 48.484375 22.1875 42.84375 
Q 18.109375 37.203125 18.109375 27.296875 
Q 18.109375 17.390625 22.1875 11.75 
Q 26.265625 6.109375 33.40625 6.109375 
Q 40.53125 6.109375 44.609375 11.75 
Q 48.6875 17.390625 48.6875 27.296875 
" id="BitstreamVeraSans-Roman-70"/>
    </defs>
    <g transform="translate(189.3145 23.90175)scale(0.144 -0.144)">
     <use xlink:href="#BitstreamVeraSans-Roman-4d"/>
     <use x="86.279296875" xlink:href="#BitstreamVeraSans-Roman-61"/>
     <use x="147.55859375" xlink:href="#BitstreamVeraSans-Roman-72"/>
     <use x="188.671875" xlink:href="#BitstreamVeraSans-Roman-6b"/>
     <use x="246.53515625" xlink:href="#BitstreamVeraSans-Roman-65"/>
     <use x="308.05859375" xlink:href="#BitstreamVeraSans-Roman-74"/>
     <use x="347.267578125" xlink:href="#BitstreamVeraSans-Roman-2d"/>
     <use x="383.3515625" xlink:href="#BitstreamVeraSans-Roman-43"/>
     <use x="453.17578125" xlink:href="#BitstreamVeraSans-Roman-61"/>
     <use x="514.455078125" xlink:href="#BitstreamVeraSans-Roman-70"/>
     <use x="577.931640625" xlink:href="#BitstreamVeraSans-Roman-20"/>
     <use x="609.71875" xlink:href="#BitstreamVeraSans-Roman-57"/>
     <use x="708.517578125" xlink:href="#BitstreamVeraSans-Roman-65"/>
     <use x="770.041015625" xlink:href="#BitstreamVeraSans-Roman-69"/>
     <use x="797.82421875" xlink:href="#BitstreamVeraSans-Roman-67"/>
     <use x="861.30078125" xlink:href="#BitstreamVeraSans-Roman-68"/>
     <use x="924.6796875" xlink:href="#BitstreamVeraSans-Roman-74"/>
     <use x="963.888671875" xlink:href="#BitstreamVeraSans-Roman-65"/>
     <use x="1025.412109375" xlink:href="#BitstreamVeraSans-Roman-64"/>
     <use x="1088.888671875" xlink:href="#BitstreamVeraSans-Roman-20"/>
     <use x="1120.67578125" xlink:href="#BitstreamVeraSans-Roman-49"/>
     <use x="1150.16796875" xlink:href="#BitstreamVeraSans-Roman-6e"/>
     <use x="1213.546875" xlink:href="#BitstreamVeraSans-Roman-64"/>
     <use x="1277.0234375" xlink:href="#BitstreamVeraSans-Roman-65"/>
     <use x="1338.53125" xlink:href="#BitstreamVeraSans-Roman-78"/>
    </g>
   </g>
  </g>
 </g>
 <defs>
  <clipPath id="p39babbfd25">
   <rect height="336.196697467" width="500.175" x="39.865" y="28.90175"/>
  </clipPath>
 </defs>
</svg>
