<?xml version="1.0" encoding="utf-8" standalone="no"?>
<!DOCTYPE svg PUBLIC "-//W3C//DTD SVG 1.1//EN"
  "http://www.w3.org/Graphics/SVG/1.1/DTD/svg11.dtd">
<!-- Created with matplotlib (http://matplotlib.org/) -->
<svg height="450pt" version="1.1" viewBox="0 0 458 450" width="458pt" xmlns="http://www.w3.org/2000/svg" xmlns:xlink="http://www.w3.org/1999/xlink">
 <defs>
  <style type="text/css">
*{stroke-linecap:butt;stroke-linejoin:round;stroke-miterlimit:100000;}
  </style>
 </defs>
 <g id="figure_1">
  <g id="patch_1">
   <path d="M 0 450 
L 458 450 
L 458 0 
L 0 0 
z
" style="fill:#ffffff;"/>
  </g>
  <g id="axes_1">
   <g id="patch_2">
    <path d="M 47.5 391.098447 
L 445.04 391.098447 
L 445.04 18.766875 
L 47.5 18.766875 
z
" style="fill:#ffffff;"/>
   </g>
   <g id="line2d_1">
    <path clip-path="url(#p6b478daea2)" d="M 98.515673 329.286592 
L 98.956731 328.664552 
L 99.250769 327.528653 
L 99.397788 328.123648 
L 99.985865 327.71797 
L 100.132885 327.393427 
L 100.279904 327.474563 
L 100.573942 328.529326 
L 101.309038 324.120955 
L 101.456058 324.202091 
L 102.044135 320.848483 
L 102.191154 321.145981 
L 102.632212 318.522594 
L 103.367308 322.227789 
L 103.661346 326.933658 
L 104.396442 320.307579 
L 104.543462 320.550986 
L 104.690481 323.309598 
L 105.131538 322.065518 
L 105.278558 319.84781 
L 105.572596 320.46985 
L 105.719615 319.27986 
L 106.160673 317.197378 
L 106.454712 314.763308 
L 106.601731 316.16966 
L 106.74875 315.277167 
L 107.336827 314.114223 
L 107.483846 312.843097 
L 107.777885 317.711237 
L 108.365962 322.33597 
L 108.512981 320.767347 
L 108.66 320.686212 
L 108.807019 318.630775 
L 109.248077 316.683519 
L 109.395096 318.198051 
L 109.542115 317.116242 
L 109.689135 314.222404 
L 109.836154 314.060132 
L 110.277212 315.845117 
L 110.424231 315.709891 
L 110.57125 316.981016 
L 110.718269 319.22577 
L 110.865288 317.170333 
L 111.306346 316.548293 
L 111.453365 319.685539 
L 111.600385 325.662533 
L 111.747404 323.850503 
L 111.894423 325.39208 
L 112.4825 321.335297 
L 112.629519 322.092563 
L 112.923558 317.332604 
L 113.364615 317.765328 
L 113.511635 317.548966 
L 113.658654 318.468504 
L 113.805673 318.495549 
L 113.952692 320.037126 
L 114.39375 321.335297 
L 114.687788 322.552332 
L 114.834808 322.525287 
L 114.981827 323.688231 
L 115.422885 325.33799 
L 115.569904 324.71595 
L 115.716923 323.282553 
L 116.010962 326.636161 
L 116.452019 324.932312 
L 116.893077 317.657147 
L 117.481154 316.764655 
L 117.628173 317.765328 
L 117.775192 317.873509 
L 117.922212 319.171679 
L 118.069231 317.873509 
L 118.510288 319.360996 
L 118.804327 318.08987 
L 118.951346 319.171679 
L 119.098365 319.22577 
L 119.539423 318.847137 
L 119.686442 318.143961 
L 119.980481 319.252815 
L 120.1275 321.605749 
L 120.568558 324.391407 
L 121.009615 321.578704 
L 121.156635 323.634141 
L 121.597692 323.958684 
L 121.744712 324.797086 
L 121.891731 323.039146 
L 122.03875 323.715277 
L 122.773846 318.766001 
L 122.920865 319.658493 
L 123.067885 319.442132 
L 123.214904 320.46985 
L 123.655962 322.552332 
L 123.802981 324.878221 
L 123.95 324.797086 
L 124.097019 325.067538 
L 124.244038 327.231156 
L 124.685096 326.960703 
L 124.832115 324.71595 
L 125.126154 327.528653 
L 125.273173 329.421818 
L 125.714231 331.314984 
L 125.86125 327.474563 
L 126.008269 328.502281 
L 126.155288 325.175719 
L 126.302308 327.068884 
L 126.890385 323.634141 
L 127.037404 324.09391 
L 127.184423 323.47187 
L 127.331442 320.52394 
L 128.066538 317.251469 
L 128.360577 314.168313 
L 128.801635 316.386021 
L 128.948654 316.467157 
L 129.095673 314.817399 
L 129.242692 314.925579 
L 129.389712 312.166967 
L 129.977788 307.542234 
L 130.124808 303.674767 
L 130.271827 303.512496 
L 130.418846 301.186607 
L 130.859904 299.18526 
L 131.006923 297.292095 
L 131.153942 301.484104 
L 131.447981 302.295461 
L 131.889038 299.861391 
L 132.036058 303.160908 
L 132.183077 301.484104 
L 132.477115 308.813359 
L 132.918173 316.683519 
L 133.065192 308.651088 
L 133.212212 312.626736 
L 133.50625 307.488143 
L 133.947308 305.027028 
L 134.094327 306.162928 
L 134.241346 306.162928 
L 134.535385 315.60171 
L 134.976442 315.439439 
L 135.123462 308.813359 
L 135.270481 307.812686 
L 135.4175 308.759269 
L 135.564519 304.945893 
L 136.005577 302.484777 
L 136.152596 302.484777 
L 136.593654 308.624043 
L 137.181731 306.43338 
L 137.32875 304.810666 
L 137.475769 304.729531 
L 137.622788 307.298827 
L 138.063846 306.352244 
L 139.092981 294.127804 
L 139.24 293.424628 
L 139.387019 293.911442 
L 139.534038 297.914135 
L 139.681058 296.940507 
L 140.122115 297.37323 
L 140.563173 302.24137 
L 140.710192 305.838385 
L 141.298269 309.246083 
L 141.445288 307.001329 
L 141.592308 307.352917 
L 141.739327 310.273801 
L 142.180385 302.944546 
L 142.327404 298.50913 
L 142.474423 297.751863 
L 142.621442 295.344839 
L 142.768462 290.098066 
L 143.209519 290.882377 
L 143.356538 290.01693 
L 143.503558 299.13117 
L 143.797596 301.375923 
L 144.238654 296.372557 
L 144.385673 299.482758 
L 144.826731 296.6971 
L 145.267788 296.75119 
L 145.414808 299.969572 
L 145.561827 299.617984 
L 145.708846 297.427321 
L 145.855865 298.50913 
L 146.296923 298.725491 
L 146.443942 296.210286 
L 146.737981 304.323852 
L 146.885 304.540214 
L 147.326058 306.622696 
L 147.473077 302.917501 
L 147.620096 304.486124 
L 147.914135 308.2995 
L 148.355192 310.571299 
L 148.502212 307.67746 
L 148.649231 311.35561 
L 148.943269 312.680826 
L 149.384327 307.839731 
L 149.531346 308.975631 
L 149.825385 303.269089 
L 149.972404 302.592958 
L 150.413462 301.321833 
L 150.7075 302.836365 
L 150.854519 302.214325 
L 151.001538 301.078426 
L 151.442596 301.754556 
L 151.589615 302.944546 
L 151.736635 306.271108 
L 151.883654 306.757922 
L 152.030673 305.946566 
L 152.471731 305.486797 
L 152.61875 300.185933 
L 152.765769 299.969572 
L 152.912788 299.158215 
L 153.059808 297.31914 
L 153.647885 296.07506 
L 153.794904 297.589592 
L 153.941923 296.643009 
L 154.088942 296.670055 
L 154.824038 293.424628 
L 155.118077 289.962839 
L 155.559135 290.206246 
L 155.706154 289.638297 
L 156.000192 290.341473 
L 156.147212 290.963513 
L 156.735288 289.070347 
L 156.882308 287.366498 
L 157.029327 287.880357 
L 157.176346 290.774196 
L 157.617404 288.015583 
L 157.764423 290.720106 
L 157.911442 280.578147 
L 158.058462 281.362459 
L 158.205481 280.33474 
L 158.646538 278.117032 
L 158.793558 276.791816 
L 158.940577 276.899997 
L 159.087596 277.305676 
L 159.234615 275.547736 
L 159.675673 273.897978 
L 159.969712 268.975747 
L 160.116731 262.62012 
L 160.26375 262.511939 
L 160.704808 258.969015 
L 160.851827 256.318583 
L 160.998846 260.862181 
L 161.145865 259.131286 
L 161.292885 259.158332 
L 161.880962 254.236101 
L 162.027981 254.939277 
L 162.175 253.641106 
L 162.322019 251.315217 
L 162.763077 250.017046 
L 163.057115 243.580284 
L 163.351154 242.52552 
L 163.939231 248.286152 
L 164.08625 248.123881 
L 164.380288 242.52552 
L 164.821346 239.875088 
L 165.115385 225.351804 
L 165.262404 226.920427 
L 165.409423 226.920427 
L 165.9975 219.023222 
L 166.438558 222.863643 
L 166.879615 218.644589 
L 167.173654 214.533715 
L 167.467692 221.511382 
L 168.055769 210.017163 
L 168.202788 211.937374 
L 168.349808 208.313314 
L 168.937885 207.339686 
L 169.231923 211.207153 
L 169.378942 212.532369 
L 169.525962 219.320719 
L 169.967019 229.002909 
L 170.114038 217.589825 
L 170.261058 218.103684 
L 170.555096 231.788567 
L 170.996154 232.275381 
L 171.143173 236.683752 
L 171.290192 217.481644 
L 171.437212 218.374137 
L 171.584231 220.186166 
L 172.172308 228.245643 
L 172.319327 226.758155 
L 172.466346 228.353824 
L 172.613365 234.763541 
L 173.054423 233.140828 
L 173.201442 233.627642 
L 173.495481 232.73515 
L 174.377596 242.173932 
L 174.524615 248.340243 
L 174.671635 248.232062 
L 175.112692 236.305119 
L 175.259712 237.954877 
L 175.406731 232.708104 
L 175.700769 235.899441 
L 176.288846 232.059019 
L 176.435865 229.381542 
L 176.582885 229.949492 
L 176.729904 236.4133 
L 177.170962 235.142174 
L 177.317981 235.710124 
L 177.465 232.356516 
L 177.612019 232.275381 
L 177.759038 228.948818 
L 178.200096 232.464697 
L 178.347115 230.544487 
L 178.494135 232.086064 
L 178.641154 232.329471 
L 178.788173 231.328798 
L 179.37625 226.190206 
L 179.523269 226.839291 
L 179.670288 229.976537 
L 179.817308 228.245643 
L 180.258365 232.626969 
L 180.405385 232.140155 
L 180.552404 231.193572 
L 180.699423 233.303099 
L 180.846442 227.515422 
L 181.2875 224.215905 
L 181.728558 217.50869 
L 181.875577 219.077312 
L 182.316635 215.967112 
L 182.757692 221.754789 
L 182.904712 219.4289 
L 183.345769 218.671634 
L 183.492788 218.644589 
L 183.639808 218.915041 
L 183.786827 215.804841 
L 183.933846 219.672307 
L 184.374904 219.861624 
L 184.521923 220.970478 
L 184.668942 231.004255 
L 184.815962 231.031301 
L 184.962981 227.082698 
L 185.404038 223.269322 
L 185.551058 217.184147 
L 185.698077 218.698679 
L 185.845096 218.320046 
L 185.992115 215.263936 
L 186.433173 212.613504 
L 186.727212 213.668268 
L 187.02125 212.965092 
L 187.609327 209.097625 
L 187.756346 209.422168 
L 187.903365 207.285596 
L 188.050385 202.741998 
L 188.491442 196.170009 
L 188.638462 199.685888 
L 188.785481 194.736613 
L 188.9325 197.143637 
L 189.079519 196.90023 
L 189.520577 192.086181 
L 189.814615 192.951628 
L 189.961635 196.656823 
L 190.108654 196.142964 
L 190.696731 192.383678 
L 190.84375 194.195708 
L 191.137788 190.247106 
L 191.725865 197.927949 
L 192.166923 186.082141 
L 192.755 181.971268 
L 192.902019 181.890132 
L 193.049038 183.215348 
L 193.196058 182.674443 
L 193.637115 186.271458 
L 193.931154 196.142964 
L 194.078173 189.922563 
L 194.225192 195.412743 
L 194.66625 198.387717 
L 194.813269 197.657496 
L 194.960288 193.735939 
L 195.107308 195.520924 
L 195.254327 201.011104 
L 195.842404 207.474912 
L 195.989423 205.527656 
L 196.136442 210.558067 
L 196.724519 207.907636 
L 196.871538 202.092913 
L 197.018558 204.094259 
L 197.165577 208.718992 
L 197.312596 217.535735 
L 197.753654 208.178088 
L 197.900673 216.183474 
L 198.047692 214.831213 
L 198.341731 219.780488 
L 199.076827 223.134096 
L 199.223846 222.674327 
L 199.370865 230.30108 
L 199.811923 227.272015 
L 199.958942 227.97519 
L 200.252981 245.392313 
L 200.4 241.795299 
L 200.841058 243.418012 
L 200.988077 243.390967 
L 201.135096 245.716856 
L 201.282115 250.071137 
L 201.429135 249.286825 
L 201.870192 234.574225 
L 202.017212 236.440345 
L 202.164231 236.142848 
L 202.899327 225.378849 
L 203.193365 227.9211 
L 203.340385 225.459985 
L 203.487404 227.028608 
L 203.928462 226.67702 
L 204.075481 230.679713 
L 204.2225 244.986635 
L 204.369519 241.714163 
L 204.516538 247.123208 
L 204.957596 248.448424 
L 205.104615 243.985962 
L 205.251635 244.905499 
L 205.398654 248.502514 
L 205.545673 256.183357 
L 205.986731 252.694523 
L 206.13375 246.879801 
L 206.427788 251.585669 
L 206.574808 252.505207 
L 207.015865 252.180664 
L 207.309904 254.939277 
L 207.456923 254.154965 
L 207.603942 256.264493 
L 208.339038 241.038033 
L 208.486058 243.71551 
L 208.633077 249.530232 
L 209.074135 250.855448 
L 209.221154 250.206363 
L 209.368173 253.370654 
L 209.515192 250.882494 
L 209.662212 252.126574 
L 210.103269 259.293558 
L 210.250288 265.405778 
L 210.397308 257.616754 
L 210.691346 259.969688 
L 211.279423 258.130613 
L 211.426442 254.560644 
L 211.573462 279.09066 
L 211.720481 283.201534 
L 212.161538 279.361112 
L 212.308558 276.088641 
L 212.749615 277.90067 
L 213.190673 282.254951 
L 213.337692 276.250912 
L 213.484712 276.440228 
L 213.77875 269.651878 
L 214.219808 267.731667 
L 214.366827 272.383445 
L 214.660865 272.870259 
L 214.807885 275.35842 
L 215.395962 275.439555 
L 215.69 280.821554 
L 215.837019 278.982479 
L 216.278077 282.065635 
L 216.425096 279.685655 
L 216.719135 282.606539 
L 216.866154 286.825594 
L 217.307212 290.855332 
L 217.454231 286.582187 
L 217.60125 288.691714 
L 217.748269 286.798548 
L 217.895288 286.365825 
L 218.336346 283.985845 
L 218.483365 287.63695 
L 218.630385 287.663996 
L 218.777404 286.041282 
L 218.924423 281.741092 
L 219.365481 277.089314 
L 219.5125 277.549083 
L 219.659519 278.495665 
L 219.806538 278.225213 
L 219.953558 274.682289 
L 220.394615 274.033204 
L 220.541635 274.979786 
L 220.835673 282.119725 
L 221.42375 287.447634 
L 221.570769 287.096046 
L 221.717788 286.257644 
L 222.011827 289.638297 
L 222.599904 288.177855 
L 222.746923 284.824247 
L 222.893942 285.338106 
L 223.040962 287.096046 
L 223.482019 290.936467 
L 223.629038 288.475352 
L 223.923077 301.673421 
L 224.070096 302.268416 
L 224.511154 299.13117 
L 224.658173 296.237331 
L 224.805192 296.507783 
L 224.952212 295.371884 
L 225.099231 291.964186 
L 225.540288 286.96082 
L 225.687308 282.09268 
L 225.834327 283.417896 
L 226.128365 279.307022 
L 226.569423 275.142058 
L 226.716442 275.953414 
L 226.863462 273.952068 
L 227.1575 278.144077 
L 227.598558 277.467947 
L 227.892596 287.474679 
L 228.039615 285.256971 
L 228.186635 285.77083 
L 228.627692 282.011544 
L 228.774712 283.28267 
L 229.215769 281.173142 
L 229.803846 282.606539 
L 229.950865 281.254278 
L 230.097885 278.684982 
L 230.244904 279.388158 
L 230.685962 279.009525 
L 230.832981 279.550429 
L 231.127019 283.742438 
L 231.274038 282.444268 
L 231.862115 284.094026 
L 232.009135 286.176508 
L 232.156154 284.716066 
L 232.303173 286.987865 
L 232.744231 286.257644 
L 232.89125 286.33878 
L 233.185288 292.099412 
L 233.773365 297.616637 
L 233.920385 297.589592 
L 234.214423 301.024335 
L 234.361442 299.942526 
L 234.8025 295.047341 
L 235.096538 290.58488 
L 235.390577 291.88305 
L 235.831635 292.802588 
L 235.978654 289.962839 
L 236.125673 290.611925 
L 236.272692 288.069674 
L 236.419712 288.367171 
L 236.860769 288.015583 
L 237.007788 286.933775 
L 237.154808 286.906729 
L 237.301827 286.33878 
L 237.448846 288.962166 
L 237.889904 288.448307 
L 238.036923 291.26101 
L 238.183942 282.958127 
L 238.330962 283.742438 
L 238.919038 280.145424 
L 239.066058 278.008851 
L 239.213077 278.306349 
L 239.507115 274.438882 
L 239.948173 271.78845 
L 240.095192 273.411164 
L 240.242212 273.492299 
L 240.53625 277.576128 
L 240.977308 272.572762 
L 241.271346 260.564683 
L 241.418365 260.781045 
L 241.565385 259.077196 
L 242.006442 256.994714 
L 242.153462 259.56401 
L 242.4475 258.833789 
L 242.594519 259.591055 
L 243.035577 258.833789 
L 243.182596 264.378059 
L 243.476635 263.18807 
L 243.623654 264.918964 
L 244.211731 264.378059 
L 244.35875 260.483547 
L 244.505769 261.808763 
L 245.093846 257.589709 
L 245.240865 262.05217 
L 245.387885 272.437536 
L 245.534904 270.517325 
L 245.681923 273.54639 
L 246.122981 279.252932 
L 246.27 277.22454 
L 246.564038 270.679596 
L 246.711058 272.572762 
L 247.152115 263.593748 
L 247.299135 264.188743 
L 247.446154 267.109627 
L 247.593173 265.297597 
L 247.740192 266.649858 
L 248.18125 268.948702 
L 248.328269 264.621466 
L 248.475288 263.999426 
L 248.622308 266.379406 
L 248.769327 266.541677 
L 249.210385 264.702602 
L 249.357404 267.325989 
L 249.651442 263.972381 
L 249.798462 262.755346 
L 250.239519 261.511266 
L 250.680577 258.238794 
L 251.268654 251.720895 
L 251.415673 252.288845 
L 251.709712 247.637067 
L 251.856731 249.935911 
L 252.297788 248.421378 
L 252.444808 253.532925 
L 252.591827 250.368634 
L 252.885865 252.234755 
L 253.326923 249.638413 
L 253.473942 250.152273 
L 253.620962 251.883167 
L 253.767981 255.155639 
L 253.915 252.018393 
L 254.356058 252.613388 
L 254.650096 251.991348 
L 254.797115 249.097509 
L 254.944135 250.314544 
L 255.385192 252.775659 
L 255.532212 252.424071 
L 255.679231 254.182011 
L 255.82625 251.802031 
L 255.973269 252.31589 
L 256.414327 250.801358 
L 257.002404 238.306465 
L 257.443462 240.172586 
L 257.590481 234.357863 
L 257.7375 234.871722 
L 257.884519 233.735823 
L 258.031538 236.791933 
L 258.472596 234.303772 
L 258.619615 234.65536 
L 258.766635 236.278074 
L 258.913654 236.575571 
L 259.060673 238.955551 
L 259.501731 237.765561 
L 259.795769 240.361902 
L 259.942788 242.795972 
L 260.089808 241.038033 
L 260.530865 232.897421 
L 261.56 238.90146 
L 261.707019 236.386255 
L 262.001058 239.442365 
L 262.148077 244.148233 
L 262.589135 243.012334 
L 262.736154 244.499821 
L 262.883173 243.174605 
L 263.177212 247.258434 
L 263.618269 246.176625 
L 263.912308 237.819651 
L 264.059327 239.009641 
L 264.206346 244.256414 
L 264.941442 240.064405 
L 265.088462 238.27942 
L 265.235481 242.173932 
L 265.676538 240.470083 
L 265.823558 257.454483 
L 265.970577 259.672191 
L 266.117596 260.050824 
L 266.264615 259.753326 
L 266.705673 259.374693 
L 266.999712 255.101548 
L 267.146731 255.128593 
L 267.29375 252.369981 
L 267.734808 248.772966 
L 267.881827 246.068444 
L 268.028846 246.095489 
L 268.175865 242.795972 
L 268.322885 242.985289 
L 268.910962 242.200977 
L 269.352019 250.206363 
L 269.793077 249.340916 
L 270.087115 253.262473 
L 270.234135 249.286825 
L 270.381154 249.82773 
L 270.822212 249.25978 
L 271.11625 247.474796 
L 271.263269 248.096836 
L 271.410288 248.205017 
L 271.851346 248.0157 
L 271.998365 246.041399 
L 272.145385 245.825037 
L 272.439423 250.422725 
L 272.880481 249.638413 
L 273.0275 247.853429 
L 273.174519 247.907519 
L 273.321538 248.881147 
L 273.468558 247.285479 
L 273.909615 244.824364 
L 274.056635 242.57961 
L 274.350673 245.500494 
L 274.497692 245.743901 
L 274.93875 245.770947 
L 275.085769 243.877781 
L 275.232788 243.526193 
L 275.379808 244.986635 
L 275.526827 247.691157 
L 275.967885 250.909539 
L 276.114904 250.909539 
L 276.261923 248.259107 
L 276.555962 252.397026 
L 276.997019 251.585669 
L 277.144038 253.046111 
L 277.291058 252.640433 
L 277.438077 250.341589 
L 278.173173 247.718203 
L 278.320192 250.422725 
L 278.467212 233.789913 
L 278.614231 232.1672 
L 279.055288 223.62091 
L 279.349327 225.162487 
L 279.643365 224.215905 
L 280.084423 220.970478 
L 280.378462 224.29704 
L 280.6725 226.920427 
L 281.260577 223.756136 
L 281.407596 223.702045 
L 281.554615 225.649301 
L 281.701635 222.295694 
L 282.142692 219.564126 
L 282.289712 219.510036 
L 282.58375 218.536408 
L 282.730769 215.885976 
L 283.318846 211.423515 
L 283.465865 212.0726 
L 283.612885 207.664229 
L 283.759904 208.583766 
L 284.200962 210.26057 
L 284.495 204.013124 
L 284.642019 203.039496 
L 284.789038 203.742671 
L 285.377115 198.252491 
L 285.524135 199.307255 
L 285.818173 206.284922 
L 286.259231 203.796762 
L 286.40625 204.121305 
L 286.553269 203.850852 
L 286.700288 204.716299 
L 286.847308 207.285596 
L 287.288365 207.501957 
L 287.435385 208.989445 
L 287.582404 208.773083 
L 287.729423 207.312641 
L 287.876442 204.391757 
L 288.3175 201.822461 
L 288.464519 200.226793 
L 288.611538 200.334973 
L 289.346635 193.600713 
L 289.493654 195.277517 
L 289.640673 195.169336 
L 289.787692 196.115919 
L 289.934712 195.629105 
L 290.375769 192.302543 
L 290.816827 201.389737 
L 290.963846 197.765677 
L 291.404904 199.090893 
L 291.551923 196.981366 
L 291.698942 190.301196 
L 291.845962 190.73392 
L 291.992981 189.003025 
L 292.434038 185.35192 
L 292.728077 187.704855 
L 292.875096 194.601386 
L 293.022115 193.16799 
L 293.463173 194.628432 
L 293.904231 197.630451 
L 294.05125 196.927275 
L 294.492308 193.546623 
L 294.639327 193.600713 
L 294.786346 190.16597 
L 294.933365 189.462794 
L 295.521442 184.973287 
L 295.668462 181.268092 
L 295.9625 181.132866 
L 296.109519 179.131519 
L 296.550577 178.536524 
L 296.697596 180.294464 
L 296.844615 176.940856 
L 296.991635 176.616314 
L 297.138654 175.940183 
L 297.726731 173.776565 
L 297.87375 185.568282 
L 298.020769 187.78599 
L 298.167788 185.487147 
L 298.608846 187.136905 
L 298.755865 188.137578 
L 298.902885 179.996966 
L 299.196923 178.211982 
L 299.637981 178.293117 
L 299.785 180.3756 
L 300.079038 177.860394 
L 300.226058 180.105147 
L 300.667115 179.834695 
L 300.814135 175.56155 
L 300.961154 177.968575 
L 301.108173 188.462121 
L 301.255192 180.673097 
L 301.69625 182.403991 
L 301.843269 180.673097 
L 301.990288 184.919197 
L 302.137308 182.971941 
L 302.284327 183.729207 
L 302.725385 183.729207 
L 302.872404 186.082141 
L 303.019423 180.537871 
L 303.166442 179.942876 
L 303.754519 183.215348 
L 304.195577 192.816402 
L 304.342596 189.003025 
L 304.783654 183.350574 
L 304.930673 176.021319 
L 305.077692 174.614967 
L 305.224712 169.638646 
L 305.371731 168.583883 
L 305.812788 168.88138 
L 306.106827 162.850296 
L 306.253846 163.823924 
L 306.400865 161.065311 
L 306.841923 157.27898 
L 306.988942 159.442598 
L 307.135962 158.739422 
L 307.282981 159.172145 
L 307.43 158.333744 
L 307.871058 158.820558 
L 308.018077 156.467623 
L 308.459135 144.351364 
L 308.900192 144.865223 
L 309.047212 140.86253 
L 309.194231 143.026148 
L 309.34125 138.590731 
L 309.488269 138.158008 
L 309.929327 132.343285 
L 310.076346 135.101898 
L 310.223365 131.315567 
L 310.517404 131.504883 
L 311.105481 143.134329 
L 311.2525 139.61845 
L 311.546538 142.133656 
L 311.987596 149.165413 
L 312.134615 144.513635 
L 312.281635 150.382448 
L 312.428654 151.274941 
L 312.575673 156.386488 
L 313.016731 160.470316 
L 313.16375 164.473009 
L 313.457788 148.489283 
L 313.604808 150.842217 
L 314.045865 147.704971 
L 314.339904 150.220177 
L 314.633942 144.865223 
L 315.075 145.081585 
L 315.663077 157.468296 
L 316.104135 165.798225 
L 316.251154 165.77118 
L 316.398173 161.741442 
L 316.545192 150.54472 
L 316.692212 150.220177 
L 317.133269 157.684658 
L 317.280288 155.061272 
L 317.427308 156.197171 
L 317.721346 166.501401 
L 318.456442 156.873302 
L 318.603462 149.165413 
L 318.750481 147.59679 
L 319.191538 147.272248 
L 319.338558 157.982156 
L 319.632596 131.586019 
L 319.779615 136.291888 
L 320.220673 132.31624 
L 320.367692 132.262149 
L 320.661731 128.773316 
L 320.80875 131.504883 
L 321.249808 129.368311 
L 321.690865 111.139831 
L 321.837885 109.463027 
L 322.425962 107.434636 
L 322.572981 105.027611 
L 322.72 105.757832 
L 323.308077 93.452256 
L 323.455096 95.697009 
L 323.602115 104.838294 
L 323.749135 100.429923 
L 323.896154 105.730787 
L 324.484231 103.296717 
L 324.63125 105.514425 
L 324.778269 111.275057 
L 325.366346 109.300756 
L 325.660385 122.552915 
L 325.807404 116.575921 
L 325.954423 118.90181 
L 326.395481 115.22366 
L 326.689519 105.703741 
L 326.983558 112.654363 
L 327.424615 109.111439 
L 327.571635 110.517791 
L 327.718654 119.469759 
L 327.865673 117.14387 
L 328.012692 119.821347 
L 328.45375 111.383238 
L 328.600769 116.630011 
L 328.747788 117.116825 
L 328.894808 114.222986 
L 329.482885 108.732806 
L 329.776923 113.46572 
L 330.070962 109.408937 
L 330.512019 110.085067 
L 330.659038 111.572555 
L 330.806058 110.274384 
L 330.953077 111.924142 
L 331.100096 115.764564 
L 331.541154 108.056676 
L 331.688173 109.922796 
L 331.982212 102.458315 
L 332.129231 100.808556 
L 332.570288 94.398839 
L 333.011346 114.682755 
L 333.158365 104.405571 
L 333.599423 105.081701 
L 333.893462 115.061388 
L 334.040481 114.385258 
L 334.1875 108.002585 
L 334.775577 112.762544 
L 334.922596 112.356866 
L 335.069615 104.405571 
L 335.216635 104.892385 
L 335.657692 101.051963 
L 335.804712 101.376506 
L 335.951731 101.403551 
L 336.245769 94.696336 
L 336.833846 102.593541 
L 336.980865 96.048597 
L 337.127885 96.751773 
L 337.274904 100.808556 
L 337.715962 100.10538 
L 337.862981 101.674003 
L 338.01 101.24128 
L 338.304038 105.216927 
L 338.892115 108.54349 
L 339.039135 104.594887 
L 339.186154 105.379199 
L 339.333173 109.21962 
L 339.774231 109.895751 
L 339.92125 108.056676 
L 340.068269 108.868032 
L 340.215288 107.29941 
L 340.362308 110.761198 
L 340.803365 108.02963 
L 340.950385 109.598253 
L 341.097404 106.677369 
L 341.391442 110.35552 
L 341.8325 116.359559 
L 342.126538 110.761198 
L 342.273558 111.193921 
L 342.861635 112.383911 
L 343.008654 113.222313 
L 343.302692 128.421728 
L 343.449712 119.740212 
L 343.890769 113.303449 
L 344.037788 113.438675 
L 344.919904 95.967461 
L 345.066923 99.537431 
L 345.213942 114.493439 
L 345.360962 114.65571 
L 345.949038 121.119518 
L 346.096058 119.469759 
L 346.390096 122.201327 
L 346.978173 132.830099 
L 347.125192 143.107284 
L 347.272212 141.051847 
L 347.419231 141.782068 
L 347.56625 140.727304 
L 348.007308 129.368311 
L 348.154327 146.217484 
L 348.301346 141.48457 
L 348.448365 141.727977 
L 348.595385 139.537314 
L 349.036442 136.291888 
L 349.183462 138.076872 
L 349.4775 148.489283 
L 349.624519 167.123441 
L 350.065577 174.263379 
L 350.212596 172.586576 
L 350.506635 147.759062 
L 350.653654 146.758389 
L 351.094712 148.191785 
L 351.241731 161.822577 
L 351.38875 149.327685 
L 351.682788 157.630568 
L 352.270865 149.40882 
L 352.417885 155.250588 
L 352.711923 144.270228 
L 353.152981 141.295254 
L 353.3 138.671867 
L 353.447019 138.320279 
L 353.594038 145.05454 
L 353.741058 146.325665 
L 354.182115 141.565706 
L 354.329135 146.460891 
L 354.623173 142.133656 
L 354.770192 142.917967 
L 355.21125 149.057232 
L 355.358269 158.198517 
L 355.505288 154.84491 
L 355.652308 156.792166 
L 355.799327 154.628548 
L 356.240385 153.546739 
L 356.387404 152.113342 
L 356.534423 153.546739 
L 356.681442 157.008528 
L 356.828462 149.92268 
L 357.269519 151.329031 
L 357.416538 150.815172 
L 357.563558 155.088317 
L 357.710577 150.625855 
L 357.857596 152.843563 
L 358.298654 150.977443 
L 358.445673 145.460218 
L 358.592692 145.487263 
L 358.739712 140.781394 
L 358.886731 131.099205 
L 359.474808 143.350691 
L 359.768846 127.177648 
L 359.915865 129.963306 
L 360.356923 125.419708 
L 360.503942 121.660422 
L 360.650962 123.202 
L 360.797981 126.122884 
L 360.945 125.744251 
L 361.386058 127.069467 
L 361.533077 137.346651 
L 361.827115 140.1864 
L 361.974135 149.327685 
L 362.415192 144.351364 
L 362.562212 145.67658 
L 362.85625 131.910562 
L 363.003269 130.50421 
L 363.444327 134.696219 
L 363.591346 131.640109 
L 363.738365 133.938953 
L 364.032404 134.533948 
L 364.473462 133.208732 
L 364.914519 141.592751 
L 365.061538 131.234431 
L 365.502596 133.262823 
L 365.649615 133.398049 
L 365.796635 140.456852 
L 365.943654 138.969365 
L 366.090673 147.055886 
L 366.531731 148.949052 
L 366.67875 154.331051 
L 366.825769 152.032207 
L 367.119808 166.39322 
L 367.560865 162.877341 
L 367.707885 163.147793 
L 367.854904 159.415552 
L 368.001923 160.984175 
L 368.59 164.256647 
L 368.737019 159.063965 
L 369.031058 168.475702 
L 369.619135 168.232295 
L 370.060192 192.302543 
L 370.648269 186.677136 
L 370.795288 182.80967 
L 370.942308 189.760292 
L 371.089327 183.999659 
L 371.236346 190.463467 
L 371.824423 191.734593 
L 371.971442 191.383005 
L 372.118462 192.708221 
L 372.265481 178.861067 
L 372.706538 184.216021 
L 372.853558 182.728534 
L 373.000577 200.497245 
L 373.147596 198.685215 
L 373.294615 189.895518 
L 373.735673 192.356633 
L 373.882692 197.630451 
L 374.029712 192.572995 
L 374.176731 191.896864 
L 374.32375 198.874531 
L 374.764808 196.197054 
L 374.911827 196.251145 
L 375.205865 199.739979 
L 375.352885 198.955667 
L 375.940962 191.788683 
L 376.087981 187.78599 
L 376.235 192.816402 
L 376.382019 193.411397 
L 376.823077 191.139598 
L 376.970096 197.062502 
L 377.264135 191.464141 
L 377.411154 191.058462 
L 377.852212 191.653457 
L 377.999231 181.268092 
L 378.14625 180.673097 
L 378.293269 178.644705 
L 378.440288 174.560877 
L 378.881346 177.644032 
L 379.028365 179.915831 
L 379.322404 179.537198 
L 379.469423 176.589268 
L 379.910481 175.886093 
L 380.204519 166.555491 
L 380.351538 167.01526 
L 380.498558 166.690717 
L 380.939615 166.717762 
L 381.086635 164.527099 
L 381.380673 167.366848 
L 381.96875 168.665018 
L 382.262788 156.846256 
L 382.409808 158.387834 
L 382.556827 155.683312 
L 382.997885 152.627202 
L 383.144904 156.170126 
L 383.291923 153.059925 
L 383.438942 159.604869 
L 384.027019 158.306698 
L 384.321058 150.139041 
L 384.468077 149.97677 
L 384.615096 156.061945 
L 385.203173 164.01324 
L 385.350192 163.418245 
L 385.644231 167.339803 
L 386.085288 168.962516 
L 386.232308 170.936817 
L 386.526346 196.683868 
L 386.673365 199.631798 
L 387.114423 199.90225 
L 387.261442 195.737286 
L 387.7025 202.39041 
L 388.143558 202.201094 
L 388.290577 200.497245 
L 388.437596 202.95836 
L 388.584615 208.827173 
L 388.731635 208.340359 
L 389.172692 199.253165 
L 389.319712 200.307928 
L 389.466731 197.414089 
L 389.61375 198.387717 
L 389.760769 195.629105 
L 390.201827 192.356633 
L 390.642885 181.592635 
L 390.789904 181.754906 
L 391.377981 183.080122 
L 391.672019 188.867799 
L 392.260096 186.406684 
L 392.407115 185.324875 
L 392.554135 185.568282 
L 392.701154 183.648071 
L 392.848173 185.86578 
L 393.289231 189.895518 
L 393.43625 189.570975 
L 393.583269 190.436422 
L 393.730288 189.327568 
L 393.877308 195.331607 
L 394.318365 195.953648 
L 394.465385 193.762985 
L 394.612404 194.736613 
L 394.759423 193.249125 
L 394.906442 200.551335 
L 395.3475 204.229485 
L 395.788558 194.601386 
L 395.935577 193.817075 
L 396.523654 196.251145 
L 396.964712 191.680502 
L 397.405769 190.869146 
L 397.552788 189.679156 
L 397.699808 191.166643 
L 397.846827 185.973961 
L 397.993846 186.001006 
L 398.434904 183.161257 
L 398.728942 182.80967 
L 399.611058 191.707548 
L 399.758077 174.723148 
L 399.905096 170.963862 
L 400.052115 171.31545 
L 400.493173 166.339129 
L 400.640192 170.585229 
L 400.787212 167.042305 
L 400.934231 166.825943 
L 401.08125 162.471663 
L 401.669327 158.874648 
L 401.816346 161.065311 
L 401.963365 161.254628 
L 402.110385 160.578497 
L 402.551442 157.062618 
L 402.845481 157.765794 
L 402.9925 158.144427 
L 403.139519 157.387161 
L 403.580577 159.686005 
L 403.727596 158.766467 
L 404.168654 163.932105 
L 404.609712 164.256647 
L 404.756731 166.474355 
L 404.90375 166.203903 
L 405.197788 161.795532 
L 405.785865 161.876668 
L 405.932885 160.091683 
L 406.226923 174.236334 
L 406.667981 167.988888 
L 406.962019 150.869262 
L 407.109038 140.592078 
L 407.256058 142.350017 
L 407.697115 145.974077 
L 407.991154 146.055213 
L 408.138173 143.161374 
L 408.285192 148.327011 
L 408.72625 147.867243 
L 408.873269 147.299293 
L 409.020288 144.973404 
L 409.167308 149.760408 
L 409.314327 147.407474 
L 409.755385 148.840871 
L 409.902404 147.5427 
L 410.049423 147.407474 
L 410.196442 145.135675 
L 410.343462 144.675906 
L 411.078558 135.805074 
L 411.225577 136.778702 
L 411.372596 135.020762 
L 411.813654 135.237124 
L 411.960673 135.453486 
L 412.107692 136.400068 
L 412.254712 136.56234 
L 412.401731 137.80642 
L 412.989808 133.343958 
L 413.283846 143.540007 
L 413.430865 145.595444 
L 413.871923 146.082258 
L 414.018942 151.626529 
L 414.165962 151.356076 
L 414.46 158.793512 
L 415.048077 152.789473 
L 415.195096 153.276287 
L 415.342115 161.633261 
L 415.489135 159.902366 
L 415.930192 167.258667 
L 416.077212 163.472336 
L 416.224231 155.683312 
L 416.37125 155.791493 
L 416.518269 155.493995 
L 416.959327 150.977443 
L 417.106346 150.788127 
L 417.253365 152.329704 
L 417.547404 150.815172 
L 418.135481 151.707664 
L 418.429519 157.035573 
L 418.576538 155.926719 
L 419.017596 158.063291 
L 419.458654 149.92268 
L 419.605673 144.973404 
L 420.046731 146.731343 
L 420.19375 141.619796 
L 420.340769 141.619796 
L 420.487788 139.915947 
L 420.634808 139.510269 
L 421.369904 136.56234 
L 421.516923 138.644822 
L 421.663942 138.022782 
L 422.252019 136.021435 
L 422.399038 137.373696 
L 422.546058 137.454832 
L 422.693077 139.915947 
L 423.281154 139.023455 
L 423.428173 139.375043 
L 423.575192 137.779375 
L 423.722212 134.263496 
L 424.457308 129.287175 
L 424.751346 131.207386 
L 425.339423 128.611045 
L 425.486442 128.63809 
L 425.633462 129.206039 
L 425.780481 128.611045 
L 426.221538 128.394683 
L 426.368558 128.69218 
L 426.515577 123.526543 
L 426.809615 123.337226 
L 427.250673 124.202673 
L 427.397692 124.95994 
L 427.544712 104.946475 
L 427.691731 105.54147 
L 427.83875 104.053983 
L 428.279808 100.781511 
L 428.573846 96.048597 
L 428.720865 95.020879 
L 428.867885 95.832235 
L 429.308942 92.667944 
L 429.602981 86.663905 
L 429.75 87.123674 
L 429.897019 86.095955 
L 430.632115 82.33667 
L 430.779135 83.905292 
L 430.926154 83.553705 
L 431.514231 82.661212 
L 431.66125 75.08855 
L 431.808269 77.333303 
L 431.955288 75.115595 
L 432.396346 76.305585 
L 432.543365 75.818771 
L 432.837404 78.09057 
L 432.984423 76.846489 
L 433.425481 76.684218 
L 433.5725 77.252168 
L 433.719519 73.27652 
L 433.866538 72.65448 
L 434.013558 74.547646 
L 434.454615 70.571998 
L 434.601635 74.953324 
L 434.748654 70.680179 
L 435.042692 72.789706 
L 435.48375 72.140621 
L 435.630769 64.243416 
L 435.777788 63.377969 
L 436.071827 64.622049 
L 436.512885 64.513868 
L 436.659904 61.620029 
L 436.953942 64.622049 
L 437.100962 65.487496 
L 437.542019 65.947265 
L 437.689038 70.112229 
L 437.836058 69.65246 
L 437.983077 71.680852 
L 438.571154 69.571325 
L 438.865192 72.681525 
L 439.012212 67.921566 
L 439.159231 68.381335 
L 439.600288 64.676139 
L 439.747308 62.269115 
L 439.894327 64.567959 
L 440.041346 64.270461 
L 440.188365 64.649094 
L 440.776442 54.209639 
L 441.070481 56.86007 
L 441.2175 50.288081 
L 441.805577 36.684335 
L 441.952596 38.658636 
L 442.099615 36.792516 
L 442.246635 30.977793 
L 442.834712 32.681642 
L 442.981731 46.799248 
L 443.12875 40.605892 
L 443.275769 39.19954 
L 443.716827 36.684335 
L 443.863846 37.198194 
L 444.010865 38.442274 
L 444.157885 37.008877 
L 444.304904 37.712053 
L 444.892981 37.549782 
L 445.04 40.010897 
L 445.04 40.010897 
" style="fill:none;stroke:#0000ff;stroke-linecap:square;"/>
   </g>
   <g id="line2d_2">
    <path clip-path="url(#p6b478daea2)" d="M 47.647019 329.590277 
L 47.794038 332.702357 
L 47.941058 335.509175 
L 48.088077 333.93926 
L 48.529135 334.121623 
L 48.823173 336.896726 
L 48.970192 336.349635 
L 49.117212 338.300135 
L 49.705288 336.789687 
L 49.852308 338.220847 
L 49.999327 337.709435 
L 50.146346 344.238855 
L 50.587404 346.221071 
L 50.734423 345.741375 
L 50.881442 345.804806 
L 51.175481 348.211217 
L 51.616538 347.604658 
L 51.763558 347.981279 
L 51.910577 346.05853 
L 52.057596 348.837597 
L 52.204615 347.9456 
L 52.645673 347.513476 
L 52.792692 346.92674 
L 52.939712 347.319219 
L 53.086731 346.934669 
L 53.23375 347.584836 
L 53.821827 345.963383 
L 53.968846 346.57787 
L 54.115865 345.582798 
L 54.262885 346.070423 
L 54.703942 345.666051 
L 54.997981 347.90992 
L 55.145 348.908957 
L 55.292019 348.833632 
L 55.733077 347.668089 
L 56.321154 341.428073 
L 56.762212 341.769014 
L 56.909231 342.224923 
L 57.203269 338.074163 
L 57.350288 338.391317 
L 57.791346 341.630259 
L 57.938365 341.229851 
L 58.232404 340.991985 
L 58.379423 342.260603 
L 58.820481 342.756157 
L 58.9675 344.437077 
L 59.261538 341.689725 
L 59.849615 341.776943 
L 59.996635 340.932518 
L 60.143654 340.849265 
L 60.87875 340.080165 
L 61.172788 341.558899 
L 61.319808 340.777906 
L 61.466827 341.027665 
L 61.907885 339.739224 
L 62.054904 336.960157 
L 62.201923 336.516141 
L 62.348942 335.271309 
L 62.495962 344.211104 
L 62.937019 344.222997 
L 63.084038 343.243783 
L 63.231058 343.390467 
L 63.525096 345.233928 
L 64.113173 348.389616 
L 64.260192 348.361865 
L 64.407212 347.806844 
L 64.554231 349.055641 
L 64.995288 348.084355 
L 65.142308 352.881318 
L 65.289327 352.207365 
L 65.583365 355.501808 
L 66.024423 349.856456 
L 66.318462 353.075575 
L 66.465481 351.989321 
L 66.6125 352.651381 
L 67.053558 352.564163 
L 67.641635 359.676355 
L 68.082692 358.665425 
L 68.229712 358.681283 
L 68.376731 358.998437 
L 68.52375 356.033042 
L 68.670769 356.98847 
L 69.258846 357.634673 
L 69.552885 353.031967 
L 69.699904 354.395731 
L 70.140962 357.008292 
L 70.287981 357.154976 
L 70.435 359.287841 
L 70.582019 356.714924 
L 70.729038 356.417592 
L 71.170096 357.472131 
L 71.317115 354.538451 
L 71.464135 353.892248 
L 71.611154 354.12615 
L 71.758173 354.138043 
L 72.787308 359.553458 
L 73.228365 359.672391 
L 73.522404 365.044197 
L 73.816442 366.705294 
L 74.404519 366.800441 
L 74.698558 362.744826 
L 74.845577 360.580246 
L 75.286635 358.927078 
L 75.433654 356.278837 
L 75.727692 355.327373 
L 75.874712 362.142232 
L 76.315769 360.837934 
L 76.462788 357.789286 
L 76.609808 358.59803 
L 76.903846 356.112331 
L 77.344904 356.32641 
L 77.491923 355.600919 
L 77.638942 357.242194 
L 77.785962 357.115332 
L 77.932981 357.143083 
L 78.374038 356.040971 
L 78.521058 356.155939 
L 78.668077 352.889247 
L 78.815096 352.536412 
L 78.962115 354.098399 
L 79.403173 353.083504 
L 79.550192 353.408588 
L 79.697212 355.779318 
L 79.844231 355.723816 
L 79.99125 356.845751 
L 80.432308 356.996399 
L 80.579327 356.021149 
L 81.020385 361.662536 
L 81.461442 361.258164 
L 81.608462 363.76765 
L 81.755481 363.129376 
L 81.9025 363.850903 
L 82.049519 362.292881 
L 82.637596 364.041196 
L 82.931635 361.432599 
L 83.078654 360.025225 
L 83.666731 361.190769 
L 83.960769 358.859682 
L 84.107788 358.867611 
L 84.548846 357.654495 
L 84.695865 358.019223 
L 84.989904 357.892361 
L 85.136923 356.092508 
L 85.872019 350.974426 
L 86.019038 351.473945 
L 86.166058 348.738486 
L 86.607115 348.120035 
L 86.754135 348.762273 
L 86.901154 348.659197 
L 87.048173 349.035819 
L 87.195192 349.067534 
L 87.63625 349.717701 
L 87.783269 346.569942 
L 88.077308 348.199323 
L 88.224327 346.942598 
L 88.665385 346.451009 
L 88.959423 345.56694 
L 89.106442 346.038708 
L 89.253462 334.054228 
L 89.694519 330.831144 
L 89.841538 332.789574 
L 89.988558 332.757859 
L 90.135577 331.964972 
L 90.282596 331.857932 
L 90.870673 330.656709 
L 91.017692 331.076939 
L 91.164712 330.660674 
L 91.311731 331.627995 
L 91.899808 331.251374 
L 92.193846 329.534775 
L 92.781923 329.039221 
L 93.075962 329.808321 
L 93.222981 330.93422 
L 93.37 333.6895 
L 93.811058 335.235629 
L 93.958077 337.562751 
L 94.105096 337.598431 
L 94.252115 335.02155 
L 94.399135 336.155377 
L 94.840192 336.080053 
L 94.987212 337.70547 
L 95.134231 335.33474 
L 95.869327 337.88387 
L 96.016346 343.108992 
L 96.310385 339.921588 
L 96.457404 339.687687 
L 96.898462 338.625219 
L 97.1925 336.214844 
L 97.927596 335.4061 
L 98.074615 335.346633 
L 98.221635 336.262417 
L 98.368654 335.980942 
L 98.515673 336.163306 
L 98.956731 335.318882 
L 99.250769 333.253413 
L 99.397788 333.503172 
L 99.985865 333.8679 
L 100.132885 334.553747 
L 100.279904 334.141446 
L 100.426923 334.56564 
L 100.573942 335.532961 
L 101.015 333.479385 
L 101.162019 333.919437 
L 101.456058 331.66764 
L 101.603077 331.084868 
L 102.044135 331.52492 
L 102.338173 330.997651 
L 102.485192 331.033331 
L 102.632212 329.550633 
L 103.220288 326.490091 
L 103.661346 331.996688 
L 104.102404 332.147336 
L 104.249423 330.395057 
L 104.396442 331.072975 
L 104.543462 331.013508 
L 104.690481 334.14541 
L 105.131538 334.268307 
L 105.278558 332.155265 
L 105.425577 331.964972 
L 105.572596 332.3297 
L 105.719615 332.167158 
L 106.160673 331.509062 
L 106.307692 330.700318 
L 106.454712 331.072975 
L 106.601731 331.084868 
L 106.74875 329.487202 
L 107.189808 328.765675 
L 107.336827 329.558562 
L 107.483846 329.542704 
L 107.630865 329.336553 
L 107.777885 328.38509 
L 108.365962 332.317807 
L 108.512981 332.099763 
L 108.66 332.591352 
L 109.248077 331.687462 
L 109.395096 334.189019 
L 109.542115 334.185054 
L 109.689135 332.444668 
L 109.836154 334.21677 
L 110.277212 335.992836 
L 110.424231 335.862009 
L 110.57125 335.969049 
L 110.865288 338.950302 
L 111.306346 340.282352 
L 111.453365 340.365605 
L 111.600385 342.835446 
L 111.747404 341.991022 
L 111.894423 342.050488 
L 112.335481 338.993911 
L 112.4825 338.831369 
L 112.776538 336.936371 
L 112.923558 338.351673 
L 113.364615 339.219884 
L 113.511635 337.959194 
L 113.658654 337.935408 
L 113.952692 335.965085 
L 114.39375 336.777793 
L 114.540769 340.460751 
L 114.834808 338.300135 
L 114.981827 338.664863 
L 115.422885 338.819476 
L 115.569904 340.159454 
L 115.863942 338.593503 
L 116.010962 348.064533 
L 116.452019 348.825704 
L 116.599038 349.880243 
L 116.746058 349.047712 
L 116.893077 349.170609 
L 117.481154 349.182503 
L 117.775192 346.665088 
L 117.922212 346.621479 
L 118.069231 345.408363 
L 118.510288 346.506511 
L 118.657308 347.430223 
L 118.804327 347.053602 
L 118.951346 347.354899 
L 119.539423 346.680946 
L 119.686442 345.693802 
L 119.833462 347.120998 
L 119.980481 347.200286 
L 120.1275 348.290505 
L 120.568558 350.49473 
L 120.715577 348.112106 
L 120.862596 348.238968 
L 121.009615 347.953528 
L 121.156635 349.384689 
L 121.597692 350.498694 
L 121.744712 350.526445 
L 121.891731 350.24497 
L 122.03875 350.550232 
L 122.185769 350.00314 
L 122.773846 348.39358 
L 122.920865 349.071498 
L 123.067885 348.583873 
L 123.214904 349.571017 
L 123.655962 349.971425 
L 123.802981 350.371832 
L 123.95 350.344081 
L 124.097019 350.827742 
L 124.244038 352.258902 
L 124.685096 353.206402 
L 124.832115 352.484875 
L 125.126154 354.070648 
L 125.273173 357.107403 
L 125.714231 357.194621 
L 125.86125 355.529559 
L 126.302308 359.11737 
L 126.743365 357.531597 
L 127.037404 354.621704 
L 127.331442 349.979353 
L 128.066538 347.14082 
L 128.213558 344.912809 
L 128.360577 347.806844 
L 128.801635 348.738486 
L 129.095673 346.565977 
L 129.242692 348.409438 
L 129.389712 334.811435 
L 129.830769 335.342669 
L 129.977788 333.836184 
L 130.124808 335.259416 
L 130.418846 330.728069 
L 130.859904 330.581385 
L 131.006923 329.879681 
L 131.153942 332.908507 
L 131.300962 332.175087 
L 131.447981 333.610212 
L 131.889038 332.999689 
L 132.036058 335.501246 
L 132.183077 334.10973 
L 132.330096 338.791725 
L 132.477115 338.490428 
L 132.918173 345.027777 
L 133.065192 339.604434 
L 133.212212 344.437077 
L 133.359231 341.840374 
L 133.50625 341.51529 
L 133.947308 342.807695 
L 134.535385 355.94186 
L 134.976442 354.502771 
L 135.123462 350.415441 
L 135.270481 349.531373 
L 135.4175 350.173611 
L 135.564519 348.821739 
L 136.152596 346.082316 
L 136.299615 346.030779 
L 136.593654 349.222147 
L 137.181731 349.749416 
L 137.32875 347.402472 
L 137.475769 347.220108 
L 137.622788 349.222147 
L 138.063846 348.179501 
L 138.210865 348.29447 
L 138.357885 347.790987 
L 138.651923 344.896951 
L 139.24 344.908844 
L 139.387019 346.379649 
L 139.534038 350.050713 
L 139.681058 349.091321 
L 140.122115 347.826667 
L 140.269135 346.351898 
L 140.416154 348.42926 
L 140.563173 348.694877 
L 140.710192 351.164719 
L 141.15125 355.03004 
L 141.592308 351.22815 
L 141.739327 351.148861 
L 142.621442 342.458825 
L 142.768462 335.988871 
L 143.209519 337.824403 
L 143.356538 336.218808 
L 143.503558 338.16138 
L 143.650577 337.574644 
L 143.797596 336.222773 
L 144.238654 335.049301 
L 144.385673 337.673755 
L 144.532692 337.051339 
L 144.679712 334.60132 
L 144.826731 334.311916 
L 145.267788 335.798578 
L 145.414808 338.565752 
L 145.561827 337.344707 
L 145.708846 334.835221 
L 145.855865 335.104803 
L 146.443942 331.897577 
L 146.737981 335.314918 
L 146.885 332.686499 
L 147.326058 331.766751 
L 147.473077 331.061082 
L 147.620096 332.068047 
L 147.914135 335.354562 
L 148.355192 338.113807 
L 148.502212 338.300135 
L 148.649231 340.258565 
L 148.943269 341.665939 
L 149.384327 336.678682 
L 149.531346 337.721328 
L 149.972404 330.307839 
L 150.413462 329.261229 
L 150.7075 329.70921 
L 150.854519 331.160192 
L 151.001538 328.908395 
L 151.442596 329.312767 
L 151.589615 329.265194 
L 151.736635 330.759785 
L 151.883654 330.470381 
L 152.030673 329.197798 
L 152.471731 330.018436 
L 152.61875 328.325623 
L 152.765769 329.225549 
L 153.059808 327.778531 
L 153.647885 326.371158 
L 153.794904 326.478198 
L 154.088942 325.249223 
L 154.824038 320.816988 
L 155.559135 329.891574 
L 155.706154 329.756783 
L 156.000192 328.468343 
L 156.147212 329.392055 
L 156.735288 328.678458 
L 157.029327 326.501984 
L 157.176346 337.11477 
L 157.617404 337.205952 
L 157.764423 338.117771 
L 157.911442 340.381462 
L 158.058462 340.655008 
L 158.205481 338.3041 
L 158.646538 338.756045 
L 159.087596 337.289205 
L 159.234615 335.065158 
L 159.675673 332.539815 
L 159.822692 332.999689 
L 160.116731 332.072012 
L 160.26375 333.17016 
L 160.704808 331.925328 
L 160.998846 333.237555 
L 161.145865 333.047262 
L 161.292885 333.419919 
L 161.880962 331.568529 
L 162.175 333.130515 
L 162.322019 332.377273 
L 162.763077 332.496206 
L 162.910096 330.696354 
L 163.057115 330.724105 
L 163.204135 329.903467 
L 163.351154 330.133404 
L 163.792212 331.516991 
L 163.939231 333.356488 
L 164.08625 332.99176 
L 164.233269 332.924365 
L 164.380288 334.292094 
L 164.821346 333.320808 
L 164.968365 330.819251 
L 165.115385 331.172086 
L 165.409423 329.380162 
L 165.850481 327.612025 
L 165.9975 327.707172 
L 166.291538 325.221472 
L 166.438558 325.907319 
L 166.879615 324.571306 
L 167.026635 325.027215 
L 167.173654 323.298723 
L 167.467692 326.172936 
L 167.90875 325.047037 
L 168.349808 327.941073 
L 168.937885 328.234441 
L 169.084904 329.019399 
L 169.378942 324.238293 
L 169.525962 329.46738 
L 169.967019 333.138444 
L 170.114038 332.444668 
L 170.261058 332.864898 
L 170.555096 335.12066 
L 170.996154 334.815399 
L 171.143173 334.089908 
L 171.437212 331.275161 
L 171.584231 331.374272 
L 172.025288 333.380275 
L 172.172308 333.463528 
L 172.466346 332.159229 
L 172.613365 334.938297 
L 173.201442 331.806395 
L 173.348462 332.527922 
L 173.495481 331.635924 
L 173.6425 333.30495 
L 174.083558 333.546781 
L 174.230577 332.139407 
L 174.377596 328.611062 
L 174.524615 329.776605 
L 174.671635 334.260379 
L 175.112692 331.544742 
L 175.259712 334.18109 
L 175.406731 332.464491 
L 175.55375 333.614176 
L 175.700769 336.016622 
L 176.288846 335.461602 
L 176.582885 338.129665 
L 176.729904 340.088094 
L 177.170962 338.577646 
L 177.317981 340.199098 
L 177.465 338.189131 
L 177.612019 338.649005 
L 177.759038 338.212918 
L 178.641154 342.446932 
L 178.788173 341.368606 
L 179.229231 340.111881 
L 179.37625 337.998838 
L 179.523269 338.791725 
L 179.670288 341.229851 
L 179.817308 339.988984 
L 180.258365 342.121848 
L 180.552404 340.421107 
L 180.699423 341.40825 
L 180.846442 338.288242 
L 181.2875 338.208953 
L 181.434519 336.750042 
L 181.728558 335.148411 
L 181.875577 337.11477 
L 182.316635 337.110806 
L 182.463654 337.963159 
L 182.610673 340.044486 
L 182.757692 340.187205 
L 182.904712 338.989947 
L 183.345769 339.307101 
L 183.492788 338.946338 
L 183.639808 338.149487 
L 183.933846 332.198874 
L 184.374904 331.267232 
L 184.521923 332.841112 
L 184.668942 332.757859 
L 184.815962 331.695391 
L 184.962981 327.417768 
L 185.404038 327.945038 
L 185.551058 327.810247 
L 185.698077 327.869713 
L 185.845096 328.646742 
L 185.992115 326.157079 
L 186.433173 325.859746 
L 186.580192 326.311691 
L 186.727212 325.978679 
L 187.02125 326.022288 
L 187.609327 320.741664 
L 187.756346 320.963672 
L 188.050385 319.064709 
L 188.491442 319.381863 
L 188.638462 320.575158 
L 188.785481 319.05678 
L 188.9325 319.132104 
L 189.079519 318.767376 
L 189.520577 320.63066 
L 189.814615 316.912022 
L 189.961635 318.164783 
L 190.108654 317.490829 
L 190.84375 318.355075 
L 191.137788 313.320246 
L 191.578846 314.386678 
L 191.725865 316.083456 
L 191.872885 316.341144 
L 192.019904 313.340068 
L 192.166923 312.618542 
L 192.607981 312.559075 
L 192.902019 309.090197 
L 193.049038 308.971264 
L 193.637115 304.757072 
L 193.784135 304.800681 
L 194.078173 303.349698 
L 194.225192 303.746142 
L 194.66625 302.303088 
L 194.813269 303.250587 
L 195.107308 301.062221 
L 195.254327 301.141509 
L 195.695385 303.084081 
L 195.842404 305.807646 
L 195.989423 305.7125 
L 196.136442 304.344771 
L 196.283462 305.67682 
L 196.724519 306.422133 
L 196.871538 305.684749 
L 197.018558 303.54792 
L 197.165577 315.528435 
L 197.312596 318.14496 
L 197.753654 318.759447 
L 197.900673 318.4304 
L 198.047692 319.032993 
L 198.194712 318.941811 
L 198.341731 319.457188 
L 199.076827 318.438328 
L 199.223846 316.995275 
L 199.370865 316.92788 
L 199.958942 318.156854 
L 200.252981 323.98457 
L 200.4 321.859634 
L 200.841058 321.288755 
L 201.282115 324.979642 
L 201.429135 324.9955 
L 202.017212 320.483976 
L 202.164231 321.296684 
L 202.458269 320.880419 
L 202.899327 322.23229 
L 203.487404 314.858446 
L 203.928462 315.476897 
L 204.2225 316.947702 
L 204.369519 316.29357 
L 204.516538 317.665264 
L 204.957596 317.423434 
L 205.104615 315.155778 
L 205.251635 315.020988 
L 205.398654 314.002128 
L 205.545673 314.148812 
L 205.986731 310.422246 
L 206.13375 310.366744 
L 206.280769 310.557037 
L 206.427788 310.109056 
L 206.574808 311.441105 
L 207.015865 312.654221 
L 207.309904 312.781083 
L 207.456923 313.292495 
L 207.603942 314.537327 
L 208.045 313.074451 
L 208.339038 309.934621 
L 208.486058 309.851368 
L 208.633077 307.016798 
L 209.221154 307.944476 
L 209.515192 306.323023 
L 209.662212 306.620355 
L 210.103269 309.934621 
L 210.250288 309.601608 
L 210.544327 312.297422 
L 210.691346 313.64533 
L 211.279423 313.970413 
L 211.573462 303.876968 
L 211.720481 303.908683 
L 212.161538 304.491455 
L 212.308558 303.908683 
L 212.455577 303.876968 
L 212.602596 303.508276 
L 212.749615 299.571594 
L 213.190673 302.85018 
L 213.484712 300.641991 
L 213.631731 299.892713 
L 213.77875 297.632987 
L 214.366827 298.556699 
L 214.513846 298.128541 
L 214.807885 296.14236 
L 215.395962 293.379151 
L 215.542981 296.229578 
L 215.837019 294.790489 
L 216.278077 296.56259 
L 216.425096 296.689452 
L 216.572115 294.778595 
L 216.719135 294.49712 
L 217.307212 290.477186 
L 217.454231 287.091561 
L 217.60125 288.522721 
L 217.748269 288.28089 
L 217.895288 288.49497 
L 218.336346 287.840838 
L 218.630385 289.723944 
L 218.777404 290.469257 
L 218.924423 291.904382 
L 219.365481 293.192822 
L 219.659519 291.821129 
L 219.953558 292.693304 
L 220.394615 292.82413 
L 220.541635 292.277038 
L 220.835673 295.884672 
L 221.42375 294.501085 
L 221.570769 292.154141 
L 221.864808 295.710237 
L 222.011827 298.092861 
L 222.452885 299.714314 
L 222.599904 299.159293 
L 222.746923 296.681523 
L 223.040962 296.705309 
L 223.482019 298.314869 
L 223.629038 296.047214 
L 223.923077 301.486415 
L 224.070096 294.758773 
L 224.511154 294.7112 
L 224.805192 292.070888 
L 224.952212 292.93117 
L 225.099231 294.453512 
L 225.687308 289.870628 
L 225.834327 290.691265 
L 226.569423 282.548321 
L 226.716442 283.400674 
L 226.863462 280.153804 
L 227.010481 280.581962 
L 227.1575 278.849505 
L 227.598558 279.380739 
L 227.745577 277.485741 
L 227.892596 271.784887 
L 228.039615 274.167511 
L 228.186635 273.112972 
L 228.627692 273.243798 
L 228.774712 273.553024 
L 229.06875 278.342058 
L 229.215769 280.217235 
L 229.803846 278.643355 
L 229.950865 281.208343 
L 230.097885 280.724682 
L 230.244904 280.6335 
L 230.685962 281.343133 
L 230.832981 283.031982 
L 230.98 282.913049 
L 231.127019 281.933834 
L 231.274038 278.944652 
L 231.715096 276.871254 
L 232.009135 280.482852 
L 232.156154 279.487779 
L 232.303173 279.876293 
L 232.744231 277.656211 
L 232.89125 274.809749 
L 233.038269 274.797855 
L 233.185288 277.953544 
L 233.920385 281.624608 
L 234.214423 279.471921 
L 234.8025 277.331128 
L 234.949519 278.437204 
L 235.831635 273.92568 
L 235.978654 273.893965 
L 236.125673 273.747281 
L 236.272692 270.924605 
L 236.419712 270.377513 
L 236.860769 270.044501 
L 237.007788 271.051467 
L 237.154808 271.257617 
L 237.301827 272.819604 
L 237.448846 275.6066 
L 237.889904 272.815639 
L 238.036923 274.179404 
L 238.183942 274.357803 
L 238.330962 277.366808 
L 238.477981 277.834611 
L 238.919038 278.445133 
L 239.066058 276.732498 
L 239.213077 277.358879 
L 239.360096 274.096151 
L 239.507115 273.632312 
L 239.948173 273.941538 
L 240.242212 276.784036 
L 240.389231 276.387593 
L 240.53625 276.831609 
L 240.977308 277.802895 
L 241.124327 278.647319 
L 241.418365 282.920978 
L 241.565385 283.464105 
L 242.006442 281.735612 
L 242.153462 281.779221 
L 242.4475 280.137946 
L 242.594519 280.831722 
L 243.035577 281.588928 
L 243.182596 284.804083 
L 243.329615 285.121238 
L 243.476635 283.757473 
L 243.623654 285.446321 
L 244.211731 282.778258 
L 244.505769 278.980332 
L 244.652788 278.976367 
L 245.240865 277.176515 
L 245.387885 275.685888 
L 245.681923 277.097226 
L 246.122981 277.354914 
L 246.27 277.683962 
L 246.417019 274.27455 
L 246.564038 275.249801 
L 246.711058 274.318159 
L 247.152115 277.604674 
L 247.299135 277.537278 
L 247.446154 279.440206 
L 247.593173 279.253877 
L 247.740192 279.606712 
L 248.18125 279.701858 
L 248.328269 277.505563 
L 248.475288 277.311306 
L 248.769327 280.407527 
L 249.210385 281.71579 
L 249.357404 284.106343 
L 249.504423 283.67422 
L 249.798462 280.478887 
L 250.239519 279.662214 
L 250.386538 278.496671 
L 250.533558 275.325125 
L 250.680577 277.152728 
L 250.827596 252.870579 
L 251.268654 254.476174 
L 251.415673 253.742754 
L 251.562692 248.910111 
L 251.709712 250.07169 
L 251.856731 252.121301 
L 252.297788 252.160946 
L 252.444808 247.954683 
L 252.591827 249.108333 
L 252.738846 249.076617 
L 252.885865 249.774357 
L 253.326923 249.960686 
L 253.473942 250.868541 
L 253.620962 250.62671 
L 253.767981 253.556426 
L 253.915 251.954795 
L 254.356058 253.033121 
L 254.503077 252.799219 
L 254.650096 248.699996 
L 254.797115 248.152904 
L 254.944135 248.485917 
L 255.385192 248.88236 
L 255.679231 250.713928 
L 255.82625 248.382842 
L 255.973269 248.814965 
L 256.414327 246.035897 
L 256.708365 242.634414 
L 257.590481 244.584915 
L 257.7375 243.609665 
L 257.884519 243.776171 
L 258.031538 241.294436 
L 258.472596 239.657126 
L 258.619615 238.364721 
L 259.060673 243.094289 
L 259.501731 240.679949 
L 259.64875 241.294436 
L 259.795769 238.348863 
L 259.942788 238.055495 
L 260.089808 235.205068 
L 260.530865 232.338783 
L 260.677885 232.984986 
L 261.118942 231.684652 
L 261.56 233.452789 
L 261.707019 231.228742 
L 262.001058 232.731262 
L 262.148077 234.336857 
L 262.589135 231.898731 
L 262.736154 227.633002 
L 262.883173 227.165199 
L 263.030192 229.341672 
L 263.177212 229.353565 
L 263.618269 230.776797 
L 263.765288 225.543746 
L 263.912308 225.698359 
L 264.059327 224.195839 
L 264.206346 225.321738 
L 264.941442 222.451488 
L 265.088462 223.426739 
L 265.235481 230.610291 
L 265.676538 235.086135 
L 265.823558 230.772832 
L 265.970577 233.956272 
L 266.264615 219.2958 
L 266.705673 228.707363 
L 266.999712 226.77272 
L 267.29375 219.99354 
L 267.734808 220.885538 
L 267.881827 217.472161 
L 268.028846 218.161973 
L 268.175865 215.545447 
L 268.322885 214.970604 
L 268.910962 213.372938 
L 269.057981 215.061786 
L 269.205 214.712916 
L 269.352019 214.776347 
L 269.793077 213.047855 
L 269.940096 211.565157 
L 270.087115 211.533441 
L 270.234135 211.71977 
L 270.822212 214.994391 
L 271.11625 211.910062 
L 271.263269 211.640481 
L 271.410288 212.595909 
L 271.851346 213.234183 
L 271.998365 215.525625 
L 272.145385 214.078607 
L 272.439423 220.913289 
L 272.880481 217.091576 
L 273.0275 213.297614 
L 273.174519 215.672309 
L 273.321538 216.088574 
L 273.468558 218.883499 
L 273.909615 223.854898 
L 274.056635 223.700285 
L 274.350673 232.501325 
L 274.497692 231.339746 
L 274.93875 232.453752 
L 275.085769 228.417959 
L 275.232788 228.378315 
L 275.379808 227.284132 
L 275.526827 237.829522 
L 275.967885 239.807774 
L 276.261923 229.504214 
L 276.555962 242.800921 
L 276.997019 242.03975 
L 277.144038 240.485692 
L 277.291058 232.517183 
L 277.438077 240.620483 
L 278.026154 243.585878 
L 278.173173 241.131894 
L 278.320192 244.251903 
L 278.467212 244.957572 
L 278.614231 248.517632 
L 279.055288 248.133082 
L 279.202308 243.950606 
L 279.349327 244.362907 
L 279.496346 242.503588 
L 279.643365 243.859424 
L 280.084423 243.906997 
L 280.378462 250.983509 
L 280.525481 250.571208 
L 280.6725 247.506702 
L 281.260577 241.813777 
L 281.554615 247.011148 
L 281.701635 246.75346 
L 282.289712 243.129968 
L 282.730769 234.039525 
L 283.318846 228.786652 
L 283.612885 231.113774 
L 283.759904 231.189098 
L 284.200962 233.5519 
L 284.347981 237.115924 
L 284.495 237.226928 
L 284.789038 232.600436 
L 285.230096 230.305029 
L 285.524135 231.605363 
L 285.671154 234.574723 
L 285.818173 234.412181 
L 286.40625 237.88106 
L 286.553269 233.773908 
L 286.847308 232.588542 
L 287.288365 229.183095 
L 287.435385 229.313921 
L 287.582404 223.751822 
L 287.729423 224.802397 
L 287.876442 224.310807 
L 288.3175 225.087836 
L 288.464519 222.15812 
L 288.611538 222.288947 
L 288.758558 221.341447 
L 289.346635 222.324627 
L 289.493654 226.748933 
L 289.640673 224.770682 
L 289.787692 226.744969 
L 289.934712 223.541707 
L 290.375769 221.285945 
L 290.522788 221.321625 
L 290.669808 222.162085 
L 290.816827 225.702323 
L 290.963846 217.23826 
L 291.404904 219.462306 
L 291.551923 217.37305 
L 291.698942 216.881461 
L 291.992981 219.640706 
L 292.434038 219.014326 
L 292.581058 220.992577 
L 292.728077 220.275015 
L 293.022115 228.739078 
L 293.463173 225.93226 
L 293.610192 229.135522 
L 293.757212 228.620145 
L 293.904231 229.81344 
L 294.05125 227.668682 
L 294.492308 228.021516 
L 294.639327 230.063199 
L 294.786346 225.286058 
L 294.933365 225.337595 
L 295.080385 225.801434 
L 295.668462 220.497023 
L 295.9625 221.88061 
L 296.550577 223.137335 
L 296.697596 224.065013 
L 296.991635 227.498211 
L 297.138654 226.546747 
L 297.87375 224.033297 
L 298.167788 220.806249 
L 298.608846 219.363196 
L 298.755865 222.816216 
L 298.902885 221.98765 
L 299.049904 222.681426 
L 299.196923 224.953045 
L 299.637981 225.952082 
L 300.226058 216.841816 
L 300.667115 220.294837 
L 300.814135 222.768643 
L 300.961154 220.049042 
L 301.108173 225.175054 
L 301.255192 224.366309 
L 301.69625 224.659677 
L 301.843269 224.263234 
L 301.990288 227.866903 
L 302.137308 227.149341 
L 302.284327 225.087836 
L 302.725385 224.267199 
L 302.872404 229.662791 
L 303.019423 226.189948 
L 303.313462 237.294324 
L 303.754519 241.766204 
L 303.901538 239.891027 
L 304.342596 250.503813 
L 304.783654 246.670207 
L 305.077692 241.964425 
L 305.224712 237.49651 
L 305.371731 239.161572 
L 305.812788 238.769093 
L 305.959808 235.546009 
L 306.106827 235.375538 
L 306.253846 234.987024 
L 306.400865 231.510217 
L 306.988942 233.48054 
L 307.282981 238.26561 
L 307.43 238.673946 
L 308.018077 234.994953 
L 308.312115 236.941489 
L 308.459135 237.330004 
L 309.047212 241.044677 
L 309.194231 240.267648 
L 309.34125 241.123966 
L 309.488269 240.065462 
L 309.929327 239.363758 
L 310.076346 238.646195 
L 310.223365 238.92767 
L 310.517404 238.348863 
L 310.958462 241.532302 
L 311.105481 241.552124 
L 311.2525 242.515481 
L 311.399519 240.140786 
L 311.546538 244.917928 
L 311.987596 244.236045 
L 312.134615 241.702773 
L 312.281635 244.600773 
L 312.428654 243.696882 
L 312.575673 247.534453 
L 313.016731 249.461167 
L 313.16375 256.759687 
L 313.457788 250.531564 
L 313.604808 248.450237 
L 314.045865 245.07254 
L 314.192885 242.804885 
L 314.339904 243.526412 
L 314.633942 241.44112 
L 315.075 242.90796 
L 315.222019 242.87228 
L 315.369038 244.465982 
L 315.663077 245.096327 
L 316.104135 249.433416 
L 316.251154 254.155055 
L 316.398173 254.495996 
L 316.545192 253.869616 
L 316.692212 256.450462 
L 317.133269 257.885586 
L 317.721346 251.728823 
L 318.309423 252.196626 
L 318.750481 239.094176 
L 319.191538 240.973317 
L 319.485577 250.967652 
L 319.632596 250.705999 
L 319.779615 241.246863 
L 320.220673 243.64138 
L 320.367692 243.340083 
L 320.514712 245.909036 
L 320.80875 242.642343 
L 321.249808 243.899068 
L 321.396827 240.28747 
L 321.543846 240.67202 
L 321.837885 235.5024 
L 322.425962 237.948455 
L 322.572981 239.193287 
L 322.72 237.936562 
L 322.867019 239.490619 
L 323.308077 242.28158 
L 323.455096 240.624447 
L 323.896154 231.779798 
L 324.484231 225.738003 
L 324.63125 225.845043 
L 324.778269 225.068014 
L 324.925288 228.100805 
L 325.366346 227.636966 
L 325.660385 234.642118 
L 325.807404 232.925519 
L 325.954423 236.172389 
L 326.395481 233.321962 
L 326.5425 234.776909 
L 326.689519 231.343711 
L 326.836538 231.94234 
L 326.983558 231.002769 
L 327.424615 231.617256 
L 327.571635 227.105732 
L 327.865673 233.06031 
L 328.012692 235.768017 
L 328.45375 234.305142 
L 328.747788 238.059459 
L 328.894808 240.846455 
L 329.629904 240.255755 
L 329.776923 238.43608 
L 330.070962 239.07039 
L 330.512019 239.403402 
L 330.659038 242.884174 
L 330.953077 241.532302 
L 331.100096 245.397624 
L 331.541154 240.905922 
L 331.688173 241.464907 
L 331.982212 236.299251 
L 332.129231 229.139486 
L 332.864327 235.474649 
L 333.011346 240.128893 
L 333.158365 239.906885 
L 333.599423 238.765128 
L 333.893462 245.330229 
L 334.1875 239.780023 
L 334.628558 240.77906 
L 334.775577 243.419372 
L 334.922596 243.189435 
L 335.069615 239.708663 
L 335.216635 241.51248 
L 335.657692 242.126967 
L 335.951731 239.363758 
L 336.09875 238.079281 
L 336.833846 242.119038 
L 336.980865 239.157607 
L 337.127885 239.161572 
L 337.274904 242.202291 
L 337.715962 241.456978 
L 337.862981 239.399437 
L 338.01 238.951457 
L 338.304038 241.71863 
L 338.745096 244.295512 
L 338.892115 244.351014 
L 339.039135 240.386581 
L 339.774231 244.148828 
L 340.068269 243.332155 
L 340.215288 240.370723 
L 340.362308 240.386581 
L 340.803365 239.791916 
L 340.950385 238.884061 
L 341.391442 242.368797 
L 341.979519 246.801033 
L 342.273558 245.655312 
L 342.861635 245.869391 
L 343.008654 245.013074 
L 343.155673 248.259944 
L 343.302692 246.733638 
L 343.449712 242.987249 
L 343.890769 236.477651 
L 344.037788 230.709401 
L 344.184808 231.058271 
L 344.331827 223.27609 
L 344.478846 186.375153 
L 344.919904 190.303905 
L 345.213942 190.668633 
L 345.507981 205.947556 
L 346.096058 204.187348 
L 346.243077 202.629326 
L 346.390096 202.367673 
L 346.537115 205.134847 
L 346.978173 202.914765 
L 347.125192 203.691794 
L 347.272212 197.931473 
L 347.419231 198.367561 
L 347.56625 201.293312 
L 348.007308 201.915728 
L 348.154327 191.191938 
L 348.301346 191.675599 
L 348.448365 192.908537 
L 348.595385 192.64292 
L 349.036442 191.156258 
L 349.183462 193.035399 
L 349.330481 191.144365 
L 349.4775 196.722322 
L 349.624519 210.340147 
L 350.212596 222.399951 
L 350.359615 203.941553 
L 350.506635 200.377528 
L 350.653654 203.243813 
L 351.094712 208.05267 
L 351.241731 216.163899 
L 351.38875 209.602763 
L 351.682788 215.010249 
L 352.270865 209.475901 
L 352.417885 210.245001 
L 352.711923 205.071416 
L 353.152981 206.074418 
L 353.3 201.356743 
L 353.447019 201.023731 
L 353.594038 198.280343 
L 353.741058 203.691794 
L 354.182115 201.23781 
L 354.329135 206.292462 
L 354.476154 206.423288 
L 354.623173 205.059523 
L 354.770192 210.542333 
L 355.21125 217.313584 
L 355.358269 217.281869 
L 355.505288 211.949707 
L 355.652308 210.811915 
L 355.799327 204.619471 
L 356.387404 197.273378 
L 356.681442 199.763041 
L 356.828462 197.998869 
L 357.269519 196.785752 
L 357.416538 194.553777 
L 357.563558 195.005722 
L 357.710577 190.811353 
L 357.857596 190.628989 
L 358.298654 189.08286 
L 358.592692 198.395312 
L 358.739712 194.755963 
L 358.886731 174.850547 
L 359.327788 170.576889 
L 359.474808 172.277631 
L 359.768846 168.935614 
L 359.915865 171.357882 
L 360.945 162.25951 
L 361.386058 165.775961 
L 361.533077 164.416161 
L 361.680096 161.609343 
L 361.827115 163.262511 
L 361.974135 168.903899 
L 362.415192 164.162437 
L 362.562212 165.61342 
L 362.709231 159.785704 
L 362.85625 160.416049 
L 363.003269 153.204746 
L 363.444327 153.450541 
L 363.591346 156.503154 
L 363.738365 156.554691 
L 364.032404 155.718196 
L 364.473462 158.754951 
L 364.620481 149.065878 
L 364.7675 150.913304 
L 364.914519 154.814305 
L 365.061538 149.15706 
L 365.649615 150.917268 
L 365.796635 155.182998 
L 365.943654 156.035351 
L 366.090673 160.233685 
L 366.531731 156.70534 
L 366.67875 158.437797 
L 366.825769 152.614045 
L 367.119808 160.05925 
L 367.707885 155.821271 
L 367.854904 155.698374 
L 368.001923 156.455581 
L 368.59 150.861766 
L 368.737019 145.275881 
L 368.884038 147.495963 
L 369.031058 152.300855 
L 369.619135 159.056248 
L 369.913173 158.350579 
L 370.207212 169.9069 
L 370.648269 169.288449 
L 370.795288 165.308158 
L 370.942308 175.421426 
L 371.089327 169.807789 
L 371.236346 177.843694 
L 371.824423 174.9338 
L 371.971442 176.257921 
L 372.118462 173.030873 
L 372.265481 165.633242 
L 372.706538 171.016941 
L 372.853558 170.473814 
L 373.000577 175.647398 
L 373.294615 158.616196 
L 373.735673 155.028385 
L 373.882692 150.013378 
L 374.176731 172.467923 
L 374.32375 182.156996 
L 374.764808 182.486044 
L 374.911827 184.321577 
L 375.058846 181.938953 
L 375.352885 182.620835 
L 375.940962 179.211423 
L 376.087981 172.313311 
L 376.235 176.694008 
L 376.382019 175.28267 
L 376.823077 173.08241 
L 376.970096 177.288673 
L 377.264135 173.363885 
L 377.411154 173.633467 
L 377.852212 176.527502 
L 377.999231 168.186336 
L 378.14625 168.170479 
L 378.293269 170.719609 
L 378.440288 171.326167 
L 378.881346 177.562219 
L 379.028365 178.033987 
L 379.469423 165.010826 
L 379.910481 163.555879 
L 380.0575 164.412197 
L 380.204519 161.335797 
L 380.351538 160.665808 
L 380.498558 160.737168 
L 380.939615 158.957137 
L 381.086635 159.488371 
L 381.380673 161.648987 
L 381.96875 162.350692 
L 382.262788 155.611156 
L 382.409808 157.82331 
L 382.556827 155.856951 
L 382.997885 157.688519 
L 383.144904 160.657879 
L 383.291923 157.529942 
L 383.438942 159.6747 
L 384.027019 161.331832 
L 384.615096 152.253282 
L 385.056154 149.236349 
L 385.203173 154.263249 
L 385.350192 154.762768 
L 385.497212 152.19778 
L 385.644231 168.202194 
L 386.085288 166.465773 
L 386.232308 172.416386 
L 386.379327 173.328205 
L 386.526346 179.203494 
L 387.114423 176.353067 
L 387.261442 178.67226 
L 387.555481 175.07652 
L 387.7025 171.234985 
L 388.143558 170.529316 
L 388.290577 166.453879 
L 388.584615 170.366774 
L 388.731635 171.349953 
L 389.172692 169.106085 
L 389.319712 173.173592 
L 389.466731 173.015015 
L 389.61375 175.516572 
L 389.760769 171.782077 
L 390.201827 173.962514 
L 390.495865 165.625313 
L 390.642885 166.081223 
L 390.789904 162.695597 
L 391.377981 161.482481 
L 391.525 162.104897 
L 391.672019 163.591559 
L 391.819038 166.786892 
L 392.260096 169.082298 
L 392.407115 169.042654 
L 392.554135 164.432019 
L 392.701154 164.313086 
L 392.848173 167.94847 
L 393.43625 168.400416 
L 393.583269 168.142728 
L 393.730288 171.536282 
L 393.877308 178.925984 
L 394.318365 178.137062 
L 394.759423 174.902085 
L 394.906442 185.467298 
L 395.3475 188.226543 
L 395.641538 181.942917 
L 395.935577 175.956624 
L 396.523654 177.827836 
L 396.670673 176.527502 
L 396.817692 177.482931 
L 396.964712 173.411458 
L 397.552788 167.460845 
L 397.699808 168.911827 
L 397.846827 167.337948 
L 397.993846 167.774035 
L 398.728942 159.313936 
L 398.875962 160.328831 
L 399.022981 158.699449 
L 399.611058 160.412084 
L 399.905096 157.442724 
L 400.052115 148.372103 
L 400.493173 146.75065 
L 400.640192 147.468212 
L 400.787212 146.631717 
L 400.934231 147.254133 
L 401.08125 143.04787 
L 401.522308 143.230234 
L 401.669327 142.239126 
L 401.963365 142.005224 
L 402.110385 142.651427 
L 402.551442 142.960652 
L 402.698462 145.061801 
L 402.845481 143.963654 
L 403.139519 145.743684 
L 403.580577 147.040053 
L 403.727596 147.067804 
L 403.874615 148.035126 
L 404.021635 148.126308 
L 404.168654 148.07477 
L 404.609712 147.040053 
L 404.90375 149.061914 
L 405.197788 147.313599 
L 405.785865 143.896258 
L 405.932885 143.789219 
L 406.079904 145.783328 
L 406.226923 151.991629 
L 406.667981 148.280921 
L 406.815 151.979736 
L 406.962019 150.869695 
L 407.109038 147.194666 
L 407.256058 148.336423 
L 407.697115 149.597112 
L 407.991154 145.426529 
L 408.138173 141.069618 
L 408.285192 141.192515 
L 408.72625 146.22338 
L 408.873269 142.73468 
L 409.020288 143.309522 
L 409.167308 145.906226 
L 409.314327 145.002335 
L 409.755385 146.877512 
L 409.902404 145.343276 
L 410.049423 145.327418 
L 410.196442 145.172806 
L 410.343462 145.878475 
L 410.784519 141.573101 
L 410.931538 142.710893 
L 411.078558 141.493812 
L 411.225577 144.645536 
L 411.372596 144.510745 
L 411.813654 143.943832 
L 412.107692 135.380657 
L 412.254712 137.200332 
L 412.401731 136.248868 
L 412.842788 130.801738 
L 413.430865 137.834641 
L 414.018942 142.496814 
L 414.312981 151.012415 
L 414.46 151.056023 
L 415.048077 139.761355 
L 415.195096 141.82286 
L 415.489135 154.227569 
L 415.930192 161.339761 
L 416.224231 150.080773 
L 416.37125 147.404781 
L 416.518269 151.642759 
L 416.959327 148.209561 
L 417.106346 148.578253 
L 417.253365 151.46436 
L 417.547404 151.190814 
L 418.135481 147.559394 
L 418.429519 156.645873 
L 418.576538 155.62305 
L 419.017596 150.857802 
L 419.164615 152.209673 
L 419.605673 140.245016 
L 420.046731 140.252945 
L 420.19375 137.545237 
L 420.487788 136.851462 
L 420.634808 139.646387 
L 421.075865 138.29848 
L 421.222885 137.418376 
L 421.369904 138.15576 
L 421.663942 139.999221 
L 422.252019 139.349054 
L 422.693077 147.17088 
L 423.281154 141.493812 
L 423.428173 141.192515 
L 423.722212 133.560983 
L 424.163269 133.362761 
L 424.310288 134.100146 
L 424.457308 132.863243 
L 424.604327 133.47773 
L 424.751346 132.875136 
L 425.339423 134.171505 
L 425.486442 133.592698 
L 425.633462 135.134862 
L 425.780481 134.008964 
L 426.368558 126.536008 
L 426.515577 121.857978 
L 426.662596 123.253458 
L 427.250673 135.07936 
L 427.397692 137.271692 
L 427.544712 137.703815 
L 427.83875 135.408408 
L 428.279808 135.467875 
L 428.573846 132.676914 
L 428.720865 132.209111 
L 428.867885 130.57973 
L 429.455962 127.891844 
L 429.602981 128.474616 
L 429.897019 124.870947 
L 430.485096 123.447715 
L 430.632115 123.804514 
L 430.779135 123.578542 
L 430.926154 124.644974 
L 431.367212 124.39125 
L 431.514231 126.797661 
L 431.66125 122.028449 
L 431.955288 124.470539 
L 432.396346 124.985915 
L 432.984423 118.852938 
L 433.425481 117.945083 
L 433.5725 117.913368 
L 433.866538 116.660607 
L 434.013558 115.336487 
L 434.454615 116.811255 
L 434.601635 123.923447 
L 434.748654 124.268353 
L 435.042692 130.278433 
L 435.630769 127.705516 
L 435.777788 123.546826 
L 435.924808 123.511146 
L 436.071827 124.280246 
L 436.512885 120.716221 
L 437.100962 126.218854 
L 437.542019 126.195067 
L 437.689038 126.742159 
L 437.836058 126.357609 
L 437.983077 126.658906 
L 438.571154 121.263313 
L 438.718173 121.402068 
L 438.865192 120.851012 
L 439.159231 118.876725 
L 439.747308 107.336262 
L 439.894327 107.562234 
L 440.041346 106.563197 
L 440.188365 93.991982 
L 440.776442 89.837257 
L 441.070481 83.80339 
L 441.2175 85.599278 
L 441.658558 82.75678 
L 441.952596 84.945147 
L 442.687692 81.654668 
L 442.834712 79.307724 
L 442.981731 88.576567 
L 443.275769 82.871749 
L 443.716827 79.759669 
L 444.010865 74.566263 
L 444.157885 68.78612 
L 444.304904 68.020985 
L 444.892981 66.27267 
L 445.04 70.641474 
L 445.04 70.641474 
" style="fill:none;stroke:#008000;stroke-linecap:square;"/>
   </g>
   <g id="patch_3">
    <path d="M 47.5 391.098447 
L 47.5 18.766875 
" style="fill:none;stroke:#000000;stroke-linecap:square;stroke-linejoin:miter;"/>
   </g>
   <g id="patch_4">
    <path d="M 47.5 391.098447 
L 445.04 391.098447 
" style="fill:none;stroke:#000000;stroke-linecap:square;stroke-linejoin:miter;"/>
   </g>
   <g id="patch_5">
    <path d="M 47.5 18.766875 
L 445.04 18.766875 
" style="fill:none;stroke:#000000;stroke-linecap:square;stroke-linejoin:miter;"/>
   </g>
   <g id="patch_6">
    <path d="M 445.04 391.098447 
L 445.04 18.766875 
" style="fill:none;stroke:#000000;stroke-linecap:square;stroke-linejoin:miter;"/>
   </g>
   <g id="matplotlib.axis_1">
    <g id="xtick_1">
     <g id="line2d_3">
      <defs>
       <path d="M 0 0 
L 0 -4 
" id="mb365bfea1b" style="stroke:#000000;stroke-width:0.5;"/>
      </defs>
      <g>
       <use style="stroke:#000000;stroke-width:0.5;" x="100.720961538" xlink:href="#mb365bfea1b" y="391.098447467"/>
      </g>
     </g>
     <g id="line2d_4">
      <defs>
       <path d="M 0 0 
L 0 4 
" id="made0b9f822" style="stroke:#000000;stroke-width:0.5;"/>
      </defs>
      <g>
       <use style="stroke:#000000;stroke-width:0.5;" x="100.720961538" xlink:href="#made0b9f822" y="18.766875"/>
      </g>
     </g>
     <g id="text_1">
      <!-- 2011 -->
      <defs>
       <path d="M 19.1875 8.296875 
L 53.609375 8.296875 
L 53.609375 0 
L 7.328125 0 
L 7.328125 8.296875 
Q 12.9375 14.109375 22.625 23.890625 
Q 32.328125 33.6875 34.8125 36.53125 
Q 39.546875 41.84375 41.421875 45.53125 
Q 43.3125 49.21875 43.3125 52.78125 
Q 43.3125 58.59375 39.234375 62.25 
Q 35.15625 65.921875 28.609375 65.921875 
Q 23.96875 65.921875 18.8125 64.3125 
Q 13.671875 62.703125 7.8125 59.421875 
L 7.8125 69.390625 
Q 13.765625 71.78125 18.9375 73 
Q 24.125 74.21875 28.421875 74.21875 
Q 39.75 74.21875 46.484375 68.546875 
Q 53.21875 62.890625 53.21875 53.421875 
Q 53.21875 48.921875 51.53125 44.890625 
Q 49.859375 40.875 45.40625 35.40625 
Q 44.1875 33.984375 37.640625 27.21875 
Q 31.109375 20.453125 19.1875 8.296875 
" id="BitstreamVeraSans-Roman-32"/>
       <path d="M 12.40625 8.296875 
L 28.515625 8.296875 
L 28.515625 63.921875 
L 10.984375 60.40625 
L 10.984375 69.390625 
L 28.421875 72.90625 
L 38.28125 72.90625 
L 38.28125 8.296875 
L 54.390625 8.296875 
L 54.390625 0 
L 12.40625 0 
z
" id="BitstreamVeraSans-Roman-31"/>
       <path d="M 31.78125 66.40625 
Q 24.171875 66.40625 20.328125 58.90625 
Q 16.5 51.421875 16.5 36.375 
Q 16.5 21.390625 20.328125 13.890625 
Q 24.171875 6.390625 31.78125 6.390625 
Q 39.453125 6.390625 43.28125 13.890625 
Q 47.125 21.390625 47.125 36.375 
Q 47.125 51.421875 43.28125 58.90625 
Q 39.453125 66.40625 31.78125 66.40625 
M 31.78125 74.21875 
Q 44.046875 74.21875 50.515625 64.515625 
Q 56.984375 54.828125 56.984375 36.375 
Q 56.984375 17.96875 50.515625 8.265625 
Q 44.046875 -1.421875 31.78125 -1.421875 
Q 19.53125 -1.421875 13.0625 8.265625 
Q 6.59375 17.96875 6.59375 36.375 
Q 6.59375 54.828125 13.0625 64.515625 
Q 19.53125 74.21875 31.78125 74.21875 
" id="BitstreamVeraSans-Roman-30"/>
      </defs>
      <g transform="translate(73.0247332069 418.264975352)rotate(-30.0)scale(0.12 -0.12)">
       <use xlink:href="#BitstreamVeraSans-Roman-32"/>
       <use x="63.623046875" xlink:href="#BitstreamVeraSans-Roman-30"/>
       <use x="127.24609375" xlink:href="#BitstreamVeraSans-Roman-31"/>
       <use x="190.869140625" xlink:href="#BitstreamVeraSans-Roman-31"/>
      </g>
     </g>
    </g>
    <g id="xtick_2">
     <g id="line2d_5">
      <g>
       <use style="stroke:#000000;stroke-width:0.5;" x="154.382980769" xlink:href="#mb365bfea1b" y="391.098447467"/>
      </g>
     </g>
     <g id="line2d_6">
      <g>
       <use style="stroke:#000000;stroke-width:0.5;" x="154.382980769" xlink:href="#made0b9f822" y="18.766875"/>
      </g>
     </g>
     <g id="text_2">
      <!-- 2012 -->
      <g transform="translate(126.686752438 418.264975352)rotate(-30.0)scale(0.12 -0.12)">
       <use xlink:href="#BitstreamVeraSans-Roman-32"/>
       <use x="63.623046875" xlink:href="#BitstreamVeraSans-Roman-30"/>
       <use x="127.24609375" xlink:href="#BitstreamVeraSans-Roman-31"/>
       <use x="190.869140625" xlink:href="#BitstreamVeraSans-Roman-32"/>
      </g>
     </g>
    </g>
    <g id="xtick_3">
     <g id="line2d_7">
      <g>
       <use style="stroke:#000000;stroke-width:0.5;" x="208.192019231" xlink:href="#mb365bfea1b" y="391.098447467"/>
      </g>
     </g>
     <g id="line2d_8">
      <g>
       <use style="stroke:#000000;stroke-width:0.5;" x="208.192019231" xlink:href="#made0b9f822" y="18.766875"/>
      </g>
     </g>
     <g id="text_3">
      <!-- 2013 -->
      <defs>
       <path d="M 40.578125 39.3125 
Q 47.65625 37.796875 51.625 33 
Q 55.609375 28.21875 55.609375 21.1875 
Q 55.609375 10.40625 48.1875 4.484375 
Q 40.765625 -1.421875 27.09375 -1.421875 
Q 22.515625 -1.421875 17.65625 -0.515625 
Q 12.796875 0.390625 7.625 2.203125 
L 7.625 11.71875 
Q 11.71875 9.328125 16.59375 8.109375 
Q 21.484375 6.890625 26.8125 6.890625 
Q 36.078125 6.890625 40.9375 10.546875 
Q 45.796875 14.203125 45.796875 21.1875 
Q 45.796875 27.640625 41.28125 31.265625 
Q 36.765625 34.90625 28.71875 34.90625 
L 20.21875 34.90625 
L 20.21875 43.015625 
L 29.109375 43.015625 
Q 36.375 43.015625 40.234375 45.921875 
Q 44.09375 48.828125 44.09375 54.296875 
Q 44.09375 59.90625 40.109375 62.90625 
Q 36.140625 65.921875 28.71875 65.921875 
Q 24.65625 65.921875 20.015625 65.03125 
Q 15.375 64.15625 9.8125 62.3125 
L 9.8125 71.09375 
Q 15.4375 72.65625 20.34375 73.4375 
Q 25.25 74.21875 29.59375 74.21875 
Q 40.828125 74.21875 47.359375 69.109375 
Q 53.90625 64.015625 53.90625 55.328125 
Q 53.90625 49.265625 50.4375 45.09375 
Q 46.96875 40.921875 40.578125 39.3125 
" id="BitstreamVeraSans-Roman-33"/>
      </defs>
      <g transform="translate(180.495790899 418.264975352)rotate(-30.0)scale(0.12 -0.12)">
       <use xlink:href="#BitstreamVeraSans-Roman-32"/>
       <use x="63.623046875" xlink:href="#BitstreamVeraSans-Roman-30"/>
       <use x="127.24609375" xlink:href="#BitstreamVeraSans-Roman-31"/>
       <use x="190.869140625" xlink:href="#BitstreamVeraSans-Roman-33"/>
      </g>
     </g>
    </g>
    <g id="xtick_4">
     <g id="line2d_9">
      <g>
       <use style="stroke:#000000;stroke-width:0.5;" x="261.854038462" xlink:href="#mb365bfea1b" y="391.098447467"/>
      </g>
     </g>
     <g id="line2d_10">
      <g>
       <use style="stroke:#000000;stroke-width:0.5;" x="261.854038462" xlink:href="#made0b9f822" y="18.766875"/>
      </g>
     </g>
     <g id="text_4">
      <!-- 2014 -->
      <defs>
       <path d="M 37.796875 64.3125 
L 12.890625 25.390625 
L 37.796875 25.390625 
z
M 35.203125 72.90625 
L 47.609375 72.90625 
L 47.609375 25.390625 
L 58.015625 25.390625 
L 58.015625 17.1875 
L 47.609375 17.1875 
L 47.609375 0 
L 37.796875 0 
L 37.796875 17.1875 
L 4.890625 17.1875 
L 4.890625 26.703125 
z
" id="BitstreamVeraSans-Roman-34"/>
      </defs>
      <g transform="translate(234.15781013 418.264975352)rotate(-30.0)scale(0.12 -0.12)">
       <use xlink:href="#BitstreamVeraSans-Roman-32"/>
       <use x="63.623046875" xlink:href="#BitstreamVeraSans-Roman-30"/>
       <use x="127.24609375" xlink:href="#BitstreamVeraSans-Roman-31"/>
       <use x="190.869140625" xlink:href="#BitstreamVeraSans-Roman-34"/>
      </g>
     </g>
    </g>
    <g id="xtick_5">
     <g id="line2d_11">
      <g>
       <use style="stroke:#000000;stroke-width:0.5;" x="315.516057692" xlink:href="#mb365bfea1b" y="391.098447467"/>
      </g>
     </g>
     <g id="line2d_12">
      <g>
       <use style="stroke:#000000;stroke-width:0.5;" x="315.516057692" xlink:href="#made0b9f822" y="18.766875"/>
      </g>
     </g>
     <g id="text_5">
      <!-- 2015 -->
      <defs>
       <path d="M 10.796875 72.90625 
L 49.515625 72.90625 
L 49.515625 64.59375 
L 19.828125 64.59375 
L 19.828125 46.734375 
Q 21.96875 47.46875 24.109375 47.828125 
Q 26.265625 48.1875 28.421875 48.1875 
Q 40.625 48.1875 47.75 41.5 
Q 54.890625 34.8125 54.890625 23.390625 
Q 54.890625 11.625 47.5625 5.09375 
Q 40.234375 -1.421875 26.90625 -1.421875 
Q 22.3125 -1.421875 17.546875 -0.640625 
Q 12.796875 0.140625 7.71875 1.703125 
L 7.71875 11.625 
Q 12.109375 9.234375 16.796875 8.0625 
Q 21.484375 6.890625 26.703125 6.890625 
Q 35.15625 6.890625 40.078125 11.328125 
Q 45.015625 15.765625 45.015625 23.390625 
Q 45.015625 31 40.078125 35.4375 
Q 35.15625 39.890625 26.703125 39.890625 
Q 22.75 39.890625 18.8125 39.015625 
Q 14.890625 38.140625 10.796875 36.28125 
z
" id="BitstreamVeraSans-Roman-35"/>
      </defs>
      <g transform="translate(287.819829361 418.264975352)rotate(-30.0)scale(0.12 -0.12)">
       <use xlink:href="#BitstreamVeraSans-Roman-32"/>
       <use x="63.623046875" xlink:href="#BitstreamVeraSans-Roman-30"/>
       <use x="127.24609375" xlink:href="#BitstreamVeraSans-Roman-31"/>
       <use x="190.869140625" xlink:href="#BitstreamVeraSans-Roman-35"/>
      </g>
     </g>
    </g>
    <g id="xtick_6">
     <g id="line2d_13">
      <g>
       <use style="stroke:#000000;stroke-width:0.5;" x="369.178076923" xlink:href="#mb365bfea1b" y="391.098447467"/>
      </g>
     </g>
     <g id="line2d_14">
      <g>
       <use style="stroke:#000000;stroke-width:0.5;" x="369.178076923" xlink:href="#made0b9f822" y="18.766875"/>
      </g>
     </g>
     <g id="text_6">
      <!-- 2016 -->
      <defs>
       <path d="M 33.015625 40.375 
Q 26.375 40.375 22.484375 35.828125 
Q 18.609375 31.296875 18.609375 23.390625 
Q 18.609375 15.53125 22.484375 10.953125 
Q 26.375 6.390625 33.015625 6.390625 
Q 39.65625 6.390625 43.53125 10.953125 
Q 47.40625 15.53125 47.40625 23.390625 
Q 47.40625 31.296875 43.53125 35.828125 
Q 39.65625 40.375 33.015625 40.375 
M 52.59375 71.296875 
L 52.59375 62.3125 
Q 48.875 64.0625 45.09375 64.984375 
Q 41.3125 65.921875 37.59375 65.921875 
Q 27.828125 65.921875 22.671875 59.328125 
Q 17.53125 52.734375 16.796875 39.40625 
Q 19.671875 43.65625 24.015625 45.921875 
Q 28.375 48.1875 33.59375 48.1875 
Q 44.578125 48.1875 50.953125 41.515625 
Q 57.328125 34.859375 57.328125 23.390625 
Q 57.328125 12.15625 50.6875 5.359375 
Q 44.046875 -1.421875 33.015625 -1.421875 
Q 20.359375 -1.421875 13.671875 8.265625 
Q 6.984375 17.96875 6.984375 36.375 
Q 6.984375 53.65625 15.1875 63.9375 
Q 23.390625 74.21875 37.203125 74.21875 
Q 40.921875 74.21875 44.703125 73.484375 
Q 48.484375 72.75 52.59375 71.296875 
" id="BitstreamVeraSans-Roman-36"/>
      </defs>
      <g transform="translate(341.481848592 418.264975352)rotate(-30.0)scale(0.12 -0.12)">
       <use xlink:href="#BitstreamVeraSans-Roman-32"/>
       <use x="63.623046875" xlink:href="#BitstreamVeraSans-Roman-30"/>
       <use x="127.24609375" xlink:href="#BitstreamVeraSans-Roman-31"/>
       <use x="190.869140625" xlink:href="#BitstreamVeraSans-Roman-36"/>
      </g>
     </g>
    </g>
    <g id="xtick_7">
     <g id="line2d_15">
      <g>
       <use style="stroke:#000000;stroke-width:0.5;" x="422.987115385" xlink:href="#mb365bfea1b" y="391.098447467"/>
      </g>
     </g>
     <g id="line2d_16">
      <g>
       <use style="stroke:#000000;stroke-width:0.5;" x="422.987115385" xlink:href="#made0b9f822" y="18.766875"/>
      </g>
     </g>
     <g id="text_7">
      <!-- 2017 -->
      <defs>
       <path d="M 8.203125 72.90625 
L 55.078125 72.90625 
L 55.078125 68.703125 
L 28.609375 0 
L 18.3125 0 
L 43.21875 64.59375 
L 8.203125 64.59375 
z
" id="BitstreamVeraSans-Roman-37"/>
      </defs>
      <g transform="translate(395.290887053 418.264975352)rotate(-30.0)scale(0.12 -0.12)">
       <use xlink:href="#BitstreamVeraSans-Roman-32"/>
       <use x="63.623046875" xlink:href="#BitstreamVeraSans-Roman-30"/>
       <use x="127.24609375" xlink:href="#BitstreamVeraSans-Roman-31"/>
       <use x="190.869140625" xlink:href="#BitstreamVeraSans-Roman-37"/>
      </g>
     </g>
    </g>
    <g id="text_8">
     <!-- Date -->
     <defs>
      <path d="M 56.203125 29.59375 
L 56.203125 25.203125 
L 14.890625 25.203125 
Q 15.484375 15.921875 20.484375 11.0625 
Q 25.484375 6.203125 34.421875 6.203125 
Q 39.59375 6.203125 44.453125 7.46875 
Q 49.3125 8.734375 54.109375 11.28125 
L 54.109375 2.78125 
Q 49.265625 0.734375 44.1875 -0.34375 
Q 39.109375 -1.421875 33.890625 -1.421875 
Q 20.796875 -1.421875 13.15625 6.1875 
Q 5.515625 13.8125 5.515625 26.8125 
Q 5.515625 40.234375 12.765625 48.109375 
Q 20.015625 56 32.328125 56 
Q 43.359375 56 49.78125 48.890625 
Q 56.203125 41.796875 56.203125 29.59375 
M 47.21875 32.234375 
Q 47.125 39.59375 43.09375 43.984375 
Q 39.0625 48.390625 32.421875 48.390625 
Q 24.90625 48.390625 20.390625 44.140625 
Q 15.875 39.890625 15.1875 32.171875 
z
" id="BitstreamVeraSans-Roman-65"/>
      <path d="M 18.3125 70.21875 
L 18.3125 54.6875 
L 36.8125 54.6875 
L 36.8125 47.703125 
L 18.3125 47.703125 
L 18.3125 18.015625 
Q 18.3125 11.328125 20.140625 9.421875 
Q 21.96875 7.515625 27.59375 7.515625 
L 36.8125 7.515625 
L 36.8125 0 
L 27.59375 0 
Q 17.1875 0 13.234375 3.875 
Q 9.28125 7.765625 9.28125 18.015625 
L 9.28125 47.703125 
L 2.6875 47.703125 
L 2.6875 54.6875 
L 9.28125 54.6875 
L 9.28125 70.21875 
z
" id="BitstreamVeraSans-Roman-74"/>
      <path d="M 19.671875 64.796875 
L 19.671875 8.109375 
L 31.59375 8.109375 
Q 46.6875 8.109375 53.6875 14.9375 
Q 60.6875 21.78125 60.6875 36.53125 
Q 60.6875 51.171875 53.6875 57.984375 
Q 46.6875 64.796875 31.59375 64.796875 
z
M 9.8125 72.90625 
L 30.078125 72.90625 
Q 51.265625 72.90625 61.171875 64.09375 
Q 71.09375 55.28125 71.09375 36.53125 
Q 71.09375 17.671875 61.125 8.828125 
Q 51.171875 0 30.078125 0 
L 9.8125 0 
z
" id="BitstreamVeraSans-Roman-44"/>
      <path d="M 34.28125 27.484375 
Q 23.390625 27.484375 19.1875 25 
Q 14.984375 22.515625 14.984375 16.5 
Q 14.984375 11.71875 18.140625 8.90625 
Q 21.296875 6.109375 26.703125 6.109375 
Q 34.1875 6.109375 38.703125 11.40625 
Q 43.21875 16.703125 43.21875 25.484375 
L 43.21875 27.484375 
z
M 52.203125 31.203125 
L 52.203125 0 
L 43.21875 0 
L 43.21875 8.296875 
Q 40.140625 3.328125 35.546875 0.953125 
Q 30.953125 -1.421875 24.3125 -1.421875 
Q 15.921875 -1.421875 10.953125 3.296875 
Q 6 8.015625 6 15.921875 
Q 6 25.140625 12.171875 29.828125 
Q 18.359375 34.515625 30.609375 34.515625 
L 43.21875 34.515625 
L 43.21875 35.40625 
Q 43.21875 41.609375 39.140625 45 
Q 35.0625 48.390625 27.6875 48.390625 
Q 23 48.390625 18.546875 47.265625 
Q 14.109375 46.140625 10.015625 43.890625 
L 10.015625 52.203125 
Q 14.9375 54.109375 19.578125 55.046875 
Q 24.21875 56 28.609375 56 
Q 40.484375 56 46.34375 49.84375 
Q 52.203125 43.703125 52.203125 31.203125 
" id="BitstreamVeraSans-Roman-61"/>
     </defs>
     <g transform="translate(231.9290625 434.544375)scale(0.12 -0.12)">
      <use xlink:href="#BitstreamVeraSans-Roman-44"/>
      <use x="77.001953125" xlink:href="#BitstreamVeraSans-Roman-61"/>
      <use x="138.28125" xlink:href="#BitstreamVeraSans-Roman-74"/>
      <use x="177.490234375" xlink:href="#BitstreamVeraSans-Roman-65"/>
     </g>
    </g>
   </g>
   <g id="matplotlib.axis_2">
    <g id="ytick_1">
     <g id="line2d_17">
      <defs>
       <path d="M 0 0 
L 4 0 
" id="mfbf9869a6c" style="stroke:#000000;stroke-width:0.5;"/>
      </defs>
      <g>
       <use style="stroke:#000000;stroke-width:0.5;" x="47.5" xlink:href="#mfbf9869a6c" y="391.098447467"/>
      </g>
     </g>
     <g id="line2d_18">
      <defs>
       <path d="M 0 0 
L -4 0 
" id="m7f51532f88" style="stroke:#000000;stroke-width:0.5;"/>
      </defs>
      <g>
       <use style="stroke:#000000;stroke-width:0.5;" x="445.04" xlink:href="#m7f51532f88" y="391.098447467"/>
      </g>
     </g>
     <g id="text_9">
      <!-- 500 -->
      <g transform="translate(20.595 394.409697467)scale(0.12 -0.12)">
       <use xlink:href="#BitstreamVeraSans-Roman-35"/>
       <use x="63.623046875" xlink:href="#BitstreamVeraSans-Roman-30"/>
       <use x="127.24609375" xlink:href="#BitstreamVeraSans-Roman-30"/>
      </g>
     </g>
    </g>
    <g id="ytick_2">
     <g id="line2d_19">
      <g>
       <use style="stroke:#000000;stroke-width:0.5;" x="47.5" xlink:href="#mfbf9869a6c" y="329.043185389"/>
      </g>
     </g>
     <g id="line2d_20">
      <g>
       <use style="stroke:#000000;stroke-width:0.5;" x="445.04" xlink:href="#m7f51532f88" y="329.043185389"/>
      </g>
     </g>
     <g id="text_10">
      <!-- 1000 -->
      <g transform="translate(12.96 332.354435389)scale(0.12 -0.12)">
       <use xlink:href="#BitstreamVeraSans-Roman-31"/>
       <use x="63.623046875" xlink:href="#BitstreamVeraSans-Roman-30"/>
       <use x="127.24609375" xlink:href="#BitstreamVeraSans-Roman-30"/>
       <use x="190.869140625" xlink:href="#BitstreamVeraSans-Roman-30"/>
      </g>
     </g>
    </g>
    <g id="ytick_3">
     <g id="line2d_21">
      <g>
       <use style="stroke:#000000;stroke-width:0.5;" x="47.5" xlink:href="#mfbf9869a6c" y="266.987923311"/>
      </g>
     </g>
     <g id="line2d_22">
      <g>
       <use style="stroke:#000000;stroke-width:0.5;" x="445.04" xlink:href="#m7f51532f88" y="266.987923311"/>
      </g>
     </g>
     <g id="text_11">
      <!-- 1500 -->
      <g transform="translate(12.96 270.299173311)scale(0.12 -0.12)">
       <use xlink:href="#BitstreamVeraSans-Roman-31"/>
       <use x="63.623046875" xlink:href="#BitstreamVeraSans-Roman-35"/>
       <use x="127.24609375" xlink:href="#BitstreamVeraSans-Roman-30"/>
       <use x="190.869140625" xlink:href="#BitstreamVeraSans-Roman-30"/>
      </g>
     </g>
    </g>
    <g id="ytick_4">
     <g id="line2d_23">
      <g>
       <use style="stroke:#000000;stroke-width:0.5;" x="47.5" xlink:href="#mfbf9869a6c" y="204.932661233"/>
      </g>
     </g>
     <g id="line2d_24">
      <g>
       <use style="stroke:#000000;stroke-width:0.5;" x="445.04" xlink:href="#m7f51532f88" y="204.932661233"/>
      </g>
     </g>
     <g id="text_12">
      <!-- 2000 -->
      <g transform="translate(12.96 208.243911233)scale(0.12 -0.12)">
       <use xlink:href="#BitstreamVeraSans-Roman-32"/>
       <use x="63.623046875" xlink:href="#BitstreamVeraSans-Roman-30"/>
       <use x="127.24609375" xlink:href="#BitstreamVeraSans-Roman-30"/>
       <use x="190.869140625" xlink:href="#BitstreamVeraSans-Roman-30"/>
      </g>
     </g>
    </g>
    <g id="ytick_5">
     <g id="line2d_25">
      <g>
       <use style="stroke:#000000;stroke-width:0.5;" x="47.5" xlink:href="#mfbf9869a6c" y="142.877399156"/>
      </g>
     </g>
     <g id="line2d_26">
      <g>
       <use style="stroke:#000000;stroke-width:0.5;" x="445.04" xlink:href="#m7f51532f88" y="142.877399156"/>
      </g>
     </g>
     <g id="text_13">
      <!-- 2500 -->
      <g transform="translate(12.96 146.188649156)scale(0.12 -0.12)">
       <use xlink:href="#BitstreamVeraSans-Roman-32"/>
       <use x="63.623046875" xlink:href="#BitstreamVeraSans-Roman-35"/>
       <use x="127.24609375" xlink:href="#BitstreamVeraSans-Roman-30"/>
       <use x="190.869140625" xlink:href="#BitstreamVeraSans-Roman-30"/>
      </g>
     </g>
    </g>
    <g id="ytick_6">
     <g id="line2d_27">
      <g>
       <use style="stroke:#000000;stroke-width:0.5;" x="47.5" xlink:href="#mfbf9869a6c" y="80.8221370778"/>
      </g>
     </g>
     <g id="line2d_28">
      <g>
       <use style="stroke:#000000;stroke-width:0.5;" x="445.04" xlink:href="#m7f51532f88" y="80.8221370778"/>
      </g>
     </g>
     <g id="text_14">
      <!-- 3000 -->
      <g transform="translate(12.96 84.1333870778)scale(0.12 -0.12)">
       <use xlink:href="#BitstreamVeraSans-Roman-33"/>
       <use x="63.623046875" xlink:href="#BitstreamVeraSans-Roman-30"/>
       <use x="127.24609375" xlink:href="#BitstreamVeraSans-Roman-30"/>
       <use x="190.869140625" xlink:href="#BitstreamVeraSans-Roman-30"/>
      </g>
     </g>
    </g>
    <g id="ytick_7">
     <g id="line2d_29">
      <g>
       <use style="stroke:#000000;stroke-width:0.5;" x="47.5" xlink:href="#mfbf9869a6c" y="18.766875"/>
      </g>
     </g>
     <g id="line2d_30">
      <g>
       <use style="stroke:#000000;stroke-width:0.5;" x="445.04" xlink:href="#m7f51532f88" y="18.766875"/>
      </g>
     </g>
     <g id="text_15">
      <!-- 3500 -->
      <g transform="translate(12.96 22.078125)scale(0.12 -0.12)">
       <use xlink:href="#BitstreamVeraSans-Roman-33"/>
       <use x="63.623046875" xlink:href="#BitstreamVeraSans-Roman-35"/>
       <use x="127.24609375" xlink:href="#BitstreamVeraSans-Roman-30"/>
       <use x="190.869140625" xlink:href="#BitstreamVeraSans-Roman-30"/>
      </g>
     </g>
    </g>
   </g>
   <g id="legend_1">
    <g id="patch_7">
     <path d="M 54.7 72.559875 
L 151.5265 72.559875 
L 151.5265 25.966875 
L 54.7 25.966875 
z
" style="fill:#ffffff;stroke:#000000;stroke-linejoin:miter;"/>
    </g>
    <g id="line2d_31">
     <path d="M 64.78 37.628625 
L 84.94 37.628625 
" style="fill:none;stroke:#0000ff;stroke-linecap:square;"/>
    </g>
    <g id="line2d_32"/>
    <g id="text_16">
     <!-- AAPL -->
     <defs>
      <path d="M 19.671875 64.796875 
L 19.671875 37.40625 
L 32.078125 37.40625 
Q 38.96875 37.40625 42.71875 40.96875 
Q 46.484375 44.53125 46.484375 51.125 
Q 46.484375 57.671875 42.71875 61.234375 
Q 38.96875 64.796875 32.078125 64.796875 
z
M 9.8125 72.90625 
L 32.078125 72.90625 
Q 44.34375 72.90625 50.609375 67.359375 
Q 56.890625 61.8125 56.890625 51.125 
Q 56.890625 40.328125 50.609375 34.8125 
Q 44.34375 29.296875 32.078125 29.296875 
L 19.671875 29.296875 
L 19.671875 0 
L 9.8125 0 
z
" id="BitstreamVeraSans-Roman-50"/>
      <path d="M 9.8125 72.90625 
L 19.671875 72.90625 
L 19.671875 8.296875 
L 55.171875 8.296875 
L 55.171875 0 
L 9.8125 0 
z
" id="BitstreamVeraSans-Roman-4c"/>
      <path d="M 34.1875 63.1875 
L 20.796875 26.90625 
L 47.609375 26.90625 
z
M 28.609375 72.90625 
L 39.796875 72.90625 
L 67.578125 0 
L 57.328125 0 
L 50.6875 18.703125 
L 17.828125 18.703125 
L 11.1875 0 
L 0.78125 0 
z
" id="BitstreamVeraSans-Roman-41"/>
     </defs>
     <g transform="translate(100.78 42.668625)scale(0.144 -0.144)">
      <use xlink:href="#BitstreamVeraSans-Roman-41"/>
      <use x="68.439453125" xlink:href="#BitstreamVeraSans-Roman-41"/>
      <use x="136.84765625" xlink:href="#BitstreamVeraSans-Roman-50"/>
      <use x="197.150390625" xlink:href="#BitstreamVeraSans-Roman-4c"/>
     </g>
    </g>
    <g id="line2d_33">
     <path d="M 64.78 58.765125 
L 84.94 58.765125 
" style="fill:none;stroke:#008000;stroke-linecap:square;"/>
    </g>
    <g id="line2d_34"/>
    <g id="text_17">
     <!-- GOOG -->
     <defs>
      <path d="M 39.40625 66.21875 
Q 28.65625 66.21875 22.328125 58.203125 
Q 16.015625 50.203125 16.015625 36.375 
Q 16.015625 22.609375 22.328125 14.59375 
Q 28.65625 6.59375 39.40625 6.59375 
Q 50.140625 6.59375 56.421875 14.59375 
Q 62.703125 22.609375 62.703125 36.375 
Q 62.703125 50.203125 56.421875 58.203125 
Q 50.140625 66.21875 39.40625 66.21875 
M 39.40625 74.21875 
Q 54.734375 74.21875 63.90625 63.9375 
Q 73.09375 53.65625 73.09375 36.375 
Q 73.09375 19.140625 63.90625 8.859375 
Q 54.734375 -1.421875 39.40625 -1.421875 
Q 24.03125 -1.421875 14.8125 8.828125 
Q 5.609375 19.09375 5.609375 36.375 
Q 5.609375 53.65625 14.8125 63.9375 
Q 24.03125 74.21875 39.40625 74.21875 
" id="BitstreamVeraSans-Roman-4f"/>
      <path d="M 59.515625 10.40625 
L 59.515625 29.984375 
L 43.40625 29.984375 
L 43.40625 38.09375 
L 69.28125 38.09375 
L 69.28125 6.78125 
Q 63.578125 2.734375 56.6875 0.65625 
Q 49.8125 -1.421875 42 -1.421875 
Q 24.90625 -1.421875 15.25 8.5625 
Q 5.609375 18.5625 5.609375 36.375 
Q 5.609375 54.25 15.25 64.234375 
Q 24.90625 74.21875 42 74.21875 
Q 49.125 74.21875 55.546875 72.453125 
Q 61.96875 70.703125 67.390625 67.28125 
L 67.390625 56.78125 
Q 61.921875 61.421875 55.765625 63.765625 
Q 49.609375 66.109375 42.828125 66.109375 
Q 29.4375 66.109375 22.71875 58.640625 
Q 16.015625 51.171875 16.015625 36.375 
Q 16.015625 21.625 22.71875 14.15625 
Q 29.4375 6.6875 42.828125 6.6875 
Q 48.046875 6.6875 52.140625 7.59375 
Q 56.25 8.5 59.515625 10.40625 
" id="BitstreamVeraSans-Roman-47"/>
     </defs>
     <g transform="translate(100.78 63.805125)scale(0.144 -0.144)">
      <use xlink:href="#BitstreamVeraSans-Roman-47"/>
      <use x="77.490234375" xlink:href="#BitstreamVeraSans-Roman-4f"/>
      <use x="156.201171875" xlink:href="#BitstreamVeraSans-Roman-4f"/>
      <use x="234.912109375" xlink:href="#BitstreamVeraSans-Roman-47"/>
     </g>
    </g>
   </g>
  </g>
 </g>
 <defs>
  <clipPath id="p6b478daea2">
   <rect height="372.331572467" width="397.54" x="47.5" y="18.766875"/>
  </clipPath>
 </defs>
</svg>
