<?xml version="1.0" encoding="utf-8" standalone="no"?>
<!DOCTYPE svg PUBLIC "-//W3C//DTD SVG 1.1//EN"
  "http://www.w3.org/Graphics/SVG/1.1/DTD/svg11.dtd">
<!-- Created with matplotlib (http://matplotlib.org/) -->
<svg height="420pt" version="1.1" viewBox="0 0 461 420" width="461pt" xmlns="http://www.w3.org/2000/svg" xmlns:xlink="http://www.w3.org/1999/xlink">
 <defs>
  <style type="text/css">
*{stroke-linecap:butt;stroke-linejoin:round;stroke-miterlimit:100000;}
  </style>
 </defs>
 <g id="figure_1">
  <g id="patch_1">
   <path d="M 0 420 
L 461 420 
L 461 0 
L 0 0 
z
" style="fill:#ffffff;"/>
  </g>
  <g id="axes_1">
   <g id="patch_2">
    <path d="M 39.865 361.098447 
L 448.04 361.098447 
L 448.04 18.766875 
L 39.865 18.766875 
z
" style="fill:#ffffff;"/>
   </g>
   <g id="line2d_1">
    <path clip-path="url(#pf0544449c5)" d="M 39.865 296.055449 
L 40.086834 295.661767 
L 40.752337 302.85073 
L 40.974171 308.037054 
L 41.41784 304.562388 
L 41.639674 306.479445 
L 42.748845 312.846812 
L 42.970679 310.433375 
L 43.192514 313.651292 
L 43.858016 315.054851 
L 44.079851 316.817859 
L 44.301685 315.2089 
L 44.523519 316.064729 
L 44.745353 314.712519 
L 45.410856 314.883685 
L 45.63269 314.199022 
L 45.854524 314.421538 
L 46.076359 312.675647 
L 46.298193 309.731595 
L 47.18553 306.479445 
L 47.407364 307.010059 
L 47.629198 306.599261 
L 47.851033 304.528155 
L 48.516535 306.222696 
L 48.73837 304.442572 
L 49.182038 307.420857 
L 49.403872 307.865888 
L 50.069375 308.430735 
L 50.291209 307.694722 
L 50.734878 307.232575 
L 50.956712 306.787543 
L 51.622215 306.034414 
L 52.065883 308.088403 
L 52.509552 308.516318 
L 53.175054 312.761229 
L 53.396889 313.017978 
L 53.618723 311.272087 
L 53.840557 311.460369 
L 54.062391 311.871167 
L 54.727894 311.888284 
L 54.949728 312.401781 
L 55.171563 310.878406 
L 55.615231 320.532156 
L 56.280734 321.473568 
L 56.724402 325.359031 
L 56.946236 326.796824 
L 57.168071 324.999583 
L 57.833573 323.578907 
L 58.055408 325.632897 
L 58.277242 325.632897 
L 58.499076 325.136516 
L 58.72091 323.767189 
L 59.386413 324.126638 
L 59.608247 326.21486 
L 59.830082 324.811301 
L 60.27375 328.491365 
L 60.939253 326.848174 
L 61.161087 328.303083 
L 61.382921 327.823819 
L 61.82659 327.875168 
L 62.492092 328.320199 
L 62.713927 327.994984 
L 62.935761 328.405782 
L 63.157595 328.422899 
L 63.379429 330.185906 
L 64.266766 330.750754 
L 64.488601 329.295844 
L 64.710435 328.645414 
L 64.932269 328.611181 
L 65.597772 328.902163 
L 65.819606 327.840935 
L 66.04144 325.273448 
L 66.263274 325.650013 
L 66.485109 323.441974 
L 67.150611 324.26357 
L 67.372446 323.66449 
L 67.59428 321.233936 
L 67.816114 322.432096 
L 68.037948 321.969949 
L 68.925285 326.386026 
L 69.14712 325.804062 
L 69.368954 326.31756 
L 69.590788 324.023938 
L 70.256291 323.459091 
L 70.478125 322.979827 
L 70.699959 323.732956 
L 70.921793 323.527557 
L 71.143628 325.307682 
L 72.030965 326.471609 
L 72.252799 327.481487 
L 72.474633 327.293205 
L 72.696467 327.686886 
L 73.583804 327.755352 
L 73.805639 327.070689 
L 74.027473 328.611181 
L 74.249307 328.576948 
L 75.136644 327.721119 
L 75.358478 321.336635 
L 75.802147 323.544674 
L 76.911318 324.96535 
L 77.133152 324.794184 
L 77.354986 324.845534 
L 78.020489 324.725718 
L 78.242323 324.862651 
L 78.907826 328.2175 
L 79.573329 326.745474 
L 79.795163 327.104922 
L 80.016997 322.825778 
L 80.238832 323.150993 
L 80.460666 320.771788 
L 81.126168 321.867249 
L 81.348003 321.559151 
L 81.569837 319.470928 
L 82.013505 320.018659 
L 82.679008 316.698043 
L 83.122677 315.979146 
L 83.566345 313.172027 
L 84.231848 314.815219 
L 84.675516 313.668408 
L 84.897351 314.935035 
L 85.119185 314.062089 
L 86.006522 313.20626 
L 86.228356 313.890924 
L 86.45019 312.761229 
L 86.672024 315.2089 
L 87.337527 315.3116 
L 87.559361 313.668408 
L 87.781196 314.181905 
L 88.00303 314.267488 
L 88.224864 316.150312 
L 88.890367 315.003501 
L 89.334035 315.722398 
L 89.55587 316.50976 
L 89.777704 316.749392 
L 90.443207 315.534115 
L 90.886875 313.172027 
L 91.108709 313.565709 
L 91.330543 311.871167 
L 91.996046 310.741473 
L 92.21788 311.35767 
L 92.439715 308.738833 
L 92.883383 306.80466 
L 93.548886 308.122637 
L 93.77072 309.577546 
L 93.992554 310.00546 
L 94.214389 309.509079 
L 94.436223 310.330675 
L 95.32356 308.499201 
L 95.545394 308.345152 
L 95.767228 307.900121 
L 95.989063 307.112758 
L 96.654565 305.520917 
L 96.876399 308.396502 
L 97.098234 307.626256 
L 97.320068 308.071287 
L 97.541902 310.210859 
L 98.207405 312.983745 
L 98.651073 311.374787 
L 98.872908 312.05945 
L 99.760245 312.726996 
L 99.982079 314.250372 
L 100.425747 312.316198 
L 100.647582 312.624297 
L 101.534918 311.580186 
L 101.756753 312.384665 
L 101.978587 314.404421 
L 102.200421 314.66117 
L 102.865924 314.421538 
L 103.087758 314.216139 
L 103.309592 315.106201 
L 103.753261 313.548592 
L 104.418764 313.651292 
L 104.640598 313.993623 
L 104.862432 314.113439 
L 105.084266 312.179266 
L 105.306101 313.240494 
L 105.971603 312.932395 
L 106.193438 313.463009 
L 106.415272 314.746753 
L 106.637106 314.815219 
L 106.85894 315.499882 
L 107.524443 315.756631 
L 107.746277 315.653931 
L 107.968111 316.834975 
L 108.189946 317.040374 
L 108.41178 317.057491 
L 109.077283 318.084485 
L 109.299117 317.964669 
L 109.520951 316.441294 
L 109.742785 317.314239 
L 110.630122 317.399822 
L 110.851957 317.588105 
L 111.295625 314.763869 
L 111.517459 314.216139 
L 112.404796 315.585465 
L 112.62663 313.90804 
L 112.848465 313.137794 
L 113.070299 314.199022 
L 113.735802 315.705281 
L 113.957636 315.020618 
L 114.17947 315.534115 
L 114.401304 317.125957 
L 114.623139 317.057491 
L 115.954144 316.355711 
L 116.175978 315.140434 
L 116.841481 314.917918 
L 117.063315 313.565709 
L 117.285149 314.147672 
L 117.506984 311.511719 
L 117.728818 312.641413 
L 118.394321 313.90804 
L 118.616155 315.071968 
L 118.837989 314.678286 
L 119.059823 314.815219 
L 119.281658 315.431416 
L 119.94716 315.191784 
L 120.168995 314.763869 
L 120.612663 316.372828 
L 120.834497 316.167429 
L 121.721834 317.177307 
L 121.943668 318.033136 
L 122.165503 318.204301 
L 122.387337 319.488045 
L 123.274674 319.847493 
L 123.496508 321.182586 
L 123.718342 319.077247 
L 124.827514 320.840255 
L 125.049348 321.901482 
L 125.271182 321.781666 
L 126.158519 319.453812 
L 126.602188 320.41234 
L 127.045856 320.651972 
L 128.155027 319.488045 
L 128.376861 320.189825 
L 128.598696 319.11148 
L 129.264198 320.121358 
L 129.486033 319.590744 
L 129.707867 319.744794 
L 129.929701 318.888965 
L 130.151535 318.5124 
L 130.817038 318.632216 
L 131.038872 319.316879 
L 131.260707 319.128597 
L 131.704375 319.385345 
L 132.369878 318.803382 
L 132.591712 317.485405 
L 132.813546 316.937675 
L 133.03538 316.920558 
L 134.144552 316.047613 
L 134.366386 315.482765 
L 134.810054 316.800742 
L 135.697391 316.372828 
L 135.919226 315.722398 
L 136.14106 302.285883 
L 136.362894 302.884964 
L 137.028397 300.454409 
L 137.250231 296.688762 
L 137.472065 298.109438 
L 137.915734 295.969866 
L 138.581236 294.018576 
L 138.803071 295.114037 
L 139.024905 294.566306 
L 139.246739 295.131153 
L 139.468573 295.19962 
L 140.134076 295.678884 
L 140.35591 297.732873 
L 140.577745 298.366187 
L 140.799579 298.520236 
L 141.021413 297.630174 
L 141.686916 296.380664 
L 141.90875 295.353669 
L 142.130584 295.507718 
L 142.352418 295.114037 
L 142.574253 291.690721 
L 143.239755 290.338511 
L 143.46159 293.24833 
L 143.905258 290.441211 
L 144.127092 290.424094 
L 145.014429 289.431333 
L 145.236264 289.585382 
L 145.679932 285.871084 
L 146.345435 285.717035 
L 146.567269 286.470165 
L 146.789103 284.005377 
L 147.232772 285.254888 
L 147.898274 288.335872 
L 148.120109 283.954028 
L 148.341943 283.680162 
L 148.563777 282.396419 
L 148.785611 279.811816 
L 149.451114 280.325313 
L 150.116617 274.848008 
L 150.338451 273.393099 
L 151.003954 275.121873 
L 151.225788 274.796658 
L 151.447622 275.03629 
L 151.669457 276.919114 
L 151.891291 273.73543 
L 152.556793 274.625492 
L 152.778628 280.410896 
L 153.000462 281.044209 
L 153.222296 277.141629 
L 153.44413 277.03893 
L 154.109633 276.354267 
L 154.331467 276.371383 
L 154.99697 268.292358 
L 155.662473 268.925672 
L 156.106141 272.263404 
L 156.327976 271.339109 
L 157.215312 275.121873 
L 157.437147 276.542549 
L 157.658981 277.210096 
L 157.880815 275.173223 
L 158.768152 278.562305 
L 158.989986 275.344389 
L 159.211821 277.021813 
L 159.433655 279.692 
L 159.655489 279.743349 
L 160.320992 282.019854 
L 160.542826 281.335191 
L 160.76466 277.723593 
L 160.986495 277.244329 
L 161.208329 277.210096 
L 161.873832 282.653168 
L 162.095666 281.745989 
L 162.3175 281.626173 
L 162.539334 281.164025 
L 163.426671 284.381942 
L 163.87034 281.523473 
L 164.314008 280.633411 
L 164.979511 280.547828 
L 165.201345 281.112676 
L 165.423179 277.877642 
L 165.866848 279.04157 
L 166.532351 277.501077 
L 166.754185 275.104756 
L 166.976019 276.576782 
L 167.419687 269.83285 
L 168.08519 268.994138 
L 168.528859 265.98162 
L 168.750693 266.871682 
L 168.972527 266.751866 
L 169.63803 262.215973 
L 169.859864 261.890758 
L 170.303533 262.284439 
L 170.525367 266.204136 
L 171.19087 269.165304 
L 171.412704 267.556345 
L 171.856372 267.453646 
L 172.078207 267.710394 
L 172.965543 261.959224 
L 173.187378 261.42861 
L 173.409212 263.157385 
L 173.631046 261.924991 
L 174.296549 265.399656 
L 174.518383 262.267322 
L 174.740217 262.506955 
L 174.962052 263.208734 
L 175.183886 264.73211 
L 176.071223 260.949346 
L 176.514891 264.167263 
L 176.736726 267.898677 
L 177.402228 269.439169 
L 177.624062 266.717633 
L 177.845897 269.473402 
L 178.067731 256.550385 
L 178.289565 254.000015 
L 178.955068 255.865722 
L 179.176902 253.691917 
L 179.398736 254.650445 
L 179.620571 254.701795 
L 179.842405 251.004614 
L 180.507908 252.32259 
L 180.729742 250.097435 
L 180.951576 250.782098 
L 181.17341 245.852524 
L 181.395245 246.263321 
L 182.282582 245.903873 
L 182.504416 244.603013 
L 182.72625 241.915711 
L 182.948084 243.695835 
L 183.613587 239.947304 
L 184.057255 242.549024 
L 184.500924 243.91835 
L 185.166427 245.715591 
L 185.388261 243.336387 
L 185.610095 238.595094 
L 186.053764 241.624729 
L 186.719266 237.807732 
L 186.941101 241.111231 
L 187.162935 239.776138 
L 187.606603 245.184977 
L 188.49394 242.66884 
L 188.937609 246.46872 
L 189.159443 246.006573 
L 189.824946 251.381178 
L 190.04678 250.028969 
L 190.268614 257.748546 
L 190.490448 256.738668 
L 190.712283 258.381859 
L 191.377785 257.988178 
L 191.59962 253.914432 
L 191.821454 253.743266 
L 192.265122 263.961864 
L 192.930625 263.619532 
L 193.152459 261.497076 
L 193.374293 254.27388 
L 193.596128 259.836768 
L 193.817962 260.915113 
L 194.705299 259.956584 
L 194.927133 258.87824 
L 195.148967 260.213333 
L 196.036304 256.27652 
L 196.258139 253.212652 
L 196.479973 256.071121 
L 196.701807 256.909833 
L 196.923641 262.318672 
L 197.589144 265.005975 
L 198.032812 258.77554 
L 198.254647 256.430569 
L 198.476481 257.611613 
L 199.141984 256.310753 
L 199.363818 260.915113 
L 199.807486 263.944747 
L 200.029321 263.123151 
L 200.694823 258.689958 
L 200.916658 258.689958 
L 201.138492 259.716952 
L 201.360326 261.959224 
L 201.58216 261.788058 
L 202.247663 259.751185 
L 202.469497 260.863763 
L 202.691332 257.560263 
L 202.913166 257.508914 
L 203.135 256.088238 
L 204.022337 252.442406 
L 204.244171 252.391057 
L 204.466005 251.843326 
L 204.68784 252.750505 
L 205.353342 253.12707 
L 205.575177 253.486518 
L 205.797011 252.682038 
L 206.018845 252.938787 
L 206.240679 254.119831 
L 206.906182 253.469401 
L 207.128016 248.52271 
L 207.349851 248.505593 
L 207.571685 251.055963 
L 207.793519 250.696515 
L 208.459022 251.227129 
L 208.680856 250.867681 
L 208.90269 248.813692 
L 209.124524 250.970381 
L 209.346359 250.696515 
L 210.233696 248.608293 
L 210.45553 245.664241 
L 210.677364 246.194855 
L 210.899198 245.390376 
L 211.564701 245.92099 
L 211.786535 244.603013 
L 212.00837 247.358783 
L 212.230204 247.632648 
L 213.117541 249.344306 
L 213.339375 253.6748 
L 213.561209 249.892036 
L 213.783043 250.063202 
L 214.004878 247.547065 
L 214.67038 244.876879 
L 214.892215 246.143505 
L 215.114049 245.287677 
L 215.335883 247.427249 
L 215.557717 243.986817 
L 216.22322 242.309392 
L 216.445054 242.531907 
L 216.666889 239.074358 
L 216.888723 232.758341 
L 217.110557 232.398893 
L 217.77606 232.86104 
L 217.997894 234.932146 
L 218.219728 233.271838 
L 218.441562 236.746504 
L 218.663397 237.242885 
L 219.328899 235.274478 
L 219.550734 236.678037 
L 219.772568 237.054602 
L 219.994402 235.856442 
L 220.216236 236.044724 
L 220.881739 235.394294 
L 221.103573 236.438405 
L 221.547242 233.922268 
L 221.769076 235.069079 
L 222.434579 233.425888 
L 222.656413 232.227727 
L 223.100082 233.460121 
L 223.321916 233.460121 
L 223.987418 232.689875 
L 224.209253 231.080916 
L 224.652921 234.675398 
L 224.874755 233.032206 
L 225.762092 229.848523 
L 225.983927 231.303432 
L 226.205761 231.098033 
L 226.427595 228.855761 
L 227.093098 227.777417 
L 227.314932 229.865639 
L 227.758601 227.726067 
L 227.980435 228.479196 
L 228.645937 233.443004 
L 228.867772 230.875517 
L 229.089606 230.276437 
L 229.31144 229.300792 
L 229.533274 227.743183 
L 230.198777 229.643124 
L 230.420611 227.092753 
L 230.642446 226.664839 
L 230.86428 228.924227 
L 231.086114 226.236924 
L 231.973451 225.80901 
L 232.195285 230.071038 
L 232.638954 228.547663 
L 233.304457 228.342264 
L 233.526291 230.516069 
L 233.748125 228.41073 
L 233.969959 231.166499 
L 234.191793 236.301473 
L 234.857296 236.16454 
L 235.07913 235.137545 
L 235.522799 236.780737 
L 235.744633 231.098033 
L 236.410136 229.386375 
L 236.63197 226.40809 
L 236.853804 226.955821 
L 237.075639 224.097352 
L 237.297473 223.019008 
L 237.962976 223.686554 
L 238.18481 222.847842 
L 238.406644 231.252082 
L 238.628478 234.247483 
L 238.850312 232.741224 
L 239.515815 234.641165 
L 239.737649 231.423248 
L 239.959484 233.01509 
L 240.403152 231.697113 
L 241.068655 232.724108 
L 241.290489 233.391654 
L 241.512323 233.203372 
L 241.734158 234.007851 
L 241.955992 232.929507 
L 242.621495 234.024968 
L 242.843329 233.853802 
L 243.065163 235.582576 
L 243.508832 234.86368 
L 244.174334 234.418649 
L 244.618003 228.239564 
L 245.061671 228.102632 
L 245.727174 232.552942 
L 245.949008 231.936745 
L 246.170842 232.929507 
L 246.392677 232.31331 
L 246.614511 230.396253 
L 247.280014 230.122388 
L 247.501848 229.574657 
L 247.723682 230.704352 
L 247.945516 228.051282 
L 248.167351 227.880116 
L 248.832853 229.317909 
L 249.054688 233.254722 
L 249.276522 230.824168 
L 249.72019 224.371217 
L 250.385693 221.683915 
L 250.607527 223.121707 
L 250.829361 222.847842 
L 251.27303 222.830725 
L 251.938533 224.131585 
L 252.382201 227.554901 
L 252.82587 226.818888 
L 253.491372 228.975577 
L 253.713207 230.755701 
L 253.935041 230.755701 
L 254.156875 227.281036 
L 254.378709 228.034165 
L 255.266046 230.242204 
L 255.48788 230.533186 
L 255.709715 234.350183 
L 255.931549 232.416009 
L 256.818886 230.601652 
L 257.04072 229.745823 
L 257.262554 228.188214 
L 257.484389 227.880116 
L 258.149891 228.444963 
L 258.371726 231.389015 
L 258.59356 230.601652 
L 258.815394 227.589134 
L 259.037228 231.166499 
L 259.702731 232.741224 
L 260.146399 231.645763 
L 260.368234 231.66288 
L 260.590068 233.631286 
L 261.255571 233.682636 
L 261.477405 232.398893 
L 261.699239 230.139504 
L 261.921073 230.618769 
L 262.142908 231.457481 
L 263.030245 231.697113 
L 263.252079 229.797173 
L 263.473913 225.15858 
L 263.695747 224.336984 
L 264.583084 226.818888 
L 265.026753 223.464039 
L 265.248587 225.928826 
L 265.91409 224.593733 
L 266.135924 224.850482 
L 266.357758 222.625326 
L 266.579592 222.094712 
L 266.801427 224.165818 
L 267.466929 225.124347 
L 267.688764 228.35938 
L 267.910598 228.325147 
L 268.132432 225.997292 
L 268.354266 227.503551 
L 269.019769 227.469318 
L 269.463438 222.60821 
L 269.907106 217.661519 
L 270.572609 216.583174 
L 270.794443 215.076915 
L 271.016277 219.167778 
L 271.238111 219.013728 
L 271.459946 218.517348 
L 272.125448 218.688513 
L 272.569117 221.324466 
L 272.790951 221.495632 
L 273.678288 219.989373 
L 274.121957 220.263239 
L 274.565625 220.674036 
L 275.231128 219.013728 
L 275.452962 218.140783 
L 275.674796 219.544342 
L 275.89663 220.211889 
L 276.118465 222.830725 
L 277.227636 216.240843 
L 277.44947 220.040723 
L 277.671304 221.546982 
L 278.336807 220.896552 
L 278.558641 223.001891 
L 278.780476 223.378456 
L 279.00231 226.271158 
L 279.224144 225.894593 
L 279.889647 226.202691 
L 280.111481 228.342264 
L 280.555149 226.870238 
L 280.776984 226.716189 
L 281.442486 227.572018 
L 281.664321 228.513429 
L 281.886155 226.836005 
L 282.107989 221.820847 
L 282.329823 223.446922 
L 282.995326 222.65956 
L 283.21716 223.087474 
L 283.660829 223.344223 
L 283.882663 223.241523 
L 284.77 225.295513 
L 284.991834 223.224407 
L 285.213668 223.926186 
L 285.435503 225.552261 
L 286.101005 223.669438 
L 286.32284 223.412689 
L 286.544674 219.989373 
L 286.766508 220.65692 
L 286.988342 220.502871 
L 287.653845 223.019008 
L 287.875679 223.019008 
L 288.097514 220.468637 
L 288.541182 221.546982 
L 289.206685 222.950541 
L 289.428519 222.351461 
L 289.650353 221.101951 
L 289.872188 219.202011 
L 290.094022 219.869557 
L 290.759524 216.05256 
L 290.981359 210.677955 
L 291.203193 209.00053 
L 291.425027 210.506789 
L 291.646861 210.455439 
L 292.312364 214.238203 
L 292.534198 214.306669 
L 292.756033 212.338263 
L 292.977867 211.704949 
L 293.865204 211.242802 
L 294.087038 211.807649 
L 294.308872 214.494952 
L 294.530707 214.10127 
L 294.752541 210.558138 
L 295.418043 206.878074 
L 295.639878 207.59697 
L 295.861712 207.460038 
L 296.083546 205.594331 
L 296.30538 198.5423 
L 296.970883 193.510026 
L 297.192717 192.68843 
L 297.636386 197.737821 
L 297.85822 195.153218 
L 298.523723 199.911627 
L 298.745557 197.99457 
L 298.967391 195.084751 
L 299.41106 200.185492 
L 300.076563 199.962976 
L 300.298397 200.099909 
L 300.520231 196.026163 
L 300.963899 199.689111 
L 301.629402 199.94586 
L 301.851236 200.853038 
L 302.073071 199.877393 
L 302.294905 201.178253 
L 302.516739 199.483712 
L 303.182242 200.322424 
L 303.404076 198.199969 
L 303.62591 197.960337 
L 304.069579 213.793172 
L 304.735082 220.588454 
L 304.956916 219.030845 
L 305.400584 207.511387 
L 305.622418 205.320465 
L 306.287921 208.024885 
L 306.509755 211.790532 
L 306.73159 207.237522 
L 306.953424 210.215807 
L 307.175258 210.027525 
L 308.062595 207.853719 
L 308.284429 206.29611 
L 308.506264 203.660157 
L 309.393601 203.09531 
L 310.280938 199.517945 
L 310.94644 197.549539 
L 311.168274 201.982733 
L 311.390109 200.253958 
L 311.611943 199.500829 
L 311.833777 202.307948 
L 312.49928 208.40145 
L 312.721114 212.749061 
L 312.942948 207.220406 
L 313.386617 203.506108 
L 314.05212 200.185492 
L 314.273954 202.256598 
L 314.495788 202.941261 
L 314.717622 202.821445 
L 314.939457 201.503468 
L 315.604959 199.757577 
L 316.048628 200.082792 
L 316.492296 194.14334 
L 317.157799 192.551498 
L 317.379633 195.067635 
L 317.601467 194.879352 
L 318.045136 186.184131 
L 318.710639 183.479711 
L 318.932473 183.599527 
L 319.376141 181.579771 
L 319.597976 186.560695 
L 320.263478 184.267074 
L 320.485313 185.516584 
L 320.707147 183.188729 
L 320.928981 174.938538 
L 321.150815 177.77989 
L 321.816318 178.824002 
L 322.259986 174.510624 
L 322.481821 176.205165 
L 322.703655 183.171613 
L 323.369158 183.017563 
L 323.590992 181.151856 
L 323.812826 176.63308 
L 324.03466 179.217683 
L 324.256495 177.403326 
L 324.921997 178.036639 
L 325.143832 180.107745 
L 325.365666 180.672592 
L 325.809334 180.604126 
L 326.474837 182.675232 
L 326.696671 177.745657 
L 326.918505 179.542898 
L 327.14034 182.4356 
L 327.362174 179.354616 
L 328.027677 180.330261 
L 328.249511 178.824002 
L 328.471345 182.059035 
L 328.693179 180.655476 
L 328.915014 186.303947 
L 329.580516 181.956336 
L 329.802351 182.144618 
L 330.024185 178.310504 
L 330.246019 179.286149 
L 330.467853 183.017563 
L 331.133356 181.768053 
L 331.35519 180.501426 
L 331.577024 182.007685 
L 331.798859 181.340139 
L 332.686196 179.78253 
L 332.90803 177.506025 
L 333.351698 181.956336 
L 334.239035 186.132781 
L 334.46087 185.259835 
L 334.682704 184.849037 
L 334.904538 193.49291 
L 335.126372 194.502788 
L 335.791875 194.194689 
L 336.013709 191.011006 
L 336.235543 197.737821 
L 336.457378 192.722664 
L 336.679212 198.5423 
L 337.566549 198.04592 
L 337.788383 199.603528 
L 338.010217 199.928743 
L 338.232052 193.458676 
L 338.897554 195.050518 
L 339.119389 194.485671 
L 339.341223 199.432362 
L 339.563057 174.339458 
L 339.784891 169.033319 
L 340.450394 164.103744 
L 340.672228 164.92534 
L 341.115897 171.97737 
L 341.337731 182.966214 
L 342.003234 190.360576 
L 342.225068 190.720024 
L 342.668736 186.663395 
L 342.890571 186.492229 
L 343.777908 187.176892 
L 343.999742 181.03204 
L 344.221576 183.993208 
L 344.44341 182.110385 
L 345.108913 177.677191 
L 345.330747 180.587009 
L 345.774416 176.119582 
L 345.99625 176.376331 
L 346.661753 178.087989 
L 346.883587 173.124181 
L 347.105421 172.901666 
L 347.327255 173.534979 
L 347.54909 175.571852 
L 348.214592 180.124862 
L 348.436427 179.78253 
L 348.658261 177.078111 
L 348.880095 177.403326 
L 349.101929 173.825961 
L 349.767432 173.004365 
L 349.989266 171.669272 
L 350.211101 169.084668 
L 350.432935 171.070192 
L 350.654769 170.334179 
L 351.320272 169.649516 
L 351.985774 167.595526 
L 352.873111 166.500065 
L 353.094946 162.306503 
L 353.31678 164.771291 
L 353.538614 165.798285 
L 353.760448 162.443436 
L 354.425951 168.451355 
L 354.647785 169.016202 
L 354.86962 166.465832 
L 355.091454 166.585648 
L 355.313288 171.737738 
L 355.978791 174.544857 
L 356.200625 171.771971 
L 356.422459 171.943137 
L 356.644293 171.37829 
L 356.866128 173.432279 
L 357.53163 172.045837 
L 357.753465 168.896386 
L 357.975299 168.673871 
L 358.197133 166.92798 
L 358.418967 171.857554 
L 359.08447 172.644917 
L 359.306304 174.938538 
L 359.528139 174.716023 
L 359.749973 161.296625 
L 359.971807 159.841716 
L 360.63731 158.147175 
L 360.859144 160.098465 
L 361.080978 159.02012 
L 361.302813 159.448035 
L 361.524647 156.572449 
L 362.190149 157.000364 
L 362.411984 154.843675 
L 362.633818 156.5211 
L 362.855652 155.22024 
L 363.077486 156.024719 
L 363.742989 157.976009 
L 363.964823 160.235397 
L 364.186658 159.7219 
L 364.408492 161.159693 
L 364.630326 160.235397 
L 365.295829 162.597485 
L 365.517663 159.636317 
L 365.739497 159.311102 
L 365.961332 156.606683 
L 366.183166 156.760732 
L 367.070503 157.736377 
L 367.292337 157.787727 
L 367.514171 157.530978 
L 367.736005 158.318341 
L 368.401508 157.77061 
L 368.623342 159.533618 
L 368.845177 158.455273 
L 369.067011 158.164291 
L 369.288845 161.484908 
L 369.954348 166.055034 
L 370.176182 164.360493 
L 370.619851 165.301905 
L 370.841685 167.646876 
L 371.507188 167.047796 
L 371.729022 165.319021 
L 371.950856 166.1235 
L 372.17269 164.120861 
L 372.394524 169.255834 
L 373.060027 174.57909 
L 373.281861 168.194606 
L 373.503696 165.695586 
L 373.72553 165.490187 
L 373.947364 165.644236 
L 374.834701 165.969451 
L 375.056535 161.347975 
L 375.27837 162.802884 
L 375.500204 160.42368 
L 376.165707 159.345335 
L 376.387541 159.242636 
L 376.609375 161.211042 
L 376.831209 160.338097 
L 377.053043 161.07411 
L 377.94038 154.655393 
L 378.162215 152.413121 
L 378.384049 154.655393 
L 378.605883 153.987846 
L 379.271386 152.909502 
L 379.49322 153.611281 
L 379.936889 147.141215 
L 380.158723 148.955572 
L 380.824226 148.322259 
L 381.04606 150.410481 
L 381.267894 151.403243 
L 381.489728 148.236676 
L 381.711563 146.884466 
L 382.377065 146.696184 
L 382.820734 147.346614 
L 383.264402 147.346614 
L 383.929905 149.024038 
L 384.151739 150.051033 
L 384.373573 148.219559 
L 384.817242 149.606002 
L 385.704579 148.219559 
L 385.926413 149.742935 
L 386.148247 149.041155 
L 386.370082 147.209681 
L 387.035584 144.505262 
L 387.257418 145.703422 
L 387.479253 145.224158 
L 387.701087 145.138575 
L 387.922921 144.556611 
L 388.810258 139.045073 
L 389.032092 136.785685 
L 389.253927 138.120778 
L 389.475761 143.546733 
L 390.141264 140.825197 
L 390.363098 143.358451 
L 391.028601 140.174767 
L 391.694103 140.893663 
L 391.915938 140.91078 
L 392.137772 138.685625 
L 392.359606 138.445993 
L 392.58144 142.074707 
L 393.246943 143.187285 
L 393.468777 140.825197 
L 393.690611 139.900902 
L 393.912446 141.852192 
L 394.799783 140.688265 
L 395.021617 141.681026 
L 395.68712 140.3117 
L 396.352622 138.172127 
L 396.574457 140.499982 
L 396.796291 140.209 
L 397.018125 142.31434 
L 397.239959 142.21164 
L 397.905462 142.793604 
L 398.34913 138.394643 
L 398.570965 138.582925 
L 398.792799 135.039794 
L 399.458302 132.968688 
L 399.90197 136.802801 
L 400.123804 139.113539 
L 400.345639 136.374887 
L 401.011141 136.888384 
L 401.232976 139.438754 
L 401.45481 143.426917 
L 401.676644 155.699504 
L 401.898478 154.415761 
L 402.563981 152.01944 
L 402.785815 148.476308 
L 403.007649 150.256432 
L 403.451318 157.376929 
L 404.116821 164.120861 
L 404.338655 160.492146 
L 404.560489 161.964172 
L 404.782323 159.482268 
L 405.004158 160.800244 
L 405.66966 152.66987 
L 405.891495 153.183367 
L 406.113329 154.261711 
L 406.556997 155.049074 
L 407.2225 154.997724 
L 407.444334 154.210362 
L 407.888003 164.086628 
L 408.109837 163.57313 
L 408.77534 160.098465 
L 408.997174 160.303864 
L 409.440842 157.565211 
L 409.662677 156.247235 
L 410.328179 159.516501 
L 410.550014 155.16889 
L 410.771848 155.340056 
L 410.993682 154.723859 
L 411.215516 155.92202 
L 412.102853 157.257113 
L 412.324687 157.342696 
L 412.546522 160.149814 
L 412.768356 160.37233 
L 413.655693 159.105703 
L 414.321196 164.17221 
L 415.208533 161.07411 
L 415.652201 154.552693 
L 415.874035 149.862751 
L 416.539538 147.31238 
L 416.761372 148.253792 
L 416.983207 145.275508 
L 417.205041 144.368329 
L 417.426875 141.424277 
L 418.314212 142.228757 
L 418.536046 142.143174 
L 418.979715 143.649433 
L 419.867052 139.66127 
L 420.31072 133.824517 
L 420.532554 134.851511 
L 421.198057 136.905501 
L 421.419891 138.035195 
L 421.641726 133.05427 
L 421.86356 137.145133 
L 422.085394 136.905501 
L 422.750897 135.05691 
L 422.972731 135.433475 
L 423.194565 131.393962 
L 423.416399 131.496662 
L 423.638234 131.411079 
L 424.303736 131.650711 
L 424.525571 131.993043 
L 424.747405 132.694822 
L 424.969239 132.010159 
L 425.191073 132.540773 
L 426.07841 132.215558 
L 426.300245 128.107579 
L 426.522079 129.408439 
L 426.743913 129.271507 
L 427.409416 127.611198 
L 427.63125 129.100341 
L 427.853084 125.882424 
L 428.074918 127.012118 
L 428.296753 126.310338 
L 428.962255 125.882424 
L 429.18409 126.087823 
L 429.627758 124.478865 
L 429.849592 123.537453 
L 430.515095 122.15101 
L 430.736929 122.630274 
L 431.180598 121.483463 
L 431.402432 121.740212 
L 432.067935 121.569046 
L 432.289769 124.016717 
L 432.511603 122.168126 
L 432.733437 122.270826 
L 432.955272 120.884383 
L 433.620774 120.918616 
L 434.064443 116.930453 
L 434.508111 117.957448 
L 435.173614 117.563767 
L 435.395448 118.505179 
L 435.617283 118.29978 
L 436.060951 120.131254 
L 436.726454 119.686223 
L 436.948288 121.603279 
L 437.391957 122.510458 
L 438.279293 119.035793 
L 438.501128 119.823155 
L 438.944796 114.962047 
L 439.16663 115.167446 
L 439.832133 112.103578 
L 440.053967 110.357687 
L 440.275802 110.237871 
L 440.497636 108.286581 
L 440.71947 103.921854 
L 441.384973 100.13909 
L 441.606807 99.591359 
L 442.27231 103.93897 
L 442.937812 102.535411 
L 443.159647 103.528172 
L 443.603315 104.281302 
L 443.825149 103.784921 
L 444.490652 104.024553 
L 444.712486 104.726333 
L 444.934321 113.164806 
L 445.156155 108.355048 
L 445.377989 107.670384 
L 446.043492 107.362286 
L 446.265326 107.653268 
L 446.708995 100.994919 
L 446.930829 100.703937 
L 447.818166 100.276022 
L 448.04 101.850748 
L 448.04 101.850748 
" style="fill:none;stroke:#0000ff;stroke-linecap:square;"/>
   </g>
   <g id="line2d_2">
    <path clip-path="url(#pf0544449c5)" d="M 39.865 296.055449 
L 40.086834 296.335806 
L 40.752337 294.687433 
L 40.974171 294.888429 
L 41.196005 293.891173 
L 41.41784 296.406675 
L 41.639674 297.570627 
L 42.527011 297.530224 
L 42.748845 296.662888 
L 42.970679 296.981633 
L 43.192514 296.933833 
L 43.858016 297.817821 
L 44.079851 296.934956 
L 44.301685 299.582871 
L 44.745353 301.179568 
L 45.410856 302.067817 
L 45.63269 301.879317 
L 45.854524 302.072019 
L 46.076359 307.101538 
L 46.298193 307.611751 
L 46.963696 307.271642 
L 47.18553 306.607574 
L 47.629198 304.116724 
L 47.851033 303.901574 
L 48.516535 308.775199 
L 48.960204 309.28033 
L 49.182038 312.117088 
L 49.403872 312.055966 
L 50.069375 311.213518 
L 50.291209 307.923863 
L 50.734878 307.276079 
L 50.956712 307.805282 
L 51.622215 308.386091 
L 51.844049 308.339069 
L 52.065883 308.107604 
L 52.287717 309.027099 
L 52.509552 309.382436 
L 53.175054 306.880048 
L 53.396889 307.412157 
L 54.062391 307.735619 
L 54.727894 307.652531 
L 54.949728 308.9946 
L 55.171563 308.794902 
L 55.393397 309.655027 
L 55.615231 308.156388 
L 56.280734 307.833249 
L 56.502568 308.172966 
L 56.724402 307.480979 
L 56.946236 307.623534 
L 57.168071 307.486828 
L 58.055408 307.096645 
L 58.277242 307.492904 
L 58.499076 307.371487 
L 58.72091 305.638359 
L 59.386413 307.084138 
L 59.608247 307.197149 
L 59.830082 306.748014 
L 60.051916 306.73975 
L 60.27375 307.255919 
L 60.939253 307.538899 
L 61.161087 308.074205 
L 61.604755 307.591906 
L 61.82659 308.163265 
L 62.492092 305.708507 
L 62.713927 302.841501 
L 62.935761 302.122778 
L 63.379429 302.14848 
L 64.266766 302.568089 
L 64.488601 301.35902 
L 64.710435 301.268818 
L 64.932269 301.300143 
L 65.597772 302.397585 
L 65.819606 301.806161 
L 66.04144 301.733632 
L 66.263274 303.174707 
L 66.485109 302.692375 
L 67.150611 302.097002 
L 67.59428 302.034982 
L 67.816114 301.350188 
L 68.037948 302.07737 
L 68.703451 302.295668 
L 68.925285 301.637947 
L 69.14712 299.797219 
L 69.368954 300.126669 
L 69.590788 298.928301 
L 70.256291 298.839839 
L 70.478125 298.60122 
L 70.699959 297.508215 
L 71.143628 297.090351 
L 71.80913 297.393155 
L 72.030965 298.502932 
L 72.252799 298.645573 
L 72.474633 296.576427 
L 72.696467 297.851222 
L 73.36197 298.816562 
L 73.583804 298.55522 
L 73.805639 299.230233 
L 74.027473 297.691988 
L 74.249307 298.23972 
L 74.91481 298.706633 
L 75.136644 298.424767 
L 75.580313 295.375014 
L 75.802147 296.179243 
L 76.911318 295.409417 
L 77.133152 296.479995 
L 77.354986 294.622354 
L 78.020489 295.569453 
L 78.464158 295.069991 
L 78.685992 297.726308 
L 78.907826 297.726308 
L 79.573329 298.140575 
L 79.795163 298.590083 
L 80.016997 300.288103 
L 80.238832 300.962188 
L 80.460666 301.26521 
L 81.126168 301.177193 
L 81.569837 302.337259 
L 82.013505 300.233412 
L 82.900842 301.471157 
L 83.344511 298.778565 
L 84.453682 299.489435 
L 84.675516 298.710448 
L 84.897351 296.841268 
L 85.119185 297.477621 
L 85.784688 297.573265 
L 86.006522 297.792276 
L 86.228356 298.697297 
L 86.672024 297.455196 
L 87.337527 295.630861 
L 87.559361 292.492257 
L 88.00303 293.969076 
L 88.224864 295.209273 
L 88.890367 295.553941 
L 89.334035 295.611177 
L 89.55587 295.857717 
L 89.777704 296.415331 
L 90.443207 295.548426 
L 90.886875 295.478287 
L 91.108709 296.034746 
L 91.330543 296.997227 
L 91.996046 296.717285 
L 92.21788 295.665834 
L 92.439715 296.034175 
L 92.661549 295.054175 
L 92.883383 295.702598 
L 93.548886 294.997003 
L 93.77072 295.901751 
L 93.992554 297.556957 
L 94.214389 297.469089 
L 94.436223 296.852478 
L 95.32356 296.752923 
L 95.545394 296.341659 
L 95.989063 299.110582 
L 96.654565 300.973678 
L 97.098234 297.465137 
L 97.320068 297.377142 
L 97.541902 294.189947 
L 98.207405 295.377449 
L 98.429239 294.56813 
L 98.651073 295.288415 
L 98.872908 298.406521 
L 99.094742 297.248582 
L 99.760245 297.160288 
L 99.982079 296.145665 
L 100.203913 297.272272 
L 100.425747 297.023476 
L 100.647582 298.58628 
L 101.534918 300.128111 
L 101.756753 300.075323 
L 101.978587 301.812782 
L 102.200421 300.188204 
L 102.865924 301.422837 
L 103.087758 304.787421 
L 103.309592 305.367548 
L 103.531427 306.576546 
L 103.753261 306.494222 
L 104.418764 307.349494 
L 104.640598 306.705694 
L 104.862432 305.650508 
L 105.084266 306.296231 
L 105.306101 305.706877 
L 106.193438 305.744743 
L 106.415272 306.220191 
L 106.637106 304.130586 
L 106.85894 303.442781 
L 107.524443 304.303488 
L 107.746277 304.034445 
L 107.968111 302.372069 
L 108.41178 301.081782 
L 109.077283 300.127952 
L 109.299117 301.170004 
L 109.520951 303.540124 
L 109.742785 303.761121 
L 110.851957 303.150499 
L 111.073791 304.964464 
L 111.295625 304.258843 
L 111.517459 302.939585 
L 112.182962 304.78665 
L 112.404796 304.727457 
L 112.62663 304.792103 
L 112.848465 301.284851 
L 113.070299 303.99271 
L 113.735802 304.214394 
L 113.957636 304.151978 
L 114.623139 300.710121 
L 115.288641 298.979088 
L 115.73231 299.960121 
L 115.954144 299.944353 
L 116.175978 300.587158 
L 116.841481 300.519463 
L 117.063315 299.634093 
L 117.285149 297.872216 
L 117.506984 297.899392 
L 117.728818 296.936526 
L 118.394321 297.289322 
L 118.616155 298.233823 
L 118.837989 297.57974 
L 119.059823 299.436672 
L 119.281658 299.397455 
L 119.94716 296.164618 
L 120.168995 296.13359 
L 120.390829 296.839085 
L 120.612663 296.318867 
L 120.834497 296.924168 
L 121.721834 296.780643 
L 121.943668 296.392511 
L 122.165503 296.951468 
L 122.387337 295.930051 
L 123.274674 295.051035 
L 123.496508 294.227855 
L 123.940177 293.286538 
L 124.605679 289.163651 
L 124.827514 288.743828 
L 125.271182 288.897894 
L 125.493016 288.380805 
L 126.158519 289.873222 
L 126.380353 290.891452 
L 126.602188 292.498832 
L 126.824022 293.197731 
L 127.045856 295.323252 
L 127.711359 295.312718 
L 127.933193 296.913552 
L 128.155027 295.114389 
L 128.376861 294.498913 
L 128.598696 292.881826 
L 129.264198 293.995851 
L 129.486033 296.271204 
L 129.707867 291.60369 
L 129.929701 291.318949 
L 130.151535 289.891811 
L 131.038872 289.939071 
L 131.260707 287.593825 
L 131.704375 289.586258 
L 132.369878 289.690352 
L 132.591712 289.885287 
L 132.813546 286.705309 
L 133.03538 288.698663 
L 133.257215 289.482015 
L 133.922717 291.040346 
L 134.144552 290.9635 
L 134.366386 292.928364 
L 134.58822 292.515755 
L 134.810054 292.585839 
L 135.475557 292.585839 
L 135.697391 298.686139 
L 135.919226 298.639609 
L 136.14106 294.110028 
L 136.362894 294.45031 
L 137.028397 300.384599 
L 137.250231 301.081268 
L 137.693899 298.688221 
L 137.915734 298.658727 
L 138.581236 303.699434 
L 138.803071 302.272307 
L 139.024905 301.7475 
L 139.468573 299.056191 
L 140.134076 299.319251 
L 140.35591 301.015933 
L 140.577745 301.248189 
L 140.799579 299.042351 
L 141.021413 302.253137 
L 141.686916 301.970227 
L 142.130584 300.48786 
L 142.352418 300.658388 
L 142.574253 300.42749 
L 143.239755 299.250511 
L 143.46159 300.445495 
L 143.683424 297.488712 
L 143.905258 299.165499 
L 144.127092 298.884837 
L 145.014429 298.649507 
L 145.236264 299.506363 
L 145.458098 300.844576 
L 145.679932 303.345745 
L 146.345435 292.29869 
L 146.567269 291.930459 
L 146.789103 292.664396 
L 147.010937 292.778263 
L 147.232772 290.781315 
L 147.898274 290.6953 
L 148.120109 291.816518 
L 148.563777 290.070813 
L 148.785611 290.648465 
L 149.451114 291.288273 
L 149.894783 289.37259 
L 150.116617 291.772683 
L 150.338451 292.026564 
L 151.003954 291.147067 
L 151.225788 290.660041 
L 151.447622 291.212809 
L 151.669457 291.255831 
L 151.891291 291.712396 
L 152.556793 291.47675 
L 152.778628 292.440069 
L 153.000462 291.84591 
L 153.222296 291.639111 
L 153.44413 290.142274 
L 154.109633 290.404715 
L 154.553302 287.630136 
L 154.99697 294.194904 
L 155.662473 293.615183 
L 155.884307 294.110368 
L 156.106141 295.108466 
L 156.327976 295.418914 
L 156.54981 296.069352 
L 157.215312 295.077606 
L 157.437147 294.488612 
L 157.658981 294.518393 
L 157.880815 298.272257 
L 158.102649 294.452496 
L 158.768152 299.084539 
L 158.989986 297.773603 
L 159.211821 297.272699 
L 159.433655 297.345894 
L 159.655489 297.01136 
L 160.320992 296.359275 
L 160.986495 294.719031 
L 161.208329 296.497659 
L 161.873832 294.084601 
L 162.095666 294.336888 
L 162.3175 295.272306 
L 162.539334 295.255329 
L 162.761168 295.559542 
L 163.648505 294.401667 
L 163.87034 294.82291 
L 164.314008 294.502023 
L 164.979511 295.079465 
L 165.201345 295.727163 
L 165.423179 295.727163 
L 165.645014 297.803287 
L 165.866848 303.534739 
L 166.532351 302.633305 
L 166.754185 302.860266 
L 166.976019 301.038403 
L 167.197853 300.669404 
L 167.419687 300.884805 
L 168.08519 300.654025 
L 168.307024 301.235172 
L 168.528859 301.260903 
L 168.750693 301.122194 
L 168.972527 301.735072 
L 169.63803 300.888252 
L 169.859864 299.134222 
L 170.303533 298.38176 
L 170.525367 299.844255 
L 171.19087 300.035421 
L 171.412704 298.847773 
L 171.856372 298.654996 
L 172.078207 297.353285 
L 172.965543 297.258955 
L 173.187378 297.768755 
L 173.409212 300.38226 
L 173.631046 300.897133 
L 174.296549 298.105423 
L 174.518383 298.799376 
L 174.740217 297.848695 
L 174.962052 296.075744 
L 175.183886 295.208693 
L 176.071223 292.888484 
L 176.293057 294.27108 
L 176.514891 294.189334 
L 176.736726 296.175849 
L 177.402228 298.220474 
L 177.624062 299.462787 
L 177.845897 297.700242 
L 178.067731 300.965169 
L 178.289565 299.75573 
L 178.955068 299.000328 
L 179.176902 299.047108 
L 179.398736 299.652205 
L 179.620571 298.390475 
L 179.842405 298.920149 
L 180.507908 298.996292 
L 180.729742 300.625345 
L 181.17341 297.638719 
L 181.395245 297.055537 
L 182.282582 296.345597 
L 182.504416 296.522364 
L 182.72625 295.712709 
L 182.948084 295.816155 
L 183.613587 294.881097 
L 184.057255 295.333013 
L 184.500924 297.160774 
L 185.166427 297.14439 
L 185.388261 295.10241 
L 185.831929 295.2268 
L 186.053764 302.463549 
L 186.941101 301.886391 
L 187.162935 302.116251 
L 187.384769 300.755657 
L 187.606603 303.715073 
L 188.49394 301.526815 
L 188.715774 302.336169 
L 188.937609 302.401238 
L 189.159443 302.338431 
L 189.824946 303.91287 
L 190.268614 302.45454 
L 190.490448 305.498975 
L 190.712283 306.092684 
L 191.377785 306.214999 
L 191.59962 305.036174 
L 191.821454 304.718794 
L 192.043288 303.293322 
L 192.265122 304.226907 
L 193.374293 306.078248 
L 193.596128 304.827016 
L 193.817962 304.3841 
L 194.483465 305.239649 
L 194.705299 304.904379 
L 195.148967 307.288659 
L 196.036304 307.65586 
L 196.258139 307.410001 
L 196.701807 308.898931 
L 196.923641 310.115889 
L 197.810978 309.759904 
L 198.032812 310.339195 
L 198.254647 311.938265 
L 198.476481 314.427609 
L 199.141984 314.515032 
L 199.363818 314.394683 
L 199.807486 312.456123 
L 200.029321 312.0434 
L 200.694823 311.904841 
L 200.916658 312.314788 
L 201.138492 313.257353 
L 201.360326 313.073992 
L 201.58216 312.469489 
L 202.247663 312.887176 
L 202.691332 312.451957 
L 202.913166 311.08835 
L 203.135 310.953267 
L 204.022337 310.898213 
L 204.244171 311.099845 
L 204.466005 308.059986 
L 204.68784 308.406702 
L 205.575177 307.378391 
L 205.797011 307.559168 
L 206.018845 308.784943 
L 206.240679 307.318546 
L 206.906182 306.758007 
L 207.349851 307.563602 
L 207.571685 309.167218 
L 207.793519 308.48382 
L 208.459022 307.606096 
L 208.680856 307.508604 
L 208.90269 308.13983 
L 209.124524 307.047819 
L 210.011861 305.446279 
L 210.233696 306.031252 
L 210.45553 306.285677 
L 210.677364 306.285677 
L 210.899198 302.05412 
L 211.564701 301.930191 
L 212.00837 300.771289 
L 212.230204 299.104538 
L 213.117541 302.59983 
L 213.339375 299.076977 
L 213.561209 298.702131 
L 214.004878 297.163635 
L 214.67038 298.1321 
L 214.892215 298.970409 
L 215.335883 293.932071 
L 215.557717 293.982669 
L 216.22322 293.332272 
L 216.445054 290.603895 
L 216.666889 290.88408 
L 217.110557 286.758834 
L 217.77606 285.825212 
L 217.997894 286.317278 
L 218.441562 282.515272 
L 218.663397 277.620424 
L 219.328899 279.679367 
L 219.550734 279.452573 
L 219.772568 278.939983 
L 219.994402 279.327113 
L 220.216236 278.582655 
L 221.103573 284.662147 
L 221.325408 284.506366 
L 221.547242 281.480318 
L 222.434579 281.80906 
L 222.656413 280.038556 
L 222.878247 279.752883 
L 223.100082 277.730367 
L 223.321916 278.422598 
L 223.987418 277.38667 
L 224.209253 277.56661 
L 224.431087 272.536228 
L 224.652921 271.272887 
L 224.874755 273.956336 
L 225.762092 274.736851 
L 225.983927 272.97969 
L 226.205761 272.50806 
L 227.093098 271.700512 
L 227.314932 272.665362 
L 227.536766 274.834716 
L 227.980435 273.681927 
L 228.867772 267.478075 
L 229.089606 267.617754 
L 229.533274 268.972297 
L 230.198777 272.096163 
L 230.420611 271.647718 
L 230.642446 271.654671 
L 230.86428 270.583322 
L 231.086114 270.917326 
L 231.751617 271.126203 
L 231.973451 273.983628 
L 232.41712 270.975978 
L 232.638954 271.222001 
L 233.304457 269.959508 
L 233.526291 268.076839 
L 233.748125 268.389873 
L 234.191793 266.310021 
L 234.857296 264.730929 
L 235.07913 264.730929 
L 235.300965 256.941222 
L 235.522799 256.210897 
L 235.744633 257.356211 
L 236.410136 257.796079 
L 236.63197 257.508329 
L 237.075639 255.925347 
L 237.297473 262.467432 
L 237.962976 260.442155 
L 238.406644 262.7692 
L 238.628478 262.481219 
L 239.515815 262.937862 
L 239.737649 262.818526 
L 239.959484 264.135001 
L 240.181318 266.848264 
L 240.403152 260.728681 
L 241.290489 257.908029 
L 241.734158 259.637484 
L 242.621495 260.994388 
L 243.508832 256.527749 
L 244.174334 256.844238 
L 244.396168 257.836223 
L 244.618003 254.539179 
L 245.061671 259.221381 
L 245.727174 258.506558 
L 245.949008 256.138225 
L 246.170842 257.633615 
L 246.392677 257.633615 
L 246.614511 259.343267 
L 247.280014 259.68202 
L 247.723682 254.484193 
L 248.167351 255.851103 
L 248.832853 253.283674 
L 249.054688 256.57199 
L 249.276522 257.160402 
L 249.498356 256.260938 
L 249.72019 257.166569 
L 250.385693 257.412697 
L 250.607527 258.04699 
L 250.829361 260.43848 
L 251.27303 261.978747 
L 251.938533 261.076346 
L 252.160367 261.580351 
L 252.382201 261.453807 
L 252.82587 259.997622 
L 253.491372 256.688473 
L 253.713207 256.333301 
L 253.935041 262.041997 
L 254.156875 264.736827 
L 254.378709 265.586879 
L 255.044212 266.532751 
L 255.266046 263.828533 
L 255.48788 265.118972 
L 255.709715 265.509281 
L 255.931549 268.364913 
L 256.818886 268.704517 
L 257.04072 269.120673 
L 257.262554 268.382037 
L 257.484389 268.303536 
L 258.149891 267.636852 
L 258.371726 268.414701 
L 258.59356 266.883229 
L 258.815394 266.690297 
L 259.037228 266.908965 
L 259.702731 265.153881 
L 259.924565 268.948408 
L 260.146399 264.769452 
L 260.368234 263.870931 
L 260.590068 262.36074 
L 261.255571 262.733847 
L 261.477405 260.825471 
L 261.699239 260.825471 
L 261.921073 260.043616 
L 262.142908 261.79817 
L 263.030245 258.691764 
L 263.252079 259.422929 
L 263.473913 254.147935 
L 263.695747 255.054875 
L 264.36125 253.555189 
L 264.804918 250.847372 
L 265.026753 255.001435 
L 265.248587 255.158151 
L 265.91409 254.496024 
L 266.135924 255.048914 
L 266.357758 256.075837 
L 266.579592 255.645527 
L 266.801427 254.391335 
L 267.466929 249.443016 
L 267.688764 246.619983 
L 267.910598 247.146203 
L 268.132432 245.408338 
L 268.354266 245.955635 
L 269.241603 248.44185 
L 269.463438 247.032534 
L 269.907106 249.750748 
L 270.572609 249.679931 
L 270.794443 250.691447 
L 271.016277 254.325487 
L 271.238111 255.068902 
L 271.459946 253.338279 
L 272.125448 250.385375 
L 272.347283 249.92001 
L 272.569117 251.010758 
L 272.790951 248.337746 
L 273.678288 243.224107 
L 273.900122 243.296671 
L 274.343791 248.154065 
L 274.565625 250.499788 
L 275.231128 246.158348 
L 275.452962 247.239736 
L 276.118465 242.342063 
L 276.783967 241.979808 
L 277.005802 242.381343 
L 277.227636 240.442496 
L 277.671304 240.308702 
L 278.558641 235.904226 
L 278.780476 237.402975 
L 279.00231 242.29148 
L 279.224144 241.981818 
L 279.889647 241.981818 
L 280.111481 242.382666 
L 280.333315 237.750051 
L 280.776984 234.678134 
L 281.442486 235.504551 
L 281.664321 233.87911 
L 281.886155 224.719411 
L 282.107989 225.335675 
L 282.329823 222.955407 
L 282.995326 225.186494 
L 283.21716 228.009227 
L 283.438995 229.315898 
L 283.660829 227.377533 
L 283.882663 223.97478 
L 284.77 222.255525 
L 284.991834 222.853751 
L 285.435503 220.885318 
L 286.101005 220.083303 
L 286.32284 217.607708 
L 286.544674 219.921738 
L 286.766508 224.86804 
L 286.988342 225.066338 
L 287.653845 225.049496 
L 288.097514 231.536969 
L 288.319348 233.01072 
L 288.541182 236.746348 
L 289.206685 236.010141 
L 289.428519 238.859926 
L 289.650353 237.016208 
L 289.872188 238.725674 
L 290.094022 236.23581 
L 290.759524 238.858454 
L 291.203193 239.143043 
L 291.425027 237.127897 
L 291.646861 238.160985 
L 292.312364 237.910433 
L 292.534198 234.062274 
L 292.756033 236.010682 
L 292.977867 234.818026 
L 293.865204 235.423389 
L 294.087038 235.300069 
L 294.308872 233.091612 
L 294.530707 232.514769 
L 294.752541 228.861489 
L 295.418043 223.552911 
L 295.861712 226.148553 
L 296.083546 229.676032 
L 296.30538 229.436507 
L 296.970883 228.41239 
L 297.192717 227.318322 
L 297.414552 226.876178 
L 297.636386 225.449248 
L 297.85822 225.16416 
L 298.523723 219.013394 
L 298.745557 215.75718 
L 298.967391 215.590185 
L 299.189226 216.123638 
L 299.41106 218.772679 
L 300.076563 220.340589 
L 300.298397 225.050633 
L 300.520231 222.996201 
L 300.742065 219.501801 
L 300.963899 218.304366 
L 301.629402 217.939319 
L 301.851236 217.270699 
L 302.073071 219.680168 
L 302.294905 218.098376 
L 302.516739 219.668213 
L 303.182242 220.165947 
L 303.62591 229.068283 
L 303.847745 227.228942 
L 304.069579 227.982712 
L 304.735082 229.381922 
L 304.956916 226.513994 
L 305.17875 229.241982 
L 305.400584 227.193915 
L 305.622418 226.568518 
L 306.287921 228.071646 
L 306.73159 225.639238 
L 306.953424 220.752477 
L 307.175258 222.129382 
L 308.062595 221.963273 
L 308.284429 221.298901 
L 309.393601 213.730548 
L 309.615435 211.584362 
L 309.837269 211.820906 
L 310.280938 216.001146 
L 310.94644 216.21547 
L 311.168274 216.142111 
L 311.390109 216.825702 
L 311.833777 212.236747 
L 312.49928 206.977782 
L 312.721114 206.35642 
L 312.942948 203.207954 
L 313.386617 205.885874 
L 314.05212 204.317339 
L 314.495788 206.879925 
L 314.717622 201.52098 
L 314.939457 203.041943 
L 315.604959 203.002554 
L 315.826793 206.858551 
L 316.048628 206.062621 
L 316.270462 205.924319 
L 316.492296 208.284148 
L 317.157799 208.87087 
L 317.379633 208.370208 
L 317.601467 205.953824 
L 317.823302 207.552155 
L 318.045136 208.14822 
L 318.710639 221.998043 
L 318.932473 224.285531 
L 319.154307 222.859553 
L 319.376141 222.437869 
L 319.597976 227.938176 
L 320.263478 229.841825 
L 320.485313 232.088654 
L 320.707147 231.585771 
L 320.928981 232.467881 
L 321.150815 231.819766 
L 321.816318 230.504358 
L 322.038152 231.005766 
L 322.259986 230.912737 
L 322.481821 231.799431 
L 322.703655 227.567322 
L 323.590992 228.965179 
L 323.812826 227.403204 
L 324.03466 227.608984 
L 324.256495 225.787632 
L 325.143832 214.378708 
L 325.365666 215.624335 
L 325.809334 215.469608 
L 326.474837 210.324853 
L 326.696671 206.725394 
L 326.918505 199.74031 
L 327.362174 207.975973 
L 328.027677 205.915139 
L 328.249511 208.245446 
L 328.471345 213.428473 
L 328.693179 211.446959 
L 328.915014 211.810606 
L 329.580516 213.400385 
L 329.802351 218.50533 
L 330.024185 219.64403 
L 330.246019 222.941839 
L 330.467853 219.416899 
L 331.133356 213.085746 
L 331.35519 216.556488 
L 331.577024 218.244025 
L 331.798859 218.093862 
L 332.686196 221.565285 
L 332.90803 221.279552 
L 333.129864 220.467875 
L 333.351698 220.149346 
L 334.239035 219.557905 
L 334.46087 221.506828 
L 334.682704 220.086486 
L 334.904538 198.199399 
L 335.126372 197.592206 
L 336.013709 198.885331 
L 336.235543 191.108617 
L 336.457378 191.28728 
L 336.679212 194.287703 
L 337.566549 192.208662 
L 337.788383 191.357698 
L 338.010217 201.676221 
L 338.897554 205.743364 
L 339.119389 205.38042 
L 339.341223 203.062448 
L 339.563057 209.041021 
L 339.784891 208.96403 
L 340.450394 207.262376 
L 340.672228 205.152595 
L 340.894063 209.24334 
L 341.115897 207.336729 
L 341.337731 208.902987 
L 342.003234 215.085605 
L 342.225068 211.451318 
L 342.446902 215.092842 
L 342.668736 223.324817 
L 342.890571 223.453123 
L 343.777908 224.943329 
L 343.999742 225.795419 
L 344.221576 223.782489 
L 344.44341 224.079067 
L 345.108913 225.625157 
L 345.330747 224.65185 
L 345.774416 228.247581 
L 345.99625 217.991467 
L 346.883587 213.716353 
L 347.105421 215.411322 
L 347.327255 212.968835 
L 347.54909 214.362479 
L 348.214592 213.212158 
L 348.436427 213.284018 
L 348.658261 212.832652 
L 348.880095 214.608368 
L 349.101929 215.229487 
L 349.767432 214.390988 
L 350.211101 218.21628 
L 350.432935 217.587536 
L 350.654769 215.461448 
L 351.320272 213.55354 
L 351.542106 213.610861 
L 351.76394 216.335654 
L 351.985774 217.051756 
L 352.873111 214.854926 
L 353.094946 211.998608 
L 353.31678 205.145895 
L 353.538614 206.679284 
L 353.760448 209.322605 
L 354.425951 209.455141 
L 354.647785 210.10852 
L 354.86962 209.153011 
L 355.091454 207.705912 
L 355.313288 204.584903 
L 355.978791 203.895904 
L 356.200625 204.765525 
L 356.422459 204.838407 
L 356.644293 209.287466 
L 356.866128 205.691942 
L 357.53163 207.361746 
L 358.197133 198.22001 
L 358.418967 196.153274 
L 359.306304 198.571337 
L 359.528139 196.928883 
L 359.749973 200.106712 
L 359.971807 197.234575 
L 360.63731 199.057279 
L 360.859144 201.60869 
L 361.080978 199.085329 
L 361.302813 200.453801 
L 361.524647 191.434743 
L 362.190149 193.77218 
L 362.411984 190.128904 
L 362.633818 199.785517 
L 362.855652 199.719661 
L 363.742989 200.951477 
L 363.964823 198.4063 
L 364.186658 198.542065 
L 364.408492 196.805352 
L 364.630326 193.343544 
L 365.517663 205.51216 
L 365.739497 203.810122 
L 366.183166 196.624308 
L 367.070503 197.061603 
L 367.292337 198.700481 
L 367.514171 198.925888 
L 367.736005 192.792481 
L 368.401508 195.505999 
L 368.623342 199.710039 
L 368.845177 199.949741 
L 369.067011 201.7681 
L 369.288845 204.884741 
L 369.954348 204.197062 
L 370.176182 205.495556 
L 370.398016 211.89432 
L 370.619851 209.526627 
L 370.841685 210.259403 
L 371.507188 203.961507 
L 371.729022 204.669276 
L 371.950856 204.191605 
L 372.394524 204.377045 
L 373.060027 209.354353 
L 373.281861 207.775513 
L 373.503696 210.62552 
L 373.947364 212.077438 
L 374.834701 212.007012 
L 375.056535 210.769418 
L 375.500204 205.331595 
L 376.165707 205.855777 
L 376.387541 201.927672 
L 376.609375 204.868308 
L 376.831209 202.509107 
L 377.053043 196.733471 
L 377.718546 195.011462 
L 377.94038 199.461661 
L 378.162215 198.708295 
L 378.384049 201.115597 
L 378.605883 199.623336 
L 379.271386 197.373791 
L 379.49322 197.317963 
L 379.715054 191.891701 
L 379.936889 190.985745 
L 380.158723 189.256687 
L 380.824226 188.922987 
L 381.267894 190.295951 
L 381.489728 191.674122 
L 381.711563 190.224974 
L 382.377065 191.965536 
L 382.598899 181.682446 
L 382.820734 187.052039 
L 383.042568 188.845099 
L 383.264402 188.519263 
L 383.929905 183.120477 
L 384.151739 182.623395 
L 384.373573 181.843961 
L 384.595408 183.641599 
L 384.817242 179.086963 
L 385.482745 182.197739 
L 385.926413 186.784474 
L 386.148247 185.31036 
L 386.370082 188.175295 
L 387.035584 185.595688 
L 387.257418 178.661814 
L 387.701087 189.025378 
L 387.922921 186.906391 
L 388.810258 186.03476 
L 389.032092 184.888722 
L 389.253927 182.675727 
L 389.475761 178.852993 
L 390.141264 185.846566 
L 390.363098 184.417512 
L 390.584932 189.851117 
L 390.806766 185.206362 
L 391.028601 186.667259 
L 391.694103 188.989568 
L 391.915938 185.650476 
L 392.137772 185.309774 
L 392.359606 174.394305 
L 392.58144 148.061103 
L 393.246943 147.978531 
L 393.468777 145.447894 
L 393.690611 150.217474 
L 393.912446 150.607272 
L 394.13428 150.695647 
L 394.799783 148.996455 
L 395.021617 150.670945 
L 395.465285 146.190465 
L 395.68712 146.190465 
L 396.352622 142.912943 
L 396.574457 135.874701 
L 396.796291 133.963711 
L 397.018125 125.592442 
L 397.239959 125.592442 
L 397.905462 127.998999 
L 398.127296 132.558629 
L 398.34913 131.334995 
L 398.570965 133.155277 
L 398.792799 121.132545 
L 399.458302 125.298528 
L 399.680136 124.30738 
L 399.90197 121.163388 
L 400.123804 136.731507 
L 400.345639 139.875184 
L 401.45481 143.262173 
L 401.898478 147.89284 
L 402.563981 153.870231 
L 402.785815 147.833304 
L 403.007649 147.028062 
L 403.229484 154.10644 
L 403.451318 151.489224 
L 404.338655 142.550708 
L 404.560489 148.339415 
L 404.782323 140.946244 
L 405.004158 140.841045 
L 405.66966 145.104565 
L 405.891495 138.137021 
L 406.113329 95.488502 
L 406.556997 110.463915 
L 407.2225 110.933404 
L 407.666168 104.146372 
L 407.888003 111.008319 
L 408.109837 111.54589 
L 408.77534 115.223072 
L 408.997174 103.435476 
L 409.440842 112.451061 
L 409.662677 110.290807 
L 410.328179 110.192736 
L 410.550014 119.982954 
L 410.771848 122.585254 
L 410.993682 135.581936 
L 411.215516 134.56568 
L 411.881019 123.705395 
L 412.102853 122.191154 
L 412.324687 122.569125 
L 412.546522 111.751945 
L 412.768356 110.786183 
L 413.877527 111.047332 
L 414.321196 118.99859 
L 415.208533 125.29045 
L 415.430367 129.949432 
L 415.874035 109.819703 
L 416.539538 104.680525 
L 416.761372 88.603804 
L 416.983207 87.458415 
L 417.205041 85.229622 
L 417.426875 86.769883 
L 418.314212 81.416882 
L 418.536046 81.461666 
L 418.75788 76.567632 
L 418.979715 74.850603 
L 419.867052 63.549909 
L 420.088886 65.667876 
L 420.31072 65.620562 
L 420.532554 67.153967 
L 421.419891 53.462055 
L 421.641726 54.174602 
L 421.86356 58.682239 
L 422.085394 55.76115 
L 422.750897 63.720933 
L 422.972731 64.81116 
L 423.194565 61.119942 
L 423.416399 62.004834 
L 423.638234 71.424272 
L 424.303736 69.874555 
L 424.747405 61.916919 
L 424.969239 59.990857 
L 425.191073 61.686283 
L 426.07841 54.270413 
L 426.522079 48.693385 
L 426.743913 68.535328 
L 427.409416 57.051056 
L 427.63125 59.619245 
L 427.853084 58.141255 
L 428.074918 62.30095 
L 428.296753 57.800456 
L 428.962255 60.507179 
L 429.18409 62.120826 
L 429.405924 51.886941 
L 429.627758 51.551327 
L 430.515095 49.02921 
L 430.736929 47.655968 
L 430.958764 44.546095 
L 431.180598 47.962566 
L 431.402432 46.584631 
L 432.067935 49.205579 
L 432.289769 52.5802 
L 432.511603 52.423154 
L 432.733437 65.535298 
L 432.955272 65.056737 
L 433.620774 64.916831 
L 433.842609 51.304158 
L 434.064443 52.763908 
L 435.173614 49.669975 
L 435.395448 52.546485 
L 435.617283 53.772845 
L 435.839117 53.335551 
L 436.060951 51.689061 
L 436.726454 49.800538 
L 436.948288 50.836882 
L 437.170122 63.310848 
L 437.391957 68.408327 
L 438.279293 70.275055 
L 438.501128 66.990869 
L 438.722962 56.380784 
L 438.944796 58.80055 
L 439.16663 55.523737 
L 439.832133 58.425355 
L 440.053967 68.999584 
L 440.497636 48.691886 
L 440.71947 46.842332 
L 441.384973 35.739296 
L 441.606807 35.028628 
L 441.828641 33.858346 
L 442.050476 33.364239 
L 442.27231 40.090473 
L 442.937812 42.863475 
L 443.159647 42.626222 
L 443.381481 39.357978 
L 443.603315 40.569236 
L 443.825149 29.440838 
L 444.490652 47.512998 
L 444.712486 47.512998 
L 444.934321 44.325656 
L 445.156155 46.811541 
L 445.377989 46.704374 
L 446.043492 48.706629 
L 446.265326 58.313854 
L 446.48716 60.116006 
L 446.930829 68.678662 
L 447.818166 66.785102 
L 448.04 62.838503 
L 448.04 62.838503 
" style="fill:none;stroke:#008000;stroke-linecap:square;"/>
   </g>
   <g id="patch_3">
    <path d="M 448.04 361.098447 
L 448.04 18.766875 
" style="fill:none;stroke:#000000;stroke-linecap:square;stroke-linejoin:miter;"/>
   </g>
   <g id="patch_4">
    <path d="M 39.865 361.098447 
L 39.865 18.766875 
" style="fill:none;stroke:#000000;stroke-linecap:square;stroke-linejoin:miter;"/>
   </g>
   <g id="patch_5">
    <path d="M 39.865 18.766875 
L 448.04 18.766875 
" style="fill:none;stroke:#000000;stroke-linecap:square;stroke-linejoin:miter;"/>
   </g>
   <g id="patch_6">
    <path d="M 39.865 361.098447 
L 448.04 361.098447 
" style="fill:none;stroke:#000000;stroke-linecap:square;stroke-linejoin:miter;"/>
   </g>
   <g id="matplotlib.axis_1">
    <g id="xtick_1">
     <g id="line2d_3">
      <defs>
       <path d="M 0 0 
L 0 -4 
" id="m9b5add2894" style="stroke:#000000;stroke-width:0.5;"/>
      </defs>
      <g>
       <use style="stroke:#000000;stroke-width:0.5;" x="90.6650407609" xlink:href="#m9b5add2894" y="361.098447467"/>
      </g>
     </g>
     <g id="line2d_4">
      <defs>
       <path d="M 0 0 
L 0 4 
" id="mecf3d4d4f9" style="stroke:#000000;stroke-width:0.5;"/>
      </defs>
      <g>
       <use style="stroke:#000000;stroke-width:0.5;" x="90.6650407609" xlink:href="#mecf3d4d4f9" y="18.766875"/>
      </g>
     </g>
     <g id="text_1">
      <!-- 2013 -->
      <defs>
       <path d="M 12.40625 8.296875 
L 28.515625 8.296875 
L 28.515625 63.921875 
L 10.984375 60.40625 
L 10.984375 69.390625 
L 28.421875 72.90625 
L 38.28125 72.90625 
L 38.28125 8.296875 
L 54.390625 8.296875 
L 54.390625 0 
L 12.40625 0 
z
" id="BitstreamVeraSans-Roman-31"/>
       <path d="M 31.78125 66.40625 
Q 24.171875 66.40625 20.328125 58.90625 
Q 16.5 51.421875 16.5 36.375 
Q 16.5 21.390625 20.328125 13.890625 
Q 24.171875 6.390625 31.78125 6.390625 
Q 39.453125 6.390625 43.28125 13.890625 
Q 47.125 21.390625 47.125 36.375 
Q 47.125 51.421875 43.28125 58.90625 
Q 39.453125 66.40625 31.78125 66.40625 
M 31.78125 74.21875 
Q 44.046875 74.21875 50.515625 64.515625 
Q 56.984375 54.828125 56.984375 36.375 
Q 56.984375 17.96875 50.515625 8.265625 
Q 44.046875 -1.421875 31.78125 -1.421875 
Q 19.53125 -1.421875 13.0625 8.265625 
Q 6.59375 17.96875 6.59375 36.375 
Q 6.59375 54.828125 13.0625 64.515625 
Q 19.53125 74.21875 31.78125 74.21875 
" id="BitstreamVeraSans-Roman-30"/>
       <path d="M 19.1875 8.296875 
L 53.609375 8.296875 
L 53.609375 0 
L 7.328125 0 
L 7.328125 8.296875 
Q 12.9375 14.109375 22.625 23.890625 
Q 32.328125 33.6875 34.8125 36.53125 
Q 39.546875 41.84375 41.421875 45.53125 
Q 43.3125 49.21875 43.3125 52.78125 
Q 43.3125 58.59375 39.234375 62.25 
Q 35.15625 65.921875 28.609375 65.921875 
Q 23.96875 65.921875 18.8125 64.3125 
Q 13.671875 62.703125 7.8125 59.421875 
L 7.8125 69.390625 
Q 13.765625 71.78125 18.9375 73 
Q 24.125 74.21875 28.421875 74.21875 
Q 39.75 74.21875 46.484375 68.546875 
Q 53.21875 62.890625 53.21875 53.421875 
Q 53.21875 48.921875 51.53125 44.890625 
Q 49.859375 40.875 45.40625 35.40625 
Q 44.1875 33.984375 37.640625 27.21875 
Q 31.109375 20.453125 19.1875 8.296875 
" id="BitstreamVeraSans-Roman-32"/>
       <path d="M 40.578125 39.3125 
Q 47.65625 37.796875 51.625 33 
Q 55.609375 28.21875 55.609375 21.1875 
Q 55.609375 10.40625 48.1875 4.484375 
Q 40.765625 -1.421875 27.09375 -1.421875 
Q 22.515625 -1.421875 17.65625 -0.515625 
Q 12.796875 0.390625 7.625 2.203125 
L 7.625 11.71875 
Q 11.71875 9.328125 16.59375 8.109375 
Q 21.484375 6.890625 26.8125 6.890625 
Q 36.078125 6.890625 40.9375 10.546875 
Q 45.796875 14.203125 45.796875 21.1875 
Q 45.796875 27.640625 41.28125 31.265625 
Q 36.765625 34.90625 28.71875 34.90625 
L 20.21875 34.90625 
L 20.21875 43.015625 
L 29.109375 43.015625 
Q 36.375 43.015625 40.234375 45.921875 
Q 44.09375 48.828125 44.09375 54.296875 
Q 44.09375 59.90625 40.109375 62.90625 
Q 36.140625 65.921875 28.71875 65.921875 
Q 24.65625 65.921875 20.015625 65.03125 
Q 15.375 64.15625 9.8125 62.3125 
L 9.8125 71.09375 
Q 15.4375 72.65625 20.34375 73.4375 
Q 25.25 74.21875 29.59375 74.21875 
Q 40.828125 74.21875 47.359375 69.109375 
Q 53.90625 64.015625 53.90625 55.328125 
Q 53.90625 49.265625 50.4375 45.09375 
Q 46.96875 40.921875 40.578125 39.3125 
" id="BitstreamVeraSans-Roman-33"/>
      </defs>
      <g transform="translate(62.9688124293 388.264975352)rotate(-30.0)scale(0.12 -0.12)">
       <use xlink:href="#BitstreamVeraSans-Roman-32"/>
       <use x="63.623046875" xlink:href="#BitstreamVeraSans-Roman-30"/>
       <use x="127.24609375" xlink:href="#BitstreamVeraSans-Roman-31"/>
       <use x="190.869140625" xlink:href="#BitstreamVeraSans-Roman-33"/>
      </g>
     </g>
    </g>
    <g id="xtick_2">
     <g id="line2d_5">
      <g>
       <use style="stroke:#000000;stroke-width:0.5;" x="171.634538043" xlink:href="#m9b5add2894" y="361.098447467"/>
      </g>
     </g>
     <g id="line2d_6">
      <g>
       <use style="stroke:#000000;stroke-width:0.5;" x="171.634538043" xlink:href="#mecf3d4d4f9" y="18.766875"/>
      </g>
     </g>
     <g id="text_2">
      <!-- 2014 -->
      <defs>
       <path d="M 37.796875 64.3125 
L 12.890625 25.390625 
L 37.796875 25.390625 
z
M 35.203125 72.90625 
L 47.609375 72.90625 
L 47.609375 25.390625 
L 58.015625 25.390625 
L 58.015625 17.1875 
L 47.609375 17.1875 
L 47.609375 0 
L 37.796875 0 
L 37.796875 17.1875 
L 4.890625 17.1875 
L 4.890625 26.703125 
z
" id="BitstreamVeraSans-Roman-34"/>
      </defs>
      <g transform="translate(143.938309712 388.264975352)rotate(-30.0)scale(0.12 -0.12)">
       <use xlink:href="#BitstreamVeraSans-Roman-32"/>
       <use x="63.623046875" xlink:href="#BitstreamVeraSans-Roman-30"/>
       <use x="127.24609375" xlink:href="#BitstreamVeraSans-Roman-31"/>
       <use x="190.869140625" xlink:href="#BitstreamVeraSans-Roman-34"/>
      </g>
     </g>
    </g>
    <g id="xtick_3">
     <g id="line2d_7">
      <g>
       <use style="stroke:#000000;stroke-width:0.5;" x="252.604035326" xlink:href="#m9b5add2894" y="361.098447467"/>
      </g>
     </g>
     <g id="line2d_8">
      <g>
       <use style="stroke:#000000;stroke-width:0.5;" x="252.604035326" xlink:href="#mecf3d4d4f9" y="18.766875"/>
      </g>
     </g>
     <g id="text_3">
      <!-- 2015 -->
      <defs>
       <path d="M 10.796875 72.90625 
L 49.515625 72.90625 
L 49.515625 64.59375 
L 19.828125 64.59375 
L 19.828125 46.734375 
Q 21.96875 47.46875 24.109375 47.828125 
Q 26.265625 48.1875 28.421875 48.1875 
Q 40.625 48.1875 47.75 41.5 
Q 54.890625 34.8125 54.890625 23.390625 
Q 54.890625 11.625 47.5625 5.09375 
Q 40.234375 -1.421875 26.90625 -1.421875 
Q 22.3125 -1.421875 17.546875 -0.640625 
Q 12.796875 0.140625 7.71875 1.703125 
L 7.71875 11.625 
Q 12.109375 9.234375 16.796875 8.0625 
Q 21.484375 6.890625 26.703125 6.890625 
Q 35.15625 6.890625 40.078125 11.328125 
Q 45.015625 15.765625 45.015625 23.390625 
Q 45.015625 31 40.078125 35.4375 
Q 35.15625 39.890625 26.703125 39.890625 
Q 22.75 39.890625 18.8125 39.015625 
Q 14.890625 38.140625 10.796875 36.28125 
z
" id="BitstreamVeraSans-Roman-35"/>
      </defs>
      <g transform="translate(224.907806994 388.264975352)rotate(-30.0)scale(0.12 -0.12)">
       <use xlink:href="#BitstreamVeraSans-Roman-32"/>
       <use x="63.623046875" xlink:href="#BitstreamVeraSans-Roman-30"/>
       <use x="127.24609375" xlink:href="#BitstreamVeraSans-Roman-31"/>
       <use x="190.869140625" xlink:href="#BitstreamVeraSans-Roman-35"/>
      </g>
     </g>
    </g>
    <g id="xtick_4">
     <g id="line2d_9">
      <g>
       <use style="stroke:#000000;stroke-width:0.5;" x="333.573532609" xlink:href="#m9b5add2894" y="361.098447467"/>
      </g>
     </g>
     <g id="line2d_10">
      <g>
       <use style="stroke:#000000;stroke-width:0.5;" x="333.573532609" xlink:href="#mecf3d4d4f9" y="18.766875"/>
      </g>
     </g>
     <g id="text_4">
      <!-- 2016 -->
      <defs>
       <path d="M 33.015625 40.375 
Q 26.375 40.375 22.484375 35.828125 
Q 18.609375 31.296875 18.609375 23.390625 
Q 18.609375 15.53125 22.484375 10.953125 
Q 26.375 6.390625 33.015625 6.390625 
Q 39.65625 6.390625 43.53125 10.953125 
Q 47.40625 15.53125 47.40625 23.390625 
Q 47.40625 31.296875 43.53125 35.828125 
Q 39.65625 40.375 33.015625 40.375 
M 52.59375 71.296875 
L 52.59375 62.3125 
Q 48.875 64.0625 45.09375 64.984375 
Q 41.3125 65.921875 37.59375 65.921875 
Q 27.828125 65.921875 22.671875 59.328125 
Q 17.53125 52.734375 16.796875 39.40625 
Q 19.671875 43.65625 24.015625 45.921875 
Q 28.375 48.1875 33.59375 48.1875 
Q 44.578125 48.1875 50.953125 41.515625 
Q 57.328125 34.859375 57.328125 23.390625 
Q 57.328125 12.15625 50.6875 5.359375 
Q 44.046875 -1.421875 33.015625 -1.421875 
Q 20.359375 -1.421875 13.671875 8.265625 
Q 6.984375 17.96875 6.984375 36.375 
Q 6.984375 53.65625 15.1875 63.9375 
Q 23.390625 74.21875 37.203125 74.21875 
Q 40.921875 74.21875 44.703125 73.484375 
Q 48.484375 72.75 52.59375 71.296875 
" id="BitstreamVeraSans-Roman-36"/>
      </defs>
      <g transform="translate(305.877304277 388.264975352)rotate(-30.0)scale(0.12 -0.12)">
       <use xlink:href="#BitstreamVeraSans-Roman-32"/>
       <use x="63.623046875" xlink:href="#BitstreamVeraSans-Roman-30"/>
       <use x="127.24609375" xlink:href="#BitstreamVeraSans-Roman-31"/>
       <use x="190.869140625" xlink:href="#BitstreamVeraSans-Roman-36"/>
      </g>
     </g>
    </g>
    <g id="xtick_5">
     <g id="line2d_11">
      <g>
       <use style="stroke:#000000;stroke-width:0.5;" x="414.76486413" xlink:href="#m9b5add2894" y="361.098447467"/>
      </g>
     </g>
     <g id="line2d_12">
      <g>
       <use style="stroke:#000000;stroke-width:0.5;" x="414.76486413" xlink:href="#mecf3d4d4f9" y="18.766875"/>
      </g>
     </g>
     <g id="text_5">
      <!-- 2017 -->
      <defs>
       <path d="M 8.203125 72.90625 
L 55.078125 72.90625 
L 55.078125 68.703125 
L 28.609375 0 
L 18.3125 0 
L 43.21875 64.59375 
L 8.203125 64.59375 
z
" id="BitstreamVeraSans-Roman-37"/>
      </defs>
      <g transform="translate(387.068635799 388.264975352)rotate(-30.0)scale(0.12 -0.12)">
       <use xlink:href="#BitstreamVeraSans-Roman-32"/>
       <use x="63.623046875" xlink:href="#BitstreamVeraSans-Roman-30"/>
       <use x="127.24609375" xlink:href="#BitstreamVeraSans-Roman-31"/>
       <use x="190.869140625" xlink:href="#BitstreamVeraSans-Roman-37"/>
      </g>
     </g>
    </g>
    <g id="text_6">
     <!-- date -->
     <defs>
      <path d="M 45.40625 46.390625 
L 45.40625 75.984375 
L 54.390625 75.984375 
L 54.390625 0 
L 45.40625 0 
L 45.40625 8.203125 
Q 42.578125 3.328125 38.25 0.953125 
Q 33.9375 -1.421875 27.875 -1.421875 
Q 17.96875 -1.421875 11.734375 6.484375 
Q 5.515625 14.40625 5.515625 27.296875 
Q 5.515625 40.1875 11.734375 48.09375 
Q 17.96875 56 27.875 56 
Q 33.9375 56 38.25 53.625 
Q 42.578125 51.265625 45.40625 46.390625 
M 14.796875 27.296875 
Q 14.796875 17.390625 18.875 11.75 
Q 22.953125 6.109375 30.078125 6.109375 
Q 37.203125 6.109375 41.296875 11.75 
Q 45.40625 17.390625 45.40625 27.296875 
Q 45.40625 37.203125 41.296875 42.84375 
Q 37.203125 48.484375 30.078125 48.484375 
Q 22.953125 48.484375 18.875 42.84375 
Q 14.796875 37.203125 14.796875 27.296875 
" id="BitstreamVeraSans-Roman-64"/>
      <path d="M 18.3125 70.21875 
L 18.3125 54.6875 
L 36.8125 54.6875 
L 36.8125 47.703125 
L 18.3125 47.703125 
L 18.3125 18.015625 
Q 18.3125 11.328125 20.140625 9.421875 
Q 21.96875 7.515625 27.59375 7.515625 
L 36.8125 7.515625 
L 36.8125 0 
L 27.59375 0 
Q 17.1875 0 13.234375 3.875 
Q 9.28125 7.765625 9.28125 18.015625 
L 9.28125 47.703125 
L 2.6875 47.703125 
L 2.6875 54.6875 
L 9.28125 54.6875 
L 9.28125 70.21875 
z
" id="BitstreamVeraSans-Roman-74"/>
      <path d="M 34.28125 27.484375 
Q 23.390625 27.484375 19.1875 25 
Q 14.984375 22.515625 14.984375 16.5 
Q 14.984375 11.71875 18.140625 8.90625 
Q 21.296875 6.109375 26.703125 6.109375 
Q 34.1875 6.109375 38.703125 11.40625 
Q 43.21875 16.703125 43.21875 25.484375 
L 43.21875 27.484375 
z
M 52.203125 31.203125 
L 52.203125 0 
L 43.21875 0 
L 43.21875 8.296875 
Q 40.140625 3.328125 35.546875 0.953125 
Q 30.953125 -1.421875 24.3125 -1.421875 
Q 15.921875 -1.421875 10.953125 3.296875 
Q 6 8.015625 6 15.921875 
Q 6 25.140625 12.171875 29.828125 
Q 18.359375 34.515625 30.609375 34.515625 
L 43.21875 34.515625 
L 43.21875 35.40625 
Q 43.21875 41.609375 39.140625 45 
Q 35.0625 48.390625 27.6875 48.390625 
Q 23 48.390625 18.546875 47.265625 
Q 14.109375 46.140625 10.015625 43.890625 
L 10.015625 52.203125 
Q 14.9375 54.109375 19.578125 55.046875 
Q 24.21875 56 28.609375 56 
Q 40.484375 56 46.34375 49.84375 
Q 52.203125 43.703125 52.203125 31.203125 
" id="BitstreamVeraSans-Roman-61"/>
      <path d="M 56.203125 29.59375 
L 56.203125 25.203125 
L 14.890625 25.203125 
Q 15.484375 15.921875 20.484375 11.0625 
Q 25.484375 6.203125 34.421875 6.203125 
Q 39.59375 6.203125 44.453125 7.46875 
Q 49.3125 8.734375 54.109375 11.28125 
L 54.109375 2.78125 
Q 49.265625 0.734375 44.1875 -0.34375 
Q 39.109375 -1.421875 33.890625 -1.421875 
Q 20.796875 -1.421875 13.15625 6.1875 
Q 5.515625 13.8125 5.515625 26.8125 
Q 5.515625 40.234375 12.765625 48.109375 
Q 20.015625 56 32.328125 56 
Q 43.359375 56 49.78125 48.890625 
Q 56.203125 41.796875 56.203125 29.59375 
M 47.21875 32.234375 
Q 47.125 39.59375 43.09375 43.984375 
Q 39.0625 48.390625 32.421875 48.390625 
Q 24.90625 48.390625 20.390625 44.140625 
Q 15.875 39.890625 15.1875 32.171875 
z
" id="BitstreamVeraSans-Roman-65"/>
     </defs>
     <g transform="translate(230.4225 404.544375)scale(0.12 -0.12)">
      <use xlink:href="#BitstreamVeraSans-Roman-64"/>
      <use x="63.4765625" xlink:href="#BitstreamVeraSans-Roman-61"/>
      <use x="124.755859375" xlink:href="#BitstreamVeraSans-Roman-74"/>
      <use x="163.96484375" xlink:href="#BitstreamVeraSans-Roman-65"/>
     </g>
    </g>
   </g>
   <g id="matplotlib.axis_2">
    <g id="ytick_1">
     <g id="line2d_13">
      <defs>
       <path d="M 0 0 
L 4 0 
" id="ma58b045d32" style="stroke:#000000;stroke-width:0.5;"/>
      </defs>
      <g>
       <use style="stroke:#000000;stroke-width:0.5;" x="39.865" xlink:href="#ma58b045d32" y="361.098447467"/>
      </g>
     </g>
     <g id="line2d_14">
      <defs>
       <path d="M 0 0 
L -4 0 
" id="mc4eb678966" style="stroke:#000000;stroke-width:0.5;"/>
      </defs>
      <g>
       <use style="stroke:#000000;stroke-width:0.5;" x="448.04" xlink:href="#mc4eb678966" y="361.098447467"/>
      </g>
     </g>
     <g id="text_7">
      <!-- 0 -->
      <g transform="translate(28.23 364.409697467)scale(0.12 -0.12)">
       <use xlink:href="#BitstreamVeraSans-Roman-30"/>
      </g>
     </g>
    </g>
    <g id="ytick_2">
     <g id="line2d_15">
      <g>
       <use style="stroke:#000000;stroke-width:0.5;" x="39.865" xlink:href="#ma58b045d32" y="275.51555435"/>
      </g>
     </g>
     <g id="line2d_16">
      <g>
       <use style="stroke:#000000;stroke-width:0.5;" x="448.04" xlink:href="#mc4eb678966" y="275.51555435"/>
      </g>
     </g>
     <g id="text_8">
      <!-- 50 -->
      <g transform="translate(20.595 278.82680435)scale(0.12 -0.12)">
       <use xlink:href="#BitstreamVeraSans-Roman-35"/>
       <use x="63.623046875" xlink:href="#BitstreamVeraSans-Roman-30"/>
      </g>
     </g>
    </g>
    <g id="ytick_3">
     <g id="line2d_17">
      <g>
       <use style="stroke:#000000;stroke-width:0.5;" x="39.865" xlink:href="#ma58b045d32" y="189.932661233"/>
      </g>
     </g>
     <g id="line2d_18">
      <g>
       <use style="stroke:#000000;stroke-width:0.5;" x="448.04" xlink:href="#mc4eb678966" y="189.932661233"/>
      </g>
     </g>
     <g id="text_9">
      <!-- 100 -->
      <g transform="translate(12.96 193.243911233)scale(0.12 -0.12)">
       <use xlink:href="#BitstreamVeraSans-Roman-31"/>
       <use x="63.623046875" xlink:href="#BitstreamVeraSans-Roman-30"/>
       <use x="127.24609375" xlink:href="#BitstreamVeraSans-Roman-30"/>
      </g>
     </g>
    </g>
    <g id="ytick_4">
     <g id="line2d_19">
      <g>
       <use style="stroke:#000000;stroke-width:0.5;" x="39.865" xlink:href="#ma58b045d32" y="104.349768117"/>
      </g>
     </g>
     <g id="line2d_20">
      <g>
       <use style="stroke:#000000;stroke-width:0.5;" x="448.04" xlink:href="#mc4eb678966" y="104.349768117"/>
      </g>
     </g>
     <g id="text_10">
      <!-- 150 -->
      <g transform="translate(12.96 107.661018117)scale(0.12 -0.12)">
       <use xlink:href="#BitstreamVeraSans-Roman-31"/>
       <use x="63.623046875" xlink:href="#BitstreamVeraSans-Roman-35"/>
       <use x="127.24609375" xlink:href="#BitstreamVeraSans-Roman-30"/>
      </g>
     </g>
    </g>
    <g id="ytick_5">
     <g id="line2d_21">
      <g>
       <use style="stroke:#000000;stroke-width:0.5;" x="39.865" xlink:href="#ma58b045d32" y="18.766875"/>
      </g>
     </g>
     <g id="line2d_22">
      <g>
       <use style="stroke:#000000;stroke-width:0.5;" x="448.04" xlink:href="#mc4eb678966" y="18.766875"/>
      </g>
     </g>
     <g id="text_11">
      <!-- 200 -->
      <g transform="translate(12.96 22.078125)scale(0.12 -0.12)">
       <use xlink:href="#BitstreamVeraSans-Roman-32"/>
       <use x="63.623046875" xlink:href="#BitstreamVeraSans-Roman-30"/>
       <use x="127.24609375" xlink:href="#BitstreamVeraSans-Roman-30"/>
      </g>
     </g>
    </g>
   </g>
   <g id="legend_1">
    <g id="patch_7">
     <path d="M 47.065 72.559875 
L 154.7545 72.559875 
L 154.7545 25.966875 
L 47.065 25.966875 
z
" style="fill:#ffffff;stroke:#000000;stroke-linejoin:miter;"/>
    </g>
    <g id="line2d_23">
     <path d="M 57.145 37.628625 
L 77.305 37.628625 
" style="fill:none;stroke:#0000ff;stroke-linecap:square;"/>
    </g>
    <g id="line2d_24"/>
    <g id="text_12">
     <!-- price -->
     <defs>
      <path d="M 9.421875 54.6875 
L 18.40625 54.6875 
L 18.40625 0 
L 9.421875 0 
z
M 9.421875 75.984375 
L 18.40625 75.984375 
L 18.40625 64.59375 
L 9.421875 64.59375 
z
" id="BitstreamVeraSans-Roman-69"/>
      <path d="M 41.109375 46.296875 
Q 39.59375 47.171875 37.8125 47.578125 
Q 36.03125 48 33.890625 48 
Q 26.265625 48 22.1875 43.046875 
Q 18.109375 38.09375 18.109375 28.8125 
L 18.109375 0 
L 9.078125 0 
L 9.078125 54.6875 
L 18.109375 54.6875 
L 18.109375 46.1875 
Q 20.953125 51.171875 25.484375 53.578125 
Q 30.03125 56 36.53125 56 
Q 37.453125 56 38.578125 55.875 
Q 39.703125 55.765625 41.0625 55.515625 
z
" id="BitstreamVeraSans-Roman-72"/>
      <path d="M 18.109375 8.203125 
L 18.109375 -20.796875 
L 9.078125 -20.796875 
L 9.078125 54.6875 
L 18.109375 54.6875 
L 18.109375 46.390625 
Q 20.953125 51.265625 25.265625 53.625 
Q 29.59375 56 35.59375 56 
Q 45.5625 56 51.78125 48.09375 
Q 58.015625 40.1875 58.015625 27.296875 
Q 58.015625 14.40625 51.78125 6.484375 
Q 45.5625 -1.421875 35.59375 -1.421875 
Q 29.59375 -1.421875 25.265625 0.953125 
Q 20.953125 3.328125 18.109375 8.203125 
M 48.6875 27.296875 
Q 48.6875 37.203125 44.609375 42.84375 
Q 40.53125 48.484375 33.40625 48.484375 
Q 26.265625 48.484375 22.1875 42.84375 
Q 18.109375 37.203125 18.109375 27.296875 
Q 18.109375 17.390625 22.1875 11.75 
Q 26.265625 6.109375 33.40625 6.109375 
Q 40.53125 6.109375 44.609375 11.75 
Q 48.6875 17.390625 48.6875 27.296875 
" id="BitstreamVeraSans-Roman-70"/>
      <path d="M 48.78125 52.59375 
L 48.78125 44.1875 
Q 44.96875 46.296875 41.140625 47.34375 
Q 37.3125 48.390625 33.40625 48.390625 
Q 24.65625 48.390625 19.8125 42.84375 
Q 14.984375 37.3125 14.984375 27.296875 
Q 14.984375 17.28125 19.8125 11.734375 
Q 24.65625 6.203125 33.40625 6.203125 
Q 37.3125 6.203125 41.140625 7.25 
Q 44.96875 8.296875 48.78125 10.40625 
L 48.78125 2.09375 
Q 45.015625 0.34375 40.984375 -0.53125 
Q 36.96875 -1.421875 32.421875 -1.421875 
Q 20.0625 -1.421875 12.78125 6.34375 
Q 5.515625 14.109375 5.515625 27.296875 
Q 5.515625 40.671875 12.859375 48.328125 
Q 20.21875 56 33.015625 56 
Q 37.15625 56 41.109375 55.140625 
Q 45.0625 54.296875 48.78125 52.59375 
" id="BitstreamVeraSans-Roman-63"/>
     </defs>
     <g transform="translate(93.145 42.668625)scale(0.144 -0.144)">
      <use xlink:href="#BitstreamVeraSans-Roman-70"/>
      <use x="63.4765625" xlink:href="#BitstreamVeraSans-Roman-72"/>
      <use x="104.58984375" xlink:href="#BitstreamVeraSans-Roman-69"/>
      <use x="132.373046875" xlink:href="#BitstreamVeraSans-Roman-63"/>
      <use x="187.353515625" xlink:href="#BitstreamVeraSans-Roman-65"/>
     </g>
    </g>
    <g id="line2d_25">
     <path d="M 57.145 58.765125 
L 77.305 58.765125 
" style="fill:none;stroke:#008000;stroke-linecap:square;"/>
    </g>
    <g id="line2d_26"/>
    <g id="text_13">
     <!-- random -->
     <defs>
      <path d="M 30.609375 48.390625 
Q 23.390625 48.390625 19.1875 42.75 
Q 14.984375 37.109375 14.984375 27.296875 
Q 14.984375 17.484375 19.15625 11.84375 
Q 23.34375 6.203125 30.609375 6.203125 
Q 37.796875 6.203125 41.984375 11.859375 
Q 46.1875 17.53125 46.1875 27.296875 
Q 46.1875 37.015625 41.984375 42.703125 
Q 37.796875 48.390625 30.609375 48.390625 
M 30.609375 56 
Q 42.328125 56 49.015625 48.375 
Q 55.71875 40.765625 55.71875 27.296875 
Q 55.71875 13.875 49.015625 6.21875 
Q 42.328125 -1.421875 30.609375 -1.421875 
Q 18.84375 -1.421875 12.171875 6.21875 
Q 5.515625 13.875 5.515625 27.296875 
Q 5.515625 40.765625 12.171875 48.375 
Q 18.84375 56 30.609375 56 
" id="BitstreamVeraSans-Roman-6f"/>
      <path d="M 54.890625 33.015625 
L 54.890625 0 
L 45.90625 0 
L 45.90625 32.71875 
Q 45.90625 40.484375 42.875 44.328125 
Q 39.84375 48.1875 33.796875 48.1875 
Q 26.515625 48.1875 22.3125 43.546875 
Q 18.109375 38.921875 18.109375 30.90625 
L 18.109375 0 
L 9.078125 0 
L 9.078125 54.6875 
L 18.109375 54.6875 
L 18.109375 46.1875 
Q 21.34375 51.125 25.703125 53.5625 
Q 30.078125 56 35.796875 56 
Q 45.21875 56 50.046875 50.171875 
Q 54.890625 44.34375 54.890625 33.015625 
" id="BitstreamVeraSans-Roman-6e"/>
      <path d="M 52 44.1875 
Q 55.375 50.25 60.0625 53.125 
Q 64.75 56 71.09375 56 
Q 79.640625 56 84.28125 50.015625 
Q 88.921875 44.046875 88.921875 33.015625 
L 88.921875 0 
L 79.890625 0 
L 79.890625 32.71875 
Q 79.890625 40.578125 77.09375 44.375 
Q 74.3125 48.1875 68.609375 48.1875 
Q 61.625 48.1875 57.5625 43.546875 
Q 53.515625 38.921875 53.515625 30.90625 
L 53.515625 0 
L 44.484375 0 
L 44.484375 32.71875 
Q 44.484375 40.625 41.703125 44.40625 
Q 38.921875 48.1875 33.109375 48.1875 
Q 26.21875 48.1875 22.15625 43.53125 
Q 18.109375 38.875 18.109375 30.90625 
L 18.109375 0 
L 9.078125 0 
L 9.078125 54.6875 
L 18.109375 54.6875 
L 18.109375 46.1875 
Q 21.1875 51.21875 25.484375 53.609375 
Q 29.78125 56 35.6875 56 
Q 41.65625 56 45.828125 52.96875 
Q 50 49.953125 52 44.1875 
" id="BitstreamVeraSans-Roman-6d"/>
     </defs>
     <g transform="translate(93.145 63.805125)scale(0.144 -0.144)">
      <use xlink:href="#BitstreamVeraSans-Roman-72"/>
      <use x="41.11328125" xlink:href="#BitstreamVeraSans-Roman-61"/>
      <use x="102.392578125" xlink:href="#BitstreamVeraSans-Roman-6e"/>
      <use x="165.771484375" xlink:href="#BitstreamVeraSans-Roman-64"/>
      <use x="229.248046875" xlink:href="#BitstreamVeraSans-Roman-6f"/>
      <use x="290.4296875" xlink:href="#BitstreamVeraSans-Roman-6d"/>
     </g>
    </g>
   </g>
  </g>
 </g>
 <defs>
  <clipPath id="pf0544449c5">
   <rect height="342.331572467" width="408.175" x="39.865" y="18.766875"/>
  </clipPath>
 </defs>
</svg>
