<?xml version="1.0" encoding="utf-8" standalone="no"?>
<!DOCTYPE svg PUBLIC "-//W3C//DTD SVG 1.1//EN"
  "http://www.w3.org/Graphics/SVG/1.1/DTD/svg11.dtd">
<!-- Created with matplotlib (http://matplotlib.org/) -->
<svg height="420pt" version="1.1" viewBox="0 0 461 420" width="461pt" xmlns="http://www.w3.org/2000/svg" xmlns:xlink="http://www.w3.org/1999/xlink">
 <defs>
  <style type="text/css">
*{stroke-linecap:butt;stroke-linejoin:round;stroke-miterlimit:100000;}
  </style>
 </defs>
 <g id="figure_1">
  <g id="patch_1">
   <path d="M 0 420 
L 461 420 
L 461 0 
L 0 0 
z
" style="fill:#ffffff;"/>
  </g>
  <g id="axes_1">
   <g id="patch_2">
    <path d="M 47.5 361.098447 
L 448.04 361.098447 
L 448.04 18.766875 
L 47.5 18.766875 
z
" style="fill:#ffffff;"/>
   </g>
   <g id="line2d_1">
    <path clip-path="url(#pa6439969f4)" d="M 98.900658 304.26698 
L 99.345044 303.69506 
L 99.641302 302.650684 
L 99.78943 303.197738 
L 100.381945 302.824747 
L 100.530074 302.526353 
L 100.678203 302.600952 
L 100.97446 303.57073 
L 101.715104 299.517556 
L 101.863232 299.592154 
L 102.455747 296.508758 
L 102.603876 296.782285 
L 103.048262 294.370273 
L 103.788905 297.776929 
L 104.085163 302.10363 
L 104.825806 296.011436 
L 104.973935 296.235231 
L 105.122064 298.771573 
L 105.56645 297.627732 
L 105.714578 295.588712 
L 106.010836 296.160632 
L 106.158964 295.066524 
L 106.603351 293.151834 
L 106.899608 290.913886 
L 107.047737 292.206923 
L 107.195865 291.386341 
L 107.78838 290.317099 
L 107.936509 289.148393 
L 108.232766 293.62429 
L 108.825281 297.876393 
L 108.97341 296.434159 
L 109.121538 296.359561 
L 109.269667 294.469738 
L 109.714053 292.679379 
L 109.862182 294.07188 
L 110.010311 293.077236 
L 110.158439 290.416564 
L 110.306568 290.267367 
L 110.750954 291.90853 
L 110.899083 291.784199 
L 111.047212 292.952906 
L 111.19534 295.016792 
L 111.343469 293.126968 
L 111.787855 292.555048 
L 111.935984 295.439515 
L 112.084112 300.934923 
L 112.232241 299.268895 
L 112.38037 300.686262 
L 112.972885 296.956347 
L 113.121013 297.652598 
L 113.417271 293.276165 
L 113.861657 293.674022 
L 114.009786 293.475094 
L 114.157914 294.320541 
L 114.306043 294.345407 
L 114.454172 295.762775 
L 114.898558 296.956347 
L 115.194815 298.075322 
L 115.342944 298.050456 
L 115.491072 299.119698 
L 115.935459 300.63653 
L 116.083587 300.06461 
L 116.231716 298.746706 
L 116.527973 301.830103 
L 116.972359 300.263538 
L 117.416746 293.574558 
L 118.00926 292.753977 
L 118.157389 293.674022 
L 118.305518 293.773487 
L 118.453646 294.96706 
L 118.601775 293.773487 
L 119.046161 295.141122 
L 119.342419 293.972416 
L 119.490547 294.96706 
L 119.638676 295.016792 
L 120.083062 294.668666 
L 120.231191 294.022148 
L 120.527448 295.041658 
L 120.675577 297.205008 
L 121.119963 299.766217 
L 121.564349 297.180142 
L 121.712478 299.069966 
L 122.156864 299.368359 
L 122.304993 300.139208 
L 122.453121 298.522912 
L 122.60125 299.144564 
L 123.341893 294.594068 
L 123.490022 295.414649 
L 123.638151 295.215721 
L 123.78628 296.160632 
L 124.230666 298.075322 
L 124.378794 300.213806 
L 124.526923 300.139208 
L 124.675052 300.387869 
L 124.82318 302.377157 
L 125.267567 302.128496 
L 125.415695 300.06461 
L 125.711953 302.650684 
L 125.860081 304.391311 
L 126.304467 306.131938 
L 126.452596 302.600952 
L 126.600725 303.545863 
L 126.748854 300.487333 
L 126.896982 302.22796 
L 127.489497 299.069966 
L 127.637626 299.492689 
L 127.785754 298.920769 
L 127.933883 296.210364 
L 128.674527 293.201567 
L 128.970784 290.366831 
L 129.41517 292.405851 
L 129.563299 292.48045 
L 129.711428 290.963618 
L 129.859556 291.063082 
L 130.007685 288.52674 
L 130.6002 284.274637 
L 130.748328 280.718785 
L 130.896457 280.569589 
L 131.044586 278.431104 
L 131.488972 276.591013 
L 131.637101 274.850386 
L 131.785229 278.704631 
L 132.081487 279.450614 
L 132.525873 277.212666 
L 132.674001 280.24633 
L 132.82213 278.704631 
L 132.970259 284.100575 
L 133.118388 285.443344 
L 133.562774 292.679379 
L 133.710902 285.294147 
L 133.859031 288.949464 
L 134.155288 284.224905 
L 134.599675 281.96209 
L 134.747803 283.006466 
L 134.895932 283.006466 
L 135.192189 291.684735 
L 135.636575 291.535538 
L 135.784704 285.443344 
L 135.932833 284.523298 
L 136.080962 285.393612 
L 136.22909 281.887492 
L 136.673476 279.624677 
L 136.821605 279.624677 
L 137.265991 285.269281 
L 137.858506 283.255127 
L 138.006635 281.763161 
L 138.154763 281.688563 
L 138.302892 284.050843 
L 138.747278 283.180529 
L 139.784179 271.941053 
L 139.932308 271.294534 
L 140.080436 271.742124 
L 140.228565 275.422306 
L 140.376694 274.527127 
L 140.82108 274.924985 
L 141.265466 279.400882 
L 141.413595 282.708073 
L 142.006109 285.841202 
L 142.154238 283.777315 
L 142.302367 284.100575 
L 142.450496 286.786113 
L 142.894882 280.047401 
L 143.04301 275.969361 
L 143.191139 275.27311 
L 143.339268 273.060027 
L 143.487396 268.236004 
L 143.931783 268.957121 
L 144.079911 268.161406 
L 144.22804 276.541281 
L 144.524297 278.605167 
L 144.968683 274.004939 
L 145.116812 276.86454 
L 145.561198 274.303332 
L 146.005584 274.353064 
L 146.153713 277.31213 
L 146.301842 276.988871 
L 146.44997 274.974717 
L 146.598099 275.969361 
L 147.042485 276.168289 
L 147.190614 273.855742 
L 147.486871 281.315572 
L 147.635 281.514501 
L 148.079386 283.42919 
L 148.227515 280.022535 
L 148.375643 281.464768 
L 148.671901 284.970888 
L 149.116287 287.05964 
L 149.264416 284.398968 
L 149.412544 287.780757 
L 149.708802 288.999196 
L 150.153188 284.548164 
L 150.301317 285.592541 
L 150.597574 280.345794 
L 150.745703 279.724141 
L 151.190089 278.555435 
L 151.486346 279.947936 
L 151.634475 279.376016 
L 151.782604 278.33164 
L 152.22699 278.953292 
L 152.375118 280.047401 
L 152.523247 283.105931 
L 152.671376 283.553521 
L 152.819504 282.807538 
L 153.263891 282.384814 
L 153.412019 277.511059 
L 153.560148 277.31213 
L 153.708277 276.566147 
L 153.856405 274.875252 
L 154.44892 273.731412 
L 154.597049 275.123913 
L 154.745178 274.2536 
L 154.893306 274.278466 
L 155.63395 271.294534 
L 155.930207 268.111674 
L 156.374593 268.335469 
L 156.522722 267.81328 
L 156.818979 268.459799 
L 156.967108 269.031719 
L 157.559623 267.291092 
L 157.707751 265.724528 
L 157.85588 266.196984 
L 158.004009 268.857657 
L 158.448395 266.321315 
L 158.596524 268.807924 
L 158.744652 259.483138 
L 158.892781 260.204254 
L 159.04091 259.259343 
L 159.485296 257.220323 
L 159.633425 256.001884 
L 159.781553 256.101348 
L 159.929682 256.47434 
L 160.077811 254.858043 
L 160.522197 253.341211 
L 160.818454 248.815582 
L 160.966583 242.972048 
L 161.114712 242.872584 
L 161.559098 239.615125 
L 161.707226 237.178248 
L 161.855355 241.355752 
L 162.003484 239.764322 
L 162.151612 239.789188 
L 162.744127 235.263558 
L 162.892256 235.910077 
L 163.040385 234.716504 
L 163.188513 232.578019 
L 163.632899 231.384447 
L 163.929157 225.466315 
L 164.225414 224.496538 
L 164.817929 229.793016 
L 164.966058 229.64382 
L 165.262315 224.496538 
L 165.706701 222.05966 
L 166.002959 208.706565 
L 166.151087 210.148799 
L 166.299216 210.148799 
L 166.891731 202.887898 
L 167.336117 206.418884 
L 167.780503 202.539773 
L 168.07676 198.760126 
L 168.373018 205.175579 
L 168.965533 194.607488 
L 169.113661 196.372981 
L 169.26179 193.040923 
L 169.854305 192.145744 
L 170.150562 195.701596 
L 170.298691 196.920035 
L 170.44682 203.161425 
L 170.891206 212.063489 
L 171.039334 201.569995 
L 171.187463 202.042451 
L 171.48372 214.624697 
L 171.928107 215.072286 
L 172.076235 219.12546 
L 172.224364 201.470531 
L 172.372493 202.291112 
L 172.520621 203.957141 
L 173.113136 211.367238 
L 173.261265 209.999602 
L 173.409393 211.466702 
L 173.557522 217.359967 
L 174.001908 215.868002 
L 174.150037 216.315591 
L 174.446294 215.49501 
L 174.594423 216.837779 
L 175.038809 219.846577 
L 175.335067 224.173278 
L 175.483195 229.842749 
L 175.631324 229.743284 
L 176.07571 218.777335 
L 176.223839 220.294167 
L 176.371967 215.470144 
L 176.668225 218.404344 
L 177.26074 214.873358 
L 177.408868 212.411614 
L 177.556997 212.933802 
L 177.705126 218.876799 
L 178.149512 217.708093 
L 178.297641 218.230281 
L 178.445769 215.146885 
L 178.593898 215.072286 
L 178.742027 212.013756 
L 179.186413 215.246349 
L 179.334541 213.480856 
L 179.48267 214.898224 
L 179.630799 215.122019 
L 179.778928 214.201973 
L 180.371442 209.477414 
L 180.519571 210.074201 
L 180.6677 212.958668 
L 180.815828 211.367238 
L 181.260214 215.395546 
L 181.408343 214.947956 
L 181.556472 214.077642 
L 181.704601 216.017198 
L 181.852729 210.695853 
L 182.297115 207.662189 
L 182.741501 201.495397 
L 182.88963 202.937631 
L 183.334016 200.078029 
L 183.778402 205.399374 
L 183.926531 203.26089 
L 184.370917 202.564639 
L 184.519046 202.539773 
L 184.667175 202.788434 
L 184.815303 199.928833 
L 184.963432 203.484685 
L 185.407818 203.658747 
L 185.555947 204.678257 
L 185.704075 213.90358 
L 185.852204 213.928446 
L 186.000333 210.297996 
L 186.444719 206.791876 
L 186.592848 201.197004 
L 186.740976 202.589505 
L 186.889105 202.24138 
L 187.037234 199.431511 
L 187.48162 196.994633 
L 187.777877 197.964411 
L 188.074135 197.317892 
L 188.666649 193.76204 
L 188.814778 194.060434 
L 188.962907 192.096012 
L 189.111036 187.918507 
L 189.555422 181.876045 
L 189.70355 185.108638 
L 189.851679 180.558142 
L 189.999808 182.771225 
L 190.147936 182.54743 
L 190.592322 178.121265 
L 190.88858 178.91698 
L 191.036709 182.323635 
L 191.184837 181.851179 
L 191.777352 178.394792 
L 191.925481 180.06082 
L 192.221738 176.43037 
L 192.814253 183.492342 
L 193.258639 172.600991 
L 193.851154 168.821344 
L 193.999283 168.746746 
L 194.147411 169.965184 
L 194.29554 169.467863 
L 194.739926 172.775054 
L 195.036183 181.851179 
L 195.184312 176.131977 
L 195.332441 181.179795 
L 195.776827 183.915065 
L 195.924956 183.243681 
L 196.073084 179.638097 
L 196.221213 181.279259 
L 196.369342 186.327077 
L 196.961857 192.270074 
L 197.109985 190.479715 
L 197.258114 195.10481 
L 197.850629 192.667932 
L 197.998757 187.321721 
L 198.146886 189.161812 
L 198.295015 193.413915 
L 198.443143 201.520263 
L 198.88753 192.916593 
L 199.035658 200.276958 
L 199.183787 199.033653 
L 199.480044 203.584149 
L 200.220688 206.667545 
L 200.368817 206.244822 
L 200.516945 213.257061 
L 200.961331 210.472058 
L 201.10946 211.118577 
L 201.405717 227.132344 
L 201.553846 223.825153 
L 201.998232 225.317119 
L 202.146361 225.292253 
L 202.29449 227.430737 
L 202.442618 231.434179 
L 202.590747 230.713062 
L 203.035133 217.185905 
L 203.183262 218.901666 
L 203.331391 218.628138 
L 204.072034 208.731431 
L 204.368291 211.068845 
L 204.51642 208.80603 
L 204.664549 210.248263 
L 205.108935 209.925004 
L 205.257064 213.605187 
L 205.405192 226.759353 
L 205.553321 223.750555 
L 205.70145 228.723774 
L 206.145836 229.942213 
L 206.293964 225.839307 
L 206.442093 226.684754 
L 206.590222 229.991945 
L 206.738351 237.053917 
L 207.182737 233.84619 
L 207.330865 228.499979 
L 207.627123 232.82668 
L 207.775251 233.672128 
L 208.219638 233.373735 
L 208.515895 235.910077 
L 208.664024 235.18896 
L 208.812152 237.128515 
L 209.552796 223.128902 
L 209.700925 225.590646 
L 209.849053 230.936857 
L 210.293439 232.155296 
L 210.441568 231.558509 
L 210.589697 234.467843 
L 210.737825 232.180162 
L 210.885954 233.324002 
L 211.33034 239.913518 
L 211.478469 245.533257 
L 211.626598 238.37182 
L 211.922855 240.535171 
L 212.51537 238.844276 
L 212.663499 235.561951 
L 212.811627 258.115502 
L 212.959756 261.895149 
L 213.404142 258.364163 
L 213.552271 255.355365 
L 213.996657 257.021394 
L 214.441043 261.024836 
L 214.589172 255.504562 
L 214.7373 255.678625 
L 215.033558 249.437234 
L 215.477944 247.671741 
L 215.626072 251.94871 
L 215.92233 252.3963 
L 216.070459 254.683981 
L 216.662973 254.758579 
L 216.959231 259.706932 
L 217.107359 258.016038 
L 217.551746 260.850773 
L 217.699874 258.662556 
L 217.996132 261.348095 
L 218.14426 265.227206 
L 218.588646 268.932255 
L 218.736775 265.003411 
L 218.884904 266.942967 
L 219.033033 265.20234 
L 219.181161 264.804483 
L 219.625547 262.616266 
L 219.773676 265.973189 
L 219.921805 265.998055 
L 220.069933 264.506089 
L 220.218062 260.55238 
L 220.662448 256.275411 
L 220.810577 256.698135 
L 220.958706 257.568448 
L 221.106834 257.319787 
L 221.254963 254.062328 
L 221.699349 253.465542 
L 221.847478 254.335855 
L 222.143735 260.900505 
L 222.73625 265.799127 
L 222.884379 265.475867 
L 223.032507 264.705018 
L 223.328765 267.81328 
L 223.92128 266.470511 
L 224.069408 263.387115 
L 224.217537 263.859571 
L 224.365666 265.475867 
L 224.810052 269.006853 
L 224.95818 266.744038 
L 225.254438 278.878694 
L 225.402567 279.425748 
L 225.846953 276.541281 
L 225.995081 273.880608 
L 226.14321 274.129269 
L 226.291339 273.084893 
L 226.439467 269.951765 
L 226.883854 265.351537 
L 227.031982 260.875639 
L 227.180111 262.094078 
L 227.476368 258.314431 
L 227.920754 254.485052 
L 228.068883 255.231035 
L 228.217012 253.390944 
L 228.513269 257.245189 
L 228.957655 256.623536 
L 229.253913 265.823993 
L 229.402041 263.784973 
L 229.55017 264.257428 
L 229.994556 260.801041 
L 230.142685 261.969747 
L 230.587071 260.030192 
L 231.179586 261.348095 
L 231.327714 260.10479 
L 231.475843 257.742511 
L 231.623972 258.389029 
L 232.068358 258.040904 
L 232.216487 258.538226 
L 232.512744 262.392471 
L 232.660873 261.198898 
L 233.253388 262.71573 
L 233.401516 264.63042 
L 233.549645 263.287651 
L 233.697774 265.376403 
L 234.14216 264.705018 
L 234.290288 264.779616 
L 234.586546 270.076095 
L 235.179061 275.148779 
L 235.327189 275.123913 
L 235.623447 278.281908 
L 235.771575 277.287264 
L 236.215962 272.7865 
L 236.512219 268.683594 
L 236.808476 269.877167 
L 237.252862 270.722614 
L 237.400991 268.111674 
L 237.54912 268.70846 
L 237.697249 266.371047 
L 237.845377 266.644574 
L 238.289763 266.321315 
L 238.437892 265.326671 
L 238.586021 265.301805 
L 238.734149 264.779616 
L 238.882278 267.191628 
L 239.326664 266.719172 
L 239.474793 269.305246 
L 239.622922 261.671354 
L 239.77105 262.392471 
L 240.363565 259.08528 
L 240.511694 257.120858 
L 240.659822 257.394385 
L 240.95608 253.838533 
L 241.400466 251.401656 
L 241.548595 252.893622 
L 241.696723 252.96822 
L 241.992981 256.723001 
L 242.437367 252.122773 
L 242.733624 241.082225 
L 242.881753 241.281154 
L 243.029882 239.71459 
L 243.474268 237.7999 
L 243.622396 240.162179 
L 243.918654 239.490795 
L 244.066783 240.187045 
L 244.511169 239.490795 
L 244.659297 244.588345 
L 244.955555 243.494237 
L 245.103683 245.085667 
L 245.696198 244.588345 
L 245.844327 241.007627 
L 245.992456 242.226066 
L 246.58497 238.346954 
L 246.733099 242.44986 
L 246.881228 251.998442 
L 247.029357 250.232949 
L 247.177485 253.017952 
L 247.621871 258.264699 
L 247.77 256.399741 
L 248.066257 250.382146 
L 248.214386 252.122773 
L 248.658772 243.867228 
L 248.806901 244.414282 
L 248.95503 247.099821 
L 249.103158 245.433792 
L 249.251287 246.677097 
L 249.695673 248.790715 
L 249.843802 244.81214 
L 249.99193 244.240219 
L 250.140059 246.428436 
L 250.288188 246.577633 
L 250.732574 244.886738 
L 250.880703 247.29875 
L 251.17696 244.215353 
L 251.325089 243.096379 
L 251.769475 241.952538 
L 252.213861 238.943741 
L 252.806376 232.951011 
L 252.954504 233.473199 
L 253.250762 229.19623 
L 253.398891 231.309848 
L 253.843277 229.917347 
L 253.991405 234.61704 
L 254.139534 231.707706 
L 254.435791 233.423467 
L 254.880178 231.036321 
L 255.028306 231.508777 
L 255.176435 233.100208 
L 255.324564 236.109005 
L 255.472692 233.224538 
L 255.917078 233.771592 
L 256.213336 233.199672 
L 256.361464 230.538999 
L 256.509593 231.657974 
L 256.953979 233.920789 
L 257.102108 233.597529 
L 257.250237 235.213826 
L 257.398365 233.025609 
L 257.546494 233.498065 
L 257.99088 232.105564 
L 258.583395 220.617426 
L 259.027781 222.333187 
L 259.17591 216.986976 
L 259.324038 217.459432 
L 259.472167 216.415056 
L 259.620296 219.224925 
L 260.064682 216.937244 
L 260.212811 217.260503 
L 260.360939 218.752469 
L 260.509068 219.025996 
L 260.657197 221.214213 
L 261.101583 220.120104 
L 261.39784 222.50725 
L 261.545969 224.745199 
L 261.694098 223.128902 
L 262.138484 215.644207 
L 263.175385 221.16448 
L 263.323513 218.851933 
L 263.619771 221.661802 
L 263.767899 225.988503 
L 264.212286 224.944127 
L 264.360414 226.311763 
L 264.508543 225.093324 
L 264.8048 228.848105 
L 265.249186 227.853461 
L 265.545444 220.169837 
L 265.693572 221.263945 
L 265.841701 226.087968 
L 266.582345 222.233723 
L 266.730473 220.59256 
L 266.878602 224.173278 
L 267.322988 222.606714 
L 267.471117 238.222624 
L 267.619246 240.261644 
L 267.767374 240.609769 
L 267.915503 240.336242 
L 268.359889 239.988117 
L 268.656146 236.059273 
L 268.804275 236.084139 
L 268.952404 233.547797 
L 269.39679 230.240606 
L 269.544919 227.753996 
L 269.693047 227.778863 
L 269.841176 224.745199 
L 269.989305 224.919261 
L 270.58182 224.198144 
L 271.026206 231.558509 
L 271.470592 230.762794 
L 271.766849 234.368379 
L 271.914978 230.713062 
L 272.063107 231.210384 
L 272.507493 230.688196 
L 272.80375 229.047034 
L 272.951879 229.618954 
L 273.100007 229.718418 
L 273.544393 229.544355 
L 273.692522 227.72913 
L 273.840651 227.530202 
L 274.136908 231.757438 
L 274.581294 231.036321 
L 274.729423 229.395159 
L 274.877552 229.444891 
L 275.02568 230.340071 
L 275.173809 228.872971 
L 275.618195 226.610156 
L 275.766324 224.54627 
L 276.062581 227.231808 
L 276.21071 227.455603 
L 276.655096 227.480469 
L 276.803225 225.739842 
L 276.951354 225.416583 
L 277.099482 226.759353 
L 277.247611 229.245962 
L 277.691997 232.205028 
L 277.840126 232.205028 
L 277.988254 229.76815 
L 278.284512 233.572663 
L 278.728898 232.82668 
L 278.877027 234.16945 
L 279.025155 233.796458 
L 279.173284 231.68284 
L 279.913928 229.270828 
L 280.062056 231.757438 
L 280.210185 216.464788 
L 280.358314 214.972822 
L 280.8027 207.115135 
L 281.098957 208.532503 
L 281.395214 207.662189 
L 281.839601 204.678257 
L 282.135858 207.736787 
L 282.432115 210.148799 
L 283.02463 207.239466 
L 283.172759 207.189733 
L 283.320888 208.980092 
L 283.469016 205.896696 
L 283.913402 203.38522 
L 284.061531 203.335488 
L 284.357788 202.440309 
L 284.505917 200.003431 
L 285.098432 195.900525 
L 285.246561 196.497311 
L 285.394689 192.444137 
L 285.542818 193.289584 
L 285.987204 194.831283 
L 286.283462 189.087214 
L 286.43159 188.192034 
L 286.579719 188.838553 
L 287.172234 183.790735 
L 287.320362 184.760513 
L 287.61662 191.175966 
L 288.061006 188.888285 
L 288.209135 189.186678 
L 288.357263 188.938017 
L 288.505392 189.733732 
L 288.653521 192.096012 
L 289.097907 192.294941 
L 289.246036 193.662576 
L 289.394164 193.463647 
L 289.542293 192.120878 
L 289.690422 189.435339 
L 290.134808 187.07306 
L 290.282936 185.60596 
L 290.431065 185.705425 
L 291.171709 179.513766 
L 291.319837 181.055464 
L 291.467966 180.956 
L 291.616095 181.826313 
L 291.764223 181.378723 
L 292.208609 178.320193 
L 292.652996 186.675202 
L 292.801124 183.343145 
L 293.24551 184.561584 
L 293.393639 182.622028 
L 293.541768 176.480102 
L 293.689896 176.87796 
L 293.838025 175.286529 
L 294.282411 171.929606 
L 294.578669 174.092957 
L 294.726797 180.433812 
L 294.874926 179.115909 
L 295.319312 180.458678 
L 295.763698 183.218815 
L 295.911827 182.572296 
L 296.356213 179.464034 
L 296.504342 179.513766 
L 296.65247 176.355772 
L 296.800599 175.709253 
L 297.393114 171.581481 
L 297.541243 168.174825 
L 297.8375 168.050495 
L 297.985629 166.210404 
L 298.430015 165.663349 
L 298.578143 167.279646 
L 298.726272 164.19625 
L 298.874401 163.897857 
L 299.02253 163.276204 
L 299.615044 161.286916 
L 299.763173 172.128535 
L 299.911302 174.167555 
L 300.05943 172.053937 
L 300.503817 173.570769 
L 300.651945 174.490814 
L 300.800074 167.006119 
L 301.096331 165.364956 
L 301.540717 165.439555 
L 301.688846 167.354244 
L 301.985104 165.041697 
L 302.133232 167.105583 
L 302.577618 166.856922 
L 302.725747 162.928079 
L 302.873876 165.141161 
L 303.022004 174.789207 
L 303.170133 167.627771 
L 303.614519 169.219202 
L 303.762648 167.627771 
L 303.910777 171.531749 
L 304.058905 169.74139 
L 304.207034 170.43764 
L 304.65142 170.43764 
L 304.799549 172.600991 
L 304.947678 167.503441 
L 305.095806 166.956387 
L 305.688321 169.965184 
L 306.132707 178.792649 
L 306.280836 175.286529 
L 306.725222 170.089515 
L 306.873351 163.350802 
L 307.021479 162.057765 
L 307.169608 157.482403 
L 307.317737 156.512625 
L 307.762123 156.786152 
L 308.05838 151.241013 
L 308.206509 152.136192 
L 308.354638 149.59985 
L 308.799024 146.118596 
L 308.947152 148.107884 
L 309.095281 147.461366 
L 309.24341 147.859223 
L 309.391538 147.088374 
L 309.835925 147.535964 
L 309.984053 145.372613 
L 310.428439 134.232602 
L 310.872825 134.705057 
L 311.020954 131.024875 
L 311.169083 133.014163 
L 311.317212 128.936123 
L 311.46534 128.538265 
L 311.909726 123.192054 
L 312.057855 125.728396 
L 312.205984 122.247142 
L 312.502241 122.421205 
L 313.094756 133.113627 
L 313.242885 129.881034 
L 313.539142 132.193581 
L 313.983528 138.658767 
L 314.131657 134.381798 
L 314.279786 139.777741 
L 314.427914 140.598323 
L 314.576043 145.298015 
L 315.020429 149.052796 
L 315.168558 152.732978 
L 315.464815 138.037115 
L 315.612944 140.200465 
L 316.05733 137.315998 
L 316.353587 139.628545 
L 316.649845 134.705057 
L 317.094231 134.903986 
L 317.686746 146.292659 
L 318.131132 153.951417 
L 318.27926 153.926551 
L 318.427389 150.221503 
L 318.575518 139.926938 
L 318.723646 139.628545 
L 319.168033 146.491588 
L 319.316161 144.079576 
L 319.46429 145.123952 
L 319.760547 154.597936 
L 320.501191 145.745605 
L 320.64932 138.658767 
L 320.797448 137.216533 
L 321.241834 136.91814 
L 321.389963 146.765115 
L 321.68622 122.495803 
L 321.834349 126.822504 
L 322.278735 123.167188 
L 322.426864 123.117456 
L 322.723121 119.909729 
L 322.87125 122.421205 
L 323.315636 120.456783 
L 323.760022 103.697033 
L 323.908151 102.155335 
L 324.500666 100.290378 
L 324.648794 98.077295 
L 324.796923 98.74868 
L 325.389438 87.434605 
L 325.537567 89.498491 
L 325.685695 97.903232 
L 325.833824 93.850058 
L 325.981953 98.723813 
L 326.574467 96.485865 
L 326.722596 98.524885 
L 326.870725 103.821364 
L 327.46324 102.006138 
L 327.759497 114.190526 
L 327.907626 108.695119 
L 328.055754 110.833603 
L 328.500141 107.451814 
L 328.796398 98.698947 
L 329.092655 105.089535 
L 329.537041 101.832076 
L 329.68517 103.125113 
L 329.833299 111.355791 
L 329.981428 109.217307 
L 330.129556 111.679051 
L 330.573942 103.920828 
L 330.722071 108.744851 
L 330.8702 109.192441 
L 331.018328 106.531768 
L 331.610843 101.48395 
L 331.907101 105.835517 
L 332.203358 102.105603 
L 332.647744 102.727255 
L 332.795873 104.094891 
L 332.944001 102.901318 
L 333.09213 104.41815 
L 333.240259 107.949136 
L 333.684645 100.862298 
L 333.832774 102.578059 
L 334.129031 95.715016 
L 334.27716 94.198184 
L 334.721546 88.304918 
L 335.165932 106.954492 
L 335.314061 97.505375 
L 335.758447 98.127027 
L 336.054704 107.302617 
L 336.202833 106.680965 
L 336.350962 100.812566 
L 336.943476 105.188999 
L 337.091605 104.816007 
L 337.239734 97.505375 
L 337.387862 97.952964 
L 337.832249 94.421978 
L 337.980377 94.720372 
L 338.128506 94.745238 
L 338.424763 88.578445 
L 339.017278 95.839346 
L 339.165407 89.82175 
L 339.313536 90.468269 
L 339.461664 94.198184 
L 339.90605 93.551665 
L 340.054179 94.993899 
L 340.202308 94.596041 
L 340.498565 98.251358 
L 341.09108 101.309888 
L 341.239209 97.679437 
L 341.387337 98.400554 
L 341.535466 101.93154 
L 341.979852 102.553193 
L 342.127981 100.862298 
L 342.276109 101.608281 
L 342.424238 100.166047 
L 342.572367 103.348908 
L 343.016753 100.837432 
L 343.164882 102.279665 
L 343.31301 99.594127 
L 343.609268 102.975916 
L 344.053654 108.49619 
L 344.349911 103.348908 
L 344.49804 103.746765 
L 345.090555 104.840874 
L 345.238683 105.611723 
L 345.534941 119.58647 
L 345.68307 111.604452 
L 346.127456 105.686321 
L 346.275584 105.810651 
L 347.164357 89.747152 
L 347.312485 93.029477 
L 347.460614 106.780429 
L 347.608743 106.929626 
L 348.201257 112.872623 
L 348.349386 111.355791 
L 348.645643 113.867267 
L 349.238158 123.639644 
L 349.386287 133.088761 
L 349.534416 131.198938 
L 349.682544 131.870322 
L 349.830673 130.900544 
L 350.275059 120.456783 
L 350.423188 135.948362 
L 350.571317 131.596795 
L 350.719445 131.82059 
L 350.867574 129.806436 
L 351.31196 126.822504 
L 351.460089 128.463667 
L 351.756346 138.037115 
L 351.904475 155.169856 
L 352.348861 161.734506 
L 352.49699 160.192808 
L 352.793247 137.36573 
L 352.941376 136.445684 
L 353.385762 137.763587 
L 353.533891 150.296101 
L 353.682019 138.807964 
L 353.978277 146.441856 
L 354.570791 138.882562 
L 354.71892 144.253639 
L 355.015178 134.158003 
L 355.459564 131.422732 
L 355.607692 129.010721 
L 355.755821 128.687462 
L 355.90395 134.87912 
L 356.052078 136.047827 
L 356.496464 131.671393 
L 356.644593 136.172157 
L 356.940851 132.193581 
L 357.088979 132.914698 
L 357.533365 138.559303 
L 357.681494 146.964044 
L 357.829623 143.880648 
L 357.977751 145.671007 
L 358.12588 143.681719 
L 358.570266 142.687075 
L 358.718395 141.369172 
L 358.866524 142.687075 
L 359.014652 145.869935 
L 359.162781 139.355018 
L 359.607167 140.648055 
L 359.755296 140.175599 
L 359.903425 144.104442 
L 360.051553 140.001536 
L 360.199682 142.040556 
L 360.644068 140.324796 
L 360.792197 135.252112 
L 360.940325 135.276978 
L 361.088454 130.950277 
L 361.236583 122.048213 
L 361.829098 133.312556 
L 362.125355 118.442629 
L 362.273484 121.003837 
L 362.71787 116.826333 
L 362.865999 113.369945 
L 363.014127 114.787313 
L 363.162256 117.472851 
L 363.310385 117.124726 
L 363.754771 118.343165 
L 363.902899 127.792282 
L 364.199157 130.403222 
L 364.347286 138.807964 
L 364.791672 134.232602 
L 364.9398 135.45104 
L 365.236058 122.794196 
L 365.384186 121.501159 
L 365.828572 125.355404 
L 365.976701 122.545535 
L 366.12483 124.659154 
L 366.421087 125.206208 
L 366.865473 123.987769 
L 367.309859 131.696259 
L 367.457988 122.172544 
L 367.902374 124.037501 
L 368.050503 124.161832 
L 368.198632 130.651883 
L 368.34676 129.284248 
L 368.494889 136.719211 
L 368.939275 138.459838 
L 369.087404 143.408192 
L 369.235533 141.294573 
L 369.53179 154.498471 
L 369.976176 151.265879 
L 370.124305 151.51454 
L 370.272433 148.083018 
L 370.420562 149.525252 
L 371.013077 152.53405 
L 371.161206 147.759759 
L 371.457463 156.413161 
L 372.049978 156.189366 
L 372.494364 178.320193 
L 373.086879 173.148045 
L 373.235007 169.592193 
L 373.383136 175.98278 
L 373.531265 170.686301 
L 373.679393 176.629299 
L 374.271908 177.798005 
L 374.420037 177.474746 
L 374.568166 178.693185 
L 374.716294 165.961743 
L 375.16068 170.88523 
L 375.308809 169.517595 
L 375.456938 185.854621 
L 375.605067 184.188593 
L 375.753195 176.107111 
L 376.197581 178.369926 
L 376.34571 183.218815 
L 376.493839 178.568854 
L 376.641967 177.947202 
L 376.790096 184.362655 
L 377.234482 181.900912 
L 377.382611 181.950644 
L 377.678868 185.15837 
L 377.826997 184.437254 
L 378.419512 177.847738 
L 378.567641 174.167555 
L 378.715769 178.792649 
L 378.863898 179.339703 
L 379.308284 177.250951 
L 379.456413 182.696627 
L 379.75267 177.549344 
L 379.900799 177.176353 
L 380.345185 177.723407 
L 380.493314 168.174825 
L 380.641442 167.627771 
L 380.789571 165.762814 
L 380.9377 162.008033 
L 381.382086 164.842768 
L 381.530214 166.93152 
L 381.826472 166.583395 
L 381.974601 163.87299 
L 382.418987 163.226472 
L 382.715244 154.647668 
L 382.863373 155.070392 
L 383.011501 154.771999 
L 383.455888 154.796865 
L 383.604016 152.782711 
L 383.900274 155.393651 
L 384.492788 156.587224 
L 384.789046 145.720739 
L 384.937175 147.138106 
L 385.085303 144.651497 
L 385.529689 141.841628 
L 385.677818 145.099086 
L 385.825947 142.239485 
L 385.974075 148.257081 
L 386.56659 147.063508 
L 386.862848 139.553946 
L 387.010976 139.40475 
L 387.159105 144.999622 
L 387.75162 152.310255 
L 387.899749 151.763201 
L 388.196006 155.368785 
L 388.640392 156.860751 
L 388.788521 158.675976 
L 389.084778 182.348501 
L 389.232907 185.058906 
L 389.677293 185.307567 
L 389.825422 181.478188 
L 390.269808 187.595248 
L 390.714194 187.421185 
L 390.862322 185.854621 
L 391.010451 188.117436 
L 391.15858 193.513379 
L 391.306709 193.06579 
L 391.751095 184.710781 
L 391.899223 185.680558 
L 392.047352 183.019886 
L 392.195481 183.915065 
L 392.343609 181.378723 
L 392.787996 178.369926 
L 393.232382 168.473219 
L 393.38051 168.622415 
L 393.973025 169.840854 
L 394.269283 175.162199 
L 394.861797 172.899384 
L 395.009926 171.90474 
L 395.158055 172.128535 
L 395.306183 170.363042 
L 395.454312 172.402062 
L 395.898698 176.107111 
L 396.046827 175.808718 
L 396.194956 176.604433 
L 396.343084 175.584923 
L 396.491213 181.105196 
L 396.935599 181.677117 
L 397.083728 179.662963 
L 397.231857 180.558142 
L 397.379985 179.190507 
L 397.528114 185.904353 
L 397.9725 189.286143 
L 398.416886 180.433812 
L 398.565015 179.712695 
L 399.15753 181.950644 
L 399.601916 177.748273 
L 400.046302 177.00229 
L 400.19443 175.908182 
L 400.342559 177.275817 
L 400.490688 172.501526 
L 400.638817 172.526393 
L 401.083203 169.915452 
L 401.37946 169.592193 
L 402.268232 177.773139 
L 402.416361 162.15723 
L 402.56449 158.700842 
L 402.712618 159.024101 
L 403.157004 154.448739 
L 403.305133 158.352717 
L 403.453262 155.095258 
L 403.601391 154.896329 
L 403.749519 150.892887 
L 404.342034 147.585696 
L 404.490163 149.59985 
L 404.638291 149.773913 
L 404.78642 149.15226 
L 405.230806 145.919668 
L 405.527064 146.566186 
L 405.675192 146.914312 
L 405.823321 146.218061 
L 406.267707 148.331679 
L 406.415836 147.486232 
L 406.860222 152.235657 
L 407.304608 152.53405 
L 407.452737 154.57307 
L 407.600865 154.324409 
L 407.897123 150.271235 
L 408.489638 150.345833 
L 408.637766 148.704671 
L 408.934024 161.70964 
L 409.37841 155.965571 
L 409.674667 140.225331 
L 409.822796 130.776214 
L 409.970925 132.39251 
L 410.415311 135.724567 
L 410.711568 135.799166 
L 410.859697 133.138493 
L 411.007825 137.887918 
L 411.452212 137.465194 
L 411.60034 136.943006 
L 411.748469 134.804522 
L 411.896598 139.205821 
L 412.044726 137.042471 
L 412.489112 138.360374 
L 412.637241 137.166801 
L 412.78537 137.042471 
L 412.933499 134.953718 
L 413.081627 134.530995 
L 413.822271 126.374915 
L 413.970399 127.270094 
L 414.118528 125.653798 
L 414.562914 125.852726 
L 414.711043 126.051655 
L 414.859172 126.921969 
L 415.0073 127.071165 
L 415.155429 128.215006 
L 415.747944 124.1121 
L 416.044201 133.486619 
L 416.19233 135.376442 
L 416.636716 135.824032 
L 416.784845 140.921582 
L 416.932973 140.672921 
L 417.229231 147.511098 
L 417.821746 141.990824 
L 417.969874 142.438414 
L 418.118003 150.122038 
L 418.266132 148.530608 
L 418.710518 155.294187 
L 418.858646 151.812933 
L 419.006775 144.651497 
L 419.154904 144.750961 
L 419.303033 144.477434 
L 419.747419 140.324796 
L 419.895547 140.150733 
L 420.043676 141.5681 
L 420.339933 140.175599 
L 420.932448 140.99618 
L 421.228706 145.894802 
L 421.376834 144.875291 
L 421.82122 146.839713 
L 422.265607 139.355018 
L 422.413735 134.804522 
L 422.858121 136.420818 
L 423.00625 131.721126 
L 423.154379 131.721126 
L 423.302507 130.154561 
L 423.450636 129.78157 
L 424.19128 127.071165 
L 424.339408 128.985855 
L 424.487537 128.413935 
L 425.080052 126.573843 
L 425.22818 127.817148 
L 425.376309 127.891746 
L 425.524438 130.154561 
L 426.116953 129.33398 
L 426.265081 129.657239 
L 426.41321 128.19014 
L 426.561339 124.957547 
L 427.301982 120.382185 
L 427.59824 122.147678 
L 428.190754 119.760532 
L 428.338883 119.785399 
L 428.487012 120.307587 
L 428.635141 119.760532 
L 429.079527 119.561604 
L 429.227655 119.835131 
L 429.375784 115.085706 
L 429.672041 114.911643 
L 430.116428 115.707358 
L 430.264556 116.403609 
L 430.412685 98.002697 
L 430.560814 98.549751 
L 430.708942 97.182115 
L 431.153328 94.173317 
L 431.449586 89.82175 
L 431.597714 88.876839 
L 431.745843 89.622822 
L 432.190229 86.713488 
L 432.486487 81.193214 
L 432.634615 81.615938 
L 432.782744 80.671026 
L 433.523388 77.214639 
L 433.671516 78.656872 
L 433.819645 78.333613 
L 434.41216 77.513032 
L 434.560288 70.550524 
L 434.708417 72.61441 
L 434.856546 70.57539 
L 435.300932 71.669499 
L 435.449061 71.221909 
L 435.745318 73.310661 
L 435.893447 72.166821 
L 436.337833 72.017624 
L 436.485962 72.539812 
L 436.63409 68.884496 
L 436.782219 68.312575 
L 436.930348 70.053202 
L 437.374734 66.397886 
L 437.522862 70.426194 
L 437.670991 66.49735 
L 437.967249 68.436906 
L 438.411635 67.84012 
L 438.559763 60.579219 
L 438.707892 59.783504 
L 439.004149 60.927344 
L 439.448536 60.82788 
L 439.596664 58.167207 
L 439.892922 60.927344 
L 440.04105 61.723059 
L 440.485436 62.145783 
L 440.633565 65.975162 
L 440.781694 65.552439 
L 440.929822 67.417396 
L 441.522337 65.47784 
L 441.818595 68.337442 
L 441.966723 63.961008 
L 442.114852 64.383732 
L 442.559238 60.977077 
L 442.707367 58.763994 
L 442.855496 60.877612 
L 443.003624 60.604085 
L 443.151753 60.95221 
L 443.744268 51.353897 
L 444.040525 53.790774 
L 444.188654 47.748312 
L 444.781169 35.240665 
L 444.929297 37.05589 
L 445.077426 35.340129 
L 445.225555 29.993918 
L 445.81807 31.560482 
L 445.966198 44.540586 
L 446.114327 38.846249 
L 446.262456 37.553212 
L 446.706842 35.240665 
L 446.85497 35.713121 
L 447.003099 36.856961 
L 447.151228 35.539058 
L 447.299357 36.185577 
L 447.891871 36.03638 
L 448.04 38.299195 
L 448.04 38.299195 
" style="fill:none;stroke:#0000ff;stroke-linecap:square;"/>
   </g>
   <g id="line2d_2">
    <path clip-path="url(#pa6439969f4)" d="M 47.648129 304.546196 
L 47.796257 307.407525 
L 47.944386 309.988188 
L 48.092515 308.544766 
L 48.536901 308.712437 
L 48.833158 311.26394 
L 48.981287 310.760929 
L 49.129416 312.554272 
L 49.72193 311.165525 
L 49.870059 312.481372 
L 50.018188 312.011166 
L 50.166317 318.014489 
L 50.610703 319.836992 
L 50.758831 319.395946 
L 50.90696 319.454266 
L 51.203217 321.666784 
L 51.647604 321.109098 
L 51.795732 321.455374 
L 51.943861 319.687547 
L 52.09199 322.242695 
L 52.240118 321.422569 
L 52.684504 321.025263 
L 52.832633 320.485803 
L 52.980762 320.846658 
L 53.128891 320.493093 
L 53.277019 321.090873 
L 53.869534 319.600066 
L 54.017663 320.165042 
L 54.165791 319.250146 
L 54.31392 319.698482 
L 54.758306 319.326691 
L 55.054564 321.389764 
L 55.202692 322.308305 
L 55.350821 322.23905 
L 55.795207 321.167419 
L 56.387722 315.430181 
L 56.832108 315.743651 
L 56.980237 316.162827 
L 57.276494 312.346507 
L 57.424623 312.638107 
L 57.869009 315.616076 
L 58.017138 315.247931 
L 58.313395 315.02923 
L 58.461524 316.195632 
L 58.90591 316.651257 
L 59.054038 318.19674 
L 59.350296 315.670751 
L 59.942811 315.750941 
L 60.090939 314.974555 
L 60.239068 314.89801 
L 60.979712 314.190879 
L 61.275969 315.550466 
L 61.424098 314.8324 
L 61.572226 315.062035 
L 62.016612 313.877409 
L 62.164741 311.32226 
L 62.31287 310.91402 
L 62.460999 309.769488 
L 62.609127 317.988974 
L 63.053513 317.999909 
L 63.201642 317.099593 
L 63.349771 317.234458 
L 63.646028 318.929385 
L 64.238543 321.830809 
L 64.386672 321.805294 
L 64.5348 321.294994 
L 64.682929 322.44317 
L 65.127315 321.550144 
L 65.275444 325.9606 
L 65.423572 325.340949 
L 65.71983 328.369948 
L 66.164216 323.179461 
L 66.460473 326.139205 
L 66.608602 325.140474 
L 66.756731 325.74919 
L 67.201117 325.669 
L 67.793632 332.208138 
L 68.238018 331.278662 
L 68.386146 331.293242 
L 68.534275 331.584843 
L 68.682404 328.858379 
L 68.830533 329.736825 
L 69.423047 330.330961 
L 69.719305 326.09911 
L 69.867433 327.352992 
L 70.31182 329.75505 
L 70.459948 329.889915 
L 70.608077 331.850928 
L 70.756206 329.48532 
L 70.904334 329.211944 
L 71.34872 330.181516 
L 71.496849 327.484212 
L 71.644978 326.890076 
L 71.793107 327.105132 
L 71.941235 327.116067 
L 72.978136 332.095143 
L 73.422522 332.204493 
L 73.71878 337.143475 
L 74.015037 338.670732 
L 74.607552 338.758212 
L 74.903809 335.029372 
L 75.051938 333.0392 
L 75.496324 331.519233 
L 75.644453 329.084369 
L 75.94071 328.209568 
L 76.088839 334.475332 
L 76.533225 333.276125 
L 76.681354 330.473116 
L 76.829482 331.216697 
L 77.12574 328.931279 
L 77.570126 329.128109 
L 77.718254 328.461073 
L 77.866383 329.970105 
L 78.014512 329.853465 
L 78.162641 329.87898 
L 78.607027 328.865669 
L 78.755155 328.971374 
L 78.903284 325.96789 
L 79.051413 325.643485 
L 79.199541 327.079617 
L 79.643928 326.146495 
L 79.792056 326.445386 
L 79.940185 328.625099 
L 80.088314 328.574069 
L 80.236442 329.605605 
L 80.680828 329.744115 
L 80.828957 328.847444 
L 81.273343 334.034286 
L 81.717729 333.662495 
L 81.865858 335.969784 
L 82.013987 335.382938 
L 82.162115 336.046329 
L 82.310244 334.613842 
L 82.902759 336.221289 
L 83.199016 333.822876 
L 83.347145 332.528899 
L 83.93966 333.60053 
L 84.235917 331.457267 
L 84.384046 331.464557 
L 84.828432 330.349186 
L 84.976561 330.684526 
L 85.272818 330.567886 
L 85.420947 328.913054 
L 86.16159 324.207353 
L 86.309719 324.666623 
L 86.457848 322.15157 
L 86.902234 321.582949 
L 87.050362 322.17344 
L 87.198491 322.07867 
L 87.34662 322.424945 
L 87.494749 322.454105 
L 87.939135 323.051886 
L 88.087263 320.157752 
L 88.383521 321.655849 
L 88.531649 320.500383 
L 88.976036 320.048402 
L 89.272293 319.235566 
L 89.420422 319.669321 
L 89.56855 308.650472 
L 90.012936 305.687083 
L 90.161065 307.487715 
L 90.309194 307.458555 
L 90.457322 306.729554 
L 90.605451 306.631139 
L 91.197966 305.526702 
L 91.346095 305.913073 
L 91.494223 305.530347 
L 91.642352 306.419729 
L 92.234867 306.073453 
L 92.531124 304.495166 
L 93.123639 304.03954 
L 93.419896 304.746671 
L 93.568025 305.781853 
L 93.716154 308.315131 
L 94.16054 309.736683 
L 94.308669 311.876301 
L 94.456797 311.909106 
L 94.604926 309.539853 
L 94.753055 310.582324 
L 95.197441 310.513069 
L 95.34557 312.007521 
L 95.493698 309.827808 
L 96.234342 312.171546 
L 96.38247 316.975663 
L 96.678728 314.045079 
L 96.826857 313.830024 
L 97.271243 312.853162 
L 97.5675 310.636999 
L 98.308143 309.893418 
L 98.456272 309.838743 
L 98.604401 310.680739 
L 98.75253 310.421944 
L 98.900658 310.589614 
L 99.345044 309.813228 
L 99.641302 307.914181 
L 99.78943 308.143816 
L 100.381945 308.479156 
L 100.530074 309.109742 
L 100.678203 308.730662 
L 100.826331 309.120677 
L 100.97446 310.010058 
L 101.418846 308.121946 
L 101.566975 308.526541 
L 101.863232 306.456179 
L 102.011361 305.920363 
L 102.455747 306.324958 
L 102.752004 305.840173 
L 102.900133 305.872978 
L 103.048262 304.509746 
L 103.640777 301.695802 
L 104.085163 306.758714 
L 104.529549 306.897224 
L 104.677678 305.286132 
L 104.825806 305.909428 
L 104.973935 305.854753 
L 105.122064 308.734307 
L 105.56645 308.847302 
L 105.714578 306.904514 
L 105.862707 306.729554 
L 106.010836 307.064894 
L 106.603351 306.310378 
L 106.751479 305.566797 
L 106.899608 305.909428 
L 107.047737 305.920363 
L 107.195865 304.451426 
L 107.640251 303.788035 
L 107.78838 304.517036 
L 107.936509 304.502456 
L 108.084638 304.312916 
L 108.232766 303.438115 
L 108.825281 307.053959 
L 108.97341 306.853484 
L 109.121538 307.305465 
L 109.714053 306.474404 
L 109.862182 308.774402 
L 110.010311 308.770757 
L 110.158439 307.1706 
L 110.306568 308.799917 
L 110.750954 310.432879 
L 110.899083 310.312594 
L 111.047212 310.411009 
L 111.343469 313.152053 
L 111.787855 314.376774 
L 111.935984 314.453319 
L 112.084112 316.724158 
L 112.232241 315.947771 
L 112.38037 316.002447 
L 112.824756 313.192148 
L 112.972885 313.042703 
L 113.269142 311.30039 
L 113.417271 312.601657 
L 113.861657 313.399913 
L 114.009786 312.240801 
L 114.157914 312.218931 
L 114.454172 310.407364 
L 114.898558 311.15459 
L 115.046686 314.5408 
L 115.342944 312.554272 
L 115.491072 312.889612 
L 115.935459 313.031768 
L 116.083587 314.263779 
L 116.379845 312.824002 
L 116.527973 321.531919 
L 116.972359 322.23176 
L 117.120488 323.201331 
L 117.268617 322.43588 
L 117.416746 322.548875 
L 118.00926 322.55981 
L 118.305518 320.245232 
L 118.453646 320.205137 
L 118.601775 319.089766 
L 119.046161 320.099432 
L 119.19429 320.948718 
L 119.342419 320.602443 
L 119.490547 320.879463 
L 120.083062 320.259812 
L 120.231191 319.352206 
L 120.37932 320.664408 
L 120.527448 320.737308 
L 120.675577 321.739684 
L 121.119963 323.766307 
L 121.268092 321.575659 
L 121.41622 321.692299 
L 121.564349 321.429859 
L 121.712478 322.745706 
L 122.156864 323.769952 
L 122.304993 323.795467 
L 122.453121 323.536672 
L 122.60125 323.817337 
L 122.749379 323.314326 
L 123.341893 321.834454 
L 123.490022 322.45775 
L 123.638151 322.009415 
L 123.78628 322.917021 
L 124.230666 323.285166 
L 124.378794 323.653312 
L 124.526923 323.627797 
L 124.675052 324.072487 
L 124.82318 325.388334 
L 125.267567 326.25949 
L 125.415695 325.5961 
L 125.711953 327.054101 
L 125.860081 329.846175 
L 126.304467 329.926365 
L 126.452596 328.395463 
L 126.896982 331.694193 
L 127.341368 330.236191 
L 127.637626 327.560757 
L 127.933883 323.292456 
L 128.674527 320.682633 
L 128.822655 318.63414 
L 128.970784 321.294994 
L 129.41517 322.15157 
L 129.711428 320.154107 
L 129.859556 321.849034 
L 130.007685 309.346668 
L 130.452071 309.835098 
L 130.6002 308.449996 
L 130.748328 309.758553 
L 131.044586 305.592312 
L 131.488972 305.457447 
L 131.637101 304.812281 
L 131.785229 307.597065 
L 131.933358 306.922739 
L 132.081487 308.242231 
L 132.525873 307.6809 
L 132.674001 309.980898 
L 132.82213 308.701502 
L 132.970259 313.006252 
L 133.118388 312.729232 
L 133.562774 318.739845 
L 133.710902 313.753479 
L 133.859031 318.19674 
L 134.00716 315.809261 
L 134.155288 315.510371 
L 134.599675 316.698642 
L 135.192189 328.774544 
L 135.636575 327.451407 
L 135.784704 323.693407 
L 135.932833 322.880571 
L 136.080962 323.471062 
L 136.22909 322.228115 
L 136.821605 319.709417 
L 136.969734 319.662031 
L 137.265991 322.59626 
L 137.858506 323.081046 
L 138.006635 320.923203 
L 138.154763 320.755533 
L 138.302892 322.59626 
L 138.747278 321.637624 
L 138.895407 321.743329 
L 139.043536 321.280414 
L 139.339793 318.61956 
L 139.932308 318.630495 
L 140.080436 319.982792 
L 140.228565 323.358066 
L 140.376694 322.475975 
L 140.82108 321.313219 
L 140.969209 319.957277 
L 141.117337 321.867259 
L 141.265466 322.111475 
L 141.413595 324.382313 
L 141.857981 327.936193 
L 142.302367 324.440633 
L 142.450496 324.367733 
L 143.339268 316.377882 
L 143.487396 310.429234 
L 143.931783 312.116871 
L 144.079911 310.640644 
L 144.22804 312.426697 
L 144.376169 311.887236 
L 144.524297 310.644289 
L 144.968683 309.565368 
L 145.116812 311.978361 
L 145.264941 311.406095 
L 145.41307 309.153482 
L 145.561198 308.887397 
L 146.005584 310.254274 
L 146.153713 312.798487 
L 146.301842 311.675826 
L 146.44997 309.368538 
L 146.598099 309.616398 
L 147.190614 306.667589 
L 147.486871 309.809583 
L 147.635 307.392945 
L 148.079386 306.547304 
L 148.227515 305.898493 
L 148.375643 306.824324 
L 148.671901 309.846033 
L 149.116287 312.382957 
L 149.264416 312.554272 
L 149.412544 314.354904 
L 149.708802 315.648881 
L 150.153188 311.063465 
L 150.301317 312.022101 
L 150.745703 305.205942 
L 151.190089 304.243661 
L 151.486346 304.655546 
L 151.634475 305.989618 
L 151.782604 303.919255 
L 152.22699 304.291046 
L 152.375118 304.247306 
L 152.523247 305.621473 
L 152.671376 305.355387 
L 152.819504 304.185341 
L 153.263891 304.939857 
L 153.412019 303.383439 
L 153.560148 304.210856 
L 153.856405 302.880429 
L 154.44892 301.586452 
L 154.597049 301.684867 
L 154.893306 300.554916 
L 155.63395 296.4798 
L 156.374593 304.823216 
L 156.522722 304.699286 
L 156.818979 303.51466 
L 156.967108 304.363946 
L 157.559623 303.707845 
L 157.85588 301.706737 
L 158.004009 311.464415 
L 158.448395 311.548251 
L 158.596524 312.386602 
L 158.744652 314.467899 
L 158.892781 314.719405 
L 159.04091 312.557917 
L 159.485296 312.973447 
L 159.929682 311.624796 
L 160.077811 309.579948 
L 160.522197 307.25808 
L 160.670325 307.6809 
L 160.966583 306.827969 
L 161.114712 307.837636 
L 161.559098 306.693104 
L 161.855355 307.899601 
L 162.003484 307.72464 
L 162.151612 308.067271 
L 162.744127 306.365054 
L 163.040385 307.801185 
L 163.188513 307.108635 
L 163.632899 307.217985 
L 163.781028 305.563152 
L 163.929157 305.588667 
L 164.077286 304.834151 
L 164.225414 305.045562 
L 164.6698 306.317668 
L 164.817929 308.008951 
L 165.114186 307.611645 
L 165.262315 308.869172 
L 165.706701 307.976146 
L 165.85483 305.676148 
L 166.002959 306.000553 
L 166.299216 304.353011 
L 166.743602 302.727339 
L 166.891731 302.814819 
L 167.187988 300.529401 
L 167.336117 301.159986 
L 167.780503 299.93162 
L 167.928632 300.350795 
L 168.07676 298.761573 
L 168.373018 301.404202 
L 168.817404 300.36902 
L 169.26179 303.029874 
L 169.854305 303.299604 
L 170.002433 304.021315 
L 170.298691 299.625439 
L 170.44682 304.433201 
L 170.891206 307.808475 
L 171.039334 307.1706 
L 171.187463 307.55697 
L 171.48372 309.630978 
L 171.928107 309.350313 
L 172.076235 308.683277 
L 172.372493 306.095323 
L 172.520621 306.186448 
L 172.965007 308.030821 
L 173.113136 308.107366 
L 173.409393 306.908159 
L 173.557522 309.463308 
L 174.150037 306.583754 
L 174.298166 307.247145 
L 174.446294 306.427019 
L 174.594423 307.961566 
L 175.038809 308.183911 
L 175.186938 306.889934 
L 175.335067 303.64588 
L 175.483195 304.717511 
L 175.631324 308.840012 
L 176.07571 306.343183 
L 176.223839 308.767112 
L 176.371967 307.188825 
L 176.520096 308.245876 
L 176.668225 310.454749 
L 177.26074 309.944448 
L 177.556997 312.397537 
L 177.705126 314.198169 
L 178.149512 312.809422 
L 178.297641 314.300229 
L 178.445769 312.452212 
L 178.593898 312.875032 
L 178.742027 312.474082 
L 179.630799 316.366947 
L 179.778928 315.375506 
L 180.223314 314.220039 
L 180.371442 312.277252 
L 180.519571 313.006252 
L 180.6677 315.247931 
L 180.815828 314.107044 
L 181.260214 316.068057 
L 181.556472 314.50435 
L 181.704601 315.411956 
L 181.852729 312.543337 
L 182.297115 312.470437 
L 182.445244 311.129075 
L 182.741501 309.656493 
L 182.88963 311.464415 
L 183.334016 311.46077 
L 183.482145 312.244446 
L 183.630274 314.158074 
L 183.778402 314.289294 
L 183.926531 313.188503 
L 184.370917 313.480103 
L 184.519046 313.148408 
L 184.667175 312.415762 
L 184.963432 306.944609 
L 185.407818 306.088033 
L 185.555947 307.5351 
L 185.704075 307.458555 
L 185.852204 306.481694 
L 186.000333 302.548733 
L 186.444719 303.033519 
L 186.592848 302.909589 
L 186.740976 302.964264 
L 186.889105 303.678685 
L 187.037234 301.389622 
L 187.48162 301.116246 
L 187.629749 301.531777 
L 187.777877 301.225597 
L 188.074135 301.265692 
L 188.666649 296.410545 
L 188.814778 296.614665 
L 189.111036 294.868708 
L 189.555422 295.160308 
L 189.70355 296.257455 
L 189.851679 294.861418 
L 189.999808 294.930673 
L 190.147936 294.595333 
L 190.592322 296.308485 
L 190.88858 292.88947 
L 191.036709 294.041292 
L 191.184837 293.421641 
L 191.925481 294.216252 
L 192.221738 289.587096 
L 192.666124 290.567602 
L 192.814253 292.127664 
L 192.962382 292.36459 
L 193.11051 289.605321 
L 193.258639 288.94193 
L 193.703025 288.887255 
L 193.999283 285.697876 
L 194.147411 285.588525 
L 194.739926 281.713885 
L 194.888055 281.75398 
L 195.184312 280.419908 
L 195.332441 280.784409 
L 195.776827 279.457627 
L 195.924956 280.328783 
L 196.221213 278.316741 
L 196.369342 278.389641 
L 196.813728 280.175693 
L 196.961857 282.679812 
L 197.109985 282.592331 
L 197.258114 281.334805 
L 197.406243 282.559526 
L 197.850629 283.244787 
L 197.998757 282.566816 
L 198.146886 280.602159 
L 198.295015 291.617364 
L 198.443143 294.023067 
L 198.88753 294.588043 
L 199.035658 294.285507 
L 199.183787 294.839548 
L 199.331916 294.755713 
L 199.480044 295.229563 
L 200.220688 294.292797 
L 200.368817 292.966015 
L 200.516945 292.90405 
L 201.10946 294.034002 
L 201.405717 299.392159 
L 201.553846 297.438436 
L 201.998232 296.913556 
L 202.442618 300.307055 
L 202.590747 300.321635 
L 203.183262 296.17362 
L 203.331391 296.920846 
L 203.627648 296.53812 
L 204.072034 297.781067 
L 204.664549 291.001358 
L 205.108935 291.569979 
L 205.405192 292.922275 
L 205.553321 292.32085 
L 205.70145 293.582021 
L 206.145836 293.359676 
L 206.293964 291.274733 
L 206.442093 291.150803 
L 206.590222 290.214037 
L 206.738351 290.348902 
L 207.182737 286.922597 
L 207.330865 286.871567 
L 207.478994 287.046527 
L 207.627123 286.634642 
L 207.775251 287.859364 
L 208.219638 288.974735 
L 208.515895 289.091375 
L 208.664024 289.561581 
L 208.812152 290.706112 
L 209.256538 289.361106 
L 209.552796 286.474262 
L 209.700925 286.397717 
L 209.849053 283.791538 
L 210.441568 284.644469 
L 210.737825 283.153662 
L 210.885954 283.427038 
L 211.33034 286.474262 
L 211.478469 286.168081 
L 211.774726 288.646685 
L 211.922855 289.885986 
L 212.51537 290.184877 
L 212.811627 280.904694 
L 212.959756 280.933854 
L 213.404142 281.46967 
L 213.552271 280.933854 
L 213.700399 280.904694 
L 213.848528 280.565709 
L 213.996657 276.946219 
L 214.441043 279.960638 
L 214.7373 277.93037 
L 214.885429 277.241464 
L 215.033558 275.163811 
L 215.626072 276.013098 
L 215.774201 275.619437 
L 216.070459 273.79329 
L 216.662973 271.252721 
L 216.811102 273.87348 
L 217.107359 272.550343 
L 217.551746 274.17966 
L 217.699874 274.2963 
L 217.848003 272.539408 
L 217.996132 272.280612 
L 218.588646 268.584577 
L 218.736775 265.471743 
L 218.884904 266.78759 
L 219.033033 266.565245 
L 219.181161 266.762075 
L 219.625547 266.160649 
L 219.921805 267.892027 
L 220.069933 268.577287 
L 220.218062 269.896779 
L 220.662448 271.081406 
L 220.958706 269.820234 
L 221.254963 270.622135 
L 221.699349 270.74242 
L 221.847478 270.23941 
L 222.143735 273.556364 
L 222.73625 272.284257 
L 222.884379 270.126415 
L 223.180636 273.395984 
L 223.328765 275.586632 
L 223.773151 277.077439 
L 223.92128 276.567138 
L 224.069408 274.28901 
L 224.365666 274.31088 
L 224.810052 275.790752 
L 224.95818 273.705809 
L 225.254438 278.706756 
L 225.402567 272.521183 
L 225.846953 272.477443 
L 226.14321 270.049869 
L 226.291339 270.840836 
L 226.439467 272.240517 
L 227.031982 268.026892 
L 227.180111 268.781408 
L 227.32824 267.10835 
L 227.476368 264.174122 
L 227.920754 261.294568 
L 228.068883 262.078244 
L 228.217012 259.092985 
L 228.365141 259.486645 
L 228.513269 257.893778 
L 228.957655 258.382209 
L 229.105784 256.639896 
L 229.253913 251.398379 
L 229.402041 253.589027 
L 229.55017 252.619456 
L 229.994556 252.739741 
L 230.142685 253.024051 
L 230.438942 257.427217 
L 230.587071 259.151305 
L 231.179586 257.704238 
L 231.327714 260.062556 
L 231.475843 259.617865 
L 231.623972 259.53403 
L 232.068358 260.186486 
L 232.216487 261.739258 
L 232.364615 261.629908 
L 232.512744 260.729592 
L 232.660873 257.981258 
L 233.105259 256.074921 
L 233.401516 259.39552 
L 233.549645 258.480624 
L 233.697774 258.837834 
L 234.14216 256.796632 
L 234.290288 254.179518 
L 234.438417 254.168583 
L 234.586546 257.070007 
L 235.327189 260.445281 
L 235.623447 258.466044 
L 236.215962 256.497741 
L 236.36409 257.514698 
L 237.252862 253.366682 
L 237.54912 253.202657 
L 237.697249 250.607413 
L 237.845377 250.104403 
L 238.289763 249.798222 
L 238.437892 250.724053 
L 238.586021 250.913594 
L 238.734149 252.349726 
L 238.882278 254.912164 
L 239.326664 252.346081 
L 239.474793 253.599962 
L 239.622922 253.763987 
L 239.77105 256.530546 
L 239.919179 256.960657 
L 240.363565 257.521988 
L 240.511694 255.947345 
L 240.659822 256.523256 
L 240.807951 253.523417 
L 240.95608 253.096952 
L 241.400466 253.381262 
L 241.696723 255.99473 
L 241.844852 255.63023 
L 241.992981 256.038471 
L 242.437367 256.931497 
L 242.585496 257.707883 
L 242.881753 261.637198 
L 243.029882 262.136564 
L 243.474268 260.547342 
L 243.622396 260.587437 
L 243.918654 259.078405 
L 244.066783 259.716281 
L 244.511169 260.412476 
L 244.659297 263.368575 
L 244.807426 263.660176 
L 244.955555 262.406294 
L 245.103683 263.959066 
L 245.696198 261.505978 
L 245.992456 258.014063 
L 246.140584 258.010418 
L 246.733099 256.355586 
L 246.881228 254.985064 
L 247.177485 256.282686 
L 247.621871 256.519611 
L 247.77 256.822147 
L 247.918129 253.687442 
L 248.066257 254.584114 
L 248.214386 253.727537 
L 248.658772 256.749246 
L 248.806901 256.687281 
L 248.95503 258.436884 
L 249.103158 258.265569 
L 249.251287 258.589974 
L 249.695673 258.677454 
L 249.843802 256.658121 
L 249.99193 256.479516 
L 250.288188 259.326265 
L 250.732574 260.529117 
L 250.880703 262.727055 
L 251.028831 262.329749 
L 251.325089 259.391875 
L 251.769475 258.641004 
L 251.917604 257.569373 
L 252.065732 254.653369 
L 252.213861 256.333716 
L 252.36199 234.008061 
L 252.806376 235.484288 
L 252.954504 234.809962 
L 253.102633 230.366701 
L 253.250762 231.434687 
L 253.398891 233.319155 
L 253.843277 233.355605 
L 253.991405 229.488255 
L 254.139534 230.548951 
L 254.287663 230.519791 
L 254.435791 231.161312 
L 254.880178 231.332627 
L 255.028306 232.167333 
L 255.176435 231.944988 
L 255.324564 234.638647 
L 255.472692 233.166065 
L 255.917078 234.157506 
L 256.065207 233.942451 
L 256.213336 230.173516 
L 256.361464 229.670505 
L 256.509593 229.976685 
L 256.953979 230.341186 
L 257.250237 232.025178 
L 257.398365 229.881915 
L 257.546494 230.279221 
L 257.99088 227.724072 
L 258.287138 224.596658 
L 259.17591 226.39 
L 259.324038 225.493329 
L 259.472167 225.646419 
L 259.620296 223.364646 
L 260.064682 221.859259 
L 260.212811 220.670988 
L 260.657197 225.019479 
L 261.101583 222.799671 
L 261.249712 223.364646 
L 261.39784 220.656408 
L 261.545969 220.386677 
L 261.694098 217.765919 
L 262.138484 215.13058 
L 262.286612 215.724716 
L 262.730999 214.529154 
L 263.175385 216.154827 
L 263.323513 214.109979 
L 263.619771 215.491436 
L 263.767899 216.967663 
L 264.212286 214.725985 
L 264.360414 210.803959 
L 264.508543 210.373849 
L 264.656672 212.374957 
L 264.8048 212.385892 
L 265.249186 213.694448 
L 265.397315 208.883042 
L 265.545444 209.025197 
L 265.693572 207.64374 
L 265.841701 208.678922 
L 266.582345 206.039938 
L 266.730473 206.936609 
L 266.878602 213.541358 
L 267.322988 217.656569 
L 267.471117 213.690803 
L 267.619246 216.617742 
L 267.915503 203.138514 
L 268.359889 211.791756 
L 268.656146 210.012993 
L 268.952404 203.780035 
L 269.39679 204.600161 
L 269.544919 201.461812 
L 269.693047 202.096043 
L 269.841176 199.690339 
L 269.989305 199.161814 
L 270.58182 197.692877 
L 270.729948 199.245649 
L 270.878077 198.924888 
L 271.026206 198.983208 
L 271.470592 197.393986 
L 271.61872 196.030754 
L 271.766849 196.001594 
L 271.914978 196.17291 
L 272.507493 199.183684 
L 272.80375 196.34787 
L 272.951879 196.10001 
L 273.100007 196.978456 
L 273.544393 197.565302 
L 273.692522 199.672114 
L 273.840651 198.341688 
L 274.136908 204.625676 
L 274.581294 201.111891 
L 274.729423 197.623622 
L 274.877552 199.80698 
L 275.02568 200.189705 
L 275.173809 202.759434 
L 275.618195 207.33027 
L 275.766324 207.188115 
L 276.062581 215.280025 
L 276.21071 214.212039 
L 276.655096 215.236285 
L 276.803225 211.52567 
L 276.951354 211.48922 
L 277.099482 210.483199 
L 277.247611 220.178912 
L 277.691997 221.99777 
L 277.988254 212.524402 
L 278.284512 224.749748 
L 278.728898 224.049907 
L 278.877027 222.621065 
L 279.025155 215.294605 
L 279.173284 222.744996 
L 279.765799 225.471459 
L 279.913928 223.215201 
L 280.062056 226.08382 
L 280.210185 226.732631 
L 280.358314 230.005845 
L 280.8027 229.65228 
L 280.950828 225.8068 
L 281.098957 226.18588 
L 281.247086 224.476373 
L 281.395214 225.722965 
L 281.839601 225.766705 
L 282.135858 232.273038 
L 282.283987 231.893958 
L 282.432115 229.076369 
L 283.02463 223.842142 
L 283.320888 228.620743 
L 283.469016 228.383818 
L 284.061531 225.052284 
L 284.505917 216.694287 
L 285.098432 211.864656 
L 285.394689 214.004274 
L 285.542818 214.073529 
L 285.987204 216.245952 
L 286.135333 219.522811 
L 286.283462 219.624871 
L 286.579719 215.371151 
L 287.024105 213.260693 
L 287.320362 214.456254 
L 287.468491 217.186363 
L 287.61662 217.036918 
L 288.209135 220.226297 
L 288.357263 216.450072 
L 288.653521 215.360216 
L 289.097907 212.229156 
L 289.246036 212.349442 
L 289.394164 207.2355 
L 289.542293 208.201426 
L 289.690422 207.749445 
L 290.134808 208.463866 
L 290.282936 205.770208 
L 290.431065 205.890493 
L 290.579194 205.019337 
L 291.171709 205.923298 
L 291.319837 209.991123 
L 291.467966 208.172266 
L 291.616095 209.987478 
L 291.764223 207.042314 
L 292.208609 204.968307 
L 292.356738 205.001112 
L 292.504867 205.773853 
L 292.652996 209.028842 
L 292.801124 201.246757 
L 293.24551 203.291604 
L 293.393639 201.370687 
L 293.541768 200.918706 
L 293.838025 203.45563 
L 294.282411 202.879719 
L 294.43054 204.698576 
L 294.578669 204.03883 
L 294.874926 211.820916 
L 295.319312 209.240252 
L 295.467441 212.185416 
L 295.61557 211.711566 
L 295.763698 212.808712 
L 295.911827 210.836764 
L 296.356213 211.16117 
L 296.504342 213.038347 
L 296.65247 208.646117 
L 296.800599 208.693502 
L 296.948728 209.119967 
L 297.541243 204.242951 
L 297.8375 205.515057 
L 298.430015 206.670524 
L 298.578143 207.523455 
L 298.874401 210.680029 
L 299.02253 209.805228 
L 299.763173 207.494295 
L 300.05943 204.527261 
L 300.503817 203.200479 
L 300.651945 206.375278 
L 300.800074 205.613472 
L 300.948203 206.251348 
L 301.096331 208.339936 
L 301.540717 209.258477 
L 302.133232 200.882256 
L 302.577618 204.057055 
L 302.725747 206.331538 
L 302.873876 203.831065 
L 303.022004 208.544056 
L 303.170133 207.800475 
L 303.614519 208.070206 
L 303.762648 207.705705 
L 303.910777 211.019015 
L 304.058905 210.359269 
L 304.207034 208.463866 
L 304.65142 207.70935 
L 304.799549 212.670202 
L 304.947678 209.477178 
L 305.243935 219.686836 
L 305.688321 223.798402 
L 305.83645 222.074315 
L 306.280836 231.831993 
L 306.725222 228.307273 
L 307.021479 223.980652 
L 307.169608 219.872732 
L 307.317737 221.403634 
L 307.762123 221.042778 
L 307.910251 218.079389 
L 308.05838 217.922654 
L 308.206509 217.565444 
L 308.354638 214.368774 
L 308.947152 216.180342 
L 309.24341 220.579863 
L 309.391538 220.955298 
L 309.984053 217.572734 
L 310.280311 219.362431 
L 310.428439 219.719641 
L 311.020954 223.135011 
L 311.169083 222.42059 
L 311.317212 223.207911 
L 311.46534 222.234695 
L 311.909726 221.589529 
L 312.057855 220.929783 
L 312.205984 221.188578 
L 312.502241 220.656408 
L 312.946627 223.583347 
L 313.094756 223.601572 
L 313.242885 224.487308 
L 313.391013 222.30395 
L 313.539142 226.696181 
L 313.983528 226.06924 
L 314.131657 223.740082 
L 314.279786 226.404581 
L 314.427914 225.573519 
L 314.576043 229.101884 
L 315.020429 230.873357 
L 315.168558 237.583811 
L 315.464815 231.857508 
L 315.612944 229.94388 
L 316.05733 226.838336 
L 316.205459 224.753393 
L 316.353587 225.416784 
L 316.649845 223.499512 
L 317.094231 224.848163 
L 317.242359 224.815358 
L 317.390488 226.28065 
L 317.686746 226.860206 
L 318.131132 230.847842 
L 318.27926 235.189042 
L 318.427389 235.502513 
L 318.575518 234.926602 
L 318.723646 237.2995 
L 319.168033 238.618992 
L 319.760547 232.958299 
L 320.353062 233.38841 
L 320.797448 221.341669 
L 321.241834 223.069401 
L 321.538092 232.258458 
L 321.68622 232.017888 
L 321.834349 223.320906 
L 322.278735 225.522489 
L 322.426864 225.245469 
L 322.574993 227.607432 
L 322.87125 224.603948 
L 323.315636 225.759415 
L 323.463765 222.438815 
L 323.611893 222.792381 
L 323.908151 218.039294 
L 324.500666 220.288262 
L 324.648794 221.432794 
L 324.796923 220.277327 
L 324.945052 221.706169 
L 325.389438 224.272253 
L 325.537567 222.748641 
L 325.981953 214.616635 
L 326.574467 209.061647 
L 326.722596 209.160062 
L 326.870725 208.445641 
L 327.018854 211.23407 
L 327.46324 210.807604 
L 327.759497 217.248328 
L 327.907626 215.670041 
L 328.055754 218.6553 
L 328.500141 216.034541 
L 328.648269 217.372258 
L 328.796398 214.215684 
L 328.944527 214.76608 
L 329.092655 213.902214 
L 329.537041 214.467189 
L 329.68517 210.319174 
L 329.981428 215.793971 
L 330.129556 218.28351 
L 330.573942 216.938503 
L 330.8702 220.390322 
L 331.018328 222.952761 
L 331.758972 222.409655 
L 331.907101 220.736598 
L 332.203358 221.319799 
L 332.647744 221.625979 
L 332.795873 224.826293 
L 333.09213 223.583347 
L 333.240259 227.137226 
L 333.684645 223.007436 
L 333.832774 223.521382 
L 334.129031 218.77194 
L 334.27716 212.189061 
L 335.017803 218.013779 
L 335.165932 222.293015 
L 335.314061 222.088895 
L 335.758447 221.039133 
L 336.054704 227.075261 
L 336.350962 221.972255 
L 336.795348 222.890796 
L 336.943476 225.318369 
L 337.091605 225.106959 
L 337.239734 221.906644 
L 337.387862 223.565122 
L 337.832249 224.130097 
L 338.128506 221.589529 
L 338.276635 220.408547 
L 339.017278 224.122807 
L 339.165407 221.399989 
L 339.313536 221.403634 
L 339.461664 224.199353 
L 339.90605 223.514092 
L 340.054179 221.622334 
L 340.202308 221.210448 
L 340.498565 223.754662 
L 340.942951 226.123915 
L 341.09108 226.174945 
L 341.239209 222.52994 
L 341.979852 225.98905 
L 342.276109 225.238179 
L 342.424238 222.51536 
L 342.572367 222.52994 
L 343.016753 221.98319 
L 343.164882 221.148483 
L 343.609268 224.352443 
L 344.201783 228.427558 
L 344.49804 227.374152 
L 345.090555 227.570982 
L 345.238683 226.783661 
L 345.386812 229.76892 
L 345.534941 228.365593 
L 345.68307 224.921064 
L 346.127456 218.935965 
L 346.275584 213.632483 
L 346.423713 213.953244 
L 346.571842 206.798099 
L 346.71997 172.870393 
L 347.164357 176.482593 
L 347.460614 176.817934 
L 347.756871 190.865782 
L 348.349386 189.2474 
L 348.497515 187.814913 
L 348.645643 187.574343 
L 348.793772 190.118556 
L 349.238158 188.077354 
L 349.386287 188.791775 
L 349.534416 183.495583 
L 349.682544 183.896533 
L 349.830673 186.586547 
L 350.275059 187.158812 
L 350.423188 177.299074 
L 350.571317 177.743765 
L 350.719445 178.877361 
L 350.867574 178.633146 
L 351.31196 177.266269 
L 351.460089 178.994001 
L 351.608217 177.255334 
L 351.756346 182.383856 
L 351.904475 194.904448 
L 352.49699 205.992553 
L 352.645118 189.02141 
L 352.793247 185.744551 
L 352.941376 188.379889 
L 353.385762 192.80128 
L 353.533891 200.25896 
L 353.682019 194.226477 
L 353.978277 199.198264 
L 354.570791 194.109837 
L 354.71892 194.816968 
L 355.015178 190.060236 
L 355.459564 190.982423 
L 355.607692 186.644867 
L 355.755821 186.338686 
L 355.90395 183.816343 
L 356.052078 188.791775 
L 356.496464 186.535517 
L 356.644593 191.182898 
L 356.792722 191.303183 
L 356.940851 190.049301 
L 357.088979 195.090343 
L 357.533365 201.316012 
L 357.681494 201.286852 
L 357.829623 196.38432 
L 357.977751 195.338204 
L 358.12588 189.644706 
L 358.718395 182.890512 
L 359.014652 185.179575 
L 359.162781 183.557548 
L 359.607167 182.442176 
L 359.755296 180.390038 
L 359.903425 180.805569 
L 360.051553 176.949154 
L 360.199682 176.781483 
L 360.644068 175.359932 
L 360.940325 183.922048 
L 361.088454 180.575934 
L 361.236583 162.274364 
L 361.680969 158.345049 
L 361.829098 159.908756 
L 362.125355 156.836017 
L 362.273484 159.063115 
L 363.310385 150.697828 
L 363.754771 153.930948 
L 363.902899 152.680711 
L 364.051028 150.100047 
L 364.199157 151.620014 
L 364.347286 156.806856 
L 364.791672 152.447431 
L 364.9398 153.781502 
L 365.087929 148.423345 
L 365.236058 149.002901 
L 365.384186 142.372637 
L 365.828572 142.598627 
L 365.976701 145.405281 
L 366.12483 145.452666 
L 366.421087 144.68357 
L 366.865473 147.475644 
L 367.013602 138.567252 
L 367.161731 140.265824 
L 367.309859 143.852509 
L 367.457988 138.651087 
L 368.050503 140.269469 
L 368.198632 144.191494 
L 368.34676 144.97517 
L 368.494889 148.835231 
L 368.939275 145.591176 
L 369.087404 147.184043 
L 369.235533 141.829531 
L 369.53179 148.67485 
L 370.124305 144.77834 
L 370.272433 144.665345 
L 370.420562 145.361541 
L 371.013077 140.218439 
L 371.161206 135.082627 
L 371.309334 137.12383 
L 371.457463 141.541576 
L 372.049978 147.752664 
L 372.346235 147.103853 
L 372.642493 157.729043 
L 373.086879 157.160422 
L 373.235007 153.500837 
L 373.383136 162.799245 
L 373.531265 157.637918 
L 373.679393 165.026343 
L 374.271908 162.350909 
L 374.420037 163.568341 
L 374.568166 160.601307 
L 374.716294 153.799727 
L 375.16068 158.749644 
L 375.308809 158.250278 
L 375.456938 163.00701 
L 375.753195 147.348069 
L 376.197581 144.049339 
L 376.34571 139.438408 
L 376.641967 160.083716 
L 376.790096 168.992108 
L 377.234482 169.294643 
L 377.382611 170.982281 
L 377.53074 168.791633 
L 377.826997 169.418574 
L 378.419512 166.283869 
L 378.567641 159.941561 
L 378.715769 163.969291 
L 378.863898 162.671669 
L 379.308284 160.648692 
L 379.456413 164.516042 
L 379.75267 160.907487 
L 379.900799 161.155347 
L 380.345185 163.816201 
L 380.493314 156.147111 
L 380.641442 156.132531 
L 380.789571 158.476269 
L 380.9377 159.033954 
L 381.382086 164.767547 
L 381.530214 165.201303 
L 381.974601 153.227462 
L 382.418987 151.889745 
L 382.567115 152.677066 
L 382.715244 149.848542 
L 382.863373 149.232536 
L 383.011501 149.298146 
L 383.455888 147.661539 
L 383.604016 148.14997 
L 383.900274 150.136497 
L 384.492788 150.781663 
L 384.789046 144.585155 
L 384.937175 146.619068 
L 385.085303 144.811145 
L 385.529689 146.495138 
L 385.677818 149.225246 
L 385.825947 146.349337 
L 385.974075 148.321285 
L 386.56659 149.844897 
L 387.159105 141.497836 
L 387.603491 138.723987 
L 387.75162 143.345853 
L 387.899749 143.805124 
L 388.047877 141.446806 
L 388.196006 156.161691 
L 388.640392 154.565178 
L 388.788521 160.036331 
L 388.936649 160.874682 
L 389.084778 166.276579 
L 389.677293 163.655821 
L 389.825422 165.788149 
L 390.121679 162.482129 
L 390.269808 158.950119 
L 390.714194 158.301309 
L 390.862322 154.554243 
L 391.15858 158.151863 
L 391.306709 159.055825 
L 391.751095 156.992752 
L 391.899223 160.732527 
L 392.047352 160.586727 
L 392.195481 162.886725 
L 392.343609 159.45313 
L 392.787996 161.457883 
L 393.084253 153.792437 
L 393.232382 154.211613 
L 393.38051 151.098779 
L 393.973025 149.983407 
L 394.121154 150.555673 
L 394.269283 151.92255 
L 394.417411 154.860424 
L 394.861797 156.970882 
L 395.009926 156.934432 
L 395.158055 152.695291 
L 395.306183 152.585941 
L 395.454312 155.92841 
L 396.046827 156.343941 
L 396.194956 156.107016 
L 396.343084 159.22714 
L 396.491213 166.021429 
L 396.935599 165.296073 
L 397.379985 162.321749 
L 397.528114 172.035687 
L 397.9725 174.57261 
L 398.268757 168.795278 
L 398.565015 163.29132 
L 399.15753 165.011763 
L 399.305658 163.816201 
L 399.453787 164.694647 
L 399.601916 160.951227 
L 400.046302 157.503052 
L 400.19443 155.480075 
L 400.342559 156.814146 
L 400.490688 155.36708 
L 400.638817 155.76803 
L 401.37946 147.98959 
L 401.527589 148.922711 
L 401.675717 147.424614 
L 402.268232 148.999256 
L 402.56449 146.269147 
L 402.712618 137.929376 
L 403.157004 136.438569 
L 403.305133 137.098315 
L 403.453262 136.329219 
L 403.601391 136.901485 
L 403.749519 133.034134 
L 404.193905 133.201805 
L 404.342034 132.290553 
L 404.638291 132.075498 
L 404.78642 132.669634 
L 405.230806 132.953944 
L 405.378935 134.885797 
L 405.527064 133.876131 
L 405.823321 135.512738 
L 406.267707 136.704654 
L 406.415836 136.730169 
L 406.563964 137.619551 
L 406.712093 137.703386 
L 406.860222 137.656001 
L 407.304608 136.704654 
L 407.600865 138.563607 
L 407.897123 136.95616 
L 408.489638 133.814165 
L 408.637766 133.71575 
L 408.785895 135.549188 
L 408.934024 141.257265 
L 409.37841 137.845541 
L 409.526538 141.24633 
L 409.674667 140.225729 
L 409.822796 136.84681 
L 409.970925 137.896571 
L 410.415311 139.055683 
L 410.711568 135.221137 
L 410.859697 131.215277 
L 411.007825 131.328272 
L 411.452212 135.953783 
L 411.60034 132.746179 
L 411.748469 133.274705 
L 411.896598 135.662183 
L 412.044726 134.831122 
L 412.489112 136.555209 
L 412.637241 135.144592 
L 412.78537 135.130012 
L 412.933499 134.987857 
L 413.081627 135.636668 
L 413.526013 131.678193 
L 413.674142 132.724309 
L 413.822271 131.605292 
L 413.970399 134.503071 
L 414.118528 134.379141 
L 414.562914 133.857905 
L 414.859172 125.984695 
L 415.0073 127.657752 
L 415.155429 126.782951 
L 415.599815 121.774714 
L 416.19233 128.240953 
L 416.784845 132.527479 
L 417.081102 140.356949 
L 417.229231 140.397044 
L 417.821746 130.012425 
L 417.969874 131.907828 
L 418.266132 143.313048 
L 418.710518 149.852187 
L 419.006775 139.500373 
L 419.154904 137.039995 
L 419.303033 140.936505 
L 419.747419 137.779931 
L 419.895547 138.118916 
L 420.043676 140.77248 
L 420.339933 140.520974 
L 420.932448 137.18215 
L 421.228706 145.536501 
L 421.376834 144.59609 
L 421.82122 140.214794 
L 421.969349 141.457741 
L 422.413735 130.457116 
L 422.858121 130.464406 
L 423.00625 127.974868 
L 423.302507 127.336992 
L 423.450636 129.90672 
L 423.895022 128.667418 
L 424.043151 127.858227 
L 424.19128 128.536198 
L 424.487537 130.231126 
L 425.080052 129.633345 
L 425.524438 136.824939 
L 426.116953 131.605292 
L 426.265081 131.328272 
L 426.561339 124.311638 
L 427.005725 124.129387 
L 427.153854 124.807358 
L 427.301982 123.670117 
L 427.450111 124.235092 
L 427.59824 123.681052 
L 428.190754 124.872968 
L 428.338883 124.340798 
L 428.487012 125.758705 
L 428.635141 124.723523 
L 429.227655 117.852689 
L 429.375784 113.551583 
L 429.523913 114.834625 
L 430.116428 125.707674 
L 430.264556 127.723362 
L 430.412685 128.120668 
L 430.708942 126.01021 
L 431.153328 126.064885 
L 431.449586 123.498801 
L 431.597714 123.068691 
L 431.745843 121.570594 
L 432.338358 119.099281 
L 432.486487 119.635096 
L 432.782744 116.321787 
L 433.375259 115.01323 
L 433.523388 115.34128 
L 433.671516 115.133515 
L 433.819645 116.114022 
L 434.264031 115.880741 
L 434.41216 118.093259 
L 434.560288 113.708318 
L 434.856546 115.953641 
L 435.300932 116.427492 
L 435.893447 110.788669 
L 436.337833 109.953963 
L 436.485962 109.924803 
L 436.782219 108.772982 
L 436.930348 107.55555 
L 437.374734 108.911492 
L 437.522862 115.450631 
L 437.670991 115.767746 
L 437.967249 121.293574 
L 438.559763 118.927965 
L 438.707892 115.104355 
L 438.856021 115.07155 
L 439.004149 115.778681 
L 439.448536 112.501822 
L 440.04105 117.561088 
L 440.485436 117.539218 
L 440.633565 118.042229 
L 440.781694 117.688664 
L 440.929822 117.965684 
L 441.522337 113.004832 
L 441.670466 113.132407 
L 441.818595 112.625752 
L 442.114852 110.810539 
L 442.707367 100.19993 
L 442.855496 100.407695 
L 443.003624 99.489154 
L 443.151753 87.930843 
L 443.744268 84.110878 
L 444.040525 78.563181 
L 444.188654 80.214368 
L 444.63304 77.600899 
L 444.929297 79.612942 
L 445.669941 76.587588 
L 445.81807 74.429745 
L 445.966198 82.951767 
L 446.262456 77.706605 
L 446.706842 74.845276 
L 447.003099 70.070319 
L 447.151228 64.755902 
L 447.299357 64.052416 
L 447.891871 62.444969 
L 448.04 66.461764 
L 448.04 66.461764 
" style="fill:none;stroke:#008000;stroke-linecap:square;"/>
   </g>
   <g id="patch_3">
    <path d="M 47.5 361.098447 
L 47.5 18.766875 
" style="fill:none;stroke:#000000;stroke-linecap:square;stroke-linejoin:miter;"/>
   </g>
   <g id="patch_4">
    <path d="M 47.5 361.098447 
L 448.04 361.098447 
" style="fill:none;stroke:#000000;stroke-linecap:square;stroke-linejoin:miter;"/>
   </g>
   <g id="patch_5">
    <path d="M 47.5 18.766875 
L 448.04 18.766875 
" style="fill:none;stroke:#000000;stroke-linecap:square;stroke-linejoin:miter;"/>
   </g>
   <g id="patch_6">
    <path d="M 448.04 361.098447 
L 448.04 18.766875 
" style="fill:none;stroke:#000000;stroke-linecap:square;stroke-linejoin:miter;"/>
   </g>
   <g id="matplotlib.axis_1">
    <g id="xtick_1">
     <g id="line2d_3">
      <defs>
       <path d="M 0 0 
L 0 -4 
" id="m088c6845a0" style="stroke:#000000;stroke-width:0.5;"/>
      </defs>
      <g>
       <use style="stroke:#000000;stroke-width:0.5;" x="101.122588757" xlink:href="#m088c6845a0" y="361.098447467"/>
      </g>
     </g>
     <g id="line2d_4">
      <defs>
       <path d="M 0 0 
L 0 4 
" id="mce60f1299a" style="stroke:#000000;stroke-width:0.5;"/>
      </defs>
      <g>
       <use style="stroke:#000000;stroke-width:0.5;" x="101.122588757" xlink:href="#mce60f1299a" y="18.766875"/>
      </g>
     </g>
     <g id="text_1">
      <!-- 2011 -->
      <defs>
       <path d="M 19.1875 8.296875 
L 53.609375 8.296875 
L 53.609375 0 
L 7.328125 0 
L 7.328125 8.296875 
Q 12.9375 14.109375 22.625 23.890625 
Q 32.328125 33.6875 34.8125 36.53125 
Q 39.546875 41.84375 41.421875 45.53125 
Q 43.3125 49.21875 43.3125 52.78125 
Q 43.3125 58.59375 39.234375 62.25 
Q 35.15625 65.921875 28.609375 65.921875 
Q 23.96875 65.921875 18.8125 64.3125 
Q 13.671875 62.703125 7.8125 59.421875 
L 7.8125 69.390625 
Q 13.765625 71.78125 18.9375 73 
Q 24.125 74.21875 28.421875 74.21875 
Q 39.75 74.21875 46.484375 68.546875 
Q 53.21875 62.890625 53.21875 53.421875 
Q 53.21875 48.921875 51.53125 44.890625 
Q 49.859375 40.875 45.40625 35.40625 
Q 44.1875 33.984375 37.640625 27.21875 
Q 31.109375 20.453125 19.1875 8.296875 
" id="BitstreamVeraSans-Roman-32"/>
       <path d="M 12.40625 8.296875 
L 28.515625 8.296875 
L 28.515625 63.921875 
L 10.984375 60.40625 
L 10.984375 69.390625 
L 28.421875 72.90625 
L 38.28125 72.90625 
L 38.28125 8.296875 
L 54.390625 8.296875 
L 54.390625 0 
L 12.40625 0 
z
" id="BitstreamVeraSans-Roman-31"/>
       <path d="M 31.78125 66.40625 
Q 24.171875 66.40625 20.328125 58.90625 
Q 16.5 51.421875 16.5 36.375 
Q 16.5 21.390625 20.328125 13.890625 
Q 24.171875 6.390625 31.78125 6.390625 
Q 39.453125 6.390625 43.28125 13.890625 
Q 47.125 21.390625 47.125 36.375 
Q 47.125 51.421875 43.28125 58.90625 
Q 39.453125 66.40625 31.78125 66.40625 
M 31.78125 74.21875 
Q 44.046875 74.21875 50.515625 64.515625 
Q 56.984375 54.828125 56.984375 36.375 
Q 56.984375 17.96875 50.515625 8.265625 
Q 44.046875 -1.421875 31.78125 -1.421875 
Q 19.53125 -1.421875 13.0625 8.265625 
Q 6.59375 17.96875 6.59375 36.375 
Q 6.59375 54.828125 13.0625 64.515625 
Q 19.53125 74.21875 31.78125 74.21875 
" id="BitstreamVeraSans-Roman-30"/>
      </defs>
      <g transform="translate(73.4263604258 388.264975352)rotate(-30.0)scale(0.12 -0.12)">
       <use xlink:href="#BitstreamVeraSans-Roman-32"/>
       <use x="63.623046875" xlink:href="#BitstreamVeraSans-Roman-30"/>
       <use x="127.24609375" xlink:href="#BitstreamVeraSans-Roman-31"/>
       <use x="190.869140625" xlink:href="#BitstreamVeraSans-Roman-31"/>
      </g>
     </g>
    </g>
    <g id="xtick_2">
     <g id="line2d_5">
      <g>
       <use style="stroke:#000000;stroke-width:0.5;" x="155.189563609" xlink:href="#m088c6845a0" y="361.098447467"/>
      </g>
     </g>
     <g id="line2d_6">
      <g>
       <use style="stroke:#000000;stroke-width:0.5;" x="155.189563609" xlink:href="#mce60f1299a" y="18.766875"/>
      </g>
     </g>
     <g id="text_2">
      <!-- 2012 -->
      <g transform="translate(127.493335278 388.264975352)rotate(-30.0)scale(0.12 -0.12)">
       <use xlink:href="#BitstreamVeraSans-Roman-32"/>
       <use x="63.623046875" xlink:href="#BitstreamVeraSans-Roman-30"/>
       <use x="127.24609375" xlink:href="#BitstreamVeraSans-Roman-31"/>
       <use x="190.869140625" xlink:href="#BitstreamVeraSans-Roman-32"/>
      </g>
     </g>
    </g>
    <g id="xtick_3">
     <g id="line2d_7">
      <g>
       <use style="stroke:#000000;stroke-width:0.5;" x="209.40466716" xlink:href="#m088c6845a0" y="361.098447467"/>
      </g>
     </g>
     <g id="line2d_8">
      <g>
       <use style="stroke:#000000;stroke-width:0.5;" x="209.40466716" xlink:href="#mce60f1299a" y="18.766875"/>
      </g>
     </g>
     <g id="text_3">
      <!-- 2013 -->
      <defs>
       <path d="M 40.578125 39.3125 
Q 47.65625 37.796875 51.625 33 
Q 55.609375 28.21875 55.609375 21.1875 
Q 55.609375 10.40625 48.1875 4.484375 
Q 40.765625 -1.421875 27.09375 -1.421875 
Q 22.515625 -1.421875 17.65625 -0.515625 
Q 12.796875 0.390625 7.625 2.203125 
L 7.625 11.71875 
Q 11.71875 9.328125 16.59375 8.109375 
Q 21.484375 6.890625 26.8125 6.890625 
Q 36.078125 6.890625 40.9375 10.546875 
Q 45.796875 14.203125 45.796875 21.1875 
Q 45.796875 27.640625 41.28125 31.265625 
Q 36.765625 34.90625 28.71875 34.90625 
L 20.21875 34.90625 
L 20.21875 43.015625 
L 29.109375 43.015625 
Q 36.375 43.015625 40.234375 45.921875 
Q 44.09375 48.828125 44.09375 54.296875 
Q 44.09375 59.90625 40.109375 62.90625 
Q 36.140625 65.921875 28.71875 65.921875 
Q 24.65625 65.921875 20.015625 65.03125 
Q 15.375 64.15625 9.8125 62.3125 
L 9.8125 71.09375 
Q 15.4375 72.65625 20.34375 73.4375 
Q 25.25 74.21875 29.59375 74.21875 
Q 40.828125 74.21875 47.359375 69.109375 
Q 53.90625 64.015625 53.90625 55.328125 
Q 53.90625 49.265625 50.4375 45.09375 
Q 46.96875 40.921875 40.578125 39.3125 
" id="BitstreamVeraSans-Roman-33"/>
      </defs>
      <g transform="translate(181.708438828 388.264975352)rotate(-30.0)scale(0.12 -0.12)">
       <use xlink:href="#BitstreamVeraSans-Roman-32"/>
       <use x="63.623046875" xlink:href="#BitstreamVeraSans-Roman-30"/>
       <use x="127.24609375" xlink:href="#BitstreamVeraSans-Roman-31"/>
       <use x="190.869140625" xlink:href="#BitstreamVeraSans-Roman-33"/>
      </g>
     </g>
    </g>
    <g id="xtick_4">
     <g id="line2d_9">
      <g>
       <use style="stroke:#000000;stroke-width:0.5;" x="263.471642012" xlink:href="#m088c6845a0" y="361.098447467"/>
      </g>
     </g>
     <g id="line2d_10">
      <g>
       <use style="stroke:#000000;stroke-width:0.5;" x="263.471642012" xlink:href="#mce60f1299a" y="18.766875"/>
      </g>
     </g>
     <g id="text_4">
      <!-- 2014 -->
      <defs>
       <path d="M 37.796875 64.3125 
L 12.890625 25.390625 
L 37.796875 25.390625 
z
M 35.203125 72.90625 
L 47.609375 72.90625 
L 47.609375 25.390625 
L 58.015625 25.390625 
L 58.015625 17.1875 
L 47.609375 17.1875 
L 47.609375 0 
L 37.796875 0 
L 37.796875 17.1875 
L 4.890625 17.1875 
L 4.890625 26.703125 
z
" id="BitstreamVeraSans-Roman-34"/>
      </defs>
      <g transform="translate(235.77541368 388.264975352)rotate(-30.0)scale(0.12 -0.12)">
       <use xlink:href="#BitstreamVeraSans-Roman-32"/>
       <use x="63.623046875" xlink:href="#BitstreamVeraSans-Roman-30"/>
       <use x="127.24609375" xlink:href="#BitstreamVeraSans-Roman-31"/>
       <use x="190.869140625" xlink:href="#BitstreamVeraSans-Roman-34"/>
      </g>
     </g>
    </g>
    <g id="xtick_5">
     <g id="line2d_11">
      <g>
       <use style="stroke:#000000;stroke-width:0.5;" x="317.538616864" xlink:href="#m088c6845a0" y="361.098447467"/>
      </g>
     </g>
     <g id="line2d_12">
      <g>
       <use style="stroke:#000000;stroke-width:0.5;" x="317.538616864" xlink:href="#mce60f1299a" y="18.766875"/>
      </g>
     </g>
     <g id="text_5">
      <!-- 2015 -->
      <defs>
       <path d="M 10.796875 72.90625 
L 49.515625 72.90625 
L 49.515625 64.59375 
L 19.828125 64.59375 
L 19.828125 46.734375 
Q 21.96875 47.46875 24.109375 47.828125 
Q 26.265625 48.1875 28.421875 48.1875 
Q 40.625 48.1875 47.75 41.5 
Q 54.890625 34.8125 54.890625 23.390625 
Q 54.890625 11.625 47.5625 5.09375 
Q 40.234375 -1.421875 26.90625 -1.421875 
Q 22.3125 -1.421875 17.546875 -0.640625 
Q 12.796875 0.140625 7.71875 1.703125 
L 7.71875 11.625 
Q 12.109375 9.234375 16.796875 8.0625 
Q 21.484375 6.890625 26.703125 6.890625 
Q 35.15625 6.890625 40.078125 11.328125 
Q 45.015625 15.765625 45.015625 23.390625 
Q 45.015625 31 40.078125 35.4375 
Q 35.15625 39.890625 26.703125 39.890625 
Q 22.75 39.890625 18.8125 39.015625 
Q 14.890625 38.140625 10.796875 36.28125 
z
" id="BitstreamVeraSans-Roman-35"/>
      </defs>
      <g transform="translate(289.842388532 388.264975352)rotate(-30.0)scale(0.12 -0.12)">
       <use xlink:href="#BitstreamVeraSans-Roman-32"/>
       <use x="63.623046875" xlink:href="#BitstreamVeraSans-Roman-30"/>
       <use x="127.24609375" xlink:href="#BitstreamVeraSans-Roman-31"/>
       <use x="190.869140625" xlink:href="#BitstreamVeraSans-Roman-35"/>
      </g>
     </g>
    </g>
    <g id="xtick_6">
     <g id="line2d_13">
      <g>
       <use style="stroke:#000000;stroke-width:0.5;" x="371.605591716" xlink:href="#m088c6845a0" y="361.098447467"/>
      </g>
     </g>
     <g id="line2d_14">
      <g>
       <use style="stroke:#000000;stroke-width:0.5;" x="371.605591716" xlink:href="#mce60f1299a" y="18.766875"/>
      </g>
     </g>
     <g id="text_6">
      <!-- 2016 -->
      <defs>
       <path d="M 33.015625 40.375 
Q 26.375 40.375 22.484375 35.828125 
Q 18.609375 31.296875 18.609375 23.390625 
Q 18.609375 15.53125 22.484375 10.953125 
Q 26.375 6.390625 33.015625 6.390625 
Q 39.65625 6.390625 43.53125 10.953125 
Q 47.40625 15.53125 47.40625 23.390625 
Q 47.40625 31.296875 43.53125 35.828125 
Q 39.65625 40.375 33.015625 40.375 
M 52.59375 71.296875 
L 52.59375 62.3125 
Q 48.875 64.0625 45.09375 64.984375 
Q 41.3125 65.921875 37.59375 65.921875 
Q 27.828125 65.921875 22.671875 59.328125 
Q 17.53125 52.734375 16.796875 39.40625 
Q 19.671875 43.65625 24.015625 45.921875 
Q 28.375 48.1875 33.59375 48.1875 
Q 44.578125 48.1875 50.953125 41.515625 
Q 57.328125 34.859375 57.328125 23.390625 
Q 57.328125 12.15625 50.6875 5.359375 
Q 44.046875 -1.421875 33.015625 -1.421875 
Q 20.359375 -1.421875 13.671875 8.265625 
Q 6.984375 17.96875 6.984375 36.375 
Q 6.984375 53.65625 15.1875 63.9375 
Q 23.390625 74.21875 37.203125 74.21875 
Q 40.921875 74.21875 44.703125 73.484375 
Q 48.484375 72.75 52.59375 71.296875 
" id="BitstreamVeraSans-Roman-36"/>
      </defs>
      <g transform="translate(343.909363384 388.264975352)rotate(-30.0)scale(0.12 -0.12)">
       <use xlink:href="#BitstreamVeraSans-Roman-32"/>
       <use x="63.623046875" xlink:href="#BitstreamVeraSans-Roman-30"/>
       <use x="127.24609375" xlink:href="#BitstreamVeraSans-Roman-31"/>
       <use x="190.869140625" xlink:href="#BitstreamVeraSans-Roman-36"/>
      </g>
     </g>
    </g>
    <g id="xtick_7">
     <g id="line2d_15">
      <g>
       <use style="stroke:#000000;stroke-width:0.5;" x="425.820695266" xlink:href="#m088c6845a0" y="361.098447467"/>
      </g>
     </g>
     <g id="line2d_16">
      <g>
       <use style="stroke:#000000;stroke-width:0.5;" x="425.820695266" xlink:href="#mce60f1299a" y="18.766875"/>
      </g>
     </g>
     <g id="text_7">
      <!-- 2017 -->
      <defs>
       <path d="M 8.203125 72.90625 
L 55.078125 72.90625 
L 55.078125 68.703125 
L 28.609375 0 
L 18.3125 0 
L 43.21875 64.59375 
L 8.203125 64.59375 
z
" id="BitstreamVeraSans-Roman-37"/>
      </defs>
      <g transform="translate(398.124466935 388.264975352)rotate(-30.0)scale(0.12 -0.12)">
       <use xlink:href="#BitstreamVeraSans-Roman-32"/>
       <use x="63.623046875" xlink:href="#BitstreamVeraSans-Roman-30"/>
       <use x="127.24609375" xlink:href="#BitstreamVeraSans-Roman-31"/>
       <use x="190.869140625" xlink:href="#BitstreamVeraSans-Roman-37"/>
      </g>
     </g>
    </g>
    <g id="text_8">
     <!-- Date -->
     <defs>
      <path d="M 56.203125 29.59375 
L 56.203125 25.203125 
L 14.890625 25.203125 
Q 15.484375 15.921875 20.484375 11.0625 
Q 25.484375 6.203125 34.421875 6.203125 
Q 39.59375 6.203125 44.453125 7.46875 
Q 49.3125 8.734375 54.109375 11.28125 
L 54.109375 2.78125 
Q 49.265625 0.734375 44.1875 -0.34375 
Q 39.109375 -1.421875 33.890625 -1.421875 
Q 20.796875 -1.421875 13.15625 6.1875 
Q 5.515625 13.8125 5.515625 26.8125 
Q 5.515625 40.234375 12.765625 48.109375 
Q 20.015625 56 32.328125 56 
Q 43.359375 56 49.78125 48.890625 
Q 56.203125 41.796875 56.203125 29.59375 
M 47.21875 32.234375 
Q 47.125 39.59375 43.09375 43.984375 
Q 39.0625 48.390625 32.421875 48.390625 
Q 24.90625 48.390625 20.390625 44.140625 
Q 15.875 39.890625 15.1875 32.171875 
z
" id="BitstreamVeraSans-Roman-65"/>
      <path d="M 18.3125 70.21875 
L 18.3125 54.6875 
L 36.8125 54.6875 
L 36.8125 47.703125 
L 18.3125 47.703125 
L 18.3125 18.015625 
Q 18.3125 11.328125 20.140625 9.421875 
Q 21.96875 7.515625 27.59375 7.515625 
L 36.8125 7.515625 
L 36.8125 0 
L 27.59375 0 
Q 17.1875 0 13.234375 3.875 
Q 9.28125 7.765625 9.28125 18.015625 
L 9.28125 47.703125 
L 2.6875 47.703125 
L 2.6875 54.6875 
L 9.28125 54.6875 
L 9.28125 70.21875 
z
" id="BitstreamVeraSans-Roman-74"/>
      <path d="M 19.671875 64.796875 
L 19.671875 8.109375 
L 31.59375 8.109375 
Q 46.6875 8.109375 53.6875 14.9375 
Q 60.6875 21.78125 60.6875 36.53125 
Q 60.6875 51.171875 53.6875 57.984375 
Q 46.6875 64.796875 31.59375 64.796875 
z
M 9.8125 72.90625 
L 30.078125 72.90625 
Q 51.265625 72.90625 61.171875 64.09375 
Q 71.09375 55.28125 71.09375 36.53125 
Q 71.09375 17.671875 61.125 8.828125 
Q 51.171875 0 30.078125 0 
L 9.8125 0 
z
" id="BitstreamVeraSans-Roman-44"/>
      <path d="M 34.28125 27.484375 
Q 23.390625 27.484375 19.1875 25 
Q 14.984375 22.515625 14.984375 16.5 
Q 14.984375 11.71875 18.140625 8.90625 
Q 21.296875 6.109375 26.703125 6.109375 
Q 34.1875 6.109375 38.703125 11.40625 
Q 43.21875 16.703125 43.21875 25.484375 
L 43.21875 27.484375 
z
M 52.203125 31.203125 
L 52.203125 0 
L 43.21875 0 
L 43.21875 8.296875 
Q 40.140625 3.328125 35.546875 0.953125 
Q 30.953125 -1.421875 24.3125 -1.421875 
Q 15.921875 -1.421875 10.953125 3.296875 
Q 6 8.015625 6 15.921875 
Q 6 25.140625 12.171875 29.828125 
Q 18.359375 34.515625 30.609375 34.515625 
L 43.21875 34.515625 
L 43.21875 35.40625 
Q 43.21875 41.609375 39.140625 45 
Q 35.0625 48.390625 27.6875 48.390625 
Q 23 48.390625 18.546875 47.265625 
Q 14.109375 46.140625 10.015625 43.890625 
L 10.015625 52.203125 
Q 14.9375 54.109375 19.578125 55.046875 
Q 24.21875 56 28.609375 56 
Q 40.484375 56 46.34375 49.84375 
Q 52.203125 43.703125 52.203125 31.203125 
" id="BitstreamVeraSans-Roman-61"/>
     </defs>
     <g transform="translate(233.4290625 404.544375)scale(0.12 -0.12)">
      <use xlink:href="#BitstreamVeraSans-Roman-44"/>
      <use x="77.001953125" xlink:href="#BitstreamVeraSans-Roman-61"/>
      <use x="138.28125" xlink:href="#BitstreamVeraSans-Roman-74"/>
      <use x="177.490234375" xlink:href="#BitstreamVeraSans-Roman-65"/>
     </g>
    </g>
   </g>
   <g id="matplotlib.axis_2">
    <g id="ytick_1">
     <g id="line2d_17">
      <defs>
       <path d="M 0 0 
L 4 0 
" id="m33f69c182e" style="stroke:#000000;stroke-width:0.5;"/>
      </defs>
      <g>
       <use style="stroke:#000000;stroke-width:0.5;" x="47.5" xlink:href="#m33f69c182e" y="361.098447467"/>
      </g>
     </g>
     <g id="line2d_18">
      <defs>
       <path d="M 0 0 
L -4 0 
" id="m98ef439f01" style="stroke:#000000;stroke-width:0.5;"/>
      </defs>
      <g>
       <use style="stroke:#000000;stroke-width:0.5;" x="448.04" xlink:href="#m98ef439f01" y="361.098447467"/>
      </g>
     </g>
     <g id="text_9">
      <!-- 500 -->
      <g transform="translate(20.595 364.409697467)scale(0.12 -0.12)">
       <use xlink:href="#BitstreamVeraSans-Roman-35"/>
       <use x="63.623046875" xlink:href="#BitstreamVeraSans-Roman-30"/>
       <use x="127.24609375" xlink:href="#BitstreamVeraSans-Roman-30"/>
      </g>
     </g>
    </g>
    <g id="ytick_2">
     <g id="line2d_19">
      <g>
       <use style="stroke:#000000;stroke-width:0.5;" x="47.5" xlink:href="#m33f69c182e" y="304.043185389"/>
      </g>
     </g>
     <g id="line2d_20">
      <g>
       <use style="stroke:#000000;stroke-width:0.5;" x="448.04" xlink:href="#m98ef439f01" y="304.043185389"/>
      </g>
     </g>
     <g id="text_10">
      <!-- 1000 -->
      <g transform="translate(12.96 307.354435389)scale(0.12 -0.12)">
       <use xlink:href="#BitstreamVeraSans-Roman-31"/>
       <use x="63.623046875" xlink:href="#BitstreamVeraSans-Roman-30"/>
       <use x="127.24609375" xlink:href="#BitstreamVeraSans-Roman-30"/>
       <use x="190.869140625" xlink:href="#BitstreamVeraSans-Roman-30"/>
      </g>
     </g>
    </g>
    <g id="ytick_3">
     <g id="line2d_21">
      <g>
       <use style="stroke:#000000;stroke-width:0.5;" x="47.5" xlink:href="#m33f69c182e" y="246.987923311"/>
      </g>
     </g>
     <g id="line2d_22">
      <g>
       <use style="stroke:#000000;stroke-width:0.5;" x="448.04" xlink:href="#m98ef439f01" y="246.987923311"/>
      </g>
     </g>
     <g id="text_11">
      <!-- 1500 -->
      <g transform="translate(12.96 250.299173311)scale(0.12 -0.12)">
       <use xlink:href="#BitstreamVeraSans-Roman-31"/>
       <use x="63.623046875" xlink:href="#BitstreamVeraSans-Roman-35"/>
       <use x="127.24609375" xlink:href="#BitstreamVeraSans-Roman-30"/>
       <use x="190.869140625" xlink:href="#BitstreamVeraSans-Roman-30"/>
      </g>
     </g>
    </g>
    <g id="ytick_4">
     <g id="line2d_23">
      <g>
       <use style="stroke:#000000;stroke-width:0.5;" x="47.5" xlink:href="#m33f69c182e" y="189.932661233"/>
      </g>
     </g>
     <g id="line2d_24">
      <g>
       <use style="stroke:#000000;stroke-width:0.5;" x="448.04" xlink:href="#m98ef439f01" y="189.932661233"/>
      </g>
     </g>
     <g id="text_12">
      <!-- 2000 -->
      <g transform="translate(12.96 193.243911233)scale(0.12 -0.12)">
       <use xlink:href="#BitstreamVeraSans-Roman-32"/>
       <use x="63.623046875" xlink:href="#BitstreamVeraSans-Roman-30"/>
       <use x="127.24609375" xlink:href="#BitstreamVeraSans-Roman-30"/>
       <use x="190.869140625" xlink:href="#BitstreamVeraSans-Roman-30"/>
      </g>
     </g>
    </g>
    <g id="ytick_5">
     <g id="line2d_25">
      <g>
       <use style="stroke:#000000;stroke-width:0.5;" x="47.5" xlink:href="#m33f69c182e" y="132.877399156"/>
      </g>
     </g>
     <g id="line2d_26">
      <g>
       <use style="stroke:#000000;stroke-width:0.5;" x="448.04" xlink:href="#m98ef439f01" y="132.877399156"/>
      </g>
     </g>
     <g id="text_13">
      <!-- 2500 -->
      <g transform="translate(12.96 136.188649156)scale(0.12 -0.12)">
       <use xlink:href="#BitstreamVeraSans-Roman-32"/>
       <use x="63.623046875" xlink:href="#BitstreamVeraSans-Roman-35"/>
       <use x="127.24609375" xlink:href="#BitstreamVeraSans-Roman-30"/>
       <use x="190.869140625" xlink:href="#BitstreamVeraSans-Roman-30"/>
      </g>
     </g>
    </g>
    <g id="ytick_6">
     <g id="line2d_27">
      <g>
       <use style="stroke:#000000;stroke-width:0.5;" x="47.5" xlink:href="#m33f69c182e" y="75.8221370778"/>
      </g>
     </g>
     <g id="line2d_28">
      <g>
       <use style="stroke:#000000;stroke-width:0.5;" x="448.04" xlink:href="#m98ef439f01" y="75.8221370778"/>
      </g>
     </g>
     <g id="text_14">
      <!-- 3000 -->
      <g transform="translate(12.96 79.1333870778)scale(0.12 -0.12)">
       <use xlink:href="#BitstreamVeraSans-Roman-33"/>
       <use x="63.623046875" xlink:href="#BitstreamVeraSans-Roman-30"/>
       <use x="127.24609375" xlink:href="#BitstreamVeraSans-Roman-30"/>
       <use x="190.869140625" xlink:href="#BitstreamVeraSans-Roman-30"/>
      </g>
     </g>
    </g>
    <g id="ytick_7">
     <g id="line2d_29">
      <g>
       <use style="stroke:#000000;stroke-width:0.5;" x="47.5" xlink:href="#m33f69c182e" y="18.766875"/>
      </g>
     </g>
     <g id="line2d_30">
      <g>
       <use style="stroke:#000000;stroke-width:0.5;" x="448.04" xlink:href="#m98ef439f01" y="18.766875"/>
      </g>
     </g>
     <g id="text_15">
      <!-- 3500 -->
      <g transform="translate(12.96 22.078125)scale(0.12 -0.12)">
       <use xlink:href="#BitstreamVeraSans-Roman-33"/>
       <use x="63.623046875" xlink:href="#BitstreamVeraSans-Roman-35"/>
       <use x="127.24609375" xlink:href="#BitstreamVeraSans-Roman-30"/>
       <use x="190.869140625" xlink:href="#BitstreamVeraSans-Roman-30"/>
      </g>
     </g>
    </g>
   </g>
   <g id="legend_1">
    <g id="patch_7">
     <path d="M 54.7 72.559875 
L 151.5265 72.559875 
L 151.5265 25.966875 
L 54.7 25.966875 
z
" style="fill:#ffffff;stroke:#000000;stroke-linejoin:miter;"/>
    </g>
    <g id="line2d_31">
     <path d="M 64.78 37.628625 
L 84.94 37.628625 
" style="fill:none;stroke:#0000ff;stroke-linecap:square;"/>
    </g>
    <g id="line2d_32"/>
    <g id="text_16">
     <!-- AAPL -->
     <defs>
      <path d="M 19.671875 64.796875 
L 19.671875 37.40625 
L 32.078125 37.40625 
Q 38.96875 37.40625 42.71875 40.96875 
Q 46.484375 44.53125 46.484375 51.125 
Q 46.484375 57.671875 42.71875 61.234375 
Q 38.96875 64.796875 32.078125 64.796875 
z
M 9.8125 72.90625 
L 32.078125 72.90625 
Q 44.34375 72.90625 50.609375 67.359375 
Q 56.890625 61.8125 56.890625 51.125 
Q 56.890625 40.328125 50.609375 34.8125 
Q 44.34375 29.296875 32.078125 29.296875 
L 19.671875 29.296875 
L 19.671875 0 
L 9.8125 0 
z
" id="BitstreamVeraSans-Roman-50"/>
      <path d="M 9.8125 72.90625 
L 19.671875 72.90625 
L 19.671875 8.296875 
L 55.171875 8.296875 
L 55.171875 0 
L 9.8125 0 
z
" id="BitstreamVeraSans-Roman-4c"/>
      <path d="M 34.1875 63.1875 
L 20.796875 26.90625 
L 47.609375 26.90625 
z
M 28.609375 72.90625 
L 39.796875 72.90625 
L 67.578125 0 
L 57.328125 0 
L 50.6875 18.703125 
L 17.828125 18.703125 
L 11.1875 0 
L 0.78125 0 
z
" id="BitstreamVeraSans-Roman-41"/>
     </defs>
     <g transform="translate(100.78 42.668625)scale(0.144 -0.144)">
      <use xlink:href="#BitstreamVeraSans-Roman-41"/>
      <use x="68.439453125" xlink:href="#BitstreamVeraSans-Roman-41"/>
      <use x="136.84765625" xlink:href="#BitstreamVeraSans-Roman-50"/>
      <use x="197.150390625" xlink:href="#BitstreamVeraSans-Roman-4c"/>
     </g>
    </g>
    <g id="line2d_33">
     <path d="M 64.78 58.765125 
L 84.94 58.765125 
" style="fill:none;stroke:#008000;stroke-linecap:square;"/>
    </g>
    <g id="line2d_34"/>
    <g id="text_17">
     <!-- GOOG -->
     <defs>
      <path d="M 39.40625 66.21875 
Q 28.65625 66.21875 22.328125 58.203125 
Q 16.015625 50.203125 16.015625 36.375 
Q 16.015625 22.609375 22.328125 14.59375 
Q 28.65625 6.59375 39.40625 6.59375 
Q 50.140625 6.59375 56.421875 14.59375 
Q 62.703125 22.609375 62.703125 36.375 
Q 62.703125 50.203125 56.421875 58.203125 
Q 50.140625 66.21875 39.40625 66.21875 
M 39.40625 74.21875 
Q 54.734375 74.21875 63.90625 63.9375 
Q 73.09375 53.65625 73.09375 36.375 
Q 73.09375 19.140625 63.90625 8.859375 
Q 54.734375 -1.421875 39.40625 -1.421875 
Q 24.03125 -1.421875 14.8125 8.828125 
Q 5.609375 19.09375 5.609375 36.375 
Q 5.609375 53.65625 14.8125 63.9375 
Q 24.03125 74.21875 39.40625 74.21875 
" id="BitstreamVeraSans-Roman-4f"/>
      <path d="M 59.515625 10.40625 
L 59.515625 29.984375 
L 43.40625 29.984375 
L 43.40625 38.09375 
L 69.28125 38.09375 
L 69.28125 6.78125 
Q 63.578125 2.734375 56.6875 0.65625 
Q 49.8125 -1.421875 42 -1.421875 
Q 24.90625 -1.421875 15.25 8.5625 
Q 5.609375 18.5625 5.609375 36.375 
Q 5.609375 54.25 15.25 64.234375 
Q 24.90625 74.21875 42 74.21875 
Q 49.125 74.21875 55.546875 72.453125 
Q 61.96875 70.703125 67.390625 67.28125 
L 67.390625 56.78125 
Q 61.921875 61.421875 55.765625 63.765625 
Q 49.609375 66.109375 42.828125 66.109375 
Q 29.4375 66.109375 22.71875 58.640625 
Q 16.015625 51.171875 16.015625 36.375 
Q 16.015625 21.625 22.71875 14.15625 
Q 29.4375 6.6875 42.828125 6.6875 
Q 48.046875 6.6875 52.140625 7.59375 
Q 56.25 8.5 59.515625 10.40625 
" id="BitstreamVeraSans-Roman-47"/>
     </defs>
     <g transform="translate(100.78 63.805125)scale(0.144 -0.144)">
      <use xlink:href="#BitstreamVeraSans-Roman-47"/>
      <use x="77.490234375" xlink:href="#BitstreamVeraSans-Roman-4f"/>
      <use x="156.201171875" xlink:href="#BitstreamVeraSans-Roman-4f"/>
      <use x="234.912109375" xlink:href="#BitstreamVeraSans-Roman-47"/>
     </g>
    </g>
   </g>
  </g>
 </g>
 <defs>
  <clipPath id="pa6439969f4">
   <rect height="342.331572467" width="400.54" x="47.5" y="18.766875"/>
  </clipPath>
 </defs>
</svg>
